<?xml version="1.0" standalone="no"?>
<!DOCTYPE svg PUBLIC "-//W3C//DTD SVG 1.1//EN" "http://www.w3.org/Graphics/SVG/1.1/DTD/svg11.dtd" >
<svg xmlns="http://www.w3.org/2000/svg" xmlns:xlink="http://www.w3.org/1999/xlink" version="1.1">
<metadata></metadata>
<defs>
<font id="lemieszregular" horiz-adv-x="1024" >
<font-face units-per-em="2048" ascent="1638" descent="-410" />
<missing-glyph horiz-adv-x="956" />
<glyph horiz-adv-x="0" />
<glyph unicode="&#xd;" horiz-adv-x="682" />
<glyph unicode=" "  horiz-adv-x="956" />
<glyph unicode="&#x09;" horiz-adv-x="956" />
<glyph unicode="&#xa0;" horiz-adv-x="956" />
<glyph unicode="!" horiz-adv-x="811" d="M68 152v13v13q1 17 7 51q3 17 11 47q-8 11 -12 23q-4 11 -4 27q0 11 1 17q2 12 3 17v7q0 2 2 4q0 7 2 21t2 22v12q0 7 -4 12q2 10 2 17v16v8v8v17v16q0 27 8 54q8 24 41 32h17h16h26h25q18 -2 27 -2h24q28 0 53 3q21 2 50 11q11 4 21 6q7 1 22 1q18 0 40 -5q13 -4 37 -10 q6 -4 15 -6q2 0 8 -2t8 -2q4 0 11 -2t10 -2q14 -2 20 -2q13 2 30 6q15 5 31 16l9 -3q3 -1 8 -1q2 0 3 -1t3 -1q5 -1 20 -5q8 -3 15 -11q16 -19 21 -41q5 -23 5 -43q0 -8 -2 -30q-1 -6 -2.5 -17t-1.5 -14q0 -5 -2 -16t-2 -16q-2 -22 -2 -32q0 -20 4 -35q5 -19 15 -35 q-4 -19 -6 -41q-3 -22 -3 -45q0 -21 1 -32q2 -22 4 -31q0 -21 1 -31q1 -11 1 -33t-1 -33q-1 -17 -6 -34q-8 -11 -21 -15q-13 -6 -30 -6h-5h-5q-8 2 -11 3q-2 1 -5 2t-5 1q-2 2 -6 4t-6 4q-6 3 -10 3l-12 3q-4 1 -13 1q-14 0 -31 -5q-16 -4 -30 -12q-6 -4 -12 -6 q-2 0 -6 -1.5t-7 -2.5q-11 -4 -21 -6q-14 -2 -22 -2t-11 1t-11 3q-6 1 -11 5q-8 4 -12 7q-19 -8 -39 -12q-17 -4 -41 -4q-11 0 -37 2q-21 2 -40 6q-6 0 -20 2t-20 2q-26 2 -38 2h-13q-6 0 -16 -2q-5 0 -15 -2q-2 0 -7 -2t-7 -2q-21 30 -28 67q-8 40 -8 79zM94 1458 q-2 6 -2 10v11q0 17 6 33q5 14 15 32q21 13 42 17q19 4 42 4q16 0 24 -1q16 -2 25 -3q21 0 32 -1q10 -1 29 -1q11 0 31 2q12 1 29 8q11 1 18 3q5 1 16 1q17 0 33 -3q22 -4 33 -5q14 -4 35 -7q16 -4 35 -4q8 0 13 1q8 2 13 4q7 0 14 3q12 5 13 5q10 2 15 2h13q30 0 58 -11 q26 -12 35 -40q2 -16 2 -24v-24q0 -46 -7 -81q-2 -13 -8 -39t-8 -39q-1 -4 -3 -14q-2 -12 -3 -17q-7 -36 -11 -59q-5 -35 -5 -64q0 -16 1 -24q1 -9 3 -25q-24 -29 -37 -56q-18 -40 -27 -61v-3q0 -1 -2 -3q-16 -47 -39 -90q-24 -43 -78 -72v-3v-1v-3v-3q0 -39 -23 -71 q-24 -33 -58 -52q-41 2 -53 27q-14 24 -21 55q0 3 -1 5t-1 7q-5 22 -12 40q-10 21 -27 34q2 8 2 13v12q0 12 -3 24q-4 14 -5 21q-1 3 -3 7q-1 2 -1 5q-4 9 -7 20q-4 9 -6 21q-34 28 -51 71q-13 34 -31 87q-8 26 -11 39q-3 12 -13 36q-14 22 -18 48q-5 27 -5 51v3v3 q-1 22 -7 64q-4 29 -32 55q-1 2 -2.5 6t-1.5 5t-2 4t-2 5z" />
<glyph unicode="&#x22;" d="M72 1563q0 11 1 16q2 11 5 16q0 6 1 10q1 3 1 7q6 9 7 10q4 2 9 2h1h1l2 -2q2 0 3 -1t1 -3q8 -8 16 -13q7 -5 17 -1q7 12 20 15q11 3 23 3h3h3h10q3 0 9 2h1h3q3 0 7 -2q1 0 2 -1t2.5 -2t2.5 -1v-2h2q1 -2 4 -5l2 -2t2 -1q40 12 49 14q22 6 48 6h9q3 0 9 -2q4 -11 12 -16 q7 -4 17 -4q3 0 9 2t11 2h2q2 2 5 2h4v1q0 1 2 1h2q6 0 10 -6q4 -5 4 -15v-3v-1v-3v-1v-14q0 -3 2 -15v-15v-13q0 -13 -1 -20q-1 -10 -9 -21q10 -22 13 -33q6 -24 9 -35q2 -10 2 -16v-17q0 -9 -2 -27q-1 -11 -8 -26q15 -18 19 -37q5 -23 6 -43v-2v-2q3 -14 7 -37 q3 -20 15 -36q-1 -9 -7 -21q-4 -10 -19 -12h-3h-4q0 -2 -2 -2h-2q-25 0 -37 14q-11 12 -22 33q-11 18 -23 32q-14 15 -38 15h-4h-5q-7 14 -16 23q-3 4 -10 10t-11 10v2q-14 12 -26 26q-13 14 -14 31q-16 15 -35 26q-21 10 -37 15q-7 15 -15 29q-3 5 -10 14t-10 13q-3 3 -5 7 t-5 7q-13 17 -24 38q-11 20 -11 42v2q-6 6 -9 14t-3 19zM522 1563q0 11 1 16q2 11 5 16q0 6 1 10q1 3 1 7q6 9 8 10q4 2 9 2h1h1l2 -2q2 0 3 -1t1 -3q9 -8 16 -13t17 -1q7 12 19 15q11 3 24 3h3h3h9q3 0 9 2h1h3q2 0 8 -2q1 0 3 -1.5t4 -2.5v-2h2q0 -2 4 -5q0 -1 2 -2l2 -1 q40 12 49 14q23 6 47 6h10q3 0 9 -2q5 -12 11 -16q7 -4 17 -4q2 0 10 2q6 2 11 2h2q2 2 4 2h4v1q0 1 2 1h2q6 0 11 -6q4 -5 4 -15v-3v-1v-3v-1v-14q0 -3 2 -15v-15v-13q0 -13 -1 -20q-2 -11 -10 -21q10 -22 14 -33q6 -24 9 -35q2 -10 2 -16v-17q0 -9 -2 -27q-1 -11 -8 -26 q14 -17 18 -37q5 -23 6 -43v-2v-2q2 -7 4.5 -19t3.5 -18q3 -20 15 -36q-1 -9 -7 -21q-4 -10 -20 -12h-3h-3q0 -2 -2 -2h-2q-25 0 -37 14q-11 12 -22 33q-11 18 -23 32q-13 15 -39 15h-4h-4q-7 14 -16 23q-4 4 -11 10t-10 10v2q-14 12 -26 26q-14 14 -15 31q-15 15 -34 26 q-22 10 -38 15q-7 15 -15 29q-12 18 -19 27q-3 3 -5 7q-1 2 -6 7q-13 17 -24 38q-10 19 -10 42v2q-6 6 -9 14q-4 7 -4 19z" />
<glyph unicode="#" horiz-adv-x="1617" d="M29 1112q0 12 8 23q7 10 22 18q-4 3 -7 6q-1 1 -1 4q0 2 4 5t6 8q1 1 5 3.5t6 4.5q4 4 4 8q30 -2 46 -2q14 0 50 -2h23h24q41 0 62 1q20 1 57 1q41 0 62 1q20 1 61 1q28 0 43 -1t41 -1q30 0 44 -1t44 -3q12 7 28 8q22 2 33 2h21q6 0 20 -2h22h17h21q6 0 16 2q13 3 40 5 q13 1 38 1q29 0 58 -3q39 -4 54 -5q8 -2 12 -2q3 0 11 -2l45 -3q14 -1 43 -1q17 0 26 1t27 1q14 9 26 10q18 2 34 2q15 0 24 -1t25 -3h7h7q8 0 26 -2t25 -2h5h2h3h5q17 0 27 1q9 1 28 1h14q5 0 15 2h20h21q34 0 59 -4q28 -5 41 -16q-9 -5 -14 -13q-4 -6 -2 -14q0 -7 3 -11 q4 -6 5 -12q3 -3 4 -5t4 -5q4 -5 10 -17q4 -8 4 -18q0 -5 -3 -13q-3 -7 -13 -13q-1 0 -8 -5q-5 -3 -6 -6q-2 0 -2 -1v-1q-4 -1 -10 -5q-5 -3 -5 -5t3 -4q1 0 3 -1.5t4 -2.5q19 0 26 -5q5 -5 5 -9v-2q0 -2 2 -4q1 -2 4 -5q-1 -18 -31 -24t-75 -6h-34q-12 0 -38 2q-22 0 -34 1 q-13 1 -35 1q-17 0 -24 -1t-22 -1q-3 0 -13 2q-3 1 -8 2t-7 2q-7 1 -40 5q-22 3 -44 3q-36 -8 -71 -11q-37 -3 -75 -3h-34h-37q-22 2 -34 2h-40h-10h-15h-11h-11q-15 7 -29 8q-22 2 -30 2h-19q-8 0 -22 -2q-14 0 -21 -1q-8 -1 -24 -1h-5h-6q0 2 -3 2h-5q-3 -1 -5 -3 q-1 -1 -3 -1q0 -1 -3 -3q-2 -1 -7 -1h-1h-3h-6h-1q-26 0 -39 -1t-38 -1h-14q-5 0 -15 -2h-26h-27q-16 0 -50 2q-27 2 -49 6q-15 0 -24 -1q-10 -1 -27 -1q-8 -1 -23 -2t-22 -2q-30 -2 -45 -2h-31h-30q-46 0 -91 5q-39 4 -57 19v4v4q0 3 -2 9t-2 8q0 5 -1 7t-1 7q0 8 5 16 q4 6 28 11q-26 11 -36 24q-11 14 -11 29zM47 467q0 8 3 14t13 13q5 4 9 6q3 1 6 4l2 2q4 1 10 5q4 3 4 7q0 2 -3 4q-1 0 -3 1.5t-4 2.5q-20 0 -25 5q-6 5 -6 8v2q0 1 -2 5q-1 3 -4 3q2 20 32 26q33 5 75 5h35q12 0 36 -2h36h34h25h20q8 0 13 -1q2 0 7.5 -1.5t8.5 -2.5 q14 -4 40 -7q21 -3 44 -3q31 10 71 13q50 2 74 2h35h37q22 0 35 -1q24 -2 38 -2h11h14q5 0 11 2q3 1 12 1q13 -6 30 -9q13 -4 29 -4q12 0 20 1q7 1 21 1t22 1q7 1 23 1h5h5h3h5q5 0 6 1t3 1q0 1 3 3q2 1 7 1h1h3h5h1q14 0 40 2q13 1 38 1h14q3 0 15 2h26h27q17 0 51 -2 q29 -3 47 -7q15 0 25 1q18 2 26 3t23 2t23 2q15 1 44 1q21 0 32 1t30 1q46 0 91 -5q40 -6 56 -22v-4v-4q0 -3 2 -7t2 -8q0 -5 1 -8t1 -8t-5 -13q-4 -6 -27 -14q27 -11 36 -23q11 -14 11 -30q0 -10 -8 -21q-9 -12 -23 -20q5 -1 7 -5l1 -3q0 -4 -4 -7q-5 -3 -6 -7 q-5 -1 -10 -6q-4 -4 -4 -9v-2q-30 2 -46 2q-15 0 -51 2h-22h-25q-41 0 -61 -1q-21 -1 -57 -1h-62h-61h-43h-41q-16 0 -44 2q-13 1 -44 5q-10 -6 -27 -9q-16 -4 -35 -4q-13 0 -20 1t-21 1q-15 0 -21 1q-7 1 -18 1q-15 0 -20 -1t-17 -3q-7 0 -20 -2t-19 -2q-20 -2 -38 0 q-19 0 -57 2q-29 2 -56 6q-6 0 -10 1t-13 1q-17 1 -44 5q-28 2 -44 2q-16 -2 -25 -2q-5 -1 -14 -2t-14 -1q-13 -7 -25 -8q-18 -2 -34 -2q-14 0 -23 1t-26 1h-7h-8q-16 2 -25 3t-26 1h-4h-2h-3h-5h-26q-10 0 -30 -2h-13h-15h-20h-21q-31 0 -58 3q-29 3 -43 16q10 7 15 14 q4 5 2 14q0 3 -3 11l-5 10q-3 3 -4 5l-5 5q-5 6 -10 18q-4 8 -4 17zM143 1546q0 31 14 54t52 30q5 0 16 -2t16 -2q20 -2 29 -2q8 0 23 -2t22 -2q22 -2 41 -12q19 12 44 18q24 6 46 6h13q4 0 12 -2q16 -1 36 -8q19 -7 32 -16q14 8 31 14q19 7 32 8q6 2 8 2h8q26 0 48 -13 t34 -46q2 -18 2 -26v-25q0 -27 -1 -40q-2 -26 -3 -38q0 -6 -1 -20t-2 -20q-1 -13 -1 -38q0 -30 4 -54q4 -28 15 -57q-1 -10 -2.5 -27t-1.5 -24q-2 -32 -2 -49q0 -19 2 -57q1 -10 2 -29t2 -29v-6q0 -2 2 -8q1 -19 5 -62q3 -32 3 -67q0 -12 -2 -44q-1 -24 -6 -48q0 -15 2 -47 q1 -9 2.5 -25t1.5 -24q2 -30 2 -47q0 -16 2 -50v-16v-16q0 -24 -2 -70q-1 -29 -10 -66q5 -8 6 -15q2 -10 2 -17q0 -8 -1 -11q-1 -4 -1 -10q-2 -10 -2 -15v-14q0 -8 3 -16q4 -10 9 -16q-7 -22 -8 -42q-2 -30 -2 -42q0 -21 1 -32q2 -22 3 -32v-32v-33q0 -24 -1 -37 q-2 -26 -5 -39q-7 -27 -26 -36t-38 -9h-7q-1 0 -7 2q-5 0 -7 1t-7 1q-14 9 -22 11q-11 3 -25 3q-7 0 -21 -2q-16 -2 -22 -2q-4 -1 -12 -2.5t-11 -1.5q-16 -2 -23 -2q-9 0 -23 2q-8 1 -24 10q-18 -7 -43 -12q-21 -4 -49 -4q-14 0 -22 1q-9 1 -23 1q-8 0 -11 1t-13 1l-33 3 q-11 1 -33 1h-9h-11q-3 0 -4 -1q-2 -1 -7 -1q-10 35 -16 74q-6 38 -6 76q0 33 4 58q4 28 12 54q-8 27 -9 52q-1 16 -1 49q0 22 2 60q1 28 6 58q4 28 6 58q2 38 2 59q0 28 -3 60t-13 63v4v4v2v4q0 12 -2 38q-1 7 -2.5 19.5t-1.5 18.5l-3 36q-1 11 -1 36q0 16 1 25l3 24 q1 9 6 23q6 16 10 24q-15 32 -17 75q-1 27 -1 81v5v7v12v13v16v16q0 9 -1 15q-1 5 -1 16q0 6 2 20q1 3 2.5 9t1.5 8q0 3 1.5 10.5t2.5 11.5q2 14 2 21q0 6 -2 20q-1 8 -10 17q0 5 1 8t1 10v8v9v20q0 7 -2 21q0 5 -2 17q0 3 -1.5 9l-2.5 10q-1 15 -5 40q-4 17 -4 38z M915 1552q0 31 14 54t52 30q5 0 16 -2t16 -2q20 -2 29 -2q8 0 23 -2t22 -2q22 -2 41 -12q19 12 44 18q24 6 47 6h12q4 0 12 -2q16 -1 36 -8q19 -7 32 -16q14 8 31 14q19 7 32 8q6 2 8 2h9q25 0 47 -13q21 -13 35 -46q2 -18 2 -26v-25q0 -27 -1 -40q-2 -26 -4 -38l-3 -39 q-1 -13 -1 -39q0 -24 5 -54q5 -32 14 -56q-1 -10 -2.5 -27t-1.5 -24q-2 -34 -2 -50q0 -19 2 -57q1 -10 2 -29t2 -29v-6q0 -2 2 -8q1 -19 5 -62q3 -32 3 -67q0 -13 -2 -43q-1 -23 -6 -49q0 -15 2 -47q1 -9 2.5 -25t1.5 -24q2 -30 2 -47q0 -16 2 -50v-16v-16q0 -24 -2 -70 q-1 -30 -10 -65q5 -7 6 -15q2 -10 2 -18t-1 -11q-1 -4 -1 -10q-2 -10 -2 -15v-13q0 -9 3 -16q3 -10 9 -17q-7 -22 -8 -42q-2 -30 -2 -42q0 -21 1 -32q2 -22 3 -32v-32v-33q0 -24 -1 -36q-2 -26 -5 -40q-7 -27 -26 -36t-38 -9h-7q-1 0 -7 2q-5 0 -7 1t-7 1q-14 9 -22 11 q-11 3 -25 3q-7 0 -21 -2q-16 -2 -22 -2q-4 -1 -12 -2.5t-11 -1.5q-16 -2 -22 -2q-9 0 -23 2q-9 1 -25 10q-18 -7 -43 -12q-21 -4 -49 -4q-14 0 -22 1q-9 1 -23 1q-8 0 -11 1t-13 1q-5 0 -16 1t-16 2q-11 1 -34 1h-9h-11q-3 0 -4 -1t-7 -1q-10 35 -16 74q-6 38 -6 76 q0 33 4 58q4 28 12 54q-8 27 -9 52q-1 16 -1 49q0 22 2 60q1 27 6 59q4 28 6 58q2 38 2 58q0 28 -3 60t-13 63v4v4v2v4q0 12 -2 38q-1 7 -2.5 19.5t-1.5 18.5l-3 36q-1 11 -1 36q0 16 1 25l3 24q1 9 6 23q6 16 10 24q-15 32 -17 75q-1 27 -1 81v5v7v13v12v16v16q0 9 -1 15 q-1 5 -1 16q0 6 2 20q1 3 2.5 9t1.5 8q0 3 1.5 10.5t2.5 11.5q2 14 2 21q0 6 -2 20q-1 8 -10 17q0 5 1 8t1 10v9v8v20q0 7 -2 21q0 5 -2 17q0 3 -1.5 9.5t-2.5 10.5q-1 15 -5 40q-4 17 -4 37z" />
<glyph unicode="$" horiz-adv-x="1302" d="M98 389v5v5v14q0 5 2 15v14v15q12 18 32 24q21 7 40 8q3 0 7 2q2 1 7 1h14q5 0 13 2q1 0 4 -1t4 -2q6 -2 8 -2q14 -8 22 -11q11 -5 17 -15q22 10 49 12q34 2 52 2h29h26q19 0 28 -1t25 -1h7q2 0 8 2h5h7q14 -18 33 -14q20 5 34 14q3 0 6 1q4 2 5 3q6 5 12 6q4 1 14 5 q8 5 15 13q7 10 8 17q0 6 1 9t1 6q0 8 -1 11q-3 8 -5 11q-12 14 -33 29q-13 8 -37 24q-1 0 -2.5 1t-2.5 2t-2 1q-1 1 -3.5 2.5t-3.5 2.5q-9 5 -29 19q-14 9 -31 26h-3h-1h-3h-3q-34 0 -56 16q-24 16 -48 39q0 2 -1 2h-1l-45 39q-23 18 -52 20q-29 23 -46 52q-18 32 -29 57 q-1 6 -3 9q0 1 -1 2t-2 2.5t-1 2.5q-9 15 -14 29l-12 27q-1 4 -5 10q-3 5 -3 10l-3 9q-1 3 -1 9q0 19 7 36q5 12 15 34h2q1 3 14 34q7 15 7 36v5v7q0 5 -1 6t-1 6q18 93 95 169t167 104q12 -4 21 -6q12 -2 18 -2q14 0 29 3t28 9q8 2 11 3l9 3q28 33 73 39q48 7 87 8 q8 2 13 2h12q14 0 29 -6q12 -6 26 -14q23 27 55 35q34 8 66 8h33q10 0 32 -2q16 -2 23 -3q14 -2 18 -2q13 -6 21 -16q9 -12 10 -22q5 -20 13 -36q10 -24 14 -36q10 -19 21 -46q9 -24 9 -52v-4v-7q18 -18 25 -40q6 -22 6 -50v-7v-7q0 -5 -1 -7t-1 -7q-17 -12 -36 -18 q-19 -7 -42 -5q-13 0 -18 1t-17 3q-16 1 -34 8q-16 6 -33 15q-16 -9 -44 -14q-27 -5 -52 -5h-18q-9 0 -19 2q-10 0 -15 1t-16 1q-16 2 -23 3q-8 1 -22 1q-2 1 -5 2t-4 2q-3 1 -9 1q-7 0 -15 -5q-3 -2 -8 -6t-8 -6v-2q-10 -8 -14 -11q-10 -6 -15 -7q0 -1 -2 -4t-2 -5 q-1 -2 -2.5 -5.5t-1.5 -4.5q-4 -6 -6 -12q-2 -8 -2 -12v-5q0 -4 2 -4q0 -1 2 -5q1 -2 4 -5q18 -31 48 -40q40 -12 60 -17q35 -6 66 -19q32 -13 49 -55h3l2 1q2 1 3 1h5h4q51 -2 93 -39q45 -41 74 -80q6 -8 10 -13l9 -15q-8 -8 -11 -15q-3 -8 -3 -16q0 -10 7 -17 q10 -10 17 -14l3 -3l3 -3q7 -5 21 -17q10 -9 10 -24v-2q2 -10 2 -18v-19q4 -22 6 -44q2 -28 2 -44q0 -41 -11 -80q-10 -37 -48 -63v-3v-7q0 -68 -43 -108q-42 -39 -96 -73q-1 0 -8 -5q-6 -4 -7 -5q-26 -16 -39 -25q-7 -4 -20 -14t-19 -14q-2 -1 -6 -2.5t-5 -1.5 q-6 -2 -11 -2q-8 -2 -11 -2h-12h-12q-4 0 -10 2h-14h-13q-16 0 -34 -6q-20 -8 -33 -31q-36 0 -64 -4q-39 -5 -61 -10q-21 -4 -61 -10q-35 -5 -64 -5q-1 5 -4 8l-4 4q-3 3 -5 4q-3 1 -6 1q-5 0 -9 -4l-7 -7h-2q-2 -2 -6 -4t-5 -3q-5 -3 -12 -3h-2q-8 0 -13 -1t-17 -1 q-18 -2 -29 -2h-33q-25 0 -44 3q-18 3 -38 15q-5 14 -12 26q-6 11 -18 28q-13 22 -27 48t-14 54v5v5q0 3 1 4t1 5q-35 14 -46 46q-12 31 -12 64zM528 47v6v6v6v5q2 10 2 17v19v15v14q-2 8 -2 14v13q0 10 2 26q2 10 9 21q0 5 -1 7t-1 5q0 6 -1 10q-1 3 -1 9q0 3 1 6t1 6 q21 9 36 10q22 2 37 2h25q8 0 24 -2q5 -4 9 -6l6 -2q3 0 4 1l2 1q3 0 4 1t4 1q2 0 4 2t4 2q6 2 9 2h2h4h4q6 0 9 -1t11 -3q1 0 2 -1l2 -2t6 -1q3 0 5 -1q1 -1 4 -1q2 0 4 1l4 2l4 2t4 1q8 -13 11 -28q3 -16 3 -33v-4v-5v-5v-7v-12q0 -4 2 -10q-7 -7 -8 -12q-2 -10 -2 -13 t2 -13q1 -7 6 -16q0 -6 1 -10t1 -10q0 -5 -2 -17q0 -3 -2 -10t-2 -10v-2q0 -2 -2 -2q0 -9 -3 -20t-3 -21l-4 -4q-2 -2 -6 -2q-1 0 -5 2q-2 1 -5 4l-9 3q-6 1 -12 -5q-5 5 -8 6q-6 2 -8 2t-8 -2q-1 0 -4 -2t-5 -2q-6 -5 -10 -6q-6 -2 -8 -2q-3 0 -4 1q0 1 -2 2l-2 1 q-2 0 -4 2q-3 3 -4 6l-5 -2.5t-7 -3t-7 -2.5q-11 -4 -22 -4h-4h-7q-10 0 -20 3q-12 3 -19 7h-2q-3 0 -6 -1q-5 -1 -6 -3q-3 0 -4 -1l-2 -2t-2 -1h-2h-2q-3 0 -4 1l-2 2t-2 1q-7 13 -8 25q-3 12 -3 24zM535 1411v5v7q0 3 1 6q1 2 1 5q0 11 1 17t1 19q0 10 -1 15q-1 4 -1 14 q0 9 -1 14t-1 13q0 12 3 24t9 23q0 5 -1 7t-1 5l-3 9q-1 3 -1 10q0 3 1 5q2 4 3 7q19 9 35 10q24 2 36 2h25q7 0 25 -2q5 -5 8 -6q6 -2 8 -2t3 1t3 1q3 0 4 1l2 1q2 0 5 2t4 2q6 2 10 2h4h4q8 0 11 -1l9 -3q3 -1 7 -3q1 -1 4 -1t5 -1t5 -1q6 2 7 2q3 0 7 4q10 -11 13 -28 q2 -22 2 -35v-3v-4v-6v-6q0 -8 1 -12t1 -10q-7 -7 -8 -12q-3 -8 -3 -13q0 -2 1.5 -6t2.5 -7q0 -2 5 -16q2 -8 2 -11v-9q0 -13 -1 -18q-2 -12 -4 -19l-1 -2q-1 -1 -1 -4q0 -1 -1.5 -7.5t-2.5 -10.5q-2 -14 -2 -21q-3 -3 -5 -4q-4 -2 -5 -2q-4 0 -6 2t-4 2q-3 2 -11 5 q-6 1 -12 -5q-1 4 -6 6q-6 2 -8 2q-3 0 -9 -2q-4 -2 -9 -6q-1 0 -4 -2t-4 -2q-6 -2 -9 -2t-4 1q0 1 -2 2l-2 1q-4 0 -6 2q-3 3 -4 6q-8 -6 -18 -9t-23 -3h-4h-4q-12 0 -21 3q-11 3 -20 7q-3 0 -7 -2q-6 -2 -8 -2q-1 0 -3 -1q-3 -1 -3 -3h-3h-3l-3 1q-4 2 -5 3q-7 13 -8 25 q-2 16 -2 24z" />
<glyph unicode="%" horiz-adv-x="1761" d="M57 1339q0 71 125 187q50 45 51 45q73 12 80 24q77 0 113 4q70 9 192 -73q128 -84 117 -275q-12 -275 -336 -301q-166 -10 -206 66q-53 12 -109 125q-27 59 -27 198zM623 10h-361q2 2 299 584q18 36 127 262q76 164 129 262l135 266q91 199 133 213q58 -18 95 -4 q172 70 194 -12l23 14q69 37 35 -53q-17 -45 -60 -121q0 -1 -153 -311q-305 -614 -338 -664q-1 -6 -97 -194q-138 -271 -159 -246q-1 1 -2 4zM303 1307q-20 -128 43 -150q94 -37 119 90t-62 160q-41 13 -66 -12.5t-34 -87.5zM1036 397q0 74 125 187q49 45 51 45q73 14 80 24 q72 0 111 6q72 9 194 -73q128 -86 117 -277q-14 -276 -338 -299q-165 -12 -205 64q-52 12 -108 125q-27 59 -27 198zM1280 365q-18 -125 43 -150q96 -34 121 92q26 125 -64 158q-40 14 -65 -11t-35 -89z" />
<glyph unicode="&#x26;" horiz-adv-x="1916" d="M99 553q0 50 16 91q15 41 66 73q12 63 53 98q42 36 91 64q0 1 2 3q1 1 4 1q22 14 40 26q13 9 35 27q-5 16 -13 26q-12 14 -17 21q-14 13 -24 30q-11 16 -11 36v4v4q0 1 1 2t1 4q-25 22 -33 56t-8 65q0 13 2 41q0 7 2 20t2 19l3 12q1 4 1 12q3 4 7 12q2 3 8 11 q38 65 90 121q51 55 137 57q0 1 1 2l2 2t1 4v2v2v3v3v1v3q0 6 1 10q2 6 5 7q22 6 45 15q28 12 41 18q17 7 82 31q42 14 84 14q10 0 34 -2q18 -2 34 -9q18 15 44 27q28 13 56 14q6 2 9 2h11q24 -1 51 -13q22 -10 33 -40q0 -5 2 -14t2 -14q1 -10 1 -27q0 -16 -1 -24 q-2 -14 -6 -27q36 -27 55 -70q16 -40 21 -86q1 -12 3 -34q1 -11 1 -34q-18 -13 -35 -17q-22 -5 -43 -5q-20 0 -38 6q-18 5 -35 18q-14 -2 -29 -6q-6 -1 -17 -4t-16 -4q-11 -5 -30 -10q-17 -5 -33 -6q-2 -1 -6 -4t-6 -4q-11 -6 -13 -7q-1 0 -4 -2t-4 -2t-4 -2t-4 -2 q-17 -8 -30 -18q-14 -10 -25 -27q1 -21 10 -43q8 -21 30 -31q16 -17 33 -21q18 -5 33 -5h12q3 0 15 2h12h12q10 0 28 -2q10 -1 28 -10q8 -8 11 -17t1 -18q0 -12 -4 -21l-3.5 -10.5t-4.5 -11.5q0 -1 -1 -2.5t-2 -2.5t-1 -2q-3 -3 -3 -8q-3 -4 -5 -14q-1 -4 -1 -14q0 -9 4 -17 q4 -10 13 -20v-4v-2v-4v-4q0 -28 -7 -48q-7 -21 -30 -32q-10 0 -15 -1q-3 0 -8 -1t-8 -2h-2h-2q-11 -3 -35 -5t-35 -2h-9h-9q-13 -26 -37 -47q-15 -13 -47 -39q-3 -3 -5 -4t-5 -4q-39 -28 -66 -58q-29 -32 -29 -85v-3v-1v-3v-3q32 -56 83 -87q52 -32 106 -51q1 -1 6 -3 q3 -1 6 -1q2 2 6 6.5t7 7.5q4 5 12 13l4 4l4 4q23 23 40 44q18 22 36 50q-11 13 -14 18q-7 7 -15 17q-2 0 -2 1t-2 1q-18 20 -30 37q-14 17 -19 43q24 21 46 34q8 5 24.5 14.5t23.5 13.5q3 0 4 1q2 2 6 3q11 5 55 31q31 19 50 38q3 3 10 5q4 1 12 1h10h9q6 -2 8 -2h8 q12 8 15 18q4 12 6 19v4v4q2 2 2 7q0 4 2 6q8 7 26 19q9 6 25 20q31 22 79 60q27 20 81 62q8 -2 12 -2h10q30 0 46 19q15 16 28 41h1q1 0 1 2q13 24 30 41q16 18 48 18h9q3 0 11 -2q0 41 26 65q31 27 56 44q1 1 5 3t5 3q23 16 40 29q19 13 32 34q3 0 4 1t4 1h4h4 q20 0 36 -15q15 -14 20 -34v-8v-8q0 -11 1 -17q1 -7 1 -18q0 -6 1 -9t1 -9q2 -16 3 -25t1 -27q0 -22 -4 -38q-4 -19 -19 -35q16 -11 22 -29q5 -20 5 -39q0 -3 -1 -10t-2 -10l-3 -21q-22 -38 -60 -66q-38 -30 -81 -57q-9 -5 -20 -13q-3 -2 -9.5 -6.5t-9.5 -6.5 q-16 -10 -23 -15q-5 -3 -13 -9t-9 -7q-7 -6 -14 -8q-12 -2 -17 -2l-1 -1l-1 -1q-11 0 -24 -5q-12 -5 -17 -24v-3v-3q0 -12 -8 -20l-17 -17h-2h-2q-8 -8 -13 -12q-6 -5 -11 -17q0 -3 2 -10t2 -10t2 -10t2 -11q2 0 2 -1v-1q7 -39 20 -79q10 -38 33 -76q0 -5 -1 -7q-1 -3 -1 -8 l-3 -9q-1 -3 -1 -11q-12 -51 -26 -88q-17 -44 -60 -72q-5 -26 -21 -45q-21 -23 -39 -37q-2 0 -3 -1l-3 -3q-32 0 -55 -13q-22 -12 -47 -30q-17 -12 -44 -27q-25 -14 -52 -14h-3h-1h-3h-4h-7h-5q-44 -4 -84 -9q-41 -5 -76 -26q-17 0 -49 -2q-7 0 -24 -1.5t-27 -2.5 q-2 -1 -8 -2t-8 -1q-6 -1 -19 -1l-33 -3q-12 -1 -34 -1q-37 0 -74 8q-35 8 -64 29q-2 0 -8 -1t-8 -2q-5 -1 -14 -1q-10 -2 -16 -2h-17q-68 0 -129 19q-67 19 -121 40q-13 6 -17 16q-4 7 -12 19q0 2 -1 3l-1 1q-2 3 -4.5 9t-3.5 8q-5 8 -12 14q-8 0 -12 1q-5 1 -13 1 q-26 1 -54 13q-25 10 -36 42q-4 9 -10 29q-4 13 -6 28q-5 21 -19 59q-12 28 -45 50v22q0 7 -2 21v11v11q0 22 -1 33t-1 31z" />
<glyph unicode="'" horiz-adv-x="770" d="M35 1153q7 17 8 31q4 22 5 33q6 35 10 54q8 26 28 42v2v2q0 3 -0.5 10t-0.5 11q-2 14 -2 21q0 1 -1 3v1v5q0 3 -0.5 8.5t-1.5 8.5v18q0 17 3 32q5 15 13 28q1 1 3 5v5q0 3 -2 9q-1 1 -2.5 4t-2.5 4q-2 2 -2 4l-3 3q-1 1 -1 2.5t-1 2.5v3v1v5q1 1 1 4q1 1 1 4v4q0 8 -1 12 q-1 5 -3 13q0 5 -2 15q-1 5 -1 13q0 12 6 21q7 9 26 13q10 -2 14 -2q5 -1 13 -1q7 0 10 1q4 0 10 2q10 2 13 4l9 3t8 3q3 0 4 -1h4h3h3q30 -4 45 -7q28 -8 40 -15q4 8 12 15q5 4 15 4q8 0 12 -1q8 -2 12 -2l12 -3q4 -1 11 -1h2q3 -5 8 -7q4 -3 9 -3q2 0 10 2q4 0 10 2t10 3 q1 0 5 0.5t5 0.5q7 0 12 -6q5 -8 5 -25q0 -2 1 -5t2 -5q1 -4 1 -11q0 -9 -3 -20q-7 -15 -9 -19v-1l-6 -18q-3 -11 -3 -20v-2v-2q-1 -1 -16 -19q-10 -14 -15 -22q-2 -2 -3 -2l-3 -3q-13 -19 -34 -44q-19 -22 -45 -28q-10 -10 -17 -21q-7 -10 -14 -22q-2 -3 -22 -35 q-11 -15 -32 -28q-6 -14 -18 -20q-9 -7 -23 -10q-1 0 -3 -1q-1 -1 -2 -1q-18 -5 -28 -13q-12 -7 -14 -30q-2 -1 -5 -4l-3 -3l-5 -5l-5 -5q-14 -12 -20 -16q-11 -8 -23 -8q-4 0 -6 1q-1 0 -3 0.5t-3 0.5q-2 2 -6 4l-2 1h-3h-1l-8 4q-4 1 -4 9z" />
<glyph unicode="(" horiz-adv-x="780" d="M29 840q23 32 26 64q2 42 2 65v7v7q0 31 7 58q6 28 30 55l-3 15q-1 5 1 15q0 32 14 63q17 37 29 56v3q0 1 2 1q1 2 20 37q10 21 15 37h1h3h3h1q19 0 27 14q4 9 10 27q4 15 12 31q8 14 31 14h2q4 15 15 29q3 4 10 12t10 12h1q1 0 1 2q3 4 10.5 12.5t11.5 13.5q11 14 15 34 q11 30 23 37q13 8 26 8q6 0 20 -2q8 -1 19 -6q5 -1 22 -5q9 -4 21 -4q9 0 22 5q12 5 19 12q30 0 58 -3q27 -3 50 -20q5 3 17 9q7 4 16 6q17 5 33 6q22 2 33 2h6h6h5h5q3 -4 5 -12q1 -5 1 -11q0 -14 -9 -26q-8 -12 -21 -25q0 -1 -1 -2q-2 -2 -3 -2l-4 -4t-4 -5q-5 -4 -9 -12 q-3 -7 -5 -21q-1 -11 -3 -24q0 -5 -1 -7t-1 -5q-5 -34 -15 -59q-12 -26 -51 -31q2 -10 2 -15v-14q0 -30 -9 -52q-11 -26 -21 -46q-7 -17 -19 -49q-10 -24 -10 -53q0 -11 1 -16q2 -12 3 -19q-8 -21 -11 -43q-4 -30 -5 -45q0 -3 -1 -6t-1 -9q-6 -46 -9 -67q-6 -32 -24 -58v-3 v-3q0 -11 4 -19q6 -12 10 -18l3 -3q1 -1 1 -3q1 -1 3.5 -5t4.5 -6q3 -5 3 -11q1 -20 3 -42q1 -15 1 -42q1 -54 9 -107q8 -54 46 -94q-2 -3 -7 -16q-3 -7 -3 -17q0 -16 7 -29q10 -18 17 -26q0 -2 1 -2t1 -2q7 -8 19 -26q8 -16 8 -33v-3v-4q32 -13 40 -39q5 -17 11 -53v-4v-2 q0 -4 2 -12t2 -12q1 -9 7 -25q1 0 8 -5q3 -2 8 -7q11 -9 31 -31q14 -19 14 -39v-1v-3q-2 -2 -2 -3v-3q-12 -8 -24 -12q-15 -5 -25 -5q-13 0 -24 4q-14 3 -23 7q-8 1 -24 5q-14 3 -26 3q-8 0 -12 -1t-10 -3q-4 -1 -12 -5q-2 -1 -6.5 -4t-6.5 -4q-9 3 -27 7q-6 1 -16 2.5 t-14 1.5q-8 2 -13 2h-16q-18 0 -40 -5q-20 -4 -37 -18q-2 1 -5 2t-4 2q-2 1 -6 2t-6 2q-15 6 -30 17q-15 10 -19 28q-2 23 -17 40q-15 15 -36 28q0 1 -2 3t-2 3q-12 8 -34 26q-16 13 -22 34v3v1q0 20 -11 34q-10 14 -24 27h-2q-12 13 -23 26q-12 15 -13 29q-9 10 -14 27 q-6 17 -7 31v1v3q-6 30 -10 43q-6 20 -33 29q-24 38 -32 89q-5 33 -11 97v11v11q-1 27 -5 72q-3 31 -11 66z" />
<glyph unicode=")" horiz-adv-x="843" d="M20 1599q0 1 2 3l1 2q0 5 1 7q2 4 3 5q7 3 23 5q7 1 22 1q10 0 28 -2q5 -1 13 -2.5t12 -1.5q1 0 4 -1t4 -2q3 -1 8 -1q7 -2 18 -3q6 -1 17 -1q14 2 29 6q16 5 28 12q10 -3 30 -7q23 -4 32 -5q10 -2 15 -2h16q18 0 37 3q17 3 32 11q6 2 10 3q3 1 7 1q19 -1 36 -17 q14 -16 25 -34q0 -2 1 -3t1 -3v-3v-1q0 -26 17 -40q9 -7 36 -26q3 0 5 -1q2 -2 2 -3q24 -14 35 -22q16 -13 22 -33q6 -24 20 -45q18 -28 27 -41l4 -4q3 -3 4 -6q11 -15 33 -47q16 -25 22 -56q4 -25 16 -44q3 -5 23 -38l2 -2t1 -2l4 -4q14 -23 24 -45q10 -21 10 -51v-4v-6 q0 -5 -1 -8t-1 -9v-10v-8q0 -10 2 -32q0 -6 2 -17t2 -17q0 -2 2 -8t2 -8q1 -5 3 -17q1 -8 3.5 -24t4.5 -25q4 -21 4 -49q0 -29 -7 -53q-8 -29 -26 -51q2 -8 2 -15v-18v-8v-8v-5v-6q-1 -27 -10 -57q-7 -26 -33 -43q1 -3 2 -8t1 -8q1 -6 1 -17q0 -34 -14 -64q-14 -31 -33 -59 q-14 -23 -23 -42q-11 -21 -18 -46h-2q-24 0 -31 -13q-8 -14 -12 -28v-2q-6 -17 -13 -28q-7 -13 -28 -13q-24 -21 -38 -42t-29 -46q-3 -4 -7 -12q-1 -2 -4 -6t-4 -6q-4 -5 -11 -15.5l-9 -13.5q-12 -19 -23 -31q-8 -8 -19 -11t-22 -3q-7 0 -21 2q-4 1 -12 2t-12 2q-5 0 -8 1 t-8 1l-15 3q-5 1 -16 1h-12q-4 0 -12 -2q-7 -1 -14 -5q-8 -3 -13 -7q-15 0 -27 4q-4 1 -13 3.5t-13 4.5q-9 1 -18 5q-12 4 -17 5q-6 0 -9 1t-12 1h-8q-2 0 -8 -2q-5 -1 -15 -5q-8 -3 -18 -9q-2 -1 -6 -2t-6 -2q-6 -2 -14 0q-25 0 -40 17q-16 16 3 42q25 16 34 41q9 27 15 49 q0 8 1 11t1 8q5 28 17 58q11 26 42 32q13 17 18 36q4 26 5 40q0 5 1 7t1 5q0 4 1.5 12t2.5 13q1 11 6 22q29 62 42 130q14 69 24 138q0 2 1 8t2 8q1 5 1 15q0 3 1 10t2 10q2 12 3 19q1 2 2.5 4t1.5 3q1 2 4 5q10 16 15 25q6 12 6 27v6q0 1 -1 3t-1 3q0 3 -1 5t-4 5 q-18 34 -24 80q-7 50 -8 94v1v1q0 24 -1 35l-3 33q0 4 -2 12q-4 7 -5 14q-1 3 -7 18q-6 12 -9 19q-8 13 -17 34q-8 19 -8 36v7q0 2 3 7q0 5 1 8q2 4 3 7q-15 11 -23 28q-8 16 -12 31q-2 2 -2 4v4q-8 25 -18 43t-40 31q0 8 -1 12t-1 15v8q0 2 -2 8q-1 31 -13 66 q-11 30 -48 42q-8 14 -11 21q-6 11 -6 22z" />
<glyph unicode="*" d="M164 578v5v7q0 5 1 7t1 5q0 14 1 21t1 20q0 11 -1 16t-1 15q0 11 -1 16t-1 15q0 14 3 26q3 11 9 25q0 5 -1 7t-1 7q0 6 -1 9t-1 12q0 3 1 6t1 8q23 9 41 10q28 2 43 2h29q10 0 28 -2q5 -5 10 -6q6 -2 9 -2h3q1 0 3 2q3 0 4 1t4 1q2 1 5 2t4 2q6 2 12 2h5h5q8 0 12 -1 t10 -3q3 -1 7 -3q1 -1 6 -1q2 -2 5 -2h5q6 0 9 1q6 2 9 5q9 -11 14 -32q3 -19 3 -38v-4v-4v-6v-6q0 -10 1 -14q1 -5 1 -13q-6 -6 -9 -12t-3 -14q0 -1 1.5 -6t2.5 -8q2 -10 6 -17q2 -8 2 -12v-11q0 -6 -2 -20q-1 -4 -2 -11t-2 -10v-2q0 -2 -2 -4q-1 -3 -2 -10t-2 -11 q-3 -10 -3 -24q-3 -1 -7 -3q-2 -1 -5 -1q-5 0 -7 1q-4 2 -5 3q-2 0 -6 2t-6 2q-7 1 -13 -6q-5 5 -8 6q-6 2 -10 2q-3 0 -9 -2l-12 -4q-3 -3 -9 -5q-3 -1 -9 -1h-5q-3 0 -5 2q-2 0 -5 3q-4 4 -6 7q-11 -6 -22 -9q-16 -4 -25 -5h-4h-6q-12 0 -24 3q-15 3 -21 7h-2q-5 0 -8 -1 q-5 -1 -6 -3q-3 0 -5 -1t-6 -1h-2h-2h-5q-3 0 -5 2q-9 16 -10 29q-2 18 -2 27zM168 1040v6v7q0 5 1 7t1 5q0 14 1 21t1 20q0 10 -1 15t-1 16t-1 16t-1 14q0 13 3 27q3 11 9 25q0 5 -1 7t-1 7q0 6 -1 9t-1 11q0 4 1 7t1 8q23 9 41 10q28 2 43 2h29q10 0 28 -2q5 -5 10 -6 q6 -2 9 -2h3q1 0 3 2q3 0 4 1t4 1q1 0 4.5 1.5t5.5 2.5q6 2 11 2h5h5q8 0 12 -1q8 -2 11 -3l6 -3q1 -1 6 -1q2 -2 5 -2h5q6 0 9 1q6 2 9 5q9 -11 14 -32q3 -20 3 -38v-4v-4v-6v-6q0 -10 1 -14q1 -5 1 -13q-6 -6 -9 -12t-3 -14q0 -1 1.5 -6t2.5 -8q2 -10 6 -17q2 -8 2 -12 v-11q0 -6 -2 -20q-1 -3 -2 -10t-2 -11v-2q0 -2 -2 -4q-1 -4 -2 -11t-2 -10q-2 -16 -2 -24q-3 -1 -7 -3q-3 -1 -6 -1q-5 0 -7 1q-4 2 -5 3q-2 1 -6 2t-6 2q-6 1 -13 -6q-5 5 -8 6q-6 2 -10 2q-3 0 -9 -2l-12 -4q-3 -3 -9 -5q-3 -1 -9 -1h-5q-3 0 -5 2q-2 0 -5 3q-4 4 -5 7 q-11 -6 -22 -9q-19 -4 -26 -5h-4h-6q-12 0 -24 3q-15 3 -21 7h-2q-5 0 -8 -1q-5 -2 -6 -3q-3 0 -5 -1t-5 -1h-3h-2h-5q-3 0 -5 2q-9 16 -10 29q-2 18 -2 26zM393 805v5v7q0 5 1 7t1 5q0 14 1 21t1 20q0 11 -1 16t-1 15q0 11 -1 17q-1 5 -1 14q0 14 3 27t10 24q0 5 -1 7 q-2 4 -2 7q0 6 -1 10q-1 3 -1 11q0 3 1 6t1 8q23 9 41 10q28 2 43 2h29q9 0 29 -2q5 -4 9 -6q6 -2 9 -2h3q1 0 3 2q3 0 4 1t5 1q2 0 5 2t4 2q6 2 11 2h5h5q8 0 13 -1q4 -1 10 -3q5 -2 6 -3t6 -1q2 -2 5 -2h5q6 0 10 1q6 2 9 5q10 -13 13 -32q3 -20 3 -37v-4v-4v-6v-7 q0 -10 1 -14t1 -12q-6 -6 -9 -12q-3 -8 -3 -15q0 -1 1.5 -6t2.5 -8q2 -10 6 -17q2 -8 2 -12v-10q0 -6 -2 -20q0 -4 -2 -11t-2 -10v-2q0 -2 -2 -4q0 -3 -2 -10t-2 -11q-2 -16 -2 -24q-3 -1 -7 -3q-2 -1 -5 -1q-5 0 -7 1q-5 1 -6 3q-2 0 -6 2t-6 2q-6 2 -12 -6q-5 5 -8 6 q-6 2 -11 2q-3 0 -9 -2q-1 0 -5 -1.5t-6 -2.5q-3 -3 -9 -5q-8 -2 -10 -2h-5q-4 0 -5 3q-2 0 -5 3q-4 4 -5 7q-11 -6 -22 -9q-14 -5 -25 -6h-4h-6q-13 0 -24 4q-14 3 -22 7h-2q-5 0 -8 -1q-4 -1 -6 -3q-3 0 -5 -1t-5 -1h-2h-2h-5q-3 0 -5 2q-9 16 -10 29q-3 13 -3 26z M616 582v5v7q0 5 1 7t1 5q0 7 2 21q1 7 1 20q0 11 -1 16q-2 10 -2 15q0 11 -1 16t-1 15q0 15 4 27q3 12 9 24q0 5 -1 7t-1 7q0 6 -1 9t-1 12q0 3 1 6t1 8q23 9 41 10q26 2 43 2h29q10 0 28 -2q4 -5 9 -6q6 -2 9 -2h4q1 0 3 2q3 0 4 1t4 1q1 1 4 2t5 2q6 2 11 2h5h5 q8 0 13 -1q4 -1 10 -3q4 -1 6 -3q1 -1 6 -1q2 -2 5 -2h6q6 0 9 1q6 2 9 5q10 -13 13 -32t3 -37v-4v-5v-6v-6q0 -10 1 -14t1 -13q-6 -6 -9 -12t-3 -14q0 -1 1.5 -6t2.5 -8q2 -10 6 -17q2 -8 2 -12v-10q0 -6 -2 -20q-1 -3 -2 -10t-2 -11v-2q0 -3 -2 -5q-1 -3 -2 -10t-2 -11 q-2 -14 -2 -24q-3 -1 -7 -3q-2 -1 -5 -1q-5 0 -7 1l-6 3q-4 1 -12 5q-6 2 -12 -7q-5 5 -8 7q-6 2 -11 2q-3 0 -9 -2q-5 -4 -11 -5q-3 -3 -9 -5q-3 -1 -9 -1h-5q-4 0 -6 2q-2 0 -5 3t-5 8q-11 -6 -22 -9q-14 -5 -25 -6h-4h-6q-12 0 -24 3q-15 3 -21 7h-2q-5 0 -8 -1 q-6 -2 -7 -3q-3 0 -5 -1t-5 -1h-2h-2h-5q-3 0 -5 2q-9 16 -10 29q-3 13 -3 27zM623 1042v6v7q0 5 1 7t1 5q0 14 1 21t1 20q0 10 -1 15t-1 16t-1 16t-1 14q0 13 3 27q3 11 9 25q0 5 -1 7t-1 7q0 6 -1 9t-1 11q0 4 1 7t1 8q23 9 41 10q26 2 43 2h29q10 0 28 -2q4 -4 9 -6 q6 -2 10 -2h3q1 0 3 2q3 0 4 1t4 1q1 0 4 2t5 2q6 2 11 2h6h5q8 0 12 -1t10 -3l6 -3q1 -1 6 -1q2 -2 6 -2h5q6 0 9 1q6 2 9 5q9 -11 14 -32q3 -20 3 -38v-4v-4v-6v-6q0 -10 1 -14q1 -5 1 -13q-6 -6 -9 -12q-4 -5 -4 -14q0 -1 1.5 -6t2.5 -8q1 -7 7 -17q2 -8 2 -12v-11 q0 -6 -2 -20q-4 -14 -5 -21v-2q0 -2 -2 -4q-1 -4 -2 -11t-2 -10q-2 -16 -2 -24q-3 -1 -7 -3q-2 -1 -5 -1q-5 0 -7 1q-4 2 -5 3q-2 1 -6 2t-6 2q-7 1 -13 -6q-5 5 -8 6q-6 2 -10 2q-3 0 -9 -2q-2 -1 -6 -2t-6 -2q-3 -3 -9 -5q-3 -1 -9 -1h-5q-2 0 -6 2q-2 0 -5 3q-4 4 -5 7 q-11 -6 -22 -9q-19 -4 -25 -5h-4h-6q-12 0 -24 3q-15 3 -21 7h-2q-5 0 -8 -1t-7 -3q-3 0 -5 -1t-5 -1h-2h-2h-5q-3 0 -5 2q-9 16 -10 29q-2 18 -2 26z" />
<glyph unicode="+" horiz-adv-x="1345" d="M119 848q0 10 2 32q1 13 10 29q0 1 5 13l5 10q2 2 2 3v1q1 1 8 13q3 7 3 14q0 3 -2 9q-1 3 -7 9q-14 0 -18 10q-4 9 -4 21v2v2q0 8 -1 11l-3 9q1 44 24 57q20 13 54 13q17 0 26 -1l27 -3q8 -1 26 -3q9 -1 25 -1q13 0 18 1l15 3q3 -1 9 -5q1 -1 5 -3t6 -4q16 -9 30 -14 q14 -7 32 -7q26 20 53 27q27 6 53 6q17 0 26 -1t27 -1q8 -1 26 -3q9 -1 28 -1h8h10q5 0 8 1t9 1q11 -14 21 -20q10 -7 22 -7q4 0 14 2q3 1 8 2t8 2q5 0 17 2q10 2 16 2h4h4q0 -2 2 -2h4q0 1 1 2l2 2l4 4q0 3 2 7q2 2 4 2h1h3h3h1q9 0 29 2q4 0 14 2t14 2h11q2 0 10 2 q13 0 19 1t20 1q15 0 37 -5q15 -4 34 -16q5 1 19 5q4 0 10 2t10 2q11 3 33 7t33 5q16 0 24 1q7 1 21 1q37 0 67 -12q30 -14 41 -47v-9v-10q0 -11 1 -17t1 -18q0 -13 1 -18t1 -16q0 -18 -4 -33q-5 -18 -20 -29q18 -26 27 -55q8 -34 8 -66q0 -27 -6 -51q-9 -30 -17 -45 q2 -3 5 -11q1 -3 1 -9t-3 -13q-4 -9 -5 -16q-3 -5 -7 -17q-3 -10 -3 -20v-2q-11 3 -33 5q-24 2 -37 3h-17h-18q-30 0 -45 -1t-43 -1l-45 -3q-15 -1 -45 -1q-19 0 -30 1q-22 2 -31 3q-16 0 -31 3q-22 4 -33 7q-8 -15 -20 -19q-13 -5 -25 -5q-10 0 -15 1l-15 3q-10 0 -15 1 t-14 1q-10 0 -14 -1q-9 -2 -13 -5q-14 -8 -28 -11q-13 -4 -29 -2q-21 0 -42 7q-20 5 -40 12q-1 0 -4 1t-4 2t-4 2t-4 1q-5 2 -16 4t-17 4q-15 4 -33 4q-7 -2 -18 -3q-14 -2 -21 -5q-8 -15 -18 -19q-12 -5 -25 -5q-5 0 -17 2q-4 0 -10 2t-10 2q-3 0 -4 1t-6 1q-2 0 -18 5 q-10 3 -19 3h-3h-1h-3h-3q-13 0 -20 -1l-21 -3h-9q-2 0 -12 -2h-15h-15q-22 0 -43 8q-20 7 -31 35q8 18 11 33t1 30q0 8 -2 26q-1 5 -2.5 13t-1.5 12q-2 6 -3 11l-3 12q-3 13 -7 39q-3 19 -3 41zM428 920q0 20 6 42q6 21 12 39q0 1 2 4t2 5t1 4l2 4q1 6 4 17t4 16q4 15 4 32 q-1 5 -3 19q-2 12 -5 20q-14 8 -19 19q-6 11 -6 24q0 4 2 18q0 3 1.5 9l2.5 10q0 3 1 4t1 6q2 9 6 19q3 11 3 18v3v1v3v4q0 13 -1 20q0 4 -2 10t-2 10v10q0 3 -2 11v15v16q0 24 9 43q7 19 34 30q18 -8 33 -11t31 -1q8 0 26 2q5 1 13 2.5t12 1.5q6 2 10 3q8 2 13 3 q7 2 20.5 4.5t18.5 3.5q20 3 40 3q10 0 32 -2q16 -1 30 -11q4 -1 12 -5l10 -5q2 -2 4 -2h1q5 -4 13 -7t13 -3q3 0 9 2t10 6q0 15 10 19q9 4 20 4h2h2q8 0 12 1l9 3q43 -1 57 -23q13 -22 13 -55q0 -16 -1 -25q0 -5 -2 -14t-2 -14q-2 -16 -3 -25t-1 -27q0 -12 1 -17l3 -15 q-1 -3 -5 -9q-4 -8 -7 -12q-9 -15 -14 -29q-6 -17 -6 -32q20 -27 26 -52q6 -29 6 -55q0 -16 -1 -25t-1 -28q-2 -16 -3 -25t-1 -28v-8v-11q0 -5 1 -8t1 -8q-14 -11 -20 -21q-6 -12 -6 -22q0 -4 2 -14q1 -3 2.5 -9t1.5 -8q0 -6 2 -16t2 -17v-4v-4q-2 0 -2 -2v-4l2 -1 q2 -1 2 -2t2 -2l2 -1q4 0 6 -2t2 -4v-1v-3v-3v-1q0 -10 2 -28q0 -5 2 -15t2 -15v-10q0 -2 2 -10q0 -7 2 -19q1 -7 1 -20q0 -16 -5 -36q-6 -21 -16 -36q0 -1 1.5 -7.5t2.5 -10.5q0 -3 2 -10t2 -11q4 -13 7 -32l6 -33q0 -16 1 -23q1 -8 1 -22q0 -37 -12 -67q-13 -30 -48 -42 h-9h-9q-11 0 -17 -1q-7 -1 -18 -1q-13 0 -18 -1q-6 -1 -17 -1q-17 0 -32 4q-17 5 -29 21q-27 -19 -55 -26q-31 -9 -66 -9q-27 0 -51 6q-27 6 -45 16q-3 -2 -11 -5q-4 -1 -10 -1t-13 3q-10 4 -16 5q-3 2 -9 4.5t-8 3.5q-9 3 -19 3h-2q3 11 5 34q1 11 3 35v18v17q0 31 -1 46 t-1 42q-1 8 -2 23t-1 23q-1 15 -1 44q0 20 1 31t3 31q0 16 3 32q4 20 7 31q-15 8 -19 21q-6 12 -6 24q0 11 1 16l3 15q0 10 1 15t1 14q0 10 -1 14q-2 8 -5 12q-8 15 -11 29q-3 12 -1 29z" />
<glyph unicode="," horiz-adv-x="778" d="M55 -115q10 29 13 48q2 9 4.5 26.5l3.5 24.5q5 37 17 83q11 43 42 74v10v9q0 10 -2 32q0 4 -1.5 15t-2.5 18q0 4 -1 7t-1 6q-1 5 -2 14.5t-1 13.5q-1 9 -1 25q1 23 10 51q8 23 29 43q-18 28 -24 62q-7 29 -7 65v13v14q1 5 2 14t1 14q1 9 3 25q11 13 21 17q12 5 22 5 q6 0 10 -1q3 -1 9 -1q2 -2 3 -2h1q3 0 8 -1t8 -2q5 -1 17 -1q10 0 17 3t13 12q5 0 7 -1q4 -2 8 -2h7h7h20q9 0 17 3h19h18q22 0 47 -5q23 -6 39 -28q11 20 25 27q14 6 28 6q11 0 16 -1q1 0 8 -1.5t11 -2.5h2q2 0 2 -2q7 0 21 -2t18 -2h3h3h1h3q5 -7 10 -8q8 -2 12 -2 q3 0 13 2q2 0 6 2t6 2t3 1t3 1q5 1 17 3q5 1 14 1q12 0 20 -9q7 -9 9 -32q2 -8 3 -11t1 -9v-9v-12q0 -26 -4 -43q-3 -13 -9 -43q-2 -2 -2 -4t-2 -4q-1 -4 -2.5 -12t-1.5 -11q0 -4 -2 -12t-2 -12q-12 -13 -23 -26q-16 -20 -24 -31l-1 -2q-2 -2 -3 -2q-38 -49 -64 -76 q-35 -35 -81 -47q-17 -51 -52 -88q-33 -33 -75 -70q-4 -4 -12 -10t-11 -9q-13 -11 -25 -18q-6 -6 -16 -14t-16 -14q-23 -6 -39 -21q-22 -22 -31 -35l-5 -5l-5 -5q-13 -18 -30 -33q-14 -14 -40 -26q-3 0 -4 -1t-4 -1h-4h-4h-7q-2 0 -8 2q-11 1 -25 9t-24 19z" />
<glyph unicode="-" horiz-adv-x="1335" d="M109 848q0 10 2 32q1 13 10 29q0 1 5 13l5 10q2 2 2 3v1q4 5 7 13q3 7 3 14q0 3 -2 9q-1 4 -6 9q-14 0 -18 10q-4 9 -4 21v2v2q0 8 -1 11l-3 9q1 44 24 57q20 13 53 13q17 0 26 -1q18 -2 28 -3q8 -1 26 -3q9 -1 25 -1q12 0 17 1q10 2 16 3q3 -1 9 -5q1 -1 5 -3t6 -4 q16 -9 30 -14q14 -7 32 -7q26 20 52 27q27 6 54 6q17 0 26 -1t27 -1q8 -1 26 -3q9 -1 27 -1h9h10q5 0 8 1t8 1q11 -15 22 -20q10 -7 21 -7q3 0 15 2q3 1 8 2t8 2q5 0 17 2q10 2 16 2h4h4q0 -2 2 -2h4q0 1 1 2l2 2l2 2t1 2q0 3 2 7q2 2 4 2h1h4h3h1q9 0 29 2q4 0 14 2t14 2 h10q2 0 10 2q13 0 20 1q6 1 19 1q15 0 37 -5q15 -4 35 -16q5 1 19 5q4 0 10 2t10 2q11 3 33 7q23 4 32 5q16 0 24 1q7 1 22 1q37 0 67 -12q30 -14 41 -47v-9v-10q0 -11 1 -17t1 -18q0 -13 1 -18t1 -16q0 -18 -4 -33q-5 -18 -20 -29q19 -27 26 -55q8 -34 8 -66q0 -27 -6 -51 q-6 -27 -16 -45q2 -3 5 -11q1 -3 1 -9t-3 -13q-4 -9 -5 -16q-3 -5 -7 -17q-3 -10 -3 -20v-2q-11 3 -34 5l-36 3h-17h-18q-30 0 -45 -1t-43 -1l-45 -3q-15 -1 -45 -1q-19 0 -30 1q-22 2 -31 3q-15 0 -32 3q-19 3 -32 7q-8 -15 -20 -19q-15 -5 -25 -5t-15 1q-3 1 -8 2t-8 1 q-10 0 -15 1t-13 1q-10 0 -14 -1q-9 -2 -13 -5q-14 -8 -28 -11q-13 -4 -29 -2q-21 0 -42 7q-20 5 -40 12q-1 0 -4 1t-4 2l-9 3q-6 2 -16 4t-16 4q-15 4 -33 4q-7 -2 -18 -3q-14 -2 -21 -5q-8 -15 -18 -19q-12 -5 -25 -5q-5 0 -17 2q-4 0 -10 2t-10 2q-3 0 -4 1t-6 1 q-2 0 -18 5q-10 3 -19 3h-3h-1h-3h-3q-13 0 -20 -1l-21 -3h-9q-4 0 -12 -2h-15h-15q-22 0 -43 8q-20 7 -31 35q8 18 11 33t1 30q0 8 -2 26q-1 5 -2.5 13t-1.5 12q-2 6 -3 11l-3 12q-3 13 -7 39q-3 19 -3 41z" />
<glyph unicode="." horiz-adv-x="770" d="M86 207q0 8 1 12t1 14q0 8 1 13q1 4 1 12q2 18 3 39q1 13 1 43q0 21 -1 32q-1 10 -1 31q-1 9 -3 31q-1 11 -1 31q0 27 5 55q4 24 20 49q0 6 -2 16t-2 13q-1 4 -2 11t-2 10q-3 11 -3 20q0 3 2 13q0 2 5 16q40 16 83 21q45 5 87 5q39 0 58 -1q9 -1 28 -2t28 -1 q9 -10 20 -14q8 -4 17 -4q5 0 7 1q4 2 7 3q3 0 9 2q1 0 4 2t4 2q6 4 18 7q11 3 23 3h2q6 2 9 2h9q12 0 25 -3q16 -4 24 -7q6 -4 12 -6t11 -2q8 -2 11 -3t11 -1q1 0 7.5 1.5t10.5 2.5q9 1 17 8q24 -28 28 -63q6 -50 7 -76v-8v-9v-13v-13q0 -18 1 -27q2 -18 3 -26 q-15 -13 -19 -25q-5 -15 -5 -29q1 -7 7 -30q3 -11 11 -33q3 -8 5 -24q1 -9 1 -23q0 -22 -4 -41q-1 -6 -3.5 -20t-4.5 -21q0 -3 -1 -6t-3 -7q-6 -30 -9 -44q-6 -21 -6 -46q-6 -6 -12 -9t-12 -3t-12 3q-8 3 -13 7q-2 1 -23 10q-12 3 -26 -14q-7 10 -17 15q-8 4 -20 4 q-11 0 -20 -4q-7 -3 -21 -11q-10 -6 -20 -10q-9 -4 -21 -4q-6 0 -9 1q-6 2 -9 5q-5 1 -11 7t-10 14q-17 -11 -44 -19q-30 -9 -52 -10h-9h-11q-27 0 -50 6q-27 7 -44 16h-3q-8 0 -16 -3q-10 -4 -14 -5q-2 0 -5 -2t-4 -2q-2 -1 -5.5 -2.5t-4.5 -1.5h-5h-5q-3 0 -9 2 q-1 0 -5 1.5t-6 2.5q-15 36 -19 59q-6 27 -6 54z" />
<glyph unicode="/" horiz-adv-x="911" d="M393 27h-358q0 2 299 583q18 36 127 262q84 181 127 263l137 266q91 199 133 213q58 -18 94 -4q172 70 195 -13l22 15q103 56 -24 -174q-5 -4 -156 -312q-303 -614 -336 -663q-1 -11 -96 -195q-139 -274 -162 -245q-1 1 -2 4z" />
<glyph unicode="0" horiz-adv-x="1425" d="M66 848q15 18 22 43q6 23 6 45q0 19 -1 29q-1 5 -2 14t-1 14q0 9 -1 14t-1 13q0 25 8 51q8 23 31 43q-2 10 -2 16v13q0 37 15 70q15 35 30 65v1q0 1 2 3q7 16 18 37q9 19 15 37q1 1 5 3t5 3q3 0 4 1q2 2 2 3q13 8 27 18q12 9 12 23v3v3l-1 1q-1 1 -1 3q0 13 7 17 q8 5 16 6h1h3q6 1 11 5q4 3 9 9q25 55 79 91t114 48l27 3q8 1 24 1h6h4q6 -2 9 -2h7q14 0 27 7q16 8 25 12l1 1l1 1q14 8 26 14q13 6 29 6h6h6q3 0 6 -1q2 -1 5 -1q19 0 30 -1q10 -1 29 -1q66 -5 123 -19q60 -17 98 -61h3h3h1h3q6 0 9 1t8 1t8 1t6 1q5 0 7 -1q4 -2 5 -3 q9 -12 31 -34t33 -31q8 -8 11 -12q3 -5 11 -13q41 -39 71 -78q31 -40 36 -100q47 -29 68 -79q19 -48 30 -103q1 -6 2 -17t2 -16q1 -6 2.5 -18t1.5 -17q2 -21 6 -40q4 -28 5 -42q1 -10 3.5 -31.5t4.5 -32.5q4 -28 4 -65q-1 -32 -8 -68q-6 -32 -23 -67q0 -8 1 -13t1 -13 q2 -8 2 -13v-14q0 -75 -25 -143q-24 -65 -59 -136q-3 -7 -9 -20.5t-7 -14.5q-3 -6 -8 -18t-8 -18q-23 -17 -39 -40q-22 -32 -31 -48l-2 -2t-1 -2q-2 -4 -3 -5q-16 -30 -44 -64q-25 -31 -71 -48q-7 3 -19 7q-11 3 -18 3q-22 -1 -42 -14q-26 -18 -40 -29q-1 0 -3 -2t-3 -2 l-4 -4t-5 -4q-1 -1 -3 -2.5t-4.5 -3t-3.5 -2.5q-29 -7 -71 -15q-40 -8 -77 -8t-75 8q-36 7 -70 29q-86 0 -157 47q-72 47 -122 102q-8 8 -11 13q-3 4 -11 12q2 6 2 7v5q0 14 -10 24q-11 10 -23 17q-8 6 -13 10q-7 4 -12 11q-8 18 -13 27l-15 24q0 2 -1 3l-3 3q-16 27 -25 47 q-12 23 -12 51v3v3q-55 45 -67 112q-13 68 -15 138v3v3q-1 25 -5 75q-3 35 -11 71zM592 811q26 -18 30 -45q5 -30 5 -57v-2v-5v-3v-3q0 -6 1 -9t1 -11q0 -11 1 -17q0 -3 1 -10t2 -10q4 -7 4 -18v-21v-11v-9v-9v-12q0 -26 8 -48q7 -21 39 -32q6 -5 12 -6q8 -2 13 -2 q12 0 22 7q14 10 21 16l4 4l4 4q12 12 27 21q13 9 30 9h1h1h1h1q0 3 1 5q1 1 1 4v4v4q0 7 -3 15q-4 10 -7 16q0 2 -1 3t-1 3q-3 4 -7 12t-5 12v33v33q2 42 2 61q0 18 2 60q0 39 3 79t9 80q-19 20 -23 42q-6 22 -6 44v12q0 3 2 11v12v13v12v14q-2 8 -3 13l-3 12q0 11 -7 19 q-8 10 -17 16q-1 3 -6 5q-3 1 -7 3q-6 0 -16 2q-3 1 -8 2.5t-6 1.5q-3 0 -8 2t-8 2q-12 2 -17 2q-8 0 -14 -3q-4 -2 -13 -11q-9 -44 -13 -73q-6 -50 -7 -75v-4v-4q-8 -72 -13 -111q-7 -54 -30 -104z" />
<glyph unicode="1" horiz-adv-x="796" d="M39 1223q-2 10 -2 15v13q0 29 7 50q8 23 34 36q26 5 41 20q11 10 31 32q0 2 1 3t3 1q12 17 33 34q18 15 44 15h6h5q20 6 27 21q7 13 12 30v3q0 1 2 3q0 6 2 16q1 7 6 13q4 3 11 9t8 7l18 15q2 1 5 4l4 4l4 4t5 4q16 16 25 24q13 12 28 21q12 0 36 2q6 1 17.5 2.5 t16.5 1.5q11 0 33 2t33 2q13 0 18 -1t18 -1q1 0 7.5 -1.5t10.5 -2.5q10 -2 17 -6q10 6 27 12q18 7 33 8h7h5q16 0 34 -8q14 -7 19 -28q-2 -14 -2 -19v-20q0 -24 1 -35l3 -33q0 -8 1 -12t1 -10q0 -15 1 -22t1 -24t-3 -37q-3 -22 -9 -40q11 -32 16 -73q4 -33 4 -77 q0 -30 -1 -44t-3 -44v-5v-5q-2 -36 -2 -51v-50q0 -18 2 -54q1 -27 9 -54q-8 -21 -11 -44q-4 -21 -4 -46q0 -12 2 -38q1 -7 2.5 -19.5t1.5 -18.5q0 -14 2 -38q2 -26 2 -38q0 -25 -4 -45q-5 -26 -14 -45q1 -4 3 -14l3 -15v-11q0 -3 2 -9q0 -22 4 -38q5 -20 21 -36 q0 -32 -4 -57q-1 -8 -3.5 -27t-4.5 -28q-4 -21 -10 -59q-5 -32 -5 -58q0 -9 2 -31q2 -19 6 -35q-2 -6 -2 -10v-12v-13q0 -6 2 -14v-14v-12q0 -20 -4 -35q-5 -17 -20 -27q-2 0 -8 -1.5t-9 -2.5q-14 -2 -20 -2q-23 0 -47 8q-23 8 -45 21q-5 1 -13 6q-7 4 -16 6q-7 -1 -19 -7 l-10 -5t-10 -4q-15 -9 -26 -13q-15 -6 -29 -6q-5 0 -15 2q-9 2 -16 6q-11 0 -21 5q-10 4 -20 10l-1 1l-1 1q-4 3 -12 7t-12 5q-21 -24 -48 -31q-30 -8 -59 -8q-20 0 -39 3q-26 4 -39 5q-7 7 -12 23q-4 12 -4 28q0 11 1 16l3 15q4 4 10 14q4 8 6 15q2 6 2 7v7q0 13 -4 25 q-5 13 -14 22q0 17 -1 28q-1 10 -1 32q0 4 -1 10t-2 10q-1 7 -1 21v11v11q1 32 8 67q6 33 25 56q-13 38 -18 78q-5 45 -5 82q0 36 1 54q1 8 2 26t1 26l3 63q1 21 1 62q27 17 23 34q-5 17 -15 36q-5 9 -10 22q-4 9 -4 21v1v1v1v1q0 19 1 30q1 10 1 29t1 30q1 10 1 30v24 q0 7 -2 23l-3 24q-2 16 -5 23q-6 2 -9 2h-11q-9 0 -14 -1q-6 -1 -17 -1h-4h-6q-6 -2 -9 -2h-12q-19 0 -33 8q-15 8 -16 35v15v16z" />
<glyph unicode="2" horiz-adv-x="1325" d="M61 53v3v3v1v3q0 19 7 32q7 16 16 26q0 2 1 3t1 3q14 20 16 23q8 12 9 28q6 6 12 15q8 10 12 14q3 3 4 5q2 4 2 5l33 36q18 17 43 26q2 9 6 16t6 16q28 66 76 131q47 62 107 101q7 33 26 69q11 22 35 64q0 2 1 3l3 3q27 49 43 83q19 41 19 87v7v7q0 5 -1 8q-1 2 -1 7 q-9 5 -14 17q-5 10 -9 24v3v3q-2 4 -4 10.5t-3 7.5q-3 9 -9 17q-7 16 -19 25q-5 4 -14 11t-14 11q-23 16 -37 30q-17 15 -17 41q-11 1 -31 7q-19 5 -30 10q-5 0 -7 1q-4 2 -7 3l-54 15q-27 7 -61 7h-3h-1h-3h-3q-9 7 -13 15q-6 7 -4 16q0 8 1 11q1 2 2 5t1 5q1 17 17 28 q3 2 28 19q2 2 3 2t1 2q14 6 31 19q12 10 12 30v9q0 6 -4 11q10 30 33 56l49 49q32 30 56 57q25 28 30 70q2 2 6.5 6t7.5 7q5 5 13 15q1 2 4 6t4 6q4 4 6 11q20 27 35 41q20 18 43 18q9 0 22 -5t25 -15q42 -8 73 -33q28 -22 62 -55q61 1 116 -27q46 -25 106 -65q5 -4 16 -10 t16 -10q20 -14 31 -21q3 -4 7 -12q5 -12 5 -13v-1q0 -1 2 -1q5 -16 11 -24q6 -10 20 -15q8 2 13 3q4 1 10 1q25 0 42 -17q20 -22 31 -40q6 -11 13 -19q6 -11 12 -18q11 -16 16 -34q4 -17 4 -38v-13v-13q-2 -10 -2 -14v-13q0 -10 2 -28q1 -15 11 -29q-7 -79 -43 -151 q-34 -70 -113 -105q-19 -39 -49 -77q-31 -40 -60 -71q-29 -33 -40 -47q-21 -24 -39 -51q-2 -2 -2 -5v-7q0 -17 10 -28q10 -13 24 -19l1 -1q1 -1 3 -1q11 5 22 6q14 2 21 2q8 0 26 -2q4 0 13 -2t13 -2q12 -5 25 -6q12 -3 24 -3q13 0 28 5q13 4 25 16h6h4l6 -2h5h15q5 0 13 2 h16h13q16 2 28 -1q14 -3 27 -13q10 -25 16 -55q5 -32 5 -60q0 -16 -1 -25q-1 -4 -2 -14t-1 -14q-12 -10 -16 -23q-5 -15 -5 -31q0 -9 2 -23q0 -2 1.5 -10.5t2.5 -13.5q2 -8 2 -11t2 -11q2 -10 2 -17v-18q0 -16 -4 -28q-5 -16 -16 -27l3 -15q1 -5 1 -16q0 -19 -11 -39 q-13 -21 -34 -31q-37 8 -64 11q-42 2 -67 2q-19 0 -57 -2q-21 -1 -58 -5h-5h-5q-10 0 -31 -1t-31 -2q-21 -1 -63 -1q-27 0 -40 1l-42 3q-8 0 -24 -2q-5 0 -14 -2t-13 -2q-5 0 -8 -1t-11 -1q-5 -1 -17 -3q-6 -1 -17 -1q-16 0 -29 4q-15 4 -29 15q-2 2 -5 2h-7q-8 0 -15 -4 l-8 -4t-8 -5q-2 0 -3 -1l-3 -3q-5 -5 -10 -6q-8 -2 -12 -2h-24h-26q-43 0 -75 4q-38 5 -68 23q-13 8 -20 2q-10 -7 -17 -15q0 -1 -5 -8q-2 -3 -5 -6q-6 2 -10 2h-13q-14 0 -21 -1t-24 -1q-16 -2 -23 -3t-22 -1q-28 0 -49 10q-23 11 -33 43z" />
<glyph unicode="3" horiz-adv-x="1241" d="M57 410q-2 2 -2 3v3q2 28 21 38q21 12 41 19q3 1 7 3q2 1 7 1h7h7q13 0 23 -3q11 -3 20 -7q5 0 7 -1q1 -1 6 -1q5 -3 17 -5q6 -1 18 -1q7 0 19 2q7 1 19 10q5 0 16.5 1.5t18.5 2.5t18.5 2.5t16.5 1.5q17 3 51 7q25 3 49 3h20q7 0 17 -2q32 18 60 46q23 25 28 69 q0 53 -37 87t-86 54q-2 0 -8 -1.5t-9 -2.5q-12 -2 -19 -2q-10 0 -15 1q-10 2 -14 3q-23 6 -45 18q-22 11 -39 27q0 17 11 28q11 10 26 17q2 2 8 6t8 6q5 3 15 13q54 44 99 98t52 123q-18 31 -38 43q-17 10 -50 23q-1 0 -13 5q-11 4 -14 5t-10 4t-10 5q-9 4 -21 14 q-22 -2 -34 -3q-26 -2 -39 -2q-39 0 -75 9q-36 8 -60 30v1v3v4v1q0 23 13 39t30 30q0 2 1 2t1 2q15 13 27 28t12 36v6q0 2 -3 6q0 3 -1 5t-1 5q6 17 21 34q9 10 31 30t37 38q16 19 16 48q-2 6 -2 7v5q14 8 20 21q8 16 13 24q0 2 1 3t1 3l13 26q8 13 21 21q7 -2 21 -4.5 t20 -3.5t20 -3.5t21 -4.5q5 0 17 -2q10 -2 16 -2q69 -12 149 -35q72 -23 132 -72q8 0 13 -1t13 -1q62 -11 116 -50q55 -41 71 -93q33 -26 39 -54q7 -33 8 -65q2 -14 2 -21q0 -8 2 -24q0 -5 -1 -8q0 -2 -1 -4l-2 -4q-18 -73 -47 -130q-32 -64 -82 -108q25 -6 36 -23 q13 -22 19 -38q0 -2 1 -3t1 -3q13 -28 23 -40q12 -18 43 -18h3h3h1h3q27 -22 39 -50q5 -11 12.5 -29.5t9.5 -24.5q0 -3 1 -4t1 -4q6 -23 20 -52q10 -25 32 -47q4 -13 6 -29q2 -22 2 -30q0 -59 -30 -108q-32 -52 -64 -93l-3 -3l-2 -2t-2 -1h-3h-3q-13 0 -24 -8t-17 -23 q-1 -44 -32 -73q-37 -33 -68 -52q-4 -3 -12 -7t-13 -7q-1 -1 -13 -8t-13 -8q-8 2 -12 2h-11q-35 0 -61 -17q-27 -18 -53 -41q-36 -26 -53 -37q-27 -18 -62 -18h-3h-1h-3h-3q-12 6 -24 9q-13 3 -23 3q-24 0 -43 -10q-5 -2 -19.5 -9t-21.5 -11q-2 -1 -4 -2.5t-3 -1.5 q-1 -1 -4 -2t-4 -2q-15 -10 -34 -16q-18 -7 -37 -7q-12 0 -27 5q-16 5 -31 15q-24 13 -37 32q-16 23 -26 42v1v1q-11 21 -31 48q-17 21 -49 32q-3 4 -8 12t-8 12q-12 14 -19 21q-2 2 -4 6t-4 6q-2 1 -4 4t-4 5q-20 28 -34 50q-15 24 -20 52q-14 2 -22 14t-14 23q-1 2 -2.5 6 t-1.5 5q-4 6 -5 9v5v4z" />
<glyph unicode="4" horiz-adv-x="1488" d="M68 393q0 33 10 60q10 29 24 57q1 3 5 9q1 1 2 4t2 5q17 34 30 69q13 33 13 71v6v6q-2 2 -2 5v5q16 33 30 69q9 24 23 72q2 0 2 2v3q22 70 54 139q30 67 93 112q11 73 42 140q30 65 83 110q4 7 11 20.5t9 17.5q15 33 19 40q1 2 2.5 6t1.5 5q1 4 6 10q24 51 57 107 q31 52 81 91q10 0 15 -1t15 -1h14h15q33 0 49 1q15 1 47 3q31 0 47 1q15 1 47 1q36 0 81 -5q37 -4 79 -17q12 10 31 13q16 3 33 3h9h9h5h5q8 -2 14 -2h13q14 0 21 1q11 1 18 3q23 -33 30 -67q7 -32 7 -70q0 -31 -4 -56q-6 -40 -9 -61q-4 -7 -6 -17q-2 -12 -2 -20q0 -7 2 -21 q0 -2 1.5 -10.5t2.5 -13.5q0 -10 3 -21q2 -14 2 -24v-5v-7q0 -7 -1 -20t-2 -20t-2 -21t-2 -21v-7v-7q0 -34 -5 -79q-4 -40 -21 -75q16 -16 22 -35q6 -20 6 -41q0 -11 -1 -16t-1 -16q-1 -3 -2 -8t-2 -8q-2 -12 -2 -17q-3 -11 -7 -31q-3 -17 -3 -31q0 -27 14 -47 q15 -21 49 -34h9h8h8h8q31 0 55 -7q25 -7 33 -43v-17v-17v-39v-35q0 -34 -5 -76q-4 -37 -27 -72q3 -7 7 -21q4 -13 5 -24q2 -8 2 -11v-11q0 -13 -1 -19q-2 -13 -5 -18q-11 -11 -29 -16q-24 -6 -37 -9h-1h-3q-30 -5 -50 -13q-24 -9 -28 -40q0 -6 1 -9t3 -11q1 -17 6 -37 q4 -26 5 -39v-9v-12q0 -29 -7 -53q-8 -27 -30 -43q-9 3 -29 5q-11 1 -33 1q-13 0 -39 -2q-6 0 -19 -2t-20 -2q-7 -1 -19.5 -2.5t-18.5 -1.5q-26 -2 -37 -2q-20 0 -40 3q-18 3 -38 11q-11 5 -19 10q-3 1 -20 11h-1h-3h-3h-1q-8 0 -15 -4l-7 -3.5t-7 -4.5l-2 -3q-2 -2 -6 -4 t-6 -4q-5 -4 -15 -4q-7 3 -22 5q-8 1 -25 1h-15q-5 0 -15 -2h-23h-22q-28 0 -47 10q-21 9 -31 37q-2 10 -2 16v15q0 19 1 28l3 27q0 19 1 28t1 28q0 31 -8 61q-9 28 -33 47q-13 0 -20 -1t-21 -1l-39 -3q-13 -1 -41 -1q-24 0 -35 1q-24 2 -35 3q-17 0 -33 3q-24 4 -36 7 q-7 -2 -22 -4.5l-21 -3.5q-20 -4 -47 -4q-10 -2 -15 -2h-16q-36 0 -64 4q-34 5 -61 12q-10 24 -13 37q-5 22 -5 37zM434 733q10 -23 33 -30q21 -7 47 -7h9h9q10 2 15 2q4 0 14 2q14 0 22 1q7 1 19 1q26 7 34 28q5 14 11 42v1v1q0 3 1.5 10.5t2.5 11.5q2 12 6 19 q-8 11 -12 22q-4 9 -4 19q0 13 4 25l3.5 10.5t4.5 11.5l9 24q4 9 4 21t-6 25q-8 12 -23 22l-3 9q-1 3 -1 10q-2 6 -2 8v8v12q0 3 2 9v11v9q0 13 -5 25q-4 10 -24 18q-64 -78 -104 -168q-42 -94 -62 -186q0 -8 -1 -13q-2 -10 -3 -14z" />
<glyph unicode="5" horiz-adv-x="1146" d="M53 461q5 4 13 7q8 4 12 5q6 2 10 2h12q9 0 14 -1t13 -1q10 -2 18 -2h17q8 0 12 1t12 1l5 2.5t6 2.5q8 4 12 7q22 1 43 8q13 3 41 11q0 2 2 2h4q24 9 43 13q25 5 45 5h8q1 0 11 -2q5 0 8 -1t8 -1q11 17 22 31q7 9 23 29q5 5 6 7q2 4 6 5q17 22 42 58q18 28 18 65v12 q0 4 -2 12q-14 24 -35 28q-28 6 -43 7h-2q-15 1 -40 5q-20 3 -32 22q-27 -11 -52 -15q-25 -6 -54 -6q-39 0 -76 9q-34 7 -72 20q0 8 -1 13q-2 10 -3 16q0 6 -1 9t-1 11q-2 8 -2 13v12q0 15 5 30q4 13 17 21q-11 21 -16 47q-4 20 -4 45q0 24 3 46q4 27 7 44q3 13 7 43 q3 23 3 45q-1 6 -2 20t-2 20q-2 21 -12 40q-1 2 -2 8t-2 8q-2 10 -2 15q0 13 4 24q6 14 10 21q1 7 5 14q4 8 5 15q1 1 2 4t1 4v8q0 8 -1 11q-1 2 -2 5t-2 4q-1 4 -6 10q-1 1 -4.5 5t-5.5 6q4 7 4 15v16q0 13 -1 19t-3 20v4v4q0 4 -1.5 12t-2.5 13q-2 16 -2 22q0 23 11 40 q11 18 44 25q15 -1 47 -3q15 -1 47 -1h10h9h15h13q24 0 68 -2q27 -1 64 -10q6 0 9 1l9 3q14 3 44 7q24 3 46 3q12 0 30 -2q13 -2 27 -6q5 5 7 6q3 3 6 4q3 0 5 1t5 1t9 -2q1 0 5 -1.5t6 -2.5q0 -2 1 -2h2q2 -1 6 -2.5t5 -1.5q6 -2 11 -2q6 0 20 2q12 2 17 2q4 0 12 1.5 t13 2.5q16 2 24 2h5h5q3 0 5 -1t6 -1q11 -5 19 -6q9 -2 17 0q8 0 13 1q4 1 12 1h4q2 0 4 2q14 0 21 1t20 1q17 0 31 -7q15 -8 22 -26q3 -14 7 -37q2 -26 2 -40v-12v-13q-1 -25 -6 -49q-4 -21 -13 -45q10 -12 15 -26q4 -13 4 -31q0 -8 -2 -26q-4 -21 -5 -28q0 -4 -2 -14 t-2 -14q-2 -20 -2 -27v-1v-1v-1v-1q-60 -14 -113 -17q-57 -4 -116 -6h-20h-21h-53q-18 0 -56 -2h-5h-7q-10 0 -15 1q-10 2 -16 3q-10 0 -15 1t-15 1q-12 -1 -27 -8t-25 -28l-3 -15q-1 -5 -1 -14q0 -28 16 -35q16 -8 36 -8q11 0 17 1t17 1t18 1q6 1 17 1q13 0 27 -3 q13 -3 20 -9q11 0 17 -1q5 -1 16 -1q75 -7 151 -35q73 -27 113 -90q8 2 12 2h9q47 0 74 -35q25 -34 47 -76l2 -4l2 -4q1 -3 4 -6q5 -12 9 -21q1 -3 11 -20q7 -22 11 -38q4 -21 6 -42q2 -10 2 -15v-14q-1 -19 -7 -57q-6 -29 -20 -55q3 -5 7 -15q3 -7 1 -16q0 -3 -2 -13 q0 -2 -1.5 -7.5t-2.5 -8.5q-1 -2 -2 -5t-2 -4q0 -1 -1.5 -5t-2.5 -6q-2 -3 -4.5 -9t-3.5 -8q-5 -11 -6 -20q-11 -47 -38 -71q-34 -32 -59 -50q-29 -21 -57 -47q-27 -26 -39 -65q-46 -32 -91 -54q-48 -25 -97 -35q-35 -41 -85 -67q-52 -28 -104 -29h-8h-8h-4h-4h-4h-5 q-14 -18 -35 -26t-44 -13q-2 -2 -3 -2h-4q-5 -1 -17 -5t-17 -5q-3 2 -16 7q-12 4 -19 7q-24 11 -48 29q-25 17 -32 47q0 3 1 4t1 4q0 6 1 10q1 3 1 7q0 25 -14 42q-20 22 -31 33q-21 19 -32 34q-15 18 -15 44q0 3 1 4t1 4q0 6 1 10l3 9q-27 19 -45 53q-18 33 -27 70 q-2 14 -3 22q-1 7 -1 21z" />
<glyph unicode="6" horiz-adv-x="1396" d="M63 637v15v16q1 89 19 190q16 94 51 174q35 23 49 55q14 31 21 66q0 9 1 14t3 13q0 3 1 6t1 6q7 7 25 34q4 6 12 19t12 19q30 43 66 76q35 34 86 34h1h1h1h1q14 41 47 64q25 17 71 41q0 1 3 3q1 1 4 1q32 17 41 23q23 14 38 28q32 0 58 13q27 13 53 30q1 0 2.5 1t2.5 2 t2 1t2 1t2.5 2t2.5 1q31 22 61 37q31 16 68 16h5h6q2 -2 4 -2h4h4l6 2h5h5q29 0 54 -13q24 -14 39 -40v-3v-3q0 -23 13 -35q12 -10 30 -22q2 -2 3 -2t3 -2q17 -11 32 -23q15 -14 17 -37v-3v-3q-2 -2 -2 -3v-3q0 -16 8 -30q8 -15 18 -27q0 -1 1 -2l2 -2q2 -4 4 -7 q6 -7 11 -16q6 -9 7 -19q35 -19 57 -48q21 -28 27 -68q-6 -13 -14 -18q-10 -5 -19 -5h-6q-4 0 -6 2h-7h-7h-5q-4 0 -6 -2q-3 0 -5 -1q-4 -2 -5 -3q-22 -7 -43 -17q-13 -6 -41 -20l-2 -2t-2 -1l-2 -1q-36 -17 -77 -33q-35 -15 -81 -20q-5 -13 -14 -21q-9 -9 -23 -20h-1 q-1 0 -1 -2q-18 -14 -25 -23q-12 -14 -12 -30q0 -8 3 -15q2 -9 6 -16q14 -13 33 -18q24 -6 36 -7h4h5q6 -1 16 -2.5t15 -1.5q13 -1 26 -8q32 -1 58 -18q16 -11 48 -37l2 -1q2 -2 2 -3q18 -15 41 -30q20 -14 45 -19q60 -46 104 -108q44 -65 44 -142v-15q0 -6 -2 -16 q9 -12 13 -28q3 -15 3 -29q0 -26 -9 -48q-10 -26 -21 -47l-2 -2t-1 -2q-3 -3 -4 -6q-8 -15 -22 -47q-10 -26 -12 -51q-1 -50 -44 -97q-41 -46 -92 -75q-20 7 -33 0t-24 -23l-3 -3l-3 -3q-5 -7 -16 -18q-11 -9 -21 -13q-2 0 -6 -1.5t-7 -2.5q-6 -1 -14 -6q-25 -8 -106 -31 q-51 -16 -111 -16h-17q-7 0 -17 2q-8 0 -18 2q-3 0 -9 1.5l-10 2.5q-19 -6 -40 -9q-19 -3 -38 -3q-43 0 -84 12q-31 8 -82 25q-25 7 -48 15q-8 2 -24 7t-24 7q-8 6 -13 11q-3 3 -7.5 7t-6.5 6q-15 15 -33 28q-19 11 -39 5q-52 12 -78 53t-44 88q0 2 -2 4l-1 2q-12 32 -25 59 q-14 28 -34 48q-12 58 -18 125q-7 60 -7 135zM539 473q8 -29 31 -46q30 -22 46 -32q2 -2 4 -2q1 0 3 -2q11 -6 23 -14q13 -9 22 -17q6 14 18 23q16 10 25 14q2 2 4 2t4 2q4 3 14 9t15 10q16 18 27 39q11 20 11 47q0 8 -1 12l-3 12q-2 2 -4 6t-4 6q-1 1 -2.5 3t-3 4.5 t-2.5 3.5q-27 37 -61 65q-38 29 -87 29h-5h-5q-2 -2 -5 -2h-5q-37 -16 -47 -53q-10 -36 -10 -78q-2 -8 -2 -12v-13v-8v-8z" />
<glyph unicode="7" horiz-adv-x="1323" d="M59 1227q0 25 9 46q7 20 26 36q-7 12 -8 20q-2 14 -2 21v11q0 3 2 11v9v12q0 16 -4 28t-21 23q2 18 2 27v22v31q0 13 5 26q0 10 3 20q4 12 7 19q41 19 80 29q37 9 88 14h12h12q35 0 68 -6t63 -18q25 9 59 16q31 7 58 8q14 2 21 2h20q41 0 79 -9t71 -30q7 1 16 5q3 0 8 2 t8 2t5 1q1 1 4 1q9 3 29 7q17 4 28 5q11 7 20 9q12 4 17 7q5 0 7 1q4 2 5 3q63 0 95 -1t96 -1q63 0 95 -1t97 -1q9 -9 10 -15q0 -2 1.5 -7.5t2.5 -9.5q0 -1 1 -2t1 -3q0 -5 3 -9q0 -2 2 -5t2 -4q2 -8 2 -11v-9q0 -31 -16 -53q-18 -25 -36 -44l-3 -3q-1 -1 -1 -3 q-19 -19 -32 -39q-15 -23 -15 -51q0 -5 2 -15q0 -1 1.5 -7.5t2.5 -10.5q-5 -19 -13 -34q-12 -22 -19 -33q-16 -26 -25 -46q-12 -24 -12 -55v-3v-3q-7 -36 -26 -69q-21 -35 -40 -64v-1q0 -1 -2 -3q-29 -43 -47 -84q-20 -45 -20 -96v-9v-10q-9 -17 -16 -41q-5 -15 -11 -45v-3 v-3q-5 -21 -17 -61q-10 -31 -30 -58q0 -13 -5 -26q-4 -12 -12 -23q-1 -4 -5 -10q-5 -7 -5 -8q0 -2 -1.5 -6t-2.5 -7q-2 -10 -2 -14v-5q0 -1 2 -7q1 -6 5 -11q4 -7 9 -14v-9v-9q0 -39 -7 -73q-10 -48 -17 -71l-3 -9q-1 -3 -3 -11q-4 -19 -12 -59q-7 -29 -7 -62q0 -18 3 -36 q3 -21 10 -40q0 -3 1 -5t1 -5v-6v-6q0 -28 -16 -45q-15 -18 -46 -23q-11 -6 -19 -9q-9 -3 -20 -3q-15 0 -28 6q-20 8 -29 12q-5 3 -17 9q-16 7 -18 8q-8 0 -11 1t-11 1q-13 0 -24 -7q-12 -6 -26 -24q-3 0 -10 -2t-10 -2q-14 -2 -21 -2q-18 0 -40 5q-17 4 -39 11l-39 12 q-22 5 -37 5q-19 0 -36 -7q-17 -6 -38 -26h-17h-20q-45 0 -83 7q-40 7 -64 46q-1 3 -3 7q-1 2 -1 8q-2 2 -2 6v6q0 21 10 38q19 30 22 34l12 15l9 15q5 6 6 13q0 2 2 6t2 6q17 13 25 30q6 14 4 33q0 11 -1 17q-1 5 -1 16v6v6q-2 8 -2 12v11q0 16 6 34q6 17 20 31q8 11 29 46 q16 30 25 47q34 62 53 92q29 46 78 71q5 58 28 106q18 39 49 95q1 0 2 1l2 2t1 3q28 46 51 96q23 48 24 103q-9 9 -17 13q-12 6 -20 7q-6 0 -9 1t-9 1q-9 0 -23 -2q-4 -1 -11.5 -2.5t-10.5 -1.5q-4 -1 -12 -2.5t-11 -1.5q-16 -2 -24 -2q-16 0 -28 4q-16 5 -29 19 q-3 -3 -6 -4q-5 -2 -7 -4q-2 -1 -4 -2.5t-3 -1.5q-4 -4 -7 -5h-5q-1 0 -7 2h-5h-6q-11 0 -17 -1t-17 -1l-15 -3q-5 -1 -14 -1q-7 -1 -19.5 -2.5t-18.5 -1.5q-26 -2 -38 -2q-26 0 -49 6q-22 6 -41 23q0 2 -2 8t-2 8q-2 8 -6 17q-1 11 -6 28q-2 7 -7 29q-1 5 -3 19q-1 7 -1 18 z" />
<glyph unicode="8" horiz-adv-x="1404" d="M63 532v14q0 7 3 13q1 36 12 74q16 56 20 69q1 2 8 18q4 12 5 17q6 8 11 13q5 4 13 12v2h2q8 8 22 24q9 10 9 27v9q0 5 -4 12q4 5 14 15q5 5 15 13q1 2 4 5l4 4q5 5 8 6q26 26 40 45q17 23 17 53q-27 11 -39 30q-11 17 -22 40q-5 13 -19 39q-12 18 -34 28q-15 17 -23 44 q-8 26 -8 50q0 11 1 17q1 5 1 16q6 22 9 34q6 22 9 32q15 12 19 21t4 22q0 8 -1 12t-1 12q0 6 -1 11q-1 4 -1 12q0 11 4 22q5 12 18 19q16 14 25 21q16 14 26 24q35 31 68 54q37 24 82 24h3h3q34 37 85 54t104 17q21 0 32 -1q20 -2 29 -5q7 -9 10 -11q5 -3 10 -3l10 5 q6 4 9 7q2 2 6 4t5 3q5 3 11 3q9 4 20 4h17q18 0 38 -5q12 -3 36 -11q2 0 3 -1t3 -1q7 -2 20 -6t20 -6q19 -6 42 -6h10q3 0 13 2q3 0 7 -2q3 -3 7 -3q16 -6 32 -16q16 -11 27 -29q11 5 19 6q5 1 16 1q30 0 52 -15q24 -17 44 -35q2 -1 5 -4l4 -4l8 -8l8 -8t8 -7q2 -2 5 -4.5 t6.5 -5t5.5 -4.5q7 -12 17 -38q5 -14 13 -42v-3q0 -1 2 -1q6 -25 19 -55q12 -30 26 -51q4 -13 6 -29q1 -11 1 -33q0 -51 -18 -96q-20 -46 -58 -74q-5 -19 -14 -28q-7 -7 -23 -19q0 -1 -2 -3q-1 -1 -4 -1q-15 -13 -21 -20q-10 -10 -10 -29v-1v-3v-3v-1q11 -10 25 -19 q4 -3 12.5 -10.5t13.5 -11.5q37 -31 69 -69t32 -87v-3v-3q30 -6 44 -29q14 -25 21 -49q0 -1 1 -3t1 -3t1 -3t1 -3q1 -4 5 -14t5 -15q-2 -26 -3 -38q-1 -13 -3 -37q-1 -9 -2.5 -25t-1.5 -23q-2 -25 -6 -47q-1 -27 -9 -54q-7 -26 -18 -58q-24 -13 -38 -38q-9 -16 -23 -48 q-1 -1 -3 -5q-1 -2 -3 -8q-11 -26 -25 -49q-17 -25 -45 -41q-20 -20 -45 -32q-25 -13 -53 -21q0 -2 -1 -2h-3q-23 -8 -45 -18q-23 -11 -43 -29q-21 -14 -45 -20q-24 -7 -52 -7q-16 0 -25 1q-18 2 -28 3q-18 0 -27 1t-28 1q-20 0 -40 -3q-22 -3 -42 -13l-21 -3q-8 -1 -22 -1 q-31 0 -57 9q-30 10 -54 22q-1 1 -5 3t-7 3q-34 16 -60 26q-33 11 -71 11h-5h-7q-16 10 -25 15q-5 3 -28 13q-1 1 -5 3q-3 1 -6 1q-37 18 -62 37q-30 21 -36 62q-55 27 -84 77t-29 113v8v5q-21 30 -28 61q-9 31 -9 63zM557 496q0 -23 14 -43q16 -25 29 -39q8 -10 14 -16 q3 -3 7 -9t6 -8q15 -10 37 -16q18 -7 41 -7q15 0 27 4q15 3 26 7q2 1 6 4t6 4q2 2 7 4.5l7 3.5q26 20 28 22q13 10 11 25v3v3q3 7 5 22q1 7 1 19q-2 53 -37 82q-37 29 -79 51q-1 0 -4 2t-4 2q-3 1 -11 5q-18 12 -31 18q-15 7 -28 18q-23 -12 -33 -33t-16 -44v-2l-2 -3 q-1 -9 -6 -20q-2 -3 -5 -10t-4 -10q-6 -11 -9 -19q-3 -10 -3 -20zM627 1296q0 -22 9 -45q8 -21 21 -43q0 -3 1 -4l4 -4q13 -2 23 -9q3 -2 22 -13q1 0 2 -1l2 -2l4 -4q18 -13 34 -21q17 -9 37 -9h4q1 0 3 2h3h3q3 9 5 28q1 9 -1 27q0 41 -9 80q-13 48 -22 74q-8 -2 -12 -2 h-12q-10 0 -14 1q-5 1 -15 1q-10 2 -17 2h-18q-14 0 -29 -6q-15 -7 -26 -27q-2 -8 -2 -12v-13z" />
<glyph unicode="9" horiz-adv-x="1402" d="M63 1112q10 34 14 51q3 17 11 49v5q0 2 2 4q11 61 32 127q20 62 64 106q22 20 42 35q22 17 48 18q57 67 134 90q79 22 159 29q11 0 18 1q6 1 17 1q17 1 46 5q31 4 42 5q98 -2 189 -24q89 -22 159 -80q79 -17 129 -67q51 -54 64 -128q61 -83 81 -183q18 -94 23 -210v-27 v-30v-29q0 -11 -2 -31q-5 -77 -26 -141q-22 -66 -80 -115q-7 -29 -10 -38l-13 -39q-23 -74 -66 -137t-122 -83q-59 -66 -140 -128q-75 -57 -171 -68q-37 -39 -84 -57q-45 -18 -95 -23h-11h-9q-12 0 -36 2q-20 2 -36 6q-14 8 -22 22q-2 4 -8 13.5t-9 15.5q-6 15 -19 35 q-11 17 -38 23q-14 54 -42 97q-38 58 -58 87q0 1 -1 2l-2 2l-4 4q-9 12 -27 38q-4 7 -13 20t-13 20q-2 1 0 3t2 3l4 4q2 3 -2 4q32 17 63 30q8 3 29.5 12t32.5 14q1 1 5 3t5 3q73 28 128 55q59 27 110 80q4 4 4 10v13v3v3q-1 17 -12 30t-27 15q-6 0 -9 1t-9 1 q-68 11 -129 37q-64 25 -111 71q-85 27 -132 104q-46 76 -60 163q-5 17 -6 32q-3 15 -3 31zM596 1139v-8q0 -3 2 -9q1 -14 8 -31q6 -16 15 -28q35 -30 68 -46q35 -18 75 -18h9h9q34 11 44 38q11 29 12 61v12v12v24v21q-26 38 -52 70q-28 33 -69 45q-8 -7 -24 -19 q-2 -2 -10.5 -8.5t-12.5 -9.5q-16 -11 -33 -26q-13 -12 -29 -35q-6 -10 -9 -21q-3 -12 -3 -24z" />
<glyph unicode=":" d="M207 1020q0 8 1 12t1 15q0 8 1 12t1 12q1 18 3 39q1 13 1 43q0 21 -1 32q-1 10 -1 32q-1 9 -3 31q-1 11 -1 30q0 27 5 55q4 22 19 49q0 6 -2 16t-2 13q-1 3 -2 10t-2 11q-2 14 -2 20q0 4 2 14q1 2 2 7t2 8q40 16 83 21q47 5 87 5q39 0 58 -1l57 -3q10 -9 20 -14 q8 -4 17 -4q5 0 7 1q4 2 7 3q3 0 9 2l4 2l4 2q6 4 18 7q10 3 23 3h2q6 2 9 2h9q11 0 25 -3q16 -4 24 -7q6 -5 12 -6q6 -2 11 -2q8 -2 11 -3t11 -1q1 0 7.5 1.5t10.5 2.5q9 1 17 8q24 -28 28 -63q6 -50 7 -76v-8v-9v-13v-13q0 -18 1 -27q2 -18 3 -26q-15 -13 -19 -25 q-6 -13 -6 -29q1 -12 8 -30q3 -11 11 -33q3 -8 5 -24q1 -9 1 -23q0 -22 -4 -41q-1 -6 -3.5 -20t-4.5 -21q0 -3 -1 -6l-3 -6q-6 -30 -9 -44q-6 -22 -6 -47q-6 -6 -12 -9t-12 -3t-12 3q-8 3 -13 7q-2 1 -23 10q-12 3 -26 -14q-7 10 -17 15q-9 4 -20 4t-20 -4q-14 -6 -21 -11 q-10 -6 -20 -10q-9 -4 -21 -4q-6 0 -9 1q-6 2 -9 5q-5 1 -11 7q-5 4 -10 14q-17 -11 -44 -19q-30 -9 -52 -10h-9h-11q-28 0 -50 6q-22 5 -45 17h-2q-9 0 -16 -3q-7 -4 -14 -6q-1 -1 -4 -2t-5 -2t-5.5 -2.5t-4.5 -1.5h-5h-5q-3 0 -9 2l-12 4q-15 36 -19 59q-5 30 -5 54z M209 217q0 8 1 13q1 4 1 14q0 8 1 12t1 12q1 18 3 39q1 14 1 43q0 21 -1 32q-1 10 -1 32q-1 9 -3 31q-1 11 -1 30q0 27 5 55q4 23 20 50q0 5 -2 15q-3 7 -3 13q-1 4 -2 11t-2 10q-2 14 -2 20q0 4 2 14q1 3 2 8t2 7q38 16 83 22q47 5 87 5q39 0 58 -1q9 0 28 -2t29 -2 q10 -10 20 -14q8 -4 17 -4q5 0 7 1q4 2 7 3q3 0 9 2q2 0 4 2t4 2q6 4 18 7q10 3 23 3h2l9 3h9q11 0 25 -3q4 -2 12 -4t12 -4q6 -4 12 -6t11 -2q8 -2 11 -3t11 -1q1 0 7.5 1.5t10.5 2.5q9 1 17 8q24 -28 28 -63q6 -50 7 -76v-8v-8v-13v-14q0 -18 1 -27q2 -18 3 -26 q-15 -13 -19 -25q-6 -14 -6 -28q1 -13 8 -31q3 -11 11 -33q3 -8 5 -24q1 -9 1 -23q0 -22 -4 -41q-1 -6 -3.5 -20t-4.5 -21q0 -3 -1 -6q-2 -5 -3 -6q-6 -30 -9 -44q-6 -23 -6 -46q-6 -6 -12 -9q-5 -4 -12 -4q-6 0 -12 3q-5 2 -13 8q-11 6 -23 9t-26 -14q-7 10 -17 15 q-9 4 -20 4t-20 -4q-14 -6 -21 -10q-10 -6 -20 -10q-12 -5 -21 -5q-6 0 -9 1q-6 2 -9 5q-6 2 -11 8q-4 3 -10 13q-17 -11 -44 -19q-30 -9 -52 -10h-9h-11q-28 0 -50 6t-45 17h-2q-9 0 -16 -3q-10 -4 -14 -6q-1 0 -4 -2t-5 -2q-2 -1 -5.5 -2.5t-4.5 -1.5h-5h-5q-3 0 -9 2 l-12 4q-15 36 -19 59q-5 30 -5 54z" />
<glyph unicode=";" d="M135 -25q10 29 13 48q2 9 4.5 26.5l3.5 24.5q5 37 17 83q11 43 42 74v10v9q0 10 -2 32q0 4 -1.5 15t-2.5 18q0 4 -1 7t-1 6q-1 4 -2 14t-1 14q-1 9 -1 25q1 23 10 51q8 23 29 43q-18 28 -24 62q-7 29 -7 65v14v13q1 5 2 14t1 14q1 9 3 25q11 12 21 18q12 5 22 5q6 0 9 -1 q6 -2 10 -2q2 -2 3 -2h1q3 0 8 -1t8 -2q5 -1 16 -1t18 3t13 12q5 0 7 -1t7 -1h8h7h19q6 0 18 2h19h18q22 0 47 -5q23 -6 39 -28q11 20 24 27q13 6 29 6q11 0 16 -1t19 -3h2q2 0 2 -2q6 0 20 -2q11 -3 19 -3h3h3h1h3q5 -7 10 -8q8 -2 12 -2q3 0 13 2q2 0 6 2t6 2t3 1t3 1 q5 1 17 3q5 1 14 1q12 0 19 -9q8 -9 9 -31q1 -2 2.5 -6t1.5 -5q1 -4 1 -10v-9v-11q0 -26 -4 -43q-6 -28 -9 -43q-2 -2 -2 -4q0 -3 -2 -5q-1 -4 -2.5 -12t-1.5 -11q0 -2 -1.5 -10.5t-2.5 -13.5q-12 -13 -23 -26q-16 -20 -24 -31l-1 -2q-2 -2 -3 -2q-39 -50 -65 -76 q-35 -35 -81 -47q-17 -51 -52 -88q-33 -35 -75 -70q-4 -4 -12 -10t-11 -9q-11 -9 -24 -18q-6 -6 -16 -14t-16 -14q-23 -6 -39 -21q-22 -22 -31 -35l-5 -5l-5 -5q-13 -18 -30 -33q-14 -14 -40 -26q-3 0 -4 -1t-4 -1h-4h-4h-7q-2 0 -8 2q-11 1 -25 9t-24 19zM207 1020 q0 8 1 12t1 15q0 8 1 12t1 12q1 18 3 39q1 13 1 43q0 21 -1 32q-1 10 -1 32q-1 9 -3 31q-1 11 -1 30q0 27 5 55q4 22 19 49q0 6 -2 16t-2 13q-1 3 -2 10t-2 11q-2 14 -2 20q0 4 2 14q1 2 2 7t2 8q40 16 83 21q47 5 87 5q39 0 58 -1l57 -3q10 -9 20 -14q8 -4 17 -4q5 0 7 1 q4 2 7 3q3 0 9 2l4 2l4 2q6 4 18 7q10 3 23 3h2q6 2 9 2h9q11 0 25 -3q16 -4 24 -7q6 -5 12 -6q6 -2 11 -2q8 -2 11 -3t11 -1q1 0 7.5 1.5t10.5 2.5q9 1 17 8q24 -28 28 -63q6 -50 7 -76v-8v-9v-13v-13q0 -18 1 -27q2 -18 3 -26q-15 -13 -19 -25q-6 -13 -6 -29q1 -12 8 -30 q3 -11 11 -33q3 -8 5 -24q1 -9 1 -23q0 -22 -4 -41q-1 -6 -3.5 -20t-4.5 -21q0 -3 -1 -6l-3 -6q-6 -30 -9 -44q-6 -22 -6 -47q-6 -6 -12 -9t-12 -3t-12 3q-8 3 -13 7q-2 1 -23 10q-12 3 -26 -14q-7 10 -17 15q-9 4 -20 4t-20 -4q-14 -6 -21 -11q-10 -6 -20 -10q-9 -4 -21 -4 q-6 0 -9 1q-6 2 -9 5q-5 1 -11 7q-5 4 -10 14q-17 -11 -44 -19q-30 -9 -52 -10h-9h-11q-28 0 -50 6q-22 5 -45 17h-2q-9 0 -16 -3q-7 -4 -14 -6q-1 -1 -4 -2t-5 -2t-5.5 -2.5t-4.5 -1.5h-5h-5q-3 0 -9 2l-12 4q-15 36 -19 59q-5 30 -5 54z" />
<glyph unicode="&#x3c;" d="M145 823q1 -23 48 -75q3 -2 112 -148q108 -146 115 -156q2 -7 69 -92q107 -136 117 -114q210 172 246 190q4 -7 -5 3q-17 18 -69 85q-33 41 -26 45q4 4 -31 45q-28 36 -53 68.5t-34 44.5l-9 12l-32 51q-22 34 -36 56q51 45 92 98q1 1 11 15.5t32.5 47t48.5 68.5 q82 114 101 135h6q-31 78 -63.5 112.5t-65.5 26.5q-14 -5 -53 33q-42 42 -54 43q-31 -6 -98 -100l-98 -127q-33 -41 -29 -45q5 -5 -27 -45l-208 -266q-9 0 -7 -11z" />
<glyph unicode="=" d="M168 1053q0 11 1 17q2 12 5 17q0 1 2 4t2 4q2 4 2 5l2 2q0 2 2 4t2 4q2 6 2 8q0 3 -1 5q-2 4 -3 5q-11 0 -12 7q-2 8 -2 12v2v7q0 3 -2 5q1 24 15 32q11 7 30 7h15q6 0 16 -2q9 0 14 -1t14 -1q8 0 11 1t10 1q1 0 5 -2q1 0 2 -1t2.5 -2t2.5 -1q7 -6 17 -9q8 -3 18 -3 q14 12 30 15q15 3 31 3h15h16q8 -2 15 -2h16h5h5h5h5q7 -9 13 -11q6 -3 12 -3q5 0 8 1t10 1q6 0 10 1q3 1 9 1h3h1h1h3q2 0 2 2t2 2q0 3 1 4l1 2h1h3h1h1q11 0 17 1q5 1 16 1h6l6 2h12h11q7 0 21 -2q8 -1 20 -8q6 0 10 1l12 3q4 0 10 2t10 2q12 2 19 2q8 0 13 1q4 1 12 1 q24 0 39 -7q17 -8 24 -28v-5v-5q0 -6 1 -10t1 -10v-10v-11q0 -4 -2 -18q-2 -11 -12 -17q10 -13 15 -31q5 -20 5 -38q0 -16 -3 -30q-3 -16 -9 -26q2 -6 2 -7v-5q0 -5 -1 -8q0 -2 -1 -4l-2 -4t-2.5 -6t-1.5 -5q-2 -8 -2 -12q-7 1 -18 3q-7 1 -23 1h-9h-9h-26h-26 q-18 -2 -26 -3t-27 -1q-11 0 -17 1l-18 3q-13 0 -18 1t-19 3q-5 -9 -11 -11q-8 -3 -15 -3q-5 0 -8 1l-9 3h-10h-6h-9q-3 0 -7 -4q-7 -4 -16 -6t-17 0q-12 0 -24 3q-14 3 -23 7l-6 2q-2 0 -4 2l-10 2.5t-9 1.5q-14 2 -18 2q-8 0 -12 -1q-5 -1 -11 -3q-7 -8 -12 -11 q-6 -3 -14 -3q-6 0 -9 1l-12 3h-3h-3q-1 0 -4.5 1.5t-5.5 2.5q-8 2 -11 2h-3h-1h-1h-1q-8 0 -12 -1t-12 -1h-5q-2 0 -8 -2h-8h-8q-13 0 -25 5q-12 4 -18 20q5 11 6 19q2 9 0 18q0 10 -1 15t-1 15q-1 1 -3 5q-1 2 -1 8q0 3 -1.5 10.5t-2.5 11.5q-2 16 -2 25zM176 453 q0 11 1 17q2 12 5 17q0 1 2 4t2 4q2 4 2 5l2 2q0 1 5 8q2 6 2 8q0 3 -1 5q-2 4 -3 5q-11 0 -12 7q-3 6 -3 12v2v7q0 3 -2 5q1 24 15 32q11 7 30 7h15q6 0 16 -2q9 0 14 -1t15 -1q7 0 10 1t10 1q1 0 5 -2q1 0 2 -1t2.5 -2t2.5 -1q7 -6 17 -9q8 -3 18 -3q14 12 30 15 q15 3 32 3h14h16q8 -2 15 -2h16h5h5h5h6q7 -8 12 -11q6 -3 12 -3q5 0 8 1t11 1q6 0 9 1t9 1h3h1h1h3q2 0 2 2t2 2q0 3 1 4l1 2h1h3h1h1q11 0 17 1q5 1 16 1h6l6 2h12h11q7 0 21 -2q8 -1 20 -8q6 0 10 1q8 2 13 3l10 2.5t9 1.5q12 2 19 2q8 0 13 1q4 1 12 1q24 0 39 -7 q17 -8 24 -28v-5v-5q0 -2 2 -10q1 -4 1 -10v-10v-11q0 -4 -2 -18q-3 -11 -13 -17q9 -11 16 -31q5 -20 5 -38q0 -16 -3 -30q-3 -17 -10 -26q2 -6 2 -7v-5q0 -5 -1 -8q0 -2 -1 -4l-2 -4t-2.5 -6t-1.5 -5q-2 -8 -2 -12q-7 1 -18 3q-7 1 -23 1h-9h-9h-26h-25q-18 -2 -26 -3 q-9 -1 -28 -1q-11 0 -17 1q-12 2 -17 3q-13 0 -18 1q-12 2 -19 3q-5 -9 -11 -11q-7 -3 -16 -3q-5 0 -8 1q-1 0 -4 1t-4 2h-10h-7h-9q-3 0 -7 -4q-7 -4 -16 -6t-17 0q-12 0 -24 3q-14 3 -23 7l-6 2q-2 0 -4 2l-10 2.5t-9 1.5q-14 2 -18 2q-8 0 -12 -1q-5 -1 -11 -3 q-7 -8 -12 -11q-6 -3 -14 -3q-6 0 -9 1l-12 3h-3h-3q-1 0 -4.5 1.5t-5.5 2.5q-8 2 -10 2h-3h-1h-1h-1q-8 0 -12 -1q-5 -1 -13 -1h-5q-1 0 -7 -2h-8h-9q-13 0 -25 5q-12 4 -18 20q5 11 6 19q2 9 0 17q0 11 -1 16t-1 15q-1 1 -3 5q-1 2 -1 8q0 3 -1.5 10.5t-2.5 11.5 q-2 16 -2 25z" />
<glyph unicode="&#x3e;" d="M145 428q33 -17 244 -190q10 -22 119 114q68 87 67 92q-7 -10 117 156q110 146 111 148q44 52 49 75q0 9 -6 11l-178 224l-1 1v1l-1 1l-1 1l-1 1v1l-1 1l-1 1l-1 1l-1 1v1l-1 1l-1 1l-1 1v1l-1 1h-1l-1 1v1l-1 1l-1 1l-1 1l-1 1v1l-1 1l-1 1l-1 1v1l-1 1l-1 1l-1 1l-1 1 v1l-1 1l-1 1l-1 1v1l-1 1l-1 1l-1 1l-1 1l-1 2q-31 40 -27 45q4 4 -28 45l-99 127q-67 94 -96 100q-13 -1 -55 -43q-38 -38 -54 -33q-31 8 -63.5 -27t-65.5 -112h9q12 -13 98 -135q26 -36 48.5 -68.5t32.5 -47t11 -15.5q41 -53 92 -98q-68 -107 -65 -107l-4 -5 q-4 -4 -12 -14t-19.5 -24.5t-28 -36t-35.5 -45.5q-33 -40 -28 -45q4 -4 -29 -45q-77 -100 -73 -91q0 1 1 3z" />
<glyph unicode="?" horiz-adv-x="1056" d="M72 1180v5v5q0 23 13 39q12 15 30 28q14 11 30 31q13 16 13 41v9q0 4 -2 10q0 34 17 56q14 17 38 40q2 0 2 1v1q23 21 38 40q17 22 17 54v4v4q-2 2 -2 4v4q0 2 1 4l2 4q2 4 3 7v1v3q6 16 16 32q9 15 29 21q9 3 27 7q12 3 25 3q28 0 49 -10q25 -11 43 -22l1 -1l1 -1 q30 -16 45 -23q22 -12 51 -12q7 0 21 2q10 1 22 6q20 -33 53 -47q41 -17 68 -25q24 -6 60 -19q29 -10 48 -36q16 -16 37 -34q12 -11 43 -38q42 -39 75 -82q34 -44 34 -100q0 -14 -1 -21q-2 -16 -5 -24q-5 -12 -6 -25q0 -4 -2 -14t-2 -14q0 -3 -1 -5q-2 -4 -2 -6 q-6 -38 -20 -71q-13 -33 -61 -39q-6 -7 -9 -18q-5 -11 -6 -21q-5 -22 -12 -37q-7 -17 -35 -22q-13 -13 -19 -20q-14 -14 -22 -21q-41 -44 -90 -78q-51 -36 -106 -43q-16 -26 -42 -46q-24 -18 -53 -36q-1 -1 -13 -8l-15 -9q-1 -1 -13 -8l-7 -3.5t-7 -4.5h-5h-7q-15 0 -24 4 q-11 5 -15 19q14 30 22 45q7 15 23 43q25 49 46 98t21 100q0 20 -5 47q-4 21 -17 48q-19 25 -48 34q-43 14 -56 17q-30 6 -44 11q-23 8 -40 22q-6 20 -17 26q-12 6 -24 6q-5 0 -8 -1t-9 -1q-10 -2 -18 -3q-5 -1 -19 -1q-13 0 -22 4q-10 4 -19 19h-6h-6h-8h-10q-22 0 -47 5 q-23 5 -35 23q0 5 -1 7q-1 1 -1 6zM205 59q9 47 10 79q2 50 2 73v33q0 9 -2 35v16v16l-3 51q-1 17 -1 52q0 27 1 41q1 13 3 41q5 16 19 31q13 13 28 18q14 -15 31 -19q17 -6 33 -6h12q4 0 10 2h12h11h8q2 0 8 -2q5 0 8 -1q1 -1 4 -2t4 -1q7 15 24 23q15 6 32 6h7h7l9 -3 q3 -1 10 -1q8 -2 11 -3t9 -1q4 -1 6 -3t6 -2h5h6q13 0 24 4q16 4 25 7t29 7q13 3 28 3h3h3q5 3 16 5q5 1 15 1q12 0 27 -5q8 -3 22 -9q1 -1 4 -2t4 -2t4 -2t4 -2q7 -5 18 -6q9 -3 19 -3q9 0 21 5q8 3 20 12q7 -19 15 -45q7 -29 8 -49q2 -8 2 -12v-13q0 -27 -4 -47 q-5 -24 -15 -43q9 -27 14 -62q3 -32 3 -67v-20v-21v-11v-10q-2 -22 -2 -31v-30v-15v-16q-28 -27 -62 -35q-37 -8 -69 -8h-16q-7 0 -17 2h-8h-8q-16 0 -24 1q-9 1 -26 1q-6 0 -9 -1t-11 -1q-11 0 -17 -1q-3 -1 -10 -2t-10 -1q-13 -4 -28 -6q-20 -2 -29 -2q-18 0 -37 3 q-27 4 -37 5q-5 1 -17 3q-11 1 -18 3q-11 0 -17 1q-7 1 -18 1h-13q-5 0 -13 -2q-6 -1 -25 -5q-15 -3 -29 -9q-4 0 -9 3q-5 4 -11 5q-2 2 -3 2t-3 2q-15 5 -28 17q-14 11 -15 30z" />
<glyph unicode="@" />
<glyph unicode="A" horiz-adv-x="1996" d="M90 47q0 3 1 5q2 4 3 5q1 7 5 21q3 11 7 20q14 42 33 80t54 64q-2 8 -2 12q-1 4 -1 12q0 34 14 64q13 28 40 49v4v6q-2 2 -2 4v4q0 37 17 66q19 33 36 55q22 27 39 59q16 28 16 68v3v3v1v3q2 2 2 6q0 3 2 5q8 21 18 38q10 18 27 31q7 50 23 104q14 50 59 89l-2 4t-1 4 q-1 3 -1 8q-2 6 -2 8v9q0 15 4 27q5 14 6 28q4 11 10 33q3 17 3 30q0 18 -7 33t-26 31q-3 0 -10.5 -1.5l-12.5 -2.5q-18 -2 -26 -2q-8 -2 -12 -2h-13q-29 0 -53 12q-25 12 -31 45q-2 8 -3 11t-1 11q-2 8 -2 12v11q0 26 4 43q2 7 4.5 22l3.5 21q3 13 9 41q4 17 4 41 q0 17 -5 39q-6 19 -18 35v8v8q-2 6 -2 8v8q1 35 14 70q10 33 43 53q2 0 4 1l4 2t7 1h6h6q12 0 29 -5q12 -4 26 -11q18 -10 27 -13q13 -5 25 -5q5 0 11 2q1 0 5 1.5t6 2.5q8 6 11 9q1 1 5 5.5t7 7.5q5 0 6 1t6 1h5h5q20 0 36 -4q6 -2 19 -4.5t17 -3.5q11 -4 33 -10 q15 -4 32 -4q13 0 25 4t24 12q7 -2 18 -3q6 -1 17 -1q5 0 23 2q16 2 24 2q2 2 5 2h4q12 2 27 3q9 1 26 1q21 0 40 -6q20 -6 36 -22q26 17 50 21q28 5 52 5q19 0 29 -1q9 -1 30 -1q9 -1 29 -3q9 -1 29 -1q27 -2 43 2q21 5 41 12h4q2 0 4 2h4h4q32 -1 52 -23q21 -26 32 -46 q1 -2 2.5 -4.5t2.5 -5.5t2 -4q5 -12 5 -13l3 -3q1 -1 1 -3q9 -23 10 -37q2 -24 3 -35q0 -24 5 -49q4 -23 30 -45q28 -35 35 -77t12 -87q6 -59 22 -111q15 -55 72 -91q14 -19 17 -38q3 -20 3 -40v-12v-11v-12v-12q0 -28 7 -49q6 -22 32 -42q35 -26 48 -59q13 -37 20 -74 q0 -3 1 -5t1 -5q6 -29 15 -59q9 -28 32 -54q7 -26 16 -44q11 -24 17 -44q18 -44 33 -87q15 -47 16 -89q3 -3 7 -9t7 -9q30 -44 43 -66q19 -34 19 -73v-8v-9q0 -7 -1 -10q0 -2 -1 -4l-2 -4q-20 -35 -48 -47q-29 -14 -65 -21q-17 6 -28 13q-13 6 -25 22q-1 -1 -4 -2t-4 -1 q-3 -1 -9 -1q-30 -8 -58 -15q-34 -8 -65 -8q-26 0 -50 8t-44 21q-9 -3 -27 -9.5t-21 -7.5q-26 -11 -52 -12q-14 -2 -19 -2h-18q-16 0 -36 5t-36 12q-19 6 -23 21q-5 15 -5 28v4v4q0 20 -4 32q-4 13 -29 15q-7 9 -11 18q-1 2 -4.5 8.5t-5.5 10.5q-5 12 -19 36q-11 17 -34 25 q-62 10 -88 13q-39 4 -84 4q-57 0 -112 -9q-58 -11 -109 -30q-20 -17 -30 -41q-14 -34 -19 -51q0 -3 -1 -4t-1 -4q-13 -43 -31 -74q-20 -33 -76 -33h-1h-1h-1h-1q-14 10 -27 15q-12 4 -30 4q-15 0 -28 -3q-5 -2 -15 -4t-15 -4q-7 -2 -28 -7q-15 -3 -29 -3q-3 0 -13 2 q-3 1 -7 2.5t-6 1.5q-1 0 -13 5q-10 4 -14 7q-5 0 -16 -2t-17 -2q-17 -1 -37 -6q-16 -2 -23 -3l-24 -3l-27 -3q-9 -1 -26 -1q-36 0 -65 10q-32 11 -54 37zM881 612q0 -10 3 -20q3 -12 7 -19l2 -2t1 -2q1 -1 1 -4q9 0 21 -5q3 -1 20 -11l1 -1l1 -1q8 -5 26 -13q6 -2 10 -2 q11 0 21 7q22 6 30 17q7 10 7 26q0 7 -2 21q0 3 -2 11t-2 11l-3 12l-3 12q0 6 -1 11q-1 4 -1 12v7q0 1 2 7q0 5 1 7q2 4 3 7q-6 10 -11 14q-3 2 -8.5 6t-7.5 5q0 1 -2 3q-1 0 -2 1l-2 2q-8 6 -11 9q-4 4 -9 12q-3 2 -11 5q-4 1 -10 1q-20 0 -27 -19q-7 -18 -12 -43v-3 q0 -1 -2 -1q-1 -10 -7 -32q-5 -18 -15 -25q-1 -2 -2 -6t-2 -6q-2 -10 -2 -11z" />
<glyph unicode="B" horiz-adv-x="1662" d="M76 160q0 30 8 60q8 28 33 48q-17 21 -25 52q-8 30 -8 59q0 19 3 39q4 24 5 35q11 21 18 46q5 25 5 46q0 25 -5 57q-8 36 -12 55q-10 37 -13 58q-5 32 -5 59q0 10 2 32q2 16 6 32q1 4 5 12q3 6 7 10q3 7 9 19q4 7 4 18v3v3l-1 1q-1 1 -1 3q-18 27 -21 61q-4 29 -4 70v4v7 v9v9v16v15q0 2 1 4l2 4l2 4t1 4t1 3l1 1q8 20 15 42q6 22 6 48v13q0 4 -2 12q-18 16 -25 38q-7 21 -6 46q0 21 1 31q1 4 2 14t1 14q2 7 6 14q4 8 8 11q0 1 1 2.5t2 2.5t1 2q2 3 5 5q5 6 6 13q2 8 2 14v7q0 3 -2 5q-14 17 -20 36q-7 18 -7 40q0 7 2 25q0 4 2 12t2 12 q12 26 34 33q24 8 46 8h14q5 0 15 -2q10 0 15 -1t13 -3q7 -10 21 -15q12 -6 27 -6q6 0 14 2q2 1 6 2t6 2q4 4 12 10q1 1 5 3t6 4q5 0 7 1q4 2 5 3q18 2 28 2h25q18 0 54 -2q34 -2 53 -2q9 -1 27 -2.5t26 -1.5q34 -2 49 -2q34 0 62 4q29 4 61 12q26 -9 46 -10q30 -2 42 -2 q25 0 50 3q32 4 48 7q6 0 9 1t8 1q10 2 28.5 4.5t27.5 3.5q25 4 58 4h8h5h7h7q19 0 29 -1q4 -1 14 -2t14 -1q49 -5 90 -20q44 -17 74 -45q6 2 10 2h9h8q2 0 8 -2q34 -6 65 -31t56 -53q0 -2 1 -3l3 -3q1 -14 13 -29q3 -4 10.5 -13.5t11.5 -15.5l1 -1l1 -1q13 -13 18 -20 q10 -14 15 -23q1 -5 5 -22q4 -19 5 -25q0 -3 2 -10t2 -10t1.5 -11t2.5 -12q1 -5 3 -17q1 -6 1 -20q0 -24 -8 -45q-8 -20 -31 -37q5 -13 6 -27q2 -18 2 -24q0 -48 -25 -82q-26 -35 -59 -65v-1q0 -1 -2 -1q-9 -9 -27 -29q-18 -22 -26 -33q10 -10 22 -19q7 -6 25 -18l2 -2 q2 -2 4 -2q28 -18 45 -35q19 -19 19 -53v-9q0 -3 -2 -11q39 -12 57 -44q17 -32 29 -67l3 -9q1 -3 3 -11q1 -2 2.5 -6t1.5 -5q1 -2 2 -6t2 -6q-4 -13 -6 -28q-2 -20 -2 -31v-18q0 -9 2 -19v-10q0 -3 2 -9q0 -19 1 -28q1 -10 1 -27q0 -40 -12 -71q-12 -34 -51 -56v-5v-5 q0 -13 -6 -27q-10 -18 -15 -26l-1 -1l-1 -1q-8 -16 -12 -23q-6 -12 -6 -27v-2q-87 -87 -182 -121q-97 -36 -214 -36q-15 0 -47 2q-7 0 -24 1.5t-27 2.5q-1 1 -6 3q-3 1 -6 1h-7h-7q-16 0 -36 -5q-12 -3 -34 -11h-6q-4 0 -6 2h-7h-8q-11 0 -17 -1t-20 -1q-11 0 -17 -1t-19 -1 q-25 1 -48 6q-25 5 -41 18q-3 0 -4 1t-4 1h-4h-4q-13 0 -26 -5q-12 -4 -23 -15q-2 0 -6 -1.5t-7 -2.5q-7 -1 -16 -5q-10 0 -15 -1t-13 -1q-22 0 -41 4q-28 4 -41 7t-41 7q-21 3 -39 3t-40 -5q-19 -4 -38 -20q-2 1 -6 2.5t-5 1.5q-6 2 -12 2q-8 2 -11 3h-11q-18 0 -36 -3 q-4 -1 -17 -3.5t-19 -4.5q-17 -6 -32 -9q-17 -3 -33 -3q-20 0 -40 9t-36 36q0 19 -1 29q-1 9 -1 28q-1 9 -3 29q-1 9 -1 29zM713 1186q0 -18 6 -38q5 -17 14 -38q1 -4 4 -10t4 -10q3 -7 7 -21q8 -2 13 -3t15 -1q14 0 31 5q15 5 22 15q1 5 6 13q4 8 7 12q1 2 2.5 4t1.5 3 t1.5 3t2.5 4q9 11 19 30q8 16 8 32q0 3 -2 13q-4 10 -7 15q-4 22 -21 33q-18 10 -38 15q-10 2 -14 3q-5 1 -13 3q-5 -7 -11 -8q-10 -4 -15 -5q-10 -1 -19 -6q-9 -4 -14 -18q-1 -2 -2.5 -6t-1.5 -5q-1 -2 -2 -6t-2 -6q-2 -8 -2 -11v-11zM731 602q0 -34 10 -64q9 -31 29 -59 q1 0 6 -1.5t8 -2.5q10 -2 15 -2h7q3 0 5 2q10 1 25 8q12 6 20 17q0 16 4 29q7 22 10 28v1v1q7 16 11 30q4 13 4 29q0 10 -3 22t-12 22q-11 20 -30 32q-23 12 -43 13h-4h-5q-12 0 -23 -3q-3 -2 -11 -4t-11 -4q-1 -10 -5 -23q-3 -11 -3 -24q-2 -16 -3 -23q-1 -8 -1 -24z" />
<glyph unicode="C" horiz-adv-x="1626" d="M74 762q0 20 3 40q3 18 9 38q2 22 2 32q0 9 2 33q0 20 1 31t1 31q5 48 15 91q11 44 36 81q13 24 30 40q5 5 17 16t17 17l5 5q2 1 5 4q22 18 49 49q21 26 29 67q9 5 19 15q11 11 16 18q10 10 36 32q20 15 46 15q55 54 128 106q68 49 150 56q22 1 66 5q42 4 63 7q16 2 23 3 q4 0 10 1t10 2l87 12q58 6 89 7q16 -4 33 -6q22 -2 31 -2q12 0 36 2q6 0 17 2t16 2q10 0 34 2t34 2h17q6 0 16 -2q2 0 8 -1t8 -2q12 -2 17 -5q13 18 38 24q23 6 48 6h13h13h6h7h12h10q3 0 4 -1q0 -1 2 -2l2 -1q8 -3 20 -12q9 -8 15 -18q5 -5 6 -7q1 -1 2 -4t2 -4 q-2 -18 -2 -27v-28q0 -18 2 -52q1 -9 2.5 -25.5t1.5 -24.5v-8q0 -5 2 -7q1 -8 2.5 -22.5t1.5 -21.5q1 -14 1 -44v-16v-17q0 -11 -1 -16q-1 -2 -2 -8t-2 -8q0 -11 1 -16q2 -12 4 -17q0 -5 1 -8t1 -9q0 -4 2 -12t2 -12q2 -16 2 -25q0 -14 -3 -26t-14 -23q-11 -8 -26 -14 q-12 -4 -25 -4q-15 0 -27 4q-5 2 -14 4t-14 4q-6 3 -28 10q-13 4 -30 4q-13 0 -24 -4q-15 -6 -27 -14l-15 3q-5 1 -15 1q-9 0 -27 -2q-4 0 -14 -1.5t-15 -2.5q-14 -4 -27 -6q-18 -2 -26 -2q-15 0 -27 4q-15 5 -26 12q-28 -12 -59 -30t-58 -35q-3 -1 -8 -4t-8 -5 q-4 -2 -10 -5.5t-7 -4.5l-57 -33q-32 -20 -57 -32q-16 -28 -24 -65q-9 -36 -9 -73v-9v-11q2 -46 15 -89q14 -45 36 -79q28 0 51 -12q28 -18 41 -29q14 -8 22 -13q14 -10 21 -14q16 2 25 3q8 1 24 1q15 0 45 -2q20 -1 43 -6q11 -1 42 -5q22 -3 42 -3t47 5q24 5 43 18 q8 -2 13 -3q2 -1 6 -2t6 -2h6h6q13 0 30 3q15 2 30 6q6 1 16 2.5t15 1.5q18 2 28 2q30 0 50 -13q21 -14 28 -53q0 -2 2 -4t2 -4q2 -6 2 -8q2 -6 2 -8v-9q0 -13 -3 -23q-5 -17 -7 -22q-6 -11 -9 -23q-3 -11 -3 -22t4 -19q5 -11 12 -20q10 -14 12 -27q2 -18 2 -28 q0 -14 -3 -29q-4 -20 -7 -30q-2 -7 -7 -30q-3 -15 -3 -32q0 -12 3 -24q3 -13 9 -25q-1 -5 -3 -17q-1 -6 -1 -18q-6 -34 -11 -51q-7 -24 -40 -37q-6 0 -9 1t-10 1q-8 2 -11 2h-9q-12 0 -36 -2q-18 -1 -38 -6q-14 -1 -35 -5q-18 -3 -36 -3q-13 0 -20 1q-14 2 -21 5q-8 1 -20 8 q-10 6 -21 15q-33 -14 -70 -21q-40 -8 -78 -8q-48 0 -87 7q-48 9 -77 20q-16 -5 -41 -12q-24 -8 -49 -9h-11h-9q-19 0 -34 4q-20 6 -34 13q-10 -2 -14 -2q-4 -1 -12 -1q-46 0 -80 19q-38 20 -68 43q-36 24 -55 35q-27 16 -64 22q-37 10 -58 36q-20 23 -40 56q-2 0 -2 1l-2 4 q-20 33 -35 50q-20 23 -51 38q-62 72 -96 154q-36 83 -37 173q-22 19 -33 49q-10 27 -10 62z" />
<glyph unicode="D" horiz-adv-x="1888" d="M86 113q0 27 6 51q8 32 12 49q11 41 13 48q6 24 6 50q0 14 -1 22q-2 14 -5 21q0 5 -1.5 16.5t-2.5 18.5t-2.5 19t-1.5 18q-2 10 -3 14q-2 8 -2 15q0 6 -1.5 18.5t-2.5 19.5q-2 26 -2 37q0 29 6 56q4 24 17 51q-9 42 -14 101q-5 55 -5 100q0 47 1 71q1 11 2 35t1 35 q2 7 3 18q0 7 2 17q1 15 2.5 45t1.5 44q2 58 2 89q0 26 -2 78q-1 39 -9 78q10 13 11 17q2 10 2 15q0 8 -3 16q-4 10 -7 15v1v3q-6 11 -9 21q-4 9 -4 22v8q0 3 2 9v21v22q0 22 6 45q4 22 23 36q44 21 84 28q41 7 86 7q16 0 52 -2q34 -2 52 -2q9 0 27 -1.5t28 -2.5 q36 -2 56 -2q6 -5 16 -9q8 -3 15 -3q8 0 17 3q12 4 18 5q11 5 19 6q12 2 17 2q8 0 13 -1q4 -1 14 -1q8 -2 12 -2h13q16 0 46 2q24 2 46 6q8 0 23 2t22 2q30 2 45 2q27 0 55 -5q24 -4 51 -17q4 -1 8 0q2 1 5 4q1 3 5 5q2 1 7 1q21 7 40 8q26 2 38 2q76 0 142 -33 q67 -36 128 -75q25 -15 73 -45q40 -25 75 -37l12 -15q6 -7 12 -18q3 -3 7 -9t7 -9q15 -24 36 -46q18 -20 46 -32q43 -34 66 -79q15 -29 43 -89q0 -3 1 -5q2 -4 3 -5q6 -16 10 -25q8 -18 13 -27q31 -47 48 -105q17 -59 21 -118v-11v-11q0 -42 -8 -87q-7 -41 -27 -79 q2 -16 2 -24v-23q0 -71 -22 -133t-82 -101q-18 -95 -92 -165q-72 -69 -166 -97q-41 -69 -110 -88q-74 -21 -146 -29q-6 -2 -10 -2h-11q-13 -1 -39 -5t-38 -5q-15 15 -34 23q-18 6 -34 6q-17 0 -32 -4q-22 -6 -31 -9q-6 -2 -17 -4t-16 -4q-15 -4 -33 -4q-11 1 -26 5 q-13 3 -25 12q-20 -5 -55 -10q-38 -6 -58 -7h-19h-20h-15h-15q-25 1 -73 7q-33 4 -69 14q-23 0 -55 -5q-19 -4 -57 -10q-3 0 -10 -1t-10 -2l-21 -3q-22 -4 -45 -6q-30 -2 -43 -2q-42 0 -78 13q-37 12 -66 44q-4 17 -6 30q-2 18 -2 26zM768 934q10 -38 13 -85q4 -56 5 -91v-6 v-7q1 -27 5 -72q1 -32 8 -69l2 -4l2 -4q1 -3 4 -6q0 -2 2 -8q1 -2 2 -5t2 -4q11 -6 23 -9t24 -3q5 0 7 1t7 1q11 1 31 7q14 4 25 12q59 2 101 45t69 96q10 18 18 36q8 17 17 34q0 40 -4 71q-3 22 -11 66q0 5 -1 6t-1 4q0 4 -1.5 14t-2.5 15q0 5 -2 14t-2 14q-10 9 -27 24.5 t-23 21.5q-32 26 -48 38q0 2 -1 3t-3 1l-9 9q-8 6 -10 8q-19 7 -44 12q-26 5 -50 6q-6 0 -9 1t-12 1q-8 0 -13 1l-15 3q-36 -13 -44 -43t-9 -61q-1 -19 -5 -48q-5 -25 -20 -40z" />
<glyph unicode="E" horiz-adv-x="1198" d="M58 1522q0 9 2 35q2 18 9 36q13 17 35 25q20 6 42 6h14q5 0 15 -2q11 0 16 -1t13 -3q10 -4 21 -6q14 -2 22 -2q17 0 33 3q19 3 32 7q11 1 33 5q17 3 35 3q6 0 22 -2q11 -2 23 -6q2 -1 6 -2.5t5 -1.5q5 -2 11 -6q14 5 32 10q5 2 16 4t16 4q9 1 31 3q11 1 30 1q33 0 66 -3 q34 -3 65 -9h4h3q10 -2 31 -4t32 -4q28 -4 61 -4q19 13 45 20q31 9 56 10h12h12q35 0 64 -12t41 -41q0 -3 -2 -10t-2 -10q-2 -14 -2 -21q0 -22 4 -41q5 -27 10 -43q1 -7 3.5 -22t4.5 -22q4 -19 4 -42q0 -9 -2 -23q-1 -11 -6 -22q0 -6 1 -10t1 -12q2 -8 2 -12v-15q2 -8 2 -12 v-13q0 -18 -4 -30q-4 -14 -18 -25q-43 -7 -75 -8q-48 -2 -71 -2h-24h-25h-12q-4 0 -12 2h-37h-37h-12h-13q-25 -13 -42 -31q-16 -19 -29 -45v-3v-1v-3v-3q0 -37 25 -49q24 -14 55 -21h5q3 0 5 -2q9 -1 27 -5q11 -3 22 -9q26 14 61 21q35 6 74 6q19 0 53 -2q29 -3 47 -7 q15 -13 20 -25q5 -15 5 -30q0 -16 -4 -29q-5 -18 -10 -32q0 -16 3 -34q4 -21 7 -34q4 -13 7 -32q3 -16 3 -34q0 -16 -4 -29q-5 -17 -14 -32q-12 -8 -21 -11q-12 -3 -24 -3q-7 0 -21 2q-11 1 -22 6q-4 1 -12 2.5t-11 1.5q-16 2 -22 2q-13 0 -24 -4q-14 -5 -26 -14l-12 3 l-12 3q-8 0 -11 1l-12 3l-24 3q-9 1 -25 1q-19 0 -39 -6t-37 -23l-3 -12q-1 -4 -1 -14q0 -3 -1 -4t-1 -5q0 -10 -5 -25q-4 -13 -17 -24v-7v-7q1 -34 20 -66q17 -33 53 -43q2 -1 8 -2t8 -1q5 -1 15 -1h14h15q16 0 50 2q16 1 46 7q9 1 25 2.5t24 1.5q30 2 45 2q19 0 29 -1 q9 -1 29 -3q5 -2 15 -4.5l14 -3.5q13 -4 28 -11q17 -12 21 -25q4 -12 4 -30q0 -6 -2 -20q-3 -10 -3 -19l-2.5 -10t-1.5 -9q-2 -14 -2 -20q0 -5 2 -17q1 -11 9 -18q4 -12 6 -23q2 -16 2 -22q0 -16 -3 -31q-4 -20 -7 -30q-1 -2 -2.5 -6t-1.5 -5q-3 -6 -3 -10q-1 -4 -2 -10 t-2 -10q-2 -14 -2 -21q0 -12 3 -24q3 -14 10 -25v-3v-1q0 -26 -13 -45q-13 -21 -37 -35q-124 -6 -242 -6h-237h-4h-4q-60 2 -90 2h-90q-94 0 -141 -1q-96 -2 -144 -5q-28 28 -44 63q-17 36 -17 74q0 7 2 25q1 12 6 24q3 5 7 15q3 6 3 12q0 4 -2 12q-1 2 -2 6t-2 6q0 3 -1 5 l-1 2q-5 10 -6 21q-2 14 -2 22v1v3v3v1q6 19 9 40q4 26 5 40q1 12 3 38q1 13 1 40q0 19 -2 59q-1 10 -2 29t-2 28q-1 13 -2 37t-2 37q-2 50 -2 74q0 19 2 57q1 26 6 55q-4 28 -6 62q-1 11 -2.5 33t-1.5 32v14v13q0 48 4 85q5 47 14 79q-13 22 -21 53q-7 27 -7 61v9v10 q1 26 9 52q8 27 15 44q-16 36 -25 74q-10 36 -10 76z" />
<glyph unicode="F" horiz-adv-x="1220" d="M55 1518q0 19 1 29q0 5 1 14t2 14q0 8 1 13t1 14q27 20 58 27q29 7 63 7h20q7 0 17 -2q13 0 20 -1q6 -1 17 -1q6 0 18 -1.5t19 -2.5q24 -2 35 -2q11 3 33 5t34 3q22 2 33 2h33q39 0 58 -1q9 -1 27.5 -2t28.5 -1t29 -1t29 -2q19 -1 57 -1q19 0 53 2q8 0 25.5 1.5t26.5 2.5 q17 1 49 3q16 1 51 1q34 0 51 -1t51 -1t51 -1t50 -1q8 -2 15 -6q10 -6 15 -10q8 -10 14 -28q3 -15 3 -29q0 -8 -2 -24q-1 -5 -2 -13t-2 -13q-1 -4 -2.5 -12t-1.5 -11q-2 -14 -2 -24t1 -15q2 -9 5 -13q1 -5 7 -15q4 -7 13 -16q-2 -16 -2 -23v-22q0 -21 1 -31l3 -33q0 -6 1 -9 t1 -9q0 -13 1 -20t1 -21q0 -16 -1 -25q-2 -20 -5 -28q-22 -10 -33 -13q-18 -6 -36 -6q-14 0 -30 3q-17 3 -32 10q-11 -3 -33 -5q-24 -2 -34 -2q-7 0 -25 2q-9 1 -27 1t-27 1t-26 1q-37 0 -73 -11q-34 -12 -60 -53q2 -6 2 -8v-8v-11q0 -4 -2 -12v-6v-6q-1 -3 -2 -8t-1 -8 q-1 -6 -1 -17q0 -18 9 -32q9 -15 36 -21q18 -5 36 -6q6 -1 17 -2t17 -2h17h17h28q8 0 28 2h13q5 0 13 2q27 0 42 1t42 1h13h14q8 0 12 -1t12 -1q16 -18 22 -44q5 -27 5 -46q0 -13 -1 -19q-1 -7 -1 -20t-1 -19q-1 -7 -1 -20q0 -9 2 -29q1 -13 10 -31v-5v-5v-5v-7 q-1 -23 -10 -51q-7 -25 -39 -37q-18 2 -27 2h-28q-16 0 -44 -2q-8 -1 -22 -2t-22 -2q-13 -1 -41 -5q-21 -4 -41 -6q-16 -4 -33 -6q-6 -1 -18 -2.5t-17 -1.5q-25 -18 -33 -41q-8 -26 -8 -51q0 -14 1 -21q1 -8 3 -22v-5v-5l3 -27q1 -9 1 -26q0 -10 -2 -26q-1 -12 -6 -26 q5 -6 6 -12q1 -4 5 -10q2 -8 2 -12v-13q0 -9 -2 -23q-3 -12 -3 -22q-1 -4 -2.5 -12t-1.5 -11q-2 -16 -2 -22q0 -13 5 -26q5 -15 14 -25v-5v-5v-6v-7q0 -30 -7 -57q-8 -29 -24 -53q-10 -12 -23 -16q-15 -5 -28 -5q-11 0 -17 1q-11 1 -18 3q-11 0 -17 1q-7 1 -18 1 q-14 0 -25 -3q-12 -3 -22 -13q-8 7 -17 11q-3 1 -9 4t-9 4q-9 4 -18 4h-19q-20 0 -35 -4l-36 -9q-14 -5 -37 -10q-17 -4 -37 -4q-7 0 -21 2q-11 1 -22 6q-10 10 -19 10q-8 0 -18 -2q-1 -1 -5 -3q-2 -1 -5 -1q-6 -5 -13 -6q-10 -2 -14 -2h-4q-2 0 -4 2q-3 0 -4 1t-4 1t-5 1 t-5 1q-10 0 -14 1q-5 1 -13 1q-30 5 -54 16q-26 11 -28 40v6q0 1 1 3t1 3v5v5q0 18 -3 36q-5 27 -7 36q-3 11 -7 40q-3 20 -3 38q0 22 7 40t21 35q-8 80 -11 142q-3 69 -3 137v42q0 14 2 42v51v51q0 35 -2 109q-1 48 -8 110v12q0 3 2 11v11v11q0 22 -2 68q0 11 -1.5 35 t-2.5 37q-1 9 -2.5 27t-1.5 26q0 9 -2 26t-2 25v23v20q0 19 2 59q2 29 6 56q-9 14 -14 34q-5 18 -5 38z" />
<glyph unicode="G" horiz-adv-x="1658" d="M76 688q6 32 6 62v61v12v13q0 21 1 32q1 10 1 31q1 9 5 31q4 19 7 31q24 34 34 69q14 50 20 76v3q0 1 2 3q14 67 39 125q24 60 96 88q31 77 102 126q71 50 148 75q3 0 8 2t8 2t8 2t8 2q46 37 110 57q55 17 128 29q4 0 12 1.5t13 2.5q4 0 12 2t12 2q38 7 69 8q44 2 66 2 h37q13 0 37 -2h18h19q36 -2 55 -3q18 -1 55 -1q34 0 51 1q34 2 52 3q1 0 4 -1t4 -2q3 -1 10 -1q6 -2 9 -2h8q10 0 15 1l15 3q11 0 16 1t15 1h7q1 0 7 -2q4 0 7 -1q4 -1 6 -3q36 -14 43 -39q8 -27 8 -55v-15v-16q-2 -10 -2 -15v-15q0 -22 4 -38q5 -18 16 -34q-7 -13 -8 -25 q-2 -18 -2 -28q0 -16 3 -33q4 -22 5 -33q5 -18 6 -34q2 -22 2 -33q0 -28 -13 -50q-14 -25 -50 -39l-33 -3q-12 -1 -35 -1q-33 0 -63 3q-18 2 -62 8q-5 0 -8 1t-8 1q-11 1 -34 4t-35 4q-31 4 -72 4q-17 0 -49 -2q-22 -1 -52 -8q-54 -7 -101 -36q-54 -33 -91 -59 q-10 -9 -23 -18q-4 -2 -12 -8t-12 -8q0 -36 -8 -76q-13 -55 -17 -74q-2 -8 -3 -13t-3 -13q-10 -44 -13 -62q-5 -35 -5 -63q0 -16 1 -24q0 -5 1 -13t2 -13q11 -42 34 -71q20 -28 52 -60l1 -1l1 -1l25 -25q2 -2 22 -28l15 -3q5 -1 16 -1q29 0 55 12q23 9 41 31v21q0 6 2 22v26 v27v29q0 9 -2 29q-1 26 -7 67q-4 31 -18 58q0 8 1 12l3 12q1 19 13 40q11 20 35 24q12 3 37 5q12 1 38 1h21h18q14 -2 21 -2h18q20 0 56 2q22 1 53 10q7 -4 19 -10q9 -4 20 -6q7 -1 18 -3q14 -2 18 -2q20 0 36 4q21 4 34 7q11 1 33 5q16 3 33 3q25 0 48 -9q24 -11 44 -38 q-2 -16 -3 -25t-1 -26q-2 -16 -2 -25v-27q0 -50 4 -89q4 -43 6 -89q2 -2 2 -4v-6q3 -30 7 -92q3 -47 3 -94q0 -20 -2 -62q-1 -31 -6 -61q0 -9 1 -14q1 -6 1 -17q2 -8 2 -14v-17q2 -10 2 -15v-15q0 -28 -3 -53t-11 -48q-31 -31 -70 -40t-80 -9q-21 0 -32 1t-33 1q-21 0 -32 1 t-34 1h-17q-6 0 -18 -2q-11 0 -17 -1q-12 -2 -17 -3q-10 -2 -15 -2h-14q-23 0 -44 3q-27 4 -44 7q-14 3 -42 7q-22 3 -44 3q-20 0 -40 -3q-22 -3 -40 -13q-5 0 -7 -1t-7 -1h-7h-8q-28 0 -48 4q-34 7 -46 10q-4 0 -14 2q-5 1 -15 5q-6 1 -16 2.5t-14 1.5q-20 2 -31 2 q-9 0 -27 -2q-10 -1 -28 -7q-109 4 -199 66q-91 62 -160 137q-93 84 -146 198q-52 109 -79 226q0 3 -2 10t-2 11t-2 10t-2 10z" />
<glyph unicode="H" horiz-adv-x="1677" d="M76 1473q0 19 1 30q2 20 3 29q0 10 1 15t1 16q2 8 3 13t1 15q23 15 54 23q28 6 61 6q13 0 20 -1t21 -1q18 -1 43 -7q19 -5 39 -12q20 11 50 19q27 6 56 6q28 -1 61 -8q30 -6 50 -19q34 10 53 15q27 6 55 6h10h11q6 0 9 -1l9 -3q20 -20 29 -46q8 -27 8 -55q0 -16 -1 -24 q-2 -16 -5 -25q-14 -13 -13 -22q2 -12 7 -21q0 -2 2 -4t2 -6q5 -6 10 -18q5 -11 0 -23q5 -8 6 -18q2 -14 2 -21v-9q0 -3 -2 -11q0 -6 -1 -9q-1 -4 -1 -12l-2.5 -10t-1.5 -9q-2 -12 -2 -18q0 -18 10 -31q11 -15 39 -22q5 0 16.5 -1.5t18.5 -2.5q24 -2 39 -2q27 0 54 8 q23 7 36 31q2 44 3 65q1 10 2 31t1 31v32v31q0 54 -1 81l-3 81q10 18 30 30q26 14 40 19q1 0 5 2t5 2h5h3q15 0 30 -5q13 -4 25 -15q58 7 107 8q70 2 108 2h41q15 0 41 -2q27 0 83 -2q15 -1 42 -2.5t39 -1.5q8 -5 12 -10q4 -8 5 -13v-2q0 -1 1 -3t1 -3q0 -2 2 -4 q0 -13 2 -41q1 -8 2.5 -22t1.5 -21q0 -13 2 -41q2 -30 2 -43q0 -20 -3 -41t-9 -41q15 -20 19 -36q5 -22 5 -37q0 -16 -3 -32q-3 -19 -7 -32q-2 -9 -7 -35q-3 -18 -3 -35q0 -18 6 -36q5 -17 20 -35q3 -7 7 -19q2 -14 2 -20q0 -18 -6 -35q-2 -5 -13 -35q-3 -5 -7 -17t-5 -18 q-1 -3 -2 -8t-2 -8q-2 -10 -2 -16q0 -15 7 -29q8 -17 25 -33q-3 -17 -7 -49q-3 -26 -3 -49q0 -18 2 -48q1 -8 2 -24t2 -24q3 -17 7 -56q2 -38 2 -57q0 -42 -7 -78t-28 -78q20 -34 26 -65q6 -33 6 -68q0 -21 -1 -32t-1 -33q-2 -24 -3 -35t-1 -33v-17q0 -6 2 -20q-5 -5 -7 -8 q-4 -6 -5 -10q-2 -3 -6 -8.5t-6 -7.5q-6 -9 -19 -15q-59 9 -104 10q-70 2 -107 2q-33 0 -105 -2q-54 -2 -108 -6q-36 0 -54 -1l-54 -3q-3 0 -4 1l-2 1q-24 7 -46 31q-22 22 -28 49q0 5 -1 16t-2 16q-1 10 -1 29q0 11 -1 16t-1 15q0 31 -1 48q-2 28 -7 50q4 45 6 90 q2 58 2 87q0 47 -3 91q-3 47 -13 85q-12 13 -26 18q-13 4 -32 4q-8 0 -12 -1t-10 -1q-2 -1 -8 -2t-8 -1q-12 -2 -17 -3q-4 -1 -10.5 -2.5t-7.5 -1.5q-3 -1 -9 -2.5t-8 -1.5q-18 -10 -22 -29q-5 -22 -5 -41v-2v-2q-1 -14 -5 -35q-3 -17 -17 -30q9 -28 16 -63q6 -31 6 -66v-13 v-16q-2 -29 -9 -56q-9 -32 -17 -53q13 -30 20 -57q8 -34 8 -63q0 -17 -5 -42q-4 -20 -17 -38q-13 -13 -25 -17q-13 -6 -28 -4q-9 0 -23 2q-4 1 -11.5 2.5t-10.5 1.5q-4 1 -12 2.5t-11 1.5q-16 2 -24 2q-15 0 -26 -4q-14 -5 -26 -14q-5 2 -23 7q-13 4 -22 5l-21 3q-7 1 -24 1 q-26 0 -48 -3q-29 -4 -48 -5q-14 -2 -48 -7q-24 -3 -48 -3q-25 0 -53 5q-26 4 -54 20q-21 50 -28 97q-9 50 -9 101q0 39 3 78q2 26 8 78l3 27q1 8 1 26q3 17 5 53q1 17 1 52v11v11q-2 8 -2 11v12q-7 20 -12 42q-5 23 -5 42t1 28l3 27q0 6 2 14q2 6 3 15q0 6 1.5 20t2.5 21 q2 26 2 40q0 12 -2 36q-1 17 -9 34q0 1 -1.5 6t-2.5 8t-2.5 7t-1.5 6q0 8 -1 13t-1 13q0 18 3 37q3 21 10 37q3 14 7 37q3 18 3 37q0 13 -1 18q-3 14 -5 19q-1 5 -7 17l-12 18q0 11 -2 33t-2 34q-2 6 -2 10q0 3 -2 13q0 14 -1 22t-1 23q0 10 2 34q1 16 8 31q-9 19 -14 48 q-4 21 -4 51z" />
<glyph unicode="I" horiz-adv-x="811" d="M68 1552q0 32 16 54q17 23 61 30q6 0 18 -1.5t19 -2.5q26 -2 35 -2q9 -1 27 -2.5t26 -1.5q25 -1 49 -12q26 12 53 18t56 6h14q5 0 15 -2q18 -1 41 -8q22 -7 39 -16q20 9 36 14q22 7 37 8q8 2 12 2h9q30 0 56 -13q27 -14 40 -46q2 -18 2 -26v-25q0 -27 -1 -40 q-2 -26 -3 -38l-3 -39q-1 -13 -1 -39q0 -24 5 -54q4 -25 17 -56q-5 -27 -6 -51q-2 -34 -2 -50q0 -19 2 -57q2 -30 6 -58v-6q0 -2 2 -8q1 -30 6 -62q3 -32 3 -67q0 -13 -2 -43q-1 -14 -7 -49q0 -23 3 -47q1 -9 2.5 -25t1.5 -24q0 -7 1.5 -23t2.5 -24q0 -8 1 -25t1 -25v-16 v-16q0 -24 -2 -70q-3 -35 -15 -65q6 -7 9 -15q2 -10 2 -18t-1 -11q-1 -4 -1 -10q-2 -10 -2 -15v-13q0 -9 3 -16q3 -9 11 -17q-6 -20 -9 -42t-3 -42q0 -21 1 -32q2 -22 3 -32q0 -10 2 -32q2 -16 0 -33q0 -12 -2 -36q-1 -19 -6 -40q-11 -27 -32 -36q-22 -9 -44 -9h-8 q-3 0 -9 2q-5 0 -8 1t-8 1q-15 8 -27 11q-14 3 -30 3q-7 0 -25 -2t-27 -2q-4 0 -13 -2t-14 -2q-18 -2 -26 -2q-9 0 -27 2q-12 1 -28 10q-26 -8 -52 -12q-25 -4 -57 -4q-17 0 -26 1q-10 1 -27 1q-10 0 -14 1t-15 1l-39 3q-13 1 -38 1h-12h-13q-5 0 -6 -1t-6 -1q-11 35 -19 74 q-8 40 -8 76q0 26 5 58q4 26 14 54q-9 32 -10 52q-3 24 -3 49q0 31 3 60q4 38 7 59q2 10 4 29t4 29q3 28 3 58q0 32 -4 60q-5 34 -17 63v4v4v2v4q0 12 -2 38q-1 7 -2.5 19.5t-1.5 18.5t-2 18t-2 18q-2 22 -2 36q0 16 1 25q2 16 5 24q0 4 7 23q5 12 12 24q-19 35 -21 75 q-1 15 -1 45q0 24 1 36v5v7v13v12v16q0 6 -2 16q0 9 -1 15q-1 5 -1 16q0 9 3 20q4 12 5 17t5 22q3 10 3 21q0 9 -3 20q-3 10 -13 17q0 5 1 8t1 10q2 6 2 9v8q0 13 -1 20l-3 21q0 5 -2 17q0 3 -1.5 9.5t-2.5 10.5q-3 11 -7 40q-3 19 -3 37z" />
<glyph unicode="J" horiz-adv-x="1255" d="M58 488l3 12q12 7 20 8q12 2 17 2q7 0 21 -2q9 -1 20 -6q3 0 4 -1t7 -1q8 -3 24 -7q11 -4 27 -4h1h3h3h1q9 3 30 5h29h22h23q14 -2 22 -2h23q63 34 102 93q41 64 68 122q6 14 10 21q2 4 5 11t4 11l12 24q8 16 12 25q0 6 -2 20t-2 21q-3 25 -7 72q-4 48 -5 73q0 24 -1 37 q-1 12 -1 37q0 46 4 79q5 40 12 70q-15 18 -20 38q-7 25 -8 42v11v8q0 11 1 16t1 16q0 6 1 9t1 10q0 16 1 25q1 8 1 24v7v5q-2 6 -2 8v5q1 2 2 8t1 8q1 6 -1 16q0 14 -1 21t-1 20q0 14 -1 22q-1 7 -1 21q2 28 9 50t32 34h6l6 2h5h5q20 0 39 -3q23 -4 37 -7q13 -3 34 -7 q16 -3 34 -3q13 0 18 1q8 1 18 3q6 4 18 7q10 3 17 9q6 0 9 1t10 1q6 2 8 2h8q8 0 24 -2q3 0 11 -1.5t12 -2.5q8 0 11 -1t10 -1q14 -3 37 -7q18 -3 36 -3q15 0 22 1q12 2 19 5q2 0 6 2t6 2t5 2t4 2q14 -2 21 -2h20q25 0 48 -5q20 -4 28 -34v-13v-13q-2 -8 -2 -13v-14 q0 -44 3 -87q4 -58 5 -87q2 -18 2 -29q0 -12 2 -30q0 -9 1 -29t2 -29q1 -20 1 -59q0 -38 -1 -56q-2 -38 -5 -57q3 -8 7 -24q5 -22 5 -23l3 -24q1 -9 1 -25t-1 -25q-1 -4 -2 -14t-1 -14q-2 -18 -6 -39t-6 -39q-10 -46 -13 -68q-6 -34 -6 -69v-23q0 -8 2 -22q-9 -16 -13 -32 q-6 -24 -7 -36q-5 -27 -17 -59q-12 -29 -49 -45l3 -15q1 -6 -1 -14q0 -39 -18 -73q-16 -31 -41 -64q-6 -11 -13 -19q-3 -3 -7 -10t-7 -10q-2 -2 -10 -16q-1 -2 -3.5 -8t-4.5 -9q-8 -8 -20 -14q-18 -8 -27 -13h-1h-1q-26 -12 -42 -22q-21 -13 -22 -41q-11 -6 -19 -13 q-14 -12 -20 -16q-3 -3 -9 -7t-9 -7q-22 -17 -47 -30t-55 -13h-12q-5 0 -15 2q-31 -42 -73 -53t-87 -15q-8 -2 -11 -2h-11q-6 -1 -35 -5q-18 -3 -35 -9q-36 5 -65 32q-29 25 -50 60q-2 3 -7 16q-5 12 -5 13q-8 8 -12 11t-10 11q-47 47 -86 101q-39 52 -48 116l-17 17 q-6 5 -17 16q-23 19 -38 37q-16 19 -16 40q0 13 1 18z" />
<glyph unicode="K" horiz-adv-x="1667" d="M76 1036v13q0 4 2 14q1 26 10 63q7 30 18 58q-15 27 -22 58q-6 28 -6 56q0 11 2 37q1 7 2.5 19t1.5 18v2v4q2 18 3 39q1 14 1 39q0 17 -2 43q-1 16 -10 39v7v5q5 27 14 43q11 21 29 33q10 2 16 2q5 0 17 2h8h8q24 0 47 -6q22 -6 35 -22q25 15 48 23q24 9 50 9q6 0 22 -2 q10 -2 21 -6q10 -18 22 -25q11 -8 23 -8q11 0 25 8q8 5 26 15q13 8 28 15q14 7 30 7h3h3h13h16h5h5h9h9q36 0 64 -6t39 -35q1 -2 2.5 -6t1.5 -5q2 -6 2 -9q2 -6 2 -9v-12q0 -4 -2 -18q-1 -4 -2.5 -10.5t-1.5 -7.5q-1 -5 -5 -17q-3 -11 -6 -18q-8 -24 -11 -36q-5 -22 -5 -38 q0 -17 7 -31q7 -15 24 -32q3 -3 5 -9q1 -4 1 -12v-5v-5v-5v-5v-6v-7q0 -12 3 -22t13 -19q26 11 42 28q17 17 30 36q20 25 38 43q20 20 52 29q28 55 77 100q47 43 109 67q5 30 30 55t59 27q8 -2 12 -2h12h13q4 0 14 2h12h12q23 0 41 -9q16 -9 21 -38q55 -5 97 -46t67 -91 q1 -2 8 -18q4 -10 6 -19q5 -4 17 -12q8 -6 18 -12q20 -15 35 -30q16 -16 16 -40v-3v-5q0 -29 -18 -46q-21 -19 -41 -34q0 -1 -2 -2l-2 -1q-3 -2 -3 -3q-1 0 -8 -5t-8 -5q-19 -1 -34 -13t-27 -24l-1 -1l-1 -1q-11 -10 -28 -23q-15 -12 -36 -12h-2q-6 -35 -30 -59t-54 -46 q-1 -1 -5 -3t-5 -3q-28 -22 -52 -46q-24 -22 -24 -58q0 -8 1 -12q1 -5 3 -13q0 -1 -1 -2.5t-2 -2.5t-1 -2q-2 -4 -2 -7q-2 -6 -2 -7v-7q0 -6 1 -9q1 -4 3 -10q0 -2 2 -6t2 -6t2 -6t2 -6q8 -16 11 -25q4 -12 4 -29v-3v-3q-2 -2 -2 -3v-3q6 -10 15 -13t21 -3h6h5h5h5 q8 0 18 -2q8 -2 15 -9q22 -16 35 -23q24 -14 36 -20q2 0 4 -2t4 -2q1 0 2 -1t2.5 -2t2.5 -1q23 -11 56 -31q27 -19 46 -41q1 0 7.5 1.5t10.5 2.5q6 1 17 1q19 0 37 -8q17 -9 18 -31v-5v-8q0 -16 -4 -29q-1 -6 -4 -16t-4 -16q-3 -6 -10 -28q-4 -13 -4 -29q0 -11 5 -24 q4 -12 15 -23q7 -8 8 -17q2 -14 2 -18q0 -12 -3 -24q-3 -14 -7 -23q-6 -13 -9 -22q-3 -10 -3 -21q0 -9 4 -17q5 -10 12 -18l2 -4t1 -4q1 -3 1 -9q2 -6 2 -8v-8q0 -15 -4 -27q-6 -18 -10 -26q-1 -3 -3 -7l-3 -6q-5 -11 -6 -21q-2 -14 -2 -22q0 -5 2 -19q1 -10 10 -22v-3v-5 q1 -25 -17 -40q-14 -13 -37 -13h-6h-3h-5q-14 0 -26 3q-14 3 -23 7q-2 0 -6 2t-6 2t-6 2t-6 2q-3 0 -9 2q-4 1 -10 1q-7 -1 -21 -5q-14 -5 -24 -14q-11 1 -28 5q-20 4 -31 7q-48 13 -99 43q-48 27 -71 82q-83 0 -136 48q-53 47 -100 106l-7 7q-4 4 -5 7q-38 46 -57 67 q-28 31 -64 56q0 3 -2 7q-1 2 -6 7q-3 3 -4 5q-2 2 -2 4q-10 -4 -13 -11q-4 -7 -4 -16q0 -8 1 -11t3 -11q0 -8 1 -11q1 -4 1 -12q0 -6 -1 -9l-3 -9l3 -15q1 -5 1 -16q0 -18 -5 -36q-4 -15 -11 -34q0 -3 -1 -4t-1 -4q-3 -6 -10 -28q-4 -13 -4 -31q0 -3 1 -4q1 -2 1 -7v-4 q0 -1 1 -3t1 -3q0 -3 1 -5t1 -5q10 -7 13 -19t3 -24v-9v-10v-3v-1q-2 -8 -2 -12v-10v-3v-3q-20 -27 -53 -35q-35 -8 -68 -8h-15h-15q-7 0 -15 5q-7 4 -14 11l-1 1l-1 1q-6 8 -18 17q-11 6 -27 -1q-19 -27 -52 -36q-32 -9 -67 -9h-11q-3 0 -9 2h-11h-12q-5 1 -17 5 q-11 1 -18 6q-5 0 -7 1q-4 2 -7 3q-9 4 -27 10q-12 4 -28 4q-14 0 -27 -6t-27 -23q-6 -2 -9 -2h-9q-28 0 -50 15q-23 13 -28 37q2 16 2 24v23q0 25 -1 38q-1 7 -2 19t-1 19l-3 36q-1 11 -1 35q0 28 5 61q5 29 20 58q-14 53 -20 102q-7 49 -7 103v25v24q0 9 1.5 29t2.5 31 q1 10 2.5 30t1.5 29q5 44 6 83q2 54 2 79v5v5v5v5q-13 24 -17 48q-5 27 -5 50z" />
<glyph unicode="L" horiz-adv-x="1239" d="M55 1415q0 13 2 41q1 7 2.5 21t1.5 20q0 19 3 38q2 26 2 38v5v3q22 31 61 39q40 8 76 8h16h17q10 -2 16 -2h16q16 -10 25 -14q11 -6 26 -4h7h6q3 0 5 1q4 2 5 3q19 16 44 21q27 5 50 5q22 0 34 -1q22 -2 32 -5q6 -8 16 -14q7 -4 19 -4q6 0 9 1t11 3q6 1 11 5q9 6 10 7h4 h4h4h4h20h17q14 0 32 -5q14 -4 25 -23q0 -8 1 -13t1 -16v-4v-4q2 -24 3 -37t-1 -37q0 -29 -4 -52q-5 -30 -14 -50q11 -20 19 -50q7 -29 9 -57v-11v-11q0 -25 -4 -45q-5 -26 -14 -41q12 -51 18 -105q5 -62 5 -111q0 -27 -1 -40q-1 -14 -1 -41q-1 -29 -7 -82q-2 -14 -6 -41 t-6 -41q13 -13 18 -32q3 -19 3 -40v-12v-13q-2 -8 -2 -11v-11q1 -27 12 -48q11 -23 49 -30q18 -2 28 -2h25h19q4 0 18 2h18h17h18h17q5 0 16.5 -1.5t17.5 -2.5q15 -1 35 -8q18 8 37 11q21 3 41 3q21 0 32 -1q20 -2 30 -5q23 -23 29 -48q5 -28 5 -52q0 -11 -2 -33t-2 -33 q-1 -6 -2 -16t-2 -16q-2 -22 -2 -33q0 -9 2 -27q2 -14 6 -29q0 -8 1 -11t3 -11t4.5 -24t3.5 -23q3 -26 3 -50q0 -13 -2 -35q-1 -17 -9 -34q-7 -13 -22 -18t-31 -5h-11q-3 0 -9 2h-11h-10q-2 7 -6 11q-5 5 -6 8q-3 1 -7 3q-2 1 -7 1q-8 0 -16 -5q-9 -4 -17 -11q-9 -9 -17 -13 q-11 -6 -18 -6q-18 8 -33 11q-18 3 -35 3q-9 0 -29 -2q-6 0 -16 -2t-16 -2q-4 0 -14 -1.5t-15 -2.5q-22 -2 -30 -2q-18 0 -33 4q-18 5 -33 13q-3 -2 -16 -7q-7 -4 -15 -6q-11 0 -16 -1t-16 -1h-13q-6 0 -14 2h-7q-1 0 -7 2q-13 0 -19 1q-7 1 -20 1q-11 0 -16 -1 q-12 -2 -17 -3q-2 0 -8 -2q-1 0 -4 -2t-4 -2l-21 3q-8 1 -22 1q-19 0 -29 -1l-33 -3q-6 0 -9 -1t-11 -1q-13 0 -20 -1t-21 -1q-25 0 -50 5q-24 4 -47 20q-19 -12 -43 -18q-22 -7 -49 -7q-8 0 -24 2l-12.5 2.5t-10.5 1.5q-1 0 -4 2t-4 2t-4 2t-4 2q-14 6 -29 18 q-15 10 -16 25q0 44 -2 130q-1 22 -2.5 63t-1.5 59q-2 37 -3 72q-1 11 -2 35t-2 35q0 49 -1 74q-1 24 -1 73v57q0 18 2 54q-2 6 -2 8v6q0 9 5 21q7 16 8 18q7 16 8 18q4 7 4 17q0 5 -1 8q-1 1 -2 4t-1 4l-8 8q-4 3 -11 8q0 36 1 55q1 18 1 56q0 19 2 59q1 19 1 58v17v18 q0 81 1 120q2 75 5 111q-7 21 -12 46t-5 46z" />
<glyph unicode="M" horiz-adv-x="2080" d="M94 756q11 17 15 32q4 13 4 29q0 7 -2 21t-2 20q-1 4 -2 11t-2 10q-3 11 -3 18v6v4q0 17 2 51q1 15 5 50v17q0 7 2 17q0 22 1 34t1 34q0 29 -3 59q-5 30 -12 56l2.5 10t1.5 9q2 12 2 20q2 14 2 19v20q0 16 -2 46q0 7 -2 23t-2 23t-2 22t-2 23q-2 30 -2 43q0 35 9 69 q7 31 32 64q10 10 22 13q11 3 19 3q11 0 24 -5l21 -9q3 -1 7 -3t5 -3q11 -5 20 -6q12 -2 19 -2q9 0 22 5q10 4 21 17q34 -4 100 -10q43 -4 93 -4q30 0 44 1t44 3q22 2 45 6q8 2 22 4.5t21 3.5l12 3q4 1 13 1q26 -1 43 -21q15 -18 28 -42q2 -3 4 -8t4 -7q5 -13 7 -16l3 -3 q1 -1 1 -3q5 -43 26 -61q19 -19 47 -37l1 -1q1 -1 4 -1q21 -13 44 -34q22 -20 29 -54q10 -1 19 -6t16 -11q2 0 3 -1t3 -1q14 -8 26 -14q13 -6 30 -6q6 0 9 1t11 3q12 26 29 40q18 17 39 33q29 24 50 48q23 25 23 63q4 7 14 21q7 9 13 22q23 33 42 55q19 23 48 41 q19 -9 30 -10q18 -2 27 -2t29 2q4 0 14 1.5t15 2.5q4 0 14 1.5t15 2.5q18 2 28 2q9 0 14 -1t15 -1q6 -2 7 -2t7 -2q3 2 11 5q5 1 12 3q8 2 11 2h11q16 0 31 -3q29 -6 31 -7h1q1 0 1 -2q14 -2 29 -6q12 -4 28 -4q20 7 36 11q26 6 40 7q8 2 13 2h13q22 0 39 -4q21 -5 33 -14 q20 -51 27 -117q6 -67 6 -137v-24v-25q0 -44 1 -67q1 -31 3 -64q-1 -4 -5 -12q-3 -8 -3 -13q-2 -10 -2 -14v-12q0 -17 3 -33q4 -22 5 -33q5 -17 6 -32q2 -22 2 -34v-4v-4q0 -1 -1 -3t-1 -3v-4v-3v-5q0 -19 1 -28q2 -15 3 -27q1 -4 2 -14t1 -14q1 -10 1 -30t-3 -37 q-3 -18 -13 -34q6 -7 9 -15t3 -16q0 -5 -1 -8t-1 -9q0 -3 -1 -4l-1 -2q0 -8 -1 -12t-1 -12q0 -4 2 -12q1 -3 2.5 -7t1.5 -6q11 -26 18 -55q8 -32 9 -64v-9v-11q0 -27 -6 -52q-8 -29 -23 -46q3 -13 9 -41q5 -22 12 -41q2 -10 7 -31t8 -31q7 -29 7 -61q0 -11 -1 -17 q-1 -11 -3 -18q0 -11 -3 -18q-4 -12 -7 -19q15 -22 25 -47q10 -26 10 -55q0 -7 -2 -21q-3 -14 -7 -22q-11 -6 -23 -9q-10 -4 -22 -6q-9 -4 -21 -4h-24q-11 0 -37 2q-6 0 -20 1.5t-21 2.5q-12 1 -38 5q-28 2 -41 2h-3h-4q-26 -6 -46 -9q-19 -4 -44 -4q-27 0 -54 3 q-37 4 -60 5q-3 0 -5 1q-3 1 -6 1h-5h-5q-8 0 -30 -2q-5 0 -16 -2t-17 -2q-6 -2 -8 -2q-3 0 -11 -2l-24 -3q-9 -1 -25 -1q-27 0 -49 13q-22 12 -33 44q2 24 3 37t1 39q0 19 -1 30q-1 10 -1 32q-2 24 -2 39q0 13 -2 41v22v25v23q0 8 2 22q0 23 3 46q4 30 7 44q-10 11 -13 32 q-3 19 -3 37v12v11q0 35 -6 60q-6 24 -41 24h-3h-3q-1 -4 -6 -7q-1 -1 -3.5 -2.5t-3.5 -2.5q-17 -18 -41 -36q-23 -16 -51 -16q-3 -4 -7 -12l-7 -14q-20 -39 -51 -72q-28 -31 -73 -31h-5h-4h-4q-31 18 -51 38q-8 8 -23 22t-23 22q-3 3 -4 5l-4 4q-30 31 -55 54t-68 44l1 1 q1 1 4 1q5 5 7 8q3 5 3 8v2q-6 5 -11 3q-4 -1 -10 -3q-7 -4 -14 -4q-6 0 -12 11h-3h-3q-14 0 -20 -11q-7 -11 -7 -28v-4v-5q0 -3 1 -4t1 -4v-4v-4v-4v-4q0 -21 1 -32q1 -6 2 -17t1 -17t1 -16t2 -16q1 -11 1 -33q0 -10 -2 -32q-1 -16 -8 -32q2 -8 3 -13t1 -15q4 -13 6 -27 q0 -4 1.5 -14t2.5 -15q4 -29 12 -85q5 -47 5 -83q0 -27 -3 -54q-6 -35 -10 -54q-17 -20 -38 -27q-24 -8 -48 -8h-13q-5 0 -13 2q-14 1 -40 7q-16 4 -36 11q-2 2 -6 4t-5 3q-6 2 -10 2q-2 0 -8 -2q-1 -1 -4 -2t-4 -2q-2 0 -3 -1q-2 -2 -3 -2q-4 -1 -12 -5q-7 -3 -15 -3h-5 q-1 0 -7 2q-26 0 -39 -1l-39 -3h-9h-9q-17 -1 -49 -3q-17 -1 -50 -1h-27q-10 0 -28 2q-42 22 -58 52q-16 27 -14 61q0 18 4 35q4 24 5 37q5 19 6 42q2 28 2 44q0 13 -1 18q-2 7 -3 18q0 7 -3 18q-3 8 -8 17q-4 22 -6 43q-2 26 -2 39q0 24 3 50q4 33 5 46q2 28 6 57 q3 27 3 54q0 26 -5 59q-7 34 -16 58z" />
<glyph unicode="N" horiz-adv-x="1662" d="M51 1526q0 14 6 27q6 12 15 24q2 1 4 4t4 5q4 4 6 9q15 9 33 16l33 9q11 0 16 1t16 1q27 0 57 -8q27 -8 54 -21q17 20 38 27q21 6 48 6h13q4 0 14 -2h14q4 0 12 -2q10 0 15 -1q4 -1 12 -1q3 -4 9 -10q4 -4 11 -6q3 -3 10 -5q6 -2 9 -2q10 0 20 6l21 9q2 1 23 10q9 4 22 4 q8 0 15 -3t15 -9q4 -3 12 -7q3 -2 11 -8q38 -28 71 -67q31 -38 31 -86v-1v-3v-3v-1q2 -2 15 -8q10 -6 14 -9q35 -21 68 -57q29 -34 34 -78q24 -11 41 -24q22 -20 33 -29l5 -5l5 -5q11 -10 28 -23q15 -13 30 -20q16 17 22 39q6 19 6 41q0 9 -2 27q0 4 -1.5 13.5t-2.5 14.5v1 v3q-2 13 -3 30q-1 10 -1 29q0 12 2 30q1 10 10 28q-12 22 -15 47q-4 31 -5 51q0 11 -1 18q-1 6 -1 17q-2 8 -2 12t-2 12q31 24 74 35q39 10 86 10q32 0 70 -5q33 -4 65 -15h1h3h3h1q16 0 24 1q7 1 21 1q4 0 12 2t12 2q3 0 11 1.5t12 2.5q15 1 47 5q22 3 47 3h20q7 0 17 -2 l4 -4l4 -4q1 -4 5 -6l4 -4q5 -6 6 -10q2 -6 2 -11v-5v-7q0 -11 1 -18t1 -19l2.5 -10t1.5 -9q1 -3 2 -9t2 -9q1 -12 5 -36q3 -19 3 -35q0 -18 -6 -36q-5 -16 -20 -34q1 -11 5 -33q4 -24 7 -35q0 -8 1 -13t3 -13q3 -17 7 -49q3 -25 3 -47q0 -33 -7 -58q-7 -28 -24 -55 q10 -24 14 -36q6 -27 7 -38q3 -12 5 -38q1 -13 1 -38q0 -20 -2 -58q-1 -10 -2.5 -29.5t-1.5 -28.5q-5 -31 -6 -60q-2 -40 -2 -61v-6v-6v-7v-8q-6 -1 -9 -6l-6 -6q-1 -3 -3 -7q-1 -2 -1 -7q0 -7 5 -15l4 -8l4 -8q2 -9 6 -16q4 -8 4 -17q1 -8 3 -26q2 -20 3 -29q1 -2 2 -8 t1 -8q1 -6 1 -19q1 -9 3 -29q1 -11 1 -30q0 -35 -7 -63q-8 -30 -28 -58q11 -24 22 -58q8 -28 13 -65v-11v-12q0 -34 -7 -61q-8 -29 -24 -53q-18 -15 -37 -19q-23 -6 -44 -6h-12q-5 0 -13 2q-10 0 -14 1q-8 2 -13 3q-13 13 -24 17q-12 4 -27 4q-14 0 -32 -5q-16 -4 -33 -12 q-24 -8 -35 -11q-18 -5 -33 -5q-19 0 -35 9q-18 9 -35 32q-7 13 -20 26q-4 4 -12.5 11.5t-12.5 11.5q-2 0 -3 1t-1 3q-23 18 -41 41t-18 60q-53 22 -86 62q-30 36 -55 81q-28 44 -54 80q-29 38 -84 61q-12 26 -34 42t-52 16q-15 -25 -20 -61q-4 -31 -4 -68v-5v-8v-5v-5 q0 -33 -3 -62q-3 -31 -16 -57q16 -36 23 -55q10 -27 10 -57q0 -14 -3 -27t-9 -27q5 -11 6 -19q2 -12 2 -20q0 -13 -4 -22q-5 -12 -14 -21q-8 0 -11 -1q-4 -1 -10 -3q-3 0 -8 -1t-8 -2q-12 -2 -17 -3l-27 -3q-9 -1 -26 -1q-27 0 -48 7q-25 8 -44 24q-16 -16 -34 -22 q-17 -7 -40 -5h-16q-5 0 -17 2h-18h-16q-11 0 -17 -1q-3 -1 -10 -2t-10 -1t-8 -1t-8 -2q-6 -1 -15 -1q-10 -2 -16 -2h-17q-31 0 -65 8q-31 7 -58 29q-7 21 -12 49q-4 23 -4 51v13q0 4 2 12q1 24 9 50q8 25 18 44l-12 63q-5 22 -11 64q0 5 -1 16t-2 16q-1 10 -1 31q0 33 5 73 q4 35 20 71q-13 28 -21 62q-9 37 -10 65v13v13q0 45 7 83t15 73q-2 8 -3 11t-1 10q-6 32 -12 60t-6 54q0 11 1 16t1 15q1 7 7 30q2 7 13 31q-15 29 -20 55q-6 27 -6 54q0 12 2 42q2 21 6 42q0 6 1.5 20t2.5 22q2 28 2 42q0 31 -8 65q-7 29 -31 58z" />
<glyph unicode="O" horiz-adv-x="1939" d="M88 727q0 29 3 58q4 38 7 59q1 21 5 58q3 28 3 56v14q0 5 -2 15q0 11 -1 16t-1 13q9 16 19 37q9 22 14 39q2 2 2 4t2 4q14 40 33 74q17 32 53 59q12 46 41 80q25 30 64 63q7 7 21 19q14 10 22 18q32 1 58 24q25 22 44 48q8 10 13 15q8 10 12 16q27 27 61 33q44 6 68 7 q43 5 75 13q35 8 62 41q29 0 52 4q29 5 46 10q4 0 11 2t10 2t10 2t10 2q4 0 12.5 1.5t13.5 2.5q18 2 27 2q21 0 38 -4q24 -6 40 -14q5 1 17 3q5 1 16 1q8 2 15 2h16q54 0 103 -18q53 -21 91 -49q6 0 9 -1q6 -2 8 -2q6 -2 9 -2t11 -2q34 -5 73 -20q35 -13 52 -57 q79 -12 138 -70q58 -58 87 -131q53 -43 93 -106q38 -59 38 -126v-10v-11v-11q0 -8 -1 -11l-3 -12q24 -42 35 -94q10 -47 10 -102q0 -27 -1 -41q-2 -21 -3 -39l-3 -24q-1 -9 -3 -25q-1 -2 -2 -8t-1 -8q-1 -6 -1 -17q-36 -20 -43 -53q-9 -38 -10 -68q-1 -6 -2.5 -18t-1.5 -17 q-1 -17 -8 -35q-20 -20 -32 -33q-24 -26 -36 -38q-30 -31 -52 -50q-30 -26 -57 -41q-35 -68 -100 -115q-64 -48 -137 -75q-3 0 -9 -2l-12 -4q-6 2 -9 2h-9q-17 0 -34 -9q-5 -3 -17 -10t-17 -10q-1 0 -3 -2t-3 -2l-10.5 -7t-11.5 -7q-11 -7 -23 -8q-6 -1 -16 -2t-16 -2 q-22 -4 -33 -7q-18 -3 -60 -7q-40 -4 -61 -7q-21 0 -31 -1q-11 -1 -33 -1q-19 0 -28 1q-15 1 -27 3q-15 0 -28 3q-20 4 -29 5q-18 14 -39 18q-28 4 -43 5q-16 0 -24 1q-17 2 -25 5q-4 1 -14.5 3.5t-16.5 4.5q-6 1 -17 4t-16 4q-2 2 -5 2h-5q-45 12 -102 34q-49 19 -78 71 q-109 22 -165 103q-57 79 -97 173q-1 2 -8 18q-6 12 -9 17q-14 31 -27 60q-12 26 -30 55q-18 34 -24 69q-7 31 -7 68zM741 741q0 -59 17 -118q16 -58 65 -101q12 -2 24 -6q14 -6 21 -10q22 -8 34 -11q18 -6 36 -6q8 0 18 3q3 1 9 2.5t8 1.5q64 14 101 63q38 51 59 105 q7 18 12 36q1 6 4 17t4 16q0 19 1 30l3 30q0 21 1 32q2 20 3 31v17v16q0 45 -6 86q-6 40 -29 74q-16 6 -27 17q-10 9 -22 24q-2 0 -2 1v1q-13 17 -31 32q-17 13 -45 13q-1 1 -5 3q-2 1 -5 1h-1h-1q-4 3 -12 7q-5 3 -12 11q-62 -12 -109 -46q-51 -35 -94 -83l-3 -15 q-1 -5 -1 -16v-12q0 -4 2 -12v-17v-18v-15q0 -8 -4 -16q0 -7 -2 -25q0 -4 -2 -14t-2 -14q0 -9 -1.5 -27t-2.5 -28q-3 -29 -3 -60z" />
<glyph unicode="P" horiz-adv-x="1624" d="M74 125q0 13 1 19q1 2 2 8t1 8q7 15 8 29q2 18 2 28q0 17 -1 26l-3 27q-1 8 -3 26q-1 9 -1 26q0 20 4 37q4 18 12 36q8 6 12 13q3 6 3 14t-4 15q-6 10 -7 16q-6 7 -9 17q-3 9 -3 17l-3 45q-1 15 1 41q0 45 3 90q4 58 5 87q5 44 6 85q2 56 2 85q0 40 -3 81q-3 42 -13 78 q5 18 6 37q2 26 2 33q0 11 -2 37q0 6 -1.5 18t-2.5 19q-1 5 -3 17q-1 6 -1 17t-1 18q-1 6 -1 17t1 18q1 6 1 17q6 22 10 34q5 14 17 36q-10 35 -13 57q-6 28 -6 59q0 9 2 35q1 7 2.5 19t1.5 18q20 23 47 38t58 15h8q2 0 8 -2q5 0 8 -1l9 -3q20 -15 48 -23q24 -7 52 -7 q33 0 67 8q29 7 60 20h22h23h6h8h15h14q43 0 83 -6q41 -6 73 -31q43 15 85 23q50 8 93 8h9h9q49 -1 100 -17q50 -17 84 -44l9 3q3 1 10 1h8h8q40 0 78 -23q35 -22 72 -53q5 -5 8 -7t8 -7q6 -7 14 -11q5 -4 13 -10q-2 -6 -2 -8v-8q0 -16 9 -25q9 -11 21 -18q3 -3 10 -8t10 -8 q9 -9 11 -23q55 -7 82 -50q27 -41 45 -89q3 -7 7 -19q5 -16 5 -18q1 -2 3.5 -9t4.5 -10q3 -12 7 -18q1 -11 5 -28q4 -19 5 -32q0 -3 1 -8t2 -8t2 -8t1 -8q1 -6 2.5 -16t1.5 -15q2 -22 2 -33q0 -27 -9 -53t-32 -49q0 -6 1 -9q1 -4 1 -10q2 -8 2 -11v-9q0 -60 -29 -118 q-27 -52 -65 -107l-2 -2t-1 -2q-2 -4 -3 -5q-21 -5 -32 -17q-13 -13 -21 -30q-1 0 -3 -2q-1 -1 -1 -4q-9 -15 -21 -28t-35 -13h-3q-1 0 -3 2h-3h-3q-12 -42 -45 -65t-69 -39q-1 0 -13 -5q-9 -4 -16 -5q-6 -5 -13 -6q-10 -4 -14 -7q-13 4 -39 10q-19 3 -39 3q-23 0 -48 -5 q-20 -5 -46 -14q-16 -6 -23 -9q-8 -3 -24 -11q-9 -1 -29 -3q-11 -1 -32 -1q-30 -1 -63 -8q-30 -8 -46 -35q-1 -4 -2 -14t-1 -14q-1 -10 -1 -32q0 -24 1 -37l3 -39q0 -24 1 -37t1 -38q0 -18 -2 -48q-1 -22 -8 -47q-6 -5 -18 -10q-11 -4 -21 -6h-7h-7q-14 0 -27 3q-18 4 -25 5 q-11 24 -21 31q-11 8 -24 8q-11 0 -24 -5q-2 -1 -25 -11q-16 -10 -25 -13q-13 -6 -28 -6q-5 0 -15 2q-9 2 -16 6q-5 0 -15 2q-5 1 -13 1q-10 2 -15 2h-16q-17 0 -49 -2q-35 -4 -49 -5q-3 0 -8 -1t-8 -2q-6 -1 -17 -1q-6 0 -16 -1t-16 -2q-11 -1 -34 -1h-17q-6 0 -18 2 q-13 0 -18 1q-7 1 -18 3q-15 14 -22 34q-8 16 -13 40q0 13 -1 19q-1 5 -1 16zM733 1018v-21q0 -8 2 -22v-11v-12q0 -21 1 -31q1 -11 1 -32v-12v-13q2 -23 14 -29q11 -6 25 -6h10q3 0 9 2h9h11h5h5l12 -3q6 -2 9 -5q0 1 1 2l2 2l2 2t1 2q28 39 54 87q24 46 24 96q0 20 -4 37 q-4 18 -15 36q-11 42 -39 70q-31 29 -71 41q-43 -37 -55 -83q-13 -45 -13 -97z" />
<glyph unicode="Q" horiz-adv-x="1826" d="M84 1114q6 29 24 50q15 18 37 38l1 1l1 1q26 26 43 47q19 22 19 60q22 57 65 84q46 29 86 49q3 0 4 1l3 1q43 20 74 40q34 21 61 58q2 2 8 4t8 4q5 3 17 9q19 12 42 21q18 8 44 13l15 3q5 1 15 1q14 0 31 -5q14 -5 29 -15q33 29 79 39t93 12h8h8q31 0 47 -1q30 -2 43 -3 q17 -2 30 -3q9 -1 28 -1h3h3q10 0 17 -4q8 -4 13 -10q2 0 2 -1t2 -1q7 -7 16 -11q9 -6 19 -6q10 2 15 2h12q69 0 122 -36q57 -41 99 -80q44 -38 66 -55q33 -28 69 -44q8 -8 12 -11l11 -11q36 -36 68 -83q30 -47 30 -102v-2q63 -57 91 -136q28 -78 28 -163q0 -43 -8 -93 q-7 -42 -25 -87q0 -8 1 -11t1 -9q2 -6 2 -9v-12q-1 -59 -28 -111q-25 -48 -62 -94q0 -4 -2 -12t-2 -10t-2 -8t-2 -8q-2 -12 -2 -15q0 -5 1 -7t1 -7q0 -1 1 -2.5t2 -2.5t1 -2l4 -8q11 -14 27 -20q17 -6 35 -6q10 0 19 3q12 4 17 7q1 1 5 3q1 1 6 3l4 4q3 3 6 4t9 5q6 2 9 2 q2 0 3 -1q2 -2 3 -2q3 0 5 -1q0 -1 2 -2l2 -1q15 -15 19 -33q5 -22 5 -42q-2 -25 -6 -48q-8 -40 -8 -42q-9 -6 -16 -17q-8 -11 -9 -20q0 -6 -1 -9q-1 -4 -1 -10q0 -8 2 -24q1 -13 6 -25q1 -5 5 -20q2 -14 2 -21q13 -19 17 -38q5 -23 5 -44v-11v-9q-6 -34 -11 -51 q-7 -23 -15 -46q-6 -4 -11 -6q-2 -1 -5.5 -2.5t-4.5 -1.5q-6 -2 -9 -2h-11h-7h-8q-6 2 -7 2h-7q-6 0 -16 -2q-7 -1 -19 -10q-76 7 -145 30q-69 21 -129 62q-8 0 -13 1q-2 1 -8 2t-8 1q-8 0 -12 1t-13 1q-50 5 -112 17q-57 11 -103 39q-35 0 -78 5q-27 3 -79 11q-8 3 -25 5 l-27 3q-18 1 -52 5q-25 3 -52 3h-21q-8 0 -22 -2l-9 3l-9 3q-4 2 -14 6t-14 6l-30 9q-145 53 -272 121q-130 69 -219 207q-90 127 -103 263q-11 110 -11 213q0 43 1 64v47v45q0 39 -1 59q-1 10 -2 29t-1 29zM664 717q5 -38 16 -71q12 -34 27 -66q0 -1 1 -2l1 -3 q18 -44 20 -48q9 -20 16 -48q29 -23 64 -32q27 -7 57 -7h13q13 0 39 2q6 0 18 2t18 2v4v3q-2 2 -2 3v1q0 18 12 30q7 7 23 21q18 14 25 22q10 10 10 31v4v4q0 3 -1 4t-1 5q34 38 48 78q13 39 13 83q0 27 -5 64q-3 26 -11 65q-1 6 -5 35q-4 27 -5 37q-2 22 -3 34q-1 11 -1 34 q-33 43 -73 83q-30 30 -79 70q-13 -13 -31 -23q-16 -10 -39 -16q0 -2 -1 -2h-3q-24 -10 -58 -31q-28 -18 -34 -57q-33 -28 -42 -63t-9 -74v-20q0 -9 2 -19v-20v-21q0 -28 -4 -49q-5 -26 -16 -49z" />
<glyph unicode="R" horiz-adv-x="1675" d="M76 147q0 25 5 57q3 18 11 54q6 32 12 60q5 32 5 57q0 17 -1 26q-1 13 -6 25q-1 8 -7 26q-3 9 -13 25l-3 15q-1 4 -1 12q0 16 6 31q6 14 14 28q1 4 7 14q1 3 4 8t4 7q2 8 3 11t1 11q0 6 -1 9t-1 8q-8 14 -10 16l-5 5l-6 6l-6 6q0 24 -1 36q-1 11 -1 33q0 24 -1 36 q-1 11 -1 34q0 48 8 99q7 46 35 91q5 14 0 23q-6 10 -12 16l-3 3q-1 1 -3 1l-9 12q-6 5 -8 13q0 6 1 9t1 11v10v9v19q0 6 -2 18v10v8q0 19 -1 29q-1 9 -1 26q0 32 8 66q7 31 33 49v1v3v3v1q0 14 -8 25q-7 10 -21 18q-3 1 -7 5t-7 5q0 11 -1 17q-1 5 -1 16l-3 33q-1 11 -1 33 q0 13 1 19t3 20q0 8 3 18q3 12 7 19l3 3q1 1 1 3q14 14 36 31q20 14 42 14q4 0 14 -2q8 -2 15 -6q7 -9 12 -10q6 -3 12 -3q7 0 18 6q8 4 15 11l2 1q2 1 2 2t2 2l2 1q4 3 12 7q4 3 9 3l57 3q18 1 56 1q45 0 91 -8q43 -8 78 -33q17 20 37 30q22 9 43 15q6 2 10 3q3 1 11 3 q0 -5 -1 -6q-1 0 -2 -2l-1 -2l-3 -6q-1 -1 -1 -6v-2q8 1 26 5q16 3 25 7q6 2 17.5 4.5t16.5 3.5q15 4 35 4q13 0 20 -1q12 -2 17 -5q8 -13 18 -17q10 -5 17 -5q11 0 22 4q14 6 21 10h1h1q4 2 12 4t12 4q9 4 21 4q13 0 20 -1q6 -1 19 -1q10 -2 16 -2h15q61 -5 109 -20 q52 -17 71 -72q6 -2 7 -2h5q9 0 16 4q12 7 13 8q5 2 9 6q5 3 10 5q46 -5 72 -31q29 -30 46 -57l3 -3q1 -1 1 -4q12 -17 38 -47q19 -22 50 -30q6 -17 16 -31q7 -11 23 -33q9 -13 27 -41q12 -22 12 -45q0 -11 -5 -24q-4 -12 -19 -25v-1v-3v-3v-1q0 -13 8 -18q10 -6 18 -7h2 q4 -1 14 -5q6 -2 11 -11q10 -21 13 -47t3 -50q0 -47 -12 -92q-11 -42 -29 -84q-1 0 -5 -2t-7 -2q-5 -4 -15 -14q-7 -7 -9 -19q0 -5 1 -8q1 -1 2 -4t1 -4q8 -8 11 -17q3 -10 3 -20q0 -14 -9 -29q-8 -14 -20 -30l-4 -4l-4 -4q-10 -11 -19 -25q-9 -11 -14 -27q-27 -24 -53 -35 q-31 -13 -59 -20q-4 -1 -10 -3l-9 -3q-3 -1 -11 -3.5t-12 -4.5t-12 -4t-12 -4q-3 -1 -5 -5q-1 -3 -1 -8v-3v-3q0 -3 1 -5q1 -3 -1 -5q13 -26 36 -34q16 -6 46 -11q14 -1 40 -7q19 -4 34 -24q20 23 48 35q27 12 58 12q14 0 22 -1q14 -2 21 -5q9 -11 14 -28q3 -16 3 -35v-12 q0 -7 -3 -13q0 -8 -2 -24q-1 -5 -2.5 -13t-1.5 -12q-8 -8 -11 -18q-3 -11 -3 -21q0 -12 3 -24q3 -16 7 -25t7 -25q3 -14 3 -26q0 -13 -4 -24q-5 -15 -14 -25q-1 -5 -6 -6q-6 -4 -10 -5l-13 -8q-6 -4 -6 -14v-4q0 -1 1 -3t1 -3q22 -13 33 -35q10 -20 10 -43q0 -10 -1 -15 q-2 -11 -5 -16q-20 -23 -53 -32t-68 -9h-16q-6 0 -16 2q-19 1 -57 7q-26 4 -52 11q-9 9 -18 13t-21 4q-6 0 -14 -2q-5 -1 -10 -6q-16 -9 -32 -13q-17 -6 -36 -4q-7 0 -21 2q-4 1 -11.5 2.5t-10.5 1.5q-25 7 -45 16q-30 12 -45 19q-8 7 -17 11q-16 7 -18 8q-2 2 -4 5t-4 4 q-1 1 -2.5 3t-3 4.5t-2.5 3.5q-22 24 -42 40q-24 20 -57 24q-3 2 -8 8t-7 8t-7 8t-8 8q-2 0 -2 1t-3 1q-28 30 -52 51q-28 23 -62 35q-19 -11 -23 -27q-7 -20 -8 -34q-1 -4 -2.5 -11.5t-1.5 -10.5q-1 -9 -8 -21q10 -13 15 -32q5 -22 5 -40v-9q0 -3 -2 -9q0 -8 -1 -11 q0 -1 -1 -5t-2 -5q-5 -15 -17 -24q-11 -9 -30 -19l-6 -2q-6 -2 -8 -2h-3h-3h-6h-5q-31 0 -58 6q-27 4 -50 29q-19 -9 -49 -16q-27 -6 -56 -6t-53 7q-28 8 -49 23q-2 0 -3 1l-1 1h-3h-3q-8 0 -16 -6q-8 -5 -15 -14q-8 -10 -13 -14q-7 -7 -18 -7h-7h-7h-7h-7h-11h-12 q-41 2 -78 15q-36 12 -53 53q-5 17 -6 32q-2 20 -2 29zM711 913q0 -1 5 -13t5 -13q4 -10 10.5 -29t9.5 -27q9 -29 7 -59v-11q0 -5 -3 -11q0 -8 -1 -11l-3 -12q-2 -2 -2 -5v-7q0 -15 15 -26q17 -13 30 -19q3 0 5 -1q1 -1 4 -1q11 -5 19 -10q3 -3 9 -7t8 -6q8 10 14 16l15 15 q8 6 11 9q1 1 5 4t5 5q25 22 45 48q20 25 20 59v3v3q-2 2 -2 4v4q9 19 11 31q4 17 5 28v2v1q1 7 7 30q4 14 12 31q-9 19 -14 51q-6 36 -7 55q-5 51 -14 88q-11 43 -51 68q1 4 1 5q-1 1 -1 3q-1 0 -2 2l-1 2q-1 1 1 5l-24 3q-9 1 -27 1h-9h-10q-25 -5 -45 -13 q-21 -10 -41 -30q-7 -1 -12 -8q-4 -7 -4 -13q0 -5 1 -7q2 -4 3 -7q0 -3 2 -7t2 -6l2 -4l2 -4l2 -4l2 -4v-36v-38q0 -34 -3 -65q-3 -35 -19 -62z" />
<glyph unicode="S" horiz-adv-x="1335" d="M61 348v5v5v17q0 6 2 16v17v16q14 20 37 28q22 8 45 9q6 0 9 1t8 1q11 0 16 1l15 3q1 -1 4 -2t5 -2q6 -2 9 -2q16 -8 25 -12q13 -8 20 -19q24 11 55 16q29 3 60 3q21 0 32 -1q20 -2 29 -2q21 0 32 -1q10 -1 30 -1h8q2 0 8 2h6h8q16 -19 37 -15q22 5 41 15q3 3 5 4 q4 2 5 3q7 4 16 6q2 1 7 2t8 2q11 9 16 16t11 21q0 5 1 8t1 8q0 3 -2 13q-2 6 -6 12q-17 19 -37 33q-3 2 -18.5 12.5t-24.5 15.5q-2 1 -4 2.5t-3 1.5t-4 2t-4 2q-24 14 -35 23q-15 10 -34 29h-3h-1h-3h-4q-38 0 -64 19q-32 22 -54 44q0 1 -2 3l-2 1q-48 42 -50 44 q-25 19 -59 24q-33 25 -52 58q-22 35 -34 65q-1 2 -2.5 5.5t-1.5 4.5q0 2 -2 4t-2 4l-15 33q-3 7 -16 30q-1 4 -5 12q-3 5 -3 11q-2 8 -3 11t-1 12q0 19 8 40q3 7 8.5 20t7.5 17h2v2q5 12 17 38q8 21 8 40v7v8q0 5 -1 7q-2 4 -3 7q22 108 110 194q87 84 191 117q13 -7 24 -8 q14 -2 19 -2q18 0 33 4q22 6 33 10l12 3l12 3q34 40 82 47q50 8 100 9q8 2 14 2h13q18 0 33 -7q16 -7 30 -18q26 30 63 41q34 10 75 10q25 0 38 -1t37 -3q16 -2 25 -3q8 -1 23 -1q11 -6 22 -18q11 -14 12 -27q5 -23 14 -39q10 -23 17 -41q16 -36 24 -53q11 -28 11 -59v-5v-8 q21 -20 28 -46q7 -25 7 -56v-8v-8q0 -5 -1 -8t-1 -9q-19 -13 -43 -21q-20 -7 -47 -5q-13 0 -20 1q-14 2 -19 3q-29 7 -40 11q-26 10 -38 15q-21 -11 -50 -16q-25 -4 -59 -4h-21q-8 0 -22 2q-11 0 -17 1t-18 1q-18 2 -26 3t-25 1q-3 2 -11 5q-3 1 -9 1q-11 0 -18 -6 q-9 -6 -17 -14h-1q-1 0 -1 -2l-15 -12q-7 -7 -18 -9q0 -1 -1.5 -4.5t-2.5 -5.5t-2.5 -5.5t-1.5 -4.5l-7 -14q-3 -8 -3 -15v-5q0 -3 2 -5q3 -3 4 -5q1 -1 2 -3t2 -3q20 -36 54 -46q46 -14 69 -19q38 -6 76 -21q37 -16 55 -63h4l6 2h4h4q58 -1 108 -44q48 -42 85 -91 q8 -14 10 -16q2 -4 5.5 -10t4.5 -7q-8 -11 -12 -18q-4 -8 -4 -17q0 -12 8 -20q9 -9 21 -17l3 -3l3 -3q4 -3 12 -10t12 -10q11 -11 11 -27v-2l3 -21q1 -8 1 -22q5 -26 6 -49q2 -34 2 -51q0 -48 -13 -90q-13 -43 -55 -72v-5v-7q0 -78 -49 -123q-52 -47 -110 -84q-1 0 -8 -5 q-6 -4 -9 -5q-15 -9 -45 -29q-15 -11 -43 -33q-2 0 -6 -2t-6 -2q-8 -2 -12 -2q-10 -2 -14 -2h-13h-13q-6 0 -14 2h-15h-13q-21 0 -41 -7t-37 -36q-34 0 -72 -5q-27 -4 -70 -11q-59 -9 -71 -11q-35 -6 -72 -6q-1 4 -5 10l-5 5q-1 1 -5 3q-2 1 -5 1q-7 0 -11 -4q-9 -7 -10 -7 l-2 -2q-4 -3 -12 -7q-6 -3 -12 -3h-2q-11 0 -16 -1q-6 -1 -19 -1q-22 -2 -35 -3t-37 -1q-29 0 -49 4q-25 5 -43 19q-6 13 -15 30l-9 13.5t-11 15.5q-11 18 -31 56q-16 28 -16 63v5v5q0 3 1 5t1 5q-41 17 -53 52q-13 35 -13 75z" />
<glyph unicode="T" horiz-adv-x="1306" d="M59 1223q5 14 10 32q3 15 3 29q0 11 -1 16t-1 15q0 5 -1 16t-2 16q-1 10 -1 29q0 10 2 34q1 15 10 34q-7 12 -9 20q-4 12 -6 19q-1 5 -3 17q-1 6 -1 20v13q0 5 2 15v14v15q25 25 63 36q42 12 77 13h7h7h11h10q29 -1 64 -8q32 -6 54 -16q22 16 49 21q28 5 52 5q23 0 44 -3 q27 -4 46 -5q15 -3 45 -7q22 -3 43 -3q14 0 22 1q14 2 19 3q16 10 32 13q15 3 29 3q16 0 34 -3q27 -5 36 -7q17 -6 34 -9t35 -3q13 0 18 1l15 3l4 -4l4 -4q8 -7 17 -11q7 -6 18 2q11 24 25 31q14 8 29 8q6 0 20 -2q4 0 10 -2t10 -2q6 -2 10 -3q3 -1 11 -1l15 -3q5 -1 16 -1 q8 0 11 1t11 3q4 1 12 5q1 1 5 3t6 4h8q2 0 8 2h8h9q22 0 43 -8q20 -8 22 -37q0 -24 1 -37q2 -26 3 -38q0 -26 1 -39t1 -37q0 -36 -6 -71q-6 -36 -25 -66q2 -7 6 -11q4 -8 7 -12q8 -14 14 -26q6 -15 6 -31q0 -5 -1 -8t-1 -9l-2 -4l-2 -4q-1 -3 -6 -8q-19 -11 -43 -18 q-27 -10 -49 -11h-8h-9q-20 0 -38 6q-17 4 -35 17q-19 0 -39 -9q-17 -9 -35 -24q-1 -11 -7 -33q-6 -24 -9 -35q-2 0 -2 -1v-3q-8 -24 -11 -35q-6 -18 -6 -36q2 -14 6 -27q6 -17 13 -29v-5v-5v-6v-6v-16q0 -7 2 -15v-16v-17q0 -27 -4 -47q-4 -21 -21 -41q16 -21 22 -47 q5 -27 5 -51q0 -11 -2 -33q-2 -24 -2 -37q-2 -8 -2 -12q0 -6 -3 -12q0 -16 -1 -23q-1 -8 -1 -24v-17q0 -6 2 -20q6 -32 9 -65q2 -44 2 -66v-16v-17v-8v-8q-2 -16 -2 -24v-26q0 -35 3 -68q3 -37 13 -69q3 -7 5 -22q1 -9 1 -25q0 -23 -6 -44q-6 -22 -22 -38q-7 -4 -17 -6 q-10 -1 -20 0q-16 0 -36 5q-12 3 -34 13l-36 12q-22 5 -36 5q-15 0 -29 -7q-16 -7 -32 -28q-3 0 -5 -1t-5 -1h-6h-7q-16 0 -31 3q-23 4 -32 5q-13 3 -34 7q-19 3 -36 3q-14 0 -29 -3t-30 -11q-3 0 -5 1t-5 1h-6h-7h-10h-10h-6h-4q-10 -2 -16 -2h-15q-25 0 -46 8 q-19 7 -24 35l-3 51q-1 17 -1 52q0 59 6 116q6 59 19 105q-13 19 -17 41q-6 22 -6 45q0 11 1 16t1 16q5 37 14 63q11 38 19 60v1v3v4v1q0 8 -4 15q-6 10 -10 15q-1 2 -8 15q-5 8 -5 16v2q0 4 -1 14t-2 14q-1 9 -1 27q0 25 3 49q1 11 8 48q1 17 5 49q3 24 3 49q0 23 -3 47 q-3 22 -14 47q2 8 3 11t1 12q2 8 2 11v11q0 29 -12 54t-43 32q-13 7 -24 8q-18 2 -25 2q-11 0 -18 -1q-14 -2 -19 -3q-10 0 -15 -1t-13 -3q-9 -1 -32 -5q-17 -3 -30 -3q-27 0 -46 15q-18 13 -26 55z" />
<glyph unicode="U" horiz-adv-x="1714" d="M78 827v22v23q1 38 8 88q5 33 14 84q-11 54 -14 74q-6 38 -6 74q0 37 7 68q8 34 22 63q-14 36 -20 76q-7 38 -7 84v25q0 8 2 26q0 16 1 25l3 24q0 1 5 8q2 3 7 8q2 3 19 20q10 9 22 7h3h3q6 -17 16 -21q9 -6 17 -6q2 0 10 2q3 1 9 1t9 1t11 1q3 0 13 -2q5 -3 10 -9 q24 24 53 31q30 8 59 8h13q4 0 12 -2q32 -1 70 -13q35 -11 63 -24q22 12 49 18q28 5 51 5h14q5 0 15 -2q11 0 16 -1t13 -3q9 -36 13 -61q5 -37 5 -68q0 -36 -8 -78q-7 -39 -29 -68q28 -27 39 -56q10 -29 10 -65q0 -19 -1 -28q-2 -20 -3 -29q-2 -10 -2 -15q0 -4 -2 -14 q-1 -17 -5 -44q-3 -21 -3 -42v-13q0 -5 2 -15q0 -5 2 -15q1 -3 2.5 -8t1.5 -6v-12v-12v-30v-32q0 -35 -7 -64q-8 -34 -32 -61q15 -29 23 -56q9 -39 14 -65q0 -3 1 -4t1 -4q12 -69 36 -121q24 -53 108 -53h1h3h3h1q37 16 43 43t6 57q0 17 2 43q1 18 14 37q-8 82 -11 114 q-6 72 -7 107v32v30q0 57 4 104q5 56 16 109q-11 17 -16 37q-4 16 -4 39q0 18 3 36q4 21 5 35q5 18 6 36q2 24 2 36q0 20 -4 37q-5 21 -14 35q3 12 5 35q1 12 1 36q1 29 8 61q6 26 39 46q5 4 13 7q6 3 12 3q6 2 10 3t12 1q14 0 32 -5q10 -3 32 -11q17 -9 29 -13q14 -6 28 -6 q17 0 30 10q12 8 25 29q6 0 18 -2t18 -2q24 -2 36 -2h3h3q11 -2 34 -4t35 -4q36 -5 64 -16q6 12 18 18q7 4 21 10q2 0 10 2q6 2 9 2q2 0 3 1t3 1h7h5h4h2q29 0 50 -10q22 -10 28 -37q1 -13 3 -41q1 -15 1 -45v-9v-9q-1 -36 -8 -81q-6 -39 -21 -71q23 -48 26 -102 q3 -55 3 -113v-16v-17q0 -14 1 -21t1 -22q0 -13 1 -20t1 -20q-10 -12 -15 -24q-5 -15 -5 -26q0 -8 1 -11t3 -11q2 -7 6 -11q2 -2 4 -6t4 -6v-6v-6v-7v-7q0 -21 1 -32q1 -5 2 -17t1 -17q0 -23 1 -34t1 -33q0 -41 -10 -74q-11 -36 -45 -64v-1v-1v-3v-3q0 -8 6 -15q4 -5 14 -11 q2 0 8 -2q3 -3 5 -3q2 -11 4.5 -32.5t3.5 -31.5q5 -35 6 -67q2 -16 2 -23v-22q0 -26 -1 -39q-2 -26 -5 -39q8 -22 21 -40q16 -28 24 -41q26 -50 38 -75q17 -39 17 -81q0 -11 -1 -17q-1 -3 -2 -9.5t-1 -10.5q-37 -24 -78 -31q-46 -8 -90 -8h-23q-6 0 -24 2h-12h-12 q-24 0 -36 1t-34 1q-19 0 -51 -2q-22 -1 -47 -8q-11 2 -21 6q-11 4 -24 4q-8 2 -11 2h-12h-9h-9h-5h-6q-8 -2 -13 -2h-13q-28 0 -51 10q-25 9 -39 41q-2 1 -15 8q-11 3 -18 3q-6 2 -8 2h-8h-12q-5 0 -13 -2q-4 -1 -12 -2.5t-11 -1.5q-8 -1 -22 -5q-10 -2 -14 -3 q-5 -1 -13 -3q-38 -33 -84 -45t-96 -12q-16 0 -25 1t-26 1q-52 6 -77 11q-50 10 -73 16q-8 1 -24 5t-25 5q-17 23 -39 35q-26 13 -51 20q-3 0 -4 1t-4 1q-32 12 -55 24q-28 14 -41 46q-15 16 -26 40q-13 26 -19 44q-10 26 -26 60q-14 27 -44 46q-1 15 -6 32q-2 5 -4.5 16 t-3.5 16q-10 44 -15 67q-8 35 -8 66q0 14 2 40q1 15 10 40q-12 43 -18 93t-6 101z" />
<glyph unicode="V" horiz-adv-x="1892" d="M86 1565q0 15 7 30q8 17 26 29q10 0 15 -1t16 -1h4h4q34 0 72 -5q32 -4 61 -28q28 16 64 24q32 7 71 7q40 -2 78 -9q36 -7 65 -24q16 15 43 26q27 10 50 11h8h8q19 0 28 -1q18 -2 27 -5q64 -17 86 -60q25 -49 37 -96q0 -5 1 -7t1 -7q12 -42 26 -73q15 -36 48 -60 q16 -12 22 -26q6 -13 13 -36v-1v-1q7 -24 20 -49q12 -23 49 -24q16 22 27 48q11 27 18 52q2 6 2 7q0 3 2 5q10 34 29 76q17 38 53 64q-2 10 -3 14t1 12q0 28 12 54q4 10 25 49q2 5 8 14t8 13q6 12 13 28q8 2 13 3t13 3q13 3 34 7q25 4 34 5q8 2 12 2h13q24 -2 43 -6 q22 -5 37 -16q6 6 16 12q7 4 16 6q6 2 9 2h8q11 0 16 -1t16 -1q5 -1 17 -3q5 -1 16 -1q7 0 21 2q10 1 18 8q6 2 7 2h5q9 0 20 -3q12 -4 19 -7q18 -10 36 -12q19 -2 32 20h12h12q26 0 50 -8q22 -7 30 -37v-5v-5v-5v-5q0 -74 -29 -146q-30 -70 -77 -131v-1v-3v-3v-1 q0 -32 -10 -58q-9 -24 -23 -54v-2v-3q-8 -14 -17 -37q-7 -18 -12 -40q-20 -11 -27 -29t-7 -39v-8v-10v-1v-4q0 -3 -1 -5t-1 -5v-5v-5l-15 -45q-9 -27 -14 -47q-1 -1 -3 -5q-1 -2 -1 -7q-19 -61 -38 -105q-23 -52 -69 -90q-4 -10 -1 -16q3 -8 7 -13q6 -6 9 -12q2 -7 -2 -16 q-1 -2 -49 -101q-8 -17 -25 -51t-25 -51q1 -17 13 -32q3 -5 10 -15t10 -15q3 -3 4 -5t4 -5q10 -11 19 -25q8 -14 8 -30q0 -6 -1 -9l-3 -12q-28 -33 -70 -56q-41 -23 -86 -23h-4q-2 0 -4 2h-6h-4q-18 -37 -49 -59q-42 -30 -64 -44q-3 -3 -5 -4q-4 -2 -5 -2q-18 -13 -32 -22 q-15 -10 -34 -25q-3 -2 -9 -4.5t-8 -3.5q-3 -1 -9 -4t-9 -4q-16 -6 -24 -10q-12 -7 -27 -9q-5 -3 -17 -5q-6 -1 -18 -1q-9 1 -29 7q-16 4 -30 20q-10 26 -29 59q-24 36 -37 53q-28 40 -55 89q-24 44 -24 100q-48 45 -79 104t-50 119q-42 36 -65 84q-26 53 -40 96q-2 2 -2 3 v3q-17 48 -41 101q-24 50 -69 84q-7 29 -21 59q-11 22 -31 53q0 2 -1 3l-1 1q-26 52 -38 78q-19 39 -21 86q-41 18 -58 53q-18 34 -30 74q-2 2 -2 3v3q-8 24 -13 35q-2 6 -8 17t-8 16q-5 19 -16 37q-18 24 -27 35l-2 2t-1 2q-2 1 -3 6q-17 18 -27 39q-12 20 -12 41z" />
<glyph unicode="W" horiz-adv-x="2965" d="M96 1550q1 13 8 32q4 14 19 24q12 3 37 5q12 1 39 1q26 0 56 -5q24 -4 48 -22q2 0 18 5q12 4 19 7q2 1 13.5 4.5t17.5 5.5q23 6 30 7t19 3q5 1 16 1q16 0 33 -3t31 -13q11 9 29 14q12 4 28 4q6 0 20 -2q3 0 9 -1.5l10 -2.5q4 0 10 -2t10 -2q13 -6 29 -9q12 -4 29 -4 q6 1 25 7q14 5 24 14h7h5q31 0 48 -21q18 -25 30 -47q0 -2 1 -2t1 -2q5 -9 17 -27q8 -13 18 -24q-2 -8 -2 -11v-9q0 -26 16 -43q12 -15 35 -35h1q1 0 1 -2q23 -19 37 -36q16 -19 16 -50v-1v-3v-3v-2q-5 -12 -6 -22q-2 -14 -2 -18q0 -26 15 -43q15 -18 32 -31l4 -4q2 -2 4 -2 q23 -19 37 -36q18 -21 19 -50q7 -4 15 -6q8 -3 11 -3q13 0 24 12q7 8 19 27q0 3 1 4t3 5q5 8 17 24q7 11 20 19q5 14 12 30q6 13 13 31q7 16 11 29q6 18 9 26q6 18 9 32q2 20 2 30q0 25 -7 43q-7 19 -28 41q5 11 6 17q2 10 2 15q0 17 -11 31q-11 12 -26 23l-3 3l-1 1 q-8 8 -22 24q-11 11 -11 25q0 8 3 17q4 10 10 16q13 5 36 10q20 5 37 6h12h9q32 0 55 -4q26 -5 41 -14q6 4 18 7q12 4 17 5q10 2 17 2h18q12 0 36 -2q5 0 17 -1.5t18 -2.5q17 -5 34 -6q24 -2 36 -2h13q4 0 16 2q3 0 8 2t7 2q3 1 7 2.5t6 1.5q6 -3 18 -5q5 -1 15 -1 q15 0 27 4q4 2 13 4.5t13 3.5q5 2 13.5 4.5t11.5 3.5q11 4 27 4q6 0 16 -2q9 -2 16 -6q40 -20 56 -54q16 -33 28 -71q0 -3 1 -4t1 -6q11 -34 25 -60q13 -30 43 -53q8 -13 11 -27q3 -17 3 -32q1 -28 11 -53q8 -26 45 -27h3h3h1h3q33 0 54 24q18 20 36 52q4 5 7 13t7 13 q6 8 9 13q2 2 4 6t4 6q4 6 10 19t10 20q10 18 21 39q3 3 5 6q5 7 5 8q24 46 37 69q24 46 35 70q17 20 42 29q27 8 52 8h13q5 0 13 -2q5 0 14 -2t14 -2q12 -1 26 -6q12 -17 26 -12q13 4 27 12q4 1 12 5t12 5h8q1 0 7 2h7h7q10 0 34 -2q22 -2 34 -2q5 0 16 -2t17 -2 q22 -2 32 -2q12 0 30 2q12 1 26 6q8 -7 15 -8q10 -2 15 -2q3 0 15 2q3 1 8 2.5t6 1.5q11 5 20 6q12 2 19 2h5q3 0 5 -2q3 0 5 -1t5 -1q8 0 13 -6q4 -5 4 -12q2 -2 2 -3v-1q1 -4 5 -10t7 -9v-4q0 -2 2 -4v-4v-4q0 -32 -16 -55q-11 -17 -35 -47l-2 -2q-19 -22 -35 -46 q-16 -23 -16 -55v-4q0 -2 2 -4v-4v-4q-25 -28 -37 -55q-17 -35 -27 -62q0 -2 -1 -3l-1 -1q-16 -41 -36 -82q-21 -39 -62 -68q-19 -128 -75 -241t-140 -211q-2 -28 -12 -53l-21 -54q-1 0 -2 -2l-1 -2q-1 -1 -1 -4q-12 -28 -21 -57q-10 -27 -10 -58q0 -17 5 -39q5 -20 20 -40 v-5v-8v-5v-5q-1 -22 -11 -41q-10 -18 -36 -18h-2q-20 0 -36 -12q-16 -13 -26 -29q-1 -1 -13 -8q-5 -3 -13 -11q-43 -25 -80 -44q-40 -21 -86 -27q-2 -2 -6 -4.5t-5 -2.5q-8 -6 -10 -8q-42 -25 -73 -42q-37 -19 -78 -19h-4h-5q-23 59 -51 120q-38 80 -59 119q-31 58 -60 120 q-32 66 -53 120q-28 39 -51 79q-24 39 -43 89q-43 -1 -61 -27q-19 -25 -33 -59q0 -3 -1 -4t-1 -4q-13 -31 -30 -55q-20 -28 -58 -35v-3v-1q0 -16 -8 -37q-9 -19 -19 -35q-9 -16 -18 -35q-9 -18 -9 -35q0 -13 7 -24q5 -12 20 -25v-6v-6q-2 -6 -2 -7v-8q-47 -26 -139 -78 q-75 -43 -135 -85h-6h-9h-11q-3 0 -9 2h-11h-12q-14 -1 -29 -8q-14 -8 -18 -29q-5 -25 -17 -37t-32 -27q-7 -2 -11 -6q-2 -2 -12 -8q-63 12 -82 58q-20 47 -30 100q-6 34 -10 52q-9 29 -19 46q-25 13 -31 40q-4 19 -10 54v1v3q-5 38 -14 63q-10 29 -51 42q-13 38 -33 76 q-26 48 -39 71q-1 0 -2 2l-1 2q-2 2 -3 6q-25 42 -56 109q-26 57 -32 123q-45 33 -66 77q-22 42 -39 89q-11 34 -22 62q-14 30 -33 57q-34 39 -54 86q-17 41 -36 94q-15 41 -43 104q-22 50 -64 92q0 5 -1 8q-1 2 -1 5l-3 15q-1 5 -1 13z" />
<glyph unicode="X" horiz-adv-x="2150" d="M96 1092q1 15 8 30q3 9 13 27q35 14 44 43q10 30 11 59q2 19 6 38t15 36q5 39 28 67q21 25 51 52l1 1l1 1q31 27 55 58q23 31 23 75v1v3v3v1q3 3 4 5q2 4 2 7q14 18 23 27q12 12 29 12h4h4q76 0 141 -27q65 -29 117 -69q62 -12 108 -52q50 -43 90 -85q0 -3 3 -4l4 -4 q6 -1 25 -7q8 -4 24 -10q22 -10 34 -14q16 -6 33 -6h8q1 0 7 2q5 0 7 1q4 2 7 3q20 38 40 69q14 22 44 68q24 34 35 52q11 17 33 53q21 16 48 22q26 6 52 6q21 0 31 -1q19 -2 28 -5q11 -14 22 -18q9 -4 21 -4q13 0 24 4q4 2 12 4.5t11 3.5q1 0 6 1.5t8 2.5t7 2.5t6 1.5 q24 -2 37 -3q12 -1 39 -1q49 0 90 -7q42 -7 74 -42l12 3l12 3l10 2.5t9 1.5q1 0 7.5 1.5t10.5 2.5q11 0 16 1t15 1q16 0 29 -3t24 -13q7 -15 8 -26q2 -18 2 -25q0 -39 -18 -75q-26 -48 -41 -71q-16 -24 -23 -35q-13 -20 -20 -36q-39 -41 -62 -91q-24 -51 -45 -102v-2 q0 -2 -2 -2q-19 -49 -52 -117q-31 -60 -85 -104q-6 -13 -9 -28t-3 -27q0 -42 27 -77q23 -31 59 -67q1 0 2 -2l1 -2q2 -2 3 -2q39 -39 64 -72q28 -37 28 -84q54 -40 88 -96q35 -58 56 -119q0 -3 1 -6q0 -1 1 -4t2 -4q57 -47 99 -92q45 -48 89 -101q8 -10 13 -14q4 -4 10 -14 l11 -11l9 -12v-3v-3q0 -17 -10 -28q-10 -13 -23 -17q-3 0 -4 -1t-4 -1q-11 6 -19 9q-15 4 -20 5q-7 1 -19 3q-6 1 -20 1q-19 0 -39 -3q-25 -4 -41 -5q-11 -3 -40 -7q-21 -3 -41 -3q-23 0 -40 4q-24 5 -42 14q-2 -1 -4 -2.5t-3 -1.5q-6 -2 -8 -2q-5 -3 -15 -5q-5 -1 -13 -1 t-11 1q-4 1 -10 1q-5 0 -6 1t-4 1q-11 0 -16 1q-6 1 -17 1t-16 -1q-14 -3 -19 -5q-17 11 -35 15q-17 4 -40 4q-11 0 -18 -1t-19 -1q-7 -1 -19 -3q-4 -1 -10.5 -2.5t-7.5 -1.5q-10 -1 -37 -5q-20 -3 -35 -3q-37 0 -65 21q-28 19 -39 80q-5 15 -17 34q-16 20 -24 29q-4 1 -6 5 q-2 3 -5 5q-4 5 -11.5 14.5t-8.5 11.5q-11 14 -18 28l-12 9q-5 3 -13 11l-1 1l-1 1q-4 4 -14 12t-14 12q-15 10 -34 9h-1h-3h-3h-1q-9 -17 -29 -47q-5 -8 -16 -22.5t-16 -22.5q-3 -3 -7 -9q-3 -6 -7 -10q-21 -27 -47 -67q-24 -37 -37 -76q-14 -24 -36 -31q-24 -8 -46 -8h-10 q-5 0 -11 2h-11q-3 0 -9 2q-8 0 -11 1q-4 1 -10 1q-11 0 -19 4q-9 4 -20 6q-10 6 -20 10q-10 3 -23 3q-5 0 -8 -1t-8 -1q-2 -1 -5.5 -2.5t-4.5 -1.5q-6 -4 -9 -7q-44 -5 -88 -6q-60 -2 -92 -2q-33 0 -103 2q-17 0 -52 2t-52 2q-24 2 -35 3q-12 1 -34 1q-15 5 -19 19 q-6 13 -6 31q0 8 2 18q1 2 2 8t2 8q41 20 65 54q27 41 44 73q18 35 44 72q23 36 68 55q6 14 18 34q12 24 17 36q1 2 2.5 6t1.5 5q1 3 7 9q28 62 61 114q33 54 88 91q2 5 6 16t6 16q11 28 13 32q18 42 26 65q9 24 11 53q0 8 -1 13q0 24 -9 50q-9 25 -34 48h-3h-1h-3h-3 q-36 0 -62 19q-27 17 -54 41q-27 22 -57 42q-29 19 -66 19h-2q-20 0 -41 -6t-39 -15q-10 -2 -21 -6q-12 -5 -22 -6q-5 -3 -18 -5q-7 -1 -21 -1h-12q-5 0 -11 2q-2 0 -6 2t-6 2q-6 2 -12 6q-2 2 -4.5 7l-3.5 7q-6 11 -7 13q-2 8 -3 13t-1 14z" />
<glyph unicode="Y" horiz-adv-x="1953" d="M88 1546q0 4 2 14q0 2 2 7t2 8q16 31 38 41q21 10 48 10q17 0 26 -1t25 -3q5 0 14 -1t14 -2q9 -1 28 -1h9h9q2 0 6 -2t6 -2q1 0 4 -2t5 -2q6 0 9 -1t11 -1q12 0 27 3q21 5 28 7q9 3 31 7q16 3 33 3q8 0 12 -1t12 -1l4 -2q4 -1 7 -2q2 0 6 -2t6 -2q5 -7 12 -8q10 -2 17 -2 h5h5h3q1 0 3 2h8h6h3h4q8 2 13 3l15 3q12 4 26 6q4 0 13 2t14 2l21 3q7 1 20 1q24 -2 43 -6t35 -16q3 1 7 3l6 3q5 3 17 7t19 5h9h8q10 0 19 -3q8 -3 18 -11q16 -12 31 -35q5 -8 13 -24t9 -17q0 -2 1 -3t1 -3q12 -28 29 -53q16 -24 49 -35q8 -6 11 -10q3 -5 11 -13 q13 -16 32 -27q17 -12 38 9q9 9 13 20q3 7 9 23q0 1 1 2l1 2q6 20 18 38q11 17 40 17q11 43 31 74q20 33 53 53q11 5 19 6q12 2 18 2q17 0 34 -6q2 -1 31 -14q5 -3 19 -9q3 -1 10 -5t10 -5q6 0 9 -1t10 -1q5 0 8 1q4 1 8 4q5 1 17 7q7 5 16 13h68h63h40h38q49 0 74 1 q48 2 73 3q14 -15 23 -35q6 -18 6 -35q0 -30 -16 -56q-11 -18 -35 -52q-8 -11 -22 -31q-16 -26 -19 -31h-1h-1h-2h-1q-33 0 -42 -21q-8 -21 -13 -46v-2q-1 -10 -5 -23q-3 -14 -7 -22q-28 -55 -63 -118q-9 -16 -68 -116l-7 -14q-2 -4 -8 -12q-26 -44 -38 -65q-6 -9 -37 -64 q-29 -17 -39 -43q-7 -18 -17 -56q0 -5 -1 -6t-1 -6q-7 -29 -16 -51q-11 -26 -35 -43q-29 -8 -35 -28q-6 -21 -6 -44v-1v-1q-1 -4 -2 -14t-2 -14q-1 -13 -10 -25q-11 -12 -15 -27q-5 -14 -10 -32q0 -3 -1 -4l-1 -1q-5 -23 -15 -47q-9 -21 -36 -32q-5 -11 -10 -30 q-1 -3 -3.5 -14t-4.5 -16q0 -1 -1 -3t-1 -3q0 -2 -2 -4q-12 -44 -26 -75q-16 -36 -56 -54q-1 -4 -2 -12t-2 -12q-4 -19 -5 -25v-1v-1q-6 -47 -19 -85q-13 -40 -56 -61q-8 2 -12 2h-15h-16h-17q-14 -2 -18 -2h-17q-20 0 -40 6q-21 5 -35 23h-1h-3h-3h-2q-11 0 -18 -4 q-10 -6 -14 -10h-1h-1q-4 -4 -10 -7q-8 -5 -13 -6h-5h-7q-10 0 -28 -2q-20 -2 -30 -2q-8 -2 -10 -2t-10 -2q-13 0 -19 -1q-7 -1 -20 -1q-18 0 -40 5q-19 4 -40 20q-32 -9 -84 -19q-43 -10 -92 -10h-12q-4 0 -12 2q-10 0 -14 1q-5 1 -13 1q-2 0 -3 1l-1 1q-3 0 -9 2 q-8 2 -10 2q-15 7 -27 16q-15 10 -16 27v1v3v3v1q0 17 9 27q8 10 18 18q0 3 1 4t3 1l18 18q10 11 11 27q2 34 21 59q12 17 38 47q22 26 42 51q18 25 18 62v1v1v1v1q40 33 56 71q19 46 32 85q0 3 1 4t1 6q10 34 29 76q16 35 48 67q1 2 2 8t2 8q1 5 3 13v7v7q0 13 -1 20 q-1 8 -6 19q-35 42 -47 57q-11 13 -49 60q-36 42 -88 112q-43 59 -78 117q-13 26 -27 48q-23 38 -26 44q-34 17 -51 44q-20 29 -37 59q-16 31 -36 60q-20 27 -54 44q-1 3 -6 8q-4 3 -8 11q-1 3 -6 8q-6 6 -9 10q-17 18 -33 44q-16 23 -16 50z" />
<glyph unicode="Z" horiz-adv-x="1767" d="M80 94v8v9q0 16 3 31q5 21 7 28l4 4l1 2l3 6q2 2 2 5v6q0 3 -1 5t-1 5q0 1 -2 4t-2 4t-2 4t-2 4q-3 5 -7 17q-3 8 -3 16v3q0 1 2 3v1v3v9v10q-2 6 -2 9v9q0 36 10 65q11 29 37 44q45 28 81 61q42 37 75 70l9 9l9 9q33 33 75 70q35 29 79 57q18 63 64 112q48 49 104 81v1 v1v1v1q0 5 -1 6l-4 6q0 1 -1 2t-1 4q-2 5 -1 8q1 4 8 8l22 22q16 14 25 21q32 29 52 54q21 26 21 59v6v1v3v3v1q0 3 -1 4t-3 1q0 2 -1 3t-1 3q-1 0 -2 1l-2 2t-4 -1h-7h-7h-7h-8q-29 0 -42 1q-26 2 -40 3h-4h-4q-30 2 -44 3t-46 1h-6h-6h-7h-7q-18 36 -37 29q-17 -8 -39 -23 q-4 -3 -23 -17q-13 -8 -24 -8h-1h-1h-1h-1l-12 3h-13q-16 0 -23 -1q-4 -1 -12 -2t-12 -2q-5 0 -7 -1t-5 -1q-6 -1 -16 -2.5t-14 -1.5q-20 -2 -30 -2q-22 0 -42 11q-18 10 -29 36q-2 6 -2 10v9q0 14 4 23q2 4 4 10t4 10t4 11t4 10q4 9 4 20q0 9 -5 19q-4 8 -17 18q-3 7 -7 19 q-4 8 -4 17q0 15 7 29l12 27q8 14 14 28t6 25t-7 22q-8 11 -26 21v8v8q0 41 4 73q3 37 25 63q22 19 53 27q27 7 60 7h20q7 0 21 -2q13 0 20 -1l21 -3q8 0 30 -2q20 -2 27 -2q2 -1 9 -3.5t10 -4.5t8 -4t8 -4t9 -4.5t8 -3.5q6 -3 18 -11q12 5 38 15q13 4 37 10q6 0 18.5 1.5 t19.5 2.5q26 2 38 2q36 0 81 -5q40 -5 81 -15q26 11 59 16q25 4 60 4q22 0 34 -1q11 -1 35 -3q30 0 45 -1q14 -1 43 -1q15 0 47 2q21 1 44 8q6 -2 12 -6q2 -2 6 -4t6 -4q2 0 3 -1t1 -3q8 -6 18 -9q8 -4 19 1q3 1 7 5l5 5q1 0 2 1l2 2l3 3q5 5 8 7q4 3 8 3t10 -1t10 -2 q6 -1 19 -1q14 -2 20 -2h19q22 0 33 1t32 1q20 0 31 1t33 1h21q6 0 22 -2q7 0 21 -2q3 0 10 -2t10 -2q13 -6 17 -16q5 -12 5 -25v-6v-6l-3 -12q-1 -5 -1 -13q-2 -8 -3 -11t-1 -9q-12 -10 -16 -22t-4 -25q0 -11 3 -25q5 -22 7 -29q3 -9 7 -29q3 -16 3 -30q0 -12 -5 -27 q-4 -13 -17 -26q15 -19 20 -37q6 -20 6 -35q0 -42 -25 -76q-26 -35 -57 -69q-12 -10 -22 -22q-3 -4 -10 -13t-11 -13q-1 -1 -3.5 -5t-4.5 -6q-1 -1 -2.5 -3t-3 -4.5t-2.5 -3.5q-18 -1 -35 -11q-19 -11 -29 -28q0 -35 -18 -60q-19 -27 -41 -49l-4 -4l-4 -4q-16 -16 -23 -25 q-10 -12 -22 -30q-45 -11 -64 -41q-21 -34 -35 -70q0 -1 -2 -5t-2 -7q-11 -29 -29 -61q-18 -29 -53 -47q0 -3 -1 -4q-1 -2 -1 -5q0 -5 -1 -8t-1 -8q0 -28 19 -44q19 -17 41 -26q3 0 5 -1t5 -1q5 -1 14 -2t14 -2q18 -2 27 -2q25 0 53 5q23 4 50 12q3 0 10 2t10 2t10 2t11 2 t14 2t14 2q18 2 27 2q16 0 34 -3q14 -3 36 -11q5 1 20 5q14 4 23 5q11 5 20 6q3 0 10.5 1.5l12.5 2.5l21 3q7 1 22 1q11 0 31 -2q13 -1 28 -10q14 -8 20 -22q5 -17 5 -31q0 -8 -1 -13t-1 -16q-2 -2 -2 -5q-2 -4 -3 -7q0 -5 -2 -15t-2 -14q-13 -7 -21 -17q-7 -10 -7 -20 q0 -6 5 -18l9 -21l2 -2t1 -2q2 -1 3 -6q1 -4 5 -12q3 -7 3 -13q3 -12 5 -32q1 -11 1 -33q0 -19 -1 -28q-1 -10 -1 -30q-2 -6 -2 -7v-7l-3 -36q-1 -13 -1 -38v-6v-6v-7v-7q-19 -16 -42 -22q-21 -7 -50 -7q-11 0 -33 2q-6 1 -17.5 2.5t-16.5 1.5q-10 2 -18 3q-6 1 -19 1 q-11 0 -17 1q-7 1 -18 1h-11q-4 0 -10 -2q-6 0 -9 -1t-11 -1q-1 0 -4 2t-5 2q-6 2 -10 2q-8 2 -11 2h-9q-8 0 -24 -2q-5 -1 -13 -2.5t-12 -1.5q-12 -4 -23 -6q-16 -2 -24 -2q-12 0 -27 5q-13 5 -27 18q-51 -16 -101 -21q-49 -6 -99 -6q-27 0 -40 1t-38 1q-26 0 -39 1t-41 1 q-22 0 -64 -2q-33 -2 -67 -6q-19 16 -33 22q-17 7 -35 7q-17 0 -32 -4l-33 -9q-11 -4 -33 -10q-16 -4 -35 -4q-12 0 -29 5q-15 4 -32 15q-45 -6 -94 -9t-101 -3h-40q-14 0 -40 2q-6 0 -20 2t-20 2q-7 0 -21 2t-21 2q-12 16 -18 36q-7 21 -8 40z" />
<glyph unicode="[" horiz-adv-x="770" d="M170 1552q0 30 8 54q8 22 33 30q1 0 7.5 -1.5t10.5 -2.5q12 -2 17 -2q4 0 14 -2t14 -2q13 -1 25 -12q12 12 27 18q14 6 28 6h8q1 0 9 -2q8 -1 20 -8t21 -16q8 8 17 14q10 7 20 8l6 2h4q15 0 29 -13q14 -14 20 -46q2 -18 2 -26v-25q0 -27 -1 -40t-1 -38q-2 -26 -2 -39v-39 q0 -18 2 -54q1 -24 8 -56q-2 -27 -3 -51q-1 -17 -1 -50q0 -38 1 -57q1 -10 2 -29t1 -29v-6q0 -2 2 -8q0 -20 2 -62t2 -67q0 -28 -1 -43q-2 -32 -3 -49q0 -31 1 -47q1 -17 1 -49q2 -30 2 -47q0 -16 2 -50v-16v-16q0 -24 -2 -70q-2 -35 -6 -65l3 -15q1 -5 1 -18v-11v-10 q-2 -10 -2 -15v-13q0 -6 2 -16t6 -17q-3 -13 -5 -42q-1 -15 -1 -42v-32q0 -12 2 -32v-32v-33q0 -24 -1 -36q-2 -26 -3 -40q-4 -27 -15 -36t-24 -9h-4q-2 0 -4 2q-3 0 -4 1t-4 1q-7 9 -13 11q-8 3 -16 3q-3 0 -13 -2t-13 -2q-3 -1 -8 -2.5t-6 -1.5q-10 -2 -13 -2q-5 0 -15 2 q-7 1 -14 10q-11 -7 -26 -12q-13 -4 -29 -4q-9 0 -14 1q-6 1 -15 1q-5 0 -7 1t-7 1q-4 0 -10 1t-10 2q-7 1 -19 1h-7h-7q-2 0 -3 -1t-3 -1q-6 38 -9 74q-4 33 -4 76q0 20 2 58q2 28 6 54q-3 18 -5 52q-1 16 -1 49q0 22 2 60q0 9 1.5 28.5t2.5 30.5q0 10 2 29t2 29q1 19 1 58 q0 18 -2 60q-3 30 -9 63v4v4v2v4q0 25 -1 38t-1 38l-3 36q-1 11 -1 36q0 16 1 25l3 24q0 10 3 23q4 16 5 24q-8 35 -9 75q-1 27 -1 81v5v7v13v12v16v16q0 9 -1 15q-1 5 -1 16q0 6 2 20q2 12 2 17q2 14 3 22q1 7 1 21q0 13 -1 20q-2 10 -7 17q0 5 1 8t1 10v9v8v20q0 7 -2 21 q0 11 -1 17t-1 20q0 7 -2 20t-2 20q-2 26 -2 37zM287 1487q0 3 1 4t1 4v4v4q2 8 2 13v14v9v9q-2 8 -2 12v9q0 6 2 16q1 7 10 17q0 3 -1 4t-1 4q-1 3 -3 7q-1 2 -1 7q0 1 1 3q2 4 3 5q22 4 46 6q30 2 46 2h32q10 0 32 -2q8 -2 11 -3t9 -1h3h5q3 0 4 1t5 1q6 2 10 3t12 1h5h5 q10 0 15 -1l12 -3q5 0 7 -1t5 -1h7h5h11q2 0 10 2q12 -8 14 -19q0 -2 1.5 -10.5t2.5 -13.5v-3v-1v-5v-5v-8q0 -2 2 -8q-9 -6 -11 -8q-3 -5 -3 -9q1 -3 5 -9q4 -5 5 -11q1 -3 3 -7q1 -2 1 -8q0 -4 -2 -12q0 -2 -2 -6t-2 -6t-1 -3l-1 -1q-1 -7 -5 -14q-3 -7 -3 -15 q-3 -1 -7 -3q-2 -1 -7 -1q-3 0 -6 1q-6 2 -7 3q-10 0 -14 1q-6 1 -12 -3q-2 1 -5.5 2.5t-4.5 1.5q-6 2 -11 2t-11 -2t-11 -2q-2 -1 -6 -2.5t-5 -1.5q-8 -2 -12 -2q-3 0 -5 1t-5 1q-5 2 -6 3l-2 2t-2 1q-6 -1 -25 -5q-14 -3 -28 -3h-5h-8q-10 0 -26 2q-5 1 -13 2.5t-12 1.5 h-9q-5 0 -7 -2q-3 0 -5 -1q-3 -1 -6 -1h-3h-3q-3 0 -5 1t-5 1q-9 12 -11 19q-3 7 -3 16zM297 49q0 3 1 4t1 4v7v4q2 8 2 13v15v12v11q-2 8 -2 11v11q0 6 2 20q1 8 10 17q0 5 -1 6t-1 4t-2 9q0 1 -1 3t-1 3t2 5t2 5q25 7 47 8q30 2 47 2h32q10 0 32 -2q3 -2 11 -5q3 -1 9 -1 h5q2 0 4 2h4q2 0 4 2q6 2 10 3t12 1h2h6h5q8 0 13 -1t13 -3l6 -2h7l6 -2h6q6 0 9 1t11 3q12 -7 15 -21q1 -4 2 -14t2 -14v-3v-3v-5v-5v-9q0 -4 2 -10q-8 -5 -11 -9q-4 -4 -4 -9q2 -7 6 -11q4 -8 5 -12l3 -9q1 -3 1 -9q0 -3 -2 -13q-1 -3 -2 -8t-2 -8q0 -1 -1 -2l-1 -2 q-5 -7 -6 -15q-3 -8 -3 -18q-3 -1 -7 -3q-2 -1 -7 -1t-7 1q-4 2 -7 3l-12 3q-7 1 -15 -5q-3 3 -9 5q-3 1 -11 1t-11 -1l-12 -3q-2 -1 -6 -2.5t-5 -1.5q-6 -2 -11 -2q-3 0 -5 1q-3 1 -6 1q-3 3 -5 4t-5 4q-9 -4 -25 -7q-14 -3 -28 -3h-5h-7q-9 0 -27 2q-15 2 -25 6h-2 q-5 0 -8 -1t-8 -1q-1 -1 -5 -3q-2 -1 -5 -1h-3h-3q-3 0 -5 1q-3 1 -6 1q-9 14 -11 22q-3 9 -3 19z" />
<glyph unicode="\" horiz-adv-x="1263" d="M82 1591q23 -12 22 -14q20 83 195 12q34 -14 92 4q43 -13 135 -213l136 -266q52 -99 129 -262q92 -193 127 -262q297 -583 296 -584h-358q-10 -29 -70 69q-37 62 -94 173q-93 188 -94 194q-36 54 -338 664q-43 87 -82.5 167t-55.5 111.5t-16 32.5q-128 229 -24 174z" />
<glyph unicode="]" horiz-adv-x="768" d="M170 1552q0 30 8 54q8 22 33 30q1 0 7.5 -1.5t10.5 -2.5q12 -2 17 -2q4 0 14 -2t14 -2q13 -1 25 -12q12 12 27 18q14 6 28 6h8q1 0 9 -2q8 -1 20 -8t21 -16q8 8 17 14q10 7 20 8l6 2h4q15 0 29 -13q14 -14 20 -46q2 -18 2 -26v-25q0 -27 -1 -40t-1 -38q-2 -26 -2 -39v-39 q0 -18 2 -54q1 -24 8 -56q-2 -27 -3 -51q-1 -17 -1 -50q0 -38 1 -57q1 -10 2 -29t1 -29v-6q0 -2 2 -8q0 -20 2 -62t2 -67q0 -28 -1 -43q-2 -32 -3 -49q0 -31 1 -47q1 -17 1 -49q2 -30 2 -47q0 -16 2 -50v-16v-16q0 -24 -2 -70q-2 -35 -6 -65l3 -15q1 -5 1 -18v-11v-10 q-2 -10 -2 -15v-13q0 -6 2 -16t6 -17q-3 -13 -5 -42q-1 -15 -1 -42v-32q0 -12 2 -32v-32v-33q0 -24 -1 -36q-2 -26 -3 -40q-4 -27 -15 -36t-24 -9h-4q-2 0 -4 2q-3 0 -4 1t-4 1q-7 9 -13 11q-8 3 -16 3q-3 0 -13 -2t-13 -2q-3 -1 -8 -2.5t-6 -1.5q-10 -2 -13 -2q-5 0 -15 2 q-7 1 -14 10q-11 -7 -26 -12q-13 -4 -29 -4q-9 0 -14 1q-6 1 -15 1q-5 0 -7 1t-7 1q-4 0 -10 1t-10 2q-7 1 -19 1h-7h-7q-2 0 -3 -1t-3 -1q-6 38 -9 74q-4 33 -4 76q0 20 2 58q2 28 6 54q-3 18 -5 52q-1 16 -1 49q0 22 2 60q0 9 1.5 28.5t2.5 30.5q0 10 2 29t2 29q1 19 1 58 q0 18 -2 60q-3 30 -9 63v4v4v2v4q0 25 -1 38t-1 38l-3 36q-1 11 -1 36q0 16 1 25l3 24q0 10 3 23q4 16 5 24q-8 35 -9 75q-1 27 -1 81v5v7v13v12v16v16q0 9 -1 15q-1 5 -1 16q0 6 2 20q2 12 2 17q2 14 3 22q1 7 1 21q0 13 -1 20q-2 10 -7 17q0 5 1 8t1 10v9v8v20q0 7 -2 21 q0 11 -1 17t-1 20q0 7 -2 20t-2 20q-2 26 -2 37zM287 1487q0 3 1 4t1 4v4v4q2 8 2 13v14v9v9q-2 8 -2 12v9q0 6 2 16q1 7 10 17q0 3 -1 4t-1 4q-1 3 -3 7q-1 2 -1 7q0 1 1 3q2 4 3 5q22 4 46 6q30 2 46 2h32q10 0 32 -2q8 -2 11 -3t9 -1h3h5q3 0 4 1t5 1q6 2 10 3t12 1h5h5 q10 0 15 -1l12 -3q5 0 7 -1t5 -1h7h5h11q2 0 10 2q12 -8 14 -19q0 -2 1.5 -10.5t2.5 -13.5v-3v-1v-5v-5v-8q0 -2 2 -8q-9 -6 -11 -8q-3 -5 -3 -9q1 -3 5 -9q4 -5 5 -11q1 -3 3 -7q1 -2 1 -8q0 -4 -2 -12q0 -2 -2 -6t-2 -6t-1 -3l-1 -1q-1 -7 -5 -14q-3 -7 -3 -15 q-3 -1 -7 -3q-2 -1 -7 -1q-3 0 -6 1q-6 2 -7 3q-10 0 -14 1q-6 1 -12 -3q-2 1 -5.5 2.5t-4.5 1.5q-6 2 -11 2t-11 -2t-11 -2q-2 -1 -6 -2.5t-5 -1.5q-8 -2 -12 -2q-3 0 -5 1t-5 1q-5 2 -6 3l-2 2t-2 1q-6 -1 -25 -5q-14 -3 -28 -3h-5h-8q-10 0 -26 2q-5 1 -13 2.5t-12 1.5 h-9q-5 0 -7 -2q-3 0 -5 -1q-3 -1 -6 -1h-3h-3q-3 0 -5 1t-5 1q-9 12 -11 19q-3 7 -3 16zM297 49q0 3 1 4t1 4v7v4q2 8 2 13v15v12v11q-2 8 -2 11v11q0 6 2 20q1 8 10 17q0 5 -1 6t-1 4t-2 9q0 1 -1 3t-1 3t2 5t2 5q25 7 47 8q30 2 47 2h32q10 0 32 -2q3 -2 11 -5q3 -1 9 -1 h5q2 0 4 2h4q2 0 4 2q6 2 10 3t12 1h2h6h5q8 0 13 -1t13 -3l6 -2h7l6 -2h6q6 0 9 1t11 3q12 -7 15 -21q1 -4 2 -14t2 -14v-3v-3v-5v-5v-9q0 -4 2 -10q-8 -5 -11 -9q-4 -4 -4 -9q2 -7 6 -11q4 -8 5 -12l3 -9q1 -3 1 -9q0 -3 -2 -13q-1 -3 -2 -8t-2 -8q0 -1 -1 -2l-1 -2 q-5 -7 -6 -15q-3 -8 -3 -18q-3 -1 -7 -3q-2 -1 -7 -1t-7 1q-4 2 -7 3l-12 3q-7 1 -15 -5q-3 3 -9 5q-3 1 -11 1t-11 -1l-12 -3q-2 -1 -6 -2.5t-5 -1.5q-6 -2 -11 -2q-3 0 -5 1q-3 1 -6 1q-3 3 -5 4t-5 4q-9 -4 -25 -7q-14 -3 -28 -3h-5h-7q-9 0 -27 2q-15 2 -25 6h-2 q-5 0 -8 -1t-8 -1q-1 -1 -5 -3q-2 -1 -5 -1h-3h-3q-3 0 -5 1q-3 1 -6 1q-9 14 -11 22q-3 9 -3 19z" />
<glyph unicode="^" horiz-adv-x="843" d="M53 1812q1 -10 26 -39q23 -26 20 -37q-12 -45 82 -91v5q6 8 80 71q75 63 77 63q29 28 59 67l61 -47q26 -23 76 -70q24 -24 26 -19q2 2 26 -20q54 -51 52 -52q11 28 114 173q11 8 -69 83q-50 45 -55 48l-24 21q-38 34 -68 61q-80 73 -87 80q-32 32 -44 33q-6 0 -6 -4 l-119 -111l-1 -1l-1 -1l-1 -1h-1l-1 -1l-1 -1l-1 -1l-1 -1l-1 -1l-1 -1v-1h-1l-1 -1l-1 -1l-1 -1l-1 -1l-1 -1l-1 -1l-1 -1l-1 -1h-1l-1 -1l-1 -1l-1 -1l-1 -1l-1 -1l-1 -1l-1 -1l-1 -1l-1 -1l-1 -1h-1l-1 -1l-1 -1l-1 -1l-1 -1l-1 -1l-1 -1l-1 -1l-1 -1q-8 -8 -13.5 -13 t-8.5 -6.5t-4 -0.5q-2 1 -26 -21l-76 -70q-55 -46 -60 -68z" />
<glyph unicode="_" d="M37 86q0 5 2 11q1 3 8 12l4 4l4 4h2q3 3 6 5q3 3 3 5q0 1 -2 3q-4 2 -7 3q-10 0 -13 4q-3 5 -3 6v2q0 3 -1 5l-1 2q-1 2 -2 2q1 13 20 18q15 4 43 4h20h21q14 -2 22 -2h21h14q3 0 11 2q1 0 4 -1t4 -2q3 -1 10 -1q11 -5 23 -6q16 -2 26 -2q21 9 41 10q30 2 45 2 q12 0 20 -1q7 -1 21 -1h22h21h8h9h5h7q6 -4 18 -7q9 -3 17 -3q6 0 11 1q3 1 7 2t7 1h13h13h3h3h2h2q2 0 3 1t4 1q0 1 2 3l2 1h1h3h3h1h22q7 0 23 2h8h8h16h15q21 0 31 -1q19 -2 28 -5q9 0 15 1q5 1 16 1q8 1 26 3q9 1 27 1q11 0 18 1q6 1 17 1q34 0 55 -4q23 -5 33 -16v-4 v-4q0 -3 1 -5q1 -3 1 -6q0 -5 1 -7t1 -5q0 -7 -4 -12q-5 -7 -16 -11q15 -8 22 -18t7 -23q0 -10 -5 -18q-8 -10 -14 -16q0 -1 1 -2l2 -2l1 -2q0 -1 -2 -5q-1 -3 -4 -6q-5 -5 -6 -7q-2 -4 -2 -5v-2q-18 2 -27 2q-10 0 -28 2h-15h-14q-24 0 -36 -1q-13 -1 -36 -1h-35h-36h-25 h-25q-18 0 -26 1q-9 1 -25 3q-6 -5 -16 -6q-14 -2 -21 -2h-12q-4 0 -12 2h-12h-11h-11q-3 0 -11 -2q-7 -3 -22 -5q-9 -1 -23 1q-10 0 -34 2q-7 1 -18 2.5t-14 1.5q-5 0 -7 1t-7 1q-16 2 -25 3t-29 1q-9 0 -14 -1t-16 -1q-7 -6 -14 -8q-12 -2 -21 -2q-8 0 -13 1t-16 1 q-3 0 -4 1t-4 1q-11 0 -16 1t-15 1h-2h-3h-3h-16h-17h-8q-2 0 -8 -2h-12h-13q-18 0 -34 3q-18 3 -25 13q7 5 9 11q3 5 1 10q0 3 -2 9q-1 2 -2 5t-2 4q0 3 -1 4q0 1 -1 2l-2 2q-4 6 -6 14q-2 10 -2 13z" />
<glyph unicode="`" horiz-adv-x="641" d="M92 2077q0 11 1 16q2 11 5 16q0 6 1 10q1 3 1 7q6 9 8 10q4 2 9 2h1h1l2 -2q2 0 3 -1t1 -3q10 -10 15 -13q7 -6 18 -1q7 12 19 15q11 3 24 3h3h3h9q3 0 9 2h1h3q2 0 8 -2q1 0 3 -1.5t4 -2.5v-2h2q0 -2 4 -5q0 -1 2 -2l2 -1q40 12 49 14q23 6 47 6h10q3 0 9 -2 q5 -12 11 -16q7 -4 17 -4q2 0 10 2q6 2 11 2h2q2 2 4 2h4v1q0 1 2 1h2q6 0 10 -6q4 -5 4 -15v-3v-1v-3v-1v-14q0 -6 3 -15v-15v-13q0 -13 -1 -20q-1 -9 -10 -21q10 -22 14 -33q6 -24 9 -35q2 -10 2 -16v-17q0 -9 -2 -27q-1 -11 -8 -26q14 -17 18 -37q5 -23 6 -43v-2v-2 q3 -14 7 -37q3 -20 16 -36q-1 -9 -7 -21q-6 -10 -20 -12h-3h-3q0 -2 -2 -2h-2q-25 0 -37 14q-13 15 -23 33q-11 18 -23 32q-14 15 -38 15h-4h-4q-7 14 -16 23q-4 4 -11 10t-10 10v2q-14 12 -26 26q-14 14 -15 31q-15 15 -34 26q-22 10 -38 15q-7 15 -15 29q-12 18 -19 27 q-3 3 -5 7q-1 2 -6 7q-13 17 -24 38q-11 20 -11 42v2q-6 6 -9 14t-3 19z" />
<glyph unicode="a" horiz-adv-x="1996" d="M90 47q0 3 1 5q2 4 3 5q1 7 5 21q3 11 7 20q14 42 33 80t54 64q-2 8 -2 12q-1 4 -1 12q0 34 14 64q13 28 40 49v4v6q-2 2 -2 4v4q0 37 17 66q19 33 36 55q22 27 39 59q16 28 16 68v3v3v1v3q2 2 2 6q0 3 2 5q8 21 18 38q10 18 27 31q7 50 23 104q14 50 59 89l-2 4t-1 4 q-1 3 -1 8q-2 6 -2 8v9q0 15 4 27q5 14 6 28q4 11 10 33q3 17 3 30q0 18 -7 33t-26 31q-3 0 -10.5 -1.5l-12.5 -2.5q-18 -2 -26 -2q-8 -2 -12 -2h-13q-29 0 -53 12q-25 12 -31 45q-2 8 -3 11t-1 11q-2 8 -2 12v11q0 26 4 43q2 7 4.5 22l3.5 21q3 13 9 41q4 17 4 41 q0 17 -5 39q-6 19 -18 35v8v8q-2 6 -2 8v8q1 35 14 70q10 33 43 53q2 0 4 1l4 2t7 1h6h6q12 0 29 -5q12 -4 26 -11q18 -10 27 -13q13 -5 25 -5q5 0 11 2q1 0 5 1.5t6 2.5q8 6 11 9q1 1 5 5.5t7 7.5q5 0 6 1t6 1h5h5q20 0 36 -4q6 -2 19 -4.5t17 -3.5q11 -4 33 -10 q15 -4 32 -4q13 0 25 4t24 12q7 -2 18 -3q6 -1 17 -1q5 0 23 2q16 2 24 2q2 2 5 2h4q12 2 27 3q9 1 26 1q21 0 40 -6q20 -6 36 -22q26 17 50 21q28 5 52 5q19 0 29 -1q9 -1 30 -1q9 -1 29 -3q9 -1 29 -1q27 -2 43 2q21 5 41 12h4q2 0 4 2h4h4q32 -1 52 -23q21 -26 32 -46 q1 -2 2.5 -4.5t2.5 -5.5t2 -4q5 -12 5 -13l3 -3q1 -1 1 -3q9 -23 10 -37q2 -24 3 -35q0 -24 5 -49q4 -23 30 -45q28 -35 35 -77t12 -87q6 -59 22 -111q15 -55 72 -91q14 -19 17 -38q3 -20 3 -40v-12v-11v-12v-12q0 -28 7 -49q6 -22 32 -42q35 -26 48 -59q13 -37 20 -74 q0 -3 1 -5t1 -5q6 -29 15 -59q9 -28 32 -54q7 -26 16 -44q11 -24 17 -44q18 -44 33 -87q15 -47 16 -89q3 -3 7 -9t7 -9q30 -44 43 -66q19 -34 19 -73v-8v-9q0 -7 -1 -10q0 -2 -1 -4l-2 -4q-20 -35 -48 -47q-29 -14 -65 -21q-17 6 -28 13q-13 6 -25 22q-1 -1 -4 -2t-4 -1 q-3 -1 -9 -1q-30 -8 -58 -15q-34 -8 -65 -8q-26 0 -50 8t-44 21q-9 -3 -27 -9.5t-21 -7.5q-26 -11 -52 -12q-14 -2 -19 -2h-18q-16 0 -36 5t-36 12q-19 6 -23 21q-5 15 -5 28v4v4q0 20 -4 32q-4 13 -29 15q-7 9 -11 18q-1 2 -4.5 8.5t-5.5 10.5q-5 12 -19 36q-11 17 -34 25 q-62 10 -88 13q-39 4 -84 4q-57 0 -112 -9q-58 -11 -109 -30q-20 -17 -30 -41q-14 -34 -19 -51q0 -3 -1 -4t-1 -4q-13 -43 -31 -74q-20 -33 -76 -33h-1h-1h-1h-1q-14 10 -27 15q-12 4 -30 4q-15 0 -28 -3q-5 -2 -15 -4t-15 -4q-7 -2 -28 -7q-15 -3 -29 -3q-3 0 -13 2 q-3 1 -7 2.5t-6 1.5q-1 0 -13 5q-10 4 -14 7q-5 0 -16 -2t-17 -2q-17 -1 -37 -6q-16 -2 -23 -3l-24 -3l-27 -3q-9 -1 -26 -1q-36 0 -65 10q-32 11 -54 37zM881 612q0 -10 3 -20q3 -12 7 -19l2 -2t1 -2q1 -1 1 -4q9 0 21 -5q3 -1 20 -11l1 -1l1 -1q8 -5 26 -13q6 -2 10 -2 q11 0 21 7q22 6 30 17q7 10 7 26q0 7 -2 21q0 3 -2 11t-2 11l-3 12l-3 12q0 6 -1 11q-1 4 -1 12v7q0 1 2 7q0 5 1 7q2 4 3 7q-6 10 -11 14q-3 2 -8.5 6t-7.5 5q0 1 -2 3q-1 0 -2 1l-2 2q-8 6 -11 9q-4 4 -9 12q-3 2 -11 5q-4 1 -10 1q-20 0 -27 -19q-7 -18 -12 -43v-3 q0 -1 -2 -1q-1 -10 -7 -32q-5 -18 -15 -25q-1 -2 -2 -6t-2 -6q-2 -10 -2 -11z" />
<glyph unicode="b" horiz-adv-x="1662" d="M76 160q0 30 8 60q8 28 33 48q-17 21 -25 52q-8 30 -8 59q0 19 3 39q4 24 5 35q11 21 18 46q5 25 5 46q0 25 -5 57q-8 36 -12 55q-10 37 -13 58q-5 32 -5 59q0 10 2 32q2 16 6 32q1 4 5 12q3 6 7 10q3 7 9 19q4 7 4 18v3v3l-1 1q-1 1 -1 3q-18 27 -21 61q-4 29 -4 70v4v7 v9v9v16v15q0 2 1 4l2 4l2 4t1 4t1 3l1 1q8 20 15 42q6 22 6 48v13q0 4 -2 12q-18 16 -25 38q-7 21 -6 46q0 21 1 31q1 4 2 14t1 14q2 7 6 14q4 8 8 11q0 1 1 2.5t2 2.5t1 2q2 3 5 5q5 6 6 13q2 8 2 14v7q0 3 -2 5q-14 17 -20 36q-7 18 -7 40q0 7 2 25q0 4 2 12t2 12 q12 26 34 33q24 8 46 8h14q5 0 15 -2q10 0 15 -1t13 -3q7 -10 21 -15q12 -6 27 -6q6 0 14 2q2 1 6 2t6 2q4 4 12 10q1 1 5 3t6 4q5 0 7 1q4 2 5 3q18 2 28 2h25q18 0 54 -2q34 -2 53 -2q9 -1 27 -2.5t26 -1.5q34 -2 49 -2q34 0 62 4q29 4 61 12q26 -9 46 -10q30 -2 42 -2 q25 0 50 3q32 4 48 7q6 0 9 1t8 1q10 2 28.5 4.5t27.5 3.5q25 4 58 4h8h5h7h7q19 0 29 -1q4 -1 14 -2t14 -1q49 -5 90 -20q44 -17 74 -45q6 2 10 2h9h8q2 0 8 -2q34 -6 65 -31t56 -53q0 -2 1 -3l3 -3q1 -14 13 -29q3 -4 10.5 -13.5t11.5 -15.5l1 -1l1 -1q13 -13 18 -20 q10 -14 15 -23q1 -5 5 -22q4 -19 5 -25q0 -3 2 -10t2 -10t1.5 -11t2.5 -12q1 -5 3 -17q1 -6 1 -20q0 -24 -8 -45q-8 -20 -31 -37q5 -13 6 -27q2 -18 2 -24q0 -48 -25 -82q-26 -35 -59 -65v-1q0 -1 -2 -1q-9 -9 -27 -29q-18 -22 -26 -33q10 -10 22 -19q7 -6 25 -18l2 -2 q2 -2 4 -2q28 -18 45 -35q19 -19 19 -53v-9q0 -3 -2 -11q39 -12 57 -44q17 -32 29 -67l3 -9q1 -3 3 -11q1 -2 2.5 -6t1.5 -5q1 -2 2 -6t2 -6q-4 -13 -6 -28q-2 -20 -2 -31v-18q0 -9 2 -19v-10q0 -3 2 -9q0 -19 1 -28q1 -10 1 -27q0 -40 -12 -71q-12 -34 -51 -56v-5v-5 q0 -13 -6 -27q-10 -18 -15 -26l-1 -1l-1 -1q-8 -16 -12 -23q-6 -12 -6 -27v-2q-87 -87 -182 -121q-97 -36 -214 -36q-15 0 -47 2q-7 0 -24 1.5t-27 2.5q-1 1 -6 3q-3 1 -6 1h-7h-7q-16 0 -36 -5q-12 -3 -34 -11h-6q-4 0 -6 2h-7h-8q-11 0 -17 -1t-20 -1q-11 0 -17 -1t-19 -1 q-25 1 -48 6q-25 5 -41 18q-3 0 -4 1t-4 1h-4h-4q-13 0 -26 -5q-12 -4 -23 -15q-2 0 -6 -1.5t-7 -2.5q-7 -1 -16 -5q-10 0 -15 -1t-13 -1q-22 0 -41 4q-28 4 -41 7t-41 7q-21 3 -39 3t-40 -5q-19 -4 -38 -20q-2 1 -6 2.5t-5 1.5q-6 2 -12 2q-8 2 -11 3h-11q-18 0 -36 -3 q-4 -1 -17 -3.5t-19 -4.5q-17 -6 -32 -9q-17 -3 -33 -3q-20 0 -40 9t-36 36q0 19 -1 29q-1 9 -1 28q-1 9 -3 29q-1 9 -1 29zM713 1186q0 -18 6 -38q5 -17 14 -38q1 -4 4 -10t4 -10q3 -7 7 -21q8 -2 13 -3t15 -1q14 0 31 5q15 5 22 15q1 5 6 13q4 8 7 12q1 2 2.5 4t1.5 3 t1.5 3t2.5 4q9 11 19 30q8 16 8 32q0 3 -2 13q-4 10 -7 15q-4 22 -21 33q-18 10 -38 15q-10 2 -14 3q-5 1 -13 3q-5 -7 -11 -8q-10 -4 -15 -5q-10 -1 -19 -6q-9 -4 -14 -18q-1 -2 -2.5 -6t-1.5 -5q-1 -2 -2 -6t-2 -6q-2 -8 -2 -11v-11zM731 602q0 -34 10 -64q9 -31 29 -59 q1 0 6 -1.5t8 -2.5q10 -2 15 -2h7q3 0 5 2q10 1 25 8q12 6 20 17q0 16 4 29q7 22 10 28v1v1q7 16 11 30q4 13 4 29q0 10 -3 22t-12 22q-11 20 -30 32q-23 12 -43 13h-4h-5q-12 0 -23 -3q-3 -2 -11 -4t-11 -4q-1 -10 -5 -23q-3 -11 -3 -24q-2 -16 -3 -23q-1 -8 -1 -24z" />
<glyph unicode="c" horiz-adv-x="1626" d="M74 762q0 20 3 40q3 18 9 38q2 22 2 32q0 9 2 33q0 20 1 31t1 31q5 48 15 91q11 44 36 81q13 24 30 40q5 5 17 16t17 17l5 5q2 1 5 4q22 18 49 49q21 26 29 67q9 5 19 15q11 11 16 18q10 10 36 32q20 15 46 15q55 54 128 106q68 49 150 56q22 1 66 5q42 4 63 7q16 2 23 3 q4 0 10 1t10 2l87 12q58 6 89 7q16 -4 33 -6q22 -2 31 -2q12 0 36 2q6 0 17 2t16 2q10 0 34 2t34 2h17q6 0 16 -2q2 0 8 -1t8 -2q12 -2 17 -5q13 18 38 24q23 6 48 6h13h13h6h7h12h10q3 0 4 -1q0 -1 2 -2l2 -1q8 -3 20 -12q9 -8 15 -18q5 -5 6 -7q1 -1 2 -4t2 -4 q-2 -18 -2 -27v-28q0 -18 2 -52q1 -9 2.5 -25.5t1.5 -24.5v-8q0 -5 2 -7q1 -8 2.5 -22.5t1.5 -21.5q1 -14 1 -44v-16v-17q0 -11 -1 -16q-1 -2 -2 -8t-2 -8q0 -11 1 -16q2 -12 4 -17q0 -5 1 -8t1 -9q0 -4 2 -12t2 -12q2 -16 2 -25q0 -14 -3 -26t-14 -23q-11 -8 -26 -14 q-12 -4 -25 -4q-15 0 -27 4q-5 2 -14 4t-14 4q-6 3 -28 10q-13 4 -30 4q-13 0 -24 -4q-15 -6 -27 -14l-15 3q-5 1 -15 1q-9 0 -27 -2q-4 0 -14 -1.5t-15 -2.5q-14 -4 -27 -6q-18 -2 -26 -2q-15 0 -27 4q-15 5 -26 12q-28 -12 -59 -30t-58 -35q-3 -1 -8 -4t-8 -5 q-4 -2 -10 -5.5t-7 -4.5l-57 -33q-32 -20 -57 -32q-16 -28 -24 -65q-9 -36 -9 -73v-9v-11q2 -46 15 -89q14 -45 36 -79q28 0 51 -12q28 -18 41 -29q14 -8 22 -13q14 -10 21 -14q16 2 25 3q8 1 24 1q15 0 45 -2q20 -1 43 -6q11 -1 42 -5q22 -3 42 -3t47 5q24 5 43 18 q8 -2 13 -3q2 -1 6 -2t6 -2h6h6q13 0 30 3q15 2 30 6q6 1 16 2.5t15 1.5q18 2 28 2q30 0 50 -13q21 -14 28 -53q0 -2 2 -4t2 -4q2 -6 2 -8q2 -6 2 -8v-9q0 -13 -3 -23q-5 -17 -7 -22q-6 -11 -9 -23q-3 -11 -3 -22t4 -19q5 -11 12 -20q10 -14 12 -27q2 -18 2 -28 q0 -14 -3 -29q-4 -20 -7 -30q-2 -7 -7 -30q-3 -15 -3 -32q0 -12 3 -24q3 -13 9 -25q-1 -5 -3 -17q-1 -6 -1 -18q-6 -34 -11 -51q-7 -24 -40 -37q-6 0 -9 1t-10 1q-8 2 -11 2h-9q-12 0 -36 -2q-18 -1 -38 -6q-14 -1 -35 -5q-18 -3 -36 -3q-13 0 -20 1q-14 2 -21 5q-8 1 -20 8 q-10 6 -21 15q-33 -14 -70 -21q-40 -8 -78 -8q-48 0 -87 7q-48 9 -77 20q-16 -5 -41 -12q-24 -8 -49 -9h-11h-9q-19 0 -34 4q-20 6 -34 13q-10 -2 -14 -2q-4 -1 -12 -1q-46 0 -80 19q-38 20 -68 43q-36 24 -55 35q-27 16 -64 22q-37 10 -58 36q-20 23 -40 56q-2 0 -2 1l-2 4 q-20 33 -35 50q-20 23 -51 38q-62 72 -96 154q-36 83 -37 173q-22 19 -33 49q-10 27 -10 62z" />
<glyph unicode="d" horiz-adv-x="1888" d="M86 113q0 27 6 51q8 32 12 49q11 41 13 48q6 24 6 50q0 14 -1 22q-2 14 -5 21q0 5 -1.5 16.5t-2.5 18.5t-2.5 19t-1.5 18q-2 10 -3 14q-2 8 -2 15q0 6 -1.5 18.5t-2.5 19.5q-2 26 -2 37q0 29 6 56q4 24 17 51q-9 42 -14 101q-5 55 -5 100q0 47 1 71q1 11 2 35t1 35 q2 7 3 18q0 7 2 17q1 15 2.5 45t1.5 44q2 58 2 89q0 26 -2 78q-1 39 -9 78q10 13 11 17q2 10 2 15q0 8 -3 16q-4 10 -7 15v1v3q-6 11 -9 21q-4 9 -4 22v8q0 3 2 9v21v22q0 22 6 45q4 22 23 36q44 21 84 28q41 7 86 7q16 0 52 -2q34 -2 52 -2q9 0 27 -1.5t28 -2.5 q36 -2 56 -2q6 -5 16 -9q8 -3 15 -3q8 0 17 3q12 4 18 5q11 5 19 6q12 2 17 2q8 0 13 -1q4 -1 14 -1q8 -2 12 -2h13q16 0 46 2q24 2 46 6q8 0 23 2t22 2q30 2 45 2q27 0 55 -5q24 -4 51 -17q4 -1 8 0q2 1 5 4q1 3 5 5q2 1 7 1q21 7 40 8q26 2 38 2q76 0 142 -33 q67 -36 128 -75q25 -15 73 -45q40 -25 75 -37l12 -15q6 -7 12 -18q3 -3 7 -9t7 -9q15 -24 36 -46q18 -20 46 -32q43 -34 66 -79q15 -29 43 -89q0 -3 1 -5q2 -4 3 -5q6 -16 10 -25q8 -18 13 -27q31 -47 48 -105q17 -59 21 -118v-11v-11q0 -42 -8 -87q-7 -41 -27 -79 q2 -16 2 -24v-23q0 -71 -22 -133t-82 -101q-18 -95 -92 -165q-72 -69 -166 -97q-41 -69 -110 -88q-74 -21 -146 -29q-6 -2 -10 -2h-11q-13 -1 -39 -5t-38 -5q-15 15 -34 23q-18 6 -34 6q-17 0 -32 -4q-22 -6 -31 -9q-6 -2 -17 -4t-16 -4q-15 -4 -33 -4q-11 1 -26 5 q-13 3 -25 12q-20 -5 -55 -10q-38 -6 -58 -7h-19h-20h-15h-15q-25 1 -73 7q-33 4 -69 14q-23 0 -55 -5q-19 -4 -57 -10q-3 0 -10 -1t-10 -2l-21 -3q-22 -4 -45 -6q-30 -2 -43 -2q-42 0 -78 13q-37 12 -66 44q-4 17 -6 30q-2 18 -2 26zM768 934q10 -38 13 -85q4 -56 5 -91v-6 v-7q1 -27 5 -72q1 -32 8 -69l2 -4l2 -4q1 -3 4 -6q0 -2 2 -8q1 -2 2 -5t2 -4q11 -6 23 -9t24 -3q5 0 7 1t7 1q11 1 31 7q14 4 25 12q59 2 101 45t69 96q10 18 18 36q8 17 17 34q0 40 -4 71q-3 22 -11 66q0 5 -1 6t-1 4q0 4 -1.5 14t-2.5 15q0 5 -2 14t-2 14q-10 9 -27 24.5 t-23 21.5q-32 26 -48 38q0 2 -1 3t-3 1l-9 9q-8 6 -10 8q-19 7 -44 12q-26 5 -50 6q-6 0 -9 1t-12 1q-8 0 -13 1l-15 3q-36 -13 -44 -43t-9 -61q-1 -19 -5 -48q-5 -25 -20 -40z" />
<glyph unicode="e" horiz-adv-x="1198" d="M55 1522q0 9 2 35q1 18 9 36q13 17 35 25q19 6 42 6h14q5 0 15 -2q11 0 16 -1t13 -3q11 -4 21 -6q14 -2 22 -2q16 0 33 3q19 3 32 7q11 1 33 5q16 3 35 3q6 0 22 -2q11 -2 23 -6q2 -1 6 -2.5t5 -1.5q5 -2 11 -6q14 5 32 10q6 2 16 4t16 4q9 1 31 3q11 1 30 1q33 0 66 -3 q34 -3 65 -9h4h3q11 -2 32 -4t31 -4q28 -4 61 -4q19 13 45 20q31 9 56 10h12h12q36 0 64 -12q29 -12 41 -41q-1 -3 -2 -10t-2 -10q-2 -14 -2 -21q0 -22 4 -41q5 -27 10 -43q1 -7 3.5 -22t4.5 -22q4 -19 4 -42q0 -9 -2 -23q-1 -11 -6 -22q0 -6 1 -10t1 -12q2 -8 2 -12v-15 q2 -8 2 -12v-13q0 -18 -4 -30q-4 -14 -18 -25q-43 -7 -75 -8q-48 -2 -71 -2h-24h-25h-12q-4 0 -12 2h-37h-37h-12h-13q-25 -13 -42 -31q-16 -19 -29 -45v-3v-1v-3v-3q0 -37 25 -49q24 -14 55 -21h5q3 0 5 -2q9 -1 27 -5q11 -3 22 -9q26 14 61 21q34 6 74 6q19 0 53 -2 q29 -3 47 -7q15 -13 20 -25q5 -15 5 -30q0 -16 -4 -29q-5 -18 -10 -32q0 -16 3 -34q4 -21 7 -34q4 -13 7 -32q3 -16 3 -34q0 -16 -4 -29q-5 -17 -14 -32q-12 -8 -21 -11q-12 -3 -24 -3q-7 0 -21 2q-11 1 -22 6q-4 1 -12 2.5t-11 1.5q-16 2 -22 2q-13 0 -24 -4 q-14 -5 -26 -14l-12 3l-12 3q-8 0 -11 1l-12 3l-24 3q-9 1 -25 1q-20 0 -39 -6q-20 -6 -37 -23l-3 -12q-1 -4 -1 -14q0 -3 -1 -4t-1 -5q0 -10 -5 -25q-4 -13 -17 -24v-7v-7q1 -34 20 -66q17 -33 53 -43q3 -1 8 -2t8 -1q5 -1 15 -1h14h15q16 0 50 2q16 1 46 7q9 1 25 2.5 t24 1.5q30 2 45 2q19 0 29 -1q9 -1 29 -3q5 -2 15 -4.5l14 -3.5q13 -4 28 -11q17 -12 21 -25q4 -12 4 -30q0 -6 -2 -20q-3 -10 -3 -19l-2.5 -10t-1.5 -9q-2 -14 -2 -20q0 -5 2 -17q2 -11 9 -18q4 -12 6 -23q2 -16 2 -22q0 -16 -3 -31q-4 -20 -7 -30q-1 -2 -2.5 -6t-1.5 -5 q-3 -6 -3 -10t-2 -10t-2 -10q-2 -14 -2 -21q0 -12 3 -24q3 -14 10 -25v-3v-1q0 -26 -13 -45q-13 -21 -37 -35q-125 -6 -242 -6h-237h-4h-4q-60 2 -90 2h-90q-94 0 -141 -1q-96 -2 -144 -5q-28 28 -44 63q-17 36 -17 74q0 7 2 25q2 12 6 24q3 5 7 15q3 6 3 12q0 4 -2 12 q0 2 -2 6t-2 6q0 3 -1 5l-1 2q-4 10 -6 21q-2 14 -2 22v1v3v3v1q6 19 9 40q4 26 5 40q1 12 3 38q1 13 1 40q0 19 -2 59q0 10 -2 29t-2 28q0 13 -2 37t-2 37q-2 50 -2 74q0 19 2 57q1 26 6 55q-4 28 -6 62q-1 11 -2.5 33t-1.5 32v14v13q0 48 4 85q5 47 14 79q-13 22 -21 53 q-7 27 -7 61v9v10q1 26 9 52q8 27 15 44q-16 36 -25 74q-10 36 -10 76z" />
<glyph unicode="f" horiz-adv-x="1220" d="M55 1518q0 19 1 29q0 5 1 14t2 14q0 8 1 13t1 14q27 20 58 27q29 7 63 7h20q7 0 17 -2q13 0 20 -1q6 -1 17 -1q6 0 18 -1.5t19 -2.5q24 -2 35 -2q11 3 33 5t34 3q22 2 33 2h33q39 0 58 -1q9 -1 27.5 -2t28.5 -1t29 -1t29 -2q19 -1 57 -1q19 0 53 2q8 0 25.5 1.5t26.5 2.5 q17 1 49 3q16 1 51 1q34 0 51 -1t51 -1t51 -1t50 -1q8 -2 15 -6q10 -6 15 -10q8 -10 14 -28q3 -15 3 -29q0 -8 -2 -24q-1 -5 -2 -13t-2 -13q-1 -4 -2.5 -12t-1.5 -11q-2 -14 -2 -24t1 -15q2 -9 5 -13q1 -5 7 -15q4 -7 13 -16q-2 -16 -2 -23v-22q0 -21 1 -31l3 -33q0 -6 1 -9 t1 -9q0 -13 1 -20t1 -21q0 -16 -1 -25q-2 -20 -5 -28q-22 -10 -33 -13q-18 -6 -36 -6q-14 0 -30 3q-17 3 -32 10q-11 -3 -33 -5q-24 -2 -34 -2q-7 0 -25 2q-9 1 -27 1t-27 1t-26 1q-37 0 -73 -11q-34 -12 -60 -53q2 -6 2 -8v-8v-11q0 -4 -2 -12v-6v-6q-1 -3 -2 -8t-1 -8 q-1 -6 -1 -17q0 -18 9 -32q9 -15 36 -21q18 -5 36 -6q6 -1 17 -2t17 -2h17h17h28q8 0 28 2h13q5 0 13 2q27 0 42 1t42 1h13h14q8 0 12 -1t12 -1q16 -18 22 -44q5 -27 5 -46q0 -13 -1 -19q-1 -7 -1 -20t-1 -19q-1 -7 -1 -20q0 -9 2 -29q1 -13 10 -31v-5v-5v-5v-7 q-1 -23 -10 -51q-7 -25 -39 -37q-18 2 -27 2h-28q-16 0 -44 -2q-8 -1 -22 -2t-22 -2q-13 -1 -41 -5q-21 -4 -41 -6q-16 -4 -33 -6q-6 -1 -18 -2.5t-17 -1.5q-25 -18 -33 -41q-8 -26 -8 -51q0 -14 1 -21q1 -8 3 -22v-5v-5l3 -27q1 -9 1 -26q0 -10 -2 -26q-1 -12 -6 -26 q5 -6 6 -12q1 -4 5 -10q2 -8 2 -12v-13q0 -9 -2 -23q-3 -12 -3 -22q-1 -4 -2.5 -12t-1.5 -11q-2 -16 -2 -22q0 -13 5 -26q5 -15 14 -25v-5v-5v-6v-7q0 -30 -7 -57q-8 -29 -24 -53q-10 -12 -23 -16q-15 -5 -28 -5q-11 0 -17 1q-11 1 -18 3q-11 0 -17 1q-7 1 -18 1 q-14 0 -25 -3q-12 -3 -22 -13q-8 7 -17 11q-3 1 -9 4t-9 4q-9 4 -18 4h-19q-20 0 -35 -4l-36 -9q-14 -5 -37 -10q-17 -4 -37 -4q-7 0 -21 2q-11 1 -22 6q-10 10 -19 10q-8 0 -18 -2q-1 -1 -5 -3q-2 -1 -5 -1q-6 -5 -13 -6q-10 -2 -14 -2h-4q-2 0 -4 2q-3 0 -4 1t-4 1t-5 1 t-5 1q-10 0 -14 1q-5 1 -13 1q-30 5 -54 16q-26 11 -28 40v6q0 1 1 3t1 3v5v5q0 18 -3 36q-5 27 -7 36q-3 11 -7 40q-3 20 -3 38q0 22 7 40t21 35q-8 80 -11 142q-3 69 -3 137v42q0 14 2 42v51v51q0 35 -2 109q-1 48 -8 110v12q0 3 2 11v11v11q0 22 -2 68q0 11 -1.5 35 t-2.5 37q-1 9 -2.5 27t-1.5 26q0 9 -2 26t-2 25v23v20q0 19 2 59q2 29 6 56q-9 14 -14 34q-5 18 -5 38z" />
<glyph unicode="g" horiz-adv-x="1658" d="M76 688q6 32 6 62v61v12v13q0 21 1 32q1 10 1 31q1 9 5 31q4 19 7 31q24 34 34 69q14 50 20 76v3q0 1 2 3q14 67 39 125q24 60 96 88q31 77 102 126q71 50 148 75q3 0 8 2t8 2t8 2t8 2q46 37 110 57q55 17 128 29q4 0 12 1.5t13 2.5q4 0 12 2t12 2q38 7 69 8q44 2 66 2 h37q13 0 37 -2h18h19q36 -2 55 -3q18 -1 55 -1q34 0 51 1q34 2 52 3q1 0 4 -1t4 -2q3 -1 10 -1q6 -2 9 -2h8q10 0 15 1l15 3q11 0 16 1t15 1h7q1 0 7 -2q4 0 7 -1q4 -1 6 -3q36 -14 43 -39q8 -27 8 -55v-15v-16q-2 -10 -2 -15v-15q0 -22 4 -38q5 -18 16 -34q-7 -13 -8 -25 q-2 -18 -2 -28q0 -16 3 -33q4 -22 5 -33q5 -18 6 -34q2 -22 2 -33q0 -28 -13 -50q-14 -25 -50 -39l-33 -3q-12 -1 -35 -1q-33 0 -63 3q-18 2 -62 8q-5 0 -8 1t-8 1q-11 1 -34 4t-35 4q-31 4 -72 4q-17 0 -49 -2q-22 -1 -52 -8q-54 -7 -101 -36q-54 -33 -91 -59 q-10 -9 -23 -18q-4 -2 -12 -8t-12 -8q0 -36 -8 -76q-13 -55 -17 -74q-2 -8 -3 -13t-3 -13q-10 -44 -13 -62q-5 -35 -5 -63q0 -16 1 -24q0 -5 1 -13t2 -13q11 -42 34 -71q20 -28 52 -60l1 -1l1 -1l25 -25q2 -2 22 -28l15 -3q5 -1 16 -1q29 0 55 12q23 9 41 31v21q0 6 2 22v26 v27v29q0 9 -2 29q-1 26 -7 67q-4 31 -18 58q0 8 1 12l3 12q1 19 13 40q11 20 35 24q12 3 37 5q12 1 38 1h21h18q14 -2 21 -2h18q20 0 56 2q22 1 53 10q7 -4 19 -10q9 -4 20 -6q7 -1 18 -3q14 -2 18 -2q20 0 36 4q21 4 34 7q11 1 33 5q16 3 33 3q25 0 48 -9q24 -11 44 -38 q-2 -16 -3 -25t-1 -26q-2 -16 -2 -25v-27q0 -50 4 -89q4 -43 6 -89q2 -2 2 -4v-6q3 -30 7 -92q3 -47 3 -94q0 -20 -2 -62q-1 -31 -6 -61q0 -9 1 -14q1 -6 1 -17q2 -8 2 -14v-17q2 -10 2 -15v-15q0 -28 -3 -53t-11 -48q-31 -31 -70 -40t-80 -9q-21 0 -32 1t-33 1q-21 0 -32 1 t-34 1h-17q-6 0 -18 -2q-11 0 -17 -1q-12 -2 -17 -3q-10 -2 -15 -2h-14q-23 0 -44 3q-27 4 -44 7q-14 3 -42 7q-22 3 -44 3q-20 0 -40 -3q-22 -3 -40 -13q-5 0 -7 -1t-7 -1h-7h-8q-28 0 -48 4q-34 7 -46 10q-4 0 -14 2q-5 1 -15 5q-6 1 -16 2.5t-14 1.5q-20 2 -31 2 q-9 0 -27 -2q-10 -1 -28 -7q-109 4 -199 66q-91 62 -160 137q-93 84 -146 198q-52 109 -79 226q0 3 -2 10t-2 11t-2 10t-2 10z" />
<glyph unicode="h" horiz-adv-x="1677" d="M76 1473q0 19 1 30q2 20 3 29q0 10 1 15t1 16q2 8 3 13t1 15q23 15 54 23q28 6 61 6q13 0 20 -1t21 -1q18 -1 43 -7q19 -5 39 -12q20 11 50 19q27 6 56 6q28 -1 61 -8q30 -6 50 -19q34 10 53 15q27 6 55 6h10h11q6 0 9 -1l9 -3q20 -20 29 -46q8 -27 8 -55q0 -16 -1 -24 q-2 -16 -5 -25q-14 -13 -13 -22q2 -12 7 -21q0 -2 2 -4t2 -6q5 -6 10 -18q5 -11 0 -23q5 -8 6 -18q2 -14 2 -21v-9q0 -3 -2 -11q0 -6 -1 -9q-1 -4 -1 -12l-2.5 -10t-1.5 -9q-2 -12 -2 -18q0 -18 10 -31q11 -15 39 -22q5 0 16.5 -1.5t18.5 -2.5q24 -2 39 -2q27 0 54 8 q23 7 36 31q2 44 3 65q1 10 2 31t1 31v32v31q0 54 -1 81l-3 81q10 18 30 30q26 14 40 19q1 0 5 2t5 2h5h3q15 0 30 -5q13 -4 25 -15q58 7 107 8q70 2 108 2h41q15 0 41 -2q27 0 83 -2q15 -1 42 -2.5t39 -1.5q8 -5 12 -10q4 -8 5 -13v-2q0 -1 1 -3t1 -3q0 -2 2 -4 q0 -13 2 -41q1 -8 2.5 -22t1.5 -21q0 -13 2 -41q2 -30 2 -43q0 -20 -3 -41t-9 -41q15 -20 19 -36q5 -22 5 -37q0 -16 -3 -32q-3 -19 -7 -32q-2 -9 -7 -35q-3 -18 -3 -35q0 -18 6 -36q5 -17 20 -35q3 -7 7 -19q2 -14 2 -20q0 -18 -6 -35q-2 -5 -13 -35q-3 -5 -7 -17t-5 -18 q-1 -3 -2 -8t-2 -8q-2 -10 -2 -16q0 -15 7 -29q8 -17 25 -33q-3 -17 -7 -49q-3 -26 -3 -49q0 -18 2 -48q1 -8 2 -24t2 -24q3 -17 7 -56q2 -38 2 -57q0 -42 -7 -78t-28 -78q20 -34 26 -65q6 -33 6 -68q0 -21 -1 -32t-1 -33q-2 -24 -3 -35t-1 -33v-17q0 -6 2 -20q-5 -5 -7 -8 q-4 -6 -5 -10q-2 -3 -6 -8.5t-6 -7.5q-6 -9 -19 -15q-59 9 -104 10q-70 2 -107 2q-33 0 -105 -2q-54 -2 -108 -6q-36 0 -54 -1l-54 -3q-3 0 -4 1l-2 1q-24 7 -46 31q-22 22 -28 49q0 5 -1 16t-2 16q-1 10 -1 29q0 11 -1 16t-1 15q0 31 -1 48q-2 28 -7 50q4 45 6 90 q2 58 2 87q0 47 -3 91q-3 47 -13 85q-12 13 -26 18q-13 4 -32 4q-8 0 -12 -1t-10 -1q-2 -1 -8 -2t-8 -1q-12 -2 -17 -3q-4 -1 -10.5 -2.5t-7.5 -1.5q-3 -1 -9 -2.5t-8 -1.5q-18 -10 -22 -29q-5 -22 -5 -41v-2v-2q-1 -14 -5 -35q-3 -17 -17 -30q9 -28 16 -63q6 -31 6 -66v-13 v-16q-2 -29 -9 -56q-9 -32 -17 -53q13 -30 20 -57q8 -34 8 -63q0 -17 -5 -42q-4 -20 -17 -38q-13 -13 -25 -17q-13 -6 -28 -4q-9 0 -23 2q-4 1 -11.5 2.5t-10.5 1.5q-4 1 -12 2.5t-11 1.5q-16 2 -24 2q-15 0 -26 -4q-14 -5 -26 -14q-5 2 -23 7q-13 4 -22 5l-21 3q-7 1 -24 1 q-26 0 -48 -3q-29 -4 -48 -5q-14 -2 -48 -7q-24 -3 -48 -3q-25 0 -53 5q-26 4 -54 20q-21 50 -28 97q-9 50 -9 101q0 39 3 78q2 26 8 78l3 27q1 8 1 26q3 17 5 53q1 17 1 52v11v11q-2 8 -2 11v12q-7 20 -12 42q-5 23 -5 42t1 28l3 27q0 6 2 14q2 6 3 15q0 6 1.5 20t2.5 21 q2 26 2 40q0 12 -2 36q-1 17 -9 34q0 1 -1.5 6t-2.5 8t-2.5 7t-1.5 6q0 8 -1 13t-1 13q0 18 3 37q3 21 10 37q3 14 7 37q3 18 3 37q0 13 -1 18q-3 14 -5 19q-1 5 -7 17l-12 18q0 11 -2 33t-2 34q-2 6 -2 10q0 3 -2 13q0 14 -1 22t-1 23q0 10 2 34q1 16 8 31q-9 19 -14 48 q-4 21 -4 51z" />
<glyph unicode="i" horiz-adv-x="802" d="M88 1552q0 32 16 54q17 23 61 30q6 0 18 -1.5t19 -2.5q26 -2 35 -2q9 -1 27 -2.5t26 -1.5q25 -1 49 -12q26 12 53 18t56 6h14q5 0 15 -2q18 -1 41 -8q22 -7 39 -16q20 9 36 14q22 7 37 8q8 2 12 2h9q30 0 56 -13q27 -14 40 -46q2 -18 2 -26v-25q0 -27 -1 -40 q-2 -26 -3 -38l-3 -39q-1 -13 -1 -39q0 -24 5 -54q4 -25 17 -56q-5 -27 -6 -51q-2 -34 -2 -50q0 -19 2 -57q2 -30 6 -58v-6q0 -2 2 -8q1 -30 6 -62q3 -32 3 -67q0 -13 -2 -43q-1 -14 -7 -49q0 -23 3 -47q1 -9 2.5 -25t1.5 -24q0 -7 1.5 -23t2.5 -24q0 -8 1 -25t1 -25v-16 v-16q0 -24 -2 -70q-3 -35 -15 -65q6 -7 9 -15q2 -10 2 -18t-1 -11q-1 -4 -1 -10q-2 -10 -2 -15v-13q0 -9 3 -16q3 -9 11 -17q-6 -20 -9 -42t-3 -42q0 -21 1 -32q2 -22 3 -32q0 -10 2 -32q2 -16 0 -33q0 -12 -2 -36q-1 -19 -6 -40q-11 -27 -32 -36q-22 -9 -44 -9h-8 q-3 0 -9 2q-5 0 -8 1t-8 1q-15 8 -27 11q-14 3 -30 3q-7 0 -25 -2t-27 -2q-4 0 -13 -2t-14 -2q-18 -2 -26 -2q-9 0 -27 2q-12 1 -28 10q-26 -8 -52 -12q-25 -4 -57 -4q-17 0 -26 1q-10 1 -27 1q-10 0 -14 1t-15 1l-39 3q-13 1 -38 1h-12h-13q-5 0 -6 -1t-6 -1q-11 35 -19 74 q-8 40 -8 76q0 26 5 58q4 26 14 54q-9 32 -10 52q-3 24 -3 49q0 31 3 60q4 38 7 59q2 10 4 29t4 29q3 28 3 58q0 32 -4 60q-5 34 -17 63v4v4v2v4q0 12 -2 38q-1 7 -2.5 19.5t-1.5 18.5t-2 18t-2 18q-2 22 -2 36q0 16 1 25q2 16 5 24q0 4 7 23q5 12 12 24q-19 35 -21 75 q-1 15 -1 45q0 24 1 36v5v7v13v12v16q0 6 -2 16q0 9 -1 15q-1 5 -1 16q0 9 3 20q4 12 5 17t5 22q3 10 3 21q0 9 -3 20q-3 10 -13 17q0 5 1 8t1 10q2 6 2 9v8q0 13 -1 20l-3 21q0 5 -2 17q0 3 -1.5 9.5t-2.5 10.5q-3 11 -7 40q-3 19 -3 37z" />
<glyph unicode="j" horiz-adv-x="1255" d="M58 488l3 12q12 7 20 8q12 2 17 2q7 0 21 -2q9 -1 20 -6q3 0 4 -1t7 -1q8 -3 24 -7q11 -4 27 -4h1h3h3h1q9 3 30 5h29h22h23q14 -2 22 -2h23q63 34 102 93q41 64 68 122q6 14 10 21q2 4 5 11t4 11l12 24q8 16 12 25q0 6 -2 20t-2 21q-3 25 -7 72q-4 48 -5 73q0 24 -1 37 q-1 12 -1 37q0 46 4 79q5 40 12 70q-15 18 -20 38q-7 25 -8 42v11v8q0 11 1 16t1 16q0 6 1 9t1 10q0 16 1 25q1 8 1 24v7v5q-2 6 -2 8v5q1 2 2 8t1 8q1 6 -1 16q0 14 -1 21t-1 20q0 14 -1 22q-1 7 -1 21q2 28 9 50t32 34h6l6 2h5h5q20 0 39 -3q23 -4 37 -7q13 -3 34 -7 q16 -3 34 -3q13 0 18 1q8 1 18 3q6 4 18 7q10 3 17 9q6 0 9 1t10 1q6 2 8 2h8q8 0 24 -2q3 0 11 -1.5t12 -2.5q8 0 11 -1t10 -1q14 -3 37 -7q18 -3 36 -3q15 0 22 1q12 2 19 5q2 0 6 2t6 2t5 2t4 2q14 -2 21 -2h20q25 0 48 -5q20 -4 28 -34v-13v-13q-2 -8 -2 -13v-14 q0 -44 3 -87q4 -58 5 -87q2 -18 2 -29q0 -12 2 -30q0 -9 1 -29t2 -29q1 -20 1 -59q0 -38 -1 -56q-2 -38 -5 -57q3 -8 7 -24q5 -22 5 -23l3 -24q1 -9 1 -25t-1 -25q-1 -4 -2 -14t-1 -14q-2 -18 -6 -39t-6 -39q-10 -46 -13 -68q-6 -34 -6 -69v-23q0 -8 2 -22q-9 -16 -13 -32 q-6 -24 -7 -36q-5 -27 -17 -59q-12 -29 -49 -45l3 -15q1 -6 -1 -14q0 -39 -18 -73q-16 -31 -41 -64q-6 -11 -13 -19q-3 -3 -7 -10t-7 -10q-2 -2 -10 -16q-1 -2 -3.5 -8t-4.5 -9q-8 -8 -20 -14q-18 -8 -27 -13h-1h-1q-26 -12 -42 -22q-21 -13 -22 -41q-11 -6 -19 -13 q-14 -12 -20 -16q-3 -3 -9 -7t-9 -7q-22 -17 -47 -30t-55 -13h-12q-5 0 -15 2q-31 -42 -73 -53t-87 -15q-8 -2 -11 -2h-11q-6 -1 -35 -5q-18 -3 -35 -9q-36 5 -65 32q-29 25 -50 60q-2 3 -7 16q-5 12 -5 13q-8 8 -12 11t-10 11q-47 47 -86 101q-39 52 -48 116l-17 17 q-6 5 -17 16q-23 19 -38 37q-16 19 -16 40q0 13 1 18z" />
<glyph unicode="k" horiz-adv-x="1667" d="M76 1036v13q0 4 2 14q1 26 10 63q7 30 18 58q-15 27 -22 58q-6 28 -6 56q0 11 2 37q1 7 2.5 19t1.5 18v2v4q2 18 3 39q1 14 1 39q0 17 -2 43q-1 16 -10 39v7v5q5 27 14 43q11 21 29 33q10 2 16 2q5 0 17 2h8h8q24 0 47 -6q22 -6 35 -22q25 15 48 23q24 9 50 9q6 0 22 -2 q10 -2 21 -6q10 -18 22 -25q11 -8 23 -8q11 0 25 8q8 5 26 15q13 8 28 15q14 7 30 7h3h3h13h16h5h5h9h9q36 0 64 -6t39 -35q1 -2 2.5 -6t1.5 -5q2 -6 2 -9q2 -6 2 -9v-12q0 -4 -2 -18q-1 -4 -2.5 -10.5t-1.5 -7.5q-1 -5 -5 -17q-3 -11 -6 -18q-8 -24 -11 -36q-5 -22 -5 -38 q0 -17 7 -31q7 -15 24 -32q3 -3 5 -9q1 -4 1 -12v-5v-5v-5v-5v-6v-7q0 -12 3 -22t13 -19q26 11 42 28q17 17 30 36q20 25 38 43q20 20 52 29q28 55 77 100q47 43 109 67q5 30 30 55t59 27q8 -2 12 -2h12h13q4 0 14 2h12h12q23 0 41 -9q16 -9 21 -38q55 -5 97 -46t67 -91 q1 -2 8 -18q4 -10 6 -19q5 -4 17 -12q8 -6 18 -12q20 -15 35 -30q16 -16 16 -40v-3v-5q0 -29 -18 -46q-21 -19 -41 -34q0 -1 -2 -2l-2 -1q-3 -2 -3 -3q-1 0 -8 -5t-8 -5q-19 -1 -34 -13t-27 -24l-1 -1l-1 -1q-11 -10 -28 -23q-15 -12 -36 -12h-2q-6 -35 -30 -59t-54 -46 q-1 -1 -5 -3t-5 -3q-28 -22 -52 -46q-24 -22 -24 -58q0 -8 1 -12q1 -5 3 -13q0 -1 -1 -2.5t-2 -2.5t-1 -2q-2 -4 -2 -7q-2 -6 -2 -7v-7q0 -6 1 -9q1 -4 3 -10q0 -2 2 -6t2 -6t2 -6t2 -6q8 -16 11 -25q4 -12 4 -29v-3v-3q-2 -2 -2 -3v-3q6 -10 15 -13t21 -3h6h5h5h5 q8 0 18 -2q8 -2 15 -9q22 -16 35 -23q24 -14 36 -20q2 0 4 -2t4 -2q1 0 2 -1t2.5 -2t2.5 -1q23 -11 56 -31q27 -19 46 -41q1 0 7.5 1.5t10.5 2.5q6 1 17 1q19 0 37 -8q17 -9 18 -31v-5v-8q0 -16 -4 -29q-1 -6 -4 -16t-4 -16q-3 -6 -10 -28q-4 -13 -4 -29q0 -11 5 -24 q4 -12 15 -23q7 -8 8 -17q2 -14 2 -18q0 -12 -3 -24q-3 -14 -7 -23q-6 -13 -9 -22q-3 -10 -3 -21q0 -9 4 -17q5 -10 12 -18l2 -4t1 -4q1 -3 1 -9q2 -6 2 -8v-8q0 -15 -4 -27q-6 -18 -10 -26q-1 -3 -3 -7l-3 -6q-5 -11 -6 -21q-2 -14 -2 -22q0 -5 2 -19q1 -10 10 -22v-3v-5 q1 -25 -17 -40q-14 -13 -37 -13h-6h-3h-5q-14 0 -26 3q-14 3 -23 7q-2 0 -6 2t-6 2t-6 2t-6 2q-3 0 -9 2q-4 1 -10 1q-7 -1 -21 -5q-14 -5 -24 -14q-11 1 -28 5q-20 4 -31 7q-48 13 -99 43q-48 27 -71 82q-83 0 -136 48q-53 47 -100 106l-7 7q-4 4 -5 7q-38 46 -57 67 q-28 31 -64 56q0 3 -2 7q-1 2 -6 7q-3 3 -4 5q-2 2 -2 4q-10 -4 -13 -11q-4 -7 -4 -16q0 -8 1 -11t3 -11q0 -8 1 -11q1 -4 1 -12q0 -6 -1 -9l-3 -9l3 -15q1 -5 1 -16q0 -18 -5 -36q-4 -15 -11 -34q0 -3 -1 -4t-1 -4q-3 -6 -10 -28q-4 -13 -4 -31q0 -3 1 -4q1 -2 1 -7v-4 q0 -1 1 -3t1 -3q0 -3 1 -5t1 -5q10 -7 13 -19t3 -24v-9v-10v-3v-1q-2 -8 -2 -12v-10v-3v-3q-20 -27 -53 -35q-35 -8 -68 -8h-15h-15q-7 0 -15 5q-7 4 -14 11l-1 1l-1 1q-6 8 -18 17q-11 6 -27 -1q-19 -27 -52 -36q-32 -9 -67 -9h-11q-3 0 -9 2h-11h-12q-5 1 -17 5 q-11 1 -18 6q-5 0 -7 1q-4 2 -7 3q-9 4 -27 10q-12 4 -28 4q-14 0 -27 -6t-27 -23q-6 -2 -9 -2h-9q-28 0 -50 15q-23 13 -28 37q2 16 2 24v23q0 25 -1 38q-1 7 -2 19t-1 19l-3 36q-1 11 -1 35q0 28 5 61q5 29 20 58q-14 53 -20 102q-7 49 -7 103v25v24q0 9 1.5 29t2.5 31 q1 10 2.5 30t1.5 29q5 44 6 83q2 54 2 79v5v5v5v5q-13 24 -17 48q-5 27 -5 50z" />
<glyph unicode="l" horiz-adv-x="1239" d="M55 1415q0 13 2 41q1 7 2.5 21t1.5 20q0 19 3 38q2 26 2 38v5v3q22 31 61 39q40 8 76 8h16h17q10 -2 16 -2h16q16 -10 25 -14q11 -6 26 -4h7h6q3 0 5 1q4 2 5 3q19 16 44 21q27 5 50 5q22 0 34 -1q22 -2 32 -5q6 -8 16 -14q7 -4 19 -4q6 0 9 1t11 3q6 1 11 5q9 6 10 7h4 h4h4h4h20h17q14 0 32 -5q14 -4 25 -23q0 -8 1 -13t1 -16v-4v-4q2 -24 3 -37t-1 -37q0 -29 -4 -52q-5 -30 -14 -50q11 -20 19 -50q7 -29 9 -57v-11v-11q0 -25 -4 -45q-5 -26 -14 -41q12 -51 18 -105q5 -62 5 -111q0 -27 -1 -40q-1 -14 -1 -41q-1 -29 -7 -82q-2 -14 -6 -41 t-6 -41q13 -13 18 -32q3 -19 3 -40v-12v-13q-2 -8 -2 -11v-11q1 -27 12 -48q11 -23 49 -30q18 -2 28 -2h25h19q4 0 18 2h18h17h18h17q5 0 16.5 -1.5t17.5 -2.5q15 -1 35 -8q18 8 37 11q21 3 41 3q21 0 32 -1q20 -2 30 -5q23 -23 29 -48q5 -28 5 -52q0 -11 -2 -33t-2 -33 q-1 -6 -2 -16t-2 -16q-2 -22 -2 -33q0 -9 2 -27q2 -14 6 -29q0 -8 1 -11t3 -11t4.5 -24t3.5 -23q3 -26 3 -50q0 -13 -2 -35q-1 -17 -9 -34q-7 -13 -22 -18t-31 -5h-11q-3 0 -9 2h-11h-10q-2 7 -6 11q-5 5 -6 8q-3 1 -7 3q-2 1 -7 1q-8 0 -16 -5q-9 -4 -17 -11q-9 -9 -17 -13 q-11 -6 -18 -6q-18 8 -33 11q-18 3 -35 3q-9 0 -29 -2q-6 0 -16 -2t-16 -2q-4 0 -14 -1.5t-15 -2.5q-22 -2 -30 -2q-18 0 -33 4q-18 5 -33 13q-3 -2 -16 -7q-7 -4 -15 -6q-11 0 -16 -1t-16 -1h-13q-6 0 -14 2h-7q-1 0 -7 2q-13 0 -19 1q-7 1 -20 1q-11 0 -16 -1 q-12 -2 -17 -3q-2 0 -8 -2q-1 0 -4 -2t-4 -2l-21 3q-8 1 -22 1q-19 0 -29 -1l-33 -3q-6 0 -9 -1t-11 -1q-13 0 -20 -1t-21 -1q-25 0 -50 5q-24 4 -47 20q-19 -12 -43 -18q-22 -7 -49 -7q-8 0 -24 2l-12.5 2.5t-10.5 1.5q-1 0 -4 2t-4 2t-4 2t-4 2q-14 6 -29 18 q-15 10 -16 25q0 44 -2 130q-1 22 -2.5 63t-1.5 59q-2 37 -3 72q-1 11 -2 35t-2 35q0 49 -1 74q-1 24 -1 73v57q0 18 2 54q-2 6 -2 8v6q0 9 5 21q7 16 8 18q7 16 8 18q4 7 4 17q0 5 -1 8q-1 1 -2 4t-1 4l-8 8q-4 3 -11 8q0 36 1 55q1 18 1 56q0 19 2 59q1 19 1 58v17v18 q0 81 1 120q2 75 5 111q-7 21 -12 46t-5 46z" />
<glyph unicode="m" horiz-adv-x="2080" d="M94 756q11 17 15 32q4 13 4 29q0 7 -2 21t-2 20q-1 4 -2 11t-2 10q-3 11 -3 18v6v4q0 17 2 51q1 15 5 50v17q0 7 2 17q0 22 1 34t1 34q0 29 -3 59q-5 30 -12 56l2.5 10t1.5 9q2 12 2 20q2 14 2 19v20q0 16 -2 46q0 7 -2 23t-2 23t-2 22t-2 23q-2 30 -2 43q0 35 9 69 q7 31 32 64q10 10 22 13q11 3 19 3q11 0 24 -5l21 -9q3 -1 7 -3t5 -3q11 -5 20 -6q12 -2 19 -2q9 0 22 5q10 4 21 17q34 -4 100 -10q43 -4 93 -4q30 0 44 1t44 3q22 2 45 6q8 2 22 4.5t21 3.5l12 3q4 1 13 1q26 -1 43 -21q15 -18 28 -42q2 -3 4 -8t4 -7q5 -13 7 -16l3 -3 q1 -1 1 -3q5 -43 26 -61q19 -19 47 -37l1 -1q1 -1 4 -1q21 -13 44 -34q22 -20 29 -54q10 -1 19 -6t16 -11q2 0 3 -1t3 -1q14 -8 26 -14q13 -6 30 -6q6 0 9 1t11 3q12 26 29 40q18 17 39 33q29 24 50 48q23 25 23 63q4 7 14 21q7 9 13 22q23 33 42 55q19 23 48 41 q19 -9 30 -10q18 -2 27 -2t29 2q4 0 14 1.5t15 2.5q4 0 14 1.5t15 2.5q18 2 28 2q9 0 14 -1t15 -1q6 -2 7 -2t7 -2q3 2 11 5q5 1 12 3q8 2 11 2h11q16 0 31 -3q29 -6 31 -7h1q1 0 1 -2q14 -2 29 -6q12 -4 28 -4q20 7 36 11q26 6 40 7q8 2 13 2h13q22 0 39 -4q21 -5 33 -14 q20 -51 27 -117q6 -67 6 -137v-24v-25q0 -44 1 -67q1 -31 3 -64q-1 -4 -5 -12q-3 -8 -3 -13q-2 -10 -2 -14v-12q0 -17 3 -33q4 -22 5 -33q5 -17 6 -32q2 -22 2 -34v-4v-4q0 -1 -1 -3t-1 -3v-4v-3v-5q0 -19 1 -28q2 -15 3 -27q1 -4 2 -14t1 -14q1 -10 1 -30t-3 -37 q-3 -18 -13 -34q6 -7 9 -15t3 -16q0 -5 -1 -8t-1 -9q0 -3 -1 -4l-1 -2q0 -8 -1 -12t-1 -12q0 -4 2 -12q1 -3 2.5 -7t1.5 -6q11 -26 18 -55q8 -32 9 -64v-9v-11q0 -27 -6 -52q-8 -29 -23 -46q3 -13 9 -41q5 -22 12 -41q2 -10 7 -31t8 -31q7 -29 7 -61q0 -11 -1 -17 q-1 -11 -3 -18q0 -11 -3 -18q-4 -12 -7 -19q15 -22 25 -47q10 -26 10 -55q0 -7 -2 -21q-3 -14 -7 -22q-11 -6 -23 -9q-10 -4 -22 -6q-9 -4 -21 -4h-24q-11 0 -37 2q-6 0 -20 1.5t-21 2.5q-12 1 -38 5q-28 2 -41 2h-3h-4q-26 -6 -46 -9q-19 -4 -44 -4q-27 0 -54 3 q-37 4 -60 5q-3 0 -5 1q-3 1 -6 1h-5h-5q-8 0 -30 -2q-5 0 -16 -2t-17 -2q-6 -2 -8 -2q-3 0 -11 -2l-24 -3q-9 -1 -25 -1q-27 0 -49 13q-22 12 -33 44q2 24 3 37t1 39q0 19 -1 30q-1 10 -1 32q-2 24 -2 39q0 13 -2 41v22v25v23q0 8 2 22q0 23 3 46q4 30 7 44q-10 11 -13 32 q-3 19 -3 37v12v11q0 35 -6 60q-6 24 -41 24h-3h-3q-1 -4 -6 -7q-1 -1 -3.5 -2.5t-3.5 -2.5q-17 -18 -41 -36q-23 -16 -51 -16q-3 -4 -7 -12l-7 -14q-20 -39 -51 -72q-28 -31 -73 -31h-5h-4h-4q-31 18 -51 38q-8 8 -23 22t-23 22q-3 3 -4 5l-4 4q-30 31 -55 54t-68 44l1 1 q1 1 4 1q5 5 7 8q3 5 3 8v2q-6 5 -11 3q-4 -1 -10 -3q-7 -4 -14 -4q-6 0 -12 11h-3h-3q-14 0 -20 -11q-7 -11 -7 -28v-4v-5q0 -3 1 -4t1 -4v-4v-4v-4v-4q0 -21 1 -32q1 -6 2 -17t1 -17t1 -16t2 -16q1 -11 1 -33q0 -10 -2 -32q-1 -16 -8 -32q2 -8 3 -13t1 -15q4 -13 6 -27 q0 -4 1.5 -14t2.5 -15q4 -29 12 -85q5 -47 5 -83q0 -27 -3 -54q-6 -35 -10 -54q-17 -20 -38 -27q-24 -8 -48 -8h-13q-5 0 -13 2q-14 1 -40 7q-16 4 -36 11q-2 2 -6 4t-5 3q-6 2 -10 2q-2 0 -8 -2q-1 -1 -4 -2t-4 -2q-2 0 -3 -1q-2 -2 -3 -2q-4 -1 -12 -5q-7 -3 -15 -3h-5 q-1 0 -7 2q-26 0 -39 -1l-39 -3h-9h-9q-17 -1 -49 -3q-17 -1 -50 -1h-27q-10 0 -28 2q-42 22 -58 52q-16 27 -14 61q0 18 4 35q4 24 5 37q5 19 6 42q2 28 2 44q0 13 -1 18q-2 7 -3 18q0 7 -3 18q-3 8 -8 17q-4 22 -6 43q-2 26 -2 39q0 24 3 50q4 33 5 46q2 28 6 57 q3 27 3 54q0 26 -5 59q-7 34 -16 58z" />
<glyph unicode="n" horiz-adv-x="1662" d="M51 1526q0 14 6 27q6 12 15 24q2 1 4 4t4 5q4 4 6 9q15 9 33 16l33 9q11 0 16 1t16 1q27 0 57 -8q27 -8 54 -21q17 20 38 27q21 6 48 6h13q4 0 14 -2h14q4 0 12 -2q10 0 15 -1q4 -1 12 -1q3 -4 9 -10q4 -4 11 -6q3 -3 10 -5q6 -2 9 -2q10 0 20 6l21 9q2 1 23 10q9 4 22 4 q8 0 15 -3t15 -9q4 -3 12 -7q3 -2 11 -8q38 -28 71 -67q31 -38 31 -86v-1v-3v-3v-1q2 -2 15 -8q10 -6 14 -9q35 -21 68 -57q29 -34 34 -78q24 -11 41 -24q22 -20 33 -29l5 -5l5 -5q11 -10 28 -23q15 -13 30 -20q16 17 22 39q6 19 6 41q0 9 -2 27q0 4 -1.5 13.5t-2.5 14.5v1 v3q-2 13 -3 30q-1 10 -1 29q0 12 2 30q1 10 10 28q-12 22 -15 47q-4 31 -5 51q0 11 -1 18q-1 6 -1 17q-2 8 -2 12t-2 12q31 24 74 35q39 10 86 10q32 0 70 -5q33 -4 65 -15h1h3h3h1q16 0 24 1q7 1 21 1q4 0 12 2t12 2q3 0 11 1.5t12 2.5q15 1 47 5q22 3 47 3h20q7 0 17 -2 l4 -4l4 -4q1 -4 5 -6l4 -4q5 -6 6 -10q2 -6 2 -11v-5v-7q0 -11 1 -18t1 -19l2.5 -10t1.5 -9q1 -3 2 -9t2 -9q1 -12 5 -36q3 -19 3 -35q0 -18 -6 -36q-5 -16 -20 -34q1 -11 5 -33q4 -24 7 -35q0 -8 1 -13t3 -13q3 -17 7 -49q3 -25 3 -47q0 -33 -7 -58q-7 -28 -24 -55 q10 -24 14 -36q6 -27 7 -38q3 -12 5 -38q1 -13 1 -38q0 -20 -2 -58q-1 -10 -2.5 -29.5t-1.5 -28.5q-5 -31 -6 -60q-2 -40 -2 -61v-6v-6v-7v-8q-6 -1 -9 -6l-6 -6q-1 -3 -3 -7q-1 -2 -1 -7q0 -7 5 -15l4 -8l4 -8q2 -9 6 -16q4 -8 4 -17q1 -8 3 -26q2 -20 3 -29q1 -2 2 -8 t1 -8q1 -6 1 -19q1 -9 3 -29q1 -11 1 -30q0 -35 -7 -63q-8 -30 -28 -58q11 -24 22 -58q8 -28 13 -65v-11v-12q0 -34 -7 -61q-8 -29 -24 -53q-18 -15 -37 -19q-23 -6 -44 -6h-12q-5 0 -13 2q-10 0 -14 1q-8 2 -13 3q-13 13 -24 17q-12 4 -27 4q-14 0 -32 -5q-16 -4 -33 -12 q-24 -8 -35 -11q-18 -5 -33 -5q-19 0 -35 9q-18 9 -35 32q-7 13 -20 26q-4 4 -12.5 11.5t-12.5 11.5q-2 0 -3 1t-1 3q-23 18 -41 41t-18 60q-53 22 -86 62q-30 36 -55 81q-28 44 -54 80q-29 38 -84 61q-12 26 -34 42t-52 16q-15 -25 -20 -61q-4 -31 -4 -68v-5v-8v-5v-5 q0 -33 -3 -62q-3 -31 -16 -57q16 -36 23 -55q10 -27 10 -57q0 -14 -3 -27t-9 -27q5 -11 6 -19q2 -12 2 -20q0 -13 -4 -22q-5 -12 -14 -21q-8 0 -11 -1q-4 -1 -10 -3q-3 0 -8 -1t-8 -2q-12 -2 -17 -3l-27 -3q-9 -1 -26 -1q-27 0 -48 7q-25 8 -44 24q-16 -16 -34 -22 q-17 -7 -40 -5h-16q-5 0 -17 2h-18h-16q-11 0 -17 -1q-3 -1 -10 -2t-10 -1t-8 -1t-8 -2q-6 -1 -15 -1q-10 -2 -16 -2h-17q-31 0 -65 8q-31 7 -58 29q-7 21 -12 49q-4 23 -4 51v13q0 4 2 12q1 24 9 50q8 25 18 44l-12 63q-5 22 -11 64q0 5 -1 16t-2 16q-1 10 -1 31q0 33 5 73 q4 35 20 71q-13 28 -21 62q-9 37 -10 65v13v13q0 45 7 83t15 73q-2 8 -3 11t-1 10q-6 32 -12 60t-6 54q0 11 1 16t1 15q1 7 7 30q2 7 13 31q-15 29 -20 55q-6 27 -6 54q0 12 2 42q2 21 6 42q0 6 1.5 20t2.5 22q2 28 2 42q0 31 -8 65q-7 29 -31 58z" />
<glyph unicode="o" horiz-adv-x="1939" d="M88 727q0 29 3 58q4 38 7 59q1 21 5 58q3 28 3 56v14q0 5 -2 15q0 11 -1 16t-1 13q9 16 19 37q9 22 14 39q2 2 2 4t2 4q14 40 33 74q17 32 53 59q12 46 41 80q25 30 64 63q7 7 21 19q14 10 22 18q32 1 58 24q25 22 44 48q8 10 13 15q8 10 12 16q27 27 61 33q44 6 68 7 q43 5 75 13q35 8 62 41q29 0 52 4q29 5 46 10q4 0 11 2t10 2t10 2t10 2q4 0 12.5 1.5t13.5 2.5q18 2 27 2q21 0 38 -4q24 -6 40 -14q5 1 17 3q5 1 16 1q8 2 15 2h16q54 0 103 -18q53 -21 91 -49q6 0 9 -1q6 -2 8 -2q6 -2 9 -2t11 -2q34 -5 73 -20q35 -13 52 -57 q79 -12 138 -70q58 -58 87 -131q53 -43 93 -106q38 -59 38 -126v-10v-11v-11q0 -8 -1 -11l-3 -12q24 -42 35 -94q10 -47 10 -102q0 -27 -1 -41q-2 -21 -3 -39l-3 -24q-1 -9 -3 -25q-1 -2 -2 -8t-1 -8q-1 -6 -1 -17q-36 -20 -43 -53q-9 -38 -10 -68q-1 -6 -2.5 -18t-1.5 -17 q-1 -17 -8 -35q-20 -20 -32 -33q-24 -26 -36 -38q-30 -31 -52 -50q-30 -26 -57 -41q-35 -68 -100 -115q-64 -48 -137 -75q-3 0 -9 -2l-12 -4q-6 2 -9 2h-9q-17 0 -34 -9q-5 -3 -17 -10t-17 -10q-1 0 -3 -2t-3 -2l-10.5 -7t-11.5 -7q-11 -7 -23 -8q-6 -1 -16 -2t-16 -2 q-22 -4 -33 -7q-18 -3 -60 -7q-40 -4 -61 -7q-21 0 -31 -1q-11 -1 -33 -1q-19 0 -28 1q-15 1 -27 3q-15 0 -28 3q-20 4 -29 5q-18 14 -39 18q-28 4 -43 5q-16 0 -24 1q-17 2 -25 5q-4 1 -14.5 3.5t-16.5 4.5q-6 1 -17 4t-16 4q-2 2 -5 2h-5q-45 12 -102 34q-49 19 -78 71 q-109 22 -165 103q-57 79 -97 173q-1 2 -8 18q-6 12 -9 17q-14 31 -27 60q-12 26 -30 55q-18 34 -24 69q-7 31 -7 68zM741 741q0 -59 17 -118q16 -58 65 -101q12 -2 24 -6q14 -6 21 -10q22 -8 34 -11q18 -6 36 -6q8 0 18 3q3 1 9 2.5t8 1.5q64 14 101 63q38 51 59 105 q7 18 12 36q1 6 4 17t4 16q0 19 1 30l3 30q0 21 1 32q2 20 3 31v17v16q0 45 -6 86q-6 40 -29 74q-16 6 -27 17q-10 9 -22 24q-2 0 -2 1v1q-13 17 -31 32q-17 13 -45 13q-1 1 -5 3q-2 1 -5 1h-1h-1q-4 3 -12 7q-5 3 -12 11q-62 -12 -109 -46q-51 -35 -94 -83l-3 -15 q-1 -5 -1 -16v-12q0 -4 2 -12v-17v-18v-15q0 -8 -4 -16q0 -7 -2 -25q0 -4 -2 -14t-2 -14q0 -9 -1.5 -27t-2.5 -28q-3 -29 -3 -60z" />
<glyph unicode="p" horiz-adv-x="1624" d="M74 125q0 13 1 19q1 2 2 8t1 8q7 15 8 29q2 18 2 28q0 17 -1 26l-3 27q-1 8 -3 26q-1 9 -1 26q0 20 4 37q4 18 12 36q8 6 12 13q3 6 3 14t-4 15q-6 10 -7 16q-6 7 -9 17q-3 9 -3 17l-3 45q-1 15 1 41q0 45 3 90q4 58 5 87q5 44 6 85q2 56 2 85q0 40 -3 81q-3 42 -13 78 q5 18 6 37q2 26 2 33q0 11 -2 37q0 6 -1.5 18t-2.5 19q-1 5 -3 17q-1 6 -1 17t-1 18q-1 6 -1 17t1 18q1 6 1 17q6 22 10 34q5 14 17 36q-10 35 -13 57q-6 28 -6 59q0 9 2 35q1 7 2.5 19t1.5 18q20 23 47 38t58 15h8q2 0 8 -2q5 0 8 -1l9 -3q20 -15 48 -23q24 -7 52 -7 q33 0 67 8q29 7 60 20h22h23h6h8h15h14q43 0 83 -6q41 -6 73 -31q43 15 85 23q50 8 93 8h9h9q49 -1 100 -17q50 -17 84 -44l9 3q3 1 10 1h8h8q40 0 78 -23q35 -22 72 -53q5 -5 8 -7t8 -7q6 -7 14 -11q5 -4 13 -10q-2 -6 -2 -8v-8q0 -16 9 -25q9 -11 21 -18q3 -3 10 -8t10 -8 q9 -9 11 -23q55 -7 82 -50q27 -41 45 -89q3 -7 7 -19q5 -16 5 -18q1 -2 3.5 -9t4.5 -10q3 -12 7 -18q1 -11 5 -28q4 -19 5 -32q0 -3 1 -8t2 -8t2 -8t1 -8q1 -6 2.5 -16t1.5 -15q2 -22 2 -33q0 -27 -9 -53t-32 -49q0 -6 1 -9q1 -4 1 -10q2 -8 2 -11v-9q0 -60 -29 -118 q-27 -52 -65 -107l-2 -2t-1 -2q-2 -4 -3 -5q-21 -5 -32 -17q-13 -13 -21 -30q-1 0 -3 -2q-1 -1 -1 -4q-9 -15 -21 -28t-35 -13h-3q-1 0 -3 2h-3h-3q-12 -42 -45 -65t-69 -39q-1 0 -13 -5q-9 -4 -16 -5q-6 -5 -13 -6q-10 -4 -14 -7q-13 4 -39 10q-19 3 -39 3q-23 0 -48 -5 q-20 -5 -46 -14q-16 -6 -23 -9q-8 -3 -24 -11q-9 -1 -29 -3q-11 -1 -32 -1q-30 -1 -63 -8q-30 -8 -46 -35q-1 -4 -2 -14t-1 -14q-1 -10 -1 -32q0 -24 1 -37l3 -39q0 -24 1 -37t1 -38q0 -18 -2 -48q-1 -22 -8 -47q-6 -5 -18 -10q-11 -4 -21 -6h-7h-7q-14 0 -27 3q-18 4 -25 5 q-11 24 -21 31q-11 8 -24 8q-11 0 -24 -5q-2 -1 -25 -11q-16 -10 -25 -13q-13 -6 -28 -6q-5 0 -15 2q-9 2 -16 6q-5 0 -15 2q-5 1 -13 1q-10 2 -15 2h-16q-17 0 -49 -2q-35 -4 -49 -5q-3 0 -8 -1t-8 -2q-6 -1 -17 -1q-6 0 -16 -1t-16 -2q-11 -1 -34 -1h-17q-6 0 -18 2 q-13 0 -18 1q-7 1 -18 3q-15 14 -22 34q-8 16 -13 40q0 13 -1 19q-1 5 -1 16zM733 1018v-21q0 -8 2 -22v-11v-12q0 -21 1 -31q1 -11 1 -32v-12v-13q2 -23 14 -29q11 -6 25 -6h10q3 0 9 2h9h11h5h5l12 -3q6 -2 9 -5q0 1 1 2l2 2l2 2t1 2q28 39 54 87q24 46 24 96q0 20 -4 37 q-4 18 -15 36q-11 42 -39 70q-31 29 -71 41q-43 -37 -55 -83q-13 -45 -13 -97z" />
<glyph unicode="q" horiz-adv-x="1826" d="M84 1114q6 29 24 50q15 18 37 38l1 1l1 1q26 26 43 47q19 22 19 60q22 57 65 84q46 29 86 49q3 0 4 1l3 1q43 20 74 40q34 21 61 58q2 2 8 4t8 4q5 3 17 9q19 12 42 21q18 8 44 13l15 3q5 1 15 1q14 0 31 -5q14 -5 29 -15q33 29 79 39t93 12h8h8q31 0 47 -1q30 -2 43 -3 q17 -2 30 -3q9 -1 28 -1h3h3q10 0 17 -4q8 -4 13 -10q2 0 2 -1t2 -1q7 -7 16 -11q9 -6 19 -6q10 2 15 2h12q69 0 122 -36q57 -41 99 -80q44 -38 66 -55q33 -28 69 -44q8 -8 12 -11l11 -11q36 -36 68 -83q30 -47 30 -102v-2q63 -57 91 -136q28 -78 28 -163q0 -43 -8 -93 q-7 -42 -25 -87q0 -8 1 -11t1 -9q2 -6 2 -9v-12q-1 -59 -28 -111q-25 -48 -62 -94q0 -4 -2 -12t-2 -10t-2 -8t-2 -8q-2 -12 -2 -15q0 -5 1 -7t1 -7q0 -1 1 -2.5t2 -2.5t1 -2l4 -8q11 -14 27 -20q17 -6 35 -6q10 0 19 3q12 4 17 7q1 1 5 3q1 1 6 3l4 4q3 3 6 4t9 5q6 2 9 2 q2 0 3 -1q2 -2 3 -2q3 0 5 -1q0 -1 2 -2l2 -1q15 -15 19 -33q5 -22 5 -42q-2 -25 -6 -48q-8 -40 -8 -42q-9 -6 -16 -17q-8 -11 -9 -20q0 -6 -1 -9q-1 -4 -1 -10q0 -8 2 -24q1 -13 6 -25q1 -5 5 -20q2 -14 2 -21q13 -19 17 -38q5 -23 5 -44v-11v-9q-6 -34 -11 -51 q-7 -23 -15 -46q-6 -4 -11 -6q-2 -1 -5.5 -2.5t-4.5 -1.5q-6 -2 -9 -2h-11h-7h-8q-6 2 -7 2h-7q-6 0 -16 -2q-7 -1 -19 -10q-76 7 -145 30q-69 21 -129 62q-8 0 -13 1q-2 1 -8 2t-8 1q-8 0 -12 1t-13 1q-50 5 -112 17q-57 11 -103 39q-35 0 -78 5q-27 3 -79 11q-8 3 -25 5 l-27 3q-18 1 -52 5q-25 3 -52 3h-21q-8 0 -22 -2l-9 3l-9 3q-4 2 -14 6t-14 6l-30 9q-145 53 -272 121q-130 69 -219 207q-90 127 -103 263q-11 110 -11 213q0 43 1 64v47v45q0 39 -1 59q-1 10 -2 29t-1 29zM664 717q5 -38 16 -71q12 -34 27 -66q0 -1 1 -2l1 -3 q18 -44 20 -48q9 -20 16 -48q29 -23 64 -32q27 -7 57 -7h13q13 0 39 2q6 0 18 2t18 2v4v3q-2 2 -2 3v1q0 18 12 30q7 7 23 21q18 14 25 22q10 10 10 31v4v4q0 3 -1 4t-1 5q34 38 48 78q13 39 13 83q0 27 -5 64q-3 26 -11 65q-1 6 -5 35q-4 27 -5 37q-2 22 -3 34q-1 11 -1 34 q-33 43 -73 83q-30 30 -79 70q-13 -13 -31 -23q-16 -10 -39 -16q0 -2 -1 -2h-3q-24 -10 -58 -31q-28 -18 -34 -57q-33 -28 -42 -63t-9 -74v-20q0 -9 2 -19v-20v-21q0 -28 -4 -49q-5 -26 -16 -49z" />
<glyph unicode="r" horiz-adv-x="1675" d="M76 147q0 25 5 57q3 18 11 54q6 32 12 60q5 32 5 57q0 17 -1 26q-1 13 -6 25q-1 8 -7 26q-3 9 -13 25l-3 15q-1 4 -1 12q0 16 6 31q6 14 14 28q1 4 7 14q1 3 4 8t4 7q2 8 3 11t1 11q0 6 -1 9t-1 8q-8 14 -10 16l-5 5l-6 6l-6 6q0 24 -1 36q-1 11 -1 33q0 24 -1 36 q-1 11 -1 34q0 48 8 99q7 46 35 91q5 14 0 23q-6 10 -12 16l-3 3q-1 1 -3 1l-9 12q-6 5 -8 13q0 6 1 9t1 11v10v9v19q0 6 -2 18v10v8q0 19 -1 29q-1 9 -1 26q0 32 8 66q7 31 33 49v1v3v3v1q0 14 -8 25q-7 10 -21 18q-3 1 -7 5t-7 5q0 11 -1 17q-1 5 -1 16l-3 33q-1 11 -1 33 q0 13 1 19t3 20q0 8 3 18q3 12 7 19l3 3q1 1 1 3q14 14 36 31q20 14 42 14q4 0 14 -2q8 -2 15 -6q7 -9 12 -10q6 -3 12 -3q7 0 18 6q8 4 15 11l2 1q2 1 2 2t2 2l2 1q4 3 12 7q4 3 9 3l57 3q18 1 56 1q45 0 91 -8q43 -8 78 -33q17 20 37 30q22 9 43 15q6 2 10 3q3 1 11 3 q0 -5 -1 -6q-1 0 -2 -2l-1 -2l-3 -6q-1 -1 -1 -6v-2q8 1 26 5q16 3 25 7q6 2 17.5 4.5t16.5 3.5q15 4 35 4q13 0 20 -1q12 -2 17 -5q8 -13 18 -17q10 -5 17 -5q11 0 22 4q14 6 21 10h1h1q4 2 12 4t12 4q9 4 21 4q13 0 20 -1q6 -1 19 -1q10 -2 16 -2h15q61 -5 109 -20 q52 -17 71 -72q6 -2 7 -2h5q9 0 16 4q12 7 13 8q5 2 9 6q5 3 10 5q46 -5 72 -31q29 -30 46 -57l3 -3q1 -1 1 -4q12 -17 38 -47q19 -22 50 -30q6 -17 16 -31q7 -11 23 -33q9 -13 27 -41q12 -22 12 -45q0 -11 -5 -24q-4 -12 -19 -25v-1v-3v-3v-1q0 -13 8 -18q10 -6 18 -7h2 q4 -1 14 -5q6 -2 11 -11q10 -21 13 -47t3 -50q0 -47 -12 -92q-11 -42 -29 -84q-1 0 -5 -2t-7 -2q-5 -4 -15 -14q-7 -7 -9 -19q0 -5 1 -8q1 -1 2 -4t1 -4q8 -8 11 -17q3 -10 3 -20q0 -14 -9 -29q-8 -14 -20 -30l-4 -4l-4 -4q-10 -11 -19 -25q-9 -11 -14 -27q-27 -24 -53 -35 q-31 -13 -59 -20q-4 -1 -10 -3l-9 -3q-3 -1 -11 -3.5t-12 -4.5t-12 -4t-12 -4q-3 -1 -5 -5q-1 -3 -1 -8v-3v-3q0 -3 1 -5q1 -3 -1 -5q13 -26 36 -34q16 -6 46 -11q14 -1 40 -7q19 -4 34 -24q20 23 48 35q27 12 58 12q14 0 22 -1q14 -2 21 -5q9 -11 14 -28q3 -16 3 -35v-12 q0 -7 -3 -13q0 -8 -2 -24q-1 -5 -2.5 -13t-1.5 -12q-8 -8 -11 -18q-3 -11 -3 -21q0 -12 3 -24q3 -16 7 -25t7 -25q3 -14 3 -26q0 -13 -4 -24q-5 -15 -14 -25q-1 -5 -6 -6q-6 -4 -10 -5l-13 -8q-6 -4 -6 -14v-4q0 -1 1 -3t1 -3q22 -13 33 -35q10 -20 10 -43q0 -10 -1 -15 q-2 -11 -5 -16q-20 -23 -53 -32t-68 -9h-16q-6 0 -16 2q-19 1 -57 7q-26 4 -52 11q-9 9 -18 13t-21 4q-6 0 -14 -2q-5 -1 -10 -6q-16 -9 -32 -13q-17 -6 -36 -4q-7 0 -21 2q-4 1 -11.5 2.5t-10.5 1.5q-25 7 -45 16q-30 12 -45 19q-8 7 -17 11q-16 7 -18 8q-2 2 -4 5t-4 4 q-1 1 -2.5 3t-3 4.5t-2.5 3.5q-22 24 -42 40q-24 20 -57 24q-3 2 -8 8t-7 8t-7 8t-8 8q-2 0 -2 1t-3 1q-28 30 -52 51q-28 23 -62 35q-19 -11 -23 -27q-7 -20 -8 -34q-1 -4 -2.5 -11.5t-1.5 -10.5q-1 -9 -8 -21q10 -13 15 -32q5 -22 5 -40v-9q0 -3 -2 -9q0 -8 -1 -11 q0 -1 -1 -5t-2 -5q-5 -15 -17 -24q-11 -9 -30 -19l-6 -2q-6 -2 -8 -2h-3h-3h-6h-5q-31 0 -58 6q-27 4 -50 29q-19 -9 -49 -16q-27 -6 -56 -6t-53 7q-28 8 -49 23q-2 0 -3 1l-1 1h-3h-3q-8 0 -16 -6q-8 -5 -15 -14q-8 -10 -13 -14q-7 -7 -18 -7h-7h-7h-7h-7h-11h-12 q-41 2 -78 15q-36 12 -53 53q-5 17 -6 32q-2 20 -2 29zM711 913q0 -1 5 -13t5 -13q4 -10 10.5 -29t9.5 -27q9 -29 7 -59v-11q0 -5 -3 -11q0 -8 -1 -11l-3 -12q-2 -2 -2 -5v-7q0 -15 15 -26q17 -13 30 -19q3 0 5 -1q1 -1 4 -1q11 -5 19 -10q3 -3 9 -7t8 -6q8 10 14 16l15 15 q8 6 11 9q1 1 5 4t5 5q25 22 45 48q20 25 20 59v3v3q-2 2 -2 4v4q9 19 11 31q4 17 5 28v2v1q1 7 7 30q4 14 12 31q-9 19 -14 51q-6 36 -7 55q-5 51 -14 88q-11 43 -51 68q1 4 1 5q-1 1 -1 3q-1 0 -2 2l-1 2q-1 1 1 5l-24 3q-9 1 -27 1h-9h-10q-25 -5 -45 -13 q-21 -10 -41 -30q-7 -1 -12 -8q-4 -7 -4 -13q0 -5 1 -7q2 -4 3 -7q0 -3 2 -7t2 -6l2 -4l2 -4l2 -4l2 -4v-36v-38q0 -34 -3 -65q-3 -35 -19 -62z" />
<glyph unicode="s" horiz-adv-x="1335" d="M61 348v5v5v17q0 6 2 16v17v16q14 20 37 28q22 8 45 9q6 0 9 1t8 1q11 0 16 1l15 3q1 -1 4 -2t5 -2q6 -2 9 -2q16 -8 25 -12q13 -8 20 -19q24 11 55 16q29 3 60 3q21 0 32 -1q20 -2 29 -2q21 0 32 -1q10 -1 30 -1h8q2 0 8 2h6h8q16 -19 37 -15q22 5 41 15q3 3 5 4 q4 2 5 3q7 4 16 6q2 1 7 2t8 2q11 9 16 16t11 21q0 5 1 8t1 8q0 3 -2 13q-2 6 -6 12q-17 19 -37 33q-3 2 -18.5 12.5t-24.5 15.5q-2 1 -4 2.5t-3 1.5t-4 2t-4 2q-24 14 -35 23q-15 10 -34 29h-3h-1h-3h-4q-38 0 -64 19q-32 22 -54 44q0 1 -2 3l-2 1q-48 42 -50 44 q-25 19 -59 24q-33 25 -52 58q-22 35 -34 65q-1 2 -2.5 5.5t-1.5 4.5q0 2 -2 4t-2 4l-15 33q-3 7 -16 30q-1 4 -5 12q-3 5 -3 11q-2 8 -3 11t-1 12q0 19 8 40q3 7 8.5 20t7.5 17h2v2q5 12 17 38q8 21 8 40v7v8q0 5 -1 7q-2 4 -3 7q22 108 110 194q87 84 191 117q13 -7 24 -8 q14 -2 19 -2q18 0 33 4q22 6 33 10l12 3l12 3q34 40 82 47q50 8 100 9q8 2 14 2h13q18 0 33 -7q16 -7 30 -18q26 30 63 41q34 10 75 10q25 0 38 -1t37 -3q16 -2 25 -3q8 -1 23 -1q11 -6 22 -18q11 -14 12 -27q5 -23 14 -39q10 -23 17 -41q16 -36 24 -53q11 -28 11 -59v-5v-8 q21 -20 28 -46q7 -25 7 -56v-8v-8q0 -5 -1 -8t-1 -9q-19 -13 -43 -21q-20 -7 -47 -5q-13 0 -20 1q-14 2 -19 3q-29 7 -40 11q-26 10 -38 15q-21 -11 -50 -16q-25 -4 -59 -4h-21q-8 0 -22 2q-11 0 -17 1t-18 1q-18 2 -26 3t-25 1q-3 2 -11 5q-3 1 -9 1q-11 0 -18 -6 q-9 -6 -17 -14h-1q-1 0 -1 -2l-15 -12q-7 -7 -18 -9q0 -1 -1.5 -4.5t-2.5 -5.5t-2.5 -5.5t-1.5 -4.5l-7 -14q-3 -8 -3 -15v-5q0 -3 2 -5q3 -3 4 -5q1 -1 2 -3t2 -3q20 -36 54 -46q46 -14 69 -19q38 -6 76 -21q37 -16 55 -63h4l6 2h4h4q58 -1 108 -44q48 -42 85 -91 q8 -14 10 -16q2 -4 5.5 -10t4.5 -7q-8 -11 -12 -18q-4 -8 -4 -17q0 -12 8 -20q9 -9 21 -17l3 -3l3 -3q4 -3 12 -10t12 -10q11 -11 11 -27v-2l3 -21q1 -8 1 -22q5 -26 6 -49q2 -34 2 -51q0 -48 -13 -90q-13 -43 -55 -72v-5v-7q0 -78 -49 -123q-52 -47 -110 -84q-1 0 -8 -5 q-6 -4 -9 -5q-15 -9 -45 -29q-15 -11 -43 -33q-2 0 -6 -2t-6 -2q-8 -2 -12 -2q-10 -2 -14 -2h-13h-13q-6 0 -14 2h-15h-13q-21 0 -41 -7t-37 -36q-34 0 -72 -5q-27 -4 -70 -11q-59 -9 -71 -11q-35 -6 -72 -6q-1 4 -5 10l-5 5q-1 1 -5 3q-2 1 -5 1q-7 0 -11 -4q-9 -7 -10 -7 l-2 -2q-4 -3 -12 -7q-6 -3 -12 -3h-2q-11 0 -16 -1q-6 -1 -19 -1q-22 -2 -35 -3t-37 -1q-29 0 -49 4q-25 5 -43 19q-6 13 -15 30l-9 13.5t-11 15.5q-11 18 -31 56q-16 28 -16 63v5v5q0 3 1 5t1 5q-41 17 -53 52q-13 35 -13 75z" />
<glyph unicode="t" horiz-adv-x="1306" d="M59 1223q5 14 10 32q3 15 3 29q0 11 -1 16t-1 15q0 5 -1 16t-2 16q-1 10 -1 29q0 10 2 34q1 15 10 34q-7 12 -9 20q-4 12 -6 19q-1 5 -3 17q-1 6 -1 20v13q0 5 2 15v14v15q25 25 63 36q42 12 77 13h7h7h11h10q29 -1 64 -8q32 -6 54 -16q22 16 49 21q28 5 52 5q23 0 44 -3 q27 -4 46 -5q15 -3 45 -7q22 -3 43 -3q14 0 22 1q14 2 19 3q16 10 32 13q15 3 29 3q16 0 34 -3q27 -5 36 -7q17 -6 34 -9t35 -3q13 0 18 1l15 3l4 -4l4 -4q8 -7 17 -11q7 -6 18 2q11 24 25 31q14 8 29 8q6 0 20 -2q4 0 10 -2t10 -2q6 -2 10 -3q3 -1 11 -1l15 -3q5 -1 16 -1 q8 0 11 1t11 3q4 1 12 5q1 1 5 3t6 4h8q2 0 8 2h8h9q22 0 43 -8q20 -8 22 -37q0 -24 1 -37q2 -26 3 -38q0 -26 1 -39t1 -37q0 -36 -6 -71q-6 -36 -25 -66q2 -7 6 -11q4 -8 7 -12q8 -14 14 -26q6 -15 6 -31q0 -5 -1 -8t-1 -9l-2 -4l-2 -4q-1 -3 -6 -8q-19 -11 -43 -18 q-27 -10 -49 -11h-8h-9q-20 0 -38 6q-17 4 -35 17q-19 0 -39 -9q-17 -9 -35 -24q-1 -11 -7 -33q-6 -24 -9 -35q-2 0 -2 -1v-3q-8 -24 -11 -35q-6 -18 -6 -36q2 -14 6 -27q6 -17 13 -29v-5v-5v-6v-6v-16q0 -7 2 -15v-16v-17q0 -27 -4 -47q-4 -21 -21 -41q16 -21 22 -47 q5 -27 5 -51q0 -11 -2 -33q-2 -24 -2 -37q-2 -8 -2 -12q0 -6 -3 -12q0 -16 -1 -23q-1 -8 -1 -24v-17q0 -6 2 -20q6 -32 9 -65q2 -44 2 -66v-16v-17v-8v-8q-2 -16 -2 -24v-26q0 -35 3 -68q3 -37 13 -69q3 -7 5 -22q1 -9 1 -25q0 -23 -6 -44q-6 -22 -22 -38q-7 -4 -17 -6 q-10 -1 -20 0q-16 0 -36 5q-12 3 -34 13l-36 12q-22 5 -36 5q-15 0 -29 -7q-16 -7 -32 -28q-3 0 -5 -1t-5 -1h-6h-7q-16 0 -31 3q-23 4 -32 5q-13 3 -34 7q-19 3 -36 3q-14 0 -29 -3t-30 -11q-3 0 -5 1t-5 1h-6h-7h-10h-10h-6h-4q-10 -2 -16 -2h-15q-25 0 -46 8 q-19 7 -24 35l-3 51q-1 17 -1 52q0 59 6 116q6 59 19 105q-13 19 -17 41q-6 22 -6 45q0 11 1 16t1 16q5 37 14 63q11 38 19 60v1v3v4v1q0 8 -4 15q-6 10 -10 15q-1 2 -8 15q-5 8 -5 16v2q0 4 -1 14t-2 14q-1 9 -1 27q0 25 3 49q1 11 8 48q1 17 5 49q3 24 3 49q0 23 -3 47 q-3 22 -14 47q2 8 3 11t1 12q2 8 2 11v11q0 29 -12 54t-43 32q-13 7 -24 8q-18 2 -25 2q-11 0 -18 -1q-14 -2 -19 -3q-10 0 -15 -1t-13 -3q-9 -1 -32 -5q-17 -3 -30 -3q-27 0 -46 15q-18 13 -26 55z" />
<glyph unicode="u" horiz-adv-x="1714" d="M78 827v22v23q1 38 8 88q5 33 14 84q-11 54 -14 74q-6 38 -6 74q0 37 7 68q8 34 22 63q-14 36 -20 76q-7 38 -7 84v25q0 8 2 26q0 16 1 25l3 24q0 1 5 8q2 3 7 8q2 3 19 20q10 9 22 7h3h3q6 -17 16 -21q9 -6 17 -6q2 0 10 2q3 1 9 1t9 1t11 1q3 0 13 -2q5 -3 10 -9 q24 24 53 31q30 8 59 8h13q4 0 12 -2q32 -1 70 -13q35 -11 63 -24q22 12 49 18q28 5 51 5h14q5 0 15 -2q11 0 16 -1t13 -3q9 -36 13 -61q5 -37 5 -68q0 -36 -8 -78q-7 -39 -29 -68q28 -27 39 -56q10 -29 10 -65q0 -19 -1 -28q-2 -20 -3 -29q-2 -10 -2 -15q0 -4 -2 -14 q-1 -17 -5 -44q-3 -21 -3 -42v-13q0 -5 2 -15q0 -5 2 -15q1 -3 2.5 -8t1.5 -6v-12v-12v-30v-32q0 -35 -7 -64q-8 -34 -32 -61q15 -29 23 -56q9 -39 14 -65q0 -3 1 -4t1 -4q12 -69 36 -121q24 -53 108 -53h1h3h3h1q37 16 43 43t6 57q0 17 2 43q1 18 14 37q-8 82 -11 114 q-6 72 -7 107v32v30q0 57 4 104q5 56 16 109q-11 17 -16 37q-4 16 -4 39q0 18 3 36q4 21 5 35q5 18 6 36q2 24 2 36q0 20 -4 37q-5 21 -14 35q3 12 5 35q1 12 1 36q1 29 8 61q6 26 39 46q5 4 13 7q6 3 12 3q6 2 10 3t12 1q14 0 32 -5q10 -3 32 -11q17 -9 29 -13q14 -6 28 -6 q17 0 30 10q12 8 25 29q6 0 18 -2t18 -2q24 -2 36 -2h3h3q11 -2 34 -4t35 -4q36 -5 64 -16q6 12 18 18q7 4 21 10q2 0 10 2q6 2 9 2q2 0 3 1t3 1h7h5h4h2q29 0 50 -10q22 -10 28 -37q1 -13 3 -41q1 -15 1 -45v-9v-9q-1 -36 -8 -81q-6 -39 -21 -71q23 -48 26 -102 q3 -55 3 -113v-16v-17q0 -14 1 -21t1 -22q0 -13 1 -20t1 -20q-10 -12 -15 -24q-5 -15 -5 -26q0 -8 1 -11t3 -11q2 -7 6 -11q2 -2 4 -6t4 -6v-6v-6v-7v-7q0 -21 1 -32q1 -5 2 -17t1 -17q0 -23 1 -34t1 -33q0 -41 -10 -74q-11 -36 -45 -64v-1v-1v-3v-3q0 -8 6 -15q4 -5 14 -11 q2 0 8 -2q3 -3 5 -3q2 -11 4.5 -32.5t3.5 -31.5q5 -35 6 -67q2 -16 2 -23v-22q0 -26 -1 -39q-2 -26 -5 -39q8 -22 21 -40q16 -28 24 -41q26 -50 38 -75q17 -39 17 -81q0 -11 -1 -17q-1 -3 -2 -9.5t-1 -10.5q-37 -24 -78 -31q-46 -8 -90 -8h-23q-6 0 -24 2h-12h-12 q-24 0 -36 1t-34 1q-19 0 -51 -2q-22 -1 -47 -8q-11 2 -21 6q-11 4 -24 4q-8 2 -11 2h-12h-9h-9h-5h-6q-8 -2 -13 -2h-13q-28 0 -51 10q-25 9 -39 41q-2 1 -15 8q-11 3 -18 3q-6 2 -8 2h-8h-12q-5 0 -13 -2q-4 -1 -12 -2.5t-11 -1.5q-8 -1 -22 -5q-10 -2 -14 -3 q-5 -1 -13 -3q-38 -33 -84 -45t-96 -12q-16 0 -25 1t-26 1q-52 6 -77 11q-50 10 -73 16q-8 1 -24 5t-25 5q-17 23 -39 35q-26 13 -51 20q-3 0 -4 1t-4 1q-32 12 -55 24q-28 14 -41 46q-15 16 -26 40q-13 26 -19 44q-10 26 -26 60q-14 27 -44 46q-1 15 -6 32q-2 5 -4.5 16 t-3.5 16q-10 44 -15 67q-8 35 -8 66q0 14 2 40q1 15 10 40q-12 43 -18 93t-6 101z" />
<glyph unicode="v" horiz-adv-x="1892" d="M86 1565q0 15 7 30q8 17 26 29q10 0 15 -1t16 -1h4h4q34 0 72 -5q32 -4 61 -28q28 16 64 24q32 7 71 7q40 -2 78 -9q36 -7 65 -24q16 15 43 26q27 10 50 11h8h8q19 0 28 -1q18 -2 27 -5q64 -17 86 -60q25 -49 37 -96q0 -5 1 -7t1 -7q12 -42 26 -73q15 -36 48 -60 q16 -12 22 -26q6 -13 13 -36v-1v-1q7 -24 20 -49q12 -23 49 -24q16 22 27 48q11 27 18 52q2 6 2 7q0 3 2 5q10 34 29 76q17 38 53 64q-2 10 -3 14t1 12q0 28 12 54q4 10 25 49q2 5 8 14t8 13q6 12 13 28q8 2 13 3t13 3q13 3 34 7q25 4 34 5q8 2 12 2h13q24 -2 43 -6 q22 -5 37 -16q6 6 16 12q7 4 16 6q6 2 9 2h8q11 0 16 -1t16 -1q5 -1 17 -3q5 -1 16 -1q7 0 21 2q10 1 18 8q6 2 7 2h5q9 0 20 -3q12 -4 19 -7q18 -10 36 -12q19 -2 32 20h12h12q26 0 50 -8q22 -7 30 -37v-5v-5v-5v-5q0 -74 -29 -146q-30 -70 -77 -131v-1v-3v-3v-1 q0 -32 -10 -58q-9 -24 -23 -54v-2v-3q-8 -14 -17 -37q-7 -18 -12 -40q-20 -11 -27 -29t-7 -39v-8v-10v-1v-4q0 -3 -1 -5t-1 -5v-5v-5l-15 -45q-9 -27 -14 -47q-1 -1 -3 -5q-1 -2 -1 -7q-19 -61 -38 -105q-23 -52 -69 -90q-4 -10 -1 -16q3 -8 7 -13q6 -6 9 -12q2 -7 -2 -16 q-1 -2 -49 -101q-8 -17 -25 -51t-25 -51q1 -17 13 -32q3 -5 10 -15t10 -15q3 -3 4 -5t4 -5q10 -11 19 -25q8 -14 8 -30q0 -6 -1 -9l-3 -12q-28 -33 -70 -56q-41 -23 -86 -23h-4q-2 0 -4 2h-6h-4q-18 -37 -49 -59q-42 -30 -64 -44q-3 -3 -5 -4q-4 -2 -5 -2q-18 -13 -32 -22 q-15 -10 -34 -25q-3 -2 -9 -4.5t-8 -3.5q-3 -1 -9 -4t-9 -4q-16 -6 -24 -10q-12 -7 -27 -9q-5 -3 -17 -5q-6 -1 -18 -1q-9 1 -29 7q-16 4 -30 20q-10 26 -29 59q-24 36 -37 53q-28 40 -55 89q-24 44 -24 100q-48 45 -79 104t-50 119q-42 36 -65 84q-26 53 -40 96q-2 2 -2 3 v3q-17 48 -41 101q-24 50 -69 84q-7 29 -21 59q-11 22 -31 53q0 2 -1 3l-1 1q-26 52 -38 78q-19 39 -21 86q-41 18 -58 53q-18 34 -30 74q-2 2 -2 3v3q-8 24 -13 35q-2 6 -8 17t-8 16q-5 19 -16 37q-18 24 -27 35l-2 2t-1 2q-2 1 -3 6q-17 18 -27 39q-12 20 -12 41z" />
<glyph unicode="w" horiz-adv-x="2965" d="M96 1550q1 13 8 32q4 14 19 24q12 3 37 5q12 1 39 1q26 0 56 -5q24 -4 48 -22q2 0 18 5q12 4 19 7q2 1 13.5 4.5t17.5 5.5q23 6 30 7t19 3q5 1 16 1q16 0 33 -3t31 -13q11 9 29 14q12 4 28 4q6 0 20 -2q3 0 9 -1.5l10 -2.5q4 0 10 -2t10 -2q13 -6 29 -9q12 -4 29 -4 q6 1 25 7q14 5 24 14h7h5q31 0 48 -21q18 -25 30 -47q0 -2 1 -2t1 -2q5 -9 17 -27q8 -13 18 -24q-2 -8 -2 -11v-9q0 -26 16 -43q12 -15 35 -35h1q1 0 1 -2q23 -19 37 -36q16 -19 16 -50v-1v-3v-3v-2q-5 -12 -6 -22q-2 -14 -2 -18q0 -26 15 -43q15 -18 32 -31l4 -4q2 -2 4 -2 q23 -19 37 -36q18 -21 19 -50q7 -4 15 -6q8 -3 11 -3q13 0 24 12q7 8 19 27q0 3 1 4t3 5q5 8 17 24q7 11 20 19q5 14 12 30q6 13 13 31q7 16 11 29q6 18 9 26q6 18 9 32q2 20 2 30q0 25 -7 43q-7 19 -28 41q5 11 6 17q2 10 2 15q0 17 -11 31q-11 12 -26 23l-3 3l-1 1 q-8 8 -22 24q-11 11 -11 25q0 8 3 17q4 10 10 16q13 5 36 10q20 5 37 6h12h9q32 0 55 -4q26 -5 41 -14q6 4 18 7q12 4 17 5q10 2 17 2h18q12 0 36 -2q5 0 17 -1.5t18 -2.5q17 -5 34 -6q24 -2 36 -2h13q4 0 16 2q3 0 8 2t7 2q3 1 7 2.5t6 1.5q6 -3 18 -5q5 -1 15 -1 q15 0 27 4q4 2 13 4.5t13 3.5q5 2 13.5 4.5t11.5 3.5q11 4 27 4q6 0 16 -2q9 -2 16 -6q40 -20 56 -54q16 -33 28 -71q0 -3 1 -4t1 -6q11 -34 25 -60q13 -30 43 -53q8 -13 11 -27q3 -17 3 -32q1 -28 11 -53q8 -26 45 -27h3h3h1h3q33 0 54 24q18 20 36 52q4 5 7 13t7 13 q6 8 9 13q2 2 4 6t4 6q4 6 10 19t10 20q10 18 21 39q3 3 5 6q5 7 5 8q24 46 37 69q24 46 35 70q17 20 42 29q27 8 52 8h13q5 0 13 -2q5 0 14 -2t14 -2q12 -1 26 -6q12 -17 26 -12q13 4 27 12q4 1 12 5t12 5h8q1 0 7 2h7h7q10 0 34 -2q22 -2 34 -2q5 0 16 -2t17 -2 q22 -2 32 -2q12 0 30 2q12 1 26 6q8 -7 15 -8q10 -2 15 -2q3 0 15 2q3 1 8 2.5t6 1.5q11 5 20 6q12 2 19 2h5q3 0 5 -2q3 0 5 -1t5 -1q8 0 13 -6q4 -5 4 -12q2 -2 2 -3v-1q1 -4 5 -10t7 -9v-4q0 -2 2 -4v-4v-4q0 -32 -16 -55q-11 -17 -35 -47l-2 -2q-19 -22 -35 -46 q-16 -23 -16 -55v-4q0 -2 2 -4v-4v-4q-25 -28 -37 -55q-17 -35 -27 -62q0 -2 -1 -3l-1 -1q-16 -41 -36 -82q-21 -39 -62 -68q-19 -128 -75 -241t-140 -211q-2 -28 -12 -53l-21 -54q-1 0 -2 -2l-1 -2q-1 -1 -1 -4q-12 -28 -21 -57q-10 -27 -10 -58q0 -17 5 -39q5 -20 20 -40 v-5v-8v-5v-5q-1 -22 -11 -41q-10 -18 -36 -18h-2q-20 0 -36 -12q-16 -13 -26 -29q-1 -1 -13 -8q-5 -3 -13 -11q-43 -25 -80 -44q-40 -21 -86 -27q-2 -2 -6 -4.5t-5 -2.5q-8 -6 -10 -8q-42 -25 -73 -42q-37 -19 -78 -19h-4h-5q-23 59 -51 120q-38 80 -59 119q-31 58 -60 120 q-32 66 -53 120q-28 39 -51 79q-24 39 -43 89q-43 -1 -61 -27q-19 -25 -33 -59q0 -3 -1 -4t-1 -4q-13 -31 -30 -55q-20 -28 -58 -35v-3v-1q0 -16 -8 -37q-9 -19 -19 -35q-9 -16 -18 -35q-9 -18 -9 -35q0 -13 7 -24q5 -12 20 -25v-6v-6q-2 -6 -2 -7v-8q-47 -26 -139 -78 q-75 -43 -135 -85h-6h-9h-11q-3 0 -9 2h-11h-12q-14 -1 -29 -8q-14 -8 -18 -29q-5 -25 -17 -37t-32 -27q-7 -2 -11 -6q-2 -2 -12 -8q-63 12 -82 58q-20 47 -30 100q-6 34 -10 52q-9 29 -19 46q-25 13 -31 40q-4 19 -10 54v1v3q-5 38 -14 63q-10 29 -51 42q-13 38 -33 76 q-26 48 -39 71q-1 0 -2 2l-1 2q-2 2 -3 6q-25 42 -56 109q-26 57 -32 123q-45 33 -66 77q-22 42 -39 89q-11 34 -22 62q-14 30 -33 57q-34 39 -54 86q-17 41 -36 94q-15 41 -43 104q-22 50 -64 92q0 5 -1 8q-1 2 -1 5l-3 15q-1 5 -1 13z" />
<glyph unicode="x" horiz-adv-x="2150" d="M96 1092q1 15 8 30q3 9 13 27q35 14 44 43q10 30 11 59q2 19 6 38t15 36q5 39 28 67q21 25 51 52l1 1l1 1q31 27 55 58q23 31 23 75v1v3v3v1q3 3 4 5q2 4 2 7q14 18 23 27q12 12 29 12h4h4q76 0 141 -27q65 -29 117 -69q62 -12 108 -52q50 -43 90 -85q0 -3 3 -4l4 -4 q6 -1 25 -7q8 -4 24 -10q22 -10 34 -14q16 -6 33 -6h8q1 0 7 2q5 0 7 1q4 2 7 3q20 38 40 69q14 22 44 68q24 34 35 52q11 17 33 53q21 16 48 22q26 6 52 6q21 0 31 -1q19 -2 28 -5q11 -14 22 -18q9 -4 21 -4q13 0 24 4q4 2 12 4.5t11 3.5q1 0 6 1.5t8 2.5t7 2.5t6 1.5 q24 -2 37 -3q12 -1 39 -1q49 0 90 -7q42 -7 74 -42l12 3l12 3l10 2.5t9 1.5q1 0 7.5 1.5t10.5 2.5q11 0 16 1t15 1q16 0 29 -3t24 -13q7 -15 8 -26q2 -18 2 -25q0 -39 -18 -75q-26 -48 -41 -71q-16 -24 -23 -35q-13 -20 -20 -36q-39 -41 -62 -91q-24 -51 -45 -102v-2 q0 -2 -2 -2q-19 -49 -52 -117q-31 -60 -85 -104q-6 -13 -9 -28t-3 -27q0 -42 27 -77q23 -31 59 -67q1 0 2 -2l1 -2q2 -2 3 -2q39 -39 64 -72q28 -37 28 -84q54 -40 88 -96q35 -58 56 -119q0 -3 1 -6q0 -1 1 -4t2 -4q57 -47 99 -92q45 -48 89 -101q8 -10 13 -14q4 -4 10 -14 l11 -11l9 -12v-3v-3q0 -17 -10 -28q-10 -13 -23 -17q-3 0 -4 -1t-4 -1q-11 6 -19 9q-15 4 -20 5q-7 1 -19 3q-6 1 -20 1q-19 0 -39 -3q-25 -4 -41 -5q-11 -3 -40 -7q-21 -3 -41 -3q-23 0 -40 4q-24 5 -42 14q-2 -1 -4 -2.5t-3 -1.5q-6 -2 -8 -2q-5 -3 -15 -5q-5 -1 -13 -1 t-11 1q-4 1 -10 1q-5 0 -6 1t-4 1q-11 0 -16 1q-6 1 -17 1t-16 -1q-14 -3 -19 -5q-17 11 -35 15q-17 4 -40 4q-11 0 -18 -1t-19 -1q-7 -1 -19 -3q-4 -1 -10.5 -2.5t-7.5 -1.5q-10 -1 -37 -5q-20 -3 -35 -3q-37 0 -65 21q-28 19 -39 80q-5 15 -17 34q-16 20 -24 29q-4 1 -6 5 q-2 3 -5 5q-4 5 -11.5 14.5t-8.5 11.5q-11 14 -18 28l-12 9q-5 3 -13 11l-1 1l-1 1q-4 4 -14 12t-14 12q-15 10 -34 9h-1h-3h-3h-1q-9 -17 -29 -47q-5 -8 -16 -22.5t-16 -22.5q-3 -3 -7 -9q-3 -6 -7 -10q-21 -27 -47 -67q-24 -37 -37 -76q-14 -24 -36 -31q-24 -8 -46 -8h-10 q-5 0 -11 2h-11q-3 0 -9 2q-8 0 -11 1q-4 1 -10 1q-11 0 -19 4q-9 4 -20 6q-10 6 -20 10q-10 3 -23 3q-5 0 -8 -1t-8 -1q-2 -1 -5.5 -2.5t-4.5 -1.5q-6 -4 -9 -7q-44 -5 -88 -6q-60 -2 -92 -2q-33 0 -103 2q-17 0 -52 2t-52 2q-24 2 -35 3q-12 1 -34 1q-15 5 -19 19 q-6 13 -6 31q0 8 2 18q1 2 2 8t2 8q41 20 65 54q27 41 44 73q18 35 44 72q23 36 68 55q6 14 18 34q12 24 17 36q1 2 2.5 6t1.5 5q1 3 7 9q28 62 61 114q33 54 88 91q2 5 6 16t6 16q11 28 13 32q18 42 26 65q9 24 11 53q0 8 -1 13q0 24 -9 50q-9 25 -34 48h-3h-1h-3h-3 q-36 0 -62 19q-27 17 -54 41q-27 22 -57 42q-29 19 -66 19h-2q-20 0 -41 -6t-39 -15q-10 -2 -21 -6q-12 -5 -22 -6q-5 -3 -18 -5q-7 -1 -21 -1h-12q-5 0 -11 2q-2 0 -6 2t-6 2q-6 2 -12 6q-2 2 -4.5 7l-3.5 7q-6 11 -7 13q-2 8 -3 13t-1 14z" />
<glyph unicode="y" horiz-adv-x="1953" d="M88 1546q0 4 2 14q0 2 2 7t2 8q16 31 38 41q21 10 48 10q17 0 26 -1t25 -3q5 0 14 -1t14 -2q9 -1 28 -1h9h9q2 0 6 -2t6 -2q1 0 4 -2t5 -2q6 0 9 -1t11 -1q12 0 27 3q21 5 28 7q9 3 31 7q16 3 33 3q8 0 12 -1t12 -1l4 -2q4 -1 7 -2q2 0 6 -2t6 -2q5 -7 12 -8q10 -2 17 -2 h5h5h3q1 0 3 2h8h6h3h4q8 2 13 3l15 3q12 4 26 6q4 0 13 2t14 2l21 3q7 1 20 1q24 -2 43 -6t35 -16q3 1 7 3l6 3q5 3 17 7t19 5h9h8q10 0 19 -3q8 -3 18 -11q16 -12 31 -35q5 -8 13 -24t9 -17q0 -2 1 -3t1 -3q12 -28 29 -53q16 -24 49 -35q8 -6 11 -10q3 -5 11 -13 q13 -16 32 -27q17 -12 38 9q9 9 13 20q3 7 9 23q0 1 1 2l1 2q6 20 18 38q11 17 40 17q11 43 31 74q20 33 53 53q11 5 19 6q12 2 18 2q17 0 34 -6q2 -1 31 -14q5 -3 19 -9q3 -1 10 -5t10 -5q6 0 9 -1t10 -1q5 0 8 1q4 1 8 4q5 1 17 7q7 5 16 13h68h63h40h38q49 0 74 1 q48 2 73 3q14 -15 23 -35q6 -18 6 -35q0 -30 -16 -56q-11 -18 -35 -52q-8 -11 -22 -31q-16 -26 -19 -31h-1h-1h-2h-1q-33 0 -42 -21q-8 -21 -13 -46v-2q-1 -10 -5 -23q-3 -14 -7 -22q-28 -55 -63 -118q-9 -16 -68 -116l-7 -14q-2 -4 -8 -12q-26 -44 -38 -65q-6 -9 -37 -64 q-29 -17 -39 -43q-7 -18 -17 -56q0 -5 -1 -6t-1 -6q-7 -29 -16 -51q-11 -26 -35 -43q-29 -8 -35 -28q-6 -21 -6 -44v-1v-1q-1 -4 -2 -14t-2 -14q-1 -13 -10 -25q-11 -12 -15 -27q-5 -14 -10 -32q0 -3 -1 -4l-1 -1q-5 -23 -15 -47q-9 -21 -36 -32q-5 -11 -10 -30 q-1 -3 -3.5 -14t-4.5 -16q0 -1 -1 -3t-1 -3q0 -2 -2 -4q-12 -44 -26 -75q-16 -36 -56 -54q-1 -4 -2 -12t-2 -12q-4 -19 -5 -25v-1v-1q-6 -47 -19 -85q-13 -40 -56 -61q-8 2 -12 2h-15h-16h-17q-14 -2 -18 -2h-17q-20 0 -40 6q-21 5 -35 23h-1h-3h-3h-2q-11 0 -18 -4 q-10 -6 -14 -10h-1h-1q-4 -4 -10 -7q-8 -5 -13 -6h-5h-7q-10 0 -28 -2q-20 -2 -30 -2q-8 -2 -10 -2t-10 -2q-13 0 -19 -1q-7 -1 -20 -1q-18 0 -40 5q-19 4 -40 20q-32 -9 -84 -19q-43 -10 -92 -10h-12q-4 0 -12 2q-10 0 -14 1q-5 1 -13 1q-2 0 -3 1l-1 1q-3 0 -9 2 q-8 2 -10 2q-15 7 -27 16q-15 10 -16 27v1v3v3v1q0 17 9 27q8 10 18 18q0 3 1 4t3 1l18 18q10 11 11 27q2 34 21 59q12 17 38 47q22 26 42 51q18 25 18 62v1v1v1v1q40 33 56 71q19 46 32 85q0 3 1 4t1 6q10 34 29 76q16 35 48 67q1 2 2 8t2 8q1 5 3 13v7v7q0 13 -1 20 q-1 8 -6 19q-35 42 -47 57q-11 13 -49 60q-36 42 -88 112q-43 59 -78 117q-13 26 -27 48q-23 38 -26 44q-34 17 -51 44q-20 29 -37 59q-16 31 -36 60q-20 27 -54 44q-1 3 -6 8q-4 3 -8 11q-1 3 -6 8q-6 6 -9 10q-17 18 -33 44q-16 23 -16 50z" />
<glyph unicode="z" horiz-adv-x="1767" d="M80 94v8v9q0 16 3 31q5 21 7 28l4 4l1 2l3 6q2 2 2 5v6q0 3 -1 5t-1 5q0 1 -2 4t-2 4t-2 4t-2 4q-3 5 -7 17q-3 8 -3 16v3q0 1 2 3v1v3v9v10q-2 6 -2 9v9q0 36 10 65q11 29 37 44q45 28 81 61q42 37 75 70l9 9l9 9q33 33 75 70q35 29 79 57q18 63 64 112q48 49 104 81v1 v1v1v1q0 5 -1 6l-4 6q0 1 -1 2t-1 4q-2 5 -1 8q1 4 8 8l22 22q16 14 25 21q32 29 52 54q21 26 21 59v6v1v3v3v1q0 3 -1 4t-3 1q0 2 -1 3t-1 3q-1 0 -2 1l-2 2t-4 -1h-7h-7h-7h-8q-29 0 -42 1q-26 2 -40 3h-4h-4q-30 2 -44 3t-46 1h-6h-6h-7h-7q-18 36 -37 29q-17 -8 -39 -23 q-4 -3 -23 -17q-13 -8 -24 -8h-1h-1h-1h-1l-12 3h-13q-16 0 -23 -1q-4 -1 -12 -2t-12 -2q-5 0 -7 -1t-5 -1q-6 -1 -16 -2.5t-14 -1.5q-20 -2 -30 -2q-22 0 -42 11q-18 10 -29 36q-2 6 -2 10v9q0 14 4 23q2 4 4 10t4 10t4 11t4 10q4 9 4 20q0 9 -5 19q-4 8 -17 18q-3 7 -7 19 q-4 8 -4 17q0 15 7 29l12 27q8 14 14 28t6 25t-7 22q-8 11 -26 21v8v8q0 41 4 73q3 37 25 63q22 19 53 27q27 7 60 7h20q7 0 21 -2q13 0 20 -1l21 -3q8 0 30 -2q20 -2 27 -2q2 -1 9 -3.5t10 -4.5t8 -4t8 -4t9 -4.5t8 -3.5q6 -3 18 -11q12 5 38 15q13 4 37 10q6 0 18.5 1.5 t19.5 2.5q26 2 38 2q36 0 81 -5q40 -5 81 -15q26 11 59 16q25 4 60 4q22 0 34 -1q11 -1 35 -3q30 0 45 -1q14 -1 43 -1q15 0 47 2q21 1 44 8q6 -2 12 -6q2 -2 6 -4t6 -4q2 0 3 -1t1 -3q8 -6 18 -9q8 -4 19 1q3 1 7 5l5 5q1 0 2 1l2 2l3 3q5 5 8 7q4 3 8 3t10 -1t10 -2 q6 -1 19 -1q14 -2 20 -2h19q22 0 33 1t32 1q20 0 31 1t33 1h21q6 0 22 -2q7 0 21 -2q3 0 10 -2t10 -2q13 -6 17 -16q5 -12 5 -25v-6v-6l-3 -12q-1 -5 -1 -13q-2 -8 -3 -11t-1 -9q-12 -10 -16 -22t-4 -25q0 -11 3 -25q5 -22 7 -29q3 -9 7 -29q3 -16 3 -30q0 -12 -5 -27 q-4 -13 -17 -26q15 -19 20 -37q6 -20 6 -35q0 -42 -25 -76q-26 -35 -57 -69q-12 -10 -22 -22q-3 -4 -10 -13t-11 -13q-1 -1 -3.5 -5t-4.5 -6q-1 -1 -2.5 -3t-3 -4.5t-2.5 -3.5q-18 -1 -35 -11q-19 -11 -29 -28q0 -35 -18 -60q-19 -27 -41 -49l-4 -4l-4 -4q-16 -16 -23 -25 q-10 -12 -22 -30q-45 -11 -64 -41q-21 -34 -35 -70q0 -1 -2 -5t-2 -7q-11 -29 -29 -61q-18 -29 -53 -47q0 -3 -1 -4q-1 -2 -1 -5q0 -5 -1 -8t-1 -8q0 -28 19 -44q19 -17 41 -26q3 0 5 -1t5 -1q5 -1 14 -2t14 -2q18 -2 27 -2q25 0 53 5q23 4 50 12q3 0 10 2t10 2t10 2t11 2 t14 2t14 2q18 2 27 2q16 0 34 -3q14 -3 36 -11q5 1 20 5q14 4 23 5q11 5 20 6q3 0 10.5 1.5l12.5 2.5l21 3q7 1 22 1q11 0 31 -2q13 -1 28 -10q14 -8 20 -22q5 -17 5 -31q0 -8 -1 -13t-1 -16q-2 -2 -2 -5q-2 -4 -3 -7q0 -5 -2 -15t-2 -14q-13 -7 -21 -17q-7 -10 -7 -20 q0 -6 5 -18l9 -21l2 -2t1 -2q2 -1 3 -6q1 -4 5 -12q3 -7 3 -13q3 -12 5 -32q1 -11 1 -33q0 -19 -1 -28q-1 -10 -1 -30q-2 -6 -2 -7v-7l-3 -36q-1 -13 -1 -38v-6v-6v-7v-7q-19 -16 -42 -22q-21 -7 -50 -7q-11 0 -33 2q-6 1 -17.5 2.5t-16.5 1.5q-10 2 -18 3q-6 1 -19 1 q-11 0 -17 1q-7 1 -18 1h-11q-4 0 -10 -2q-6 0 -9 -1t-11 -1q-1 0 -4 2t-5 2q-6 2 -10 2q-8 2 -11 2h-9q-8 0 -24 -2q-5 -1 -13 -2.5t-12 -1.5q-12 -4 -23 -6q-16 -2 -24 -2q-12 0 -27 5q-13 5 -27 18q-51 -16 -101 -21q-49 -6 -99 -6q-27 0 -40 1t-38 1q-26 0 -39 1t-41 1 q-22 0 -64 -2q-33 -2 -67 -6q-19 16 -33 22q-17 7 -35 7q-17 0 -32 -4l-33 -9q-11 -4 -33 -10q-16 -4 -35 -4q-12 0 -29 5q-15 4 -32 15q-45 -6 -94 -9t-101 -3h-40q-14 0 -40 2q-6 0 -20 2t-20 2q-7 0 -21 2t-21 2q-12 16 -18 36q-7 21 -8 40z" />
<glyph unicode="{" horiz-adv-x="768" d="M279 555l-244 274l215 181zM190 1552q0 32 9 54q7 22 32 30q1 0 7.5 -1.5t10.5 -2.5q12 -2 17 -2q4 0 14 -2t14 -2q13 -1 25 -12q12 12 27 18q14 6 29 6h7q1 0 9 -2q9 -1 21 -8q9 -5 20 -16q9 9 18 14q10 7 19 8l6 2h4q15 0 29 -13q14 -14 20 -46q2 -18 2 -26v-25 q0 -27 -1 -40t-1 -38q-2 -26 -2 -39v-39q0 -18 2 -54q1 -27 9 -56q-1 -27 -3 -51q-2 -34 -2 -50q0 -19 2 -57q0 -10 1 -29t2 -29v-6q0 -2 2 -8q0 -20 2 -62q3 -26 8 -24q-38 -59 -47 -60q-10 -1 -70 -69q50 -70 62 -86q17 -21 49 -55v3v2v1v0v1v-1v0v-1v-1v-1v-1v-10 q0 -16 2 -50v-16v-16q0 -24 -2 -70q-2 -35 -6 -65l3 -15q1 -5 1 -18v-11v-10q-2 -10 -2 -15v-13q0 -6 2 -16t6 -17q-3 -13 -5 -42q-1 -15 -1 -42v-32q0 -12 2 -32v-32v-33q0 -24 -1 -36q-2 -26 -3 -40q-5 -27 -15 -36q-12 -9 -24 -9h-4q-2 0 -4 2q-3 0 -4 1q-2 1 -5 1 q-7 9 -13 11q-8 3 -15 3q-3 0 -13 -2t-14 -2q-3 -1 -8 -2.5t-6 -1.5q-8 -2 -13 -2t-15 2q-6 1 -13 10q-11 -7 -26 -12q-13 -4 -30 -4q-9 0 -14 1t-14 1q-5 0 -7 1t-8 1q-4 0 -10 1t-10 2q-7 1 -18 1h-7h-8q-2 0 -3 -1t-3 -1q-6 38 -9 74q-3 38 -3 76q0 20 2 58q1 28 6 54 q-3 18 -5 52q-1 16 -1 49q0 22 2 60q0 9 1.5 28.5t2.5 30.5q1 10 2 29t1 29q1 19 1 58q0 18 -2 60q-1 26 -8 63v4v4v2v4q0 25 -1 38t-1 38l-3 36q-1 11 -1 36q0 16 1 25l3 24q0 10 3 23q4 16 5 24q-7 35 -9 75q-1 27 -1 81v5v7v13v12v16v16q0 9 -1 15q-1 5 -1 16q0 6 2 20 q2 12 2 17q2 14 3 22q1 7 1 21q0 13 -1 20q-2 10 -7 17q0 5 1 8t1 10v9v8v20q0 7 -2 21q0 11 -1 17t-1 20q-1 7 -2 20t-2 20q-3 19 -3 37zM379 49q0 3 1 4t1 4v7v4q2 8 2 13v15v12v11q-2 8 -2 11v11q0 6 2 20q1 8 10 17q0 5 -1 6t-1 4t-2 9q0 1 -1 3t-1 3t2 5t2 5q25 7 47 8 q30 2 47 2h32q10 0 32 -2q3 -2 11 -5q3 -1 9 -1h4q1 0 5 2h4q2 0 4 2q6 2 10 3t12 1h2h5h6q8 0 13 -1t13 -3l6 -2h6q6 -2 7 -2h6q6 0 9 1t11 3q12 -7 15 -21q1 -4 2 -14t2 -14v-3v-3v-5v-5v-9q0 -4 2 -10q-8 -5 -11 -9q-4 -4 -4 -9q2 -7 6 -11q4 -8 5 -12l3 -9q1 -3 1 -9 q0 -3 -2 -13q-1 -3 -2 -8t-2 -8q0 -1 -1 -2l-1 -2q-5 -7 -6 -15q-3 -8 -3 -18q-3 -1 -7 -3q-2 -1 -7 -1t-7 1q-4 2 -7 3l-12 3q-7 1 -15 -5q-3 3 -9 5q-3 1 -11 1t-11 -1l-12 -3q-2 -1 -6 -2.5t-5 -1.5q-6 -2 -12 -2q-3 0 -5 1t-5 1q-3 3 -5 4t-5 4q-9 -4 -25 -7 q-14 -3 -28 -3h-5h-8q-9 0 -27 2q-14 2 -24 6h-2q-5 0 -8 -1t-8 -1q-1 -1 -5 -3q-2 -1 -5 -1h-3h-4q-3 0 -5 1t-5 1q-9 14 -11 22q-3 9 -3 19zM389 1487q0 3 1 4t1 4v4v4q2 8 2 13v14v9v9q-2 8 -2 12v9q0 6 2 16q1 7 10 17q0 3 -1 4t-1 4q-1 3 -3 7q-1 2 -1 7q0 1 1 3 q2 4 3 5q22 4 46 6q30 2 47 2h32q9 0 31 -2q8 -2 11 -3t10 -1h3h5q3 0 4 1t4 1q6 2 10 3t12 1h6h5q10 0 14 -1l12 -3q5 0 8 -1q2 -1 5 -1h7h5h10q2 0 10 2q12 -7 15 -19q0 -2 1.5 -10.5t2.5 -13.5v-3v-1v-5v-5v-8q0 -2 2 -8q-9 -6 -11 -8q-3 -5 -3 -9q1 -3 5 -9q4 -5 5 -11 q1 -3 3 -7q1 -2 1 -8q0 -4 -2 -12q-1 -2 -2 -6t-2 -6q0 -2 -1 -3l-1 -1q-1 -7 -5 -14t-4 -15q-3 -1 -7 -3q-2 -1 -7 -1q-3 0 -6 1q-4 1 -6 3q-10 0 -14 1q-7 1 -13 -3q-2 1 -5.5 2.5t-4.5 1.5q-6 2 -10 2q-5 0 -11 -2q-8 -2 -12 -2q-2 -1 -6 -2.5t-5 -1.5q-6 -2 -11 -2 q-3 0 -5 1q-3 1 -6 1q-5 2 -6 3l-2 2t-2 1q-6 -1 -25 -5q-14 -3 -28 -3h-5h-7q-10 0 -26 2q-4 0 -13 2t-13 2h-9q-5 0 -7 -2q-3 0 -5 -1t-5 -1h-3h-3q-3 0 -5 1t-6 1q-9 12 -11 19q-3 7 -3 16z" />
<glyph unicode="|" horiz-adv-x="765" d="M252 1552q0 32 6 54q6 23 25 30q3 0 8 -2t7 -2q10 -2 15 -2q3 0 10 -2t11 -2q9 -1 20 -12q10 12 21 18t22 6h6q1 0 7 -2q8 -2 16 -8q11 -9 16 -16q6 8 14 14q8 7 15 8q2 2 4 2h4q13 0 23 -13t16 -46q2 -18 2 -26v-25q0 -27 -1 -40t-1 -38q-2 -26 -2 -39v-39q0 -18 2 -54 q1 -27 6 -56q0 -35 -1 -51q-1 -17 -1 -50q0 -38 1 -57t1 -58v-6q0 -2 2 -8q0 -41 1 -62t1 -67v-43q0 -15 -2 -49q0 -31 1 -47q1 -17 1 -49q0 -31 1 -47q1 -17 1 -50v-16v-16q0 -47 -1 -70q-2 -45 -5 -65l3 -15q1 -5 1 -18v-11v-10q-2 -10 -2 -15v-13q0 -11 1 -16 q2 -12 5 -17q-2 -20 -3 -42q-1 -15 -1 -42v-32v-32q0 -21 1 -32t1 -33q0 -24 -1 -36q-2 -26 -3 -40q-4 -27 -12 -36t-18 -9h-3l-4 2q-2 0 -3 1t-3 1q-6 8 -11 11q-4 3 -13 3q-3 0 -9 -2q-8 -2 -12 -2q-1 0 -4.5 -1.5t-5.5 -2.5q-8 -2 -10 -2q-5 0 -11 2q-5 1 -12 10 q-11 -8 -21 -12q-11 -4 -24 -4q-6 0 -10 1t-10 1q-5 0 -6 1t-7 1l-15 3q-5 1 -15 1h-5h-6q-2 0 -2 -1t-2 -1q-6 38 -9 74q-3 38 -3 76q0 20 2 58q2 28 6 54q-4 24 -4 52v49q0 41 1 60q2 38 3 59q0 20 2 58t2 58q0 18 -2 60q-2 30 -6 63v4v4v2v4q0 25 -1 38q-2 26 -3 38 q0 24 -1 36q-1 11 -1 36q0 16 1 25q1 8 1 24q0 3 1.5 10.5l2.5 12.5q0 4 2 12t2 12q-8 37 -8 75v81v5v7v13v12v16v16q0 9 -1 15q-1 5 -1 16q0 13 1 20q2 12 3 17q0 14 1 22q1 7 1 21q0 13 -1 20q-2 12 -5 17q0 5 1 8t1 10v9v8v20q0 7 -2 21q0 11 -1 17t-1 20q0 7 -1 20 t-2 20q-1 13 -1 37z" />
<glyph unicode="}" horiz-adv-x="800" d="M55 1511q0 5 1 8q2 4 3 7q2 7 6 11q4 6 5 9q0 4 -3 9q-2 2 -12 8q2 6 2 8v8v5v5v1v3q1 4 2 12t2 12q2 12 15 19q8 -2 10 -2h10h5h8q3 0 5 1t7 1l12 3q4 1 14 1h6h5q8 0 12 -1t10 -3q3 0 4 -1t4 -1h6h3q6 0 9 1t11 3q22 2 32 2h32q17 0 47 -2q22 -2 45 -6q1 -1 3 -5l1 -3 q0 -5 -1 -7q-2 -4 -3 -7q0 -3 -1 -4t-1 -4q9 -8 10 -16q2 -12 2 -17v-9q0 -4 -2 -12v-9v-9v-14q0 -5 2 -13v-4v-4q0 -3 1 -4t1 -4q0 -9 -3 -16q-2 -7 -11 -19q-3 0 -5 -1q-3 -1 -6 -1h-3h-3q-3 0 -5 1t-5 1q-2 2 -7 2h-9q-4 0 -12 -2t-12 -2q-18 -2 -28 -2h-7h-5 q-14 0 -27 3q-18 4 -26 5q-1 0 -2 -1l-2 -2t-6 -3q-3 0 -5 -1t-6 -1q-5 0 -11 2q-1 0 -5 1.5t-6 2.5q-5 0 -11 2t-12 2q-4 0 -10 -2q-1 0 -4.5 -1.5t-5.5 -2.5q-6 4 -12 3q-5 -1 -15 -1q-2 -2 -6 -3q-3 -1 -6 -1q-5 0 -7 1q-4 2 -7 3q0 8 -3 15q-2 4 -6 14l-1 1q-1 1 -1 3 q-1 2 -2 6t-2 6q-2 8 -2 12zM61 76q0 6 1 9q2 6 4 9q1 4 5 12q4 5 5 11q0 5 -3 9t-12 9q2 6 2 10v9v5v5v3v3q1 11 5 28q1 13 14 21q8 -2 11 -3t9 -1h7l6 2h6l6 2q8 2 13 3t14 1h5h5h2q8 0 12 -1t10 -3q2 -2 5 -2h4q2 -2 4 -2h4q6 0 9 1q8 3 11 5q22 2 32 2h32q18 0 48 -2 q21 -1 46 -8q0 -1 2 -5t2 -5t-1 -3t-1 -3q-2 -6 -2 -9t-1 -4t-1 -6q9 -9 10 -17q2 -12 2 -20v-11q0 -3 -2 -11v-11v-12v-15q0 -5 2 -13v-4v-7q0 -3 1 -4t1 -4q0 -10 -3 -19q-2 -8 -11 -22q-3 0 -5 -1t-5 -1h-3h-3q-3 0 -5 1q-4 1 -6 3q-5 0 -8 1t-8 1h-2q-11 -5 -23 -6 q-18 -2 -28 -2h-7h-6q-14 0 -27 3q-18 4 -26 7q-3 -3 -5 -4t-5 -4q-3 0 -5 -1t-5 -1q-5 0 -11 2q-2 0 -6 2t-6 2q-8 2 -11 3t-11 1t-11 -1q-7 -2 -10 -5q-8 6 -14 5q-8 -2 -13 -3q-3 -1 -7 -3q-2 -1 -7 -1t-7 1q-4 2 -7 3q0 8 -2 18q-2 8 -6 15q0 1 -1 2l-1 2q0 3 -2 8t-2 8 q-3 7 -3 13zM225 944q6 -8 9 24q2 42 2 62q2 6 2 8v6q0 10 1 29t2 29q1 19 1 57q0 33 -1 50q-1 24 -3 51q7 32 8 56q2 36 2 54v38q0 12 -2 40q0 25 -1 38t-1 40v25q0 8 2 26q6 32 21 46q13 13 28 13h4l6 -2q8 -1 20 -8q9 -6 17 -14q9 9 21 16t20 8q8 2 9 2h7q14 0 29 -6 q14 -6 27 -18q12 10 26 12q5 0 14 2t13 2t18 2q3 1 9 2.5t8 1.5q25 -8 33 -30q8 -24 8 -54q0 -11 -2 -37q0 -7 -2 -20t-2 -20q0 -13 -1 -19q-2 -14 -2 -18q-2 -14 -2 -20v-21v-8v-9q0 -7 1 -10t1 -8q-5 -7 -7 -17q-1 -7 -1 -20q0 -14 1 -21q1 -8 3 -22q0 -5 2 -17 q2 -14 2 -20q0 -11 -1 -16t-1 -15v-16v-16v-12v-13v-7v-5q0 -54 -1 -81q-2 -40 -9 -75q1 -8 5 -24q3 -13 3 -23l3 -24q1 -9 1 -25q0 -24 -1 -35q-2 -24 -3 -37q0 -24 -1 -37t-1 -39v-4v-2v-4v-4q-7 -37 -8 -63q-2 -42 -2 -60q0 -40 1 -59l3 -57q1 -11 2.5 -31t1.5 -29 q2 -38 2 -59q0 -33 -1 -49q-2 -34 -5 -52q5 -27 6 -55q2 -38 2 -57q0 -38 -3 -76q-3 -36 -9 -74q-2 0 -3 1t-3 1h-7h-7q-11 0 -18 -1l-21 -3q-5 0 -7 -1q-3 -1 -8 -1q-9 0 -14 -1t-14 -1q-16 0 -28 4q-14 4 -28 12q-7 -9 -13 -10q-10 -2 -15 -2q-4 0 -12 2q-3 0 -8 2t-7 2 q-3 0 -13 2t-14 2q-7 0 -15 -3q-6 -2 -13 -11q-3 0 -4 -1t-4 -1q-2 -2 -4 -2h-5q-12 0 -23 9t-15 36l-3 39q-2 24 -2 37v33v32q2 18 2 31v33q0 27 -1 42q-2 28 -5 42q2 3 7 16q2 10 2 17v13q0 8 -3 15v10v11q0 7 2 17t3 16q-4 31 -6 66q-3 35 -3 69v16v16q2 34 2 50v5v3 q38 39 50 55q1 1 61 86q-58 67 -69 69t-48 60zM739 829l-243 -274l28 455z" />
<glyph unicode="~" horiz-adv-x="1206" d="M100 1933q1 -7 22 -26q20 -17 18 -23q-9 -29 82 -115v3q9 8 66 33q65 39 65 41q24 17 51 41l1 -1h1l1 -1h1l1 -1h1l1 -1l1 -1h1l1 -1h2l43 -23l64 -44q6 -5 11 -8.5t7 -4.5t3 0q2 2 23 -13q14 -8 31 -10q45 -20 68 -30q56 -60 56 -61q25 -18 38 -20q5 -2 5 3 q-1 0 0.5 0.5t4.5 3t7.5 5.5t11.5 8t15 10.5t19 13t22.5 15t26 18t29.5 20.5q22 14 23 13t3.5 0t7.5 4t12 8l153 112q-25 16 -36 26.5t-10 17.5q-2 7 -23 25q-17 17 -16 23q9 29 -72 59v-4q-9 -7 -68 -44q-66 -41 -67 -42q-22 -14 -50 -41q-23 13 -51 28l-2 1q-12 5 -20 6 q-4 4 -10.5 8.5t-16 11t-16.5 11.5q-13 9 -25 16t-18 11l-6 3l-38 18h3q1 6 -42 35q-74 51 -75 51q-29 21 -39 21q-3 0 -6 -3q4 3 -135 -93q-6 -5 -11 -8.5t-7.5 -4.5t-3.5 0q-2 0 -22 -13l-65 -45q-47 -30 -52 -42z" />
<glyph unicode="&#xa1;" />
<glyph unicode="&#xa2;" />
<glyph unicode="&#xa3;" />
<glyph unicode="&#xa4;" />
<glyph unicode="&#xa5;" />
<glyph unicode="&#xa6;" />
</font>
</defs>
</svg>
