<?xml version="1.0" standalone="no"?>
<!DOCTYPE svg PUBLIC "-//W3C//DTD SVG 1.1//EN" "http://www.w3.org/Graphics/SVG/1.1/DTD/svg11.dtd" >
<svg xmlns="http://www.w3.org/2000/svg" xmlns:xlink="http://www.w3.org/1999/xlink" version="1.1">
<metadata>
Created by FontForge 20170731 at Tue Feb  2 01:49:21 2021
 By Aleksey,,,
(c) 2005 Microsoft Corporation. All Rights Reserved.
</metadata>
<defs>
<font id="ConsolasRegular" horiz-adv-x="1126" >
  <font-face 
    font-family="Consolas"
    font-weight="500"
    font-stretch="normal"
    units-per-em="2048"
    panose-1="0 0 0 0 0 0 0 0 0 0"
    ascent="1521"
    descent="-527"
    x-height="1004"
    cap-height="1307"
    bbox="-194 -471 1268 1950"
    underline-thickness="50"
    underline-position="-150"
    unicode-range="U+0020-FB02"
  />
<missing-glyph horiz-adv-x="457" 
d="M20 675h417v-675h-417v675zM68 48h320v579h-320v-579z" />
    <glyph glyph-name=".notdef" horiz-adv-x="457" 
d="M20 675h417v-675h-417v675zM68 48h320v579h-320v-579z" />
    <glyph glyph-name=".notdef" horiz-adv-x="457" 
d="M20 675h417v-675h-417v675zM68 48h320v579h-320v-579z" />
    <glyph glyph-name=".null" horiz-adv-x="0" 
 />
    <glyph glyph-name="nonmarkingreturn" horiz-adv-x="682" 
 />
    <glyph glyph-name="space" unicode=" " 
 />
    <glyph glyph-name="exclam" unicode="!" 
d="M455 1413h211l-27 -1030h-154zM561 246q28 0 51 -10t42 -29q18 -20 28 -42q10 -24 10 -52t-10 -51t-28 -41q-17 -17 -42 -28t-51 -11q-27 0 -52 11t-42 28q-17 15 -28 41q-11 25 -11 51q0 25 11 52q11 25 28 42q19 19 42 29t52 10z" />
    <glyph glyph-name="quotedbl" unicode="&#x22;" 
d="M258 1413h221l-28 -469h-164zM647 1413h221l-28 -469h-164z" />
    <glyph glyph-name="numbersign" unicode="#" 
d="M1030 497v-130h-223l-37 -367h-148l37 367h-255l-37 -367h-148l37 367h-213v130h226l36 350h-211v130h224l34 330h146l-33 -330h256l34 330h148l-35 -330h215v-130h-228l-35 -350h210zM417 497h256l35 350h-256z" />
    <glyph glyph-name="dollar" unicode="$" 
d="M567 1305l25 190h145l-26 -195q35 -3 105 -13q40 -6 97 -19v-154q-55 14 -111 24q-55 10 -110 15l-57 -428q58 -22 133 -56q67 -32 119 -72q52 -41 85 -99q32 -58 32 -136q0 -85 -34 -149q-36 -67 -95 -110q-60 -44 -147 -70q-89 -27 -189 -31l-33 -238h-146l33 238
q-80 6 -154 18q-65 9 -128 25v166q63 -23 138 -36q81 -15 165 -19l59 450q-68 27 -128 54q-59 27 -112 70q-51 41 -81 95q-31 55 -31 131q0 60 26 123q25 59 81 109q57 49 139 80t200 37zM496 780l51 375q-124 -10 -182 -58t-58 -122q0 -69 48 -113q46 -44 141 -82zM610 551
l-51 -395q136 11 197 60t61 136q0 38 -13 65q-14 29 -39 51q-27 24 -64 43q-48 24 -91 40z" />
    <glyph glyph-name="percent" unicode="%" 
d="M940 1413h166l-922 -1413h-164zM573 1133q0 -66 -19 -120q-20 -55 -54 -96q-37 -42 -86 -64q-51 -24 -113 -24t-109 19q-48 19 -83 57q-36 39 -53 92q-19 54 -19 127q0 66 19 120q20 56 55 96q36 42 86 64q51 23 112 23q62 0 110 -19q50 -20 83 -56t53 -92
q18 -56 18 -127zM426 1128q0 87 -32 130q-32 42 -89 42q-29 0 -51 -13q-23 -14 -38 -36q-16 -23 -24 -54q-8 -34 -8 -69q0 -87 32 -130q32 -42 89 -42q30 0 52 13q21 12 38 36q15 23 23 55q8 34 8 68zM1090 289q0 -66 -19 -120t-55 -96q-37 -42 -86 -64q-52 -23 -113 -23
q-62 0 -109 19q-49 19 -83 56q-35 38 -53 93q-19 54 -19 127q0 66 19 120q20 56 55 96q36 42 86 64q51 23 112 23q62 0 110 -19q51 -20 84 -56t53 -93q18 -55 18 -127zM943 285q0 87 -32 130q-33 42 -90 42q-29 0 -51 -13q-23 -14 -38 -36q-16 -22 -24 -54q-8 -34 -8 -69
q0 -87 32 -130q32 -42 89 -42q30 0 52 13q21 12 38 36q16 22 24 55q8 34 8 68z" />
    <glyph glyph-name="ampersand" unicode="&#x26;" 
d="M848 682h176q0 -129 -26 -238q-25 -105 -74 -192l202 -252h-231l-88 109q-69 -59 -158 -91q-90 -32 -190 -32q-97 0 -172 27q-76 27 -126 76q-52 49 -77 115q-27 68 -27 148q0 74 20 136q20 60 54 106t79 82q46 37 93 65l-22 31q-56 70 -83 140q-28 69 -28 139t23 133
q22 60 68 106q43 43 110 69q63 25 149 25q79 0 142 -23q62 -23 102 -63q42 -42 62 -92q20 -54 20 -112q0 -77 -25 -131q-24 -54 -67 -100q-41 -43 -95 -78q-50 -32 -110 -66l258 -322q44 120 41 285zM238 373q0 -52 17 -97q16 -42 49 -75q34 -34 77 -49q46 -17 102 -17
q131 0 228 96l-318 398q-27 -17 -62 -49q-31 -28 -49 -57q-22 -34 -32 -68q-12 -37 -12 -82zM670 1077q0 75 -42 118q-42 42 -114 42q-41 0 -70 -13q-31 -13 -52 -36q-20 -22 -31 -54q-11 -33 -11 -67q0 -52 20 -100q19 -46 64 -103l27 -35q47 26 81 49q40 26 67 54
q28 28 45 65q16 33 16 80z" />
    <glyph glyph-name="quotesingle" unicode="'" 
d="M449 1413h229l-29 -469h-172z" />
    <glyph glyph-name="parenleft" unicode="(" 
d="M866 -313l-105 -107q-461 428 -461 944q0 123 25 242q24 121 79 241q53 119 144 242q86 119 217 240l101 -103q-388 -382 -388 -849q0 -230 98 -446q96 -212 290 -404z" />
    <glyph glyph-name="parenright" unicode=")" 
d="M260 1382l105 107q461 -428 461 -950q0 -111 -22 -224q-22 -115 -75 -237q-52 -120 -142 -247q-92 -127 -226 -251l-101 103q195 194 291 403q96 210 96 440q0 476 -387 856z" />
    <glyph glyph-name="asterisk" unicode="*" 
d="M655 987l306 -147l-68 -119l-281 186l23 -342h-143l22 342l-287 -186l-63 117l307 151l-307 154l69 117l283 -189l-24 342h143l-25 -342l283 191l70 -123z" />
    <glyph glyph-name="plus" unicode="+" 
d="M1042 621v-152h-393v-408h-172v408h-393v152h393v405h172v-405h393z" />
    <glyph glyph-name="comma" unicode="," 
d="M238 -342v137q51 -1 99 9q47 10 85 33q35 20 58 53q22 31 22 73t-14 68q-15 25 -33 48q-21 26 -32 47q-15 26 -15 67q0 20 8 44q7 21 25 42q16 19 42 31q25 12 60 12q34 0 68 -14q31 -15 57 -45q24 -30 39 -75q14 -47 14 -106q0 -82 -30 -159q-33 -79 -91 -136
q-64 -60 -151 -94q-93 -35 -211 -35z" />
    <glyph glyph-name="hyphen" unicode="-" 
d="M862 627v-164h-598v164h598z" />
    <glyph glyph-name="period" unicode="." 
d="M555 315q35 0 65 -13q31 -14 53 -36q20 -20 35 -53q13 -30 13 -66q0 -35 -13 -64q-14 -31 -35 -52q-22 -22 -53 -36q-30 -13 -65 -13q-36 0 -65 13t-52 36t-36 52t-13 64q0 36 13 66q14 31 36 53q23 23 52 36t65 13z" />
    <glyph glyph-name="slash" unicode="/" 
d="M801 1413h166l-686 -1628h-166z" />
    <glyph glyph-name="zero" unicode="0" 
d="M1038 653q0 -150 -30 -273q-30 -124 -91 -212q-62 -90 -151 -137q-91 -49 -213 -49q-107 0 -191 40q-86 39 -147 121t-94 209q-33 128 -33 301q0 151 31 274q30 126 91 213q59 87 151 137q92 48 212 48q105 0 191 -39q87 -41 147 -122q61 -81 94 -210q33 -127 33 -301z
M862 647q0 22 -2 68q-4 44 -6 65l-553 -411q14 -50 38 -96q22 -43 56 -75q33 -33 74 -49q41 -18 94 -18q69 0 124 33q54 32 94 98q39 64 60 162q21 96 21 223zM264 659q0 -41 1 -62q0 -31 3 -60l553 409q-14 49 -38 93q-21 39 -55 73q-32 30 -73 47q-42 17 -92 17
q-67 0 -123 -33t-95 -98q-39 -66 -60 -162q-21 -97 -21 -224z" />
    <glyph glyph-name="one" unicode="1" 
d="M997 162v-162h-821v162h336v954l-313 -170l-64 148l416 219h154v-1151h292z" />
    <glyph glyph-name="two" unicode="2" 
d="M1008 166v-166h-861v156l338 336q86 86 135 142q52 59 81 110q29 50 39 93q10 41 10 95q0 50 -13 92q-14 44 -40 76q-27 33 -70 52q-42 19 -103 19q-84 0 -151 -37q-69 -38 -125 -96l-96 115q74 79 171 125q97 47 224 47q86 0 159 -26q70 -25 123 -75t81 -120
q28 -69 28 -160q0 -73 -20 -139q-19 -64 -60 -127q-40 -64 -102 -132t-146 -149l-237 -231h635z" />
    <glyph glyph-name="three" unicode="3" 
d="M983 397q0 -85 -35 -161q-34 -76 -105 -132q-72 -58 -176 -89q-107 -33 -247 -33q-72 0 -140 5q-47 3 -116 13v156q67 -11 131 -17q69 -6 141 -6q98 0 168 18q69 16 113 50q45 34 64 80q20 48 20 106q0 53 -24 94q-24 40 -67 67q-44 28 -104 41q-59 13 -133 13h-149v143
h151q60 0 108 16q48 15 83 44q33 27 53 72q18 42 18 96q0 105 -64 153t-188 48q-68 0 -136 -13q-71 -13 -150 -39v152q30 10 73 22q25 6 77 16q22 4 76 10q37 3 73 3q105 0 183 -22q79 -22 132 -65t80 -102q27 -60 27 -135q0 -111 -57 -188q-58 -76 -158 -121q50 -7 101 -32
q49 -24 89 -61q38 -36 64 -89q24 -51 24 -113z" />
    <glyph glyph-name="four" unicode="4" 
d="M1073 442v-153h-223v-289h-178v289h-629v153l557 865h250v-865h223zM672 442v697l-455 -697h455z" />
    <glyph glyph-name="five" unicode="5" 
d="M975 418q0 -98 -42 -177q-43 -81 -115 -137q-74 -58 -174 -90q-102 -32 -216 -32q-18 0 -62 2t-67 4q-22 1 -64 5q-38 4 -57 7v158q51 -13 124 -19q69 -6 140 -6q81 0 144 19q65 20 109 55q45 34 69 86q24 49 24 113q0 122 -87 178q-88 55 -252 55h-248v668h704v-152
h-540v-367h114q92 0 183 -17q87 -16 159 -59q68 -43 112 -114q42 -72 42 -180z" />
    <glyph glyph-name="six" unicode="6" 
d="M1024 414q0 -88 -32 -169q-32 -78 -93 -137t-144 -92q-84 -34 -188 -34q-107 0 -191 35q-85 35 -139 106q-57 72 -85 180q-29 111 -29 258q0 103 13 194q14 97 43 177q30 82 80 152q50 69 125 119q70 47 175 77q101 27 234 27h129v-152h-140q-119 0 -203 -28
q-86 -29 -144 -79q-57 -50 -89 -123q-31 -72 -39 -161l-4 -41q63 37 146 60q81 22 178 22q98 0 174 -29q74 -29 124 -80q48 -51 74 -124q25 -71 25 -158zM842 403q0 58 -14 109q-15 48 -46 82q-31 32 -78 52q-48 18 -114 18q-41 0 -77 -7q-42 -8 -76 -19q-46 -17 -72 -29
q-34 -16 -62 -34q0 -129 18 -215t54 -139q34 -51 87 -74q51 -22 120 -22q58 0 105 19q48 19 82 54q35 36 54 88q19 50 19 117z" />
    <glyph glyph-name="seven" unicode="7" 
d="M1001 1307v-162l-548 -1145h-199l569 1145h-706v162h884z" />
    <glyph glyph-name="eight" unicode="8" 
d="M1008 328q0 -83 -34 -147q-36 -67 -95 -109q-64 -45 -144 -67q-84 -23 -180 -23q-107 0 -188 24q-82 24 -137 67q-54 42 -83 102q-28 57 -28 130q0 121 67 207q68 88 207 158q-128 65 -187 145t-59 182q0 62 26 122q25 57 79 105q51 45 131 74q79 27 186 27
q102 0 178 -21q77 -23 128 -62q53 -41 78 -97q26 -58 26 -127q0 -115 -63 -194q-66 -81 -181 -140q54 -26 108 -64q49 -34 87 -78q37 -42 58 -96q20 -54 20 -118zM801 1004q0 89 -62 133q-62 43 -176 43q-113 0 -174 -43q-63 -43 -63 -129q0 -39 15 -72t47 -62
q32 -28 78 -57q44 -27 112 -57q112 52 168 111q55 56 55 133zM819 315q0 37 -12 72t-43 69t-83 68q-50 33 -132 70q-65 -32 -114 -65q-47 -33 -75 -66q-30 -36 -41 -70q-12 -36 -12 -76q0 -44 20 -79q21 -36 53 -59q34 -24 81 -36t102 -12q51 0 100 11q46 10 82 34
q35 22 54 57q20 35 20 82z" />
    <glyph glyph-name="nine" unicode="9" 
d="M1001 727q0 -193 -46 -328q-46 -138 -136 -226q-91 -89 -223 -131q-134 -42 -307 -42h-109v152h121q127 0 223 26q93 25 157 77q62 50 95 123q34 73 41 165l4 41q-60 -36 -145 -59q-84 -23 -178 -23q-98 0 -174 29q-74 28 -124 81t-75 124q-25 69 -25 155q0 91 33 170
t93 138q56 56 142 92q81 34 183 34q96 0 180 -32q80 -31 142 -103q59 -71 94 -186q34 -112 34 -277zM543 1182q-57 0 -103 -18q-47 -19 -82 -54q-36 -38 -55 -88q-20 -54 -20 -119q0 -61 15 -109q14 -48 45 -81q29 -34 78 -52q48 -18 114 -18q39 0 77 7q44 8 77 19
q38 12 71 28q35 17 61 34q0 131 -19 216q-20 88 -55 139t-87 74q-51 22 -117 22z" />
    <glyph glyph-name="colon" unicode=":" 
d="M563 1022q31 0 59 -12q29 -14 49 -34q20 -21 34 -49q12 -29 12 -59q0 -32 -12 -59q-14 -29 -34 -49q-21 -21 -49 -33t-59 -12q-32 0 -59 12q-28 12 -49 33t-33 49q-12 27 -12 59q0 30 12 59q12 28 33 49q20 20 49 34q27 12 59 12zM563 289q31 0 59 -12q29 -13 49 -34
t34 -49q12 -28 12 -59q0 -32 -12 -59q-14 -29 -34 -49q-21 -21 -49 -33t-59 -12q-32 0 -59 12q-28 12 -49 33t-33 49q-12 27 -12 59q0 31 12 59t33 49q20 21 49 34q27 12 59 12z" />
    <glyph glyph-name="semicolon" unicode=";" 
d="M250 -342v137q51 -1 99 9q47 10 85 33q35 20 58 53q22 31 22 73t-14 68q-15 25 -33 48q-21 26 -32 47q-15 26 -15 67q0 20 8 44q7 21 25 42q16 19 42 31q25 12 60 12q34 0 68 -14q31 -15 57 -45q24 -30 39 -75q14 -47 14 -106q0 -82 -30 -159q-33 -79 -91 -136
q-64 -60 -151 -94q-93 -35 -211 -35zM563 1022q31 0 59 -12q29 -14 49 -34q20 -21 34 -49q12 -29 12 -59q0 -32 -12 -59q-14 -29 -34 -49q-21 -21 -49 -33t-59 -12q-32 0 -59 12q-28 12 -49 33t-33 49q-12 27 -12 59q0 30 12 59q12 28 33 49q20 20 49 34q27 12 59 12z" />
    <glyph glyph-name="less" unicode="&#x3c;" 
d="M373 547l545 -453l-109 -110l-672 561l672 561l109 -111z" />
    <glyph glyph-name="equal" unicode="=" 
d="M993 793v-147h-860v147h860zM993 445v-147h-860v147h860z" />
    <glyph glyph-name="greater" unicode="&#x3e;" 
d="M754 543l-545 452l108 111l672 -561l-672 -561l-108 110z" />
    <glyph glyph-name="question" unicode="?" 
d="M922 969q0 -163 -90 -245q-91 -85 -261 -95l-8 -246h-149l-13 383h117q63 0 102 13q41 14 66 37q25 24 36 59q11 36 11 77q0 73 -30 130t-84 96q-55 40 -128 59q-77 20 -163 20h-25v156h27q103 0 185 -19q83 -20 149 -51q63 -32 114 -77q48 -44 81 -93q32 -50 48 -101
q15 -53 15 -103zM487 246q29 0 52 -10t42 -29q17 -18 27 -42t10 -52t-10 -51q-11 -25 -27 -41q-17 -17 -42 -28t-52 -11q-26 0 -51 11t-42 28q-17 15 -28 41q-10 23 -10 51t10 52q11 25 28 42q19 19 42 29t51 10z" />
    <glyph glyph-name="at" unicode="@" 
d="M860 928l-80 -520q-8 -60 -10 -106q-2 -42 6 -66q6 -24 20 -33q13 -10 35 -10q27 0 53 30q25 28 45 91q19 60 31 155q11 99 11 223q0 144 -18 257t-57 192q-38 78 -101 121q-64 41 -152 41q-69 0 -131 -34q-62 -33 -118 -97q-56 -63 -99 -150q-45 -88 -76 -194
q-33 -113 -49 -228q-18 -122 -18 -254q0 -323 97 -480q97 -159 273 -159q90 0 166 21q74 19 160 61v-129q-84 -38 -164 -57t-172 -19q-255 0 -377 191q-124 191 -125 569q-1 147 20 290q21 141 61 258q39 120 96 219q55 96 128 168q70 69 155 108q85 38 179 38
q119 0 207 -48q88 -50 144 -140t85 -225q27 -134 27 -303q-2 -176 -22 -294q-23 -125 -61 -201q-39 -78 -94 -114q-55 -37 -124 -37q-79 0 -116 40q-38 41 -38 108q-38 -77 -82 -112q-43 -36 -106 -36q-94 0 -141 71t-47 222q0 59 7 118q6 65 22 127q16 67 40 122
q26 60 62 103q36 44 86 71t114 27q38 0 71 -9t48 -18zM612 326l66 438q-8 11 -27 22q-19 9 -47 9q-30 0 -54 -21t-42 -56q-18 -32 -31 -79q-13 -44 -21 -92q-9 -46 -12 -92q-4 -41 -4 -82q0 -96 12 -138t46 -42q11 0 24 5q12 5 26 20q9 9 29 40q12 19 35 68z" />
    <glyph glyph-name="A" unicode="A" 
d="M688 1307l428 -1307h-194l-91 285h-544l-92 -285h-185l434 1307h244zM338 444h442l-221 699z" />
    <glyph glyph-name="B" unicode="B" 
d="M1016 391q0 -94 -36 -166q-38 -75 -104 -123q-69 -51 -163 -76q-98 -26 -213 -26h-342v1307h374q437 0 437 -318q0 -105 -50 -182q-50 -75 -165 -113q55 -11 101 -34q47 -24 83 -62t57 -90t21 -117zM784 965q0 40 -12 76t-42 61q-29 25 -81 40q-51 15 -129 15h-184v-409
h178q63 0 111 13q50 14 85 40q36 28 55 68q19 39 19 96zM827 385q0 49 -21 90q-20 39 -61 68q-41 27 -97 42q-58 15 -130 15h-182v-450h188q153 0 228 57t75 178z" />
    <glyph glyph-name="C" unicode="C" 
d="M995 217v-168q-159 -65 -329 -65q-277 0 -425 166q-149 166 -149 489q0 155 41 284q41 127 117 216q76 88 184 136t242 48q91 0 169 -15q78 -16 150 -48v-175q-71 39 -147 60q-78 20 -166 20q-94 0 -166 -34q-73 -34 -127 -100q-51 -64 -80 -160q-28 -93 -28 -216
q0 -255 103 -383q104 -129 302 -129q83 0 161 20q79 20 148 54z" />
    <glyph glyph-name="D" unicode="D" 
d="M1053 668q0 -91 -14 -180q-15 -85 -47 -160q-31 -73 -83 -134q-49 -59 -125 -104q-73 -43 -172 -66q-98 -24 -223 -24h-280v1307h337q306 0 457 -157q150 -158 150 -482zM866 655q0 137 -26 235q-25 95 -79 155q-53 59 -133 86q-81 26 -188 26h-153v-1003h133
q446 0 446 501z" />
    <glyph glyph-name="E" unicode="E" 
d="M944 152v-152h-743v1307h743v-150h-565v-405h543v-150h-543v-450h565z" />
    <glyph glyph-name="F" unicode="F" 
d="M942 1307v-152h-555v-424h526v-149h-526v-582h-182v1307h737z" />
    <glyph glyph-name="G" unicode="G" 
d="M1006 1260v-177q-71 38 -150 61q-76 21 -168 21q-105 0 -185 -37q-82 -38 -136 -104q-57 -69 -85 -163q-30 -95 -30 -210q0 -121 24 -215q24 -95 75 -161t131 -101q81 -35 190 -35q11 0 41 2q21 1 44 6q15 2 43 8q16 4 36 11v416h-267v147h443v-668q-36 -17 -86 -34
q-41 -13 -93 -25q-48 -10 -95 -15q-52 -5 -91 -5q-135 0 -241 42q-107 42 -183 125q-75 81 -116 205q-41 125 -41 285q0 161 45 289t127 216q81 89 196 135q113 46 252 46q88 0 168 -15q82 -17 152 -50z" />
    <glyph glyph-name="H" unicode="H" 
d="M1016 1307v-1307h-178v600h-549v-600h-178v1307h178v-553h549v553h178z" />
    <glyph glyph-name="I" unicode="I" 
d="M473 152v1005h-301v150h782v-150h-301v-1005h301v-152h-782v152h301z" />
    <glyph glyph-name="J" unicode="J" 
d="M199 1307h678v-908q0 -85 -25 -159q-26 -77 -76 -132q-51 -56 -128 -89q-76 -33 -181 -33q-39 0 -79 6q-40 4 -78 15q-36 9 -71 23q-37 15 -57 29v179q63 -46 138 -71q76 -26 149 -26q110 0 168 67q59 67 59 191v754h-497v154z" />
    <glyph glyph-name="K" unicode="K" 
d="M508 686l539 -686h-224l-489 641v-641h-178v1307h178v-607l479 607h211z" />
    <glyph glyph-name="L" unicode="L" 
d="M985 152v-152h-752v1307h181v-1155h571z" />
    <glyph glyph-name="M" unicode="M" 
d="M1014 1307l63 -1307h-174l-26 815l-11 313l-61 -182l-193 -520h-123l-184 500l-61 202l-4 -327l-23 -801h-168l64 1307h211l176 -492l57 -166l55 166l185 492h217z" />
    <glyph glyph-name="N" unicode="N" 
d="M1008 1307v-1307h-232l-381 815l-110 262v-659v-418h-166v1307h229l363 -772l131 -299v700v371h166z" />
    <glyph glyph-name="O" unicode="O" 
d="M1071 662q0 -175 -41 -304q-43 -130 -112 -211q-70 -83 -165 -124q-96 -41 -200 -41q-127 0 -219 46q-92 44 -155 131q-62 87 -92 210t-30 278q0 173 41 302q40 126 112 212q72 85 164 124q93 40 199 40q127 0 220 -46q95 -47 155 -131q61 -85 93 -209q30 -123 30 -277z
M886 649q0 112 -17 211q-18 95 -57 164q-40 70 -100 107q-62 38 -149 38q-85 0 -144 -40q-60 -40 -100 -110q-38 -69 -58 -163q-19 -92 -19 -199q0 -117 18 -211q18 -97 57 -164q38 -70 99 -107q62 -38 147 -38q83 0 145 41q61 40 101 110q38 68 58 162q19 91 19 199z" />
    <glyph glyph-name="P" unicode="P" 
d="M1016 907q0 -80 -30 -158q-30 -79 -93 -141q-64 -63 -161 -100q-98 -39 -234 -39h-162v-469h-178v1307h368q98 0 186 -21q91 -23 157 -70t107 -124q40 -76 40 -185zM831 899q0 126 -82 193t-231 67h-182v-538h166q158 0 244 69q85 69 85 209z" />
    <glyph glyph-name="Q" unicode="Q" 
d="M467 -12q-105 15 -181 66q-77 52 -128 135q-50 81 -76 197q-25 110 -25 251q0 176 41 308q39 127 112 215q72 85 164 125q93 40 199 40q125 0 220 -45q95 -47 155 -131q62 -85 93 -207q30 -121 30 -274q0 -162 -34 -280q-34 -121 -93 -205q-58 -83 -139 -132
q-79 -48 -172 -63q15 -89 70 -141q55 -54 155 -54q50 0 95 16q46 16 94 54l79 -123q-67 -55 -136 -77q-72 -23 -144 -23q-81 0 -147 22t-116 66q-51 45 -80 109q-30 64 -36 151zM886 647q0 113 -17 212q-18 95 -57 164q-40 70 -100 106q-62 38 -149 38q-85 0 -144 -40
q-61 -40 -100 -108q-38 -68 -58 -160q-19 -89 -19 -195q0 -119 18 -215q18 -97 57 -166q37 -68 99 -106t147 -38q84 0 145 40q60 40 101 109q38 68 58 162q19 89 19 197z" />
    <glyph glyph-name="R" unicode="R" 
d="M844 430l207 -430h-201l-195 418q-23 49 -45 80q-20 28 -49 50q-28 19 -58 26q-34 8 -71 8h-84v-582h-178v1307h350q115 0 196 -25q83 -26 135 -70q51 -44 77 -108q24 -64 24 -141q0 -61 -18 -115t-53 -99q-37 -47 -88 -77q-51 -32 -121 -49q55 -19 94 -66
q38 -49 78 -127zM766 948q0 104 -65 157q-65 52 -185 52h-168v-432h144q63 0 114 15q48 13 86 43q36 30 55 70q19 39 19 95z" />
    <glyph glyph-name="S" unicode="S" 
d="M997 354q0 -92 -38 -163q-36 -68 -106 -116q-69 -48 -163 -70q-98 -23 -211 -23q-58 0 -103 4q-64 5 -99 10q-39 5 -90 14q-34 6 -76 17v172q71 -27 169 -44q90 -16 212 -16q83 0 147 14q61 14 99 40t56 64q17 39 17 87q0 53 -29 91q-29 37 -78 67q-49 29 -109 54
q-23 9 -67.5 26.5t-58.5 23.5q-60 24 -125 57q-63 31 -110 72q-48 40 -77 97q-30 56 -30 133q0 69 28 132q29 65 87 116q58 49 152 81q90 31 220 31q33 0 72 -3q21 -2 78 -8q52 -8 78 -13q42 -8 71 -15v-160q-72 21 -154 34q-80 11 -149 11q-153 0 -225 -51t-72 -137
q0 -53 30 -91q29 -38 77 -68q47 -29 110 -54q82 -34 125 -51q65 -25 126 -57q62 -32 109 -73q49 -44 78 -100q29 -58 29 -135z" />
    <glyph glyph-name="T" unicode="T" 
d="M1040 1307v-152h-387v-1155h-180v1155h-387v152h954z" />
    <glyph glyph-name="U" unicode="U" 
d="M1018 1307v-852q0 -108 -30 -195q-31 -87 -90 -149t-144 -95q-84 -34 -197 -34q-120 0 -207 32q-84 31 -138 91q-54 59 -78 140q-25 81 -25 183v879h178v-865q0 -76 15 -135q13 -57 47 -97q33 -39 86 -59q54 -20 128 -20q143 0 210 82t67 231v863h178z" />
    <glyph glyph-name="V" unicode="V" 
d="M932 1307h190l-444 -1307h-240l-434 1307h201l282 -881l80 -258l82 258z" />
    <glyph glyph-name="W" unicode="W" 
d="M922 1307h159l-88 -1307h-231l-162 465l-45 149l-47 -161l-150 -453h-223l-90 1307h168l51 -889l15 -244l63 207l158 485h123l182 -520l61 -172l4 180z" />
    <glyph glyph-name="X" unicode="X" 
d="M668 676l434 -676h-225l-318 528l-319 -528h-222l435 668l-400 639h211l299 -492l301 492h205z" />
    <glyph glyph-name="Y" unicode="Y" 
d="M922 1307h204l-473 -840v-467h-180v471l-473 836h215l260 -478l96 -192l88 174z" />
    <glyph glyph-name="Z" unicode="Z" 
d="M1001 1307v-140l-667 -1001h680v-166h-903v133l671 1012h-653v162h872z" />
    <glyph glyph-name="bracketleft" unicode="[" 
d="M838 -270v-140h-493v1858h493v-140h-327v-1578h327z" />
    <glyph glyph-name="backslash" unicode="\" 
d="M326 1413l686 -1628h-166l-686 1628h166z" />
    <glyph glyph-name="bracketright" unicode="]" 
d="M781 1448v-1858h-493v140h325v1578h-325v140h493z" />
    <glyph glyph-name="asciicircum" unicode="^" 
d="M629 1307l385 -639h-174l-289 501l-272 -501h-158l366 639h142z" />
    <glyph glyph-name="underscore" unicode="_" 
d="M1126 -266v-144h-1126v144h1126z" />
    <glyph glyph-name="grave" unicode="`" 
d="M426 1413l242 -242h-174l-320 242h252zM0 1004z" />
    <glyph glyph-name="a" unicode="a" 
d="M961 0h-156l-4 135q-83 -81 -166 -117q-85 -36 -178 -36q-87 0 -147 22q-62 22 -100 61q-40 37 -58 90q-19 51 -19 113q0 151 113 237q112 85 332 85h208v88q0 89 -57 143q-58 53 -174 53q-87 0 -167 -19q-82 -19 -171 -54v157q31 11 74 24q51 13 85 20q46 9 94 15
q55 5 99 5q89 0 164 -20q71 -19 124 -61q50 -41 77 -103q27 -61 27 -146v-692zM786 279v178h-221q-67 0 -112 -13q-48 -14 -77 -37q-31 -25 -44 -57q-15 -34 -15 -76q0 -30 9 -55q9 -27 29 -47q19 -20 52 -33q31 -12 78 -12q61 0 138 37q80 37 163 115z" />
    <glyph glyph-name="b" unicode="b" 
d="M1018 520q0 -127 -34 -223q-34 -99 -98 -167q-65 -70 -155 -105q-90 -37 -205 -37q-86 0 -182 17q-92 16 -184 54v1354h174v-389l-8 -186q75 101 161 143q87 41 183 41q86 0 151 -36q66 -37 109 -101q43 -66 66 -158q22 -91 22 -207zM840 512q0 76 -11 145
q-12 68 -37 113q-26 48 -64 74q-40 26 -93 26q-34 0 -67 -10q-32 -10 -70 -35q-38 -26 -77 -65t-87 -101v-487q56 -21 104 -31q52 -12 101 -12q61 0 115 19q55 20 96 64q40 43 66 118q24 73 24 182z" />
    <glyph glyph-name="c" unicode="c" 
d="M940 199v-162q-69 -26 -139 -38q-69 -13 -148 -13q-239 0 -366 129q-129 129 -129 377q0 120 37 216q38 98 104 166q69 70 160 107q92 37 205 37q75 0 146 -11q69 -11 130 -36v-166q-61 33 -132 50q-67 15 -140 15q-69 0 -126 -25q-59 -25 -105 -74t-71 -117
q-26 -70 -26 -156q0 -181 89 -272q88 -91 245 -91q73 0 138 16q67 17 128 48z" />
    <glyph glyph-name="d" unicode="d" 
d="M109 481q0 126 35 228q34 97 100 168q66 69 155 104q91 35 201 35q48 0 95 -6q49 -6 91 -19v422h175v-1413h-156l-6 190q-74 -107 -158 -157q-85 -51 -184 -51q-87 0 -151 36q-65 36 -109 102q-43 64 -66 157q-22 89 -22 204zM287 492q0 -182 54 -271q53 -90 151 -90
q66 0 140 59q71 56 154 175v466q-48 22 -95 31q-50 10 -103 10q-141 0 -221 -92t-80 -288z" />
    <glyph glyph-name="e" unicode="e" 
d="M1008 555q0 -45 -1 -62t-3 -47h-705q0 -153 86 -236t248 -83q49 0 88 4q45 3 85 9q35 5 79 14q43 9 69 16v-143q-73 -20 -160 -32q-87 -13 -186 -13q-128 0 -222 35t-152 102q-59 65 -88 163t-29 218q0 108 31 201q29 93 89 166q60 72 143 113q85 42 193 42
q105 0 186 -33q82 -33 137 -93q56 -62 84 -147t28 -194zM299 580h528q3 69 -13 123q-16 55 -49 95q-35 40 -84 63q-48 22 -116 22q-59 0 -104 -22q-48 -23 -81 -62q-34 -39 -55 -96q-22 -57 -26 -123z" />
    <glyph glyph-name="f" unicode="f" 
d="M1051 1401v-150q-139 29 -236 29q-235 0 -235 -246v-176h440v-145h-440v-713h-177v713h-323v145h323v166q0 401 418 401q104 0 230 -24zM0 1004z" />
    <glyph glyph-name="g" unicode="g" 
d="M1044 862h-161q27 -32 44 -81q15 -46 15 -101q0 -79 -28 -142q-28 -64 -81 -111q-51 -45 -124 -71q-75 -26 -160 -26q-60 0 -118 14q-55 14 -87 33q-17 -25 -32 -53q-13 -25 -13 -56q0 -38 37 -63q36 -25 96 -27l264 -10q70 -1 139 -19q60 -16 109 -49q45 -31 71 -79
q25 -46 25 -109q0 -66 -29 -127q-28 -59 -89 -105t-154 -73t-221 -27q-119 0 -207 20q-86 20 -141 54q-54 34 -80 82q-25 46 -25 104q0 73 34 128t105 106q-25 12 -45 30q-19 18 -31 40q-12 21 -18 45t-6 47q0 66 31 119q30 54 72 102q-20 23 -33 45q-14 21 -25 48
q-12 30 -16 55q-6 29 -6 67q0 77 29 143q28 64 80 110q51 47 124 72q71 25 160 25q33 0 71 -5q28 -4 60 -13h364v-142zM279 -145q0 -71 74 -103q73 -33 206 -33q83 0 140 15q58 16 91 40q33 23 49 56q15 31 15 64q0 61 -50 90q-51 30 -153 34l-262 9q-35 -24 -54 -43
q-21 -20 -34 -42q-13 -24 -17 -43q-5 -25 -5 -44zM332 676q0 -49 16 -88t45 -68q28 -28 69 -43q38 -16 87 -16q53 0 93 18q38 16 68 47q27 30 42 69q14 40 14 81q0 49 -16 88t-45 68q-26 26 -68 44q-41 15 -88 15q-52 0 -92 -18q-41 -18 -68 -47q-29 -30 -42 -69
q-15 -39 -15 -81z" />
    <glyph glyph-name="h" unicode="h" 
d="M967 655v-655h-174v641q0 116 -43 174q-44 57 -125 57q-35 0 -65 -9q-31 -10 -64 -33q-35 -25 -72 -64q-43 -44 -90 -100v-666h-174v1413h174v-409l-6 -158q38 46 81 83q40 34 79 54q39 21 80 30q40 9 85 9q150 0 232 -91t82 -276z" />
    <glyph glyph-name="i" unicode="i" 
d="M502 145v715h-297v144h473v-859h299v-145h-805v145h330zM563 1425q30 0 54 -10t44 -30q19 -21 29 -43q10 -24 10 -54q0 -29 -10 -53q-9 -23 -29 -44q-18 -18 -44 -29q-27 -11 -54 -11t-54 11q-26 11 -43 29q-18 19 -29 44q-11 27 -11 53q0 27 11 54q11 25 29 43
q18 20 43 30q24 10 54 10z" />
    <glyph glyph-name="j" unicode="j" 
d="M172 1004h668v-986q0 -105 -30 -186q-30 -82 -86 -138q-57 -57 -137 -85q-84 -29 -184 -29q-71 0 -144 14q-74 14 -128 37v166q26 -14 67 -29q30 -12 73 -22q33 -8 75 -13t74 -5q114 0 179 72q65 73 65 212v848h-492v144zM735 1425q30 0 54 -10t44 -30q20 -21 29 -44
q10 -24 10 -53q0 -30 -10 -53q-9 -23 -29 -44q-19 -18 -44 -29q-27 -11 -54 -11t-54 11q-26 11 -43 29q-19 19 -29 44q-11 25 -11 53q0 26 11 53q10 25 29 44q18 20 43 30q24 10 54 10z" />
    <glyph glyph-name="k" unicode="k" 
d="M566 541l497 -541h-239l-468 538v-538h-174v1413h174v-868l451 459h230z" />
    <glyph glyph-name="l" unicode="l" 
d="M502 145v1125h-297v143h473v-1268h299v-145h-805v145h330z" />
    <glyph glyph-name="m" unicode="m" 
d="M1036 0h-160v721q0 47 -3 77q-5 34 -11 48q-7 15 -19 24q-11 7 -29 7q-20 0 -37 -12t-36 -39q-22 -31 -43 -71q-27 -51 -56 -110v-645h-159v702q0 54 -3 89q-5 37 -11 53q-7 18 -20 26q-11 7 -29 7t-34 -10q-15 -9 -35 -36t-44 -71q-26 -49 -57 -115v-645h-160v1004h133
l8 -191q25 55 51 97q22 37 50 65q25 24 56 36q30 11 65 11q81 0 123 -53t42 -164q22 47 47 93q20 37 50 68q25 26 58 42q33 14 74 14q189 0 189 -291v-731z" />
    <glyph glyph-name="n" unicode="n" 
d="M160 0v1004h155l7 -162q41 50 85 87q39 33 81 55q39 21 80 30q43 8 85 8q156 0 235 -91t79 -276v-655h-174v641q0 117 -44 175q-44 56 -131 56q-32 0 -62 -9q-31 -10 -64 -33q-36 -26 -71 -64q-41 -43 -87 -100v-666h-174z" />
    <glyph glyph-name="o" unicode="o" 
d="M1034 510q0 -117 -33 -214t-95 -167q-61 -70 -151 -108q-88 -39 -202 -39q-109 0 -193 34q-86 33 -145 98q-59 63 -91 161t-32 221q0 116 33 214q32 94 95 166q61 68 151 108q90 38 202 38q109 0 194 -33q86 -35 145 -98q60 -66 91 -161q31 -94 31 -220zM856 502
q0 91 -20 163q-21 69 -59 116q-37 45 -92 70q-57 23 -122 23q-77 0 -133 -30q-58 -33 -91 -82q-35 -50 -52 -118q-17 -70 -17 -142q0 -92 21 -163q19 -67 58 -116q38 -48 92 -70q54 -24 122 -24q79 0 134 31q55 30 91 81q36 53 52 119q16 65 16 142z" />
    <glyph glyph-name="p" unicode="p" 
d="M1018 520q0 -135 -37 -234t-104 -166q-66 -66 -156 -99t-195 -33q-43 0 -95 5q-44 4 -97 17v-420h-174v1414h155l11 -168q75 103 160 145q87 41 184 41q86 0 151 -36q66 -37 109 -101q43 -66 66 -158q22 -91 22 -207zM840 512q0 76 -11 145q-12 68 -37 113q-26 48 -64 74
q-40 26 -93 26q-34 0 -67 -10q-32 -10 -70 -35q-38 -26 -77 -65t-87 -101v-487q52 -21 101 -31q53 -12 104 -12q141 0 221 96q80 95 80 287z" />
    <glyph glyph-name="q" unicode="q" 
d="M109 481q0 106 29 205q29 98 88 171q57 72 152 116q92 43 222 43q48 0 101 -8q45 -7 106 -25l154 39v-1432h-175v379l9 215q-142 -202 -338 -202q-89 0 -153 36t-108 102q-44 67 -65 158q-22 89 -22 203zM287 492q0 -86 13 -151q11 -65 38 -113q26 -47 64 -72
q37 -25 90 -25q66 0 140 59q71 56 154 175v466q-38 18 -90 31q-51 12 -108 12q-148 0 -224 -97q-77 -98 -77 -285z" />
    <glyph glyph-name="r" unicode="r" 
d="M201 0v1004h159l5 -185q89 107 176 155q85 48 174 48q156 0 237 -101q80 -101 74 -300h-176q3 131 -38 192q-42 59 -122 59q-36 0 -70 -12q-36 -14 -73 -40q-43 -33 -80 -71q-46 -48 -90 -104v-645h-176z" />
    <glyph glyph-name="s" unicode="s" 
d="M955 274q0 -53 -18 -95q-19 -44 -49 -74q-33 -34 -72 -56q-43 -24 -87 -38t-96 -22q-46 -7 -96 -7q-101 0 -187 9q-82 9 -168 29v160q82 -24 175 -38q84 -13 173 -13q126 0 185 34q60 35 60 97q0 26 -9 49q-12 23 -35 41q-25 19 -77 40t-144 48q-63 18 -125 46
q-57 25 -100 60q-41 34 -66 82q-24 46 -24 111q0 41 20 92q19 49 66 93q46 43 127 72q78 28 200 28q59 0 131 -6q81 -8 150 -23v-155q-84 20 -155 30q-73 9 -128 9q-68 0 -109 -10q-45 -11 -72 -27q-27 -17 -40 -41q-12 -24 -12 -51q0 -25 11 -49q10 -23 39 -42
q30 -22 79 -41q52 -21 133 -45q89 -25 150 -54q59 -27 99 -64q38 -35 55 -79q16 -42 16 -100z" />
    <glyph glyph-name="t" unicode="t" 
d="M969 164v-150q-58 -15 -122 -21q-59 -7 -128 -7q-188 0 -282 86q-93 85 -93 262v524h-281v146h281v276l174 45v-321h451v-146h-451v-510q0 -109 58 -161q57 -54 169 -54q44 0 105 8q65 9 119 23z" />
    <glyph glyph-name="u" unicode="u" 
d="M967 1004v-1004h-156l-6 162q-43 -50 -85 -86t-81 -56q-43 -22 -80 -29q-40 -9 -86 -9q-155 0 -234 91t-79 275v656h174v-642q0 -231 174 -231q33 0 63 10q29 9 64 33q33 22 72 63q46 49 86 101v666h174z" />
    <glyph glyph-name="v" unicode="v" 
d="M459 0l-393 1004h198l246 -664l53 -162l55 166l244 660h191l-394 -1004h-200z" />
    <glyph glyph-name="w" unicode="w" 
d="M918 1004h172l-146 -1004h-211l-145 420l-29 102l-33 -108l-139 -414h-205l-145 1004h170l84 -682l18 -152l43 133l146 451h125l157 -445l45 -133l15 141z" />
    <glyph glyph-name="x" unicode="x" 
d="M672 500l393 -500h-231l-271 383l-268 -383h-225l389 504l-371 500h223l264 -386l259 386h215z" />
    <glyph glyph-name="y" unicode="y" 
d="M862 1004h191l-342 -898q-51 -132 -109 -236q-58 -100 -124 -162q-67 -64 -147 -94q-79 -30 -179 -30q-33 0 -47 1q-23 2 -46 3v158q29 -4 48 -5q26 -3 55 -3q46 0 90 14q39 13 78 46q35 29 71 81q33 48 66 121l-401 1004h198l254 -664l51 -156l58 160z" />
    <glyph glyph-name="z" unicode="z" 
d="M973 147v-147h-809v125l567 733h-553v146h762v-136l-557 -721h590z" />
    <glyph glyph-name="braceleft" unicode="{" 
d="M897 -270v-140h-74q-193 0 -287 91q-94 90 -94 274v344q0 47 -11 88q-10 37 -38 65q-30 27 -73 40q-48 14 -115 14h-43v139h43q73 0 119 12q47 12 72 37q25 24 36 62q10 36 10 90v237q0 83 20 152q19 67 66 115t118 73t177 25h74v-140h-59q-232 0 -232 -225v-233
q0 -244 -211 -275q213 -21 213 -274v-342q0 -229 230 -229h59z" />
    <glyph glyph-name="bar" unicode="|" 
d="M645 1638v-2048h-164v2048h164z" />
    <glyph glyph-name="braceright" unicode="}" 
d="M229 1308v140h74q193 0 287 -90q94 -91 94 -275v-231q0 -48 11 -87q11 -40 39 -65q28 -28 73 -41q48 -14 115 -14h43v-139h-43q-72 0 -119 -12q-48 -12 -73 -36q-26 -26 -36 -63q-10 -36 -10 -90v-350q0 -82 -20 -151q-20 -68 -65 -115q-45 -48 -118 -73
q-75 -26 -178 -26h-74v140h60q231 0 231 225v346q0 244 211 274q-213 23 -213 275v229q0 229 -229 229h-60z" />
    <glyph glyph-name="asciitilde" unicode="~" 
d="M901 696h160q1 -72 -16 -140q-17 -65 -53 -112q-37 -48 -89 -73q-54 -27 -125 -27q-57 0 -99 19q-45 19 -81 46q-39 30 -69 61q-22 23 -62 61q-29 26 -61 47q-30 18 -64 18q-58 0 -87 -47t-29 -148h-160q-2 78 16 141q16 63 53 112q35 47 89 74q54 26 124 26q56 0 99 -18
q49 -22 82 -47q39 -30 69 -61q34 -36 62 -61q29 -27 60 -46q29 -19 64 -19q63 0 90 46t27 148z" />
    <glyph glyph-name="exclamdown" unicode="&#xa1;" 
d="M672 -410h-211l26 1031h154zM565 758q-26 0 -50 11q-25 11 -42 28t-28 42t-11 52q0 26 11 51t28 42q20 18 42 28q21 10 50 10t52 -10q22 -10 42 -28q19 -19 29 -42t10 -51q0 -29 -10 -52t-29 -42q-17 -17 -42 -28t-52 -11z" />
    <glyph glyph-name="cent" unicode="&#xa2;" 
d="M735 1010l-94 -693q71 0 137 15q66 14 129 45v-158q-132 -49 -284 -49l-58 -420h-145l57 432q-170 34 -261 154q-91 118 -91 321q0 111 35 204q34 91 99 157q65 67 153 104q86 36 196 41l43 332h148l-45 -340q37 -4 78 -14q50 -14 75 -23v-164q-50 23 -85 34
q-51 16 -87 22zM498 338l90 676q-56 -7 -110 -34q-52 -27 -90 -71q-39 -46 -59 -106q-22 -60 -22 -137q0 -130 50 -212q49 -81 141 -116z" />
    <glyph glyph-name="sterling" unicode="&#xa3;" 
d="M430 722h436v-143h-436v-431h567v-148h-905v148h160v431h-160v143h160v180q0 100 30 180q28 78 84 132q55 55 132 83q75 28 174 28q107 0 190 -37q84 -38 144 -93l-97 -111q-19 16 -52 40q-28 18 -54 29q-28 12 -62 18q-33 6 -73 6q-53 0 -98 -17q-43 -16 -75 -50
q-31 -33 -48 -81q-17 -51 -17 -113v-194z" />
    <glyph glyph-name="currency" unicode="&#xa4;" 
d="M887 61l-148 230q-37 -23 -84 -33q-47 -12 -100 -12q-104 0 -178 37l-141 -222l-150 91l174 229q-34 51 -54 120t-20 154q0 77 21 148q22 71 61 125l-182 243l154 91l147 -230q36 22 84 34q49 11 100 11q104 0 179 -37l141 222l149 -91l-174 -229q36 -53 55 -119
q19 -67 19 -155q0 -78 -21 -147q-21 -72 -61 -126l182 -243zM760 662q0 130 -53 197q-53 65 -144 65q-51 0 -89 -23q-37 -24 -61 -61q-25 -37 -36 -85q-11 -49 -11 -93q0 -130 53 -197q53 -66 144 -66q53 0 90 24q36 23 61 62t35 84q11 49 11 93z" />
    <glyph glyph-name="yen" unicode="&#xa5;" 
d="M881 1307h196l-424 -705v-29h308v-135h-308v-162h308v-135h-308v-141h-180v141h-307v135h307v162h-309v135h309v29l-418 705h205l209 -367l100 -188l107 192z" />
    <glyph glyph-name="brokenbar" unicode="&#xa6;" 
d="M645 426v-836h-164v836h164zM645 827h-164v811h164v-811z" />
    <glyph glyph-name="section" unicode="&#xa7;" 
d="M815 238q32 -26 55 -67t23 -89q0 -84 -39 -142q-40 -61 -100 -98q-62 -39 -135 -57q-75 -18 -146 -18q-37 0 -91 2q-40 1 -75 6q-46 6 -67 11q-32 6 -66 15v160q38 -12 72 -21t69 -15q38 -7 73 -8q38 -3 79 -3q125 0 186 42q60 40 60 114q0 34 -24 62q-27 30 -65 57
q-39 27 -92 57q-41 23 -105 62q-54 32 -105 69t-91 82q-41 44 -65 97q-25 51 -25 118q0 37 11 79q10 41 33 78q22 36 55 71q34 34 77 59q-30 25 -52 65q-23 41 -23 94q0 47 20 102q20 53 66 98q46 44 127 75q79 30 200 30q115 0 226 -24v-150q-64 17 -118 24q-52 7 -112 7
q-62 0 -108 -11q-44 -11 -71 -30q-27 -20 -38 -47q-12 -27 -12 -59q0 -35 25 -63q26 -32 64 -59q49 -35 91 -58q10 -6 105 -61q61 -38 104 -70q51 -37 91 -82q38 -42 65 -98q24 -54 24 -120q0 -38 -11 -80q-12 -40 -34 -77q-22 -38 -56 -71q-32 -32 -75 -58zM696 328
q31 15 54 38q24 24 39 47q17 25 24 51q8 27 8 46q0 61 -37 110q-38 49 -94 90q-59 42 -125 80q-68 37 -131 80q-32 -16 -53 -37q-25 -25 -38 -47q-17 -26 -24 -50q-8 -27 -8 -46q0 -61 36 -109q35 -48 93 -91q50 -39 124 -82q58 -33 132 -80z" />
    <glyph glyph-name="dieresis" unicode="&#xa8;" 
d="M348 1405q23 0 44 -9q20 -9 36 -24q15 -16 24 -36q9 -21 9 -44q0 -24 -9 -43q-9 -21 -24 -36q-16 -15 -36 -24q-21 -9 -44 -9q-24 0 -43 9q-21 9 -36 24t-24 36q-9 19 -9 43q0 23 9 44q9 20 24 36q15 15 36 24q19 9 43 9zM778 1405q23 0 44 -9q20 -9 36 -24
q15 -16 24 -36q9 -21 9 -44q0 -24 -9 -43q-9 -21 -24 -36q-16 -15 -36 -24q-21 -9 -44 -9q-24 0 -43 9q-21 9 -36 24t-24 36q-9 20 -9 43t9 44q9 20 24 36q15 15 36 24q20 9 43 9zM0 1004z" />
    <glyph glyph-name="copyright" unicode="&#xa9;" 
d="M565 1323q129 0 231 -51q103 -53 173 -142q71 -92 108 -213t37 -264q0 -148 -39 -271q-41 -124 -113 -211q-74 -89 -175 -138t-226 -49q-130 0 -231 52q-101 51 -172 141q-70 90 -108 213t-38 263q0 150 40 271q40 125 112 212q74 89 175 138q99 49 226 49zM563 1192
q-90 0 -164 -38q-76 -40 -128 -109q-54 -72 -82 -170q-29 -102 -29 -222q0 -113 29 -212t81 -171q53 -74 127 -114q74 -41 166 -41q91 0 166 39q74 38 127 109q54 73 82 169q28 97 28 221q0 116 -28 213q-29 100 -80 171q-52 72 -128 114q-76 41 -167 41zM770 482v-130
q-82 -33 -174 -33q-297 0 -297 328q0 79 22 141q22 63 61 107t95 68t125 24q94 0 168 -31v-134q-31 18 -72 29q-36 10 -75 10q-82 0 -127 -54q-45 -55 -45 -157q0 -106 45 -155q44 -50 129 -50q77 0 145 37z" />
    <glyph glyph-name="ordfeminine" unicode="&#xaa;" 
d="M901 494v-136h-676v136h676zM840 631h-133l-11 92q-47 -49 -102 -77q-57 -30 -135 -30q-99 0 -157 52q-58 51 -58 153q0 97 83 156t251 59h104v49q0 51 -34 82t-118 31q-46 0 -110 -14q-62 -14 -123 -39v133q53 20 117 32q69 11 135 11q79 0 133 -16q56 -17 90 -46
q36 -31 52 -72q16 -42 16 -95v-461zM682 827v101h-119q-40 0 -70 -8q-27 -7 -47 -22t-27 -33q-9 -19 -9 -40q0 -41 24 -64q23 -22 72 -22q40 0 84 23q47 24 92 65z" />
    <glyph glyph-name="guillemotleft" unicode="&#xab;" 
d="M401 946l138 -69l-218 -334l218 -336l-138 -70l-258 406zM838 942l133 -72l-234 -327l234 -328l-133 -72l-275 400z" />
    <glyph glyph-name="logicalnot" unicode="&#xac;" 
d="M971 621v-447h-170v295h-684v152h854z" />
    <glyph glyph-name="registered" unicode="&#xae;" 
d="M780 709h-116l-74 168q-10 22 -28 35q-18 12 -44 12h-20v-215h-101v520h156q87 0 140 -32q52 -31 52 -112q0 -57 -32 -89q-34 -33 -82 -40q16 -4 34 -22q17 -16 33 -51zM641 1075q0 39 -24 55q-26 17 -74 17h-45v-146h41q46 0 74 19q28 18 28 55zM563 1323
q-73 0 -133 -28q-63 -28 -109 -76q-49 -50 -73 -112q-27 -65 -27 -138t27 -138q25 -64 73 -113q46 -48 109 -76q60 -28 133 -28q74 0 134 28q64 30 109 76q45 47 73 113q26 66 26 138t-26 138q-27 65 -73 112q-45 46 -109 76q-60 28 -134 28zM563 1425q94 0 178 -36
q85 -37 145 -97q62 -62 98 -145q36 -84 36 -178q0 -95 -36 -178t-98 -145t-145 -98q-84 -36 -178 -36q-95 0 -178 36t-145 98t-98 145t-36 178q0 94 36 178q36 83 98 145q60 60 145 97q83 36 178 36z" />
    <glyph glyph-name="macron" unicode="&#xaf;" 
d="M825 1358v-133h-524v133h524zM0 1004z" />
    <glyph glyph-name="degree" unicode="&#xb0;" 
d="M913 1096q0 -71 -26 -134q-24 -60 -73 -109q-46 -46 -112 -72q-66 -27 -145 -27q-83 0 -147 24t-108 68t-66 104q-23 61 -23 133q0 71 26 135q25 60 73 108q45 45 113 73q66 26 144 26q83 0 148 -24t108 -67t66 -104q22 -60 22 -134zM751 1090q0 41 -11 80q-10 36 -33 63
q-22 26 -58 42q-36 15 -86 15q-44 0 -80 -14q-35 -15 -59 -41q-24 -25 -36 -63q-13 -36 -13 -82q0 -41 11 -80q10 -37 33 -64q22 -27 59 -42q34 -15 85 -15q90 0 139 55t49 146z" />
    <glyph glyph-name="plusminus" unicode="&#xb1;" 
d="M1022 831v-147h-375v-389h-168v389h-375v147h375v388h168v-388h375zM993 145v-145h-860v145h860z" />
    <glyph glyph-name="uni00B2" unicode="&#xb2;" 
d="M883 631h-637v143l217 168q40 30 95 77q33 29 57 58q22 27 29 48t7 49q0 46 -33 76q-35 30 -100 30q-50 0 -97 -18q-45 -19 -83 -51l-86 106q54 54 129 84q75 29 158 29q63 0 118 -15q55 -17 94 -47q40 -33 62 -76q23 -48 23 -106q0 -46 -14 -88t-42 -79q-27 -36 -71 -76
q-41 -37 -97 -76l-114 -82h385v-154z" />
    <glyph glyph-name="uni00B3" unicode="&#xb3;" 
d="M862 869q0 -57 -25 -103q-26 -48 -73 -80q-49 -34 -122 -52q-72 -19 -169 -19q-39 0 -58 1q-38 2 -55 3q-19 1 -48 5q-24 3 -38 7v140q34 -7 90 -12q49 -4 115 -4q90 0 145 29q54 28 54 80q0 25 -10 44q-10 20 -33 33q-24 13 -63 21q-36 7 -97 7h-82v129h76q49 0 82 9
q33 7 53 23q20 14 29 34q8 21 8 40q0 20 -7 35q-8 16 -23 27q-17 11 -43 18q-28 6 -68 6q-53 0 -109 -9q-51 -8 -100 -23v141q20 6 54 13q19 3 61 9q23 3 64 7q42 2 62 2q148 0 219 -53q70 -54 70 -142q0 -71 -33 -115q-33 -45 -92 -71q40 -11 69 -25t52 -36q22 -22 34 -51
q11 -30 11 -68z" />
    <glyph glyph-name="acute" unicode="&#xb4;" 
d="M700 1413h252l-319 -242h-174zM0 1004z" />
    <glyph glyph-name="mu" unicode="&#xb5;" 
d="M160 1004h174v-639q0 -232 174 -232q32 0 62 10q33 11 64 33q33 23 67 62q41 47 79 100v666h174v-689q0 -47 5 -85q5 -34 18 -54q12 -21 32 -30q19 -9 50 -9h18v-139q-17 -4 -31 -5q-18 -3 -38 -3q-52 0 -85 13q-36 12 -60 36q-25 23 -38 57q-15 35 -24 76
q-46 -60 -83 -93q-40 -37 -79 -58q-42 -22 -75 -29q-38 -8 -69 -8q-54 0 -96 19q-44 18 -79 57l14 -173v-297h-174v1414z" />
    <glyph glyph-name="paragraph" unicode="&#xb6;" 
d="M655 1270v-699q-157 0 -259 34q-105 33 -169 91q-64 56 -91 135q-27 77 -27 164t33 163q31 76 99 133q66 57 168 90q104 32 242 32h346v-1208q0 -103 -29 -187q-30 -82 -85 -137q-57 -57 -135 -85q-81 -29 -179 -29t-185 32q-86 31 -159 90l90 131q52 -46 122 -75
q69 -29 141 -29q114 0 180 71q65 71 65 212v1071h-168z" />
    <glyph glyph-name="periodcentered" unicode="&#xb7;" 
d="M563 733q35 0 65 -13q31 -14 53 -36q21 -21 35 -54q13 -30 13 -65t-13 -64q-14 -31 -35 -52q-22 -22 -53 -36q-33 -14 -65 -14q-34 0 -65 14q-29 13 -52 36t-36 52t-13 64t13 65q14 32 36 54q23 23 52 36t65 13z" />
    <glyph glyph-name="cedilla" unicode="&#xb8;" 
d="M502 0h172l-86 -295h-152z" />
    <glyph glyph-name="uni00B9" unicode="&#xb9;" 
d="M879 776v-145h-613v145h238v467l-219 -108l-58 131l312 156h139v-646h201z" />
    <glyph glyph-name="ordmasculine" unicode="&#xba;" 
d="M901 494v-136h-676v136h676zM905 975q0 -74 -23 -140q-24 -66 -69 -114q-44 -48 -109 -77q-63 -28 -147 -28q-80 0 -140 22q-62 22 -106 66q-45 45 -67 109q-23 66 -23 152q0 77 24 141q24 65 69 113t111 75q65 27 148 27q80 0 140 -22q61 -22 104 -65q42 -44 65 -109
q23 -66 23 -150zM741 971q0 109 -45 161q-47 53 -133 53q-44 0 -78 -17q-31 -15 -55 -46q-24 -32 -34 -69q-11 -42 -11 -84q0 -110 49 -163q48 -54 129 -54q44 0 78 17t56 46q23 29 33 69q11 42 11 87z" />
    <glyph glyph-name="guillemotright" unicode="&#xbb;" 
d="M725 137l-137 70l217 336l-217 334l137 69l258 -403zM289 143l-133 72l233 328l-233 327l133 72l274 -399z" />
    <glyph glyph-name="onequarter" unicode="&#xbc;" 
d="M940 1413h166l-922 -1413h-164zM403 844h-157v426l-166 -90l-55 116l239 129h139v-581zM1077 231v-122h-90v-109h-153v109h-299v122l219 338h233v-338h90zM834 231v226l-146 -226h146z" />
    <glyph glyph-name="onehalf" unicode="&#xbd;" 
d="M940 1413h166l-922 -1413h-164zM1079 125v-125h-440v125l186 147q47 35 64 61q16 25 16 54q0 15 -3 28q-5 14 -13 24t-24 16q-17 6 -40 6q-31 0 -59 -14q-26 -12 -66 -46l-67 101q15 13 45 35q23 15 49 26q24 10 55 16q32 5 64 5q44 0 83 -12q40 -14 69 -37
q30 -25 46 -59q17 -37 17 -83q0 -31 -9 -56q-11 -28 -30 -53q-19 -24 -53 -55q-27 -24 -80 -61l-62 -43h252zM403 844h-157v426l-166 -90l-55 116l239 129h139v-581z" />
    <glyph glyph-name="threequarters" unicode="&#xbe;" 
d="M940 1413h166l-922 -1413h-164zM1077 231v-122h-90v-109h-153v109h-299v122l219 338h233v-338h90zM834 231v226l-146 -226h146zM489 1022q0 -42 -18 -77q-19 -36 -53 -61q-39 -27 -88 -40q-52 -15 -123 -15q-35 0 -63 4q-33 3 -58 9v119q27 -5 54 -8q30 -3 59 -3
q64 0 90 19q26 18 26 49q0 34 -24 48q-23 13 -78 13h-90v113h84q47 0 65 18q17 17 17 43q0 23 -18 40q-19 16 -64 16q-28 0 -58 -5q-36 -8 -53 -12v113q37 13 72 17q42 5 82 5q100 0 153 -38q52 -37 52 -103q0 -53 -19 -84q-20 -33 -61 -49q56 -11 85 -44q29 -34 29 -87z
" />
    <glyph glyph-name="questiondown" unicode="&#xbf;" 
d="M203 35q0 161 91 245q91 85 259 95l8 246h150l12 -383h-117q-63 0 -102 -13q-41 -14 -66 -37q-26 -24 -36 -58q-11 -36 -11 -79q0 -74 31 -129q30 -57 84 -96q55 -40 129 -59q73 -21 162 -21h24v-156h-26q-104 0 -184 19q-86 20 -150 52q-64 30 -114 76q-48 42 -81 94
q-32 51 -47 102q-16 51 -16 102zM637 758q-27 0 -52 11q-26 11 -41 28q-17 17 -28 42q-10 23 -10 52q0 28 10 51q11 25 28 42q18 18 41 28t52 10t52 -10q22 -10 42 -28q17 -18 27 -42q10 -23 10 -51q0 -29 -10 -52q-10 -24 -27 -42q-17 -17 -42 -28t-52 -11z" />
    <glyph glyph-name="Agrave" unicode="&#xc0;" 
d="M688 1307l428 -1307h-194l-91 285h-544l-92 -285h-185l434 1307h244zM338 444h442l-221 699zM457 1659l211 -213h-179l-284 213h252zM0 1307z" />
    <glyph glyph-name="Aacute" unicode="&#xc1;" 
d="M688 1307l428 -1307h-194l-91 285h-544l-92 -285h-185l434 1307h244zM338 444h442l-221 699zM670 1659h252l-285 -213h-178zM0 1307z" />
    <glyph glyph-name="Acircumflex" unicode="&#xc2;" 
d="M688 1307l428 -1307h-194l-91 285h-544l-92 -285h-185l434 1307h244zM338 444h442l-221 699zM647 1659l232 -213h-183l-135 102l-135 -102h-178l231 213h168zM0 1307z" />
    <glyph glyph-name="Atilde" unicode="&#xc3;" 
d="M688 1307l428 -1307h-194l-91 285h-544l-92 -285h-185l434 1307h244zM338 444h442l-221 699zM287 1444l-86 82q44 72 98 109q54 36 123 36q56 0 98 -17q33 -13 71 -37q6 -4 27 -17.5t32 -19.5q28 -17 61 -17q40 0 71 28q30 27 58 70l86 -82q-43 -71 -98 -108
q-53 -37 -123 -37q-58 0 -98 17q-33 13 -71 37q-10 6 -29.5 18.5t-28.5 18.5q-29 17 -62 17q-41 0 -71 -27q-30 -29 -58 -71zM0 1307z" />
    <glyph glyph-name="Adieresis" unicode="&#xc4;" 
d="M688 1307l428 -1307h-194l-91 285h-544l-92 -285h-185l434 1307h244zM338 444h442l-221 699zM344 1659q21 0 42 -8q17 -8 34 -23q14 -14 23 -34q8 -21 8 -42q0 -20 -8 -41q-9 -20 -23 -34q-17 -16 -34 -22q-20 -9 -42 -9q-45 0 -75 31q-31 30 -31 75q0 22 9 42
q8 19 22 34q14 14 34 23q21 8 41 8zM782 1659q21 0 42 -8q20 -9 34 -23t23 -34q8 -21 8 -42q0 -20 -8 -41q-9 -20 -23 -34q-14 -15 -34 -22q-20 -9 -42 -9q-45 0 -75 31q-31 30 -31 75q0 22 9 42q7 19 22 34q14 14 34 23q21 8 41 8zM0 1307z" />
    <glyph glyph-name="Aring" unicode="&#xc5;" 
d="M688 1307l428 -1307h-194l-91 285h-544l-92 -285h-185l434 1307h244zM338 444h442l-221 699zM563 1740q44 0 80 -13q37 -13 64 -39q26 -25 42 -61q15 -35 15 -77t-15 -76q-15 -35 -42 -61q-29 -27 -64 -40q-37 -15 -80 -15t-79 15q-35 13 -64 40q-27 26 -42 61
q-16 33 -16 76q0 44 16 77q16 36 42 61q27 26 64 39q35 13 79 13zM563 1638q-39 0 -65 -23q-25 -24 -25 -65q0 -40 25 -65t65 -25q42 0 66 25q24 26 24 65q0 41 -24 65q-25 23 -66 23zM0 1307z" />
    <glyph glyph-name="AE" unicode="&#xc6;" 
d="M1085 143v-143h-501v281h-342l-109 -281h-176l532 1307h582v-142h-321v-417h307v-142h-307v-463h335zM297 424h287v743z" />
    <glyph glyph-name="Ccedilla" unicode="&#xc7;" 
d="M995 217v-168q-160 -65 -319 -65l-82 -279h-152l66 295q-202 40 -309 205q-107 164 -107 434q0 155 41 284q41 127 117 216q76 88 184 136t242 48q91 0 169 -15q78 -16 150 -48v-175q-71 39 -147 60q-78 20 -166 20q-94 0 -166 -34q-73 -34 -127 -100q-51 -64 -80 -160
q-28 -93 -28 -216q0 -252 103 -382t302 -130q83 0 161 20q79 20 148 54z" />
    <glyph glyph-name="Egrave" unicode="&#xc8;" 
d="M944 152v-152h-743v1307h743v-150h-565v-405h543v-150h-543v-450h565zM457 1659l211 -213h-179l-284 213h252zM0 1307z" />
    <glyph glyph-name="Eacute" unicode="&#xc9;" 
d="M944 152v-152h-743v1307h743v-150h-565v-405h543v-150h-543v-450h565zM670 1659h252l-285 -213h-178zM0 1307z" />
    <glyph glyph-name="Ecircumflex" unicode="&#xca;" 
d="M944 152v-152h-743v1307h743v-150h-565v-405h543v-150h-543v-450h565zM647 1659l232 -213h-183l-135 102l-135 -102h-178l231 213h168zM0 1307z" />
    <glyph glyph-name="Edieresis" unicode="&#xcb;" 
d="M944 152v-152h-743v1307h743v-150h-565v-405h543v-150h-543v-450h565zM344 1659q21 0 42 -8q17 -8 34 -23q14 -14 23 -34q8 -21 8 -42q0 -20 -8 -41q-9 -20 -23 -34q-17 -16 -34 -22q-20 -9 -42 -9q-45 0 -75 31q-31 30 -31 75q0 22 9 42q8 19 22 34q14 14 34 23
q21 8 41 8zM782 1659q21 0 42 -8q20 -9 34 -23t23 -34q8 -21 8 -42q0 -20 -8 -41q-9 -20 -23 -34q-14 -15 -34 -22q-20 -9 -42 -9q-45 0 -75 31q-31 30 -31 75q0 22 9 42q7 19 22 34q14 14 34 23q21 8 41 8zM0 1307z" />
    <glyph glyph-name="Igrave" unicode="&#xcc;" 
d="M473 152v1005h-301v150h782v-150h-301v-1005h301v-152h-782v152h301zM457 1659l211 -213h-179l-284 213h252zM0 1307z" />
    <glyph glyph-name="Iacute" unicode="&#xcd;" 
d="M473 152v1005h-301v150h782v-150h-301v-1005h301v-152h-782v152h301zM670 1659h252l-285 -213h-178zM0 1307z" />
    <glyph glyph-name="Icircumflex" unicode="&#xce;" 
d="M473 152v1005h-301v150h782v-150h-301v-1005h301v-152h-782v152h301zM647 1659l232 -213h-183l-135 102l-135 -102h-178l231 213h168zM0 1307z" />
    <glyph glyph-name="Idieresis" unicode="&#xcf;" 
d="M473 152v1005h-301v150h782v-150h-301v-1005h301v-152h-782v152h301zM344 1659q21 0 42 -8q17 -8 34 -23q14 -14 23 -34q8 -21 8 -42q0 -20 -8 -41q-9 -20 -23 -34q-17 -16 -34 -22q-20 -9 -42 -9q-45 0 -75 31q-31 30 -31 75q0 22 9 42q8 19 22 34q14 14 34 23
q21 8 41 8zM782 1659q21 0 42 -8q20 -9 34 -23t23 -34q8 -21 8 -42q0 -20 -8 -41q-9 -20 -23 -34q-14 -15 -34 -22q-20 -9 -42 -9q-45 0 -75 31q-31 30 -31 75q0 22 9 42q7 19 22 34q14 14 34 23q21 8 41 8zM0 1307z" />
    <glyph glyph-name="Eth" unicode="&#xd0;" 
d="M139 752v555h318q306 0 451 -157t145 -482q0 -98 -13 -180q-14 -87 -45 -160q-32 -75 -81 -134q-47 -59 -122 -104q-74 -44 -170 -66q-98 -24 -223 -24h-260v602h-139v150h139zM317 602v-448h113q224 0 330 126q106 124 106 375q0 139 -24 235q-26 98 -76 155
q-52 59 -129 86q-81 26 -186 26h-134v-405h226v-150h-226z" />
    <glyph glyph-name="Ntilde" unicode="&#xd1;" 
d="M1008 1307v-1307h-232l-381 815l-110 262v-659v-418h-166v1307h229l363 -772l131 -299v700v371h166zM287 1444l-86 82q44 72 98 109q54 36 123 36q56 0 98 -17q33 -13 71 -37q6 -4 27 -17.5t32 -19.5q28 -17 61 -17q40 0 71 28q30 27 58 70l86 -82q-43 -71 -98 -108
q-53 -37 -123 -37q-58 0 -98 17q-33 13 -71 37q-10 6 -29.5 18.5t-28.5 18.5q-29 17 -62 17q-41 0 -71 -27q-30 -29 -58 -71zM0 1307z" />
    <glyph glyph-name="Ograve" unicode="&#xd2;" 
d="M1071 662q0 -175 -41 -304q-43 -130 -112 -211q-70 -83 -165 -124q-96 -41 -200 -41q-127 0 -219 46q-92 44 -155 131q-62 87 -92 210t-30 278q0 173 41 302q40 126 112 212q72 85 164 124q93 40 199 40q127 0 220 -46q95 -47 155 -131q61 -85 93 -209q30 -123 30 -277z
M886 649q0 112 -17 211q-18 95 -57 164q-40 70 -100 107q-62 38 -149 38q-85 0 -144 -40q-60 -40 -100 -110q-38 -69 -58 -163q-19 -92 -19 -199q0 -117 18 -211q18 -97 57 -164q38 -70 99 -107q62 -38 147 -38q83 0 145 41q61 40 101 110q38 68 58 162q19 91 19 199z
M457 1659l211 -213h-179l-284 213h252zM0 1307z" />
    <glyph glyph-name="Oacute" unicode="&#xd3;" 
d="M1071 662q0 -175 -41 -304q-43 -130 -112 -211q-70 -83 -165 -124q-96 -41 -200 -41q-127 0 -219 46q-92 44 -155 131q-62 87 -92 210t-30 278q0 173 41 302q40 126 112 212q72 85 164 124q93 40 199 40q127 0 220 -46q95 -47 155 -131q61 -85 93 -209q30 -123 30 -277z
M886 649q0 112 -17 211q-18 95 -57 164q-40 70 -100 107q-62 38 -149 38q-85 0 -144 -40q-60 -40 -100 -110q-38 -69 -58 -163q-19 -92 -19 -199q0 -117 18 -211q18 -97 57 -164q38 -70 99 -107q62 -38 147 -38q83 0 145 41q61 40 101 110q38 68 58 162q19 91 19 199z
M670 1659h252l-285 -213h-178zM0 1307z" />
    <glyph glyph-name="Ocircumflex" unicode="&#xd4;" 
d="M1071 662q0 -175 -41 -304q-43 -130 -112 -211q-70 -83 -165 -124q-96 -41 -200 -41q-127 0 -219 46q-92 44 -155 131q-62 87 -92 210t-30 278q0 173 41 302q40 126 112 212q72 85 164 124q93 40 199 40q127 0 220 -46q95 -47 155 -131q61 -85 93 -209q30 -123 30 -277z
M886 649q0 112 -17 211q-18 95 -57 164q-40 70 -100 107q-62 38 -149 38q-85 0 -144 -40q-60 -40 -100 -110q-38 -69 -58 -163q-19 -92 -19 -199q0 -117 18 -211q18 -97 57 -164q38 -70 99 -107q62 -38 147 -38q83 0 145 41q61 40 101 110q38 68 58 162q19 91 19 199z
M647 1659l232 -213h-183l-135 102l-135 -102h-178l231 213h168zM0 1307z" />
    <glyph glyph-name="Otilde" unicode="&#xd5;" 
d="M1071 662q0 -175 -41 -304q-43 -130 -112 -211q-70 -83 -165 -124q-96 -41 -200 -41q-127 0 -219 46q-92 44 -155 131q-62 87 -92 210t-30 278q0 173 41 302q40 126 112 212q72 85 164 124q93 40 199 40q127 0 220 -46q95 -47 155 -131q61 -85 93 -209q30 -123 30 -277z
M886 649q0 112 -17 211q-18 95 -57 164q-40 70 -100 107q-62 38 -149 38q-85 0 -144 -40q-60 -40 -100 -110q-38 -69 -58 -163q-19 -92 -19 -199q0 -117 18 -211q18 -97 57 -164q38 -70 99 -107q62 -38 147 -38q83 0 145 41q61 40 101 110q38 68 58 162q19 91 19 199z
M287 1444l-86 82q44 72 98 109q54 36 123 36q56 0 98 -17q33 -13 71 -37q6 -4 27 -17.5t32 -19.5q28 -17 61 -17q40 0 71 28q30 27 58 70l86 -82q-43 -71 -98 -108q-53 -37 -123 -37q-58 0 -98 17q-33 13 -71 37q-10 6 -29.5 18.5t-28.5 18.5q-29 17 -62 17q-41 0 -71 -27
q-30 -29 -58 -71zM0 1307z" />
    <glyph glyph-name="Odieresis" unicode="&#xd6;" 
d="M1071 662q0 -175 -41 -304q-43 -130 -112 -211q-70 -83 -165 -124q-96 -41 -200 -41q-127 0 -219 46q-92 44 -155 131q-62 87 -92 210t-30 278q0 173 41 302q40 126 112 212q72 85 164 124q93 40 199 40q127 0 220 -46q95 -47 155 -131q61 -85 93 -209q30 -123 30 -277z
M886 649q0 112 -17 211q-18 95 -57 164q-40 70 -100 107q-62 38 -149 38q-85 0 -144 -40q-60 -40 -100 -110q-38 -69 -58 -163q-19 -92 -19 -199q0 -117 18 -211q18 -97 57 -164q38 -70 99 -107q62 -38 147 -38q83 0 145 41q61 40 101 110q38 68 58 162q19 91 19 199z
M344 1659q21 0 42 -8q17 -8 34 -23q14 -14 23 -34q8 -21 8 -42q0 -20 -8 -41q-9 -20 -23 -34q-17 -16 -34 -22q-20 -9 -42 -9q-45 0 -75 31q-31 30 -31 75q0 22 9 42q8 19 22 34q14 14 34 23q21 8 41 8zM782 1659q21 0 42 -8q20 -9 34 -23t23 -34q8 -21 8 -42q0 -20 -8 -41
q-9 -20 -23 -34q-14 -15 -34 -22q-20 -9 -42 -9q-45 0 -75 31q-31 30 -31 75q0 22 9 42q7 19 22 34q14 14 34 23q21 8 41 8zM0 1307z" />
    <glyph glyph-name="multiply" unicode="&#xd7;" 
d="M868 956l107 -106l-301 -301l305 -303l-117 -117l-303 305l-301 -301l-106 107l301 301l-306 303l117 117l303 -306z" />
    <glyph glyph-name="Oslash" unicode="&#xd8;" 
d="M752 1522h145l-78 -258q127 -75 189 -228q61 -153 61 -374q0 -175 -41 -304t-111 -211q-70 -83 -165 -124q-96 -41 -199 -41q-31 0 -59 3q-18 1 -56 7l-61 -207h-146l76 256q-127 72 -188 228q-62 156 -62 378q0 173 41 302q40 126 112 212q72 85 164 124q93 40 199 40
q62 0 115 -12zM242 657q0 -148 28 -259q27 -113 90 -179l283 940q-28 6 -38 8q-26 2 -42 2q-85 0 -144 -40q-60 -40 -100 -110q-38 -69 -58 -163q-19 -92 -19 -199zM885 649q0 148 -28 257q-29 112 -91 179l-281 -940q16 -4 37 -6q26 -2 41 -2q83 0 145 41q60 41 100 110
q38 68 58 162q19 91 19 199z" />
    <glyph glyph-name="Ugrave" unicode="&#xd9;" 
d="M1018 1307v-852q0 -108 -30 -195q-31 -87 -90 -149t-144 -95q-84 -34 -197 -34q-120 0 -207 32q-84 31 -138 91q-54 59 -78 140q-25 81 -25 183v879h178v-865q0 -76 15 -135q13 -57 47 -97q33 -39 86 -59q54 -20 128 -20q143 0 210 82t67 231v863h178zM457 1659l211 -213
h-179l-284 213h252zM0 1307z" />
    <glyph glyph-name="Uacute" unicode="&#xda;" 
d="M1018 1307v-852q0 -108 -30 -195q-31 -87 -90 -149t-144 -95q-84 -34 -197 -34q-120 0 -207 32q-84 31 -138 91q-54 59 -78 140q-25 81 -25 183v879h178v-865q0 -76 15 -135q13 -57 47 -97q33 -39 86 -59q54 -20 128 -20q143 0 210 82t67 231v863h178zM670 1659h252
l-285 -213h-178zM0 1307z" />
    <glyph glyph-name="Ucircumflex" unicode="&#xdb;" 
d="M1018 1307v-852q0 -108 -30 -195q-31 -87 -90 -149t-144 -95q-84 -34 -197 -34q-120 0 -207 32q-84 31 -138 91q-54 59 -78 140q-25 81 -25 183v879h178v-865q0 -76 15 -135q13 -57 47 -97q33 -39 86 -59q54 -20 128 -20q143 0 210 82t67 231v863h178zM647 1659l232 -213
h-183l-135 102l-135 -102h-178l231 213h168zM0 1307z" />
    <glyph glyph-name="Udieresis" unicode="&#xdc;" 
d="M1018 1307v-852q0 -108 -30 -195q-31 -87 -90 -149t-144 -95q-84 -34 -197 -34q-120 0 -207 32q-84 31 -138 91q-54 59 -78 140q-25 81 -25 183v879h178v-865q0 -76 15 -135q13 -57 47 -97q33 -39 86 -59q54 -20 128 -20q143 0 210 82t67 231v863h178zM344 1659
q21 0 42 -8q17 -8 34 -23q14 -14 23 -34q8 -21 8 -42q0 -20 -8 -41q-9 -20 -23 -34q-17 -16 -34 -22q-20 -9 -42 -9q-45 0 -75 31q-31 30 -31 75q0 22 9 42q8 19 22 34q14 14 34 23q21 8 41 8zM782 1659q21 0 42 -8q20 -9 34 -23t23 -34q8 -21 8 -42q0 -20 -8 -41
q-9 -20 -23 -34q-14 -15 -34 -22q-20 -9 -42 -9q-45 0 -75 31q-31 30 -31 75q0 22 9 42q7 19 22 34q14 14 34 23q21 8 41 8zM0 1307z" />
    <glyph glyph-name="Yacute" unicode="&#xdd;" 
d="M922 1307h204l-473 -840v-467h-180v471l-473 836h215l260 -478l96 -192l88 174zM670 1659h252l-285 -213h-178zM0 1307z" />
    <glyph glyph-name="Thorn" unicode="&#xde;" 
d="M158 1307h178v-195h190q96 0 186 -23t157 -72q65 -48 107 -128q40 -77 40 -187q0 -80 -30 -160t-93 -144q-61 -62 -161 -104q-96 -40 -234 -40h-162v-254h-178v1307zM831 694q0 64 -21 113q-22 51 -61 86q-41 35 -99 54q-58 18 -132 18h-182v-559h166q158 0 244 74
q85 73 85 214z" />
    <glyph glyph-name="germandbls" unicode="&#xdf;" 
d="M1022 279q0 -54 -19 -105t-64 -93q-47 -42 -116 -67q-72 -26 -174 -26q-46 0 -93 5q-12 1 -35 3.5t-32 3.5v154q4 -2 29 -8q13 -3 39 -7q15 -2 43 -4q30 -2 41 -2q55 0 92 10q37 11 63 27q23 16 36 40q12 22 12 48q0 46 -26 83q-26 36 -65 68q-49 40 -85 64
q-41 28 -85 70q-41 39 -65 85q-26 47 -26 111q0 54 20 96q18 38 48 71q28 30 63 54q35 22 63 48q30 25 49 53t19 67q0 81 -50 119q-50 37 -147 37q-54 0 -97 -15q-41 -14 -74 -47q-30 -31 -47 -84t-17 -122v-1016h-175v1010q0 105 32 184q31 76 89 130q56 50 135 76
q76 25 170 25q83 0 152 -20q65 -19 112 -57q46 -37 70 -89q23 -54 23 -118q0 -61 -19 -102q-18 -39 -49 -73q-27 -30 -63 -55q-29 -20 -63 -47q-28 -24 -48 -51q-20 -28 -20 -65t26 -69q23 -29 66 -62q42 -34 85 -63t86 -72q41 -43 65 -89q26 -50 26 -114z" />
    <glyph glyph-name="agrave" unicode="&#xe0;" 
d="M961 0h-156l-4 135q-83 -81 -166 -117q-85 -36 -178 -36q-87 0 -147 22q-62 22 -100 61q-40 37 -58 90q-19 51 -19 113q0 151 113 237q112 85 332 85h208v88q0 89 -57 143q-58 53 -174 53q-87 0 -167 -19q-82 -19 -171 -54v157q31 11 74 24q51 13 85 20q46 9 94 15
q55 5 99 5q89 0 164 -20q71 -19 124 -61q50 -41 77 -103q27 -61 27 -146v-692zM786 279v178h-221q-67 0 -112 -13q-48 -14 -77 -37q-31 -25 -44 -57q-15 -34 -15 -76q0 -30 9 -55q9 -27 29 -47q19 -20 52 -33q31 -12 78 -12q61 0 138 37q80 37 163 115zM426 1413l242 -242
h-174l-320 242h252zM0 1004z" />
    <glyph glyph-name="aacute" unicode="&#xe1;" 
d="M961 0h-156l-4 135q-83 -81 -166 -117q-85 -36 -178 -36q-87 0 -147 22q-62 22 -100 61q-40 37 -58 90q-19 51 -19 113q0 151 113 237q112 85 332 85h208v88q0 89 -57 143q-58 53 -174 53q-87 0 -167 -19q-82 -19 -171 -54v157q31 11 74 24q51 13 85 20q46 9 94 15
q55 5 99 5q89 0 164 -20q71 -19 124 -61q50 -41 77 -103q27 -61 27 -146v-692zM786 279v178h-221q-67 0 -112 -13q-48 -14 -77 -37q-31 -25 -44 -57q-15 -34 -15 -76q0 -30 9 -55q9 -27 29 -47q19 -20 52 -33q31 -12 78 -12q61 0 138 37q80 37 163 115zM700 1413h252
l-319 -242h-174zM0 1004z" />
    <glyph glyph-name="acircumflex" unicode="&#xe2;" 
d="M961 0h-156l-4 135q-83 -81 -166 -117q-85 -36 -178 -36q-87 0 -147 22q-62 22 -100 61q-40 37 -58 90q-19 51 -19 113q0 151 113 237q112 85 332 85h208v88q0 89 -57 143q-58 53 -174 53q-87 0 -167 -19q-82 -19 -171 -54v157q31 11 74 24q51 13 85 20q46 9 94 15
q55 5 99 5q89 0 164 -20q71 -19 124 -61q50 -41 77 -103q27 -61 27 -146v-692zM786 279v178h-221q-67 0 -112 -13q-48 -14 -77 -37q-31 -25 -44 -57q-15 -34 -15 -76q0 -30 9 -55q9 -27 29 -47q19 -20 52 -33q31 -12 78 -12q61 0 138 37q80 37 163 115zM492 1413h143
l244 -242h-177l-141 121l-141 -121h-172zM0 1004z" />
    <glyph glyph-name="atilde" unicode="&#xe3;" 
d="M961 0h-156l-4 135q-83 -81 -166 -117q-85 -36 -178 -36q-87 0 -147 22q-62 22 -100 61q-40 37 -58 90q-19 51 -19 113q0 151 113 237q112 85 332 85h208v88q0 89 -57 143q-58 53 -174 53q-87 0 -167 -19q-82 -19 -171 -54v157q31 11 74 24q51 13 85 20q46 9 94 15
q55 5 99 5q89 0 164 -20q71 -19 124 -61q50 -41 77 -103q27 -61 27 -146v-692zM786 279v178h-221q-67 0 -112 -13q-48 -14 -77 -37q-31 -25 -44 -57q-15 -34 -15 -76q0 -30 9 -55q9 -27 29 -47q19 -20 52 -33q31 -12 78 -12q61 0 138 37q80 37 163 115zM287 1182l-86 86
q44 72 98 109q54 36 123 36q56 0 98 -17q33 -13 71 -37q6 -4 27 -17.5t32 -19.5q28 -17 61 -17q40 0 71 28q30 27 58 70l86 -86q-43 -71 -98 -108q-53 -37 -123 -37q-58 0 -98 17q-40 16 -71 37q-10 6 -29.5 18.5t-28.5 18.5q-29 17 -62 17q-41 0 -71 -27q-30 -29 -58 -71z
M0 1004z" />
    <glyph glyph-name="adieresis" unicode="&#xe4;" 
d="M961 0h-156l-4 135q-83 -81 -166 -117q-85 -36 -178 -36q-87 0 -147 22q-62 22 -100 61q-40 37 -58 90q-19 51 -19 113q0 151 113 237q112 85 332 85h208v88q0 89 -57 143q-58 53 -174 53q-87 0 -167 -19q-82 -19 -171 -54v157q31 11 74 24q51 13 85 20q46 9 94 15
q55 5 99 5q89 0 164 -20q71 -19 124 -61q50 -41 77 -103q27 -61 27 -146v-692zM786 279v178h-221q-67 0 -112 -13q-48 -14 -77 -37q-31 -25 -44 -57q-15 -34 -15 -76q0 -30 9 -55q9 -27 29 -47q19 -20 52 -33q31 -12 78 -12q61 0 138 37q80 37 163 115zM348 1405q23 0 44 -9
q20 -9 36 -24q15 -16 24 -36q9 -21 9 -44q0 -24 -9 -43q-9 -21 -24 -36q-16 -15 -36 -24q-21 -9 -44 -9q-24 0 -43 9q-21 9 -36 24t-24 36q-9 19 -9 43q0 23 9 44q9 20 24 36q15 15 36 24q19 9 43 9zM778 1405q23 0 44 -9q20 -9 36 -24q15 -16 24 -36q9 -21 9 -44
q0 -24 -9 -43q-9 -21 -24 -36q-16 -15 -36 -24q-21 -9 -44 -9q-24 0 -43 9q-21 9 -36 24t-24 36q-9 20 -9 43t9 44q9 20 24 36q15 15 36 24q20 9 43 9zM0 1004z" />
    <glyph glyph-name="aring" unicode="&#xe5;" 
d="M961 0h-156l-4 135q-83 -81 -166 -117q-85 -36 -178 -36q-87 0 -147 22q-62 22 -100 61q-40 37 -58 90q-19 51 -19 113q0 151 113 237q112 85 332 85h208v88q0 89 -57 143q-58 53 -174 53q-87 0 -167 -19q-82 -19 -171 -54v157q31 11 74 24q51 13 85 20q46 9 94 15
q55 5 99 5q89 0 164 -20q71 -19 124 -61q50 -41 77 -103q27 -61 27 -146v-692zM786 279v178h-221q-67 0 -112 -13q-48 -14 -77 -37q-31 -25 -44 -57q-15 -34 -15 -76q0 -30 9 -55q9 -27 29 -47q19 -20 52 -33q31 -12 78 -12q61 0 138 37q80 37 163 115zM563 1501
q46 0 84 -16q42 -18 68 -44q30 -30 46 -66q17 -39 17 -81q0 -41 -17 -80q-16 -36 -46 -66q-26 -26 -68 -44q-38 -16 -84 -16t-84 16q-42 18 -68 44q-30 30 -46 66q-17 39 -17 80q0 42 17 81q16 36 46 66q26 26 68 44q38 16 84 16zM563 1395q-20 0 -39 -8q-17 -7 -31 -21
q-15 -15 -22 -32q-8 -21 -8 -40q0 -42 29 -71t71 -29q20 0 39 8q17 7 32 22q14 14 21 31q8 19 8 39q0 19 -8 40q-8 19 -21 32t-32 21t-39 8zM0 1004z" />
    <glyph glyph-name="ae" unicode="&#xe6;" 
d="M340 1022q90 0 153 -29q61 -30 87 -92q34 55 91 89q56 32 128 32q77 0 133 -32q55 -32 89 -90q33 -56 50 -139q16 -80 16 -181q0 -63 -1 -81q-2 -27 -3 -42h-444q0 -160 47 -246t154 -86q58 0 113 12q54 12 98 29v-139q-22 -10 -53 -18q-30 -9 -63 -15t-67 -9t-65 -3
q-195 0 -268 174q-50 -81 -117 -128q-65 -46 -142 -46q-121 0 -182 73q-63 73 -63 213q0 73 20 135q20 60 60 100q39 39 103 62q63 21 151 21h120v84q0 101 -34 156t-119 55q-59 0 -120 -19q-61 -18 -126 -55v151q26 13 55 24q36 13 63 20q32 9 68 15q38 5 68 5zM485 457
h-125q-87 0 -126 -50t-39 -133q0 -74 26 -112q25 -37 74 -37q43 0 89 34t101 122v176zM793 883q-38 0 -67 -23q-28 -22 -48 -62q-20 -42 -29 -94q-10 -53 -10 -118h285q1 58 -5 117q-8 55 -22 94q-17 42 -41 63q-26 23 -63 23z" />
    <glyph glyph-name="ccedilla" unicode="&#xe7;" 
d="M677 -14l-82 -281h-152l66 295q-173 37 -262 164q-89 125 -89 328q0 120 37 216q38 98 104 166q69 70 160 107q92 37 205 37q75 0 146 -11q69 -11 130 -36v-166q-61 33 -132 50q-67 15 -140 15q-69 0 -126 -25q-59 -25 -105 -74t-71 -117q-26 -70 -26 -156
q0 -181 89 -272q88 -91 245 -91q73 0 138 16q67 17 128 48v-162q-70 -26 -135 -38q-64 -11 -128 -13z" />
    <glyph glyph-name="egrave" unicode="&#xe8;" 
d="M1008 555q0 -45 -1 -62t-3 -47h-705q0 -153 86 -236t248 -83q49 0 88 4q45 3 85 9q35 5 79 14q43 9 69 16v-143q-73 -20 -160 -32q-87 -13 -186 -13q-128 0 -222 35t-152 102q-59 65 -88 163t-29 218q0 108 31 201q29 93 89 166q60 72 143 113q85 42 193 42
q105 0 186 -33q82 -33 137 -93q56 -62 84 -147t28 -194zM299 580h528q3 69 -13 123q-16 55 -49 95q-35 40 -84 63q-48 22 -116 22q-59 0 -104 -22q-48 -23 -81 -62q-34 -39 -55 -96q-22 -57 -26 -123zM426 1413l242 -242h-174l-320 242h252zM0 1004z" />
    <glyph glyph-name="eacute" unicode="&#xe9;" 
d="M1008 555q0 -45 -1 -62t-3 -47h-705q0 -153 86 -236t248 -83q49 0 88 4q45 3 85 9q35 5 79 14q43 9 69 16v-143q-73 -20 -160 -32q-87 -13 -186 -13q-128 0 -222 35t-152 102q-59 65 -88 163t-29 218q0 108 31 201q29 93 89 166q60 72 143 113q85 42 193 42
q105 0 186 -33q82 -33 137 -93q56 -62 84 -147t28 -194zM299 580h528q3 69 -13 123q-16 55 -49 95q-35 40 -84 63q-48 22 -116 22q-59 0 -104 -22q-48 -23 -81 -62q-34 -39 -55 -96q-22 -57 -26 -123zM700 1413h252l-319 -242h-174zM0 1004z" />
    <glyph glyph-name="ecircumflex" unicode="&#xea;" 
d="M1008 555q0 -45 -1 -62t-3 -47h-705q0 -153 86 -236t248 -83q49 0 88 4q45 3 85 9q35 5 79 14q43 9 69 16v-143q-73 -20 -160 -32q-87 -13 -186 -13q-128 0 -222 35t-152 102q-59 65 -88 163t-29 218q0 108 31 201q29 93 89 166q60 72 143 113q85 42 193 42
q105 0 186 -33q82 -33 137 -93q56 -62 84 -147t28 -194zM299 580h528q3 69 -13 123q-16 55 -49 95q-35 40 -84 63q-48 22 -116 22q-59 0 -104 -22q-48 -23 -81 -62q-34 -39 -55 -96q-22 -57 -26 -123zM492 1413h143l244 -242h-177l-141 121l-141 -121h-172zM0 1004z" />
    <glyph glyph-name="edieresis" unicode="&#xeb;" 
d="M1008 555q0 -45 -1 -62t-3 -47h-705q0 -153 86 -236t248 -83q49 0 88 4q45 3 85 9q35 5 79 14q43 9 69 16v-143q-73 -20 -160 -32q-87 -13 -186 -13q-128 0 -222 35t-152 102q-59 65 -88 163t-29 218q0 108 31 201q29 93 89 166q60 72 143 113q85 42 193 42
q105 0 186 -33q82 -33 137 -93q56 -62 84 -147t28 -194zM299 580h528q3 69 -13 123q-16 55 -49 95q-35 40 -84 63q-48 22 -116 22q-59 0 -104 -22q-48 -23 -81 -62q-34 -39 -55 -96q-22 -57 -26 -123zM348 1405q23 0 44 -9q20 -9 36 -24q15 -16 24 -36q9 -21 9 -44
q0 -24 -9 -43q-9 -21 -24 -36q-16 -15 -36 -24q-21 -9 -44 -9q-24 0 -43 9q-21 9 -36 24t-24 36q-9 19 -9 43q0 23 9 44q9 20 24 36q15 15 36 24q19 9 43 9zM778 1405q23 0 44 -9q20 -9 36 -24q15 -16 24 -36q9 -21 9 -44q0 -24 -9 -43q-9 -21 -24 -36q-16 -15 -36 -24
q-21 -9 -44 -9q-24 0 -43 9q-21 9 -36 24t-24 36q-9 20 -9 43t9 44q9 20 24 36q15 15 36 24q20 9 43 9zM0 1004z" />
    <glyph glyph-name="igrave" unicode="&#xec;" 
d="M502 145v715h-297v144h473v-859h299v-145h-805v145h330zM426 1413l242 -242h-174l-320 242h252zM0 1004z" />
    <glyph glyph-name="iacute" unicode="&#xed;" 
d="M502 145v715h-297v144h473v-859h299v-145h-805v145h330zM700 1413h252l-319 -242h-174zM0 1004z" />
    <glyph glyph-name="icircumflex" unicode="&#xee;" 
d="M502 145v715h-297v144h473v-859h299v-145h-805v145h330zM492 1413h143l244 -242h-177l-141 121l-141 -121h-172zM0 1004z" />
    <glyph glyph-name="idieresis" unicode="&#xef;" 
d="M502 145v715h-297v144h473v-859h299v-145h-805v145h330zM348 1405q23 0 44 -9q20 -9 36 -24q15 -16 24 -36q9 -21 9 -44q0 -24 -9 -43q-9 -21 -24 -36q-16 -15 -36 -24q-21 -9 -44 -9q-24 0 -43 9q-21 9 -36 24t-24 36q-9 19 -9 43q0 23 9 44q9 20 24 36q15 15 36 24
q19 9 43 9zM778 1405q23 0 44 -9q20 -9 36 -24q15 -16 24 -36q9 -21 9 -44q0 -24 -9 -43q-9 -21 -24 -36q-16 -15 -36 -24q-21 -9 -44 -9q-24 0 -43 9q-21 9 -36 24t-24 36q-9 20 -9 43t9 44q9 20 24 36q15 15 36 24q20 9 43 9zM0 1004z" />
    <glyph glyph-name="eth" unicode="&#xf0;" 
d="M717 852q-34 7 -74 13q-32 3 -61 3q-84 0 -142 -31q-60 -32 -93 -83q-35 -51 -52 -122q-16 -67 -16 -145q0 -87 21 -154q19 -67 57 -112q36 -47 87 -69q51 -23 109 -23q69 0 121 27q50 25 85 74q35 46 51 114q17 70 17 148q0 84 -26 173q-27 86 -84 187zM616 1010
q-31 46 -44 64q-16 23 -50 69l-280 -60v146l186 39l-115 145h217l82 -104l297 61v-145l-204 -41q73 -100 129 -192q58 -96 94 -176q40 -89 58 -162q20 -80 20 -152q0 -50 -8 -112q-9 -57 -29 -117q-19 -56 -54 -110q-34 -52 -86 -93q-55 -42 -123 -64q-72 -24 -167 -24
q-105 0 -188 36q-80 33 -137 100q-57 66 -85 157q-29 93 -29 202q0 111 31 207q32 99 91 171t148 116q86 43 201 43q11 0 20 -1t25 -3z" />
    <glyph glyph-name="ntilde" unicode="&#xf1;" 
d="M160 0v1004h155l7 -162q41 50 85 87q39 33 81 55q39 21 80 30q43 8 85 8q156 0 235 -91t79 -276v-655h-174v641q0 117 -44 175q-44 56 -131 56q-32 0 -62 -9q-31 -10 -64 -33q-36 -26 -71 -64q-41 -43 -87 -100v-666h-174zM287 1182l-86 86q44 72 98 109q54 36 123 36
q56 0 98 -17q33 -13 71 -37q6 -4 27 -17.5t32 -19.5q28 -17 61 -17q40 0 71 28q30 27 58 70l86 -86q-43 -71 -98 -108q-53 -37 -123 -37q-58 0 -98 17q-40 16 -71 37q-10 6 -29.5 18.5t-28.5 18.5q-29 17 -62 17q-41 0 -71 -27q-30 -29 -58 -71zM0 1004z" />
    <glyph glyph-name="ograve" unicode="&#xf2;" 
d="M1034 510q0 -117 -33 -214t-95 -167q-61 -70 -151 -108q-88 -39 -202 -39q-109 0 -193 34q-86 33 -145 98q-59 63 -91 161t-32 221q0 116 33 214q32 94 95 166q61 68 151 108q90 38 202 38q109 0 194 -33q86 -35 145 -98q60 -66 91 -161q31 -94 31 -220zM856 502
q0 91 -20 163q-21 69 -59 116q-37 45 -92 70q-57 23 -122 23q-77 0 -133 -30q-58 -33 -91 -82q-35 -50 -52 -118q-17 -70 -17 -142q0 -92 21 -163q19 -67 58 -116q38 -48 92 -70q54 -24 122 -24q79 0 134 31q55 30 91 81q36 53 52 119q16 65 16 142zM426 1413l242 -242h-174
l-320 242h252zM0 1004z" />
    <glyph glyph-name="oacute" unicode="&#xf3;" 
d="M1034 510q0 -117 -33 -214t-95 -167q-61 -70 -151 -108q-88 -39 -202 -39q-109 0 -193 34q-86 33 -145 98q-59 63 -91 161t-32 221q0 116 33 214q32 94 95 166q61 68 151 108q90 38 202 38q109 0 194 -33q86 -35 145 -98q60 -66 91 -161q31 -94 31 -220zM856 502
q0 91 -20 163q-21 69 -59 116q-37 45 -92 70q-57 23 -122 23q-77 0 -133 -30q-58 -33 -91 -82q-35 -50 -52 -118q-17 -70 -17 -142q0 -92 21 -163q19 -67 58 -116q38 -48 92 -70q54 -24 122 -24q79 0 134 31q55 30 91 81q36 53 52 119q16 65 16 142zM700 1413h252l-319 -242
h-174zM0 1004z" />
    <glyph glyph-name="ocircumflex" unicode="&#xf4;" 
d="M1034 510q0 -117 -33 -214t-95 -167q-61 -70 -151 -108q-88 -39 -202 -39q-109 0 -193 34q-86 33 -145 98q-59 63 -91 161t-32 221q0 116 33 214q32 94 95 166q61 68 151 108q90 38 202 38q109 0 194 -33q86 -35 145 -98q60 -66 91 -161q31 -94 31 -220zM856 502
q0 91 -20 163q-21 69 -59 116q-37 45 -92 70q-57 23 -122 23q-77 0 -133 -30q-58 -33 -91 -82q-35 -50 -52 -118q-17 -70 -17 -142q0 -92 21 -163q19 -67 58 -116q38 -48 92 -70q54 -24 122 -24q79 0 134 31q55 30 91 81q36 53 52 119q16 65 16 142zM492 1413h143l244 -242
h-177l-141 121l-141 -121h-172zM0 1004z" />
    <glyph glyph-name="otilde" unicode="&#xf5;" 
d="M1034 510q0 -117 -33 -214t-95 -167q-61 -70 -151 -108q-88 -39 -202 -39q-109 0 -193 34q-86 33 -145 98q-59 63 -91 161t-32 221q0 116 33 214q32 94 95 166q61 68 151 108q90 38 202 38q109 0 194 -33q86 -35 145 -98q60 -66 91 -161q31 -94 31 -220zM856 502
q0 91 -20 163q-21 69 -59 116q-37 45 -92 70q-57 23 -122 23q-77 0 -133 -30q-58 -33 -91 -82q-35 -50 -52 -118q-17 -70 -17 -142q0 -92 21 -163q19 -67 58 -116q38 -48 92 -70q54 -24 122 -24q79 0 134 31q55 30 91 81q36 53 52 119q16 65 16 142zM287 1182l-86 86
q44 72 98 109q54 36 123 36q56 0 98 -17q33 -13 71 -37q6 -4 27 -17.5t32 -19.5q28 -17 61 -17q40 0 71 28q30 27 58 70l86 -86q-43 -71 -98 -108q-53 -37 -123 -37q-58 0 -98 17q-40 16 -71 37q-10 6 -29.5 18.5t-28.5 18.5q-29 17 -62 17q-41 0 -71 -27q-30 -29 -58 -71z
M0 1004z" />
    <glyph glyph-name="odieresis" unicode="&#xf6;" 
d="M1034 510q0 -117 -33 -214t-95 -167q-61 -70 -151 -108q-88 -39 -202 -39q-109 0 -193 34q-86 33 -145 98q-59 63 -91 161t-32 221q0 116 33 214q32 94 95 166q61 68 151 108q90 38 202 38q109 0 194 -33q86 -35 145 -98q60 -66 91 -161q31 -94 31 -220zM856 502
q0 91 -20 163q-21 69 -59 116q-37 45 -92 70q-57 23 -122 23q-77 0 -133 -30q-58 -33 -91 -82q-35 -50 -52 -118q-17 -70 -17 -142q0 -92 21 -163q19 -67 58 -116q38 -48 92 -70q54 -24 122 -24q79 0 134 31q55 30 91 81q36 53 52 119q16 65 16 142zM348 1405q23 0 44 -9
q20 -9 36 -24q15 -16 24 -36q9 -21 9 -44q0 -24 -9 -43q-9 -21 -24 -36q-16 -15 -36 -24q-21 -9 -44 -9q-24 0 -43 9q-21 9 -36 24t-24 36q-9 19 -9 43q0 23 9 44q9 20 24 36q15 15 36 24q19 9 43 9zM778 1405q23 0 44 -9q20 -9 36 -24q15 -16 24 -36q9 -21 9 -44
q0 -24 -9 -43q-9 -21 -24 -36q-16 -15 -36 -24q-21 -9 -44 -9q-24 0 -43 9q-21 9 -36 24t-24 36q-9 20 -9 43t9 44q9 20 24 36q15 15 36 24q20 9 43 9zM0 1004z" />
    <glyph glyph-name="divide" unicode="&#xf7;" 
d="M1042 621v-152h-958v152h958zM561 287q28 0 51 -10t42 -29q18 -20 28 -42q10 -24 10 -52t-10 -51t-28 -41q-17 -17 -42 -28t-51 -11q-27 0 -52 11t-42 28q-17 15 -28 41q-11 25 -11 51q0 25 11 52q11 25 28 42q19 19 42 29t52 10zM561 803q-27 0 -52 11t-42 28t-28 42
t-11 52q0 26 11 51t28 42q20 18 42 28q23 10 52 10q28 0 51 -10q22 -10 42 -28q18 -20 28 -42q10 -23 10 -51q0 -29 -10 -52q-10 -22 -28 -42q-17 -17 -42 -28t-51 -11z" />
    <glyph glyph-name="oslash" unicode="&#xf8;" 
d="M664 1016l67 203h146l-82 -244q113 -54 176 -170q63 -117 63 -295q0 -121 -32 -220q-33 -98 -95 -166q-61 -68 -151 -105q-87 -37 -203 -37q-45 0 -88 6l-68 -203h-145l82 244q-114 55 -178 172q-64 115 -64 295q0 122 33 219q31 96 94 165q61 67 151 105q87 37 203 37
q45 0 91 -6zM743 819l-229 -688q13 -2 28 -3q10 -1 27 -1q77 0 133 30t90 82q36 53 52 119q16 65 16 144q0 112 -30 192q-32 80 -87 125zM385 184l229 688q-3 0 -12 1.5l-15 2.5q-11 1 -30 1q-78 0 -133 -30q-56 -30 -90 -81q-34 -52 -51 -120q-17 -70 -17 -144
q0 -114 30 -193q30 -80 89 -125z" />
    <glyph glyph-name="ugrave" unicode="&#xf9;" 
d="M967 1004v-1004h-156l-6 162q-43 -50 -85 -86t-81 -56q-43 -22 -80 -29q-40 -9 -86 -9q-155 0 -234 91t-79 275v656h174v-642q0 -231 174 -231q33 0 63 10q29 9 64 33q33 22 72 63q46 49 86 101v666h174zM426 1413l242 -242h-174l-320 242h252zM0 1004z" />
    <glyph glyph-name="uacute" unicode="&#xfa;" 
d="M967 1004v-1004h-156l-6 162q-43 -50 -85 -86t-81 -56q-43 -22 -80 -29q-40 -9 -86 -9q-155 0 -234 91t-79 275v656h174v-642q0 -231 174 -231q33 0 63 10q29 9 64 33q33 22 72 63q46 49 86 101v666h174zM700 1413h252l-319 -242h-174zM0 1004z" />
    <glyph glyph-name="ucircumflex" unicode="&#xfb;" 
d="M967 1004v-1004h-156l-6 162q-43 -50 -85 -86t-81 -56q-43 -22 -80 -29q-40 -9 -86 -9q-155 0 -234 91t-79 275v656h174v-642q0 -231 174 -231q33 0 63 10q29 9 64 33q33 22 72 63q46 49 86 101v666h174zM492 1413h143l244 -242h-177l-141 121l-141 -121h-172zM0 1004z
" />
    <glyph glyph-name="udieresis" unicode="&#xfc;" 
d="M967 1004v-1004h-156l-6 162q-43 -50 -85 -86t-81 -56q-43 -22 -80 -29q-40 -9 -86 -9q-155 0 -234 91t-79 275v656h174v-642q0 -231 174 -231q33 0 63 10q29 9 64 33q33 22 72 63q46 49 86 101v666h174zM348 1405q23 0 44 -9q20 -9 36 -24q15 -16 24 -36q9 -21 9 -44
q0 -24 -9 -43q-9 -21 -24 -36q-16 -15 -36 -24q-21 -9 -44 -9q-24 0 -43 9q-21 9 -36 24t-24 36q-9 19 -9 43q0 23 9 44q9 20 24 36q15 15 36 24q19 9 43 9zM778 1405q23 0 44 -9q20 -9 36 -24q15 -16 24 -36q9 -21 9 -44q0 -24 -9 -43q-9 -21 -24 -36q-16 -15 -36 -24
q-21 -9 -44 -9q-24 0 -43 9q-21 9 -36 24t-24 36q-9 20 -9 43t9 44q9 20 24 36q15 15 36 24q20 9 43 9zM0 1004z" />
    <glyph glyph-name="yacute" unicode="&#xfd;" 
d="M862 1004h191l-342 -898q-51 -132 -109 -236q-58 -100 -124 -162q-67 -64 -147 -94q-79 -30 -179 -30q-33 0 -47 1q-23 2 -46 3v158q29 -4 48 -5q26 -3 55 -3q46 0 90 14q39 13 78 46q35 29 71 81q33 48 66 121l-401 1004h198l254 -664l51 -156l58 160zM700 1413h252
l-319 -242h-174zM0 1004z" />
    <glyph glyph-name="thorn" unicode="&#xfe;" 
d="M1018 520q0 -127 -34 -223q-34 -99 -98 -167q-65 -70 -155 -105q-90 -37 -205 -37q-43 0 -95 5q-44 4 -97 17v-420h-174v1823h174v-389l-8 -186q75 101 161 143q87 41 183 41q86 0 151 -36q66 -37 109 -101q43 -66 66 -158q22 -91 22 -207zM840 512q0 76 -11 145
q-12 68 -37 113q-26 48 -64 74q-40 26 -93 26q-34 0 -67 -10q-32 -10 -70 -35q-38 -26 -77 -65t-87 -101v-487q56 -21 104 -31q52 -12 101 -12q61 0 115 19q55 20 96 64q40 43 66 118q24 73 24 182z" />
    <glyph glyph-name="ydieresis" unicode="&#xff;" 
d="M862 1004h191l-342 -898q-51 -132 -109 -236q-58 -100 -124 -162q-67 -64 -147 -94q-79 -30 -179 -30q-33 0 -47 1q-23 2 -46 3v158q29 -4 48 -5q26 -3 55 -3q46 0 90 14q39 13 78 46q35 29 71 81q33 48 66 121l-401 1004h198l254 -664l51 -156l58 160zM348 1405
q23 0 44 -9q20 -9 36 -24q15 -16 24 -36q9 -21 9 -44q0 -24 -9 -43q-9 -21 -24 -36q-16 -15 -36 -24q-21 -9 -44 -9q-24 0 -43 9q-21 9 -36 24t-24 36q-9 19 -9 43q0 23 9 44q9 20 24 36q15 15 36 24q19 9 43 9zM778 1405q23 0 44 -9q20 -9 36 -24q15 -16 24 -36
q9 -21 9 -44q0 -24 -9 -43q-9 -21 -24 -36q-16 -15 -36 -24q-21 -9 -44 -9q-24 0 -43 9q-21 9 -36 24t-24 36q-9 20 -9 43t9 44q9 20 24 36q15 15 36 24q20 9 43 9zM0 1004z" />
    <glyph glyph-name="Amacron" unicode="&#x100;" 
d="M688 1307l428 -1307h-194l-91 285h-544l-92 -285h-185l434 1307h244zM338 444h442l-221 699zM846 1616v-133h-565v133h565zM0 1307z" />
    <glyph glyph-name="amacron" unicode="&#x101;" 
d="M961 0h-156l-4 135q-83 -81 -166 -117q-85 -36 -178 -36q-87 0 -147 22q-62 22 -100 61q-40 37 -58 90q-19 51 -19 113q0 151 113 237q112 85 332 85h208v88q0 89 -57 143q-58 53 -174 53q-87 0 -167 -19q-82 -19 -171 -54v157q31 11 74 24q51 13 85 20q46 9 94 15
q55 5 99 5q89 0 164 -20q71 -19 124 -61q50 -41 77 -103q27 -61 27 -146v-692zM786 279v178h-221q-67 0 -112 -13q-48 -14 -77 -37q-31 -25 -44 -57q-15 -34 -15 -76q0 -30 9 -55q9 -27 29 -47q19 -20 52 -33q31 -12 78 -12q61 0 138 37q80 37 163 115zM825 1358v-133h-524
v133h524zM0 1004z" />
    <glyph glyph-name="Abreve" unicode="&#x102;" 
d="M688 1307l428 -1307h-194l-91 285h-544l-92 -285h-185l434 1307h244zM338 444h442l-221 699zM692 1665h137q0 -61 -21 -104q-23 -44 -58 -72q-36 -27 -85 -41q-51 -14 -102 -14t-101 14q-49 14 -85 41q-37 28 -58 72q-22 43 -22 104h137q0 -51 34 -76q34 -26 95 -26
t96 26q33 25 33 76zM0 1307z" />
    <glyph glyph-name="abreve" unicode="&#x103;" 
d="M961 0h-156l-4 135q-83 -81 -166 -117q-85 -36 -178 -36q-87 0 -147 22q-62 22 -100 61q-40 37 -58 90q-19 51 -19 113q0 151 113 237q112 85 332 85h208v88q0 89 -57 143q-58 53 -174 53q-87 0 -167 -19q-82 -19 -171 -54v157q31 11 74 24q51 13 85 20q46 9 94 15
q55 5 99 5q89 0 164 -20q71 -19 124 -61q50 -41 77 -103q27 -61 27 -146v-692zM786 279v178h-221q-67 0 -112 -13q-48 -14 -77 -37q-31 -25 -44 -57q-15 -34 -15 -76q0 -30 9 -55q9 -27 29 -47q19 -20 52 -33q31 -12 78 -12q61 0 138 37q80 37 163 115zM675 1413h136
q0 -60 -20 -106q-19 -45 -53 -76q-35 -30 -79 -45q-45 -15 -96 -15t-96 15t-78 45q-35 30 -54 76q-20 46 -20 106h136q0 -51 28 -82t84 -31t84 31t28 82zM0 1004z" />
    <glyph glyph-name="Aogonek" unicode="&#x104;" 
d="M1131 -262v-113q-34 -6 -55 -7q-31 -3 -56 -3q-108 0 -163 46q-56 47 -56 118q0 21 5 46q5 27 17 49q15 28 37 57q21 30 62 69l-91 285h-544l-92 -285h-185l434 1307h244l428 -1307h-38q-33 -33 -58 -63q-23 -29 -34 -50q-12 -22 -16 -41q-5 -22 -5 -39q0 -33 22 -52
q21 -21 74 -21q21 0 34 1q19 1 36 3zM338 444h442l-221 699z" />
    <glyph glyph-name="aogonek" unicode="&#x105;" 
d="M1014 -262v-113q-34 -6 -55 -7q-32 -3 -56 -3q-108 0 -163 46q-56 47 -56 118q0 21 5 46q5 27 17 49q15 28 37 57q21 30 62 69l-4 135q-83 -81 -166 -117q-85 -36 -178 -36q-87 0 -147 22q-62 22 -100 61q-40 37 -58 90q-19 51 -19 113q0 151 113 237q112 85 332 85h208
v88q0 89 -57 143q-58 53 -174 53q-87 0 -167 -19q-82 -19 -171 -54v157q31 11 74 24q51 13 85 20q46 9 94 15q55 5 99 5q89 0 164 -20q71 -19 124 -61q50 -41 77 -103q27 -61 27 -146v-692q-33 -33 -58 -63q-23 -29 -34 -50q-12 -22 -16 -41q-5 -22 -5 -39q0 -33 22 -52
q21 -21 74 -21q21 0 34 1q20 1 36 3zM786 279v178h-221q-67 0 -112 -13q-48 -14 -77 -37q-31 -25 -44 -57q-15 -34 -15 -76q0 -30 9 -55q9 -27 29 -47q19 -20 52 -33q31 -12 78 -12q61 0 138 37q80 37 163 115z" />
    <glyph glyph-name="Cacute" unicode="&#x106;" 
d="M995 217v-168q-159 -65 -329 -65q-277 0 -425 166q-149 166 -149 489q0 155 41 284q41 127 117 216q76 88 184 136t242 48q91 0 169 -15q78 -16 150 -48v-175q-71 39 -147 60q-78 20 -166 20q-94 0 -166 -34q-73 -34 -127 -100q-51 -64 -80 -160q-28 -93 -28 -216
q0 -255 103 -383q104 -129 302 -129q83 0 161 20q79 20 148 54zM731 1659h252l-285 -213h-178zM61 1307z" />
    <glyph glyph-name="cacute" unicode="&#x107;" 
d="M940 199v-162q-69 -26 -139 -38q-69 -13 -148 -13q-239 0 -366 129q-129 129 -129 377q0 120 37 216q38 98 104 166q69 70 160 107q92 37 205 37q75 0 146 -11q69 -11 130 -36v-166q-61 33 -132 50q-67 15 -140 15q-69 0 -126 -25q-59 -25 -105 -74t-71 -117
q-26 -70 -26 -156q0 -181 89 -272q88 -91 245 -91q73 0 138 16q67 17 128 48zM741 1413h252l-319 -242h-174zM41 1004z" />
    <glyph glyph-name="Ccircumflex" unicode="&#x108;" 
d="M995 217v-168q-159 -65 -329 -65q-277 0 -425 166q-149 166 -149 489q0 155 41 284q41 127 117 216q76 88 184 136t242 48q91 0 169 -15q78 -16 150 -48v-175q-71 39 -147 60q-78 20 -166 20q-94 0 -166 -34q-73 -34 -127 -100q-51 -64 -80 -160q-28 -93 -28 -216
q0 -255 103 -383q104 -129 302 -129q83 0 161 20q79 20 148 54zM708 1659l232 -213h-183l-135 102l-135 -102h-178l231 213h168zM61 1307z" />
    <glyph glyph-name="ccircumflex" unicode="&#x109;" 
d="M940 199v-162q-69 -26 -139 -38q-69 -13 -148 -13q-239 0 -366 129q-129 129 -129 377q0 120 37 216q38 98 104 166q69 70 160 107q92 37 205 37q75 0 146 -11q69 -11 130 -36v-166q-61 33 -132 50q-67 15 -140 15q-69 0 -126 -25q-59 -25 -105 -74t-71 -117
q-26 -70 -26 -156q0 -181 89 -272q88 -91 245 -91q73 0 138 16q67 17 128 48zM533 1413h143l244 -242h-177l-141 121l-141 -121h-172zM41 1004z" />
    <glyph glyph-name="Cdotaccent" unicode="&#x10a;" 
d="M995 217v-168q-159 -65 -329 -65q-277 0 -425 166q-149 166 -149 489q0 155 41 284q41 127 117 216q76 88 184 136t242 48q91 0 169 -15q78 -16 150 -48v-175q-71 39 -147 60q-78 20 -166 20q-94 0 -166 -34q-73 -34 -127 -100q-51 -64 -80 -160q-28 -93 -28 -216
q0 -255 103 -383q104 -129 302 -129q83 0 161 20q79 20 148 54zM497 1552q0 28 10 49q11 24 27 41q16 16 40 27q21 10 50 10t50 -10q24 -11 41 -27q16 -17 27 -41q9 -22 9 -49q0 -26 -9 -49q-11 -24 -27 -40q-17 -17 -41 -28q-21 -10 -50 -10t-50 10q-25 12 -40 28
q-16 16 -27 40q-10 21 -10 49zM61 1307z" />
    <glyph glyph-name="cdotaccent" unicode="&#x10b;" 
d="M940 199v-162q-69 -26 -139 -38q-69 -13 -148 -13q-239 0 -366 129q-129 129 -129 377q0 120 37 216q38 98 104 166q69 70 160 107q92 37 205 37q75 0 146 -11q69 -11 130 -36v-166q-61 33 -132 50q-67 15 -140 15q-69 0 -126 -25q-59 -25 -105 -74t-71 -117
q-26 -70 -26 -156q0 -181 89 -272q88 -91 245 -91q73 0 138 16q67 17 128 48zM604 1421q29 0 53 -10q23 -10 42 -29q17 -17 28 -42q10 -23 10 -52t-10 -52q-11 -25 -28 -42t-42 -28q-27 -11 -53 -11q-28 0 -53 11t-42 28t-28 42q-10 23 -10 52t10 52q11 25 28 42
q19 19 42 29t53 10zM41 1004z" />
    <glyph glyph-name="Ccaron" unicode="&#x10c;" 
d="M995 217v-168q-159 -65 -329 -65q-277 0 -425 166q-149 166 -149 489q0 155 41 284q41 127 117 216q76 88 184 136t242 48q91 0 169 -15q78 -16 150 -48v-175q-71 39 -147 60q-78 20 -166 20q-94 0 -166 -34q-73 -34 -127 -100q-51 -64 -80 -160q-28 -93 -28 -216
q0 -255 103 -383q104 -129 302 -129q83 0 161 20q79 20 148 54zM540 1446l-231 213h182l135 -103l135 103h179l-232 -213h-168zM61 1307z" />
    <glyph glyph-name="ccaron" unicode="&#x10d;" 
d="M940 199v-162q-69 -26 -139 -38q-69 -13 -148 -13q-239 0 -366 129q-129 129 -129 377q0 120 37 216q38 98 104 166q69 70 160 107q92 37 205 37q75 0 146 -11q69 -11 130 -36v-166q-61 33 -132 50q-67 15 -140 15q-69 0 -126 -25q-59 -25 -105 -74t-71 -117
q-26 -70 -26 -156q0 -181 89 -272q88 -91 245 -91q73 0 138 16q67 17 128 48zM696 1171h-143l-244 242h176l141 -121l142 121h172zM61 1004z" />
    <glyph glyph-name="Dcaron" unicode="&#x10e;" 
d="M1053 668q0 -91 -14 -180q-15 -85 -47 -160q-31 -73 -83 -134q-49 -59 -125 -104q-73 -43 -172 -66q-98 -24 -223 -24h-280v1307h337q306 0 457 -157q150 -158 150 -482zM866 655q0 137 -26 235q-25 95 -79 155q-53 59 -133 86q-81 26 -188 26h-153v-1003h133
q446 0 446 501zM440 1446l-231 213h182l135 -103l135 103h179l-232 -213h-168zM-39 1307z" />
    <glyph glyph-name="dcaron" unicode="&#x10f;" 
d="M60 481q0 126 35 228q34 97 100 168q66 69 155 104q91 35 201 35q49 0 95 -6q49 -6 91 -19v422h175v-1413h-156l-6 190q-74 -107 -158 -157q-86 -51 -184 -51q-86 0 -151 36t-109 102q-43 64 -66 157q-22 89 -22 204zM238 492q0 -182 54 -271q52 -90 151 -90q66 0 140 59
q71 56 154 175v466q-48 22 -95 31q-50 10 -103 10q-141 0 -221 -92t-80 -288zM1051 1466h170l-109 -295h-145zM-14 1004z" />
    <glyph glyph-name="Dcroat" unicode="&#x110;" 
d="M139 752v555h318q306 0 451 -157t145 -482q0 -98 -13 -180q-14 -87 -45 -160q-32 -75 -81 -134q-47 -59 -122 -104q-74 -44 -170 -66q-98 -24 -223 -24h-260v602h-139v150h139zM317 602v-448h113q224 0 330 126q106 124 106 375q0 139 -24 235q-26 98 -76 155
q-52 59 -129 86q-81 26 -186 26h-134v-405h226v-150h-226z" />
    <glyph glyph-name="dcroat" unicode="&#x111;" 
d="M477 1137v145h289v131h174v-131h186v-145h-186v-1137h-156l-6 190q-71 -106 -156 -157q-86 -51 -184 -51q-86 0 -150 36t-106 102q-42 64 -63 157q-21 91 -21 204q0 129 34 228q35 100 97 168q64 68 153 104q90 35 200 35q99 0 184 -25v146h-289zM276 492q0 -183 50 -272
t147 -89q65 0 139 59q69 56 154 175v466q-48 22 -94 31q-50 10 -103 10q-140 0 -217 -92q-76 -91 -76 -288z" />
    <glyph glyph-name="Emacron" unicode="&#x112;" 
d="M944 152v-152h-743v1307h743v-150h-565v-405h543v-150h-543v-450h565zM846 1616v-133h-565v133h565zM0 1307z" />
    <glyph glyph-name="emacron" unicode="&#x113;" 
d="M1008 555q0 -45 -1 -62t-3 -47h-705q0 -153 86 -236t248 -83q49 0 88 4q45 3 85 9q35 5 79 14q43 9 69 16v-143q-73 -20 -160 -32q-87 -13 -186 -13q-128 0 -222 35t-152 102q-59 65 -88 163t-29 218q0 108 31 201q29 93 89 166q60 72 143 113q85 42 193 42
q105 0 186 -33q82 -33 137 -93q56 -62 84 -147t28 -194zM299 580h528q3 69 -13 123q-16 55 -49 95q-35 40 -84 63q-48 22 -116 22q-59 0 -104 -22q-48 -23 -81 -62q-34 -39 -55 -96q-22 -57 -26 -123zM825 1358v-133h-524v133h524zM0 1004z" />
    <glyph glyph-name="Ebreve" unicode="&#x114;" 
d="M944 152v-152h-743v1307h743v-150h-565v-405h543v-150h-543v-450h565zM692 1665h137q0 -61 -21 -104q-23 -44 -58 -72q-36 -27 -85 -41q-51 -14 -102 -14t-101 14q-49 14 -85 41q-37 28 -58 72q-22 43 -22 104h137q0 -51 34 -76q34 -26 95 -26t96 26q33 25 33 76zM0 1307
z" />
    <glyph glyph-name="ebreve" unicode="&#x115;" 
d="M1008 555q0 -45 -1 -62t-3 -47h-705q0 -153 86 -236t248 -83q49 0 88 4q45 3 85 9q35 5 79 14q43 9 69 16v-143q-73 -20 -160 -32q-87 -13 -186 -13q-128 0 -222 35t-152 102q-59 65 -88 163t-29 218q0 108 31 201q29 93 89 166q60 72 143 113q85 42 193 42
q105 0 186 -33q82 -33 137 -93q56 -62 84 -147t28 -194zM299 580h528q3 69 -13 123q-16 55 -49 95q-35 40 -84 63q-48 22 -116 22q-59 0 -104 -22q-48 -23 -81 -62q-34 -39 -55 -96q-22 -57 -26 -123zM675 1413h136q0 -60 -20 -106q-19 -45 -53 -76q-35 -30 -79 -45
q-45 -15 -96 -15t-96 15t-78 45q-35 30 -54 76q-20 46 -20 106h136q0 -51 28 -82t84 -31t84 31t28 82zM0 1004z" />
    <glyph glyph-name="Edotaccent" unicode="&#x116;" 
d="M944 152v-152h-743v1307h743v-150h-565v-405h543v-150h-543v-450h565zM436 1552q0 28 10 49q11 24 27 41q16 16 40 27q21 10 50 10t50 -10q24 -11 41 -27q16 -17 27 -41q9 -22 9 -49q0 -26 -9 -49q-11 -24 -27 -40q-17 -17 -41 -28q-21 -10 -50 -10t-50 10q-25 12 -40 28
q-16 16 -27 40q-10 21 -10 49zM0 1307z" />
    <glyph glyph-name="edotaccent" unicode="&#x117;" 
d="M1008 555q0 -45 -1 -62t-3 -47h-705q0 -153 86 -236t248 -83q49 0 88 4q45 3 85 9q35 5 79 14q43 9 69 16v-143q-73 -20 -160 -32q-87 -13 -186 -13q-128 0 -222 35t-152 102q-59 65 -88 163t-29 218q0 108 31 201q29 93 89 166q60 72 143 113q85 42 193 42
q105 0 186 -33q82 -33 137 -93q56 -62 84 -147t28 -194zM299 580h528q3 69 -13 123q-16 55 -49 95q-35 40 -84 63q-48 22 -116 22q-59 0 -104 -22q-48 -23 -81 -62q-34 -39 -55 -96q-22 -57 -26 -123zM563 1421q29 0 53 -10q23 -10 42 -29q17 -17 28 -42q10 -23 10 -52
t-10 -52q-11 -25 -28 -42t-42 -28q-27 -11 -53 -11q-28 0 -53 11t-42 28t-28 42q-10 23 -10 52t10 52q11 25 28 42q19 19 42 29t53 10zM0 1004z" />
    <glyph glyph-name="Eogonek" unicode="&#x118;" 
d="M998 -262v-113q-34 -6 -55 -7q-32 -3 -56 -3q-108 0 -163 46q-56 47 -56 118q0 21 5 46q5 27 17 49q15 28 37 57q21 30 62 69h-588v1307h743v-150h-565v-405h543v-150h-543v-450h565v-152h1q-33 -33 -58 -63q-23 -29 -34 -50q-12 -22 -16 -41q-5 -22 -5 -39q0 -33 22 -52
q21 -21 74 -21q21 0 34 1q20 1 36 3z" />
    <glyph glyph-name="eogonek" unicode="&#x119;" 
d="M883 -262v-113q-34 -6 -55 -7q-32 -3 -56 -3q-108 0 -163 46q-56 47 -56 118q0 24 4 44t15 46q9 21 32 52q16 23 53 62h-24q-9 -1 -25 -1q-128 0 -222 35t-152 102q-59 65 -88 163t-29 218q0 108 31 201q29 93 89 166q60 72 143 113q85 42 193 42q105 0 186 -33
q82 -33 137 -93q56 -62 84 -147t28 -194q0 -45 -1 -62t-3 -47h-705q0 -153 86 -236t248 -83q49 0 88 4q45 3 85 9q35 5 79 14q43 9 69 16v-143q-57 -17 -126 -27q-37 -39 -56 -63q-23 -29 -34 -50q-12 -22 -16 -41q-5 -22 -5 -39q0 -33 22 -52q21 -21 74 -21q21 0 34 1
q19 1 36 3zM299 580h528q3 69 -13 123q-16 55 -49 95q-35 40 -84 63q-48 22 -116 22q-59 0 -104 -22q-48 -23 -81 -62q-34 -39 -55 -96q-22 -57 -26 -123z" />
    <glyph glyph-name="Ecaron" unicode="&#x11a;" 
d="M944 152v-152h-743v1307h743v-150h-565v-405h543v-150h-543v-450h565zM479 1446l-231 213h182l135 -103l135 103h179l-232 -213h-168zM0 1307z" />
    <glyph glyph-name="ecaron" unicode="&#x11b;" 
d="M1008 555q0 -45 -1 -62t-3 -47h-705q0 -153 86 -236t248 -83q49 0 88 4q45 3 85 9q35 5 79 14q43 9 69 16v-143q-73 -20 -160 -32q-87 -13 -186 -13q-128 0 -222 35t-152 102q-59 65 -88 163t-29 218q0 108 31 201q29 93 89 166q60 72 143 113q85 42 193 42
q105 0 186 -33q82 -33 137 -93q56 -62 84 -147t28 -194zM299 580h528q3 69 -13 123q-16 55 -49 95q-35 40 -84 63q-48 22 -116 22q-59 0 -104 -22q-48 -23 -81 -62q-34 -39 -55 -96q-22 -57 -26 -123zM635 1171h-143l-244 242h176l141 -121l142 121h172zM0 1004z" />
    <glyph glyph-name="Gcircumflex" unicode="&#x11c;" 
d="M1006 1260v-177q-71 38 -150 61q-76 21 -168 21q-105 0 -185 -37q-82 -38 -136 -104q-57 -69 -85 -163q-30 -95 -30 -210q0 -121 24 -215q24 -95 75 -161t131 -101q81 -35 190 -35q11 0 41 2q21 1 44 6q15 2 43 8q16 4 36 11v416h-267v147h443v-668q-36 -17 -86 -34
q-41 -13 -93 -25q-48 -10 -95 -15q-52 -5 -91 -5q-135 0 -241 42q-107 42 -183 125q-75 81 -116 205q-41 125 -41 285q0 161 45 289t127 216q81 89 196 135q113 46 252 46q88 0 168 -15q82 -17 152 -50zM708 1659l232 -213h-183l-135 102l-135 -102h-178l231 213h168z
M61 1307z" />
    <glyph glyph-name="gcircumflex" unicode="&#x11d;" 
d="M1044 862h-161q27 -32 44 -81q15 -46 15 -101q0 -79 -28 -142q-28 -64 -81 -111q-51 -45 -124 -71q-75 -26 -160 -26q-60 0 -118 14q-55 14 -87 33q-17 -25 -32 -53q-13 -25 -13 -56q0 -38 37 -63q36 -25 96 -27l264 -10q70 -1 139 -19q60 -16 109 -49q45 -31 71 -79
q25 -46 25 -109q0 -66 -29 -127q-28 -59 -89 -105t-154 -73t-221 -27q-119 0 -207 20q-86 20 -141 54q-54 34 -80 82q-25 46 -25 104q0 73 34 128t105 106q-25 12 -45 30q-19 18 -31 40q-12 21 -18 45t-6 47q0 66 31 119q30 54 72 102q-20 23 -33 45q-14 21 -25 48
q-12 30 -16 55q-6 29 -6 67q0 77 29 143q28 64 80 110q51 47 124 72q71 25 160 25q33 0 71 -5q28 -4 60 -13h364v-142zM279 -145q0 -71 74 -103q73 -33 206 -33q83 0 140 15q58 16 91 40q33 23 49 56q15 31 15 64q0 61 -50 90q-51 30 -153 34l-262 9q-35 -24 -54 -43
q-21 -20 -34 -42q-13 -24 -17 -43q-5 -25 -5 -44zM332 676q0 -49 16 -88t45 -68q28 -28 69 -43q38 -16 87 -16q53 0 93 18q38 16 68 47q27 30 42 69q14 40 14 81q0 49 -16 88t-45 68q-26 26 -68 44q-41 15 -88 15q-52 0 -92 -18q-41 -18 -68 -47q-29 -30 -42 -69
q-15 -39 -15 -81zM492 1413h143l244 -242h-177l-141 121l-141 -121h-172zM0 1004z" />
    <glyph glyph-name="Gbreve" unicode="&#x11e;" 
d="M1006 1260v-177q-71 38 -150 61q-76 21 -168 21q-105 0 -185 -37q-82 -38 -136 -104q-57 -69 -85 -163q-30 -95 -30 -210q0 -121 24 -215q24 -95 75 -161t131 -101q81 -35 190 -35q11 0 41 2q21 1 44 6q15 2 43 8q16 4 36 11v416h-267v147h443v-668q-36 -17 -86 -34
q-41 -13 -93 -25q-48 -10 -95 -15q-52 -5 -91 -5q-135 0 -241 42q-107 42 -183 125q-75 81 -116 205q-41 125 -41 285q0 161 45 289t127 216q81 89 196 135q113 46 252 46q88 0 168 -15q82 -17 152 -50zM753 1665h137q0 -61 -21 -104q-23 -44 -58 -72q-36 -27 -85 -41
q-51 -14 -102 -14t-101 14q-49 14 -85 41q-37 28 -58 72q-22 43 -22 104h137q0 -51 34 -76q34 -26 95 -26t96 26q33 25 33 76zM61 1307z" />
    <glyph glyph-name="gbreve" unicode="&#x11f;" 
d="M1044 862h-161q27 -32 44 -81q15 -46 15 -101q0 -79 -28 -142q-28 -64 -81 -111q-51 -45 -124 -71q-75 -26 -160 -26q-60 0 -118 14q-55 14 -87 33q-17 -25 -32 -53q-13 -25 -13 -56q0 -38 37 -63q36 -25 96 -27l264 -10q70 -1 139 -19q60 -16 109 -49q45 -31 71 -79
q25 -46 25 -109q0 -66 -29 -127q-28 -59 -89 -105t-154 -73t-221 -27q-119 0 -207 20q-86 20 -141 54q-54 34 -80 82q-25 46 -25 104q0 73 34 128t105 106q-25 12 -45 30q-19 18 -31 40q-12 21 -18 45t-6 47q0 66 31 119q30 54 72 102q-20 23 -33 45q-14 21 -25 48
q-12 30 -16 55q-6 29 -6 67q0 77 29 143q28 64 80 110q51 47 124 72q71 25 160 25q33 0 71 -5q28 -4 60 -13h364v-142zM279 -145q0 -71 74 -103q73 -33 206 -33q83 0 140 15q58 16 91 40q33 23 49 56q15 31 15 64q0 61 -50 90q-51 30 -153 34l-262 9q-35 -24 -54 -43
q-21 -20 -34 -42q-13 -24 -17 -43q-5 -25 -5 -44zM332 676q0 -49 16 -88t45 -68q28 -28 69 -43q38 -16 87 -16q53 0 93 18q38 16 68 47q27 30 42 69q14 40 14 81q0 49 -16 88t-45 68q-26 26 -68 44q-41 15 -88 15q-52 0 -92 -18q-41 -18 -68 -47q-29 -30 -42 -69
q-15 -39 -15 -81zM675 1413h136q0 -60 -20 -106q-19 -45 -53 -76q-35 -30 -79 -45q-45 -15 -96 -15t-96 15t-78 45q-35 30 -54 76q-20 46 -20 106h136q0 -51 28 -82t84 -31t84 31t28 82zM0 1004z" />
    <glyph glyph-name="Gdotaccent" unicode="&#x120;" 
d="M1006 1260v-177q-71 38 -150 61q-76 21 -168 21q-105 0 -185 -37q-82 -38 -136 -104q-57 -69 -85 -163q-30 -95 -30 -210q0 -121 24 -215q24 -95 75 -161t131 -101q81 -35 190 -35q11 0 41 2q21 1 44 6q15 2 43 8q16 4 36 11v416h-267v147h443v-668q-36 -17 -86 -34
q-41 -13 -93 -25q-48 -10 -95 -15q-52 -5 -91 -5q-135 0 -241 42q-107 42 -183 125q-75 81 -116 205q-41 125 -41 285q0 161 45 289t127 216q81 89 196 135q113 46 252 46q88 0 168 -15q82 -17 152 -50zM497 1552q0 28 10 49q11 24 27 41q16 16 40 27q21 10 50 10t50 -10
q24 -11 41 -27q16 -17 27 -41q9 -22 9 -49q0 -26 -9 -49q-11 -24 -27 -40q-17 -17 -41 -28q-21 -10 -50 -10t-50 10q-25 12 -40 28q-16 16 -27 40q-10 21 -10 49zM61 1307z" />
    <glyph glyph-name="gdotaccent" unicode="&#x121;" 
d="M1044 862h-161q27 -32 44 -81q15 -46 15 -101q0 -79 -28 -142q-28 -64 -81 -111q-51 -45 -124 -71q-75 -26 -160 -26q-60 0 -118 14q-55 14 -87 33q-17 -25 -32 -53q-13 -25 -13 -56q0 -38 37 -63q36 -25 96 -27l264 -10q70 -1 139 -19q60 -16 109 -49q45 -31 71 -79
q25 -46 25 -109q0 -66 -29 -127q-28 -59 -89 -105t-154 -73t-221 -27q-119 0 -207 20q-86 20 -141 54q-54 34 -80 82q-25 46 -25 104q0 73 34 128t105 106q-25 12 -45 30q-19 18 -31 40q-12 21 -18 45t-6 47q0 66 31 119q30 54 72 102q-20 23 -33 45q-14 21 -25 48
q-12 30 -16 55q-6 29 -6 67q0 77 29 143q28 64 80 110q51 47 124 72q71 25 160 25q33 0 71 -5q28 -4 60 -13h364v-142zM279 -145q0 -71 74 -103q73 -33 206 -33q83 0 140 15q58 16 91 40q33 23 49 56q15 31 15 64q0 61 -50 90q-51 30 -153 34l-262 9q-35 -24 -54 -43
q-21 -20 -34 -42q-13 -24 -17 -43q-5 -25 -5 -44zM332 676q0 -49 16 -88t45 -68q28 -28 69 -43q38 -16 87 -16q53 0 93 18q38 16 68 47q27 30 42 69q14 40 14 81q0 49 -16 88t-45 68q-26 26 -68 44q-41 15 -88 15q-52 0 -92 -18q-41 -18 -68 -47q-29 -30 -42 -69
q-15 -39 -15 -81zM563 1421q29 0 53 -10q23 -10 42 -29q17 -17 28 -42q10 -23 10 -52t-10 -52q-11 -25 -28 -42t-42 -28q-27 -11 -53 -11q-28 0 -53 11t-42 28t-28 42q-10 23 -10 52t10 52q11 25 28 42q19 19 42 29t53 10zM0 1004z" />
    <glyph glyph-name="uni0122" unicode="&#x122;" 
d="M1006 1260v-177q-71 38 -150 61q-76 21 -168 21q-105 0 -185 -37q-82 -38 -136 -104q-57 -69 -85 -163q-30 -95 -30 -210q0 -121 24 -215q24 -95 75 -161t131 -101q81 -35 190 -35q11 0 41 2q21 1 44 6q15 2 43 8q16 4 36 11v416h-267v147h443v-668q-36 -17 -86 -34
q-41 -13 -93 -25q-48 -10 -95 -15q-52 -5 -91 -5q-135 0 -241 42q-107 42 -183 125q-75 81 -116 205q-41 125 -41 285q0 161 45 289t127 216q81 89 196 135q113 46 252 46q88 0 168 -15q82 -17 152 -50zM498 -115h170l-88 -295h-148z" />
    <glyph glyph-name="uni0123" unicode="&#x123;" 
d="M1044 862h-161q27 -32 44 -81q15 -46 15 -101q0 -79 -28 -142q-28 -64 -81 -111q-51 -45 -124 -71q-75 -26 -160 -26q-60 0 -118 14q-55 14 -87 33q-17 -25 -32 -53q-13 -25 -13 -56q0 -38 37 -63q36 -25 96 -27l264 -10q70 -1 139 -19q60 -16 109 -49q45 -31 71 -79
q25 -46 25 -109q0 -66 -29 -127q-28 -59 -89 -105t-154 -73t-221 -27q-119 0 -207 20q-86 20 -141 54q-54 34 -80 82q-25 46 -25 104q0 73 34 128t105 106q-25 12 -45 30q-19 18 -31 40q-12 21 -18 45t-6 47q0 66 31 119q30 54 72 102q-20 23 -33 45q-14 21 -25 48
q-12 30 -16 55q-6 29 -6 67q0 77 29 143q28 64 80 110q51 47 124 72q71 25 160 25q33 0 71 -5q28 -4 60 -13h364v-142zM279 -145q0 -71 74 -103q73 -33 206 -33q83 0 140 15q58 16 91 40q33 23 49 56q15 31 15 64q0 61 -50 90q-51 30 -153 34l-262 9q-35 -24 -54 -43
q-21 -20 -34 -42q-13 -24 -17 -43q-5 -25 -5 -44zM332 676q0 -49 16 -88t45 -68q28 -28 69 -43q38 -16 87 -16q53 0 93 18q38 16 68 47q27 30 42 69q14 40 14 81q0 49 -16 88t-45 68q-26 26 -68 44q-41 15 -88 15q-52 0 -92 -18q-41 -18 -68 -47q-29 -30 -42 -69
q-15 -39 -15 -81zM635 1171h-170l108 295h146zM0 1004z" />
    <glyph glyph-name="Hcircumflex" unicode="&#x124;" 
d="M1016 1307v-1307h-178v600h-549v-600h-178v1307h178v-553h549v553h178zM647 1659l232 -213h-183l-135 102l-135 -102h-178l231 213h168zM0 1307z" />
    <glyph glyph-name="hcircumflex" unicode="&#x125;" 
d="M967 655v-655h-174v641q0 116 -43 174q-44 57 -125 57q-35 0 -65 -9q-31 -10 -64 -33q-35 -25 -72 -64q-43 -44 -90 -100v-666h-174v1413h174v-409l-6 -158q38 46 81 83q40 34 79 54q39 21 80 30q40 9 85 9q150 0 232 -91t82 -276zM647 1710l232 -213h-183l-135 102
l-135 -102h-178l231 213h168zM0 1358z" />
    <glyph glyph-name="Hbar" unicode="&#x126;" 
d="M1096 940h-111v-940h-178v571h-488v-571h-178v940h-110v150h110v217h178v-217h488v217h178v-217h111v-150zM319 721h488v219h-488v-219z" />
    <glyph glyph-name="hbar" unicode="&#x127;" 
d="M334 1139v-176l-6 -166q38 46 81 83q40 34 79 54q39 21 80 30q40 9 85 9q150 0 232 -91t82 -276v-606h-174v592q0 115 -43 173t-125 58q-35 0 -65 -9q-31 -10 -64 -33q-35 -25 -72 -64q-45 -47 -90 -101v-616h-174v1139h-160v141h160v133h174v-133h315v-141h-315zM0 1004
z" />
    <glyph glyph-name="Itilde" unicode="&#x128;" 
d="M473 152v1005h-301v150h782v-150h-301v-1005h301v-152h-782v152h301zM287 1444l-86 82q44 72 98 109q54 36 123 36q56 0 98 -17q33 -13 71 -37q6 -4 27 -17.5t32 -19.5q28 -17 61 -17q40 0 71 28q30 27 58 70l86 -82q-43 -71 -98 -108q-53 -37 -123 -37q-58 0 -98 17
q-33 13 -71 37q-10 6 -29.5 18.5t-28.5 18.5q-29 17 -62 17q-41 0 -71 -27q-30 -29 -58 -71zM0 1307z" />
    <glyph glyph-name="itilde" unicode="&#x129;" 
d="M502 145v715h-297v144h473v-859h299v-145h-805v145h330zM287 1182l-86 86q44 72 98 109q54 36 123 36q56 0 98 -17q33 -13 71 -37q6 -4 27 -17.5t32 -19.5q28 -17 61 -17q40 0 71 28q30 27 58 70l86 -86q-43 -71 -98 -108q-53 -37 -123 -37q-58 0 -98 17q-40 16 -71 37
q-10 6 -29.5 18.5t-28.5 18.5q-29 17 -62 17q-41 0 -71 -27q-30 -29 -58 -71zM0 1004z" />
    <glyph glyph-name="Imacron" unicode="&#x12a;" 
d="M473 152v1005h-301v150h782v-150h-301v-1005h301v-152h-782v152h301zM846 1616v-133h-565v133h565zM0 1307z" />
    <glyph glyph-name="imacron" unicode="&#x12b;" 
d="M502 145v715h-297v144h473v-859h299v-145h-805v145h330zM825 1358v-133h-524v133h524zM0 1004z" />
    <glyph glyph-name="Ibreve" unicode="&#x12c;" 
d="M473 152v1005h-301v150h782v-150h-301v-1005h301v-152h-782v152h301zM692 1665h137q0 -61 -21 -104q-23 -44 -58 -72q-36 -27 -85 -41q-51 -14 -102 -14t-101 14q-49 14 -85 41q-37 28 -58 72q-22 43 -22 104h137q0 -51 34 -76q34 -26 95 -26t96 26q33 25 33 76zM0 1307z
" />
    <glyph glyph-name="ibreve" unicode="&#x12d;" 
d="M502 145v715h-297v144h473v-859h299v-145h-805v145h330zM675 1413h136q0 -60 -20 -106q-19 -45 -53 -76q-35 -30 -79 -45q-45 -15 -96 -15t-96 15t-78 45q-35 30 -54 76q-20 46 -20 106h136q0 -51 28 -82t84 -31t84 31t28 82zM0 1004z" />
    <glyph glyph-name="Iogonek" unicode="&#x12e;" 
d="M1008 -262v-113q-34 -6 -55 -7q-31 -3 -56 -3q-108 0 -163 46q-56 47 -56 118q0 21 5 46q5 27 17 49q15 28 37 57q21 30 62 69h-627v152h301v1005h-301v150h782v-150h-301v-1005h301v-152h1q-33 -33 -58 -63q-23 -29 -34 -50q-12 -22 -16 -41q-5 -22 -5 -39q0 -33 22 -52
q21 -21 74 -21q21 0 34 1q20 1 36 3z" />
    <glyph glyph-name="iogonek" unicode="&#x12f;" 
d="M1030 -262v-113q-34 -6 -55 -7q-32 -3 -56 -3q-108 0 -163 46q-56 47 -56 118q0 21 5 46q5 27 17 49q15 28 37 57q21 30 62 69h-649v145h330v715h-297v144h473v-859h299v-145q-33 -33 -58 -63q-23 -29 -34 -50q-12 -22 -16 -41q-5 -22 -5 -39q0 -33 22 -52q21 -21 74 -21
q21 0 34 1q20 1 36 3zM563 1425q30 0 54 -10t44 -30q19 -21 29 -43q10 -24 10 -54q0 -29 -10 -53q-9 -23 -29 -44q-18 -18 -44 -29q-27 -11 -54 -11t-54 11q-26 11 -43 29q-18 19 -29 44q-11 27 -11 53q0 27 11 54q11 25 29 43q18 20 43 30q24 10 54 10z" />
    <glyph glyph-name="Idotaccent" unicode="&#x130;" 
d="M473 152v1005h-301v150h782v-150h-301v-1005h301v-152h-782v152h301zM436 1552q0 28 10 49q11 24 27 41q16 16 40 27q21 10 50 10t50 -10q24 -11 41 -27q16 -17 27 -41q9 -22 9 -49q0 -26 -9 -49q-11 -24 -27 -40q-17 -17 -41 -28q-21 -10 -50 -10t-50 10q-25 12 -40 28
q-16 16 -27 40q-10 21 -10 49zM0 1307z" />
    <glyph glyph-name="dotlessi" unicode="&#x131;" 
d="M502 145v715h-297v144h473v-859h299v-145h-805v145h330z" />
    <glyph glyph-name="IJ" unicode="&#x132;" 
d="M475 16v160q11 -5 38 -14q25 -9 44 -14q21 -6 46 -9q20 -4 42 -4q92 0 143 54q50 55 50 180v938h178v-953q0 -83 -22 -149q-22 -67 -68 -116t-112 -74q-68 -27 -159 -27q-102 0 -180 28zM289 1307v-1307h-178v1307h178z" />
    <glyph glyph-name="ij" unicode="&#x133;" 
d="M342 -381v154q22 -11 51 -18q38 -10 59 -13q30 -6 61 -9q30 -3 56 -3q106 0 165 71t59 211v992h174v-986q0 -106 -28 -186q-29 -84 -80 -138q-53 -56 -127 -85q-76 -29 -169 -29q-68 0 -125 12q-58 12 -96 27zM160 1004h174v-1004h-174v1004zM106 1282q0 28 11 55t29 45
q20 20 45 30q27 11 55 11q30 0 57 -11q24 -10 44 -30q19 -20 30 -45q10 -24 10 -55t-10 -55q-11 -25 -30 -45q-20 -20 -44 -30q-27 -11 -57 -11q-28 0 -55 11q-25 10 -45 30q-18 18 -29 45t-11 55zM739 1282q0 28 11 55t29 45q19 20 45 30q27 11 55 11q30 0 57 -11
q24 -10 44 -30t30 -45q10 -24 10 -55t-10 -55q-10 -25 -30 -45t-44 -30q-27 -11 -57 -11q-28 0 -55 11q-26 10 -45 30q-18 18 -29 45t-11 55z" />
    <glyph glyph-name="Jcircumflex" unicode="&#x134;" 
d="M199 1307h678v-908q0 -85 -25 -159q-26 -77 -76 -132q-51 -56 -128 -89q-76 -33 -181 -33q-39 0 -79 6q-40 4 -78 15q-36 9 -71 23q-37 15 -57 29v179q63 -46 138 -71q76 -26 149 -26q110 0 168 67q59 67 59 191v754h-497v154zM647 1659l232 -213h-183l-135 102
l-135 -102h-178l231 213h168zM0 1307z" />
    <glyph glyph-name="jcircumflex" unicode="&#x135;" 
d="M172 1004h668v-986q0 -105 -30 -186q-30 -82 -86 -138q-57 -57 -137 -85q-84 -29 -184 -29q-71 0 -144 14q-74 14 -128 37v166q26 -14 67 -29q30 -12 73 -22q33 -8 75 -13t74 -5q114 0 179 72q65 73 65 212v848h-492v144zM492 1413h143l244 -242h-177l-141 121l-141 -121
h-172zM0 1004z" />
    <glyph glyph-name="uni0136" unicode="&#x136;" 
d="M508 686l539 -686h-224l-489 641v-641h-178v1307h178v-607l479 607h211zM498 -115h170l-88 -295h-148z" />
    <glyph glyph-name="uni0137" unicode="&#x137;" 
d="M566 541l497 -541h-239l-468 538v-538h-174v1413h174v-868l451 459h230zM498 -115h170l-88 -295h-148z" />
    <glyph glyph-name="kgreenlandic" unicode="&#x138;" 
d="M566 541l497 -541h-239l-468 538v-538h-174v1004h174v-459l451 459h230z" />
    <glyph glyph-name="Lacute" unicode="&#x139;" 
d="M985 152v-152h-752v1307h181v-1155h571zM670 1659h252l-285 -213h-178zM0 1307z" />
    <glyph glyph-name="lacute" unicode="&#x13a;" 
d="M502 145v1125h-297v143h473v-1268h299v-145h-805v145h330zM711 1720h252l-285 -213h-178zM41 1368z" />
    <glyph glyph-name="uni013B" unicode="&#x13b;" 
d="M985 152v-152h-752v1307h181v-1155h571zM498 -115h170l-88 -295h-148z" />
    <glyph glyph-name="uni013C" unicode="&#x13c;" 
d="M502 145v1125h-297v143h473v-1268h299v-145h-805v145h330zM498 -115h170l-88 -295h-148z" />
    <glyph glyph-name="Lcaron" unicode="&#x13d;" 
d="M985 152v-152h-752v1307h181v-1155h571zM821 1466h170l-109 -295h-145zM-244 1004z" />
    <glyph glyph-name="lcaron" unicode="&#x13e;" 
d="M502 145v1125h-297v143h473v-1268h299v-145h-805v145h330zM924 1466h170l-109 -295h-145zM-141 1004z" />
    <glyph glyph-name="Ldot" unicode="&#x13f;" 
d="M946 152v-152h-752v1307h181v-1155h571zM952 774q35 0 65 -13q31 -14 53 -36q21 -21 35 -54q13 -30 13 -65t-13 -64q-14 -31 -35 -52q-22 -22 -53 -36q-33 -14 -65 -14q-34 0 -65 14q-29 13 -52 36t-36 52t-13 64t13 65q13 31 36 54t52 36t65 13z" />
    <glyph glyph-name="ldot" unicode="&#x140;" 
d="M442 145v1125h-297v143h473v-1268h299v-145h-805v145h330zM1102 774q35 0 65 -13q31 -14 53 -36q21 -21 35 -54q13 -30 13 -65t-13 -64q-14 -31 -35 -52q-22 -22 -53 -36q-33 -14 -65 -14q-34 0 -65 14q-29 13 -52 36t-36 52t-13 64t13 65q13 31 36 54t52 36t65 13z" />
    <glyph glyph-name="Lslash" unicode="&#x141;" 
d="M434 692v-540h551v-152h-731v602l-209 -106v157l209 107v547h180v-457l361 182v-158z" />
    <glyph glyph-name="lslash" unicode="&#x142;" 
d="M502 141v521l-287 -146v158l287 145v453h-297v141h473v-506l287 146v-158l-287 -145v-609h299v-141h-805v141h330z" />
    <glyph glyph-name="Nacute" unicode="&#x143;" 
d="M1008 1307v-1307h-232l-381 815l-110 262v-659v-418h-166v1307h229l363 -772l131 -299v700v371h166zM670 1659h252l-285 -213h-178zM0 1307z" />
    <glyph glyph-name="nacute" unicode="&#x144;" 
d="M160 0v1004h155l7 -162q41 50 85 87q39 33 81 55q39 21 80 30q43 8 85 8q156 0 235 -91t79 -276v-655h-174v641q0 117 -44 175q-44 56 -131 56q-32 0 -62 -9q-31 -10 -64 -33q-36 -26 -71 -64q-41 -43 -87 -100v-666h-174zM700 1413h252l-319 -242h-174zM0 1004z" />
    <glyph glyph-name="uni0145" unicode="&#x145;" 
d="M1008 1307v-1307h-232l-381 815l-110 262v-659v-418h-166v1307h229l363 -772l131 -299v700v371h166zM498 -115h170l-88 -295h-148z" />
    <glyph glyph-name="uni0146" unicode="&#x146;" 
d="M160 0v1004h155l7 -162q41 50 85 87q39 33 81 55q39 21 80 30q43 8 85 8q156 0 235 -91t79 -276v-655h-174v641q0 117 -44 175q-44 56 -131 56q-32 0 -62 -9q-31 -10 -64 -33q-36 -26 -71 -64q-41 -43 -87 -100v-666h-174zM498 -115h170l-88 -295h-148z" />
    <glyph glyph-name="Ncaron" unicode="&#x147;" 
d="M1008 1307v-1307h-232l-381 815l-110 262v-659v-418h-166v1307h229l363 -772l131 -299v700v371h166zM479 1446l-231 213h182l135 -103l135 103h179l-232 -213h-168zM0 1307z" />
    <glyph glyph-name="ncaron" unicode="&#x148;" 
d="M160 0v1004h155l7 -162q41 50 85 87q39 33 81 55q39 21 80 30q43 8 85 8q156 0 235 -91t79 -276v-655h-174v641q0 117 -44 175q-44 56 -131 56q-32 0 -62 -9q-31 -10 -64 -33q-36 -26 -71 -64q-41 -43 -87 -100v-666h-174zM635 1171h-143l-244 242h176l141 -121l142 121
h172zM0 1004z" />
    <glyph glyph-name="napostrophe" unicode="&#x149;" 
d="M180 0v1004h155l7 -162q41 50 85 87q39 33 81 55q39 21 80 30q43 8 85 8q156 0 235 -91t79 -276v-655h-174v641q0 117 -44 175q-44 56 -131 56q-32 0 -62 -9q-31 -10 -64 -33q-36 -26 -71 -64q-41 -43 -87 -100v-666h-174zM0 1061v115q29 0 59 8q28 8 48 22t32 35
q11 20 11 47q0 31 -11 51q-8 13 -26 35t-25 35q-12 19 -12 51q0 17 7 34q7 18 19 32q12 13 32 24q19 9 46 9q29 0 53 -10q23 -10 43 -33q20 -22 30 -57q11 -36 11 -81q0 -75 -25 -132q-25 -58 -68 -98q-44 -41 -101 -63q-59 -23 -123 -24zM0 1004z" />
    <glyph glyph-name="Eng" unicode="&#x14a;" 
d="M834 12l-426 809l-123 256v-1077h-166v1307h219l397 -752l107 -217v969h166v-1289q0 -106 -28 -186q-29 -84 -80 -138q-53 -56 -127 -85q-76 -29 -169 -29l2 150q109 0 169 71q59 71 59 211z" />
    <glyph glyph-name="eng" unicode="&#x14b;" 
d="M563 -420l2 150q109 0 169 71q59 71 59 211v629q0 117 -44 175q-44 56 -131 56q-32 0 -62 -9q-31 -10 -64 -33q-36 -26 -71 -64q-41 -43 -87 -100v-666h-174v1004h155l7 -162q41 50 85 87q39 33 81 55q39 21 80 30q43 8 85 8q156 0 235 -91t79 -276v-637q0 -106 -28 -186
q-29 -84 -80 -138q-53 -56 -127 -85q-76 -29 -169 -29z" />
    <glyph glyph-name="Omacron" unicode="&#x14c;" 
d="M1071 662q0 -175 -41 -304q-43 -130 -112 -211q-70 -83 -165 -124q-96 -41 -200 -41q-127 0 -219 46q-92 44 -155 131q-62 87 -92 210t-30 278q0 173 41 302q40 126 112 212q72 85 164 124q93 40 199 40q127 0 220 -46q95 -47 155 -131q61 -85 93 -209q30 -123 30 -277z
M886 649q0 112 -17 211q-18 95 -57 164q-40 70 -100 107q-62 38 -149 38q-85 0 -144 -40q-60 -40 -100 -110q-38 -69 -58 -163q-19 -92 -19 -199q0 -117 18 -211q18 -97 57 -164q38 -70 99 -107q62 -38 147 -38q83 0 145 41q61 40 101 110q38 68 58 162q19 91 19 199z
M846 1616v-133h-565v133h565zM0 1307z" />
    <glyph glyph-name="omacron" unicode="&#x14d;" 
d="M1034 510q0 -117 -33 -214t-95 -167q-61 -70 -151 -108q-88 -39 -202 -39q-109 0 -193 34q-86 33 -145 98q-59 63 -91 161t-32 221q0 116 33 214q32 94 95 166q61 68 151 108q90 38 202 38q109 0 194 -33q86 -35 145 -98q60 -66 91 -161q31 -94 31 -220zM856 502
q0 91 -20 163q-21 69 -59 116q-37 45 -92 70q-57 23 -122 23q-77 0 -133 -30q-58 -33 -91 -82q-35 -50 -52 -118q-17 -70 -17 -142q0 -92 21 -163q19 -67 58 -116q38 -48 92 -70q54 -24 122 -24q79 0 134 31q55 30 91 81q36 53 52 119q16 65 16 142zM825 1358v-133h-524v133
h524zM0 1004z" />
    <glyph glyph-name="Obreve" unicode="&#x14e;" 
d="M1071 662q0 -175 -41 -304q-43 -130 -112 -211q-70 -83 -165 -124q-96 -41 -200 -41q-127 0 -219 46q-92 44 -155 131q-62 87 -92 210t-30 278q0 173 41 302q40 126 112 212q72 85 164 124q93 40 199 40q127 0 220 -46q95 -47 155 -131q61 -85 93 -209q30 -123 30 -277z
M886 649q0 112 -17 211q-18 95 -57 164q-40 70 -100 107q-62 38 -149 38q-85 0 -144 -40q-60 -40 -100 -110q-38 -69 -58 -163q-19 -92 -19 -199q0 -117 18 -211q18 -97 57 -164q38 -70 99 -107q62 -38 147 -38q83 0 145 41q61 40 101 110q38 68 58 162q19 91 19 199z
M692 1665h137q0 -61 -21 -104q-23 -44 -58 -72q-36 -27 -85 -41q-51 -14 -102 -14t-101 14q-49 14 -85 41q-37 28 -58 72q-22 43 -22 104h137q0 -51 34 -76q34 -26 95 -26t96 26q33 25 33 76zM0 1307z" />
    <glyph glyph-name="obreve" unicode="&#x14f;" 
d="M1034 510q0 -117 -33 -214t-95 -167q-61 -70 -151 -108q-88 -39 -202 -39q-109 0 -193 34q-86 33 -145 98q-59 63 -91 161t-32 221q0 116 33 214q32 94 95 166q61 68 151 108q90 38 202 38q109 0 194 -33q86 -35 145 -98q60 -66 91 -161q31 -94 31 -220zM856 502
q0 91 -20 163q-21 69 -59 116q-37 45 -92 70q-57 23 -122 23q-77 0 -133 -30q-58 -33 -91 -82q-35 -50 -52 -118q-17 -70 -17 -142q0 -92 21 -163q19 -67 58 -116q38 -48 92 -70q54 -24 122 -24q79 0 134 31q55 30 91 81q36 53 52 119q16 65 16 142zM675 1413h136
q0 -60 -20 -106q-19 -45 -53 -76q-35 -30 -79 -45q-45 -15 -96 -15t-96 15t-78 45q-35 30 -54 76q-20 46 -20 106h136q0 -51 28 -82t84 -31t84 31t28 82zM0 1004z" />
    <glyph glyph-name="Ohungarumlaut" unicode="&#x150;" 
d="M1071 662q0 -175 -41 -304q-43 -130 -112 -211q-70 -83 -165 -124q-96 -41 -200 -41q-127 0 -219 46q-92 44 -155 131q-62 87 -92 210t-30 278q0 173 41 302q40 126 112 212q72 85 164 124q93 40 199 40q127 0 220 -46q95 -47 155 -131q61 -85 93 -209q30 -123 30 -277z
M886 649q0 112 -17 211q-18 95 -57 164q-40 70 -100 107q-62 38 -149 38q-85 0 -144 -40q-60 -40 -100 -110q-38 -69 -58 -163q-19 -92 -19 -199q0 -117 18 -211q18 -97 57 -164q38 -70 99 -107q62 -38 147 -38q83 0 145 41q61 40 101 110q38 68 58 162q19 91 19 199z
M463 1659h213l-223 -213h-181zM895 1659h231l-260 -213h-182zM0 1307z" />
    <glyph glyph-name="ohungarumlaut" unicode="&#x151;" 
d="M1034 510q0 -117 -33 -214t-95 -167q-61 -70 -151 -108q-88 -39 -202 -39q-109 0 -193 34q-86 33 -145 98q-59 63 -91 161t-32 221q0 116 33 214q32 94 95 166q61 68 151 108q90 38 202 38q109 0 194 -33q86 -35 145 -98q60 -66 91 -161q31 -94 31 -220zM856 502
q0 91 -20 163q-21 69 -59 116q-37 45 -92 70q-57 23 -122 23q-77 0 -133 -30q-58 -33 -91 -82q-35 -50 -52 -118q-17 -70 -17 -142q0 -92 21 -163q19 -67 58 -116q38 -48 92 -70q54 -24 122 -24q79 0 134 31q55 30 91 81q36 53 52 119q16 65 16 142zM438 1413h211l-243 -242
h-175zM870 1413h232l-279 -242h-174zM0 1004z" />
    <glyph glyph-name="OE" unicode="&#x152;" 
d="M1094 147v-147h-365q-78 0 -127 -7t-96 -7q-121 0 -211 44q-90 43 -148 127q-59 84 -87 207q-29 125 -29 283q0 173 39 301q37 125 103 210q64 82 152 123q86 40 185 40q13 0 55 -2q19 -1 62 -5q41 -4 57 -5q34 -2 41 -2h369v-146h-330v-411h309v-146h-309v-457h330z
M592 143v1022q-13 3 -35 6q-23 3 -47 3q-81 0 -137 -40q-57 -40 -93 -111q-37 -70 -54 -166q-17 -97 -17 -204q0 -253 78 -386q77 -134 229 -134q20 0 38 3q12 1 38 7z" />
    <glyph glyph-name="oe" unicode="&#x153;" 
d="M571 158q-34 -84 -92 -130t-135 -46t-135 29q-57 29 -95 92t-56 159q-19 95 -19 232q0 120 20 220q19 97 60 166q39 68 99 105q59 37 140 37q78 0 132 -42q54 -43 94 -132q19 42 39 74q22 34 48 55t62 34q36 11 78 11q66 0 118 -31t88 -91q35 -60 54 -147q19 -85 19 -198
v-60l-3 -36h-423q0 -162 46 -244q46 -84 140 -84q57 0 111 12q52 12 94 29v-145q-47 -20 -102 -32q-56 -13 -119 -13q-90 0 -161 44t-102 132zM489 500q0 103 -9 175q-11 73 -28 116q-18 44 -44 66q-26 20 -58 20q-35 0 -62 -21q-28 -22 -47 -68q-19 -45 -28 -117
q-10 -67 -10 -171q0 -102 9 -172q7 -70 26 -115q18 -46 46 -65q28 -21 66 -21q139 0 139 373zM664 588h264q1 78 -9 133q-11 55 -27 90q-15 32 -40 50q-23 16 -51 16q-69 0 -102 -76q-34 -78 -35 -213z" />
    <glyph glyph-name="Racute" unicode="&#x154;" 
d="M844 430l207 -430h-201l-195 418q-23 49 -45 80q-20 28 -49 50q-28 19 -58 26q-34 8 -71 8h-84v-582h-178v1307h350q115 0 196 -25q83 -26 135 -70q51 -44 77 -108q24 -64 24 -141q0 -61 -18 -115t-53 -99q-37 -47 -88 -77q-51 -32 -121 -49q55 -19 94 -66
q38 -49 78 -127zM766 948q0 104 -65 157q-65 52 -185 52h-168v-432h144q63 0 114 15q48 13 86 43q36 30 55 70q19 39 19 95zM631 1659h252l-285 -213h-178zM-39 1307z" />
    <glyph glyph-name="racute" unicode="&#x155;" 
d="M201 0v1004h159l5 -185q89 107 176 155q85 48 174 48q156 0 237 -101q80 -101 74 -300h-176q3 131 -38 192q-42 59 -122 59q-36 0 -70 -12q-36 -14 -73 -40q-43 -33 -80 -71q-46 -48 -90 -104v-645h-176zM700 1413h252l-319 -242h-174zM0 1004z" />
    <glyph glyph-name="uni0156" unicode="&#x156;" 
d="M844 430l207 -430h-201l-195 418q-23 49 -45 80q-20 28 -49 50q-28 19 -58 26q-34 8 -71 8h-84v-582h-178v1307h350q115 0 196 -25q83 -26 135 -70q51 -44 77 -108q24 -64 24 -141q0 -61 -18 -115t-53 -99q-37 -47 -88 -77q-51 -32 -121 -49q55 -19 94 -66
q38 -49 78 -127zM766 948q0 104 -65 157q-65 52 -185 52h-168v-432h144q63 0 114 15q48 13 86 43q36 30 55 70q19 39 19 95zM498 -115h170l-88 -295h-148z" />
    <glyph glyph-name="uni0157" unicode="&#x157;" 
d="M201 0v1004h159l5 -185q89 107 176 155q85 48 174 48q156 0 237 -101q80 -101 74 -300h-176q3 131 -38 192q-42 59 -122 59q-36 0 -70 -12q-36 -14 -73 -40q-43 -33 -80 -71q-46 -48 -90 -104v-645h-176zM498 -115h170l-88 -295h-148z" />
    <glyph glyph-name="Rcaron" unicode="&#x158;" 
d="M844 430l207 -430h-201l-195 418q-23 49 -45 80q-20 28 -49 50q-28 19 -58 26q-34 8 -71 8h-84v-582h-178v1307h350q115 0 196 -25q83 -26 135 -70q51 -44 77 -108q24 -64 24 -141q0 -61 -18 -115t-53 -99q-37 -47 -88 -77q-51 -32 -121 -49q55 -19 94 -66
q38 -49 78 -127zM766 948q0 104 -65 157q-65 52 -185 52h-168v-432h144q63 0 114 15q48 13 86 43q36 30 55 70q19 39 19 95zM440 1446l-231 213h182l135 -103l135 103h179l-232 -213h-168zM-39 1307z" />
    <glyph glyph-name="rcaron" unicode="&#x159;" 
d="M201 0v1004h159l5 -185q89 107 176 155q85 48 174 48q156 0 237 -101q80 -101 74 -300h-176q3 131 -38 192q-42 59 -122 59q-36 0 -70 -12q-36 -14 -73 -40q-43 -33 -80 -71q-46 -48 -90 -104v-645h-176zM635 1171h-143l-244 242h176l141 -121l142 121h172zM0 1004z" />
    <glyph glyph-name="Sacute" unicode="&#x15a;" 
d="M997 354q0 -92 -38 -163q-36 -68 -106 -116q-69 -48 -163 -70q-98 -23 -211 -23q-58 0 -103 4q-64 5 -99 10q-39 5 -90 14q-34 6 -76 17v172q71 -27 169 -44q90 -16 212 -16q83 0 147 14q61 14 99 40t56 64q17 39 17 87q0 53 -29 91q-29 37 -78 67q-49 29 -109 54
q-23 9 -67.5 26.5t-58.5 23.5q-60 24 -125 57q-63 31 -110 72q-48 40 -77 97q-30 56 -30 133q0 69 28 132q29 65 87 116q58 49 152 81q90 31 220 31q33 0 72 -3q21 -2 78 -8q52 -8 78 -13q42 -8 71 -15v-160q-72 21 -154 34q-80 11 -149 11q-153 0 -225 -51t-72 -137
q0 -53 30 -91q29 -38 77 -68q47 -29 110 -54q82 -34 125 -51q65 -25 126 -57q62 -32 109 -73q49 -44 78 -100q29 -58 29 -135zM670 1659h252l-285 -213h-178zM0 1307z" />
    <glyph glyph-name="sacute" unicode="&#x15b;" 
d="M955 274q0 -53 -18 -95q-19 -44 -49 -74q-33 -34 -72 -56q-43 -24 -87 -38t-96 -22q-46 -7 -96 -7q-101 0 -187 9q-82 9 -168 29v160q82 -24 175 -38q84 -13 173 -13q126 0 185 34q60 35 60 97q0 26 -9 49q-12 23 -35 41q-25 19 -77 40t-144 48q-63 18 -125 46
q-57 25 -100 60q-41 34 -66 82q-24 46 -24 111q0 41 20 92q19 49 66 93q46 43 127 72q78 28 200 28q59 0 131 -6q81 -8 150 -23v-155q-84 20 -155 30q-73 9 -128 9q-68 0 -109 -10q-45 -11 -72 -27q-27 -17 -40 -41q-12 -24 -12 -51q0 -25 11 -49q10 -23 39 -42
q30 -22 79 -41q52 -21 133 -45q89 -25 150 -54q59 -27 99 -64q38 -35 55 -79q16 -42 16 -100zM700 1413h252l-319 -242h-174zM0 1004z" />
    <glyph glyph-name="Scircumflex" unicode="&#x15c;" 
d="M997 354q0 -92 -38 -163q-36 -68 -106 -116q-69 -48 -163 -70q-98 -23 -211 -23q-58 0 -103 4q-64 5 -99 10q-39 5 -90 14q-34 6 -76 17v172q71 -27 169 -44q90 -16 212 -16q83 0 147 14q61 14 99 40t56 64q17 39 17 87q0 53 -29 91q-29 37 -78 67q-49 29 -109 54
q-23 9 -67.5 26.5t-58.5 23.5q-60 24 -125 57q-63 31 -110 72q-48 40 -77 97q-30 56 -30 133q0 69 28 132q29 65 87 116q58 49 152 81q90 31 220 31q33 0 72 -3q21 -2 78 -8q52 -8 78 -13q42 -8 71 -15v-160q-72 21 -154 34q-80 11 -149 11q-153 0 -225 -51t-72 -137
q0 -53 30 -91q29 -38 77 -68q47 -29 110 -54q82 -34 125 -51q65 -25 126 -57q62 -32 109 -73q49 -44 78 -100q29 -58 29 -135zM647 1659l232 -213h-183l-135 102l-135 -102h-178l231 213h168zM0 1307z" />
    <glyph glyph-name="scircumflex" unicode="&#x15d;" 
d="M955 274q0 -53 -18 -95q-19 -44 -49 -74q-33 -34 -72 -56q-43 -24 -87 -38t-96 -22q-46 -7 -96 -7q-101 0 -187 9q-82 9 -168 29v160q82 -24 175 -38q84 -13 173 -13q126 0 185 34q60 35 60 97q0 26 -9 49q-12 23 -35 41q-25 19 -77 40t-144 48q-63 18 -125 46
q-57 25 -100 60q-41 34 -66 82q-24 46 -24 111q0 41 20 92q19 49 66 93q46 43 127 72q78 28 200 28q59 0 131 -6q81 -8 150 -23v-155q-84 20 -155 30q-73 9 -128 9q-68 0 -109 -10q-45 -11 -72 -27q-27 -17 -40 -41q-12 -24 -12 -51q0 -25 11 -49q10 -23 39 -42
q30 -22 79 -41q52 -21 133 -45q89 -25 150 -54q59 -27 99 -64q38 -35 55 -79q16 -42 16 -100zM492 1413h143l244 -242h-177l-141 121l-141 -121h-172zM0 1004z" />
    <glyph glyph-name="Scedilla" unicode="&#x15e;" 
d="M631 -6l-84 -289h-152l62 277q-57 2 -87 5q-46 3 -93 9q-39 5 -90 14q-34 6 -76 17v172q71 -27 169 -44q90 -16 212 -16q83 0 147 14q61 14 99 40t56 64q17 39 17 87q0 53 -29 91q-29 37 -78 67q-49 29 -109 54q-23 9 -67.5 26.5t-58.5 23.5q-60 24 -125 57
q-63 31 -110 72q-48 40 -77 97q-30 56 -30 133q0 69 28 132q29 65 87 116q58 49 152 81q90 31 220 31q33 0 72 -3q21 -2 78 -8q52 -8 78 -13q42 -8 71 -15v-160q-72 21 -154 34q-80 11 -149 11q-153 0 -225 -51t-72 -137q0 -53 30 -91q29 -38 77 -68q47 -29 110 -54
q82 -34 125 -51q65 -25 126 -57q62 -32 109 -73q49 -44 78 -100q29 -58 29 -135q0 -92 -38 -163q-36 -68 -115 -122q-78 -53 -213 -75z" />
    <glyph glyph-name="scedilla" unicode="&#x15f;" 
d="M955 274q0 -64 -25 -111q-24 -46 -67 -82q-43 -35 -96 -56q-50 -21 -112 -32l-84 -288h-151l61 278q-79 1 -156 11q-67 8 -143 26v160q82 -24 175 -38q84 -13 173 -13q126 0 185 34q60 35 60 97q0 26 -9 49q-12 23 -35 41q-25 19 -77 40t-144 48q-63 18 -125 46
q-57 25 -100 60q-41 34 -66 82q-24 46 -24 111q0 41 20 92q19 49 66 93q46 43 127 72q78 28 200 28q59 0 131 -6q81 -8 150 -23v-155q-84 20 -155 30q-73 9 -128 9q-68 0 -109 -10q-45 -11 -72 -27q-27 -17 -40 -41q-12 -24 -12 -51q0 -25 11 -49q10 -23 39 -42
q30 -22 79 -41q52 -21 133 -45q89 -25 150 -54q59 -27 99 -64q38 -35 55 -79q16 -42 16 -100z" />
    <glyph glyph-name="Scaron" unicode="&#x160;" 
d="M997 354q0 -92 -38 -163q-36 -68 -106 -116q-69 -48 -163 -70q-98 -23 -211 -23q-58 0 -103 4q-64 5 -99 10q-39 5 -90 14q-34 6 -76 17v172q71 -27 169 -44q90 -16 212 -16q83 0 147 14q61 14 99 40t56 64q17 39 17 87q0 53 -29 91q-29 37 -78 67q-49 29 -109 54
q-23 9 -67.5 26.5t-58.5 23.5q-60 24 -125 57q-63 31 -110 72q-48 40 -77 97q-30 56 -30 133q0 69 28 132q29 65 87 116q58 49 152 81q90 31 220 31q33 0 72 -3q21 -2 78 -8q52 -8 78 -13q42 -8 71 -15v-160q-72 21 -154 34q-80 11 -149 11q-153 0 -225 -51t-72 -137
q0 -53 30 -91q29 -38 77 -68q47 -29 110 -54q82 -34 125 -51q65 -25 126 -57q62 -32 109 -73q49 -44 78 -100q29 -58 29 -135zM479 1446l-231 213h182l135 -103l135 103h179l-232 -213h-168zM0 1307z" />
    <glyph glyph-name="scaron" unicode="&#x161;" 
d="M955 274q0 -53 -18 -95q-19 -44 -49 -74q-33 -34 -72 -56q-43 -24 -87 -38t-96 -22q-46 -7 -96 -7q-101 0 -187 9q-82 9 -168 29v160q82 -24 175 -38q84 -13 173 -13q126 0 185 34q60 35 60 97q0 26 -9 49q-12 23 -35 41q-25 19 -77 40t-144 48q-63 18 -125 46
q-57 25 -100 60q-41 34 -66 82q-24 46 -24 111q0 41 20 92q19 49 66 93q46 43 127 72q78 28 200 28q59 0 131 -6q81 -8 150 -23v-155q-84 20 -155 30q-73 9 -128 9q-68 0 -109 -10q-45 -11 -72 -27q-27 -17 -40 -41q-12 -24 -12 -51q0 -25 11 -49q10 -23 39 -42
q30 -22 79 -41q52 -21 133 -45q89 -25 150 -54q59 -27 99 -64q38 -35 55 -79q16 -42 16 -100zM635 1171h-143l-244 242h176l141 -121l142 121h172zM0 1004z" />
    <glyph glyph-name="uni0162" unicode="&#x162;" 
d="M1040 1307v-152h-387v-1155h-180v1155h-387v152h954zM498 -115h170l-88 -295h-148z" />
    <glyph glyph-name="uni0163" unicode="&#x163;" 
d="M969 164v-150q-58 -15 -122 -21q-59 -7 -128 -7q-188 0 -282 86q-93 85 -93 262v524h-281v146h281v276l174 45v-321h451v-146h-451v-510q0 -109 58 -161q57 -54 169 -54q44 0 105 8q65 9 119 23zM498 -115h170l-88 -295h-148z" />
    <glyph glyph-name="Tcaron" unicode="&#x164;" 
d="M1040 1307v-152h-387v-1155h-180v1155h-387v152h954zM479 1446l-231 213h182l135 -103l135 103h179l-232 -213h-168zM0 1307z" />
    <glyph glyph-name="tcaron" unicode="&#x165;" 
d="M969 164v-150q-58 -15 -122 -21q-59 -7 -128 -7q-188 0 -282 86q-93 85 -93 262v524h-281v146h281v276l174 45v-321h451v-146h-451v-510q0 -109 58 -161q57 -54 169 -54q44 0 105 8q65 9 119 23zM883 1466h170l-109 -295h-145zM-182 1004z" />
    <glyph glyph-name="Tbar" unicode="&#x166;" 
d="M920 582h-267v-582h-180v582h-266v149h266v424h-387v152h954v-152h-387v-424h267v-149z" />
    <glyph glyph-name="tbar" unicode="&#x167;" 
d="M969 164v-150q-58 -15 -122 -21q-59 -7 -128 -7q-188 0 -282 86q-93 85 -93 262v115h-240v145h240v264h-281v146h281v276l174 45v-321h451v-146h-451v-264h389v-145h-389v-101q0 -109 58 -161q57 -54 169 -54q44 0 105 8q65 9 119 23z" />
    <glyph glyph-name="Utilde" unicode="&#x168;" 
d="M1018 1307v-852q0 -108 -30 -195q-31 -87 -90 -149t-144 -95q-84 -34 -197 -34q-120 0 -207 32q-84 31 -138 91q-54 59 -78 140q-25 81 -25 183v879h178v-865q0 -76 15 -135q13 -57 47 -97q33 -39 86 -59q54 -20 128 -20q143 0 210 82t67 231v863h178zM287 1444l-86 82
q44 72 98 109q54 36 123 36q56 0 98 -17q33 -13 71 -37q6 -4 27 -17.5t32 -19.5q28 -17 61 -17q40 0 71 28q30 27 58 70l86 -82q-43 -71 -98 -108q-53 -37 -123 -37q-58 0 -98 17q-33 13 -71 37q-10 6 -29.5 18.5t-28.5 18.5q-29 17 -62 17q-41 0 -71 -27q-30 -29 -58 -71z
M0 1307z" />
    <glyph glyph-name="utilde" unicode="&#x169;" 
d="M967 1004v-1004h-156l-6 162q-43 -50 -85 -86t-81 -56q-43 -22 -80 -29q-40 -9 -86 -9q-155 0 -234 91t-79 275v656h174v-642q0 -231 174 -231q33 0 63 10q29 9 64 33q33 22 72 63q46 49 86 101v666h174zM287 1182l-86 86q44 72 98 109q54 36 123 36q56 0 98 -17
q33 -13 71 -37q6 -4 27 -17.5t32 -19.5q28 -17 61 -17q40 0 71 28q30 27 58 70l86 -86q-43 -71 -98 -108q-53 -37 -123 -37q-58 0 -98 17q-40 16 -71 37q-10 6 -29.5 18.5t-28.5 18.5q-29 17 -62 17q-41 0 -71 -27q-30 -29 -58 -71zM0 1004z" />
    <glyph glyph-name="Umacron" unicode="&#x16a;" 
d="M1018 1307v-852q0 -108 -30 -195q-31 -87 -90 -149t-144 -95q-84 -34 -197 -34q-120 0 -207 32q-84 31 -138 91q-54 59 -78 140q-25 81 -25 183v879h178v-865q0 -76 15 -135q13 -57 47 -97q33 -39 86 -59q54 -20 128 -20q143 0 210 82t67 231v863h178zM846 1616v-133
h-565v133h565zM0 1307z" />
    <glyph glyph-name="umacron" unicode="&#x16b;" 
d="M967 1004v-1004h-156l-6 162q-43 -50 -85 -86t-81 -56q-43 -22 -80 -29q-40 -9 -86 -9q-155 0 -234 91t-79 275v656h174v-642q0 -231 174 -231q33 0 63 10q29 9 64 33q33 22 72 63q46 49 86 101v666h174zM825 1358v-133h-524v133h524zM0 1004z" />
    <glyph glyph-name="Ubreve" unicode="&#x16c;" 
d="M1018 1307v-852q0 -108 -30 -195q-31 -87 -90 -149t-144 -95q-84 -34 -197 -34q-120 0 -207 32q-84 31 -138 91q-54 59 -78 140q-25 81 -25 183v879h178v-865q0 -76 15 -135q13 -57 47 -97q33 -39 86 -59q54 -20 128 -20q143 0 210 82t67 231v863h178zM692 1665h137
q0 -61 -21 -104q-23 -44 -58 -72q-36 -27 -85 -41q-51 -14 -102 -14t-101 14q-49 14 -85 41q-37 28 -58 72q-22 43 -22 104h137q0 -51 34 -76q34 -26 95 -26t96 26q33 25 33 76zM0 1307z" />
    <glyph glyph-name="ubreve" unicode="&#x16d;" 
d="M967 1004v-1004h-156l-6 162q-43 -50 -85 -86t-81 -56q-43 -22 -80 -29q-40 -9 -86 -9q-155 0 -234 91t-79 275v656h174v-642q0 -231 174 -231q33 0 63 10q29 9 64 33q33 22 72 63q46 49 86 101v666h174zM675 1413h136q0 -60 -20 -106q-19 -45 -53 -76q-35 -30 -79 -45
q-45 -15 -96 -15t-96 15t-78 45q-35 30 -54 76q-20 46 -20 106h136q0 -51 28 -82t84 -31t84 31t28 82zM0 1004z" />
    <glyph glyph-name="Uring" unicode="&#x16e;" 
d="M1018 1307v-852q0 -108 -30 -195q-31 -87 -90 -149t-144 -95q-84 -34 -197 -34q-120 0 -207 32q-84 31 -138 91q-54 59 -78 140q-25 81 -25 183v879h178v-865q0 -76 15 -135q13 -57 47 -97q33 -39 86 -59q54 -20 128 -20q143 0 210 82t67 231v863h178zM563 1740
q44 0 80 -13q37 -13 64 -39q26 -25 42 -61q15 -35 15 -77t-15 -76q-15 -35 -42 -61q-29 -27 -64 -40q-37 -15 -80 -15t-79 15q-35 13 -64 40q-27 26 -42 61q-16 33 -16 76q0 44 16 77q16 36 42 61q27 26 64 39q35 13 79 13zM563 1638q-39 0 -65 -23q-25 -24 -25 -65
q0 -40 25 -65t65 -25q42 0 66 25q24 26 24 65q0 41 -24 65q-25 23 -66 23zM0 1307z" />
    <glyph glyph-name="uring" unicode="&#x16f;" 
d="M967 1004v-1004h-156l-6 162q-43 -50 -85 -86t-81 -56q-43 -22 -80 -29q-40 -9 -86 -9q-155 0 -234 91t-79 275v656h174v-642q0 -231 174 -231q33 0 63 10q29 9 64 33q33 22 72 63q46 49 86 101v666h174zM563 1501q46 0 84 -16q42 -18 68 -44q30 -30 46 -66
q17 -39 17 -81q0 -41 -17 -80q-16 -36 -46 -66q-26 -26 -68 -44q-38 -16 -84 -16t-84 16q-42 18 -68 44q-30 30 -46 66q-17 39 -17 80q0 42 17 81q16 36 46 66q26 26 68 44q38 16 84 16zM563 1395q-20 0 -39 -8q-17 -7 -31 -21q-15 -15 -22 -32q-8 -21 -8 -40q0 -42 29 -71
t71 -29q20 0 39 8q17 7 32 22q14 14 21 31q8 19 8 39q0 19 -8 40q-8 19 -21 32t-32 21t-39 8zM0 1004z" />
    <glyph glyph-name="Uhungarumlaut" unicode="&#x170;" 
d="M1018 1307v-852q0 -108 -30 -195q-31 -87 -90 -149t-144 -95q-84 -34 -197 -34q-120 0 -207 32q-84 31 -138 91q-54 59 -78 140q-25 81 -25 183v879h178v-865q0 -76 15 -135q13 -57 47 -97q33 -39 86 -59q54 -20 128 -20q143 0 210 82t67 231v863h178zM463 1659h213
l-223 -213h-181zM895 1659h231l-260 -213h-182zM0 1307z" />
    <glyph glyph-name="uhungarumlaut" unicode="&#x171;" 
d="M967 1004v-1004h-156l-6 162q-43 -50 -85 -86t-81 -56q-43 -22 -80 -29q-40 -9 -86 -9q-155 0 -234 91t-79 275v656h174v-642q0 -231 174 -231q33 0 63 10q29 9 64 33q33 22 72 63q46 49 86 101v666h174zM438 1413h211l-243 -242h-175zM870 1413h232l-279 -242h-174z
M0 1004z" />
    <glyph glyph-name="Uogonek" unicode="&#x172;" 
d="M758 -262v-113q-34 -6 -55 -7q-31 -3 -56 -3q-108 0 -163 46q-56 47 -56 118q0 24 4 44q5 22 16 46q8 19 31 52q16 23 53 62q-117 3 -195 37q-82 34 -131 91q-52 60 -74 139q-23 81 -23 178v879h178v-865q0 -76 15 -135q13 -57 47 -97q33 -39 86 -59q54 -20 128 -20
q143 0 210 82t67 231v863h178v-852q0 -87 -20 -164q-21 -75 -61 -133t-98 -98q-59 -41 -134 -60q-33 -33 -58 -63q-23 -29 -34 -50q-12 -22 -16 -41q-5 -22 -5 -39q0 -33 22 -52q22 -21 74 -21q21 0 34 1q20 1 36 3z" />
    <glyph glyph-name="uogonek" unicode="&#x173;" 
d="M1020 -262v-113q-34 -6 -55 -7q-31 -3 -56 -3q-108 0 -163 46q-56 47 -56 118q0 21 5 46q5 27 17 49q15 28 37 57q21 30 62 69l-6 162q-43 -50 -85 -86t-81 -56q-43 -22 -80 -29q-40 -9 -86 -9q-155 0 -234 91t-79 275v656h174v-642q0 -231 174 -231q33 0 63 10
q29 9 64 33q33 22 72 63q46 49 86 101v666h174v-1004q-33 -33 -58 -63q-23 -29 -34 -50q-12 -22 -16 -41q-5 -22 -5 -39q0 -33 22 -52q21 -21 74 -21q21 0 34 1q20 1 36 3z" />
    <glyph glyph-name="Wcircumflex" unicode="&#x174;" 
d="M922 1307h159l-88 -1307h-231l-162 465l-45 149l-47 -161l-150 -453h-223l-90 1307h168l51 -889l15 -244l63 207l158 485h123l182 -520l61 -172l4 180zM647 1659l232 -213h-183l-135 102l-135 -102h-178l231 213h168zM0 1307z" />
    <glyph glyph-name="wcircumflex" unicode="&#x175;" 
d="M918 1004h172l-146 -1004h-211l-145 420l-29 102l-33 -108l-139 -414h-205l-145 1004h170l84 -682l18 -152l43 133l146 451h125l157 -445l45 -133l15 141zM492 1413h143l244 -242h-177l-141 121l-141 -121h-172zM0 1004z" />
    <glyph glyph-name="Ycircumflex" unicode="&#x176;" 
d="M922 1307h204l-473 -840v-467h-180v471l-473 836h215l260 -478l96 -192l88 174zM647 1659l232 -213h-183l-135 102l-135 -102h-178l231 213h168zM0 1307z" />
    <glyph glyph-name="ycircumflex" unicode="&#x177;" 
d="M862 1004h191l-342 -898q-51 -132 -109 -236q-58 -100 -124 -162q-67 -64 -147 -94q-79 -30 -179 -30q-33 0 -47 1q-23 2 -46 3v158q29 -4 48 -5q26 -3 55 -3q46 0 90 14q39 13 78 46q35 29 71 81q33 48 66 121l-401 1004h198l254 -664l51 -156l58 160zM492 1413h143
l244 -242h-177l-141 121l-141 -121h-172zM0 1004z" />
    <glyph glyph-name="Ydieresis" unicode="&#x178;" 
d="M922 1307h204l-473 -840v-467h-180v471l-473 836h215l260 -478l96 -192l88 174zM344 1659q21 0 42 -8q17 -8 34 -23q14 -14 23 -34q8 -21 8 -42q0 -20 -8 -41q-9 -20 -23 -34q-17 -16 -34 -22q-20 -9 -42 -9q-45 0 -75 31q-31 30 -31 75q0 22 9 42q8 19 22 34
q14 14 34 23q21 8 41 8zM782 1659q21 0 42 -8q20 -9 34 -23t23 -34q8 -21 8 -42q0 -20 -8 -41q-9 -20 -23 -34q-14 -15 -34 -22q-20 -9 -42 -9q-45 0 -75 31q-31 30 -31 75q0 22 9 42q7 19 22 34q14 14 34 23q21 8 41 8zM0 1307z" />
    <glyph glyph-name="Zacute" unicode="&#x179;" 
d="M1001 1307v-140l-667 -1001h680v-166h-903v133l671 1012h-653v162h872zM670 1659h252l-285 -213h-178zM0 1307z" />
    <glyph glyph-name="zacute" unicode="&#x17a;" 
d="M973 147v-147h-809v125l567 733h-553v146h762v-136l-557 -721h590zM700 1413h252l-319 -242h-174zM0 1004z" />
    <glyph glyph-name="Zdotaccent" unicode="&#x17b;" 
d="M1001 1307v-140l-667 -1001h680v-166h-903v133l671 1012h-653v162h872zM436 1552q0 28 10 49q11 24 27 41q16 16 40 27q21 10 50 10t50 -10q24 -11 41 -27q16 -17 27 -41q9 -22 9 -49q0 -26 -9 -49q-11 -24 -27 -40q-17 -17 -41 -28q-21 -10 -50 -10t-50 10
q-25 12 -40 28q-16 16 -27 40q-10 21 -10 49zM0 1307z" />
    <glyph glyph-name="zdotaccent" unicode="&#x17c;" 
d="M973 147v-147h-809v125l567 733h-553v146h762v-136l-557 -721h590zM563 1421q29 0 53 -10q23 -10 42 -29q17 -17 28 -42q10 -23 10 -52t-10 -52q-11 -25 -28 -42t-42 -28q-27 -11 -53 -11q-28 0 -53 11t-42 28t-28 42q-10 23 -10 52t10 52q11 25 28 42q19 19 42 29t53 10
zM0 1004z" />
    <glyph glyph-name="Zcaron" unicode="&#x17d;" 
d="M1001 1307v-140l-667 -1001h680v-166h-903v133l671 1012h-653v162h872zM479 1446l-231 213h182l135 -103l135 103h179l-232 -213h-168zM0 1307z" />
    <glyph glyph-name="zcaron" unicode="&#x17e;" 
d="M973 147v-147h-809v125l567 733h-553v146h762v-136l-557 -721h590zM635 1171h-143l-244 242h176l141 -121l142 121h172zM0 1004z" />
    <glyph glyph-name="longs" unicode="&#x17f;" 
d="M1030 1401v-146q-33 8 -65 12q-11 2 -34 5t-34 4q-46 4 -67 5q-22 1 -60 1q-151 0 -227 -73t-76 -230v-979h-178v961q0 116 35 206q34 86 96 145q61 58 149 87q84 28 191 28q71 0 138 -7q77 -8 132 -19z" />
    <glyph glyph-name="florin" unicode="&#x192;" 
d="M961 635h-349l-63 -461q-14 -102 -34 -173q-21 -76 -61 -128q-39 -51 -106 -79q-66 -27 -168 -27q-37 0 -68 4q-34 5 -69 12v144q42 -6 65 -7q35 -3 74 -3q82 0 123 53q42 54 55 149l70 516h-291v143h310l36 273q25 186 118 280q92 92 261 92q43 0 83 -4q11 -1 79 -10
v-155q-36 9 -74 14q-47 5 -84 5q-90 0 -137 -51q-48 -54 -61 -155l-39 -289h330v-143z" />
    <glyph glyph-name="Aringacute" unicode="&#x1fa;" 
d="M688 1307l428 -1307h-194l-91 285h-544l-92 -285h-185l434 1307h244zM338 444h442l-221 699zM562 1711q46 0 86 -12q39 -12 69 -35q28 -23 43 -57q15 -33 15 -72t-16 -71q-17 -36 -44 -57q-27 -23 -68 -37q-39 -13 -85 -13q-49 0 -85 13q-40 12 -68 36q-30 22 -45 57
q-16 32 -16 72q0 39 16 71q17 33 46 56q28 22 68 36q36 13 84 13zM562 1616q-44 0 -69 -22q-27 -22 -27 -59t27 -60q26 -23 69 -23q44 0 70 23q25 22 25 60q0 37 -25 59t-70 22zM718 1950h239l-270 -190h-169zM0 1307z" />
    <glyph glyph-name="aringacute" unicode="&#x1fb;" 
d="M961 0h-156l-4 135q-83 -81 -166 -117q-85 -36 -178 -36q-87 0 -147 22q-62 22 -100 61q-40 37 -58 90q-19 51 -19 113q0 151 113 237q112 85 332 85h208v88q0 89 -57 143q-58 53 -174 53q-87 0 -167 -19q-82 -19 -171 -54v157q31 11 74 24q51 13 85 20q46 9 94 15
q55 5 99 5q89 0 164 -20q71 -19 124 -61q50 -41 77 -103q27 -61 27 -146v-692zM786 279v178h-221q-67 0 -112 -13q-48 -14 -77 -37q-31 -25 -44 -57q-15 -34 -15 -76q0 -30 9 -55q9 -27 29 -47q19 -20 52 -33q31 -12 78 -12q61 0 138 37q80 37 163 115zM563 1501
q46 0 84 -16q42 -18 68 -44q30 -30 46 -66q17 -39 17 -81q0 -41 -17 -80q-16 -36 -46 -66q-26 -26 -68 -44q-38 -16 -84 -16t-84 16q-42 18 -68 44q-30 30 -46 66q-17 39 -17 80q0 42 17 81q16 36 46 66q26 26 68 44q38 16 84 16zM563 1395q-20 0 -39 -8q-17 -7 -31 -21
q-15 -15 -22 -32q-8 -21 -8 -40q0 -42 29 -71t71 -29q20 0 39 8q17 7 32 22q14 14 21 31q8 19 8 39q0 19 -8 40q-8 19 -21 32t-32 21t-39 8zM0 1004zM680 1759h252l-285 -213h-178zM10 1407z" />
    <glyph glyph-name="AEacute" unicode="&#x1fc;" 
d="M1085 143v-143h-501v281h-342l-109 -281h-176l532 1307h582v-142h-321v-417h307v-142h-307v-463h335zM297 424h287v743zM731 1659h252l-285 -213h-178zM61 1307z" />
    <glyph glyph-name="aeacute" unicode="&#x1fd;" 
d="M340 1022q90 0 153 -29q61 -30 87 -92q34 55 91 89q56 32 128 32q77 0 133 -32q55 -32 89 -90q33 -56 50 -139q16 -80 16 -181q0 -63 -1 -81q-2 -27 -3 -42h-444q0 -160 47 -246t154 -86q58 0 113 12q54 12 98 29v-139q-22 -10 -53 -18q-30 -9 -63 -15t-67 -9t-65 -3
q-195 0 -268 174q-50 -81 -117 -128q-65 -46 -142 -46q-121 0 -182 73q-63 73 -63 213q0 73 20 135q20 60 60 100q39 39 103 62q63 21 151 21h120v84q0 101 -34 156t-119 55q-59 0 -120 -19q-61 -18 -126 -55v151q26 13 55 24q36 13 63 20q32 9 68 15q38 5 68 5zM485 457
h-125q-87 0 -126 -50t-39 -133q0 -74 26 -112q25 -37 74 -37q43 0 89 34t101 122v176zM793 883q-38 0 -67 -23q-28 -22 -48 -62q-20 -42 -29 -94q-10 -53 -10 -118h285q1 58 -5 117q-8 55 -22 94q-17 42 -41 63q-26 23 -63 23zM700 1413h252l-319 -242h-174zM0 1004z" />
    <glyph glyph-name="Oslashacute" unicode="&#x1fe;" 
d="M752 1522h145l-78 -258q127 -75 189 -228q61 -153 61 -374q0 -175 -41 -304t-111 -211q-70 -83 -165 -124q-96 -41 -199 -41q-31 0 -59 3q-18 1 -56 7l-61 -207h-146l76 256q-127 72 -188 228q-62 156 -62 378q0 173 41 302q40 126 112 212q72 85 164 124q93 40 199 40
q62 0 115 -12zM242 657q0 -148 28 -259q27 -113 90 -179l283 940q-28 6 -38 8q-26 2 -42 2q-85 0 -144 -40q-60 -40 -100 -110q-38 -69 -58 -163q-19 -92 -19 -199zM885 649q0 148 -28 257q-29 112 -91 179l-281 -940q16 -4 37 -6q26 -2 41 -2q83 0 145 41q60 41 100 110
q38 68 58 162q19 91 19 199zM570 1659h252l-285 -213h-178zM-100 1307z" />
    <glyph glyph-name="oslashacute" unicode="&#x1ff;" 
d="M664 1016l67 203h146l-82 -244q113 -54 176 -170q63 -117 63 -295q0 -121 -32 -220q-33 -98 -95 -166q-61 -68 -151 -105q-87 -37 -203 -37q-45 0 -88 6l-68 -203h-145l82 244q-114 55 -178 172q-64 115 -64 295q0 122 33 219q31 96 94 165q61 67 151 105q87 37 203 37
q45 0 91 -6zM743 819l-229 -688q13 -2 28 -3q10 -1 27 -1q77 0 133 30t90 82q36 53 52 119q16 65 16 144q0 112 -30 192q-32 80 -87 125zM385 184l229 688q-3 0 -12 1.5l-15 2.5q-11 1 -30 1q-78 0 -133 -30q-56 -30 -90 -81q-34 -52 -51 -120q-17 -70 -17 -144
q0 -114 30 -193q30 -80 89 -125zM620 1413h252l-319 -242h-174zM-80 1004z" />
    <glyph glyph-name="uni0218" unicode="&#x218;" 
d="M997 354q0 -92 -38 -163q-36 -68 -106 -116q-69 -48 -163 -70q-98 -23 -211 -23q-58 0 -103 4q-64 5 -99 10q-39 5 -90 14q-34 6 -76 17v172q71 -27 169 -44q90 -16 212 -16q83 0 147 14q61 14 99 40t56 64q17 39 17 87q0 53 -29 91q-29 37 -78 67q-49 29 -109 54
q-23 9 -67.5 26.5t-58.5 23.5q-60 24 -125 57q-63 31 -110 72q-48 40 -77 97q-30 56 -30 133q0 69 28 132q29 65 87 116q58 49 152 81q90 31 220 31q33 0 72 -3q21 -2 78 -8q52 -8 78 -13q42 -8 71 -15v-160q-72 21 -154 34q-80 11 -149 11q-153 0 -225 -51t-72 -137
q0 -53 30 -91q29 -38 77 -68q47 -29 110 -54q82 -34 125 -51q65 -25 126 -57q62 -32 109 -73q49 -44 78 -100q29 -58 29 -135zM498 -115h170l-88 -295h-148z" />
    <glyph glyph-name="uni0219" unicode="&#x219;" 
d="M955 274q0 -53 -18 -95q-19 -44 -49 -74q-33 -34 -72 -56q-43 -24 -87 -38t-96 -22q-46 -7 -96 -7q-101 0 -187 9q-82 9 -168 29v160q82 -24 175 -38q84 -13 173 -13q126 0 185 34q60 35 60 97q0 26 -9 49q-12 23 -35 41q-25 19 -77 40t-144 48q-63 18 -125 46
q-57 25 -100 60q-41 34 -66 82q-24 46 -24 111q0 41 20 92q19 49 66 93q46 43 127 72q78 28 200 28q59 0 131 -6q81 -8 150 -23v-155q-84 20 -155 30q-73 9 -128 9q-68 0 -109 -10q-45 -11 -72 -27q-27 -17 -40 -41q-12 -24 -12 -51q0 -25 11 -49q10 -23 39 -42
q30 -22 79 -41q52 -21 133 -45q89 -25 150 -54q59 -27 99 -64q38 -35 55 -79q16 -42 16 -100zM498 -115h170l-88 -295h-148z" />
    <glyph glyph-name="circumflex" unicode="&#x2c6;" 
d="M492 1413h143l244 -242h-177l-141 121l-141 -121h-172zM0 1004z" />
    <glyph glyph-name="caron" unicode="&#x2c7;" 
d="M635 1171h-143l-244 242h176l141 -121l142 121h172zM0 1004z" />
    <glyph glyph-name="breve" unicode="&#x2d8;" 
d="M675 1413h136q0 -60 -20 -106q-19 -45 -53 -76q-35 -30 -79 -45q-45 -15 -96 -15t-96 15t-78 45q-35 30 -54 76q-20 46 -20 106h136q0 -51 28 -82t84 -31t84 31t28 82zM0 1004z" />
    <glyph glyph-name="dotaccent" unicode="&#x2d9;" 
d="M563 1421q29 0 53 -10q23 -10 42 -29q17 -17 28 -42q10 -23 10 -52t-10 -52q-11 -25 -28 -42t-42 -28q-27 -11 -53 -11q-28 0 -53 11t-42 28t-28 42q-10 23 -10 52t10 52q11 25 28 42q19 19 42 29t53 10zM0 1004z" />
    <glyph glyph-name="ring" unicode="&#x2da;" 
d="M563 1501q46 0 84 -16q42 -18 68 -44q30 -30 46 -66q17 -39 17 -81q0 -41 -17 -80q-16 -36 -46 -66q-26 -26 -68 -44q-38 -16 -84 -16t-84 16q-42 18 -68 44q-30 30 -46 66q-17 39 -17 80q0 42 17 81q16 36 46 66q26 26 68 44q38 16 84 16zM563 1395q-20 0 -39 -8
q-17 -7 -31 -21q-15 -15 -22 -32q-8 -21 -8 -40q0 -42 29 -71t71 -29q20 0 39 8q17 7 32 22q14 14 21 31q8 19 8 39q0 19 -8 40q-8 19 -21 32t-32 21t-39 8zM0 1004z" />
    <glyph glyph-name="ogonek" unicode="&#x2db;" 
d="M1014 -262v-113q-34 -6 -55 -7q-32 -3 -56 -3q-108 0 -163 46q-56 47 -56 118q0 21 5 46q5 27 17 49q15 28 37 57q21 30 62 69h156q-33 -33 -58 -63q-23 -29 -34 -50q-12 -22 -16 -41q-5 -22 -5 -39q0 -33 22 -52q21 -21 74 -21q21 0 34 1q20 1 36 3z" />
    <glyph glyph-name="tilde" unicode="&#x2dc;" 
d="M287 1182l-86 86q44 72 98 109q54 36 123 36q56 0 98 -17q33 -13 71 -37q6 -4 27 -17.5t32 -19.5q28 -17 61 -17q40 0 71 28q30 27 58 70l86 -86q-43 -71 -98 -108q-53 -37 -123 -37q-58 0 -98 17q-40 16 -71 37q-10 6 -29.5 18.5t-28.5 18.5q-29 17 -62 17
q-41 0 -71 -27q-30 -29 -58 -71zM0 1004z" />
    <glyph glyph-name="hungarumlaut" unicode="&#x2dd;" 
d="M438 1413h211l-243 -242h-175zM870 1413h232l-279 -242h-174zM0 1004z" />
    <glyph glyph-name="uni0312" unicode="&#x312;" 
d="M635 1171h-170l108 295h146zM0 1004z" />
    <glyph glyph-name="uni0315" unicode="&#x315;" 
d="M1065 1466h170l-109 -295h-145zM0 1004z" />
    <glyph glyph-name="uni0326" unicode="&#x326;" 
d="M498 -115h170l-88 -295h-148z" />
    <glyph glyph-name="uni0374" unicode="&#x374;" 
d="M291 713l-64 125q77 36 125 70q51 36 83 77q33 42 47 88q14 48 14 103q0 38 -4 63q-5 32 -5 61q0 53 32 90q32 35 85 35q34 0 59 -15q23 -14 40 -39q16 -26 23 -55t7 -65q0 -79 -30 -155q-32 -80 -88 -149q-59 -73 -139 -131q-82 -60 -185 -103z" />
    <glyph glyph-name="uni0375" unicode="&#x375;" 
d="M575 324h146q5 -89 -1 -164q-8 -83 -28 -152q-21 -71 -57 -136q-35 -63 -90 -118q-51 -51 -102 -72q-51 -22 -99 -22q-30 0 -54 8q-22 7 -38 22q-15 13 -23 31q-8 19 -8 37q0 50 31 80q20 20 45 30q9 4 57 22q27 10 63 29q32 16 66 50q26 26 45 58q18 31 30 75
q12 48 16 97q4 50 1 125z" />
    <glyph glyph-name="uni037E" unicode="&#x37e;" 
d="M250 -342v137q51 -1 99 9q47 10 85 33q35 20 58 53q22 31 22 73t-14 68q-15 25 -33 48q-21 26 -32 47q-15 26 -15 67q0 20 8 44q7 21 25 42q16 19 42 31q25 12 60 12q34 0 68 -14q31 -15 57 -45q24 -30 39 -75q14 -47 14 -106q0 -82 -30 -159q-33 -79 -91 -136
q-64 -60 -151 -94q-93 -35 -211 -35zM563 1022q31 0 59 -12q29 -14 49 -34q20 -21 34 -49q12 -29 12 -59q0 -32 -12 -59q-14 -29 -34 -49q-21 -21 -49 -33t-59 -12q-32 0 -59 12q-28 12 -49 33t-33 49q-12 27 -12 59q0 30 12 59q12 28 33 49q20 20 49 34q27 12 59 12z" />
    <glyph glyph-name="tonos" unicode="&#x384;" 
d="M598 1434h211l-178 -269h-162zM0 1004z" />
    <glyph glyph-name="dieresistonos" unicode="&#x385;" 
d="M262 1391q21 0 42 -8q20 -9 34 -23q15 -17 23 -34q8 -21 8 -42q0 -20 -8 -41q-9 -20 -23 -34q-15 -15 -34 -22q-20 -9 -42 -9q-45 0 -75 31q-31 30 -31 75q0 22 9 42q6 17 22 34q14 14 34 23q21 8 41 8zM864 1391q21 0 42 -8q20 -9 34 -23q15 -17 23 -34q8 -21 8 -42
q0 -20 -8 -41q-9 -20 -23 -34q-14 -15 -34 -22q-20 -9 -42 -9q-45 0 -75 31q-31 30 -31 75q0 22 9 42q6 17 22 34q14 14 34 23q21 8 41 8zM520 1442h199l-127 -277h-150zM0 1004z" />
    <glyph glyph-name="Alphatonos" unicode="&#x386;" 
d="M688 1307l428 -1307h-194l-91 285h-544l-92 -285h-185l434 1307h244zM338 444h442l-221 699zM84 1434h190l-92 -269h-145zM1260 1307z" />
    <glyph glyph-name="anoteleia" unicode="&#x387;" 
d="M563 1191q35 0 65 -13q31 -14 53 -36q21 -21 35 -54q13 -30 13 -65t-13 -64q-14 -31 -35 -52q-22 -22 -53 -36q-33 -14 -65 -14q-34 0 -65 14q-29 13 -52 36t-36 52t-13 64t13 65q14 32 36 54q23 23 52 36t65 13z" />
    <glyph glyph-name="Epsilontonos" unicode="&#x388;" 
d="M944 152v-152h-743v1307h743v-150h-565v-405h543v-150h-543v-450h565zM-59 1434h190l-92 -269h-145zM1117 1307z" />
    <glyph glyph-name="Etatonos" unicode="&#x389;" 
d="M1016 1307v-1307h-178v600h-549v-600h-178v1307h178v-553h549v553h178zM-100 1434h190l-92 -269h-145zM1076 1307z" />
    <glyph glyph-name="Iotatonos" unicode="&#x38a;" 
d="M473 152v1005h-301v150h782v-150h-301v-1005h301v-152h-782v152h301zM-80 1434h190l-92 -269h-145zM1096 1307z" />
    <glyph glyph-name="Omicrontonos" unicode="&#x38c;" 
d="M1071 662q0 -175 -41 -304q-43 -130 -112 -211q-70 -83 -165 -124q-96 -41 -200 -41q-127 0 -219 46q-92 44 -155 131q-62 87 -92 210t-30 278q0 173 41 302q40 126 112 212q72 85 164 124q93 40 199 40q127 0 220 -46q95 -47 155 -131q61 -85 93 -209q30 -123 30 -277z
M886 649q0 112 -17 211q-18 95 -57 164q-40 70 -100 107q-62 38 -149 38q-85 0 -144 -40q-60 -40 -100 -110q-38 -69 -58 -163q-19 -92 -19 -199q0 -117 18 -211q18 -97 57 -164q38 -70 99 -107q62 -38 147 -38q83 0 145 41q61 40 101 110q38 68 58 162q19 91 19 199z
M-39 1434h190l-92 -269h-145zM1137 1307z" />
    <glyph glyph-name="Upsilontonos" unicode="&#x38e;" 
d="M922 1307h204l-473 -840v-467h-180v471l-473 836h215l260 -478l96 -192l88 174zM-147 1434h190l-92 -269h-145zM1029 1307z" />
    <glyph glyph-name="Omegatonos" unicode="&#x38f;" 
d="M1083 144v-144h-432v131q67 43 111 97q45 54 72 123q27 67 39 151q12 82 12 182q0 103 -17 196q-18 89 -56 154q-38 63 -100 101q-62 36 -149 36q-83 0 -144 -38q-60 -37 -100 -104q-38 -64 -58 -155q-19 -86 -19 -190q0 -95 12 -176q12 -84 40 -150q28 -68 72 -123
q44 -56 109 -100v-135h-432v144h252q-123 81 -180 215q-58 132 -58 321q0 165 41 288t110 201q70 79 163 118q94 38 198 38q131 0 226 -45q93 -46 155 -129q61 -82 90 -199q29 -119 29 -260q0 -188 -55 -323q-55 -138 -185 -225h254zM-18 1434h190l-92 -269h-145zM1158 1307
z" />
    <glyph glyph-name="iotadieresistonos" unicode="&#x390;" 
d="M989 157v-149q-40 -13 -84 -17q-53 -5 -100 -5q-70 0 -132 17q-58 16 -103 56q-44 38 -68 100q-25 60 -25 150v549h-340v146h514v-667q0 -106 46 -155q45 -50 134 -50q45 0 83 7q40 7 75 18zM262 1391q21 0 42 -8q20 -9 34 -23q15 -17 23 -34q8 -21 8 -42q0 -20 -8 -41
q-9 -20 -23 -34q-15 -15 -34 -22q-20 -9 -42 -9q-45 0 -75 31q-31 30 -31 75q0 22 9 42q6 17 22 34q14 14 34 23q21 8 41 8zM864 1391q21 0 42 -8q20 -9 34 -23q15 -17 23 -34q8 -21 8 -42q0 -20 -8 -41q-9 -20 -23 -34q-14 -15 -34 -22q-20 -9 -42 -9q-45 0 -75 31
q-31 30 -31 75q0 22 9 42q6 17 22 34q14 14 34 23q21 8 41 8zM520 1442h199l-127 -277h-150zM0 1004z" />
    <glyph glyph-name="Alpha" unicode="&#x391;" 
d="M688 1307l428 -1307h-194l-91 285h-544l-92 -285h-185l434 1307h244zM338 444h442l-221 699z" />
    <glyph glyph-name="Beta" unicode="&#x392;" 
d="M1016 391q0 -94 -36 -166q-38 -75 -104 -123q-69 -51 -163 -76q-98 -26 -213 -26h-342v1307h374q437 0 437 -318q0 -105 -50 -182q-50 -75 -165 -113q55 -11 101 -34q47 -24 83 -62t57 -90t21 -117zM784 965q0 40 -12 76t-42 61q-29 25 -81 40q-51 15 -129 15h-184v-409
h178q63 0 111 13q50 14 85 40q36 28 55 68q19 39 19 96zM827 385q0 49 -21 90q-20 39 -61 68q-41 27 -97 42q-58 15 -130 15h-182v-450h188q153 0 228 57t75 178z" />
    <glyph glyph-name="Gamma" unicode="&#x393;" 
d="M985 1155h-571v-1155h-181v1307h752v-152z" />
    <glyph glyph-name="uni0394" unicode="&#x394;" 
d="M55 0v152l394 1155h239l383 -1155v-152h-1016zM248 166h620l-309 977z" />
    <glyph glyph-name="Epsilon" unicode="&#x395;" 
d="M944 152v-152h-743v1307h743v-150h-565v-405h543v-150h-543v-450h565z" />
    <glyph glyph-name="Zeta" unicode="&#x396;" 
d="M1001 1307v-140l-667 -1001h680v-166h-903v133l671 1012h-653v162h872z" />
    <glyph glyph-name="Eta" unicode="&#x397;" 
d="M1016 1307v-1307h-178v600h-549v-600h-178v1307h178v-553h549v553h178z" />
    <glyph glyph-name="Theta" unicode="&#x398;" 
d="M1076 662q0 -176 -42 -304q-44 -130 -115 -211q-71 -83 -167 -124t-200 -41q-127 0 -220 46q-93 44 -157 131q-62 84 -94 210q-31 121 -31 278q0 175 42 302q42 128 114 212q73 84 167 124q93 40 199 40q128 0 221 -46q95 -47 157 -131q64 -86 95 -209q31 -121 31 -277z
M892 649q0 117 -19 211q-20 97 -59 165q-41 70 -102 107q-64 38 -150 38q-84 0 -145 -40t-102 -111q-42 -74 -61 -163q-20 -97 -20 -199q0 -114 20 -211q20 -99 59 -164q39 -69 101 -107t148 -38q84 0 146 41q64 42 103 110q42 72 61 162q20 95 20 199zM753 602h-380v150
h380v-150z" />
    <glyph glyph-name="Iota" unicode="&#x399;" 
d="M473 152v1005h-301v150h782v-150h-301v-1005h301v-152h-782v152h301z" />
    <glyph glyph-name="Kappa" unicode="&#x39a;" 
d="M508 686l539 -686h-224l-489 641v-641h-178v1307h178v-607l479 607h211z" />
    <glyph glyph-name="Lambda" unicode="&#x39b;" 
d="M195 0h-191l445 1307h239l434 -1307h-200l-283 881l-80 258l-82 -258z" />
    <glyph glyph-name="Mu" unicode="&#x39c;" 
d="M1014 1307l63 -1307h-174l-26 815l-11 313l-61 -182l-193 -520h-123l-184 500l-61 202l-4 -327l-23 -801h-168l64 1307h211l176 -492l57 -166l55 166l185 492h217z" />
    <glyph glyph-name="Nu" unicode="&#x39d;" 
d="M1008 1307v-1307h-232l-381 815l-110 262v-659v-418h-166v1307h229l363 -772l131 -299v700v371h166z" />
    <glyph glyph-name="Xi" unicode="&#x39e;" 
d="M885 756v-158h-643v158h643zM944 1307v-158h-762v158h762zM952 0h-778v160h778v-160z" />
    <glyph glyph-name="Omicron" unicode="&#x39f;" 
d="M1071 662q0 -175 -41 -304q-43 -130 -112 -211q-70 -83 -165 -124q-96 -41 -200 -41q-127 0 -219 46q-92 44 -155 131q-62 87 -92 210t-30 278q0 173 41 302q40 126 112 212q72 85 164 124q93 40 199 40q127 0 220 -46q95 -47 155 -131q61 -85 93 -209q30 -123 30 -277z
M886 649q0 112 -17 211q-18 95 -57 164q-40 70 -100 107q-62 38 -149 38q-85 0 -144 -40q-60 -40 -100 -110q-38 -69 -58 -163q-19 -92 -19 -199q0 -117 18 -211q18 -97 57 -164q38 -70 99 -107q62 -38 147 -38q83 0 145 41q61 40 101 110q38 68 58 162q19 91 19 199z" />
    <glyph glyph-name="Pi" unicode="&#x3a0;" 
d="M1009 1307v-1307h-178v1153h-536v-1153h-178v1307h892z" />
    <glyph glyph-name="Rho" unicode="&#x3a1;" 
d="M1016 907q0 -80 -30 -158q-30 -79 -93 -141q-64 -63 -161 -100q-98 -39 -234 -39h-162v-469h-178v1307h368q98 0 186 -21q91 -23 157 -70t107 -124q40 -76 40 -185zM831 899q0 126 -82 193t-231 67h-182v-538h166q158 0 244 69q85 69 85 209z" />
    <glyph glyph-name="Sigma" unicode="&#x3a3;" 
d="M770 692l-428 -526h672v-166h-903v140l438 538l-420 491v138h872v-162h-619z" />
    <glyph glyph-name="Tau" unicode="&#x3a4;" 
d="M1040 1307v-152h-387v-1155h-180v1155h-387v152h954z" />
    <glyph glyph-name="Upsilon" unicode="&#x3a5;" 
d="M922 1307h204l-473 -840v-467h-180v471l-473 836h215l260 -478l96 -192l88 174z" />
    <glyph glyph-name="Phi" unicode="&#x3a6;" 
d="M645 33v-117h-164v115q-113 9 -195 54q-84 46 -137 124q-55 78 -81 189q-27 110 -27 249q0 150 35 264t94 189q56 74 139 119q78 43 172 55v117h164v-115q113 -9 195 -54q83 -47 138 -124t82 -187q27 -109 27 -249q0 -154 -34 -265t-95 -189q-60 -76 -140 -120
q-80 -43 -173 -55zM481 182v942q-68 -10 -119 -52q-49 -40 -83 -103q-33 -61 -48 -142q-16 -77 -16 -170q0 -99 15 -181t48 -144q32 -62 82 -100q50 -39 121 -50zM645 1124v-942q68 12 120 53q51 42 83 103q32 59 49 142q16 77 16 169q0 99 -15 181q-15 81 -47 144
q-33 62 -83 101q-53 39 -123 49zM0 1307z" />
    <glyph glyph-name="Chi" unicode="&#x3a7;" 
d="M668 676l434 -676h-225l-318 528l-319 -528h-222l435 668l-400 639h211l299 -492l301 492h205z" />
    <glyph glyph-name="Psi" unicode="&#x3a8;" 
d="M649 389v-389h-172v387q-108 9 -186 42q-80 34 -128 88q-51 54 -75 130q-25 74 -25 168v492h174v-478q0 -133 59 -204t181 -88v770h172v-770q117 20 178 93q62 74 62 201v476h174v-465q0 -98 -28 -175q-28 -79 -81 -136t-131 -94q-77 -36 -174 -48z" />
    <glyph glyph-name="uni03A9" unicode="&#x3a9;" 
d="M1083 144v-144h-432v131q67 43 111 97q45 54 72 123q27 67 39 151q12 82 12 182q0 103 -17 196q-18 89 -56 154q-38 63 -100 101q-62 36 -149 36q-83 0 -144 -38q-60 -37 -100 -104q-38 -64 -58 -155q-19 -86 -19 -190q0 -95 12 -176q12 -84 40 -150q28 -68 72 -123
q44 -56 109 -100v-135h-432v144h252q-123 81 -180 215q-58 132 -58 321q0 165 41 288t110 201q70 79 163 118q94 38 198 38q131 0 226 -45q93 -46 155 -129q61 -82 90 -199q29 -119 29 -260q0 -188 -55 -323q-55 -138 -185 -225h254z" />
    <glyph glyph-name="Iotadieresis" unicode="&#x3aa;" 
d="M473 152v1005h-301v150h782v-150h-301v-1005h301v-152h-782v152h301zM344 1659q21 0 42 -8q17 -8 34 -23q14 -14 23 -34q8 -21 8 -42q0 -20 -8 -41q-9 -20 -23 -34q-17 -16 -34 -22q-20 -9 -42 -9q-45 0 -75 31q-31 30 -31 75q0 22 9 42q8 19 22 34q14 14 34 23
q21 8 41 8zM782 1659q21 0 42 -8q20 -9 34 -23t23 -34q8 -21 8 -42q0 -20 -8 -41q-9 -20 -23 -34q-14 -15 -34 -22q-20 -9 -42 -9q-45 0 -75 31q-31 30 -31 75q0 22 9 42q7 19 22 34q14 14 34 23q21 8 41 8zM0 1307z" />
    <glyph glyph-name="Upsilondieresis" unicode="&#x3ab;" 
d="M922 1307h204l-473 -840v-467h-180v471l-473 836h215l260 -478l96 -192l88 174zM344 1659q21 0 42 -8q17 -8 34 -23q14 -14 23 -34q8 -21 8 -42q0 -20 -8 -41q-9 -20 -23 -34q-17 -16 -34 -22q-20 -9 -42 -9q-45 0 -75 31q-31 30 -31 75q0 22 9 42q8 19 22 34
q14 14 34 23q21 8 41 8zM782 1659q21 0 42 -8q20 -9 34 -23t23 -34q8 -21 8 -42q0 -20 -8 -41q-9 -20 -23 -34q-14 -15 -34 -22q-20 -9 -42 -9q-45 0 -75 31q-31 30 -31 75q0 22 9 42q7 19 22 34q14 14 34 23q21 8 41 8zM0 1307z" />
    <glyph glyph-name="alphatonos" unicode="&#x3ac;" 
d="M80 487q0 122 32 223q32 99 88 169q55 68 134 106q77 37 172 37q57 0 108 -15q51 -17 94 -46q44 -30 75 -73t51 -100l36 216h156l-96 -521v-12q0 -173 39 -256q38 -83 118 -72v-143q-76 -11 -120 -1q-49 11 -77 38q-31 27 -48 71q-17 40 -31 101q-49 -108 -136 -167
q-85 -60 -208 -60q-99 0 -170 37q-74 38 -121 104q-48 66 -72 159t-24 205zM258 498q0 -182 62 -274t182 -92q54 0 100 27q47 27 81 76q35 48 54 114q19 64 19 143v18q0 80 -16 145q-17 68 -47 115q-31 48 -78 75t-105 27q-61 0 -108 -26q-48 -26 -79 -74q-32 -50 -48 -118
q-17 -71 -17 -156zM598 1434h211l-178 -269h-162zM0 1004z" />
    <glyph glyph-name="epsilontonos" unicode="&#x3ad;" 
d="M993 178v-153q-91 -20 -187 -32q-91 -11 -175 -11q-135 0 -229 21q-93 19 -156 59q-60 36 -89 92q-28 53 -28 122q0 57 20 100q19 41 55 71q34 29 81 45q47 17 100 24q-53 9 -93 32t-65 54q-27 31 -38 64q-13 33 -13 65q0 143 111 217q110 74 344 74q80 0 158 -7
q83 -7 178 -30v-162q-88 23 -184 38q-85 13 -173 13q-69 0 -118 -11q-48 -10 -77 -29q-31 -20 -42 -44q-13 -25 -13 -55q0 -71 72 -109q71 -38 219 -38h189v-144h-209q-162 0 -237 -39t-75 -108q0 -37 18 -67q16 -30 56 -53q38 -22 102 -34q61 -12 152 -12q63 0 156 11
q88 10 190 36zM639 1434h211l-178 -269h-162zM41 1004z" />
    <glyph glyph-name="etatonos" unicode="&#x3ae;" 
d="M164 0v531q0 31 -2 111q-4 83 -7 122q-1 21 -4 62t-5 62q-4 51 -9 116h159l17 -179q57 69 98 104q39 33 81 55q39 21 80 30q43 8 85 8q156 0 235 -91t79 -276v-1065h-174v1051q0 117 -44 175q-44 56 -131 56q-32 0 -62 -9q-31 -10 -64 -33q-36 -26 -71 -64
q-41 -43 -87 -100v-666h-174zM639 1434h211l-178 -269h-162zM41 1004z" />
    <glyph glyph-name="iotatonos" unicode="&#x3af;" 
d="M989 157v-149q-40 -13 -84 -17q-53 -5 -100 -5q-70 0 -132 17q-58 16 -103 56q-44 38 -68 100q-25 60 -25 150v549h-340v146h514v-667q0 -106 46 -155q45 -50 134 -50q45 0 83 7q40 7 75 18zM598 1434h211l-178 -269h-162zM0 1004z" />
    <glyph glyph-name="upsilondieresistonos" unicode="&#x3b0;" 
d="M782 1004h174q13 -102 19 -216q6 -108 6 -217q0 -135 -31 -243q-31 -107 -91 -186q-60 -78 -144 -118q-85 -42 -194 -42q-191 0 -276 97q-87 96 -87 286q0 50 2 132t2 113q0 204 -24 394h174q24 -184 24 -381q0 -21 -2 -107t-2 -138q0 -56 11 -106q10 -47 36 -79
q25 -32 63 -47t94 -15t106 26q48 25 86 78q35 51 58 135q21 81 21 193q0 113 -6 222q-6 117 -19 219zM262 1391q21 0 42 -8q20 -9 34 -23q15 -17 23 -34q8 -21 8 -42q0 -20 -8 -41q-9 -20 -23 -34q-15 -15 -34 -22q-20 -9 -42 -9q-45 0 -75 31q-31 30 -31 75q0 22 9 42
q6 17 22 34q14 14 34 23q21 8 41 8zM864 1391q21 0 42 -8q20 -9 34 -23q15 -17 23 -34q8 -21 8 -42q0 -20 -8 -41q-9 -20 -23 -34q-14 -15 -34 -22q-20 -9 -42 -9q-45 0 -75 31q-31 30 -31 75q0 22 9 42q6 17 22 34q14 14 34 23q21 8 41 8zM520 1442h199l-127 -277h-150z
M0 1004z" />
    <glyph glyph-name="alpha" unicode="&#x3b1;" 
d="M80 487q0 122 32 223q32 99 88 169q55 68 134 106q77 37 172 37q57 0 108 -15q51 -17 94 -46q44 -30 75 -73t51 -100l36 216h156l-96 -521v-12q0 -173 39 -256q38 -83 118 -72v-143q-76 -11 -120 -1q-49 11 -77 38q-31 27 -48 71q-17 40 -31 101q-49 -108 -136 -167
q-85 -60 -208 -60q-99 0 -170 37q-74 38 -121 104q-48 66 -72 159t-24 205zM258 498q0 -182 62 -274t182 -92q54 0 100 27q47 27 81 76q35 48 54 114q19 64 19 143v18q0 80 -16 145q-17 68 -47 115q-31 48 -78 75t-105 27q-61 0 -108 -26q-48 -26 -79 -74q-32 -50 -48 -118
q-17 -71 -17 -156z" />
    <glyph glyph-name="beta" unicode="&#x3b2;" 
d="M1034 428q0 -94 -32 -176q-32 -79 -92 -139q-61 -59 -143 -92q-84 -33 -185 -33q-80 0 -138 19q-57 17 -110 44v-461h-174v1432q0 80 26 155q26 74 77 128q50 55 129 88q78 32 181 32q91 0 162 -27q71 -28 118 -76q47 -47 73 -112q24 -65 24 -137q0 -50 -14 -101
q-15 -50 -40 -88q-25 -39 -61 -66q-34 -26 -75 -34q62 -8 112 -37q50 -30 86 -77q37 -49 56 -110q20 -63 20 -132zM334 1014v-800q53 -33 119 -55q61 -21 131 -21q58 0 109 17q50 17 86 51t57 87q20 54 20 127q0 57 -15 105q-17 50 -50 83q-36 36 -90 55q-57 20 -136 20h-84
v150h62q61 0 105 18q43 18 71 49q28 30 42 71q13 39 13 87q0 46 -14 88q-15 40 -42 69q-29 30 -66 46q-38 16 -89 16q-53 0 -97 -18q-45 -20 -72 -53q-30 -36 -44 -83q-16 -48 -16 -109z" />
    <glyph glyph-name="gamma" unicode="&#x3b3;" 
d="M506 467q16 -51 41 -146q21 -88 35 -170q71 128 121 243q49 114 77 213q27 96 38 199q10 98 3 198h178q0 -136 -24 -263q-25 -132 -70 -256q-46 -128 -116 -260q-76 -141 -175 -292q4 -33 4 -39q0 -7 1.5 -26t2.5 -31q0 -10 1.5 -32t2.5 -34q1 -23 1 -63v-118h-174v118
q0 104 -10 187q-11 88 -24 161q-18 96 -32 159q-24 103 -53 207q-46 153 -77 232t-61 133q-26 45 -48 59q-20 13 -50 13h-19q-2 -1 -7.5 -1.5t-8.5 -0.5v147q49 6 88 6q36 0 64 -7q31 -8 55 -28q26 -22 51 -58q23 -33 55 -98q30 -63 62 -146q35 -91 68 -206z" />
    <glyph glyph-name="delta" unicode="&#x3b4;" 
d="M449 978q-65 58 -92 109q-29 53 -29 115q0 48 21 90q19 42 61 71q42 30 104 46q61 16 138 16q119 0 259 -29v-150q-146 34 -265 34q-72 0 -103 -18q-32 -20 -32 -50q0 -18 6 -35t18 -33q12 -17 32 -35q29 -27 44 -40l135 -117q80 -70 132 -128q47 -54 79 -114
q30 -58 42 -114q11 -58 11 -126q0 -51 -9 -108q-9 -58 -30 -112q-24 -58 -56 -102q-35 -48 -86 -86q-52 -38 -120 -59q-69 -21 -158 -21q-112 0 -193 37q-83 38 -138 103q-57 67 -83 154q-28 87 -28 185q0 102 29 189q28 84 78 152q50 67 109 108q62 44 124 68zM638 815
l-70 59q-50 -13 -100 -41q-47 -26 -90 -74q-41 -46 -66 -115q-25 -68 -25 -165q0 -79 19 -142q20 -67 56 -110q34 -45 89 -71q51 -25 120 -25q64 0 113 25t80 67q30 42 47 100q16 54 16 138q0 48 -7 87q-7 38 -31 86q-22 43 -59 89q-36 44 -92 92z" />
    <glyph glyph-name="epsilon" unicode="&#x3b5;" 
d="M993 178v-153q-91 -20 -187 -32q-91 -11 -175 -11q-135 0 -229 21q-93 19 -156 59q-60 36 -89 92q-28 53 -28 122q0 57 20 100q19 41 55 71q34 29 81 45q47 17 100 24q-53 9 -93 32t-65 54q-27 31 -38 64q-13 33 -13 65q0 143 111 217q110 74 344 74q80 0 158 -7
q83 -7 178 -30v-162q-88 23 -184 38q-85 13 -173 13q-69 0 -118 -11q-48 -10 -77 -29q-31 -20 -42 -44q-13 -25 -13 -55q0 -71 72 -109q71 -38 219 -38h189v-144h-209q-162 0 -237 -39t-75 -108q0 -37 18 -67q16 -30 56 -53q38 -22 102 -34q61 -12 152 -12q63 0 156 11
q88 10 190 36z" />
    <glyph glyph-name="zeta" unicode="&#x3b6;" 
d="M158 462q0 84 25 159q24 76 68 149q47 76 100 139q55 67 120 129q70 68 130 119q67 55 138 108h-524v148h770v-131q-155 -120 -274 -226q-121 -106 -203 -203q-80 -95 -125 -192q-43 -93 -43 -191q0 -65 17 -116q16 -49 51 -85q34 -37 88 -61q49 -23 127 -40
q103 -21 168 -49q65 -27 107 -65q40 -36 57 -81q16 -45 16 -102q0 -39 -9 -73q-11 -37 -25 -66q-22 -42 -35 -62q-5 -8 -38 -61h-166q4 6 17 27.5t20 32.5q17 29 30 57q14 30 21 59q7 28 7 65q0 28 -9 51t-33 41t-66 33q-45 15 -110 27q-113 21 -193 60t-129 97
q-50 59 -72 133q-23 77 -23 170z" />
    <glyph glyph-name="eta" unicode="&#x3b7;" 
d="M164 0v531q0 31 -2 111q-4 83 -7 122q-1 21 -4 62t-5 62q-4 51 -9 116h159l17 -179q57 69 98 104q39 33 81 55q39 21 80 30q43 8 85 8q156 0 235 -91t79 -276v-1065h-174v1051q0 117 -44 175q-44 56 -131 56q-32 0 -62 -9q-31 -10 -64 -33q-36 -26 -71 -64
q-41 -43 -87 -100v-666h-174z" />
    <glyph glyph-name="theta" unicode="&#x3b8;" 
d="M1028 713q0 -160 -31 -291q-32 -134 -92 -232t-147 -153q-88 -55 -201 -55q-107 0 -193 44q-85 43 -144 133q-58 89 -90 222q-32 136 -32 311q0 155 32 292q32 136 91 232q61 100 148 154q86 55 200 55q107 0 193 -44q85 -45 144 -134q60 -91 91 -222t31 -312zM279 800
h571q-6 128 -28 217t-59 149q-36 57 -87 86q-51 27 -113 27q-67 0 -119 -38q-49 -36 -85 -103q-35 -66 -54 -153q-20 -90 -26 -185zM852 654h-578q3 -140 25 -237q21 -100 58 -164q38 -65 89 -94q52 -31 117 -31q74 0 126 43q55 45 88 115q35 74 53 168q17 91 22 200z" />
    <glyph glyph-name="iota" unicode="&#x3b9;" 
d="M989 157v-149q-40 -13 -84 -17q-53 -5 -100 -5q-70 0 -132 17q-58 16 -103 56q-44 38 -68 100q-25 60 -25 150v549h-340v146h514v-667q0 -106 46 -155q45 -50 134 -50q45 0 83 7q40 7 75 18z" />
    <glyph glyph-name="kappa" unicode="&#x3ba;" 
d="M566 541l497 -541h-239l-468 538v-538h-174v1004h174v-459l451 459h230z" />
    <glyph glyph-name="lambda" unicode="&#x3bb;" 
d="M489 1004l-40 114q-17 46 -33 78q-16 29 -35 48q-19 17 -42 25q-21 7 -52 7q-27 0 -59 -6q-31 -6 -65 -17v147q33 10 75 18q39 7 74 7q50 0 94 -9q40 -9 79 -35q38 -27 69 -76q30 -47 59 -128l325 -921q9 -26 23 -56q10 -21 24 -35q12 -14 28 -18q15 -6 36 -6h18
q6 0 20 2v-143q-54 -12 -96 -12q-41 0 -72 12q-31 10 -57 36q-28 28 -47 65q-23 43 -41 96l-158 448l-47 141l-53 -141l-260 -645h-190z" />
    <glyph glyph-name="uni03BC" unicode="&#x3bc;" 
d="M160 1004h174v-639q0 -232 174 -232q32 0 62 10q33 11 64 33q33 23 67 62q41 47 79 100v666h174v-689q0 -47 5 -85q5 -34 18 -54q12 -21 32 -30q19 -9 50 -9h18v-139q-17 -4 -31 -5q-18 -3 -38 -3q-52 0 -85 13q-36 12 -60 36q-25 23 -38 57q-15 35 -24 76
q-46 -60 -83 -93q-40 -37 -79 -58q-42 -22 -75 -29q-38 -8 -69 -8q-54 0 -96 19q-44 18 -79 57l14 -173v-297h-174v1414z" />
    <glyph glyph-name="nu" unicode="&#x3bd;" 
d="M453 0l-383 1004h198l240 -664l55 -156q109 207 172 408q65 204 90 412h203q-21 -116 -61 -252q-40 -130 -90 -254q-49 -122 -113 -252q-66 -131 -133 -246h-178z" />
    <glyph glyph-name="xi" unicode="&#x3be;" 
d="M412 1268h-238v145h744v-145h-111q-117 0 -196 -27q-80 -27 -130 -68q-49 -40 -72 -88q-22 -47 -22 -90q0 -89 59 -136q59 -48 187 -48h239v-145h-237q-80 0 -137 -19q-59 -20 -95 -53q-39 -36 -56 -79q-19 -45 -19 -99t19 -93q18 -41 55 -69q37 -29 92 -50
q56 -21 129 -36q103 -21 168 -49q65 -27 107 -65q40 -36 57 -81q16 -45 16 -102q0 -39 -9 -73q-11 -37 -25 -66q-22 -42 -35 -62q-5 -8 -38 -61h-166q4 6 17 27.5t20 32.5q17 29 30 57q14 30 21 59q7 28 7 65q0 28 -9 51t-33 41t-66 33q-45 15 -110 27q-114 21 -195 57
q-80 36 -133 87q-53 50 -77 115q-25 63 -25 145q0 62 21 117q21 54 56 99q34 44 78 75q44 30 91 44q-42 6 -76 29q-32 22 -55 54q-22 31 -33 70q-12 37 -12 77q0 45 15 90q13 45 41 86q25 40 62 72q35 31 79 49z" />
    <glyph glyph-name="omicron" unicode="&#x3bf;" 
d="M1034 510q0 -117 -33 -214t-95 -167q-61 -70 -151 -108q-88 -39 -202 -39q-109 0 -193 34q-86 33 -145 98q-59 63 -91 161t-32 221q0 116 33 214q32 94 95 166q61 68 151 108q90 38 202 38q109 0 194 -33q86 -35 145 -98q60 -66 91 -161q31 -94 31 -220zM856 502
q0 91 -20 163q-21 69 -59 116q-37 45 -92 70q-57 23 -122 23q-77 0 -133 -30q-58 -33 -91 -82q-35 -50 -52 -118q-17 -70 -17 -142q0 -92 21 -163q19 -67 58 -116q38 -48 92 -70q54 -24 122 -24q79 0 134 31q55 30 91 81q36 53 52 119q16 65 16 142z" />
    <glyph glyph-name="pi" unicode="&#x3c0;" 
d="M1082 143v-147q-32 -6 -52 -8q-24 -4 -53 -4q-51 0 -96 9q-46 9 -83 39q-40 29 -62 93q-24 65 -30 142t-6 113v478h-295q0 -97 -5 -214q-6 -105 -21 -210q-15 -106 -42 -213q-30 -114 -77 -221h-196q58 114 93 222q34 109 50 212q16 100 22 210q6 105 6 214h-192v146
h1030v-146h-199v-408q0 -32 3 -99q1 -63 11 -113q8 -47 26 -70q19 -23 39 -29q21 -6 49 -6q22 0 42 3q26 4 38 7z" />
    <glyph glyph-name="rho" unicode="&#x3c1;" 
d="M1018 520q0 -134 -36 -234q-37 -99 -99 -167q-63 -67 -145 -100q-81 -34 -173 -34q-64 0 -127 17q-62 17 -104 42v-454h-174v953q0 97 26 186q25 86 80 153q55 66 137 103q81 37 195 37q112 0 193 -38q79 -37 130 -105q50 -69 74 -159q23 -94 23 -200zM840 516
q0 77 -13 141q-14 66 -43 114q-29 47 -77 76q-48 27 -117 27q-119 0 -187 -84q-69 -84 -69 -262v-320q50 -32 112 -51q62 -21 120 -21q128 0 201 94t73 286z" />
    <glyph glyph-name="sigma1" unicode="&#x3c2;" 
d="M793 -150q0 28 -9 53q-9 24 -36 48q-29 24 -73 34q-49 11 -113 21q-112 18 -185 57q-76 38 -125 102q-50 65 -72 152t-22 193q0 113 34 209q35 98 101 164q68 68 163 102q96 33 208 33q75 0 146 -11q69 -11 130 -36v-166q-61 33 -132 50q-67 15 -140 15q-69 0 -129 -22
q-63 -22 -108 -69t-68 -115q-23 -69 -23 -148q0 -78 16 -135q16 -59 45 -99q28 -40 77 -68q49 -29 152 -47q101 -17 163 -41q67 -26 107 -66q39 -39 56 -87q15 -47 15 -102q0 -39 -9 -73q-11 -37 -25 -66q-22 -42 -35 -62q-5 -8 -38 -61h-166q4 6 17 27.5t20 32.5
q17 29 30 57q14 30 21 59q7 28 7 65z" />
    <glyph glyph-name="sigma" unicode="&#x3c3;" 
d="M866 860q56 -56 94 -146q36 -90 36 -206q0 -114 -30 -210q-30 -95 -87 -166q-59 -72 -142 -110q-84 -40 -194 -40q-106 0 -187 34q-83 32 -142 98q-59 65 -90 160q-32 96 -32 220q0 118 33 216q30 94 94 167q62 69 151 107q90 38 203 38q59 0 124 -3q86 -4 130 -6l132 -6
q66 -3 128 -3v-151q-35 0 -101 2q-79 2 -120 5zM669 869q-5 1 -14.5 1.5t-14.5 0.5q-20 0 -30 1h-26h-21q-85 0 -140 -33q-55 -35 -90 -87q-34 -52 -48 -119q-15 -67 -15 -133q0 -92 21 -161q19 -69 57 -116q39 -49 89 -70q53 -24 116 -24q73 0 125 32q53 33 83 83
q32 51 45 118q14 70 14 138q0 118 -39 216q-41 97 -112 153z" />
    <glyph glyph-name="tau" unicode="&#x3c4;" 
d="M936 160v-150q-44 -12 -103 -18q-61 -6 -126 -6q-95 0 -161 22q-65 20 -110 65q-44 43 -63 108q-21 65 -21 153v524h-289v146h914v-146h-451v-510q0 -108 48 -161q46 -54 159 -54q52 0 102 7q62 9 101 20z" />
    <glyph glyph-name="upsilon" unicode="&#x3c5;" 
d="M782 1004h174q13 -102 19 -216q6 -108 6 -217q0 -135 -31 -243q-31 -107 -91 -186q-60 -78 -144 -118q-85 -42 -194 -42q-191 0 -276 97q-87 96 -87 286q0 50 2 132t2 113q0 204 -24 394h174q24 -184 24 -381q0 -21 -2 -107t-2 -138q0 -56 11 -106q10 -47 36 -79
q25 -32 63 -47t94 -15t106 26q48 25 86 78q35 51 58 135q21 81 21 193q0 113 -6 222q-6 117 -19 219z" />
    <glyph glyph-name="phi" unicode="&#x3c6;" 
d="M645 -14v-396h-164v396q-224 15 -332 148q-108 134 -108 364q0 125 35 219q35 93 94 157q58 62 139 99t172 47v393h164v-393q113 -8 195 -45q81 -37 138 -103q55 -64 82 -156t27 -206q0 -128 -34 -220t-95 -158q-60 -64 -140 -99q-82 -37 -173 -47zM481 129v748
q-71 -11 -119 -43q-51 -34 -83 -82q-33 -49 -48 -113q-16 -61 -16 -133q0 -78 15 -143q15 -66 48 -114q30 -47 82 -80q48 -31 121 -40zM645 877v-748q70 11 120 43q49 31 83 82q32 49 49 112q16 61 16 134q0 78 -15 143q-15 63 -47 114q-31 47 -83 80q-50 31 -123 40z" />
    <glyph glyph-name="chi" unicode="&#x3c7;" 
d="M659 317l195 -458q15 -37 30 -64q14 -26 28 -39q16 -16 34 -20q18 -6 43 -6q20 0 41 3q18 1 35 5v-148q-29 -6 -49 -7q-27 -3 -53 -3q-55 0 -96 12q-38 11 -71 38q-32 26 -55 65q-26 42 -47 94l-98 234l-56 138l-58 -122l-232 -449h-195l407 750l-171 403q-15 37 -30 64
q-12 23 -29 40q-16 14 -33 20q-20 5 -43 5q-13 0 -41 -2q-22 -3 -35 -6v148q28 6 50 8q34 2 52 2q56 0 96 -12t71 -37q30 -26 55 -65q27 -45 47 -95l79 -188l50 -125l61 125l193 379h194z" />
    <glyph glyph-name="psi" unicode="&#x3c8;" 
d="M645 -12v-398h-164v394q-97 6 -169 34q-76 28 -124 79q-50 52 -76 130q-26 80 -26 185v592h164v-560q0 -152 57 -227t174 -90v1286h164v-1286q62 11 110 42t79 83q30 49 47 130q16 74 16 181q0 118 -10 222q-14 146 -23 219h164q17 -155 23 -216q10 -103 10 -217
q0 -128 -25 -227q-26 -103 -76 -175q-51 -73 -129 -120q-78 -46 -186 -61z" />
    <glyph glyph-name="omega" unicode="&#x3c9;" 
d="M647 702v-307q0 -132 33 -193q32 -63 94 -63q64 0 102 86q37 84 37 244q0 178 -30 310q-31 132 -81 225h188q40 -96 69 -232q28 -133 28 -311q0 -113 -22 -200q-23 -89 -65 -151t-101 -95t-131 -33q-40 0 -76 12q-35 10 -64 38t-47 72q-17 42 -22 109q-9 -64 -31 -106
q-22 -43 -53 -72q-31 -28 -67 -40q-35 -13 -72 -13q-64 0 -117 28q-55 28 -94 88q-40 58 -63 152q-23 95 -23 223q0 169 28 300q27 133 69 231h188q-52 -97 -81 -229q-30 -131 -30 -304q0 -71 9 -133t27 -105q16 -42 43 -69q25 -25 60 -25q24 0 47 14t41 42q18 31 28 72
q11 46 11 102v333h168z" />
    <glyph glyph-name="iotadieresis" unicode="&#x3ca;" 
d="M989 157v-149q-40 -13 -84 -17q-53 -5 -100 -5q-70 0 -132 17q-58 16 -103 56q-44 38 -68 100q-25 60 -25 150v549h-340v146h514v-667q0 -106 46 -155q45 -50 134 -50q45 0 83 7q40 7 75 18zM348 1405q23 0 44 -9q20 -9 36 -24q15 -16 24 -36q9 -21 9 -44q0 -24 -9 -43
q-9 -21 -24 -36q-16 -15 -36 -24q-21 -9 -44 -9q-24 0 -43 9q-21 9 -36 24t-24 36q-9 19 -9 43q0 23 9 44q9 20 24 36q15 15 36 24q19 9 43 9zM778 1405q23 0 44 -9q20 -9 36 -24q15 -16 24 -36q9 -21 9 -44q0 -24 -9 -43q-9 -21 -24 -36q-16 -15 -36 -24q-21 -9 -44 -9
q-24 0 -43 9q-21 9 -36 24t-24 36q-9 20 -9 43t9 44q9 20 24 36q15 15 36 24q20 9 43 9zM0 1004z" />
    <glyph glyph-name="upsilondieresis" unicode="&#x3cb;" 
d="M782 1004h174q13 -102 19 -216q6 -108 6 -217q0 -135 -31 -243q-31 -107 -91 -186q-60 -78 -144 -118q-85 -42 -194 -42q-191 0 -276 97q-87 96 -87 286q0 50 2 132t2 113q0 204 -24 394h174q24 -184 24 -381q0 -21 -2 -107t-2 -138q0 -56 11 -106q10 -47 36 -79
q25 -32 63 -47t94 -15t106 26q48 25 86 78q35 51 58 135q21 81 21 193q0 113 -6 222q-6 117 -19 219zM348 1405q23 0 44 -9q20 -9 36 -24q15 -16 24 -36q9 -21 9 -44q0 -24 -9 -43q-9 -21 -24 -36q-16 -15 -36 -24q-21 -9 -44 -9q-24 0 -43 9q-21 9 -36 24t-24 36
q-9 19 -9 43q0 23 9 44q9 20 24 36q15 15 36 24q19 9 43 9zM778 1405q23 0 44 -9q20 -9 36 -24q15 -16 24 -36q9 -21 9 -44q0 -24 -9 -43q-9 -21 -24 -36q-16 -15 -36 -24q-21 -9 -44 -9q-24 0 -43 9q-21 9 -36 24t-24 36q-9 20 -9 43t9 44q9 20 24 36q15 15 36 24
q20 9 43 9zM0 1004z" />
    <glyph glyph-name="omicrontonos" unicode="&#x3cc;" 
d="M1034 510q0 -117 -33 -214t-95 -167q-61 -70 -151 -108q-88 -39 -202 -39q-109 0 -193 34q-86 33 -145 98q-59 63 -91 161t-32 221q0 116 33 214q32 94 95 166q61 68 151 108q90 38 202 38q109 0 194 -33q86 -35 145 -98q60 -66 91 -161q31 -94 31 -220zM856 502
q0 91 -20 163q-21 69 -59 116q-37 45 -92 70q-57 23 -122 23q-77 0 -133 -30q-58 -33 -91 -82q-35 -50 -52 -118q-17 -70 -17 -142q0 -92 21 -163q19 -67 58 -116q38 -48 92 -70q54 -24 122 -24q79 0 134 31q55 30 91 81q36 53 52 119q16 65 16 142zM598 1434h211l-178 -269
h-162zM0 1004z" />
    <glyph glyph-name="upsilontonos" unicode="&#x3cd;" 
d="M782 1004h174q13 -102 19 -216q6 -108 6 -217q0 -135 -31 -243q-31 -107 -91 -186q-60 -78 -144 -118q-85 -42 -194 -42q-191 0 -276 97q-87 96 -87 286q0 50 2 132t2 113q0 204 -24 394h174q24 -184 24 -381q0 -21 -2 -107t-2 -138q0 -56 11 -106q10 -47 36 -79
q25 -32 63 -47t94 -15t106 26q48 25 86 78q35 51 58 135q21 81 21 193q0 113 -6 222q-6 117 -19 219zM598 1434h211l-178 -269h-162zM0 1004z" />
    <glyph glyph-name="omegatonos" unicode="&#x3ce;" 
d="M647 702v-307q0 -132 33 -193q32 -63 94 -63q64 0 102 86q37 84 37 244q0 178 -30 310q-31 132 -81 225h188q40 -96 69 -232q28 -133 28 -311q0 -113 -22 -200q-23 -89 -65 -151t-101 -95t-131 -33q-40 0 -76 12q-35 10 -64 38t-47 72q-17 42 -22 109q-9 -64 -31 -106
q-22 -43 -53 -72q-31 -28 -67 -40q-35 -13 -72 -13q-64 0 -117 28q-55 28 -94 88q-40 58 -63 152q-23 95 -23 223q0 169 28 300q27 133 69 231h188q-52 -97 -81 -229q-30 -131 -30 -304q0 -71 9 -133t27 -105q16 -42 43 -69q25 -25 60 -25q24 0 47 14t41 42q18 31 28 72
q11 46 11 102v333h168zM598 1434h211l-178 -269h-162zM0 1004z" />
    <glyph glyph-name="uni0400" unicode="&#x400;" 
d="M944 152v-152h-743v1307h743v-150h-565v-405h543v-150h-543v-450h565zM457 1659l211 -213h-179l-284 213h252zM0 1307z" />
    <glyph glyph-name="uni0401" unicode="&#x401;" 
d="M944 152v-152h-743v1307h743v-150h-565v-405h543v-150h-543v-450h565zM344 1659q21 0 42 -8q17 -8 34 -23q14 -14 23 -34q8 -21 8 -42q0 -20 -8 -41q-9 -20 -23 -34q-17 -16 -34 -22q-20 -9 -42 -9q-45 0 -75 31q-31 30 -31 75q0 22 9 42q8 19 22 34q14 14 34 23
q21 8 41 8zM782 1659q21 0 42 -8q20 -9 34 -23t23 -34q8 -21 8 -42q0 -20 -8 -41q-9 -20 -23 -34q-14 -15 -34 -22q-20 -9 -42 -9q-45 0 -75 31q-31 30 -31 75q0 22 9 42q7 19 22 34q14 14 34 23q21 8 41 8zM0 1307z" />
    <glyph glyph-name="uni0402" unicode="&#x402;" 
d="M426 1155v-309h195q97 0 183 -24q87 -26 148 -74q63 -50 99 -123t36 -174q0 -127 -39 -214q-41 -89 -104 -140q-65 -55 -146 -77q-79 -24 -165 -22v158q53 -2 99 10q48 12 85 46q38 33 60 91q22 56 22 146q0 40 -14 85q-15 44 -49 81q-34 35 -91 60q-57 23 -139 23h-180
v-698h-180v1155h-242v152h746v-152h-324z" />
    <glyph glyph-name="uni0403" unicode="&#x403;" 
d="M985 1151h-571v-1151h-181v1307h752v-156zM670 1659h252l-285 -213h-178zM0 1307z" />
    <glyph glyph-name="uni0404" unicode="&#x404;" 
d="M276 752h621v-150h-621q11 -234 110 -350q99 -117 300 -117q83 0 161 20q79 20 148 54v-162q-159 -65 -329 -65q-142 0 -249 40q-108 39 -182 122q-75 85 -109 206q-36 124 -36 289q0 170 40 296q41 130 116 215q76 88 184 131q109 44 246 44q91 0 169 -15
q78 -16 150 -48v-168q-72 39 -147 59q-77 21 -166 21q-93 0 -162 -28q-73 -29 -121 -82q-51 -54 -81 -132q-32 -80 -42 -180z" />
    <glyph glyph-name="uni0405" unicode="&#x405;" 
d="M997 354q0 -92 -38 -163q-36 -68 -106 -116q-69 -48 -163 -70q-98 -23 -211 -23q-58 0 -103 4q-64 5 -99 10q-39 5 -90 14q-34 6 -76 17v172q71 -27 169 -44q90 -16 212 -16q83 0 147 14q61 14 99 40t56 64q17 39 17 87q0 53 -29 91q-29 37 -78 67q-49 29 -109 54
q-23 9 -67.5 26.5t-58.5 23.5q-60 24 -125 57q-63 31 -110 72q-48 40 -77 97q-30 56 -30 133q0 69 28 132q29 65 87 116q58 49 152 81q90 31 220 31q33 0 72 -3q21 -2 78 -8q52 -8 78 -13q42 -8 71 -15v-160q-72 21 -154 34q-80 11 -149 11q-153 0 -225 -51t-72 -137
q0 -53 30 -91q29 -38 77 -68q47 -29 110 -54q82 -34 125 -51q65 -25 126 -57q62 -32 109 -73q49 -44 78 -100q29 -58 29 -135z" />
    <glyph glyph-name="uni0406" unicode="&#x406;" 
d="M473 152v1005h-301v150h782v-150h-301v-1005h301v-152h-782v152h301z" />
    <glyph glyph-name="uni0407" unicode="&#x407;" 
d="M473 152v1005h-301v150h782v-150h-301v-1005h301v-152h-782v152h301zM344 1659q21 0 42 -8q17 -8 34 -23q14 -14 23 -34q8 -21 8 -42q0 -20 -8 -41q-9 -20 -23 -34q-17 -16 -34 -22q-20 -9 -42 -9q-45 0 -75 31q-31 30 -31 75q0 22 9 42q8 19 22 34q14 14 34 23
q21 8 41 8zM782 1659q21 0 42 -8q20 -9 34 -23t23 -34q8 -21 8 -42q0 -20 -8 -41q-9 -20 -23 -34q-14 -15 -34 -22q-20 -9 -42 -9q-45 0 -75 31q-31 30 -31 75q0 22 9 42q7 19 22 34q14 14 34 23q21 8 41 8zM0 1307z" />
    <glyph glyph-name="uni0408" unicode="&#x408;" 
d="M199 1307h678v-908q0 -85 -25 -159q-26 -77 -76 -132q-51 -56 -128 -89q-76 -33 -181 -33q-39 0 -79 6q-40 4 -78 15q-36 9 -71 23q-37 15 -57 29v179q63 -46 138 -71q76 -26 149 -26q110 0 168 67q59 67 59 191v754h-497v154z" />
    <glyph glyph-name="uni0409" unicode="&#x409;" 
d="M664 774h94q100 0 168 -28q67 -28 111 -80q42 -50 62 -121q19 -69 19 -152q0 -198 -90 -295q-92 -98 -268 -98h-262v1164h-125q-15 -286 -20 -368q-11 -168 -27 -302q-16 -135 -42 -236q-24 -96 -61 -158q-34 -58 -76 -83q-42 -24 -82 -24q-41 0 -79 13l8 141
q56 -5 93 59q38 65 63 205q24 132 41 363q15 207 28 533h445v-533zM944 387q0 49 -8 97q-7 43 -29 77q-23 33 -59 52q-38 18 -96 18h-88v-488h96q51 0 88 17q33 16 57 49q21 31 30 77q9 45 9 101z" />
    <glyph glyph-name="uni040A" unicode="&#x40a;" 
d="M944 387q0 57 -9 102q-9 46 -30 77q-23 32 -59 48q-39 17 -94 17h-88v-488h96q51 0 88 17q33 16 57 49q21 31 30 77q9 45 9 101zM498 753v554h166v-533h94q101 0 167 -28q68 -29 112 -80q42 -50 62 -121q19 -69 19 -152q0 -190 -89 -291q-89 -102 -269 -102h-262v610
h-250v-610h-166v1307h166v-554h250z" />
    <glyph glyph-name="uni040B" unicode="&#x40b;" 
d="M426 1155v-309h207q109 0 193 -24t140 -76q58 -53 86 -135q29 -84 29 -199v-412h-180v397q0 84 -15 142q-15 57 -48 93q-35 35 -89 51q-55 15 -135 15h-188v-698h-180v1155h-242v152h746v-152h-324z" />
    <glyph glyph-name="uni040C" unicode="&#x40c;" 
d="M508 686l539 -686h-224l-489 641v-641h-178v1307h178v-607l479 607h211zM670 1659h252l-285 -213h-178zM0 1307z" />
    <glyph glyph-name="uni040D" unicode="&#x40d;" 
d="M119 1307h178v-988l541 988h169v-1307h-178v987l-540 -987h-170v1307zM457 1659l211 -213h-179l-284 213h252zM0 1307z" />
    <glyph glyph-name="uni040E" unicode="&#x40e;" 
d="M150 6l8 152q32 -8 60 -12q25 -4 54 -4q42 0 75 13q35 12 66 42q31 29 60 80q30 53 58 124l-474 906h205l258 -504l94 -191h2l70 181l201 514h188l-393 -971q-32 -77 -64 -138q-34 -63 -79 -113q-43 -48 -101 -75q-57 -28 -133 -28q-31 0 -73 5q-33 4 -82 19zM715 1638
h159q0 -58 -23 -102q-22 -44 -64 -75q-42 -30 -99 -45q-59 -15 -127 -15q-161 0 -232 61q-73 60 -73 176h158q0 -27 8 -51q7 -24 25 -40q17 -17 46 -26q27 -10 70 -10q45 0 72 10q28 9 47 26t26 40q7 21 7 51zM0 1307z" />
    <glyph glyph-name="uni040F" unicode="&#x40f;" 
d="M649 0l-8 -283h-156l-8 283h-354v1307h178v-1153h524v1153h178v-1307h-354z" />
    <glyph glyph-name="uni0410" unicode="&#x410;" 
d="M688 1307l428 -1307h-194l-91 285h-544l-92 -285h-185l434 1307h244zM338 444h442l-221 699z" />
    <glyph glyph-name="uni0411" unicode="&#x411;" 
d="M336 1157v-387h211q122 0 212 -28q89 -28 153 -79q62 -49 93 -117q31 -66 31 -145q0 -93 -36 -167q-37 -75 -103 -127q-67 -52 -160 -79q-93 -28 -209 -28h-370v1307h786v-150h-608zM848 389q0 53 -18 96q-17 41 -56 74q-37 31 -97 48q-57 16 -142 16h-199v-473h205
q152 0 230 63q77 62 77 176z" />
    <glyph glyph-name="uni0412" unicode="&#x412;" 
d="M1016 391q0 -94 -36 -166q-38 -75 -104 -123q-69 -51 -163 -76q-98 -26 -213 -26h-342v1307h374q437 0 437 -318q0 -105 -50 -182q-50 -75 -165 -113q55 -11 101 -34q47 -24 83 -62t57 -90t21 -117zM784 965q0 40 -12 76t-42 61q-29 25 -81 40q-51 15 -129 15h-184v-409
h178q63 0 111 13q50 14 85 40q36 28 55 68q19 39 19 96zM827 385q0 49 -21 90q-20 39 -61 68q-41 27 -97 42q-58 15 -130 15h-182v-450h188q153 0 228 57t75 178z" />
    <glyph glyph-name="uni0413" unicode="&#x413;" 
d="M985 1151h-571v-1151h-181v1307h752v-156z" />
    <glyph glyph-name="uni0414" unicode="&#x414;" 
d="M776 150v1003h-289q-7 -207 -21 -377q-14 -164 -38 -297q-24 -129 -57 -211q-34 -84 -78 -118h483zM954 150h144l-13 -433h-159v283h-742v-283h-159l-13 433h15q33 0 65 20t62 69q30 50 57 133q25 84 48 213q20 116 38 306q16 170 25 416h632v-1157z" />
    <glyph glyph-name="uni0415" unicode="&#x415;" 
d="M944 152v-152h-743v1307h743v-150h-565v-405h543v-150h-543v-450h565z" />
    <glyph glyph-name="uni0416" unicode="&#x416;" 
d="M645 1307v-635l307 635h170l-305 -629l324 -678h-189l-307 670v-670h-164v670l-307 -670h-184l323 674l-309 633h174l303 -635v635h164z" />
    <glyph glyph-name="uni0417" unicode="&#x417;" 
d="M109 39v164q71 -30 166 -50q88 -19 214 -19q153 0 230 66q76 66 76 187q0 49 -21 90q-23 39 -62 67q-40 27 -99 42q-61 14 -130 14h-274v147h270q60 0 111 14t86 40q36 27 56 68q20 42 20 97q0 40 -12 78q-15 40 -44 67q-33 30 -82 47q-53 17 -129 17q-87 0 -169 -13
q-92 -15 -173 -41v155q66 20 160 35q86 12 199 12q221 0 328 -88q108 -89 108 -246q0 -107 -51 -183t-164 -114q53 -11 101 -33q47 -24 83 -62q36 -37 57 -89t21 -117q0 -94 -36 -169q-39 -77 -104 -128q-67 -52 -163 -81q-98 -29 -213 -29q-204 0 -360 55z" />
    <glyph glyph-name="uni0418" unicode="&#x418;" 
d="M119 1307h178v-988l541 988h169v-1307h-178v987l-540 -987h-170v1307z" />
    <glyph glyph-name="uni0419" unicode="&#x419;" 
d="M119 1307h178v-988l541 988h169v-1307h-178v987l-540 -987h-170v1307zM715 1638h159q0 -58 -23 -102q-22 -44 -64 -75q-42 -30 -99 -45q-59 -15 -127 -15q-161 0 -232 61q-73 60 -73 176h158q0 -27 8 -51q7 -24 25 -40q17 -17 46 -26q27 -10 70 -10q45 0 72 10
q28 9 47 26t26 40q7 21 7 51zM0 1307z" />
    <glyph glyph-name="uni041A" unicode="&#x41a;" 
d="M508 686l539 -686h-224l-489 641v-641h-178v1307h178v-607l479 607h211z" />
    <glyph glyph-name="uni041B" unicode="&#x41b;" 
d="M969 1307v-1307h-178v1153h-289q-9 -262 -28 -444q-19 -185 -50 -321q-30 -134 -67 -209q-37 -77 -75 -114q-40 -39 -79 -53q-39 -16 -90 -16q-43 0 -86 10l8 152q55 -7 97 29q40 36 72 108q30 68 52 175q21 104 36 234q16 139 26 282q10 152 18 321h633z" />
    <glyph glyph-name="uni041C" unicode="&#x41c;" 
d="M1014 1307l63 -1307h-174l-26 815l-11 313l-61 -182l-193 -520h-123l-184 500l-61 202l-4 -327l-23 -801h-168l64 1307h211l176 -492l57 -166l55 166l185 492h217z" />
    <glyph glyph-name="uni041D" unicode="&#x41d;" 
d="M1016 1307v-1307h-178v600h-549v-600h-178v1307h178v-553h549v553h178z" />
    <glyph glyph-name="uni041E" unicode="&#x41e;" 
d="M1071 662q0 -175 -41 -304q-43 -130 -112 -211q-70 -83 -165 -124q-96 -41 -200 -41q-127 0 -219 46q-92 44 -155 131q-62 87 -92 210t-30 278q0 173 41 302q40 126 112 212q72 85 164 124q93 40 199 40q127 0 220 -46q95 -47 155 -131q61 -85 93 -209q30 -123 30 -277z
M886 649q0 112 -17 211q-18 95 -57 164q-40 70 -100 107q-62 38 -149 38q-85 0 -144 -40q-60 -40 -100 -110q-38 -69 -58 -163q-19 -92 -19 -199q0 -117 18 -211q18 -97 57 -164q38 -70 99 -107q62 -38 147 -38q83 0 145 41q61 40 101 110q38 68 58 162q19 91 19 199z" />
    <glyph glyph-name="uni041F" unicode="&#x41f;" 
d="M1009 1307v-1307h-178v1149h-536v-1149h-178v1307h892z" />
    <glyph glyph-name="uni0420" unicode="&#x420;" 
d="M1016 907q0 -80 -30 -158q-30 -79 -93 -141q-64 -63 -161 -100q-98 -39 -234 -39h-162v-469h-178v1307h368q98 0 186 -21q91 -23 157 -70t107 -124q40 -76 40 -185zM831 899q0 126 -82 193t-231 67h-182v-538h166q158 0 244 69q85 69 85 209z" />
    <glyph glyph-name="uni0421" unicode="&#x421;" 
d="M995 217v-168q-159 -65 -329 -65q-277 0 -425 166q-149 166 -149 489q0 155 41 284q41 127 117 216q76 88 184 136t242 48q91 0 169 -15q78 -16 150 -48v-175q-71 39 -147 60q-78 20 -166 20q-94 0 -166 -34q-73 -34 -127 -100q-51 -64 -80 -160q-28 -93 -28 -216
q0 -255 103 -383q104 -129 302 -129q83 0 161 20q79 20 148 54z" />
    <glyph glyph-name="uni0422" unicode="&#x422;" 
d="M1040 1307v-152h-387v-1155h-180v1155h-387v152h954z" />
    <glyph glyph-name="uni0423" unicode="&#x423;" 
d="M150 6l8 152q32 -8 60 -12q25 -4 54 -4q42 0 75 13q35 12 66 42q31 29 60 80q30 53 58 124l-474 906h205l258 -504l94 -191h2l70 181l201 514h188l-393 -971q-32 -77 -64 -138q-34 -63 -79 -113q-43 -48 -101 -75q-57 -28 -133 -28q-31 0 -73 5q-33 4 -82 19z" />
    <glyph glyph-name="uni0424" unicode="&#x424;" 
d="M645 113v-131h-164v131q-99 8 -178 39q-81 31 -139 94q-60 63 -91 161q-32 99 -32 240q0 142 35 242q35 98 94 162q60 63 140 96t171 45v133h164v-133q103 -7 187 -44q82 -37 139 -102q56 -67 86 -162q30 -96 30 -222q0 -144 -37 -242q-38 -101 -98 -164
q-62 -65 -141 -98q-79 -34 -166 -45zM481 263v779q-68 -7 -120 -37q-52 -31 -82 -79q-33 -50 -48 -116q-16 -65 -16 -153q0 -102 18 -173q16 -71 51 -118t84 -71q47 -24 113 -32zM645 1042v-779q69 9 120 39q50 30 83 81q32 49 49 116q16 63 16 150q0 85 -15 153
q-15 64 -47 118q-32 51 -84 83q-53 32 -122 39zM0 1307z" />
    <glyph glyph-name="uni0425" unicode="&#x425;" 
d="M668 676l434 -676h-225l-318 528l-319 -528h-222l435 668l-400 639h211l299 -492l301 492h205z" />
    <glyph glyph-name="uni0426" unicode="&#x426;" 
d="M979 154h121l-13 -437h-159v283h-801v1307h178v-1153h496v1153h178v-1153z" />
    <glyph glyph-name="uni0427" unicode="&#x427;" 
d="M838 0v575q-57 -19 -128 -32q-75 -15 -159 -15q-120 0 -207 32q-85 31 -140 91q-54 59 -78 141q-25 81 -25 183v332h179v-318q0 -77 15 -135t48 -97t86 -59q54 -20 128 -20q82 0 154 13q73 12 127 32v584h178v-1307h-178z" />
    <glyph glyph-name="uni0428" unicode="&#x428;" 
d="M84 0v1307h164v-1164h235v1164h160v-1164h235v1164h164v-1307h-958z" />
    <glyph glyph-name="uni0429" unicode="&#x429;" 
d="M948 0h-874v1307h164v-1164h235v1164h160v-1164h235v1164h164v-1164h80l-12 -426h-152v283z" />
    <glyph glyph-name="uni042A" unicode="&#x42a;" 
d="M250 1155h-215v152h393v-516h139q122 0 217 -29q92 -30 153 -81q60 -51 90 -120t30 -149q0 -100 -36 -177q-38 -77 -103 -129q-67 -52 -161 -79q-95 -27 -208 -27h-299v1155zM868 399q0 57 -16 102q-17 46 -54 77q-38 32 -96 48q-62 17 -147 17h-127v-493h133
q157 0 232 66q75 64 75 183z" />
    <glyph glyph-name="uni042B" unicode="&#x42b;" 
d="M254 1307v-516h104q110 0 190 -30q80 -32 128 -82q50 -53 72 -121q22 -67 22 -146q0 -104 -27 -176q-29 -74 -81 -126t-131 -81t-179 -29h-270v1307h172zM596 399q0 58 -12 103q-14 47 -41 77q-28 31 -74 48q-45 16 -111 16h-104v-491h100q126 0 185 65q57 65 57 182z
M1044 0h-172v1307h172v-1307z" />
    <glyph glyph-name="uni042C" unicode="&#x42c;" 
d="M336 1307v-516h211q122 0 215 -29q90 -29 152 -81q60 -50 92 -120q30 -69 30 -149q0 -96 -35 -174q-36 -76 -102 -129t-160 -81q-93 -28 -211 -28h-370v1307h178zM846 399q0 58 -16 102q-17 47 -53 77q-37 32 -96 48q-60 17 -146 17h-199v-493h205q157 0 231 66
q74 65 74 183z" />
    <glyph glyph-name="uni042D" unicode="&#x42d;" 
d="M229 752h619q-9 101 -36 181q-29 80 -77 132q-49 53 -123 82q-73 27 -172 27q-85 0 -160 -19t-149 -55v160q86 34 161 49q79 16 169 16q146 0 253 -43t180 -128q71 -85 107 -206q35 -125 35 -280q0 -173 -37 -302q-37 -130 -115 -217q-76 -85 -185 -126
q-111 -41 -248 -41q-93 0 -169 16q-77 14 -151 47v170q71 -38 148 -59t165 -21q203 0 301 116t107 351h-623v150z" />
    <glyph glyph-name="uni042E" unicode="&#x42e;" 
d="M250 750h178q5 152 26 256q21 107 62 179q41 71 103 106q61 34 147 34q101 0 164 -45q64 -46 98 -130q35 -87 47 -208q12 -125 12 -280q0 -173 -16 -297q-16 -126 -56 -213q-41 -86 -104 -127q-64 -43 -161 -43t-158 43q-63 44 -98 124q-37 81 -50 196q-14 111 -16 259
h-178v-604h-166v1307h166v-557zM920 653q0 129 -6 230q-6 96 -23 167q-16 66 -49 102q-31 34 -84 34q-47 0 -79 -35t-50 -102q-19 -67 -27 -167q-8 -107 -8 -229q0 -128 6 -227t24 -167q16 -67 49 -103q32 -35 85 -35q51 0 82 37q31 35 49 105q17 66 25 168q6 97 6 222z" />
    <glyph glyph-name="uni042F" unicode="&#x42f;" 
d="M94 0l144 389q22 57 43 87q22 33 43 54q23 23 46 36q18 11 44 20q-56 10 -104 41q-45 29 -76 74q-30 42 -46 100q-16 54 -16 114q0 85 26 158q26 72 80 123q53 52 141 82q87 29 212 29h325v-1307h-180v541h-135q-42 0 -71 -7q-35 -8 -59 -25q-27 -19 -48 -51
q-23 -32 -39 -81l-131 -377h-199zM359 926q0 -60 17 -105q16 -43 50 -75q32 -31 83 -46q48 -16 114 -16h153v473h-160q-128 0 -192 -60q-65 -60 -65 -171z" />
    <glyph glyph-name="uni0430" unicode="&#x430;" 
d="M961 0h-156l-4 135q-83 -81 -166 -117q-85 -36 -178 -36q-87 0 -147 22q-62 22 -100 61q-40 37 -58 90q-19 51 -19 113q0 151 113 237q112 85 332 85h208v88q0 89 -57 143q-58 53 -174 53q-87 0 -167 -19q-82 -19 -171 -54v157q31 11 74 24q51 13 85 20q46 9 94 15
q55 5 99 5q89 0 164 -20q71 -19 124 -61q50 -41 77 -103q27 -61 27 -146v-692zM786 279v178h-221q-67 0 -112 -13q-48 -14 -77 -37q-31 -25 -44 -57q-15 -34 -15 -76q0 -30 9 -55q9 -27 29 -47q19 -20 52 -33q31 -12 78 -12q61 0 138 37q80 37 163 115z" />
    <glyph glyph-name="uni0431" unicode="&#x431;" 
d="M858 481q0 89 -19 152q-18 60 -52 107q-32 43 -75 64q-42 21 -88 21q-48 0 -86 -13t-78 -40q-39 -28 -76 -68q-34 -36 -81 -100v-19q0 -136 21 -223q21 -88 57 -139t86 -71q49 -21 108 -21q71 0 123 30q53 29 89 78q35 49 53 111q18 63 18 131zM291 777q71 97 156 147
q85 48 194 48q87 0 159 -31q71 -31 125 -94q51 -60 82 -152q29 -93 29 -208q0 -111 -34 -203q-34 -90 -97 -160q-61 -65 -149 -104q-88 -38 -191 -38q-107 0 -191 38q-83 38 -138 115q-54 74 -83 196q-28 116 -28 281q0 203 34 340q35 140 99 233q64 91 161 144
q96 52 218 74q37 8 76 12l78 9q11 1 36.5 3.5t38.5 4.5q41 5 64 10v-160q-24 -6 -45 -8q-25 -3 -54 -6q-19 -2 -59 -6q-37 -4 -59 -7q-119 -15 -192 -49q-75 -35 -121 -92q-45 -57 -70 -142q-24 -84 -39 -195z" />
    <glyph glyph-name="uni0432" unicode="&#x432;" 
d="M1022 293q0 -68 -29 -126q-28 -56 -90 -97t-154 -63q-97 -23 -223 -23q-91 0 -181 7q-88 6 -185 17v991q106 12 191 17q96 6 208 6q203 0 309 -66q105 -68 105 -192q0 -85 -49 -146q-50 -62 -148 -90q46 -7 93 -26q43 -20 78 -48q34 -30 55 -70q20 -42 20 -91zM795 729
q0 33 -14 63q-13 28 -44 48q-34 21 -80 31q-47 10 -120 10q-48 0 -110 -2q-47 -3 -93 -9v-290h202q259 0 259 149zM838 289q0 78 -70 118q-70 39 -220 39h-214v-307q55 -8 97 -11q48 -3 110 -3q89 0 147 12q57 12 91 34q33 22 46 52q13 29 13 66z" />
    <glyph glyph-name="uni0433" unicode="&#x433;" 
d="M969 854h-551v-854h-176v1004h727v-150z" />
    <glyph glyph-name="uni0434" unicode="&#x434;" 
d="M774 150v704h-280q-11 -184 -26 -293q-17 -124 -37 -203q-23 -84 -50 -131q-28 -49 -62 -77h455zM948 150h144l-11 -406h-159v256h-732v-256h-157l-10 406h14q37 0 72 12t63 46q28 33 54 93q25 60 44 154q19 90 34 229q13 134 24 320h620v-854z" />
    <glyph glyph-name="uni0435" unicode="&#x435;" 
d="M1008 555q0 -45 -1 -62t-3 -47h-705q0 -153 86 -236t248 -83q49 0 88 4q45 3 85 9q35 5 79 14q43 9 69 16v-143q-73 -20 -160 -32q-87 -13 -186 -13q-128 0 -222 35t-152 102q-59 65 -88 163t-29 218q0 108 31 201q29 93 89 166q60 72 143 113q85 42 193 42
q105 0 186 -33q82 -33 137 -93q56 -62 84 -147t28 -194zM299 580h528q3 69 -13 123q-16 55 -49 95q-35 40 -84 63q-48 22 -116 22q-59 0 -104 -22q-48 -23 -81 -62q-34 -39 -55 -96q-22 -57 -26 -123z" />
    <glyph glyph-name="uni0436" unicode="&#x436;" 
d="M330 520l-324 484h172l305 -484v484h160v-484l305 484h172l-323 -484l331 -520h-190l-295 510v-510h-160v510l-295 -510h-190z" />
    <glyph glyph-name="uni0437" unicode="&#x437;" 
d="M133 18v162q42 -11 94 -21q33 -6 99 -16q44 -7 95 -10q40 -4 81 -4q82 0 142 11q54 10 90 32q33 20 47 50t14 66t-12 66q-13 28 -45 51q-32 22 -89 34q-55 12 -143 12h-246v135h245q78 0 125 10q49 11 76 29q27 19 38 46q10 26 10 62q0 34 -12 61q-14 26 -42 45
q-27 17 -77 28q-46 10 -119 10q-74 0 -171 -11q-89 -10 -186 -32v147q47 10 89 17q61 10 96 13q68 6 98 8q48 3 92 3q120 0 197 -19t127 -55q48 -35 68 -83q20 -49 20 -105q0 -42 -12 -79q-13 -39 -37 -68q-25 -30 -63 -51q-39 -21 -93 -30q51 -7 100 -26q46 -19 80 -49
q34 -33 53 -73q19 -41 19 -96q0 -68 -25 -122q-25 -56 -84 -97q-61 -42 -153 -64q-97 -23 -233 -23q-38 0 -81 3q-30 1 -92 7t-94 11q-44 6 -86 15z" />
    <glyph glyph-name="uni0438" unicode="&#x438;" 
d="M174 1004h174v-707l438 707h166v-1004h-174v707l-438 -707h-166v1004z" />
    <glyph glyph-name="uni0439" unicode="&#x439;" 
d="M174 1004h174v-707l438 707h166v-1004h-174v707l-438 -707h-166v1004zM711 1391h159q0 -60 -22 -105q-22 -46 -63 -78q-41 -34 -98 -50q-59 -17 -126 -17q-78 0 -137 17q-56 16 -93 50q-37 32 -54 78q-17 48 -17 105h158q0 -30 7 -54t24 -44q18 -21 44 -31q30 -11 70 -11
q42 0 72 11q27 10 45 31q17 20 24 44t7 54zM0 1004z" />
    <glyph glyph-name="uni043A" unicode="&#x43a;" 
d="M566 541l497 -541h-239l-468 538v-538h-174v1004h174v-459l451 459h230z" />
    <glyph glyph-name="uni043B" unicode="&#x43b;" 
d="M958 1004v-1004h-174v854h-280q-12 -201 -35 -353q-24 -148 -57 -245q-33 -100 -75 -155q-41 -56 -90 -82q-51 -26 -103 -25q-52 0 -111 14l8 144q37 -4 75 4q35 8 65 39q29 29 55 88q25 59 44 153q20 101 35 236q15 150 23 332h620z" />
    <glyph glyph-name="uni043C" unicode="&#x43c;" 
d="M1014 1004l63 -1004h-172l-26 627l-11 223l-59 -156l-188 -456h-127l-181 438l-63 174l-8 -236l-27 -614h-166l64 1004h231l172 -433l47 -129l47 129l176 433h228z" />
    <glyph glyph-name="uni043D" unicode="&#x43d;" 
d="M967 1004v-1004h-174v444h-459v-444h-174v1004h174v-408h459v408h174z" />
    <glyph glyph-name="uni043E" unicode="&#x43e;" 
d="M1034 510q0 -117 -33 -214t-95 -167q-61 -70 -151 -108q-88 -39 -202 -39q-109 0 -193 34q-86 33 -145 98q-59 63 -91 161t-32 221q0 116 33 214q32 94 95 166q61 68 151 108q90 38 202 38q109 0 194 -33q86 -35 145 -98q60 -66 91 -161q31 -94 31 -220zM856 502
q0 91 -20 163q-21 69 -59 116q-37 45 -92 70q-57 23 -122 23q-77 0 -133 -30q-58 -33 -91 -82q-35 -50 -52 -118q-17 -70 -17 -142q0 -92 21 -163q19 -67 58 -116q38 -48 92 -70q54 -24 122 -24q79 0 134 31q55 30 91 81q36 53 52 119q16 65 16 142z" />
    <glyph glyph-name="uni043F" unicode="&#x43f;" 
d="M967 1004v-1004h-174v852h-459v-852h-174v1004h807z" />
    <glyph glyph-name="uni0440" unicode="&#x440;" 
d="M1018 520q0 -135 -37 -234t-104 -166q-66 -66 -156 -99t-195 -33q-43 0 -95 5q-44 4 -97 17v-420h-174v1414h155l11 -168q75 103 160 145q87 41 184 41q86 0 151 -36q66 -37 109 -101q43 -66 66 -158q22 -91 22 -207zM840 512q0 76 -11 145q-12 68 -37 113q-26 48 -64 74
q-40 26 -93 26q-34 0 -67 -10q-32 -10 -70 -35q-38 -26 -77 -65t-87 -101v-487q52 -21 101 -31q53 -12 104 -12q141 0 221 96q80 95 80 287z" />
    <glyph glyph-name="uni0441" unicode="&#x441;" 
d="M940 199v-162q-69 -26 -139 -38q-69 -13 -148 -13q-239 0 -366 129q-129 129 -129 377q0 120 37 216q38 98 104 166q69 70 160 107q92 37 205 37q75 0 146 -11q69 -11 130 -36v-166q-61 33 -132 50q-67 15 -140 15q-69 0 -126 -25q-59 -25 -105 -74t-71 -117
q-26 -70 -26 -156q0 -181 89 -272q88 -91 245 -91q73 0 138 16q67 17 128 48z" />
    <glyph glyph-name="uni0442" unicode="&#x442;" 
d="M1032 1004v-150h-381v-854h-176v854h-381v150h938z" />
    <glyph glyph-name="uni0443" unicode="&#x443;" 
d="M862 1004h191l-342 -898q-51 -132 -109 -236q-58 -100 -124 -162q-67 -64 -147 -94q-79 -30 -179 -30q-33 0 -47 1q-23 2 -46 3v158q29 -4 48 -5q26 -3 55 -3q46 0 90 14q39 13 78 46q35 29 71 81q33 48 66 121l-401 1004h198l254 -664l51 -156l58 160z" />
    <glyph glyph-name="uni0444" unicode="&#x444;" 
d="M645 -12v-398h-164v396q-221 12 -330 133q-110 122 -110 379q0 127 32 223q31 93 90 156q59 62 139 96q81 34 179 45v395h164v-393q111 -8 193 -39t138 -92q54 -60 83 -154q28 -93 28 -225q0 -137 -34 -230q-34 -94 -95 -156q-61 -63 -140 -94q-81 -31 -173 -42zM481 129
v748q-71 -11 -122 -40q-54 -32 -85 -81q-32 -50 -45 -114q-14 -67 -14 -136q0 -89 15 -155q15 -65 48 -112q31 -46 82 -74q49 -27 121 -36zM645 877v-748q70 11 121 40q53 30 84 79q32 50 48 113q15 65 15 139q0 95 -17 165q-18 69 -52 113q-36 45 -84 67q-51 23 -115 32z
" />
    <glyph glyph-name="uni0445" unicode="&#x445;" 
d="M672 500l393 -500h-231l-271 383l-268 -383h-225l389 504l-371 500h223l264 -386l259 386h215z" />
    <glyph glyph-name="uni0446" unicode="&#x446;" 
d="M958 150h121l-10 -406h-158v256h-759v1004h174v-854h458v854h174v-854z" />
    <glyph glyph-name="uni0447" unicode="&#x447;" 
d="M793 0v389h-207q-232 0 -342 87q-109 87 -109 253v275h176v-252q0 -62 16 -101q17 -41 52 -66q36 -27 91 -37q58 -11 134 -11h189v467h174v-1004h-174z" />
    <glyph glyph-name="uni0448" unicode="&#x448;" 
d="M90 0v1004h160v-861h233v861h160v-861h233v861h160v-1004h-946z" />
    <glyph glyph-name="uni0449" unicode="&#x449;" 
d="M944 0h-868v1004h160v-861h233v861h160v-861h233v861h160v-861h86l-10 -399h-154v256z" />
    <glyph glyph-name="uni044A" unicode="&#x44a;" 
d="M860 313q0 89 -66 129q-68 41 -202 41q-58 0 -89 -1q-47 -2 -87 -3v-337q41 -5 85 -6q60 -2 87 -2q67 0 118 9q51 7 86 29q34 21 51 56q17 36 17 85zM416 1004v-379q40 1 87 3q31 1 94 1q218 0 330 -79q111 -80 111 -235q0 -85 -32 -147q-31 -61 -92 -102
q-58 -39 -144 -59q-83 -19 -190 -19q-83 0 -178 5q-87 5 -160 15v850h-207v146h381z" />
    <glyph glyph-name="uni044B" unicode="&#x44b;" 
d="M1044 0h-172v1004h172v-1004zM582 308q0 80 -49 123t-158 43q-39 0 -59 -1t-62 -3v-330q31 -4 61 -6q38 -2 58 -2q61 0 101 15q39 13 64 38q24 25 34 56q10 30 10 67zM254 1004v-388q12 0 34.5 0.5t33.5 1.5h65q96 0 165 -22q70 -22 117 -63t70 -97q23 -58 23 -123
q0 -80 -27 -140q-27 -61 -77 -102t-122 -62q-74 -21 -173 -21q-72 0 -135 4q-68 3 -146 14v998h172z" />
    <glyph glyph-name="uni044C" unicode="&#x44c;" 
d="M836 313q0 43 -15 74q-16 31 -50 53q-36 22 -88 32q-57 11 -130 11q-67 0 -105 -1q-57 -2 -108 -3v-335q69 -6 99 -7q46 -3 104 -3q82 0 140 11t90 32q34 21 49 55q14 36 14 81zM340 1004v-379q8 1 25 1t25 1q34 0 51 1q36 0 55 1h63q233 0 345 -79t112 -233
q0 -163 -119 -246t-360 -83q-99 0 -197 5q-88 5 -174 15v996h174z" />
    <glyph glyph-name="uni044D" unicode="&#x44d;" 
d="M215 580h596q-8 72 -34 132q-28 61 -73 98q-45 36 -111 53q-63 16 -138 16q-83 0 -156 -16q-76 -17 -143 -48v156q73 25 154 39q80 12 163 12q131 0 229 -34q98 -35 164 -99q65 -67 98 -161q33 -96 33 -220q0 -130 -34 -228q-34 -97 -104 -166q-69 -68 -168 -99
q-99 -33 -226 -33q-84 0 -164 11q-78 11 -145 36v161q69 -34 147 -49q73 -16 154 -16q173 0 260 81t98 236h-600v138z" />
    <glyph glyph-name="uni044E" unicode="&#x44e;" 
d="M248 580h182q6 115 29 201q23 84 64 137q43 54 103 79t142 25q90 0 152 -30q60 -31 98 -94q36 -61 53 -160q16 -95 16 -230q0 -270 -80 -398t-259 -128q-94 0 -156 32q-61 31 -97 93q-37 63 -50 148q-13 87 -15 198h-182v-453h-164v1004h164v-424zM922 502q0 208 -36 297
q-36 88 -128 88q-42 0 -71 -19q-32 -20 -51 -64q-20 -43 -31 -119q-11 -77 -11 -183q0 -116 11 -193q11 -76 31 -118q21 -43 52 -58q29 -16 70 -16q43 0 74 19q32 20 51 64q19 45 30 119q9 73 9 183z" />
    <glyph glyph-name="uni044F" unicode="&#x44f;" 
d="M86 0l137 290q33 70 73 106q39 36 99 48q-64 12 -104 39q-41 28 -65 63q-25 34 -34 75q-10 39 -10 79q0 67 22 124q22 58 71 101q48 42 129 68q78 25 227 25q74 0 164 -5q58 -4 159 -14v-999h-174v389h-151q-35 0 -71 -6q-37 -7 -67 -24q-31 -19 -54 -46q-24 -27 -44 -71
l-110 -242h-197zM360 702q0 -85 59 -129q58 -43 173 -43h188v336q-44 5 -83 6q-54 2 -84 2q-84 0 -131 -11q-46 -12 -71 -33q-27 -24 -38 -53q-13 -30 -13 -75z" />
    <glyph glyph-name="uni0450" unicode="&#x450;" 
d="M1008 555q0 -45 -1 -62t-3 -47h-705q0 -153 86 -236t248 -83q49 0 88 4q45 3 85 9q35 5 79 14q43 9 69 16v-143q-73 -20 -160 -32q-87 -13 -186 -13q-128 0 -222 35t-152 102q-59 65 -88 163t-29 218q0 108 31 201q29 93 89 166q60 72 143 113q85 42 193 42
q105 0 186 -33q82 -33 137 -93q56 -62 84 -147t28 -194zM299 580h528q3 69 -13 123q-16 55 -49 95q-35 40 -84 63q-48 22 -116 22q-59 0 -104 -22q-48 -23 -81 -62q-34 -39 -55 -96q-22 -57 -26 -123zM426 1413l242 -242h-174l-320 242h252zM0 1004z" />
    <glyph glyph-name="uni0451" unicode="&#x451;" 
d="M1008 555q0 -45 -1 -62t-3 -47h-705q0 -153 86 -236t248 -83q49 0 88 4q45 3 85 9q35 5 79 14q43 9 69 16v-143q-73 -20 -160 -32q-87 -13 -186 -13q-128 0 -222 35t-152 102q-59 65 -88 163t-29 218q0 108 31 201q29 93 89 166q60 72 143 113q85 42 193 42
q105 0 186 -33q82 -33 137 -93q56 -62 84 -147t28 -194zM299 580h528q3 69 -13 123q-16 55 -49 95q-35 40 -84 63q-48 22 -116 22q-59 0 -104 -22q-48 -23 -81 -62q-34 -39 -55 -96q-22 -57 -26 -123zM348 1405q23 0 44 -9q20 -9 36 -24q15 -16 24 -36q9 -21 9 -44
q0 -24 -9 -43q-9 -21 -24 -36q-16 -15 -36 -24q-21 -9 -44 -9q-24 0 -43 9q-21 9 -36 24t-24 36q-9 19 -9 43q0 23 9 44q9 20 24 36q15 15 36 24q19 9 43 9zM778 1405q23 0 44 -9q20 -9 36 -24q15 -16 24 -36q9 -21 9 -44q0 -24 -9 -43q-9 -21 -24 -36q-16 -15 -36 -24
q-21 -9 -44 -9q-24 0 -43 9q-21 9 -36 24t-24 36q-9 20 -9 43t9 44q9 20 24 36q15 15 36 24q20 9 43 9zM0 1004z" />
    <glyph glyph-name="uni0452" unicode="&#x452;" 
d="M334 1280h315v-141h-315v-176l-6 -164q32 39 76 79q37 32 76 55q41 22 82 32q40 10 91 10q81 0 143 -28q62 -29 105 -99t66 -189q22 -117 22 -299v-2q0 -179 -13 -299q-14 -132 -38 -212q-26 -87 -63 -139t-84 -81q-45 -28 -104 -37q-54 -10 -122 -10v150q39 0 73 6
q31 4 61 25q27 18 50 60q21 41 36 110q16 74 23 174q7 97 7 253v2q0 128 -11 222q-12 87 -35 143q-23 54 -59 77q-37 23 -85 23q-35 0 -65 -9q-31 -10 -64 -33q-35 -25 -72 -64q-45 -47 -90 -101v-618h-174v1139h-160v141h160v133h174v-133zM0 1022z" />
    <glyph glyph-name="uni0453" unicode="&#x453;" 
d="M969 854h-551v-854h-176v1004h727v-150zM700 1413h252l-319 -242h-174zM0 1004z" />
    <glyph glyph-name="uni0454" unicode="&#x454;" 
d="M340 580h600v-138h-600q10 -159 97 -238q86 -79 270 -79q159 0 292 63v-155q-74 -26 -149 -38q-75 -13 -160 -13q-271 0 -402 128q-130 127 -130 382q0 129 38 231q38 100 107 166q70 66 170 100q101 33 225 33q85 0 162 -11q73 -10 139 -36v-162q-66 32 -146 50
q-73 16 -159 16q-76 0 -138 -18q-64 -20 -109 -56q-46 -37 -73 -96q-28 -57 -34 -129z" />
    <glyph glyph-name="uni0455" unicode="&#x455;" 
d="M955 274q0 -53 -18 -95q-19 -44 -49 -74q-33 -34 -72 -56q-43 -24 -87 -38t-96 -22q-46 -7 -96 -7q-101 0 -187 9q-82 9 -168 29v160q82 -24 175 -38q84 -13 173 -13q126 0 185 34q60 35 60 97q0 26 -9 49q-12 23 -35 41q-25 19 -77 40t-144 48q-63 18 -125 46
q-57 25 -100 60q-41 34 -66 82q-24 46 -24 111q0 41 20 92q19 49 66 93q46 43 127 72q78 28 200 28q59 0 131 -6q81 -8 150 -23v-155q-84 20 -155 30q-73 9 -128 9q-68 0 -109 -10q-45 -11 -72 -27q-27 -17 -40 -41q-12 -24 -12 -51q0 -25 11 -49q10 -23 39 -42
q30 -22 79 -41q52 -21 133 -45q89 -25 150 -54q59 -27 99 -64q38 -35 55 -79q16 -42 16 -100z" />
    <glyph glyph-name="uni0456" unicode="&#x456;" 
d="M502 145v715h-297v144h473v-859h299v-145h-805v145h330zM563 1425q30 0 54 -10t44 -30q19 -21 29 -43q10 -24 10 -54q0 -29 -10 -53q-9 -23 -29 -44q-18 -18 -44 -29q-27 -11 -54 -11t-54 11q-26 11 -43 29q-18 19 -29 44q-11 27 -11 53q0 27 11 54q11 25 29 43
q18 20 43 30q24 10 54 10z" />
    <glyph glyph-name="uni0457" unicode="&#x457;" 
d="M502 145v715h-297v144h473v-859h299v-145h-805v145h330zM348 1405q23 0 44 -9q20 -9 36 -24q15 -16 24 -36q9 -21 9 -44q0 -24 -9 -43q-9 -21 -24 -36q-16 -15 -36 -24q-21 -9 -44 -9q-24 0 -43 9q-21 9 -36 24t-24 36q-9 19 -9 43q0 23 9 44q9 20 24 36q15 15 36 24
q19 9 43 9zM778 1405q23 0 44 -9q20 -9 36 -24q15 -16 24 -36q9 -21 9 -44q0 -24 -9 -43q-9 -21 -24 -36q-16 -15 -36 -24q-21 -9 -44 -9q-24 0 -43 9q-21 9 -36 24t-24 36q-9 20 -9 43t9 44q9 20 24 36q15 15 36 24q20 9 43 9zM0 1004z" />
    <glyph glyph-name="uni0458" unicode="&#x458;" 
d="M172 1004h668v-986q0 -105 -30 -186q-30 -82 -86 -138q-57 -57 -137 -85q-84 -29 -184 -29q-71 0 -144 14q-74 14 -128 37v166q26 -14 67 -29q30 -12 73 -22q33 -8 75 -13t74 -5q114 0 179 72q65 73 65 212v848h-492v144zM735 1425q30 0 54 -10t44 -30q20 -21 29 -44
q10 -24 10 -53q0 -30 -10 -53q-9 -23 -29 -44q-19 -18 -44 -29q-27 -11 -54 -11t-54 11q-26 11 -43 29q-19 19 -29 44q-11 25 -11 53q0 26 11 53q10 25 29 44q18 20 43 30q24 10 54 10z" />
    <glyph glyph-name="uni0459" unicode="&#x459;" 
d="M944 309q0 33 -7 62q-8 30 -28 58q-22 27 -59 40q-38 12 -88 12q-35 0 -49 -1q-21 -2 -51 -3v-342q29 -4 50 -6q26 -2 48 -2q53 0 90 14q35 14 56 38t30 58q8 35 8 72zM662 1004v-386q10 1 28.5 2.5t27.5 1.5q18 1 56 1q90 0 156 -23q64 -24 107 -65q42 -41 62 -98
q19 -56 19 -125q0 -152 -88 -239t-262 -87q-59 0 -132 5q-68 5 -138 15v850h-133q-11 -210 -25 -347q-14 -140 -35 -243q-21 -101 -49 -156q-29 -58 -65 -84q-38 -27 -85 -29q-47 -3 -106 9l8 146q29 -3 56 5q24 7 43 37q18 27 34 86q14 59 26 152q11 84 22 236q7 94 20 336
h453z" />
    <glyph glyph-name="uni045A" unicode="&#x45a;" 
d="M944 309q0 39 -9 71t-30 54q-22 22 -57 34q-34 12 -86 12q-35 0 -49 -1q-21 -1 -51 -3v-339q29 -4 50 -6q26 -2 48 -2q57 0 93 15q36 16 56 40q21 26 28 57t7 68zM498 593v411h164v-386q10 1 28.5 2.5t27.5 1.5q18 1 56 1q93 0 156 -22q64 -22 107 -64q42 -41 62 -98
q19 -56 19 -126q0 -153 -88 -240t-262 -87q-59 0 -132 5q-68 5 -138 15v444h-248v-450h-160v1004h160v-411h248z" />
    <glyph glyph-name="uni045B" unicode="&#x45b;" 
d="M334 1139v-176l-6 -166q38 46 81 83q40 34 79 54q39 21 80 30q40 9 85 9q150 0 232 -91t82 -276v-606h-174v592q0 115 -43 173t-125 58q-35 0 -65 -9q-31 -10 -64 -33q-35 -25 -72 -64q-45 -47 -90 -101v-616h-174v1139h-160v141h160v133h174v-133h315v-141h-315zM0 1004
z" />
    <glyph glyph-name="uni045C" unicode="&#x45c;" 
d="M566 541l497 -541h-239l-468 538v-538h-174v1004h174v-459l451 459h230zM700 1413h252l-319 -242h-174zM0 1004z" />
    <glyph glyph-name="uni045D" unicode="&#x45d;" 
d="M174 1004h174v-707l438 707h166v-1004h-174v707l-438 -707h-166v1004zM426 1413l242 -242h-174l-320 242h252zM0 1004z" />
    <glyph glyph-name="uni045E" unicode="&#x45e;" 
d="M862 1004h191l-342 -898q-51 -132 -109 -236q-58 -100 -124 -162q-67 -64 -147 -94q-79 -30 -179 -30q-33 0 -47 1q-23 2 -46 3v158q29 -4 48 -5q26 -3 55 -3q46 0 90 14q39 13 78 46q35 29 71 81q33 48 66 121l-401 1004h198l254 -664l51 -156l58 160zM711 1391h159
q0 -60 -22 -105q-22 -46 -63 -78q-41 -34 -98 -50q-59 -17 -126 -17q-78 0 -137 17q-56 16 -93 50q-37 32 -54 78q-17 48 -17 105h158q0 -30 7 -54t24 -44q18 -21 44 -31q30 -11 70 -11q42 0 72 11q27 10 45 31q17 20 24 44t7 54zM0 1004z" />
    <glyph glyph-name="uni045F" unicode="&#x45f;" 
d="M647 0l-8 -255h-152l-8 255h-319v1004h174v-850h458v850h174v-1004h-319z" />
    <glyph glyph-name="uni0462" unicode="&#x462;" 
d="M246 0v1155h-242v152h746v-152h-324v-385h172q123 0 213 -28q89 -28 153 -79q60 -48 92 -117q31 -66 31 -145q0 -93 -36 -167q-37 -75 -103 -127q-67 -52 -160 -79q-93 -28 -208 -28h-334zM899 389q0 53 -18 96q-17 41 -56 74q-37 31 -97 48q-57 16 -142 16h-160v-473
h166q154 0 230 63q77 62 77 176z" />
    <glyph glyph-name="uni0463" unicode="&#x463;" 
d="M860 307q0 38 -15 68q-17 30 -49 51q-34 22 -85 32q-55 11 -127 11q-71 0 -102 -1q-46 -2 -87 -3v-324q41 -5 84 -6q56 -2 84 -2q82 0 143 14q55 13 91 38q33 23 49 56q14 33 14 66zM395 858v-248q34 1 88 3q31 1 103 1q115 0 202 -23q83 -22 141 -64q54 -39 82 -97
q27 -56 27 -121q0 -77 -32 -136q-34 -61 -94 -101q-62 -41 -152 -62q-88 -22 -205 -22q-84 0 -176 5q-85 5 -158 15v850h-186v146h186v276l174 45v-321h451v-146h-451z" />
    <glyph glyph-name="uni0472" unicode="&#x472;" 
d="M1071 662q0 -175 -41 -304q-43 -130 -112 -211q-70 -83 -165 -124q-96 -41 -200 -41q-127 0 -219 46q-92 44 -155 131q-62 87 -92 210t-30 278q0 173 41 302q40 126 112 212q72 85 164 124q93 40 199 40q127 0 220 -46q95 -47 155 -131q61 -85 93 -209q30 -123 30 -277z
M563 137q81 0 139 36q57 35 98 99q40 60 61 147q21 91 25 183h-644q5 -108 25 -191q19 -85 59 -146q38 -60 98 -94q58 -34 139 -34zM563 1169q-76 0 -132 -32q-58 -33 -95 -90q-38 -55 -61 -134q-22 -74 -31 -165h640q-9 96 -32 176q-22 76 -62 133q-41 55 -96 83
q-56 29 -131 29z" />
    <glyph glyph-name="uni0473" unicode="&#x473;" 
d="M1034 510q0 -117 -33 -214t-95 -167q-61 -70 -151 -108q-88 -39 -202 -39q-109 0 -193 34q-86 33 -145 98q-59 63 -91 161t-32 221q0 116 33 214q32 94 95 166q61 68 151 108q90 38 202 38q109 0 194 -33q86 -35 145 -98q60 -66 91 -161q31 -94 31 -220zM563 129
q72 0 123 25q53 27 86 68q34 43 55 101q22 60 26 123h-580q6 -151 83 -234t207 -83zM563 875q-69 0 -120 -24q-52 -26 -86 -66q-35 -40 -57 -94t-27 -111h580q-19 149 -96 223q-77 72 -194 72z" />
    <glyph glyph-name="uni0474" unicode="&#x474;" 
d="M1044 1315q24 0 38 -1q15 -1 38 -5v-158q-14 2 -21 2h-18q-23 0 -41 -6q-19 -6 -32 -21q-16 -18 -27 -41q-13 -27 -23 -65l-282 -1020h-250l-422 1307h201l274 -881l76 -258l63 258l170 666q13 48 33 88q19 40 51 70q30 30 73 48q43 17 99 17z" />
    <glyph glyph-name="uni0475" unicode="&#x475;" 
d="M614 344l152 457q16 48 36 87q20 38 48 65q28 26 70 42q40 15 100 15q19 0 32 -1q11 -1 38 -5v-154q-14 2 -21 2h-18q-25 0 -40 -4q-17 -4 -32 -16q-15 -13 -25 -32q-13 -24 -22 -50l-266 -750h-207l-393 1004h198l246 -664l53 -162z" />
    <glyph glyph-name="uni0490" unicode="&#x490;" 
d="M836 1307l10 252h139v-408h-573v-1151h-179v1307h603z" />
    <glyph glyph-name="uni0491" unicode="&#x491;" 
d="M834 1004l12 258h123v-408h-551v-854h-176v1004h592z" />
    <glyph glyph-name="Wgrave" unicode="&#x1e80;" 
d="M922 1307h159l-88 -1307h-231l-162 465l-45 149l-47 -161l-150 -453h-223l-90 1307h168l51 -889l15 -244l63 207l158 485h123l182 -520l61 -172l4 180zM457 1659l211 -213h-179l-284 213h252zM0 1307z" />
    <glyph glyph-name="wgrave" unicode="&#x1e81;" 
d="M918 1004h172l-146 -1004h-211l-145 420l-29 102l-33 -108l-139 -414h-205l-145 1004h170l84 -682l18 -152l43 133l146 451h125l157 -445l45 -133l15 141zM426 1413l242 -242h-174l-320 242h252zM0 1004z" />
    <glyph glyph-name="Wacute" unicode="&#x1e82;" 
d="M922 1307h159l-88 -1307h-231l-162 465l-45 149l-47 -161l-150 -453h-223l-90 1307h168l51 -889l15 -244l63 207l158 485h123l182 -520l61 -172l4 180zM670 1659h252l-285 -213h-178zM0 1307z" />
    <glyph glyph-name="wacute" unicode="&#x1e83;" 
d="M918 1004h172l-146 -1004h-211l-145 420l-29 102l-33 -108l-139 -414h-205l-145 1004h170l84 -682l18 -152l43 133l146 451h125l157 -445l45 -133l15 141zM700 1413h252l-319 -242h-174zM0 1004z" />
    <glyph glyph-name="Wdieresis" unicode="&#x1e84;" 
d="M922 1307h159l-88 -1307h-231l-162 465l-45 149l-47 -161l-150 -453h-223l-90 1307h168l51 -889l15 -244l63 207l158 485h123l182 -520l61 -172l4 180zM344 1659q21 0 42 -8q17 -8 34 -23q14 -14 23 -34q8 -21 8 -42q0 -20 -8 -41q-9 -20 -23 -34q-17 -16 -34 -22
q-20 -9 -42 -9q-45 0 -75 31q-31 30 -31 75q0 22 9 42q8 19 22 34q14 14 34 23q21 8 41 8zM782 1659q21 0 42 -8q20 -9 34 -23t23 -34q8 -21 8 -42q0 -20 -8 -41q-9 -20 -23 -34q-14 -15 -34 -22q-20 -9 -42 -9q-45 0 -75 31q-31 30 -31 75q0 22 9 42q7 19 22 34
q14 14 34 23q21 8 41 8zM0 1307z" />
    <glyph glyph-name="wdieresis" unicode="&#x1e85;" 
d="M918 1004h172l-146 -1004h-211l-145 420l-29 102l-33 -108l-139 -414h-205l-145 1004h170l84 -682l18 -152l43 133l146 451h125l157 -445l45 -133l15 141zM348 1405q23 0 44 -9q20 -9 36 -24q15 -16 24 -36q9 -21 9 -44q0 -24 -9 -43q-9 -21 -24 -36q-16 -15 -36 -24
q-21 -9 -44 -9q-24 0 -43 9q-21 9 -36 24t-24 36q-9 19 -9 43q0 23 9 44q9 20 24 36q15 15 36 24q19 9 43 9zM778 1405q23 0 44 -9q20 -9 36 -24q15 -16 24 -36q9 -21 9 -44q0 -24 -9 -43q-9 -21 -24 -36q-16 -15 -36 -24q-21 -9 -44 -9q-24 0 -43 9q-21 9 -36 24t-24 36
q-9 20 -9 43t9 44q9 20 24 36q15 15 36 24q20 9 43 9zM0 1004z" />
    <glyph glyph-name="Ygrave" unicode="&#x1ef2;" 
d="M922 1307h204l-473 -840v-467h-180v471l-473 836h215l260 -478l96 -192l88 174zM457 1659l211 -213h-179l-284 213h252zM0 1307z" />
    <glyph glyph-name="ygrave" unicode="&#x1ef3;" 
d="M862 1004h191l-342 -898q-51 -132 -109 -236q-58 -100 -124 -162q-67 -64 -147 -94q-79 -30 -179 -30q-33 0 -47 1q-23 2 -46 3v158q29 -4 48 -5q26 -3 55 -3q46 0 90 14q39 13 78 46q35 29 71 81q33 48 66 121l-401 1004h198l254 -664l51 -156l58 160zM426 1413
l242 -242h-174l-320 242h252zM0 1004z" />
    <glyph glyph-name="endash" unicode="&#x2013;" 
d="M993 621v-152h-860v152h860z" />
    <glyph glyph-name="emdash" unicode="&#x2014;" 
d="M1130 621v-152h-1134v152h1134z" />
    <glyph glyph-name="uni2015" unicode="&#x2015;" 
d="M1130 621v-152h-1134v152h1134z" />
    <glyph glyph-name="quoteleft" unicode="&#x2018;" 
d="M889 1425v-137q-51 2 -99 -9q-49 -11 -84 -31q-36 -21 -59 -54q-22 -31 -22 -74q0 -42 15 -67q13 -24 32 -48q20 -25 33 -47q14 -26 14 -67q0 -20 -8 -44q-7 -23 -24 -42q-16 -19 -42 -31q-25 -12 -61 -12q-37 0 -68 15q-32 14 -56 44q-26 30 -39 75q-15 45 -15 105
q0 83 30 160q31 79 91 136q60 59 151 93q91 35 211 35z" />
    <glyph glyph-name="quoteright" unicode="&#x2019;" 
d="M238 762v137q51 -1 99 9q50 11 85 32q35 20 58 53q22 31 22 74q0 42 -14 68q-15 25 -33 48q-21 26 -32 47q-15 26 -15 66q0 21 8 45q6 19 25 41q16 19 42 31q25 12 60 12q34 0 68 -14q31 -15 57 -44q24 -30 39 -75q14 -47 14 -106q0 -82 -30 -159q-33 -79 -91 -136
q-64 -60 -151 -94q-93 -35 -211 -35z" />
    <glyph glyph-name="quotesinglbase" unicode="&#x201a;" 
d="M238 -342v137q51 -1 99 9q47 10 85 33q35 20 58 53q22 31 22 73t-14 68q-15 25 -33 48q-21 26 -32 47q-15 26 -15 67q0 20 8 44q7 21 25 42q16 19 42 31q25 12 60 12q34 0 68 -14q31 -15 57 -45q24 -30 39 -75q14 -47 14 -106q0 -82 -30 -159q-33 -79 -91 -136
q-64 -60 -151 -94q-93 -35 -211 -35z" />
    </font>
</defs>
</svg>
