<?xml version="1.0" standalone="no"?>
<!DOCTYPE svg PUBLIC "-//W3C//DTD SVG 1.1//EN" "http://www.w3.org/Graphics/SVG/1.1/DTD/svg11.dtd" >
<svg xmlns="http://www.w3.org/2000/svg" xmlns:xlink="http://www.w3.org/1999/xlink" version="1.1">
<metadata>
Created by FontForge 20170731 at Tue Feb  2 01:21:31 2021
 By Aleksey,,,
Copyright (c) 2011-2012, Sorkin Type Co (www.sorkintype.com)with Reserved Font Name "Autour"This Font Software is licensed under the SIL Open Font License, Version 1.1. This license is copied below, and is also available with a FAQ at: http://scripts.sil.org/OFL
</metadata>
<defs>
<font id="AutourOneRegular" horiz-adv-x="1354" >
  <font-face 
    font-family="Autour One "
    font-weight="500"
    font-stretch="normal"
    units-per-em="2048"
    panose-1="0 0 0 0 0 0 0 0 0 0"
    ascent="1638"
    descent="-410"
    x-height="1217"
    cap-height="1574"
    bbox="-168 -550 3314 2012"
    underline-thickness="50"
    underline-position="-150"
    unicode-range="U+0020-FB04"
  />
<missing-glyph horiz-adv-x="457" 
d="M20 675h417v-675h-417v675zM68 48h320v579h-320v-579z" />
    <glyph glyph-name=".notdef" horiz-adv-x="457" 
d="M20 675h417v-675h-417v675zM68 48h320v579h-320v-579z" />
    <glyph glyph-name=".notdef" horiz-adv-x="457" 
d="M20 675h417v-675h-417v675zM68 48h320v579h-320v-579z" />
    <glyph glyph-name=".null" horiz-adv-x="0" 
 />
    <glyph glyph-name="nonmarkingreturn" horiz-adv-x="682" 
 />
    <glyph glyph-name="space" unicode=" " horiz-adv-x="769" 
 />
    <glyph glyph-name="exclam" unicode="!" horiz-adv-x="624" 
d="M317 505q53 0 84.5 25t31.5 71q0 21 -4 51.5t-4 43.5q0 216 6 623.5t6 469.5q0 57 -34 84t-82 27q-66 0 -97 -29.5t-31 -75.5q0 -190 12 -554t12 -542q0 -17 -3 -47.5t-3 -45.5q0 -48 31 -74.5t75 -26.5zM188 86q-1 -40 30 -78.5t81 -38.5q57 0 95 58t38 159
q0 54 -35 84.5t-88 30.5q-68 0 -93.5 -49.5t-27.5 -165.5z" />
    <glyph glyph-name="quotedbl" unicode="&#x22;" horiz-adv-x="967" 
d="M275 1066q53 0 83 25t30 71q0 30 -4 79t-4 71q0 58 7 132q8 88 8 134q0 56 -34 82.5t-83 26.5q-65 0 -96 -29.5t-31 -75.5q0 -48 8 -136q7 -74 7 -129q0 -28 -2.5 -77.5t-2.5 -72.5q0 -47 35 -74t79 -27zM696 1066q53 0 83 25t30 71q0 30 -4 79t-4 71q0 58 7 132
q8 88 8 134q0 56 -34 82.5t-83 26.5q-65 0 -96 -29.5t-31 -75.5q0 -48 8 -136q7 -74 7 -129q0 -28 -2.5 -77.5t-2.5 -72.5q0 -47 35 -74t79 -27z" />
    <glyph glyph-name="numbersign" unicode="#" horiz-adv-x="1551" 
d="M258 56q2 -43 34 -69.5t92 -26.5q25 0 43 9.5t29 28t16.5 34t10.5 38.5q19 81 55 243h292l-46 -178q-22 -48 -22 -78v-1q2 -43 34 -69.5t91 -26.5q21 0 37 6.5t25 14.5t17 24t11 26t8 30q17 73 51 252h216q45 0 71 32.5t26 88.5q0 60 -33 88t-70 28q-13 0 -36 -6t-35 -6
h-94q7 35 16 78.5t22 104t21 99.5h216q45 0 71 32t26 88q0 62 -33 89t-71 27q-13 0 -36 -5.5t-34 -5.5h-89q11 52 44 196v-1q9 20 24 74t15 76q0 93 -114 93q-26 0 -47.5 -15.5t-35.5 -41.5t-22 -52.5t-13 -55.5q0 -1 -1.5 -12t-5 -33.5t-8 -52.5t-12.5 -77t-18 -99
q-45 -1 -118 -1q-57 -1 -176 -1q15 66 47 198q8 17 24 72.5t16 77.5q0 93 -114 93q-89 0 -118 -165q0 -1 -2 -12t-6.5 -33.5t-10.5 -53t-16 -78t-21 -100.5h-160q-77 0 -109.5 -17t-32.5 -74q0 -129 99 -129q36 -1 153 -1q-23 -102 -69 -284q-143 -1 -194 -4q-37 -5 -65 -26
t-28 -64q0 -128 99 -128q11 0 56.5 -0.5t75.5 -0.5q-8 -32 -24 -92.5t-22 -85.5q-22 -48 -22 -78v-1zM588 537l63 283h299q-32 -147 -65 -282q-47 0 -146.5 -0.5t-150.5 -0.5z" />
    <glyph glyph-name="dollar" unicode="$" horiz-adv-x="1398" 
d="M225 325q0 -79 32 -144.5t87.5 -109.5t123.5 -71.5t147 -38.5q-2 -62 -2 -180q0 -49 27 -68.5t79 -19.5q64 0 86 36.5t22 109.5v124q81 14 152 47.5t128 85.5t90 128.5t33 168.5q0 58 -14 110t-34.5 91.5t-56 77t-67.5 63t-79.5 53t-81 44t-83.5 38.5q-59 27 -91 43
t-78.5 45t-70 54.5t-41.5 62.5t-18 79q0 55 40.5 96.5t92 59.5t99.5 18q79 0 136.5 -18t84.5 -73q4 -43 41 -73.5t79 -30.5q45 0 76.5 30.5t31.5 82.5q0 65 -32.5 118t-86 87.5t-111.5 55.5t-121 31q1 47 1 137q0 49 -26.5 68t-77.5 19q-65 0 -86.5 -36t-21.5 -108v-88
q-144 -35 -243.5 -132.5t-99.5 -236.5q0 -61 13 -114.5t32.5 -93t53.5 -76t64 -60t76 -48.5t78 -39t81 -34q46 -18 74 -30.5t70.5 -34.5t68.5 -44t52.5 -51.5t39 -65.5t12.5 -78q0 -61 -24.5 -105.5t-66.5 -69t-91 -36t-105 -11.5q-68 0 -126 14t-101.5 50.5t-43.5 91.5
q0 20 10 70q10 52 10 85q0 46 -31 74.5t-77 28.5q-32 0 -56 -10t-38.5 -31.5t-23 -42t-12 -56t-4.5 -58t-1 -61.5z" />
    <glyph glyph-name="percent" unicode="%" horiz-adv-x="2526" 
d="M823 80q0 -49 33 -86t98 -37q27 0 45.5 8t30 26t16.5 31.5t12 39.5v-1l549 1415q9 17 18.5 52.5t9.5 60.5q0 51 -34.5 81t-78.5 30q-25 0 -46 -11t-34 -26t-25 -41.5t-18.5 -46.5t-14.5 -51v1q-517 -1349 -531 -1369q-30 -38 -30 -76zM667 737q121 0 220 67.5t152 173.5
t53 225q0 128 -72.5 237.5t-199.5 160.5q-12 5 -29 5q-8 0 -20 -2q-48 41 -153 41q-93 0 -176 -42.5t-138 -110t-87 -152.5t-32 -170q0 -79 28.5 -149t76.5 -121t110.5 -88.5t130.5 -56t136 -18.5zM654 955q-96 0 -167.5 56.5t-71.5 147.5q0 113 63 189.5t162 76.5
q8 0 14 -1q18 -2 38 -2q11 0 15 1q65 -22 110.5 -84.5t45.5 -132.5q0 -58 -24 -114.5t-73 -96.5t-112 -40zM1377 417q0 -102 43.5 -186.5t113.5 -137.5t155 -82t172 -29q91 0 171.5 39.5t135 105t86 149.5t31.5 172q0 129 -72.5 238t-199.5 161q-13 4 -29 4q-9 0 -19 -2
q-22 19 -51 29t-49.5 11.5t-53.5 1.5q-124 0 -225.5 -72t-155 -179.5t-53.5 -222.5zM1608 405q0 113 62.5 189.5t160.5 76.5q9 0 16 -1q30 -3 37 -3q12 0 17 2q65 -22 110 -85t45 -133q0 -91 -58.5 -170.5t-150.5 -79.5q-96 0 -167.5 56.5t-71.5 147.5z" />
    <glyph glyph-name="ampersand" unicode="&#x26;" horiz-adv-x="1912" 
d="M264 401q0 -194 138 -312.5t371 -118.5q110 0 229.5 33.5t214.5 103.5q31 -23 71 -55q38 -30 53.5 -41t49.5 -32.5t63.5 -30.5t60.5 -9q55 0 84 34.5t29 75.5q0 36 -26.5 63t-67.5 28q-75 27 -155 90q115 96 176 237.5t61 298.5q0 39 -7 74t-23 69t-48 54t-76 20
q-58 0 -87.5 -36t-29.5 -76q0 -27 8 -48t15 -29.5t22 -22.5q8 -7 17 -18q-2 -118 -51.5 -222.5t-147.5 -171.5q-174 146 -356 382q64 39 107.5 68.5t93.5 73.5t80 87t50 100.5t20 120.5q0 93 -33.5 166.5t-89 117.5t-122.5 67t-139 23q-76 0 -150 -27.5t-133.5 -76.5
t-96.5 -125t-37 -165q0 -102 41.5 -192t118.5 -188q-5 -3 -16 -10q-129 -86 -179 -136q-103 -104 -103 -244zM735 903q-112 152 -112 259q0 100 56.5 153t134.5 53q77 0 126 -46t49 -138q0 -41 -19.5 -80t-57.5 -74.5t-78.5 -64t-98.5 -62.5zM488 396q0 36 12 65.5t44 59
t58.5 49t84.5 57.5q122 -161 354 -380q-113 -75 -254 -75q-51 0 -100.5 12t-95.5 36.5t-74.5 70t-28.5 105.5z" />
    <glyph glyph-name="quotesingle" unicode="'" horiz-adv-x="546" 
d="M275 1066q53 0 83 25t30 71q0 30 -4 79t-4 71q0 58 7 132q8 88 8 134q0 56 -34 82.5t-83 26.5q-65 0 -96 -29.5t-31 -75.5q0 -48 8 -136q7 -74 7 -129q0 -28 -2.5 -77.5t-2.5 -72.5q0 -47 35 -74t79 -27z" />
    <glyph glyph-name="parenleft" unicode="(" horiz-adv-x="1014" 
d="M642 -278q71 -39 126 -39q104 0 104 101q0 45 -28.5 74t-118.5 44q-33 17 -65.5 38.5t-73.5 59.5t-76 84t-70 113t-59.5 144.5t-39.5 182t-15 221.5q0 128 19 241t49.5 196t73.5 154t86 118.5t92 85.5t86.5 58.5t74.5 34.5q48 18 70.5 42t22.5 60q0 46 -28.5 70.5
t-77.5 24.5t-109 -23.5t-125.5 -71.5t-130 -114.5t-123 -159t-103 -198.5t-71 -239.5t-26.5 -275.5q0 -101 13.5 -203.5t50.5 -224t95 -227t155 -205.5t222 -166z" />
    <glyph glyph-name="parenright" unicode=")" horiz-adv-x="1014" 
d="M382 -278q125 66 222 166t155 205.5t95 227t50.5 224t13.5 203.5q0 142 -26.5 275.5t-71 239.5t-103 198.5t-123 159t-130 114.5t-125.5 71.5t-109 23.5t-77.5 -24.5t-28.5 -70.5q0 -36 22.5 -60t70.5 -42q37 -14 74.5 -34.5t86.5 -58.5t92 -85.5t86 -118.5t73.5 -154
t49.5 -196t19 -241q0 -117 -15 -221.5t-39.5 -182t-59.5 -144.5t-70 -113t-76 -84t-73.5 -59.5t-65.5 -38.5q-90 -15 -118.5 -44t-28.5 -74q0 -101 104 -101q55 0 126 39z" />
    <glyph glyph-name="asterisk" unicode="*" horiz-adv-x="1184" 
d="M352 1105q18 0 46 13.5t41 28.5q20 19 39 45t29.5 43t25.5 43.5t18 32.5q12 -18 32 -58q22 -42 34.5 -62.5t34 -50.5t43 -43t44.5 -13q40 0 75.5 23t35.5 76q-3 47 -21.5 84.5t-59 87t-51.5 65.5q11 5 185 62q39 15 74 47t35 76q0 47 -29 72t-75 25q-41 0 -135 -43
q-47 -22 -108 -44q9 109 9 170q0 123 -103 123q-48 0 -83.5 -34.5t-35.5 -88.5q0 -30 3.5 -84.5t3.5 -80.5q-162 78 -212 78q-41 0 -74.5 -24.5t-33.5 -65.5q0 -53 25.5 -78t74.5 -42q6 -2 30 -11t59 -22t63 -24q-11 -13 -59.5 -59.5t-70 -81t-21.5 -76.5q0 -60 28 -84.5
t84 -24.5z" />
    <glyph glyph-name="plus" unicode="+" horiz-adv-x="1184" 
d="M461 358q0 -44 32.5 -70t86.5 -26q61 0 88.5 33t27.5 69l-13 72v175q28 0 59 -0.5t39 -0.5q59 -1 164 -1q45 0 71.5 32t26.5 86q0 60 -33.5 87t-70.5 27l-71 -11h-184q0 95 1 151v72q0 72 -21.5 108.5t-77.5 36.5q-39 0 -64 -8.5t-36 -24t-14.5 -30.5t-3.5 -36l-3 -269
l-218 1q-37 0 -59 -2.5t-43 -11t-30.5 -27t-9.5 -48.5q0 -126 99 -126l259 -3q0 -24 -0.5 -51.5t-0.5 -35.5q-1 -60 -1 -168z" />
    <glyph glyph-name="comma" unicode="," horiz-adv-x="588" 
d="M150 -98q-27 -44 -27 -67q0 -41 25 -68t69 -27q37 0 73 29t55 60q42 69 69.5 152.5t27.5 141.5q0 39 -6 69t-20 56t-41.5 40t-66.5 14q-51 0 -83 -28.5t-43 -65.5t-11 -82q0 -23 6.5 -58t16.5 -55q-18 -72 -44 -111z" />
    <glyph glyph-name="hyphen" unicode="-" horiz-adv-x="1184" 
d="M204 616q552 -6 616 -6q29 0 70 -0.5t55 -0.5q45 0 71.5 32t26.5 86q0 62 -30 88t-74 26q-41 0 -71 -11l-621 1q-37 0 -59 -2.5t-43 -11t-30.5 -27t-9.5 -48.5q0 -126 99 -126z" />
    <glyph glyph-name="period" unicode="." horiz-adv-x="588" 
d="M169 98q0 -53 30 -88t94 -35q69 0 97 47t28 142v6q0 156 -117 156q-32 0 -57 -17.5t-39 -42.5t-22.5 -58t-11 -59t-2.5 -51z" />
    <glyph glyph-name="slash" unicode="/" horiz-adv-x="1015" 
d="M113 15l1 1q-14 -18 -23.5 -44t-12.5 -41t-3 -21q0 -39 37 -74.5t94 -35.5q31 0 53.5 13t33 34t14.5 36t5 30q2 19 5 28q552 1540 586 1656q0 1 0.5 2t0.5 2q4 16 4 32q0 42 -32 70.5t-85 28.5q-37 0 -60 -20t-32 -47q-523 -1464 -586 -1650z" />
    <glyph glyph-name="zero" unicode="0" horiz-adv-x="1461" 
d="M707 -30q113 0 208.5 43t164 119.5t117 182t72 230t23.5 262.5q0 244 -67 429.5t-200.5 291t-317.5 105.5q-178 0 -313.5 -105t-207.5 -292t-72 -429q0 -138 24 -262.5t73 -230t118.5 -182t166.5 -119.5t211 -43zM712 176q-94 0 -167.5 54.5t-116.5 145.5t-65 201
t-22 230q0 186 41.5 324.5t126 217.5t203.5 79q89 0 158 -50t111 -137t63.5 -197t21.5 -237q0 -121 -20 -230t-60.5 -201t-111 -146t-162.5 -54z" />
    <glyph glyph-name="one" unicode="1" horiz-adv-x="1021" 
d="M443 88q0 -55 30 -81.5t105 -26.5q118 0 118 108q0 17 -6 53q-9 52 -13.5 169.5t-4 223t2 269t1.5 223.5q0 266 3 435q0 9 4.5 26t4.5 27q0 49 -30.5 89t-84.5 40q-57 0 -189 -81q-109 -66 -181 -102q-80 -40 -80 -109q0 -49 31.5 -80t81.5 -31q33 0 71 18t82 47t63 38
q4 -549 4 -1049q0 -41 -6.5 -108.5t-6.5 -97.5z" />
    <glyph glyph-name="two" unicode="2" horiz-adv-x="1524" 
d="M125 96q0 -40 35 -68t84 -28h864q34 0 96 -6t92 -6q43 0 74.5 24.5t31.5 82.5q0 50 -28.5 83.5t-68.5 33.5q-23 0 -65 -7t-62 -7q-61 0 -164.5 -2t-150.5 -2q-134 0 -278 -2q89 60 175.5 128.5t184 165t169.5 195t119.5 217t47.5 231.5q0 154 -76 270t-202.5 175
t-282.5 59q-108 0 -210.5 -32.5t-187 -93.5t-136 -160t-51.5 -220q0 -32 8.5 -70t26 -77t51.5 -65t78 -26q41 0 76.5 28t35.5 70q0 34 -6.5 53t-23.5 44q-8 10 -20 33q8 146 108.5 229.5t249.5 83.5q83 0 157.5 -35t123.5 -104.5t49 -157.5q0 -78 -29.5 -159t-69 -146
t-113 -140.5t-126 -123.5t-146 -116.5t-135 -97t-129.5 -85.5q-41 -27 -59 -39h1q-70 -40 -89 -60q-29 -30 -29 -70z" />
    <glyph glyph-name="three" unicode="3" horiz-adv-x="1687" 
d="M204 472q0 -152 91.5 -268.5t237.5 -175.5t318 -59q171 0 311.5 60t228 181t87.5 283q0 145 -70 254t-188.5 162t-262.5 42q53 51 138.5 159t167.5 220.5t93 125.5q28 35 28 82q0 46 -30.5 70.5t-81.5 24.5h-849q-53 0 -82.5 -33.5t-29.5 -74.5q0 -44 33 -75t91 -31h618
q-254 -368 -349 -462q-16 -16 -32 -49t-16 -51q0 -48 25.5 -80.5t78.5 -32.5q29 0 83 12.5t81 12.5q50 0 95 -9.5t85 -31.5t69.5 -54.5t46.5 -81.5t17 -110q0 -99 -56 -171t-141 -106t-186 -34q-171 0 -293 84.5t-122 200.5q0 29 10.5 82t10.5 79q0 60 -36 85.5t-84 25.5
q-136 0 -136 -256z" />
    <glyph glyph-name="four" unicode="4" horiz-adv-x="1552" 
d="M145 308q68 0 117 23h-2q90 3 430 3h257q1 -135 1 -401q0 -49 36 -76t76 -27q42 0 77 27t35 76q0 267 -1 399q28 0 78 -0.5t71 -0.5q49 0 74.5 34.5t25.5 73.5q0 38 -32 72.5t-82 33.5q-45 -1 -135 -1v166q0 45 -0.5 158t-0.5 162q0 51 -35 81t-78 30t-77.5 -30
t-34.5 -81q0 -333 1 -489q-290 -5 -514 -5q104 122 203 411.5t99 529.5q0 106 -24 150t-92 44q-44 0 -80 -30t-36 -82q0 -223 -4 -275q-14 -203 -105 -400t-225 -340q-150 -7 -150 -123q0 -59 38 -86t89 -27z" />
    <glyph glyph-name="five" unicode="5" horiz-adv-x="1695" 
d="M224 437q0 -100 53.5 -189.5t138 -149.5t189 -94.5t206.5 -34.5q93 0 182 22.5t169 69.5t140 114.5t95.5 164.5t35.5 212q0 121 -40.5 224.5t-115.5 179.5t-188 119t-252 43q-77 0 -166 -20.5t-153 -58.5l59 392q518 0 640 -5q57 -1 89.5 30t32.5 76q0 40 -29 70.5
t-83 30.5h-755q-31 -1 -53.5 -14t-34.5 -30t-20.5 -50t-11 -55.5t-6.5 -64.5v1q-16 -130 -26 -240t-14 -160t-7 -63q-43 -71 -43 -134q0 -46 30 -79.5t77 -33.5q59 0 94.5 34.5t43.5 92.5q133 78 322 78q94 0 168 -32.5t118.5 -86.5t67.5 -120t23 -138q0 -90 -30.5 -162
t-81.5 -116.5t-115 -68t-134 -23.5q-318 0 -411 297q-12 37 -40.5 59.5t-61.5 23.5q-102 -10 -102 -111z" />
    <glyph glyph-name="six" unicode="6" horiz-adv-x="1523" 
d="M125 702q0 -115 21 -218.5t70 -198.5t121.5 -164.5t182.5 -110.5t246 -41q117 0 216.5 37t167 97t115 137.5t69 157.5t21.5 158q0 276 -150 423.5t-414 147.5q-98 0 -219.5 -45.5t-201.5 -127.5q39 219 155 351t280 132q137 0 172 -18q5 -3 18 -11t21.5 -12.5t26.5 -8.5
t39 -4q43 0 75.5 27t32.5 76q0 37 -15 61t-48 42q-108 58 -306 58q-165 0 -298 -74t-219.5 -202.5t-132.5 -300t-46 -368.5zM361 588v90q33 84 109 144t158.5 85.5t162.5 25.5q67 0 126 -21t109 -64t79 -118t29 -173q0 -97 -35.5 -174t-92 -121.5t-120 -67.5t-127.5 -23
q-92 0 -169 35.5t-126 94t-76 133t-27 154.5z" />
    <glyph glyph-name="seven" unicode="7" horiz-adv-x="1184" 
d="M378 97q0 -61 38.5 -94.5t86.5 -33.5q131 0 140 183q328 1093 395 1279q13 40 13 80q0 61 -36.5 91.5t-79.5 30.5h-712q-38 0 -64 -3.5t-51.5 -14t-38.5 -33t-13 -57.5q0 -118 126 -118q21 0 145 11q182 0 322.5 0.5t149.5 0.5q-23 -77 -63 -210.5t-57.5 -191t-48 -158.5
t-45 -146.5t-37.5 -119t-36 -113t-30.5 -90.5t-31.5 -89t-28 -75q-44 -81 -44 -129z" />
    <glyph glyph-name="eight" unicode="8" horiz-adv-x="1522" 
d="M156 468q0 -114 51.5 -210t136 -158t190 -96.5t215.5 -34.5q117 0 224 34t189.5 96.5t131.5 158t49 210.5q0 132 -79 216t-248 156q98 66 160 167.5t62 208.5q0 201 -134 309t-359 108q-223 0 -362.5 -110t-139.5 -304q0 -123 63.5 -215.5t169.5 -152.5
q-143 -50 -231.5 -149t-88.5 -234zM766 935q-59 24 -108 51t-93.5 62.5t-69.5 79t-25 90.5q0 60 24.5 103.5t66 66t87.5 33t98 10.5q111 0 188 -52.5t77 -161.5q0 -96 -70.5 -176t-174.5 -106zM393 480q0 53 25 97t69.5 74t97 50t116.5 33q48 -15 80.5 -25.5t80.5 -28
t80 -33t68.5 -37t58 -43t36 -49t14.5 -56.5q0 -71 -31 -127t-84 -89.5t-119 -50.5t-141 -17q-144 0 -247.5 83.5t-103.5 218.5z" />
    <glyph glyph-name="nine" unicode="9" horiz-adv-x="1518" 
d="M314 141q0 -49 42 -85.5t107 -53.5t122.5 -24.5t109.5 -7.5q141 0 256.5 56.5t191 149.5t126.5 218t73.5 257.5t22.5 273.5q0 114 -21.5 215.5t-70 193t-121.5 157t-182.5 104t-245.5 38.5q-147 0 -264 -48t-188.5 -128.5t-109 -179.5t-37.5 -207q0 -139 46 -250
t126 -181.5t184.5 -108t225.5 -37.5q108 0 224 38.5t193 125.5q-29 -209 -142.5 -343t-279.5 -134q-82 0 -109 5t-56 22q-56 36 -115 36q-44 0 -76 -25.5t-32 -76.5zM707 697q-55 0 -103 10t-97 37t-83.5 70t-56 114t-21.5 164q0 69 22.5 127t59.5 97.5t87 67t103.5 40
t109.5 12.5q183 0 292 -116t109 -281v-72q-33 -84 -106.5 -147.5t-155.5 -93t-160 -29.5z" />
    <glyph glyph-name="colon" unicode=":" horiz-adv-x="588" 
d="M169 98q0 -53 30 -88t94 -35q69 0 97 47t28 142v6q0 156 -117 156q-32 0 -57 -17.5t-39 -42.5t-22.5 -58t-11 -59t-2.5 -51zM169 775q0 -53 30 -88t94 -35q69 0 97 47t28 142v6q0 156 -117 156q-32 0 -57 -17.5t-39 -42.5t-22.5 -58t-11 -59t-2.5 -51z" />
    <glyph glyph-name="semicolon" unicode=";" horiz-adv-x="588" 
d="M166 775q0 -53 30 -88t94 -35q69 0 97 47t28 142v6q0 156 -117 156q-32 0 -57 -17.5t-39 -42.5t-22.5 -58t-11 -59t-2.5 -51zM150 -98q-27 -44 -27 -67q0 -41 25 -68t69 -27q37 0 73 29t55 60q42 69 69.5 152.5t27.5 141.5q0 39 -6 69t-20 56t-41.5 40t-66.5 14
q-51 0 -83 -28.5t-43 -65.5t-11 -82q0 -23 6.5 -58t16.5 -55q-18 -72 -44 -111z" />
    <glyph glyph-name="less" unicode="&#x3c;" horiz-adv-x="1184" 
d="M193 502q74 -32 270.5 -130t288.5 -147q50 -31 92 -31q49 0 76 37t27 83q0 50 -34 76t-68 31l-370 176l388 181v-1q22 10 32 15t24 17t19.5 29t5.5 41q0 44 -32 84.5t-69 40.5q-44 0 -96 -41q-78 -34 -250.5 -115.5t-264.5 -119.5q-50 -14 -70 -35.5t-20 -70.5
q0 -38 12.5 -73.5t38.5 -46.5z" />
    <glyph glyph-name="equal" unicode="=" horiz-adv-x="1184" 
d="M204 830l616 -6q29 0 70 -0.5t55 -0.5q45 0 71.5 32t26.5 85q0 61 -33.5 88t-70.5 27q-16 0 -40 -6q-22 -6 -31 -6l-621 1q-75 0 -108.5 -16t-33.5 -72q0 -126 99 -126zM204 331l616 -6q29 0 70 -0.5t55 -0.5q45 0 71.5 32t26.5 86q0 60 -33.5 87t-70.5 27q-16 0 -40 -6
q-22 -6 -31 -6l-621 1q-75 0 -108.5 -16t-33.5 -72q0 -126 99 -126z" />
    <glyph glyph-name="greater" unicode="&#x3e;" horiz-adv-x="1184" 
d="M983 493q26 11 38.5 46.5t12.5 73.5q0 49 -20 70.5t-70 35.5q-92 38 -264.5 119.5t-250.5 115.5q-52 41 -96 41q-37 0 -69 -40.5t-32 -84.5q0 -24 5.5 -41t19.5 -29t24 -17t32 -15v1l388 -181l-370 -176q-34 -5 -68 -31t-34 -76q0 -46 27 -83t76 -37q42 0 92 31
q92 49 288.5 147t270.5 130z" />
    <glyph glyph-name="question" unicode="?" 
d="M645 420q45 0 77 30t32 84q0 20 -1.5 51t-1.5 44q0 32 12 64t27 54.5t45 51t47.5 42.5t55.5 42t50 37q112 85 179.5 189.5t67.5 218.5q0 109 -45 195.5t-123.5 142t-182.5 84.5t-225 29q-159 0 -281.5 -43.5t-194 -130.5t-71.5 -207q0 -52 22.5 -113t65 -107t91.5 -46
q46 0 77 27.5t31 73.5q0 31 -32 86q-30 47 -30 83q0 163 324 163q160 0 254.5 -59t94.5 -180q0 -39 -15 -75t-47 -72t-57.5 -59.5t-73.5 -63t-68 -56.5q-220 -193 -220 -373q0 -104 26 -155.5t90 -51.5zM501 85q-1 -40 30 -78.5t81 -38.5q58 0 94.5 58.5t36.5 160.5
q0 18 -3.5 34.5t-13.5 35.5t-32.5 30.5t-54.5 11.5q-80 0 -108 -44.5t-30 -169.5z" />
    <glyph glyph-name="at" unicode="@" horiz-adv-x="2200" 
d="M128 445q0 -190 64 -354t175 -278t264 -178.5t326 -64.5q58 0 117.5 4.5t140 18t141.5 45t84 77.5q6 13 6 28q0 35 -29 68.5t-72 33.5q-57 0 -123 -35q-26 -15 -48 -24t-70.5 -17t-112.5 -8q-305 0 -475.5 181.5t-170.5 509.5q0 128 35 252t106.5 233.5t170.5 193.5
t236.5 132.5t295.5 48.5q140 0 255.5 -37.5t205 -115t139 -207t48.5 -302.5q0 -75 -14 -151t-41.5 -146.5t-75.5 -114.5t-110 -44q-51 0 -73.5 42.5t-22.5 137.5q0 98 25 250q1 5 4.5 29t4 31t3 28t2.5 33v31t-2 37.5t-6 38.5q-18 108 -97.5 160t-237.5 52
q-123 0 -225.5 -41.5t-168.5 -107.5t-111.5 -151.5t-65 -170t-19.5 -167.5q0 -195 96.5 -306.5t259.5 -111.5q136 0 219.5 54.5t143.5 152.5q28 -108 106 -165t146 -57q80 0 146.5 24.5t113 65.5t82.5 99.5t58 121.5t36 136.5t19 139.5t5 136q0 91 -21.5 181.5t-63.5 179.5
t-111.5 165.5t-159.5 135.5t-214 92.5t-268 33.5q-220 0 -419.5 -87t-341.5 -231t-226 -338.5t-84 -402.5zM823 450q0 72 24 147.5t66.5 138.5t109 103.5t142.5 40.5q91 0 130.5 -29.5t39.5 -115.5q0 -87 -23.5 -172.5t-62 -150.5t-85 -116t-94 -78t-87.5 -27
q-77 0 -118.5 69t-41.5 190z" />
    <glyph glyph-name="A" unicode="A" horiz-adv-x="1568" 
d="M35 77q0 -50 35 -78t90 -28q38 0 63.5 9t40 29.5t20.5 35t14 44.5v-1q31 95 157 401q14 0 42 2q85 4 169.5 4t182.5 -1.5t145 -1.5q72 -3 110 -3q145 -326 184 -411q5 -46 40.5 -76.5t88.5 -30.5t85 27t32 84q0 53 -62 138l-19 28q-42 91 -226.5 503.5t-289.5 620.5
q-8 15 -28 75q-9 27 -14 40.5t-16.5 33.5t-24 29t-33.5 16.5t-49 7.5q-52 0 -82.5 -35.5t-38.5 -85.5q-44 -88 -283 -624t-291 -622q-42 -58 -42 -130zM546 707q124 293 221 515q156 -332 241 -518q-443 3 -462 3z" />
    <glyph glyph-name="B" unicode="B" horiz-adv-x="1476" 
d="M200 75q11 -79 125 -79q43 0 68 11q60 -12 142 -19.5t122 -7.5q92 0 161 4t143 17t127.5 35.5t103 60t79.5 89.5t48 126.5t18 168.5q0 63 -27 130t-71 121q-16 20 -56.5 49t-85.5 47q135 130 135 303q0 69 -13.5 127.5t-35 100t-55 74.5t-65 54t-75.5 36t-76 22.5
t-76 11.5t-66.5 4.5t-55.5 0.5q-2 0 -203 -9q-110 -5 -198 -5q-72 -1 -93 -27.5t-21 -112.5l12 -135q0 -185 2 -454t2 -344t-3 -288q-17 -77 -12 -112zM435 892v13q3 266 1 432q0 2 -0.5 4t-0.5 3v2q153 6 275 6q159 0 228.5 -53t69.5 -178q0 -61 -15 -102.5t-44.5 -69.5
t-83 -42.5t-120 -20.5t-167.5 -6q-45 0 -143 12zM435 209q0 11 -0.5 150.5t-0.5 328.5q128 1 252 5t161 4q34 0 68.5 -7.5t71 -26.5t65 -46.5t46.5 -72t18 -98.5q0 -66 -24.5 -115t-62 -76t-93 -43t-105.5 -20.5t-112 -4.5q-156 0 -284 22z" />
    <glyph glyph-name="C" unicode="C" horiz-adv-x="1495" 
d="M109 756q0 -157 52.5 -298t148.5 -250t244 -173t326 -64q99 0 209.5 27.5t159.5 56.5v-1q120 57 120 141q0 105 -112 105q-28 0 -50 -12t-56 -41q-33 -23 -114.5 -41.5t-165.5 -18.5q-67 0 -130.5 14t-124.5 43t-111.5 77.5t-89.5 113t-60.5 154.5t-21.5 198
q0 116 31 212.5t82.5 161.5t119.5 110.5t142 66t151 20.5q52 0 77.5 -1t72.5 -10t91 -27q71 -51 125 -51q48 0 85 29t37 94q0 12 -2.5 23t-5.5 19.5t-9.5 16.5t-11.5 13.5t-15 11.5t-15.5 9.5t-18.5 8.5t-18.5 7t-20 7t-19.5 7q-169 59 -329 59q-115 0 -223.5 -29t-209 -94
t-175.5 -158t-120 -231.5t-45 -305.5z" />
    <glyph glyph-name="D" unicode="D" horiz-adv-x="1631" 
d="M229 117q0 -58 26.5 -85.5t86.5 -27.5q54 0 155.5 -11.5t150.5 -11.5q135 0 250.5 29.5t200.5 79.5t153 119t112 145t73.5 160.5t42 163t12.5 154.5q0 119 -25.5 224.5t-84.5 201.5t-148.5 165t-226 110t-308.5 41q-48 0 -141 -7.5t-139 -7.5q-22 0 -60.5 7.5t-56.5 7.5
q-54 0 -79 -28t-25 -74q0 -37 28 -89q11 -398 11 -1073q0 -42 -4 -103.5t-4 -89.5zM452 220l-6 1122q137 9 216 9q151 0 257.5 -27.5t186 -92t118 -177t38.5 -276.5q0 -40 -7 -85.5t-26 -102.5t-47.5 -110t-76.5 -104.5t-108.5 -89t-147.5 -61t-189 -23.5q-141 0 -208 18z
" />
    <glyph glyph-name="E" unicode="E" horiz-adv-x="1321" 
d="M198 113q0 -58 32 -85.5t87 -27.5h673q35 0 55.5 1t47.5 7.5t42 19t25.5 35.5t10.5 57q0 101 -141 101q-34 0 -90 -8q-60 -10 -103 -10q-74 0 -209 3t-199 3v599l628 1q58 0 92.5 26.5t34.5 77.5q0 38 -31.5 74t-81.5 36q-46 0 -94 -6q-36 -4 -53 -4q-469 0 -495 1v317
h93q10 0 42 0.5t107 0.5h189q26 -3 67 -3q58 0 89.5 23.5t31.5 93.5q0 58 -24.5 83t-96.5 25q-6 0 -33 -4t-39 -5h-527q-25 0 -38.5 -1t-34 -8t-31 -20t-18.5 -39.5t-8 -64.5l23 -1196l-9 -32q-14 -49 -14 -71z" />
    <glyph glyph-name="F" unicode="F" horiz-adv-x="1317" 
d="M216 98q0 -127 110 -127q76 0 105.5 30t29.5 87q0 29 -12 81t-12 78v503l650 1q57 0 92 26.5t35 77.5q0 39 -31.5 74.5t-81.5 35.5q-41 0 -63 -1q-5 0 -17 -0.5t-19 -0.5q-243 -7 -565 -7l-6 380l551 -1q81 0 116.5 23.5t35.5 90.5q0 51 -35.5 74t-117.5 23h-552
q-28 0 -41 2q-44 6 -100 6q-43 0 -66.5 -36t-23.5 -102l23 -1151q0 -17 -3.5 -76.5t-1.5 -90.5z" />
    <glyph glyph-name="G" unicode="G" horiz-adv-x="1681" 
d="M148 756q0 -125 36 -240t109.5 -212.5t176.5 -169.5t245.5 -113t308.5 -41q37 0 124 10t126 10q34 0 54 1.5t45.5 10t39.5 24.5t24 47t11 75q0 381 8 605q0 14 1 39.5t1 38.5q0 47 -33 74.5t-91 27.5q-64 0 -95 -32.5t-31 -69.5q0 -29 5 -78.5t5 -72.5q8 -216 8 -485
q-59 -11 -172 -11q-104 0 -197 17t-183 60.5t-154.5 110t-104 172.5t-39.5 241q0 115 31 211t81.5 159.5t116.5 107t134 63t136 19.5q106 0 228 -16t192 -53q18 -9 43 -9q39 0 67 35.5t28 90.5q0 81 -87 115q-139 55 -421 55q-169 0 -309.5 -51.5t-245.5 -151.5t-163.5 -257
t-58.5 -357z" />
    <glyph glyph-name="H" unicode="H" horiz-adv-x="1576" 
d="M219 74q0 -55 26.5 -79t102.5 -24q67 0 92.5 26.5t25.5 76.5q0 59 -6 113q-19 177 -24 640q521 12 692 9q0 -101 5 -282.5t5 -270.5q0 -36 -7.5 -105t-7.5 -103q0 -54 30 -79t106 -25q66 0 92.5 27t26.5 77q0 29 -7 67q-23 135 -23 413q0 123 -0.5 318t-0.5 280
q1 50 6 155t5 159q0 38 -22 72.5t-66 34.5q-86 0 -119 -27t-33 -82q0 -20 6 -59t6 -58q0 -243 -1 -295q-43 -1 -142.5 -7t-152.5 -6q-89 0 -400 9v221q0 41 3 105.5t3 91.5q0 42 -24 74.5t-67 32.5q-86 0 -118.5 -27t-32.5 -82q0 -22 7.5 -60.5t7.5 -56.5q13 -1015 13 -1066
q0 -39 -3.5 -107.5t-3.5 -100.5z" />
    <glyph glyph-name="I" unicode="I" horiz-adv-x="794" 
d="M273 80q0 -55 30.5 -82t106.5 -27q65 0 91 29t26 82q0 23 -5 56v-1q-18 235 -18 832q0 184 4 412q9 54 9 68q0 57 -26 91t-71 34q-153 0 -153 -127q0 -23 6 -61.5t6 -56.5q0 -184 4.5 -530t4.5 -513q0 -38 -7.5 -105.5t-7.5 -100.5z" />
    <glyph glyph-name="J" unicode="J" horiz-adv-x="1471" 
d="M126 447q0 -91 26 -166t71 -125.5t101 -87.5t121 -57.5t125 -30t119 -9.5q118 0 210 34.5t149.5 91t94.5 136.5t52 163.5t15 178.5l-9 512q0 117 1.5 213t1.5 133q0 72 -24.5 106.5t-87.5 34.5q-56 0 -90 -26t-34 -81q0 -57 8.5 -163t8.5 -222v-463q0 -158 -36 -255
t-100 -137.5t-163 -40.5q-141 0 -237 65.5t-96 186.5q0 33 17 94.5t17 92.5q0 57 -31 85t-81 28q-34 0 -60 -14t-41.5 -40t-26 -53.5t-14.5 -64.5t-5.5 -62t-1.5 -57z" />
    <glyph glyph-name="K" unicode="K" horiz-adv-x="1415" 
d="M203 93q0 -47 21.5 -76.5t44.5 -37.5t45 -8q126 0 126 101q-2 54 -6 91q-2 216 -2 399v112q191 -50 395 -362q43 -65 68.5 -102t68.5 -89t77 -80t78.5 -49t88.5 -21q30 0 51.5 1.5t48 8.5t43 19.5t28 35t11.5 54.5q0 28 -11 48t-25 29.5t-38.5 15t-38 6t-37.5 0.5
t-50.5 17.5t-57 54t-53.5 70t-59 88.5q-89 138 -207 252t-239 147q51 43 183.5 154t224.5 189t177 154q35 20 55 35.5t38 46t18 68.5q0 55 -32.5 82t-82.5 27q-38 0 -100.5 -46.5t-88.5 -84.5l-533 -504q2 350 2 532q0 46 -34 74.5t-82 28.5q-62 0 -91.5 -30.5t-29.5 -97.5
q5 -753 5 -1353z" />
    <glyph glyph-name="L" unicode="L" horiz-adv-x="1099" 
d="M198 111q0 -64 29 -87.5t85 -23.5h531q28 0 50 2.5t46 10t39.5 20t25.5 34.5t10 52q0 58 -35 88t-100 30q-25 0 -66.5 -5t-49.5 -6q-69 -3 -330 -3q-3 372 0 1073v150q0 72 -25 99t-94 27q-60 0 -86.5 -36t-27.5 -113l15 -1194q0 -22 -8.5 -60.5t-8.5 -57.5z" />
    <glyph glyph-name="M" unicode="M" horiz-adv-x="2027" 
d="M52 79q0 -45 34.5 -76.5t84.5 -31.5q40 0 62 19.5t50 65.5q39 119 149.5 549t163.5 577q108 -289 269 -869q5 -16 11 -55q5 -29 11 -47.5t19 -38.5t37 -30t59 -10q52 0 87.5 21.5t35.5 72.5q0 44 15 84q55 150 137 443t129 426q66 -185 157 -492.5t158 -554.5
q33 -161 148 -161q59 0 83.5 35t20.5 92q-2 25 -29 98q-66 211 -122 388t-94 296.5t-72 222t-52 156t-37.5 108t-24.5 68.5t-18.5 47t-13.5 34q-14 34 -38.5 46t-63.5 12q-22 0 -40.5 -5t-32 -17t-23 -22t-18.5 -31t-13.5 -32.5t-12.5 -37t-11 -35.5q-15 -46 -88.5 -320
t-156.5 -531l-14 42l-251 797q-14 47 -21.5 68.5t-21 51t-27 41.5t-34.5 21.5t-49 9.5q-26 0 -53 -10.5t-43 -26.5q-12 -12 -31 -64t-33 -110v1q-351 -1181 -377 -1254q-5 -12 -5 -31z" />
    <glyph glyph-name="N" unicode="N" horiz-adv-x="1724" 
d="M203 64q0 -42 34.5 -67.5t86.5 -25.5q70 0 95 35t25 96q0 20 -3 59.5t-3 53.5q0 62 -3.5 343t-5.5 629l60 -94q122 -163 387 -502.5t400 -523.5q14 -43 49 -69.5t88 -26.5q62 0 87 29.5t25 105.5q0 28 -4 77.5t-4 72.5v1147q0 28 -1.5 48t-8 45t-17.5 40.5t-32.5 26.5
t-51.5 11q-65 0 -94.5 -26.5t-29.5 -102.5q0 -24 5 -115.5t10 -328t5 -614.5q-88 130 -405.5 530.5t-399.5 524.5q-12 39 -43.5 79.5t-73.5 40.5q-55 0 -92 -30q-89 -20 -89 -117q0 -31 8 -81q14 -208 14 -714q0 -96 -5 -458l-8 -32q-5 -33 -5 -66z" />
    <glyph glyph-name="O" unicode="O" horiz-adv-x="1684" 
d="M144 773q0 -225 85 -407t245 -288.5t368 -106.5t368.5 107t245 288.5t84.5 406.5q0 239 -78.5 418t-235.5 281t-376 102q-210 0 -370.5 -101t-248 -283t-87.5 -417zM372 773q0 272 125 433.5t348 161.5q93 0 170.5 -31.5t131.5 -86t91.5 -130t55 -163t17.5 -184.5
q0 -115 -29 -220.5t-85 -190.5t-147 -136t-205 -51q-109 0 -200 51t-150 135.5t-91 191t-32 220.5z" />
    <glyph glyph-name="P" unicode="P" horiz-adv-x="1412" 
d="M207 83q0 -51 37 -81.5t88 -30.5q43 0 81.5 25t38.5 73q0 25 -6.5 68t-6.5 64q0 8 -0.5 43t-0.5 89q27 -1 58 0q812 0 812 638q0 184 -88 319t-237.5 203t-339.5 68q-29 0 -81 -4.5t-77 -4.5q-32 0 -92 4.5t-88 4.5q-50 0 -78.5 -33t-28.5 -77q0 -50 15 -86l4 -1150
q0 -23 -5 -66.5t-5 -65.5zM439 550q-2 252 -8 797q28 0 93 2t99 2q36 0 71.5 -3t82 -12.5t86.5 -25.5t80.5 -44.5t68.5 -66.5t46 -94.5t18 -125.5q0 -50 -4 -90t-17 -86.5t-34.5 -82.5t-59.5 -70t-89.5 -56.5t-126 -36t-167.5 -13.5q-31 0 -139 6z" />
    <glyph glyph-name="Q" unicode="Q" horiz-adv-x="1742" 
d="M144 773q0 -225 85 -407t245 -288.5t368 -106.5q234 0 410 136q131 -136 253 -136q84 0 138.5 36.5t54.5 105.5q0 50 -30 78t-70 28q-24 0 -58 -14.5t-49 -14.5q-43 -1 -104 60q153 216 153 523q0 239 -78.5 418t-235.5 281t-376 102q-210 0 -370.5 -101t-248 -283
t-87.5 -417zM372 773q0 272 125 433.5t348 161.5q93 0 170.5 -31.5t131.5 -86t91.5 -130t55 -163t17.5 -184.5q0 -193 -76 -344q-98 99 -173 141.5t-181 42.5q-59 0 -100 -25.5t-41 -86.5q0 -33 16.5 -56.5t42 -33.5t46 -14t38.5 -4q11 0 26 1.5t20 1.5q43 0 86.5 -32.5
t97.5 -94.5q-112 -94 -268 -94q-109 0 -200 51t-150 135.5t-91 191t-32 220.5z" />
    <glyph glyph-name="R" unicode="R" horiz-adv-x="1572" 
d="M205 111q0 -61 39 -100.5t98 -39.5q45 0 82.5 28t37.5 80q0 32 -10.5 93t-11.5 90v146q71 0 149 -2q36 -1 148 -1q12 -55 32 -109t56.5 -115t83 -106t116 -74.5t150.5 -29.5q150 0 245.5 63.5t95.5 151.5q0 47 -30.5 76.5t-83.5 29.5q-49 0 -85 -51q-38 -59 -124 -59
q-98 0 -161 74.5t-81 188.5q55 22 107 56t103 87.5t89 118t61.5 152.5t23.5 186q0 262 -175 389t-488 127q-33 0 -94.5 -5t-91.5 -5q-38 0 -97 5t-85 5q-50 0 -78 -35t-28 -81q0 -48 14 -86q-1 -337 -1 -1166q-6 -48 -6 -82zM439 623q-9 211 -9 469q0 156 4 258q34 0 107 2
t110 2q41 0 71.5 -1t80 -7.5t86.5 -18t78.5 -33.5t68.5 -53t45 -79t18 -108q0 -59 -8 -110t-26.5 -102t-52 -90.5t-81 -70.5t-117.5 -47.5t-158 -16.5q-77 0 -217 6zM908 431l-1 -1q0 1 1 1zM907 430h-1h1z" />
    <glyph glyph-name="S" unicode="S" 
d="M154 359q-2 -82 31 -149.5t88 -111t126 -73.5t141 -42.5t138 -12.5q79 0 152 13.5t143 45.5t121 79.5t82.5 121t31.5 164.5q0 60 -16 115t-41.5 98t-65 84.5t-78.5 72t-91 63t-92.5 54t-92.5 48.5q-3 2 -5 2.5t-4.5 2t-4.5 2.5q-33 17 -40.5 21t-38.5 21t-41.5 24.5
t-36 25t-36 29.5t-27.5 31.5t-24 36.5t-13 39t-6 45q0 56 36.5 95t87.5 54.5t111 15.5q167 0 216 -81q4 -43 33 -74.5t87 -31.5q46 0 80 31t30 84q-8 74 -46 128t-99.5 84.5t-133 45t-155.5 14.5q-93 0 -176 -22t-150.5 -65t-107.5 -115t-40 -164q0 -62 13.5 -116t34 -94
t55 -77t67 -61.5t80.5 -52t84.5 -44.5t89.5 -42.5t86 -42.5q245 -128 245 -276q0 -55 -18 -97.5t-46.5 -67.5t-69.5 -41t-81.5 -21.5t-86.5 -5.5q-110 0 -197 44t-94 110q-2 20 3 56t5 50q0 44 -31.5 70t-77.5 26q-69 0 -98.5 -40.5t-35.5 -125.5z" />
    <glyph glyph-name="T" unicode="T" horiz-adv-x="1138" 
d="M443 134v-8q0 -29 0.5 -44.5t6.5 -40t17.5 -37.5t35 -23.5t57.5 -10.5q121 0 121 125q0 19 -3.5 50t-3.5 47l3 1128h258q11 0 32 -3t31 -3q42 1 71.5 36t29.5 84q0 59 -36 85t-85 26h-798q-76 0 -108 -23t-32 -81q0 -48 25 -85.5t71 -37.5q62 0 164 1t145 1z" />
    <glyph glyph-name="U" unicode="U" horiz-adv-x="1527" 
d="M189 735q2 -765 578 -765q286 0 428.5 199.5t142.5 572.5q0 59 -2 158.5t-2 145.5q-4 164 -4 278q0 25 2.5 71.5t2.5 67.5q0 46 -29 78.5t-92 32.5q-56 0 -86 -29t-30 -97q0 -30 1 -50q10 -330 10 -654q0 -280 -77.5 -420t-253.5 -140q-66 0 -119 17t-90 45t-64.5 72
t-43.5 90.5t-26 107t-13 116t-3 123.5q0 211 2.5 356t5.5 213t3 92q0 158 -133 158q-60 0 -83 -46t-23 -137q0 -98 -1.5 -319t-0.5 -337z" />
    <glyph glyph-name="V" unicode="V" horiz-adv-x="1344" 
d="M557 72q7 -24 13 -37.5t18 -31t32 -25.5t47 -8q126 0 126 99q0 12 -4 34q105 267 180 473q157 426 290 732l1 2q55 87 55 146q0 50 -37 84t-85 34q-57 0 -92.5 -49t-39.5 -101q-93 -272 -386 -1041q-102 276 -243 641t-189 483q-28 64 -100 64q-55 0 -88.5 -37t-20.5 -90
q15 -65 186 -493q225 -566 337 -879z" />
    <glyph glyph-name="W" unicode="W" horiz-adv-x="1995" 
d="M540 100q4 -24 9.5 -41.5t17.5 -40.5t34.5 -35.5t54.5 -12.5q52 0 89 24.5t37 67.5q0 18 -2 30q45 120 123 358t93 280q29 -76 79 -222t68 -197q9 -24 28 -74.5t33.5 -90.5t27.5 -82v1q6 -22 11 -35t16 -29t29 -23.5t43 -7.5q65 0 100 30.5t35 77.5v16q15 44 59 172.5
t59 171t52 149t55 156t50.5 140t55.5 152.5t53.5 141t60.5 155q18 45 24.5 69t6.5 58q0 51 -30 80t-86 29q-59 0 -88.5 -41t-43.5 -112v1q-76 -197 -194.5 -562t-158.5 -479q-178 506 -221 616q74 187 150 342q40 78 40 120q0 54 -30 86.5t-81 32.5q-32 0 -55 -10.5
t-36 -30.5t-19.5 -37t-12.5 -41q-44 -157 -79 -234q-4 12 -13 44.5t-14 44.5q-61 164 -89.5 210.5t-72.5 46.5q-65 0 -92.5 -27.5t-27.5 -92.5q0 -45 44 -124q16 -32 67 -177.5t66 -175.5q-35 -91 -67 -183.5t-72 -211t-66 -192.5q-106 327 -381 1095q-22 59 -46.5 77
t-58.5 18q-122 0 -122 -109q0 -46 34 -134q167 -433 454 -1227z" />
    <glyph glyph-name="X" unicode="X" horiz-adv-x="1241" 
d="M49 108q0 -66 45.5 -102t101.5 -36q16 0 33 16.5t28.5 35t33.5 58.5q40 66 160 274.5t163 280.5q324 -525 333 -554v-1q21 -50 52.5 -80t51.5 -30q79 0 110 34t31 93q0 19 -9 38t-16.5 28t-26.5 29q-16 17 -29 35q-121 170 -376 584q117 181 335 512q68 77 68 129
q0 51 -35 82.5t-86 31.5q-46 0 -69.5 -24t-48.5 -80q-121 -212 -279 -470q-63 101 -138 224q-157 254 -201 313q-35 43 -83 43q-46 0 -79 -31.5t-33 -77.5q0 -23 24 -63t73 -111q8 -11 12 -17q188 -270 303 -450q-148 -247 -398 -617q-18 -23 -27 -35.5t-16.5 -29
t-7.5 -32.5z" />
    <glyph glyph-name="Y" unicode="Y" horiz-adv-x="1226" 
d="M500 69q0 -41 33.5 -70t85.5 -29q117 0 117 103q0 75 -6.5 207.5t-8.5 205.5t5 177q32 59 85 146.5t97 156.5t123 191.5t119 184.5q56 52 56 115q0 116 -123 116q-45 0 -70 -32t-51 -97h1q-65 -126 -315 -512l-31 -53l-32 53q-37 59 -104 157t-119 180.5t-91 160.5
q-59 143 -126 143q-57 0 -91 -30t-34 -85q0 -36 60 -122q186 -268 426 -671q7 -219 0.5 -405.5t-6.5 -190.5z" />
    <glyph glyph-name="Z" unicode="Z" 
d="M132 122q0 -59 33 -90.5t112 -31.5h762q112 0 155 26t43 83q0 114 -124 114q-70 0 -115 -12l-557 -6q110 173 339 541.5t354 562.5q1 2 19 27.5t28.5 41t21 37t10.5 34.5q0 48 -25.5 82t-82.5 34q-62 0 -84 -18q-117 -2 -744 -2q-68 0 -101 -23.5t-33 -78.5
q0 -113 144 -113l596 12q-70 -113 -168.5 -275.5t-214 -348.5t-291.5 -461q-30 -30 -53.5 -69.5t-23.5 -65.5z" />
    <glyph glyph-name="bracketleft" unicode="[" horiz-adv-x="848" 
d="M149 -146q0 -165 132 -165q210 -8 227 -8q29 0 53 6q43 10 64 43t21 69q0 41 -29.5 77t-81.5 36l-61 -2q-34 -2 -100 -2l3 1705h100q20 0 43.5 -1t30.5 -1q136 0 136 110q0 43 -22 73t-75 30q-17 0 -49.5 -3t-48.5 -3h-224q-118 0 -118 -156q0 -160 6 -446t6 -421v-102
q-1 -128 -7 -409.5t-6 -429.5z" />
    <glyph glyph-name="backslash" unicode="\" horiz-adv-x="1015" 
d="M902 15q-63 186 -586 1650q-9 27 -32 47t-60 20q-53 0 -85 -28.5t-32 -70.5q0 -16 4 -32q0 -1 0.5 -2t0.5 -2q34 -116 586 -1656q3 -9 5 -28q1 -15 5 -30t14.5 -36t33 -34t53.5 -13q57 0 94 35.5t37 74.5q0 6 -3 21t-12.5 41t-23.5 44z" />
    <glyph glyph-name="bracketright" unicode="]" horiz-adv-x="848" 
d="M698 -146q0 148 -6 429.5t-7 409.5v102q0 135 6 421t6 446q0 156 -118 156h-224q-16 0 -48.5 3t-49.5 3q-53 0 -75 -30t-22 -73q0 -110 136 -110q7 0 30.5 1t43.5 1h100l3 -1705q-66 0 -100 2l-61 2q-52 0 -81.5 -36t-29.5 -77q0 -36 21 -69t64 -43q24 -6 53 -6
q17 0 227 8q132 0 132 165z" />
    <glyph glyph-name="asciicircum" unicode="^" horiz-adv-x="1545" 
d="M331 333q60 0 102 49q52 118 159 397t159 398l271 -663q59 -181 159 -181q45 0 76 26t31 71q0 22 -14 64.5t-35 65.5q-219 555 -371 906q-21 39 -51.5 59.5t-62.5 20.5q-31 0 -61.5 -20.5t-52.5 -60.5q-80 -189 -213.5 -529t-196.5 -464q-7 -15 -7 -38q0 -48 31.5 -74.5
t76.5 -26.5z" />
    <glyph glyph-name="underscore" unicode="_" horiz-adv-x="1348" 
d="M0 -158q-98 0 -133 -21t-35 -78q0 -90 168 -90h1348q161 0 161 94q0 27 -11 46t-25 28.5t-39.5 14.5t-41.5 5.5t-44 0.5h-1348z" />
    <glyph glyph-name="grave" unicode="`" horiz-adv-x="676" 
d="M431 1404q51 0 84 32t33 87q0 31 -27.5 62t-49.5 40q-34 27 -208 194q-61 56 -109 56q-40 0 -72 -33.5t-32 -69.5q0 -33 10.5 -56t42.5 -49q73 -62 199 -188v1q30 -33 42.5 -44.5t35 -21.5t51.5 -10z" />
    <glyph glyph-name="a" unicode="a" horiz-adv-x="1594" 
d="M114 600q0 -178 74 -321.5t208.5 -225.5t304.5 -82q124 0 234 53.5t176 135.5q9 -175 130 -175q31 0 66.5 7.5t59.5 15.5t65.5 24t59.5 22q61 21 61 94q0 43 -26 78.5t-71 35.5q-24 0 -63 -15q-37 -19 -59 -24q-5 28 -5 237q0 66 4 194q5 157 5 350q1 18 5 65.5t4 72.5
q0 33 -36 67t-87 34q-62 0 -92.5 -33t-30.5 -86q0 -40 1 -58q-64 73 -168 123.5t-224 50.5q-124 0 -234.5 -49.5t-189.5 -134t-125.5 -203.5t-46.5 -253zM344 600q0 119 47 217t132.5 155.5t192.5 57.5q83 0 155 -37t120 -96t78.5 -124t42.5 -130v-88q-13 -68 -46 -132
t-83 -118t-122 -86.5t-153 -32.5q-111 0 -195.5 58.5t-126.5 152t-42 203.5z" />
    <glyph glyph-name="b" unicode="b" horiz-adv-x="1529" 
d="M198 65q0 -50 22.5 -68t69.5 -18q49 0 85.5 20t36.5 67v42q65 -61 162.5 -99t199.5 -38q141 0 258.5 41.5t202.5 120t132.5 200t47.5 275.5q0 283 -165 453.5t-434 170.5q-115 0 -220.5 -42.5t-171.5 -113.5q1 49 4.5 275.5t3.5 327.5q0 47 -27 75t-68 28q-30 0 -84 -4
t-80 -4q-12 0 -32.5 4t-30.5 4q-41 0 -68 -28.5t-27 -79.5q0 -55 28 -83t68 -28q17 0 43 3t38 3q8 -151 5.5 -662.5t-0.5 -637.5q1 -78 1 -204zM403 594q0 179 116 300.5t271 121.5q179 0 282 -110t103 -301q0 -211 -112 -315t-296 -104q-70 0 -135.5 29t-116.5 80
t-81.5 129t-30.5 170z" />
    <glyph glyph-name="c" unicode="c" horiz-adv-x="1385" 
d="M114 604q0 -128 46 -244t126 -202t196 -136.5t248 -50.5q126 0 245 38t205 124q65 73 70 142q2 25 -6 47.5t-32.5 40.5t-62.5 20q-28 2 -56.5 -14.5t-47.5 -40.5q-51 -66 -137.5 -104t-167.5 -38q-79 0 -145 26t-110 67.5t-74.5 95t-44.5 108t-14 107.5q0 85 24.5 160.5
t70.5 135.5t120 95t166 35q62 0 110 -9t76 -21.5t50.5 -34.5t32 -37t21.5 -40q16 -31 25.5 -45t32.5 -27t56 -13q50 0 76 32t26 83q0 30 -10 89t-10 90q0 18 3 48.5t3 44.5q0 43 -27.5 68.5t-74.5 25.5q-102 0 -119 -97q-92 59 -238 59q-166 0 -294 -52t-204.5 -141
t-115 -199.5t-38.5 -235.5z" />
    <glyph glyph-name="d" unicode="d" horiz-adv-x="1578" 
d="M119 600q0 -131 41.5 -246.5t115 -200t181.5 -133.5t235 -49t247.5 49.5t201.5 131.5q33 -167 122 -167q7 0 14 1.5t16.5 4.5t16 5.5t18.5 9t17.5 9t20 10.5t18.5 10q52 28 91 46q28 11 48.5 37.5t20.5 65.5q0 55 -32.5 82.5t-70.5 23.5q-33 -3 -83 -32l-18 -11
q-7 83 -7 300q0 727 8 1075q9 20 9 53q0 48 -24 77t-66 29q-40 0 -134 -3t-143 -2q-24 6 -56 6q-42 0 -68.5 -29t-26.5 -79q0 -54 32 -88t71 -34q17 0 47 5t45 5h85q4 -324 4 -507q-65 85 -171 131t-225 46q-170 0 -307.5 -82t-215.5 -227t-78 -323zM342 600
q0 184 108.5 299.5t276.5 115.5q140 0 247.5 -97.5t139.5 -244.5q0 -19 0.5 -69t0.5 -112q-30 -136 -149 -221t-257 -85q-110 0 -195.5 60t-128.5 153.5t-43 200.5z" />
    <glyph glyph-name="e" unicode="e" horiz-adv-x="1402" 
d="M357 451q110 25 389.5 83.5t429.5 96.5q48 12 77.5 41t29.5 72q0 66 -39 99q-36 173 -173.5 281t-328.5 108q-133 0 -248.5 -46.5t-199.5 -130t-132 -205.5t-48 -267q0 -83 22.5 -168t70 -165t115 -142t165.5 -99.5t212 -37.5q290 0 498 193q66 60 66 112q0 50 -28 79.5
t-77 29.5q-25 0 -55.5 -22t-50.5 -53q-30 -43 -121.5 -83.5t-230.5 -40.5q-53 0 -103 14t-98 43.5t-85.5 82.5t-56.5 125zM340 636q15 173 121 276.5t274 103.5q105 0 186 -64.5t117 -162.5q-124 -30 -357.5 -79t-340.5 -74z" />
    <glyph glyph-name="f" unicode="f" horiz-adv-x="964" 
d="M280 89q0 -64 34 -91t82 -27q37 0 143 28q22 6 106 28q49 11 75.5 40.5t26.5 68.5q0 45 -29.5 75t-65.5 30q-31 0 -105 -24q-21 -8 -46 -14l-9 794h219q55 0 87.5 34t32.5 79q0 41 -26.5 70t-73.5 29q-181 0 -249 -1q-7 70 -7 107q0 265 154 265q64 0 108 -46
q30 -32 51 -45t53 -13q46 0 76 27t30 72q0 32 -16.5 66t-49 66.5t-93.5 53.5t-140 21q-186 0 -289.5 -101.5t-103.5 -313.5q0 -50 7 -164q-7 0 -18.5 3.5t-18.5 3.5q-40 0 -67.5 -28.5t-27.5 -77.5q0 -57 31.5 -82t75.5 -25h31l17 -829q0 -9 -2.5 -36.5t-2.5 -42.5z" />
    <glyph glyph-name="g" unicode="g" horiz-adv-x="1507" 
d="M242 -255q0 -61 80.5 -118t192.5 -89t213 -32q52 0 101.5 5.5t110 22t112 43t102.5 72.5t86 107t57 150t22 197q0 173 4 437q3 201 3 419q0 17 4 46.5t4 43.5q0 53 -23.5 82.5t-86.5 29.5q-76 0 -102 -86q-143 157 -407 157q-128 0 -239 -45.5t-191.5 -126.5t-125.5 -200
t-44 -260q2 -178 77 -321.5t209.5 -225.5t303.5 -82q268 0 392 152q0 -11 1 -32.5t1 -30.5q0 -65 -22.5 -121.5t-60 -96.5t-85 -68.5t-98 -42t-99.5 -13.5q-58 0 -105 10t-85.5 32t-60 39t-55.5 47q-33 27 -82 27q-45 0 -74.5 -39.5t-29.5 -88.5zM338 600q0 184 107.5 307
t281.5 123q97 0 172 -34t120 -94t67.5 -136t22.5 -166q0 -184 -104.5 -299t-292.5 -115q-169 0 -271.5 116.5t-102.5 297.5z" />
    <glyph glyph-name="h" unicode="h" horiz-adv-x="1555" 
d="M205 72q0 -51 22.5 -76t79.5 -25q20 0 140 27q13 3 39.5 8.5t39.5 8.5q35 7 59 38t24 67q0 51 -29 78.5t-82 25.5q-19 -1 -43 -11q-20 -7 -22 -7q-3 324 1 598q71 89 168 150.5t191 61.5q167 0 242.5 -100.5t75.5 -296.5q0 -111 -34.5 -226.5t-87.5 -190.5
q-51 -66 -51 -118t29 -82.5t91 -30.5q37 0 138 26t166 49q36 12 58 39.5t22 64.5q0 19 -7 40.5t-32.5 43t-66.5 21.5q-31 0 -92 -21q42 86 67 190t25 195q0 308 -136.5 460.5t-393.5 152.5q-99 0 -196 -43.5t-173 -110.5l2 51q7 481 7 550q0 47 -26.5 75t-68.5 28
q-23 0 -81 -4q-36 -4 -82 -4q-12 0 -32.5 4t-30.5 4q-41 0 -68 -28.5t-27 -79.5q0 -55 31.5 -82t73.5 -27q15 0 38.5 3t33.5 2q12 -736 12 -1294q0 -50 -9 -129q-5 -42 -5 -75z" />
    <glyph glyph-name="i" unicode="i" horiz-adv-x="833" 
d="M482 1378q24 11 37.5 25t17.5 26.5t9 38.5q12 63 16 72q32 76 26 118q-4 27 -14 51q-28 62 -112 48q-46 -7 -71 -36.5t-28 -75.5q-1 -20 -21 -89.5t-15 -98.5q9 -54 57 -77.5t98 -1.5zM311 75q0 -104 115 -104q42 0 208 45q117 36 105 119q-9 42 -27 62t-66 20
q-24 0 -57 -12t-53 -13q-3 81 -0.5 394t2.5 366q0 30 7 84.5t7 80.5q0 102 -95 102q-21 0 -70 -3.5t-74 -3.5q-24 0 -73.5 3.5t-75.5 3.5q-41 0 -68.5 -28.5t-27.5 -79.5q0 -55 32 -81.5t73 -26.5q80 0 147 5q6 -316 6 -729q0 -71 -7.5 -124.5t-7.5 -79.5z" />
    <glyph glyph-name="j" unicode="j" horiz-adv-x="762" 
d="M445 1378q24 11 37 25t17 26t10 39q12 63 16 72q31 74 25 118q-4 31 -13 51q-28 63 -112 48q-92 -13 -99 -112q-2 -20 -21.5 -89.5t-15.5 -98.5q9 -55 57.5 -78t98.5 -1zM47 -304q-84 -28 -84 -101q0 -116 118 -116q45 0 102 40q69 27 311 147v-1q63 28 63 118
q-10 155 -10 168q-8 675 -8 1012q0 28 5 77.5t5 73.5q0 103 -104 103q-39 0 -100 -2t-87 -2q-28 -1 -58.5 2t-46.5 3q-41 0 -69 -29t-28 -78q0 -57 32 -82.5t75 -25.5q56 0 148 7q18 -322 18 -957q0 -19 3 -235q-172 -88 -285 -122z" />
    <glyph glyph-name="k" unicode="k" horiz-adv-x="1488" 
d="M208 70q0 -51 22.5 -75t79.5 -24q27 0 75.5 12t67.5 14q28 3 44.5 6t41 11t38.5 20t24.5 33.5t10.5 50.5q0 104 -111 104q-10 0 -21 -2.5t-24.5 -7t-19.5 -5.5q-1 62 -1.5 111.5t-1 74t-1 42.5t-0.5 26.5v14.5l-3 129q49 168 170.5 293t253.5 125q104 0 157 -38.5
t53 -128.5q0 -152 -210 -233q-25 5 -46 5q-57 0 -91.5 -28.5t-34.5 -80.5q0 -58 36.5 -82t114.5 -24q21 0 37.5 -10t27 -22t22 -39t17 -44t15.5 -53q12 -42 20 -65.5t24 -61.5t34 -60t44.5 -45t63 -33.5t81.5 -10.5q234 0 234 133q0 52 -29 82.5t-74 30.5q-19 0 -54.5 -9.5
t-53.5 -9.5q-43 0 -80 137q-33 122 -104 182q102 49 170.5 142t68.5 217q0 167 -99.5 262.5t-288.5 95.5q-149 0 -272.5 -76t-206.5 -191q2 206 6 470q0 58 2.5 101t6.5 81.5t5 61.5q0 47 -26.5 75t-68.5 28q-30 0 -83.5 -4t-79.5 -4q-12 0 -32.5 4t-30.5 4q-41 0 -68 -28.5
t-27 -79.5q0 -55 31.5 -82t73.5 -27q44 0 72 5q12 -736 12 -1296q0 -37 -7 -104t-7 -100z" />
    <glyph glyph-name="l" unicode="l" horiz-adv-x="790" 
d="M254 103q0 -51 30.5 -91.5t89.5 -40.5q39 0 94 17l100 26q59 14 88.5 39.5t29.5 68.5q0 110 -105 110q-27 0 -108 -24v1311q1 26 12.5 77t11.5 78q0 53 -25.5 80.5t-69.5 27.5q-42 0 -94.5 -4t-89.5 -4q-26 0 -72.5 4t-68.5 4q-40 0 -67.5 -29t-27.5 -79q0 -55 32 -82
t73 -27q30 0 84 4t77 4q13 -772 13 -1167q0 -76 -4 -172q-3 -69 -3 -131z" />
    <glyph glyph-name="m" unicode="m" horiz-adv-x="2349" 
d="M282 73q0 -52 23 -78t80 -26q23 0 73 14t67 16q28 4 45.5 7t42 11.5t38.5 20t24.5 33t10.5 50.5q0 50 -28 77t-82 27q-10 0 -69 -17q-3 -7 -3 257t1 399q152 153 327 153q164 0 235 -93.5t71 -264.5q0 -115 -29.5 -246t-73.5 -212q-30 -52 -30 -102q0 -51 30.5 -90.5
t90.5 -39.5q13 0 44 6t38 10q24 12 70.5 19t81.5 11t62.5 27t27.5 67q0 20 -4 38.5t-13.5 39t-31.5 33t-53 12.5q-16 0 -41 -7.5t-29 -8.5q41 90 65 218t24 225q0 149 -41 261q56 51 111.5 74t138.5 23q169 0 252.5 -95.5t83.5 -262.5q0 -118 -28.5 -250.5t-73.5 -205.5
q-51 -59 -51 -117q0 -52 30 -84.5t91 -32.5q19 0 86 18q155 33 198 54t43 80q0 16 -4 33t-14 36.5t-33 32t-56 12.5q-15 0 -35 -6q32 88 53.5 214t21.5 216q0 273 -151 423t-408 150q-83 0 -179.5 -37.5t-178.5 -105.5q-137 143 -387 143q-80 0 -167.5 -33t-163.5 -96v20
q0 51 -17.5 77t-58.5 26q-30 0 -83.5 -4t-79.5 -4q-11 0 -32 4t-31 4q-42 0 -69 -28.5t-27 -80.5q0 -54 32 -81t74 -27q43 0 71 5q13 -576 13 -737q0 -37 -7.5 -104t-7.5 -100z" />
    <glyph glyph-name="n" unicode="n" horiz-adv-x="1622" 
d="M283 74q0 -52 22.5 -77.5t79.5 -25.5q16 0 95 22q12 4 49 8q27 3 43.5 6t41 11t38 20t24 33.5t10.5 50.5q0 50 -28 77t-82 27q-12 0 -40 -8l-27 -8q-2 23 -2 96q0 174 4 311q0 62 2 182q77 92 183 154.5t216 62.5q65 0 117 -24t85 -63t54.5 -92t30.5 -107t9 -111
q0 -275 -102 -403q-41 -49 -41 -125q0 -45 25.5 -82.5t70.5 -37.5q16 -1 32.5 2t31 7.5t55 18t78.5 25.5l108 25q81 28 81 114q0 113 -112 102q-24 -3 -79 -19q80 192 80 373q0 294 -130.5 453.5t-381.5 159.5q-224 0 -402 -168q3 30 3 59q0 48 -26.5 75.5t-68.5 27.5
q-24 0 -82 -4q-36 -4 -82 -4q-11 0 -32 4t-31 4q-42 0 -68.5 -28.5t-26.5 -80.5q0 -54 31.5 -81t73.5 -27q44 0 72 5q6 -328 9 -433v-11q3 -147 3 -291q0 -50 -9 -131q-5 -40 -5 -74z" />
    <glyph glyph-name="o" unicode="o" horiz-adv-x="1460" 
d="M109 603q0 -139 49.5 -258.5t134.5 -200.5t198 -127t239 -46q168 0 309 77.5t226.5 223.5t85.5 331q0 174 -76 316.5t-219 227.5t-326 85q-169 0 -312 -84.5t-226 -229t-83 -315.5zM340 603q0 176 105 294.5t284 118.5q180 0 286 -119t106 -294q0 -196 -112 -306.5
t-280 -110.5q-179 0 -284 113t-105 304z" />
    <glyph glyph-name="p" unicode="p" horiz-adv-x="1504" 
d="M423 -72l-4 193q67 -71 166 -110.5t208 -39.5q186 0 323 86t205.5 230t68.5 326q0 286 -159.5 452.5t-421.5 166.5q-121 0 -224 -48t-167 -129q1 12 5 40.5t4 43.5q0 44 -25.5 66.5t-70.5 22.5q-19 0 -49 -3t-43 -3q-16 0 -46 3t-44 3q-56 0 -82.5 -21.5t-26.5 -81.5
q0 -56 31.5 -80.5t73.5 -24.5q13 0 36 3.5t26 3.5q6 -53 6 -477v-975q0 -49 26.5 -67.5t74.5 -18.5q47 0 80 19.5t33 67.5q0 114 -4 352zM417 525v91q20 163 129.5 281.5t246.5 118.5q165 0 262 -115.5t97 -290.5q0 -203 -98.5 -313.5t-296.5 -110.5q-125 0 -221 96.5
t-119 242.5z" />
    <glyph glyph-name="q" unicode="q" horiz-adv-x="1536" 
d="M114 603q0 -282 167.5 -457t428.5 -175q124 0 234.5 45t185.5 122v-486q0 -82 37 -122.5t93 -40.5q30 0 44.5 1.5t34.5 9t41 24.5l111 52q52 31 72 56t20 78q0 47 -31 73t-80 26q-43 0 -125 -53q1 1003 4 1070q2 84 2 119q12 49 12 97q0 54 -31 87t-89 33
q-72 0 -103 -106q-150 176 -413 176q-130 0 -245 -50.5t-195.5 -135.5t-127.5 -200.5t-47 -242.5zM335 603q0 107 45 200t136 153t210 60q152 0 257 -93t140 -228l4 -174q-35 -147 -149 -241t-261 -94q-162 0 -272 117t-110 300z" />
    <glyph glyph-name="r" unicode="r" horiz-adv-x="1252" 
d="M214 89q0 -55 34 -86.5t83 -31.5q41 0 135 18q83 16 94 17q41 3 69 38.5t28 81.5q0 48 -30.5 75.5t-72.5 30.5q-26 -2 -79 -20l-30 -9v653q108 24 178 40q110 23 250 56q0 -24 -1.5 -93.5t-1.5 -104.5q0 -47 26 -81t80 -34q50 0 88 19.5t38 63.5q0 49 -3 88
q-13 182 -6 251q0 12 2 36t2 35q0 43 -33 71.5t-87 28.5q-66 0 -98 -56q-192 -62 -429 -120q8 46 8 69q0 43 -29.5 75t-82.5 32q-65 0 -103 -28.5t-38 -80.5q0 -21 6 -59.5t6 -56.5v-771q0 -17 -1.5 -68.5t-1.5 -78.5z" />
    <glyph glyph-name="s" unicode="s" horiz-adv-x="1249" 
d="M122 259q0 -44 42 -95t110.5 -93.5t166 -71t197.5 -28.5q67 0 128.5 8t130.5 31.5t119 61t83 103t33 151.5q0 75 -30 134.5t-68 96t-111 70t-120.5 48t-133.5 38.5q-59 16 -93 26.5t-79 28.5t-68.5 35t-41 43t-17.5 57q0 61 66.5 98.5t170.5 37.5q159 0 270 -93
q13 -34 44.5 -58.5t70.5 -24.5q47 0 75 21.5t28 66.5q0 31 -9 52q0 34 3 89.5t3 79.5q0 46 -26 66t-77 20q-37 0 -62.5 -26t-34.5 -61q-50 20 -82.5 31t-85 20.5t-110.5 9.5q-85 0 -164 -18.5t-148.5 -55.5t-111.5 -102.5t-42 -151.5q0 -56 15 -103.5t38 -82t62 -64.5
t73 -49t87 -38t89.5 -29t92.5 -24q48 -12 77 -20.5t70 -22t65.5 -28t49 -34t35.5 -44t11 -54.5q0 -65 -72.5 -102.5t-179.5 -37.5q-235 0 -318 125q-17 24 -26.5 35t-30.5 21t-50 10q-41 0 -77.5 -30t-36.5 -73z" />
    <glyph glyph-name="t" unicode="t" horiz-adv-x="1000" 
d="M281 76q-1 -57 36 -81t84 -24q26 -1 104 15t180.5 40.5t144.5 32.5q51 11 79.5 46.5t28.5 67.5q0 55 -28.5 88t-76.5 33q-34 0 -88 -28q-17 -7 -32 -12.5t-33 -10.5t-28.5 -8t-32.5 -7t-31.5 -6t-39.5 -7.5t-43 -7.5l-7 789l121 1q21 0 63 -4t64 -4q61 0 83 31t22 86
q0 59 -27.5 87t-70.5 28q-35 0 -51 -1q-2 0 -6.5 -0.5t-7.5 -0.5q-153 -4 -192 -5v73q-1 31 6.5 88t7.5 84q0 59 -32 81t-88 22q-68 0 -96 -26t-28 -78q0 -20 5.5 -59t5.5 -58l1 -31v-60v-37h-71h-37t-30 -2t-27 -5.5t-19.5 -11t-16 -18.5t-8 -27t-3.5 -38q0 -49 24.5 -83
t67.5 -34l121 1l6 -705z" />
    <glyph glyph-name="u" unicode="u" horiz-adv-x="1437" 
d="M157 546q0 -282 131.5 -428.5t389.5 -146.5q84 0 181 36t183 110q-5 -33 -5 -34q0 -40 26.5 -76t80.5 -36q87 3 110.5 28t23.5 86q0 22 -3.5 59.5t-3.5 54.5q0 134 -3 362.5t-3 333.5q-1 76 -1 177q0 35 -0.5 52t-5.5 42t-14.5 36.5t-28 20.5t-46.5 9q-34 0 -89 -20.5
t-76 -23.5q-27 -6 -36 -7.5t-30.5 -7t-29 -9t-22.5 -10t-20 -13.5t-12.5 -17t-10 -22.5t-2.5 -28.5q0 -55 31 -84.5t76 -29.5q36 0 101 19q6 -150 6 -316q0 -150 -4 -299q-78 -82 -176 -132.5t-192 -50.5q-306 0 -306 366q0 130 34.5 259.5t95.5 197.5q50 56 50 116
q0 50 -29.5 81.5t-89.5 31.5q-45 0 -115 -29q-56 -22 -76 -25q-77 -16 -109.5 -37t-32.5 -77q0 -112 102 -112q17 0 37 6q-87 -188 -87 -412z" />
    <glyph glyph-name="v" unicode="v" horiz-adv-x="1307" 
d="M389 350q80 -86 121.5 -151t42.5 -135q1 -38 38 -65.5t81 -27.5q15 0 25.5 1t27 7t27 16.5t19 32t9.5 51.5q1 40 15.5 79.5t46.5 85t53 71t66 76.5q48 53 80.5 93.5t70.5 99.5t57.5 121t19.5 126q0 98 -24 178q116 9 116 109q0 45 -36 71t-76 26q-38 0 -90 -1.5t-72 -1.5
q-68 0 -94.5 -25.5t-26.5 -70.5q0 -50 34 -93q15 -22 23.5 -37t17.5 -54.5t9 -92.5q0 -43 -10 -82t-21.5 -65t-39 -61t-42 -51t-50.5 -53q-95 -95 -136 -181l-5 -10q-38 77 -140 186q-36 38 -51 54.5t-42 52t-38 62t-21 66t-10 82.5q0 88 18 154q7 19 40 60t33 72
q0 39 -20.5 64t-81.5 25q-91 -2 -153 1q-4 0 -17 0.5t-18 0.5q-19 1 -39 1q-44 0 -74.5 -27.5t-30.5 -79.5q0 -56 38.5 -85t81.5 -29h21q-15 -86 -15 -148q0 -66 15.5 -128.5t35.5 -108t57.5 -98.5t63 -83.5t70.5 -79.5z" />
    <glyph glyph-name="w" unicode="w" horiz-adv-x="1770" 
d="M449 138q40 -93 73 -130t81 -37q54 0 80.5 34t47.5 101q21 69 48 141.5t64 162t54 133.5q30 -74 80 -208t73 -191q72 -173 150 -173q33 0 54.5 8t36.5 30t21.5 39t19.5 57q14 53 36 103q67 155 194 487q102 263 111 283q7 15 26 44t29 52.5t10 50.5q0 41 -34 74t-86 33
q-30 0 -55 -14.5t-40 -33t-28 -50t-18.5 -52t-12.5 -52.5l-261 -701l-194 484l99 225q30 54 30 87q0 48 -33.5 77.5t-76.5 29.5q-48 0 -78 -32.5t-51 -85.5l-5 -14q-6 14 -8 21q-10 27 -17.5 42.5t-21 33.5t-33 26.5t-46.5 8.5q-44 0 -76.5 -31t-32.5 -83q0 -53 34 -112
q38 -72 87 -190q-17 -44 -96 -264q-78 -215 -81 -223q-28 68 -143 359.5t-182 442.5q-9 23 -12 30t-10.5 23.5t-14 21.5t-17.5 13t-25 10.5t-32 2.5q-45 0 -82 -29.5t-37 -79.5q0 -21 12.5 -57t30.5 -65v1q67 -119 358 -864z" />
    <glyph glyph-name="x" unicode="x" horiz-adv-x="1297" 
d="M141 87q0 -32 15 -56.5t37 -36.5t41.5 -17.5t34.5 -5.5q51 0 81.5 34t45.5 77q42 58 127 172t127 171q108 -130 185 -235.5t133 -170.5q12 -11 44.5 -29.5t45.5 -18.5q119 0 119 93q0 21 -11.5 58.5t-33.5 64.5q-6 6 -39.5 41t-43 45t-40 42.5t-49 54t-50 58t-64.5 76.5
t-71 88q65 85 125 164t84 110.5t42 55.5q116 135 116 194q0 47 -37.5 81.5t-77.5 34.5q-34 0 -61.5 -18.5t-42 -39.5t-31.5 -51q-1 -2 -1.5 -3.5t-1.5 -3.5t-2 -3v1l-250 -342l-290 371l1 -1q-19 42 -50 66t-61 24q-42 0 -79 -31.5t-37 -74.5q0 -69 65 -138q59 -68 170 -206
q102 -124 157 -186q-160 -224 -310 -388q-42 -46 -52 -64t-10 -57z" />
    <glyph glyph-name="y" unicode="y" horiz-adv-x="1457" 
d="M208 -222q0 -78 70 -142.5t181.5 -99.5t237.5 -35q109 0 195.5 16.5t162.5 56.5t126.5 104t79 163.5t28.5 230.5q0 38 -3 99.5t-3 88.5q4 778 5 811q4 24 4 45q0 40 -12 66.5t-33 35.5t-33.5 11.5t-30.5 2.5q-45 0 -90 -24l1 1l-155 -44q-106 -17 -106 -116q0 -52 34 -76
t82 -24q35 0 119 28v-608v-23q-49 -84 -133 -124t-213 -40q-77 0 -141.5 22t-117 68t-82.5 128t-30 192q0 127 66.5 269.5t148.5 175.5q45 33 45 94q0 45 -29.5 73t-71.5 28q-32 0 -110 -23q-77 -23 -130 -35q-94 -20 -130.5 -50.5t-36.5 -84.5q0 -34 31.5 -65t75.5 -31
q13 0 19 1q-48 -83 -73.5 -183.5t-25.5 -176.5q0 -132 32 -237t86.5 -174.5t131 -115.5t162.5 -66t184 -20q214 0 344 121q0 -2 0.5 -4.5t0.5 -3.5q-3 -104 -30.5 -178t-78 -115t-112.5 -59t-143 -18q-96 0 -161.5 21.5t-119.5 89.5q-19 22 -28 32t-29.5 23t-39.5 13
q-59 0 -90 -37.5t-31 -77.5z" />
    <glyph glyph-name="z" unicode="z" horiz-adv-x="1369" 
d="M179 111q0 -50 37.5 -85.5t133.5 -35.5l667 9q18 -20 40 -30q49 -18 87.5 -4t54.5 51l15 39q8 17 12 37q12 38 18 54q16 38 44.5 84t41.5 76q17 41 -6 74.5t-68 52.5q-65 23 -99.5 14t-49.5 -43t-35 -98.5t-23 -73.5q-10 -3 -36.5 -11.5t-37.5 -10.5q-45 -8 -193.5 -14
t-323.5 -5q71 86 306 336t329 379q91 135 91 185q0 63 -36 92t-92 29h-663q-12 0 -30 -2q-35 32 -83 32q-64 0 -95.5 -32.5t-31.5 -71.5t7 -85.5t7 -80.5q0 -22 -2.5 -52t-2.5 -49q0 -40 36.5 -71t77.5 -31q50 0 81.5 29.5t31.5 68.5q0 23 -4 65.5t-4 60.5h10q116 0 387 7
l104 3q-77 -115 -332.5 -399.5t-341.5 -388.5q-29 -28 -29 -104z" />
    <glyph glyph-name="braceleft" unicode="{" horiz-adv-x="1014" 
d="M372 -68q0 -66 13.5 -113t36 -74.5t59 -43t73.5 -20.5t89 -5q31 0 62.5 5t66.5 18t57 40.5t22 65.5t-25 75t-71 38q-27 1 -74.5 -11.5t-68.5 -12.5q-16 0 -16 87q0 103 13 292t13 279q0 62 -29.5 120.5t-71.5 82.5q41 32 62.5 99.5t21.5 148.5t-9 176q-14 173 -14 332
q0 136 55 136q23 0 66 -15q39 -15 78 -15q98 0 98 101q0 40 -24.5 68t-64.5 41.5t-78 19.5t-77 6q-98 0 -155.5 -41t-86 -139.5t-28.5 -271.5q0 -44 16 -196q16 -158 16 -203q0 -69 -28.5 -102.5t-78.5 -33.5q-11 0 -32 3t-31 3q-49 0 -79 -28.5t-30 -82.5q0 -56 33.5 -87
t85.5 -31q12 0 33.5 1.5t30.5 1.5q97 0 97 -121q0 -166 -19 -470q-7 -107 -7 -123z" />
    <glyph glyph-name="bar" unicode="|" horiz-adv-x="845" 
d="M296 -257q0 -45 32.5 -71.5t86.5 -26.5q61 0 88.5 33.5t27.5 71.5q0 13 -6.5 36t-6.5 35q2 1638 0 1809q-2 37 -23.5 68t-64.5 31q-127 0 -127 -102q-7 -1018 -7 -1884z" />
    <glyph glyph-name="braceright" unicode="}" horiz-adv-x="1014" 
d="M629 -83q0 16 -7 123q-19 304 -19 470q0 121 97 121q10 0 31 -1.5t33 -1.5q52 0 85.5 31t33.5 87q0 54 -30 82.5t-79 28.5q-10 0 -31 -3t-32 -3q-50 0 -78.5 33.5t-28.5 102.5q0 45 16 203q16 152 16 196q0 173 -28.5 271.5t-86 139.5t-155.5 41q-39 0 -77 -6t-78 -19.5
t-64.5 -41.5t-24.5 -68q0 -101 98 -101q39 0 78 15q43 15 66 15q55 0 55 -136q0 -159 -14 -332q-9 -95 -9 -176t21.5 -148.5t62.5 -99.5q-42 -24 -71.5 -82.5t-29.5 -120.5q0 -90 13 -279t13 -292q0 -87 -16 -87q-21 0 -68.5 12.5t-74.5 11.5q-46 -1 -71 -38t-25 -75
t22 -65.5t57 -40.5t66.5 -18t62.5 -5q52 0 89 5t73.5 20.5t59 43t36 74.5t13.5 113z" />
    <glyph glyph-name="asciitilde" unicode="~" horiz-adv-x="1521" 
d="M269 368q42 0 71.5 23t35.5 63q22 153 99 153q27 0 50 -7.5t46 -24.5t37 -30t40 -40q32 -32 49.5 -48.5t54.5 -44t70.5 -41.5t84 -25t108.5 -11q126 0 216.5 93t93.5 234q2 56 -30.5 90t-88.5 34q-52 0 -83 -34t-36 -89q-4 -51 -30.5 -84.5t-62.5 -33.5q-32 0 -60.5 9
t-56 29t-45 35.5t-46.5 44.5q-36 36 -59.5 56.5t-63 46.5t-86 38t-102.5 12q-136 0 -231 -96.5t-95 -239.5q0 -52 37 -82t83 -30z" />
    <glyph glyph-name="nbsp" unicode="&#xa0;" horiz-adv-x="847" 
 />
    <glyph glyph-name="exclamdown" unicode="&#xa1;" horiz-adv-x="624" 
d="M307 1042q-53 0 -84.5 -25t-31.5 -71q0 -21 4 -51.5t4 -43.5q0 -216 -6 -623.5t-6 -469.5q0 -57 34 -84t82 -27q66 0 97 29.5t31 75.5q0 190 -12 554t-12 542q0 17 3 47.5t3 45.5q0 48 -31 74.5t-75 26.5zM436 1461q1 40 -30 78.5t-81 38.5q-57 0 -95 -58t-38 -159
q0 -54 35 -84.5t88 -30.5q68 0 93.5 49.5t27.5 165.5z" />
    <glyph glyph-name="cent" unicode="&#xa2;" horiz-adv-x="1506" 
d="M546 20q-9 -73 -20 -193q-4 -49 31 -77.5t79 -28.5q39 0 74 26t39 74q9 112 14 159h7q33 0 87.5 11t125 36.5t133 62t110.5 94t59 125.5q0 40 -44.5 73t-81.5 33q-34 0 -63 -19.5t-40 -60.5q-35 -61 -112 -97.5t-158 -41.5q24 213 62 512l33 261q120 -36 177 -137
q18 -26 49 -44.5t55 -18.5q30 0 52.5 11.5t36.5 33.5t22.5 45.5t12.5 56.5t5 56.5t1 55.5q0 49 -39 84.5t-80 35.5q-56 0 -83 -40q-85 52 -184 75l21 204q-1 39 -38 69t-72 30q-42 0 -76 -22.5t-37 -63.5q-7 -77 -20 -207q-238 -28 -371 -192.5t-133 -424.5
q0 -199 99.5 -346t266.5 -210zM573 250q-78 49 -123.5 135t-45.5 198q0 330 255 388q-19 -168 -54 -460z" />
    <glyph glyph-name="sterling" unicode="&#xa3;" horiz-adv-x="1426" 
d="M71 113q0 -61 43 -91.5t93 -30.5q89 0 203 95q36 4 55 4q15 0 30 -1t32.5 -5t27 -5.5t31.5 -8.5t26 -8t30.5 -10.5t27.5 -9.5q144 -54 248 -54q57 0 116.5 16t110.5 45.5t83.5 77.5t32.5 105q0 49 -32 78.5t-76 29.5q-30 0 -60 -20t-47 -55q-29 -61 -122 -61q-35 0 -78 9
t-66 16.5t-73 25.5q-90 34 -140 42q28 68 28 174q0 79 -20 154q84 1 191 1q56 0 89.5 32.5t33.5 73.5t-30 75t-82 34q-180 0 -273 -1q-59 161 -59 262q0 65 23.5 115t65 79.5t92.5 44.5t110 15q87 0 147 -30.5t60 -87.5q0 -19 -7 -44q-46 -1 -72.5 -35.5t-26.5 -83.5
q0 -52 31.5 -83t85.5 -31q64 0 114.5 45.5t74.5 107t24 120.5q0 72 -25 130.5t-66.5 96t-98 63t-116.5 36.5t-124 11q-109 0 -202.5 -30.5t-163.5 -88t-109.5 -147.5t-39.5 -203q0 -117 44 -264h-87q-53 0 -83 -34.5t-30 -74.5q0 -44 33 -75.5t90 -31.5q101 0 156 1
q26 -96 26 -147q0 -100 -70 -189q-27 -4 -54 -12t-60 -22.5t-57.5 -33t-41.5 -46t-17 -60.5z" />
    <glyph glyph-name="currency" unicode="&#xa4;" horiz-adv-x="1434" 
d="M195 81q26 0 53 12.5t53 37t45 46t44 53.5q40 47 49 56q115 -70 262 -70q158 0 275 80q15 -14 34.5 -35.5t25.5 -27.5l4 -6v2q45 -55 80 -90q53 -56 106 -56q13 0 29 4t36.5 15t34 36t13.5 60q0 32 -30.5 66.5t-123.5 113.5l-75 64q61 109 61 247q0 133 -56 240l35 28
q180 143 180 195q0 27 -9.5 48.5t-23 33t-31 18.5t-30 9t-22.5 2q-31 0 -66.5 -23.5t-58.5 -48t-60 -69.5l-40 -47q-121 87 -288 87q-165 0 -290 -96q-20 21 -52 65q-47 63 -89 100t-87 37q-15 0 -31 -4t-36 -14t-33 -33.5t-13 -57.5q0 -27 13.5 -49.5t26.5 -34t44 -34.5
q66 -49 128 -117l4 -4q-57 -106 -57 -231q0 -154 73 -267l-82 -72q-27 -24 -65 -48q-47 -33 -59 -50q-15 -22 -15 -52q0 -33 13.5 -58t33 -37.5t37 -18t30.5 -5.5zM455 689q0 111 65 183.5t184 72.5q118 0 182 -72.5t64 -183.5q0 -124 -68 -189.5t-178 -65.5
q-119 0 -184 67.5t-65 187.5z" />
    <glyph glyph-name="yen" unicode="&#xa5;" horiz-adv-x="1525" 
d="M290 337q0 -58 28 -79t72 -21q52 -1 269 -1q0 -22 -0.5 -47.5t-0.5 -33.5v1q-8 -62 -8 -93q0 -40 34 -74.5t83 -34.5q63 0 89.5 33.5t26.5 79.5q0 32 -8 98v-1q-2 48 -2 72h271q48 0 73 23t25 78q0 32 -10.5 55t-28 33.5t-33 14.5t-32.5 4q-13 0 -36 -6.5t-34 -6.5
q-32 -2 -197 -7q0 59 2 173h268q97 0 97 102q0 42 -19 68t-39.5 32.5t-43.5 6.5q-14 0 -37 -6t-35 -6l-122 -3q127 211 352 519l6 5q18 22 26.5 33t17 30t8.5 38q0 50 -39.5 79t-85.5 29q-18 0 -32 -6t-27.5 -21.5t-22.5 -28.5t-25 -40l-355 -548q-36 58 -344 535
q-71 108 -125 108q-56 0 -90 -29t-34 -82q0 -21 9.5 -39.5t32.5 -51.5q51 -72 82 -112q162 -215 292 -421h-82.5h-78.5h-46q-34 0 -64 -24t-30 -66q0 -53 29 -76.5t70 -23.5q52 -1 271 -1q0 -38 0.5 -96t0.5 -79q-191 0 -273 4q-34 2 -64.5 -22t-30.5 -67z" />
    <glyph glyph-name="brokenbar" unicode="&#xa6;" horiz-adv-x="850" 
d="M415 779q61 0 88.5 33t27.5 71q-17 77 -17 133q11 463 11 577q0 73 -19.5 101t-77.5 28q-74 0 -101.5 -38t-27.5 -113v-287q-3 -193 -3 -407q0 -45 32.5 -71.5t86.5 -26.5zM299 209q-3 -117 -3 -485q0 -45 32.5 -71.5t86.5 -26.5q61 0 88.5 33.5t27.5 71.5q0 13 -6.5 36
t-6.5 35q0 104 3.5 327.5t3.5 305.5q0 80 -19 117t-76 37q-129 0 -129 -101z" />
    <glyph glyph-name="section" unicode="&#xa7;" horiz-adv-x="1214" 
d="M173 92q0 -75 36.5 -133t96 -90.5t126.5 -48.5t138 -16q67 0 137.5 20t132.5 56.5t102 96t40 129.5q0 184 -107 281q151 126 151 276q0 122 -107 209q-45 36 -198 103q-54 23 -86.5 38t-77 40t-69.5 47.5t-43.5 53.5t-18.5 64q0 40 31.5 66.5t71 36t84.5 9.5
q132 0 159 -100q12 -40 45.5 -65t70.5 -25q43 0 79.5 25t36.5 73q0 61 -23.5 112t-62 85t-90 57t-106 33.5t-111.5 10.5q-74 0 -146.5 -20.5t-133.5 -58t-99 -97.5t-38 -133q0 -155 109 -271q-152 -121 -152 -282q0 -53 22 -99t54 -78.5t89.5 -66t106 -55t126.5 -52.5
q49 -19 76 -32.5t61.5 -38t50.5 -56.5t16 -74q0 -40 -33 -66.5t-73.5 -36t-84.5 -9.5q-51 0 -101 21.5t-57 62.5q-6 46 -41.5 76t-74.5 30q-43 0 -79 -29.5t-36 -78.5zM381 669q0 53 30.5 97.5t76.5 72.5q306 -103 306 -173q0 -97 -116 -167q-15 6 -52.5 18.5t-65.5 22.5
t-63.5 25.5t-59 30t-40 34t-16.5 39.5z" />
    <glyph glyph-name="dieresis" unicode="&#xa8;" horiz-adv-x="1009" 
d="M241 1395q51 0 114.5 75.5t63.5 129.5q0 41 -36.5 78t-81.5 37q-53 0 -112 -75t-59 -139q0 -46 35 -76t76 -30zM664 1388q53 0 120.5 70.5t67.5 122.5v1q0 48 -31.5 84.5t-76.5 36.5q-54 0 -121.5 -73.5t-67.5 -135.5q0 -45 34.5 -75.5t74.5 -30.5z" />
    <glyph glyph-name="copyright" unicode="&#xa9;" horiz-adv-x="2200" 
d="M166 584q0 -193 66.5 -361.5t186.5 -292t297 -194.5t387 -71q141 0 261 26.5t211 74t163.5 115t121.5 147.5t81.5 174t47 191.5t14.5 203.5q0 157 -33 297t-106.5 263.5t-181 213t-266 141t-352.5 51.5q-213 0 -385.5 -77t-283 -210.5t-170 -310.5t-59.5 -381zM382 581
q0 138 24.5 256.5t78 220t133 173.5t195 112.5t258.5 40.5q226 0 388 -100t244 -278t82 -416q0 -213 -80.5 -380.5t-230.5 -262t-344 -94.5q-185 0 -328.5 53.5t-235 150.5t-138 229.5t-46.5 294.5zM589 591q0 -199 147.5 -330t363.5 -131q121 0 212.5 39.5t172.5 125.5
q9 11 17 33.5t8 33.5q0 48 -30 79t-74 31q-59 0 -99 -41q-87 -94 -214 -94q-111 0 -192 72t-81 190q0 57 16 108t47 93t83.5 66.5t120.5 24.5q65 0 125 -30t82 -75q18 -34 48.5 -49.5t61.5 -15.5q55 0 85.5 35.5t30.5 106.5q0 90 -26.5 129.5t-81.5 39.5q-34 0 -62 -16
q-110 80 -261 80q-223 0 -361.5 -138t-138.5 -367z" />
    <glyph glyph-name="ordfeminine" unicode="&#xaa;" horiz-adv-x="1356" 
d="M553 673q143 0 256 88q2 -49 42 -79.5t91 -30.5q54 0 160 48q65 25 88 44.5t23 66.5q0 42 -26.5 69.5t-66.5 27.5q-33 0 -84 -31q0 18 -2 86q-3 118 0 225l3 214q0 59 -25.5 88t-86.5 29q-36 0 -66 -20.5t-38 -55.5q-99 75 -263 75q-87 0 -164.5 -27.5t-138 -79t-96 -133
t-35.5 -182.5q0 -126 61 -224t158 -148t210 -50zM550 866q-85 0 -149.5 62t-64.5 167q0 107 61 167t161 60q121 0 184 -66t76 -166q-11 -94 -83.5 -159t-184.5 -65z" />
    <glyph glyph-name="guillemotleft" unicode="&#xab;" horiz-adv-x="2032" 
d="M263 513q91 -46 270 -154t280 -157h-1q50 -33 97 -33q49 0 76 33.5t27 77.5q0 50 -35 80t-68 37l-377 213q276 152 392 200q87 38 87 126q0 42 -31.5 73t-69.5 31q-28 0 -57.5 -14.5t-43.5 -28.5h2q-338 -177 -513 -259q-47 -14 -66.5 -35t-19.5 -69q0 -37 13 -73.5
t38 -47.5zM1096 513q91 -46 270 -154t280 -157h-1q50 -33 97 -33q49 0 76 33.5t27 77.5q0 50 -35 80t-68 37l-377 213q276 152 392 200q87 38 87 126q0 42 -31.5 73t-69.5 31q-28 0 -57.5 -14.5t-43.5 -28.5h2q-338 -177 -513 -259q-47 -14 -66.5 -35t-19.5 -69
q0 -37 13 -73.5t38 -47.5z" />
    <glyph glyph-name="logicalnot" unicode="&#xac;" horiz-adv-x="1546" 
d="M252 592q18 0 837 2q0 -207 -2 -249v1q-8 -54 -8 -114q0 -37 28 -69.5t92 -32.5q58 0 94.5 26t36.5 72q0 36 -4 86q0 2 -0.5 8t-0.5 8q-4 56 -4 107q0 124 6 278v2q-5 46 -35.5 71.5t-73.5 25.5q-56 0 -91 -5q-814 -2 -834 0q-18 2 -32 2q-16 0 -32 -4t-33.5 -14
t-28.5 -33t-11 -55q0 -54 25.5 -83.5t70.5 -29.5z" />
    <glyph glyph-name="uni00AD" unicode="&#xad;" horiz-adv-x="1217" 
 />
    <glyph glyph-name="registered" unicode="&#xae;" horiz-adv-x="2200" 
d="M166 584q0 -193 66.5 -361.5t186.5 -292t297 -194.5t387 -71q141 0 261 26.5t211 74t163.5 115t121.5 147.5t81.5 174t47 191.5t14.5 203.5q0 157 -33 297t-106.5 263.5t-181 213t-266 141t-352.5 51.5q-213 0 -385.5 -77t-283 -210.5t-170 -310.5t-59.5 -381zM382 581
q0 138 24.5 256.5t78 220t133 173.5t195 112.5t258.5 40.5q226 0 388 -100t244 -278t82 -416q0 -213 -80.5 -380.5t-230.5 -262t-344 -94.5q-185 0 -328.5 53.5t-235 150.5t-138 229.5t-46.5 294.5zM687 225q4 -40 39.5 -65.5t76.5 -25.5t78 24t37 69v146q37 -27 100 -91
t100 -91q102 -71 212 -71q50 0 107 15.5t103.5 52.5t46.5 85q0 43 -32.5 70t-80.5 27q-26 0 -62 -21q-34 -21 -77 -21q-50 0 -80 18t-73 68q129 25 228 125.5t99 235.5q0 96 -38.5 169t-105 115.5t-148.5 64t-177 21.5q-60 0 -167 -6l-83 -3q-51 -6 -76.5 -28.5t-31.5 -73.5
q0 -136 2.5 -405t2.5 -404zM917 614q0 153 -3 321q153 4 175 4q83 0 136 -36.5t53 -112.5q0 -88 -67.5 -133.5t-158.5 -45.5q-27 0 -71 1.5t-64 1.5z" />
    <glyph glyph-name="macron" unicode="&#xaf;" horiz-adv-x="1014" 
d="M221 1465q37 0 105 4.5t101 4.5q63 0 175.5 -4.5t164.5 -4.5q16 0 33.5 4t38.5 14.5t34.5 32.5t13.5 53q0 36 -9 57.5t-29 30.5t-37 11.5t-48 2.5q-47 0 -136 -9t-132 -9q-49 0 -138 4t-131 4q-65 0 -102.5 -23.5t-37.5 -66.5q0 -61 36.5 -83.5t97.5 -22.5z" />
    <glyph glyph-name="degree" unicode="&#xb0;" horiz-adv-x="853" 
d="M435 902q151 0 230.5 90t79.5 227q0 75 -31.5 145t-94.5 120.5t-144 60.5q-16 1 -27 -5q-18 10 -39 10q-138 0 -226 -94t-88 -229q0 -152 95 -238.5t245 -86.5zM429 1088q-66 0 -99 36.5t-33 104.5q0 45 28 82.5t72 46.5q9 1 30 7q52 -12 84.5 -48t32.5 -95
q0 -53 -29.5 -93.5t-85.5 -40.5z" />
    <glyph glyph-name="plusminus" unicode="&#xb1;" horiz-adv-x="1184" 
d="M153 128q0 -128 99 -128h645q45 0 71.5 29.5t26.5 82.5q0 61 -33.5 88t-70.5 27q-16 0 -40 -6q-20 -6 -30 -6h-165q40 29 40 80l-13 72v175q28 0 59 -0.5t39 -0.5q59 -1 164 -1q45 0 71.5 32t26.5 86q0 60 -33.5 87t-70.5 27l-71 -11h-184q0 95 1 151v72
q0 72 -21.5 108.5t-77.5 36.5q-39 0 -64 -8.5t-36 -24t-14.5 -30.5t-3.5 -36l-3 -269l-218 1q-37 0 -59 -2.5t-43 -11t-30.5 -27t-9.5 -48.5q0 -126 99 -126l259 -3q0 -24 -0.5 -51.5t-0.5 -35.5q-1 -60 -1 -168q0 -45 36 -72h-196q-78 0 -113 -16.5t-35 -72.5z" />
    <glyph glyph-name="uni00B2" unicode="&#xb2;" horiz-adv-x="1186" 
d="M274 733l624 -2q42 0 74.5 23t32.5 81q0 49 -28 76.5t-70 27.5q-6 0 -12.5 -0.5t-13.5 -2t-10 -1.5h-270q333 259 333 502q0 158 -108 249.5t-271 91.5q-77 0 -167 -34t-140 -93q-90 -110 -90 -200q0 -26 6.5 -55.5t21.5 -62.5t46.5 -55t73.5 -22q39 0 73.5 27t34.5 70
q0 19 -14.5 50t-14.5 48q0 57 50 91t117 34q62 0 108 -37t46 -101q0 -59 -33.5 -117.5t-93.5 -112.5t-120.5 -100t-136 -102.5t-120.5 -98.5q-39 -36 -39 -76q0 -43 30.5 -70.5t80.5 -27.5z" />
    <glyph glyph-name="uni00B3" unicode="&#xb3;" horiz-adv-x="1186" 
d="M567 725q81 0 158.5 22t143.5 64.5t106.5 113.5t40.5 159q0 71 -20.5 125t-60 90.5t-84.5 60t-107 42.5q98 96 149.5 159t51.5 101q0 46 -28.5 75t-76.5 29h-545q-52 0 -78 -27.5t-26 -66.5q0 -43 29 -70.5t81 -27.5l320 3q-14 -17 -70 -76.5t-85 -100t-29 -69.5
q0 -46 26.5 -74t75.5 -28q17 0 46.5 4.5t44.5 4.5q62 0 107.5 -40.5t45.5 -120.5q0 -75 -67 -113t-150 -38q-80 0 -149 47t-69 122q0 18 11.5 50.5t11.5 49.5q0 40 -21.5 65.5t-45 33t-46.5 7.5q-66 0 -98.5 -63.5t-32.5 -138.5q0 -84 40.5 -156.5t104.5 -119t141.5 -72.5
t153.5 -26z" />
    <glyph glyph-name="acute" unicode="&#xb4;" horiz-adv-x="675" 
d="M121 1413q54 0 112 53q112 109 213 196l-1 -1q22 8 49.5 38.5t27.5 62.5q0 55 -35 87t-87 32q-38 0 -64 -17.5t-70 -61.5v1l-108 -106q-39 -33 -62.5 -55t-51 -61t-27.5 -68q0 -36 32 -68t72 -32z" />
    <glyph glyph-name="mu" unicode="&#xb5;" horiz-adv-x="1523" 
d="M219 91q0 -62 -5 -433q0 -44 32 -70t87 -26q61 0 88 33t27 70q0 13 -4 35q-11 48 -11 129q1 106 1 219v2q59 -38 123 -56t158 -18q78 0 172.5 27.5t155.5 75.5q3 -44 30.5 -76.5t78.5 -32.5q84 3 108.5 36t24.5 97q0 29 -4 53q-3 18 -3 39q0 164 -3.5 452.5t-3.5 422.5
q0 33 -1 48t-5.5 35t-14 28t-28 14.5t-46.5 6.5q-13 0 -62 -12q-18 -4 -60 -14.5t-66 -14.5q-34 -7 -49.5 -10.5t-37 -11.5t-30.5 -17.5t-16 -26t-7 -39.5q0 -55 32 -88t75 -33q39 0 101 18q6 -142 6 -295q0 -136 -5 -328q-57 -67 -145.5 -107.5t-191.5 -40.5q-87 0 -145 22
t-88.5 68t-42 103t-11.5 141q0 129 34.5 262t94.5 199q51 56 51 114q0 111 -110 111q-37 0 -62 -10q-66 -23 -139 -43q-41 -9 -60.5 -15t-42 -18t-31 -30.5t-8.5 -47.5q0 -110 102 -110q14 0 39 7q-43 -93 -65.5 -206.5t-22.5 -212.5l5 -294q1 -44 1 -131z" />
    <glyph glyph-name="paragraph" unicode="&#xb6;" horiz-adv-x="1599" 
d="M1171 70q1 -46 34.5 -73.5t77.5 -27.5q45 0 83.5 30.5t38.5 79.5q0 58 -8 136q-5 44 -6 75l6 1152q0 7 0.5 23t0.5 24q0 52 -33 75t-81 23q-113 0 -113 -107q0 -77 3 -143q15 -331 -1 -1154zM807 95q0 -48 36.5 -87t79.5 -39q51 0 83.5 33t32.5 91q0 35 -4 97
q0 183 -5 541.5t-5 535.5q0 93 7 147q4 38 4 70q0 50 -34 73t-81 23q-30 0 -51 -7q-47 4 -116 4q-267 0 -427 -143t-160 -397q0 -116 38.5 -211.5t101 -158t145 -105.5t168 -61.5t172.5 -18.5h26q-5 -268 -8 -321v-3q-3 -24 -3 -63zM818 692q-82 1 -155 22t-132.5 62
t-94.5 109.5t-35 156.5q0 66 19 123t57 102.5t103 71.5t150 26q56 0 86 -3q2 -44 2 -670z" />
    <glyph glyph-name="periodcentered" unicode="&#xb7;" horiz-adv-x="844" 
d="M416 633q39 0 68.5 19.5t44.5 49.5t21.5 58t6.5 52q0 69 -42.5 110.5t-91.5 41.5q-74 0 -111 -47t-37 -127q0 -51 39.5 -104t101.5 -53z" />
    <glyph glyph-name="cedilla" unicode="&#xb8;" horiz-adv-x="1217" 
d="M352 -311q-43 0 -76.5 -23.5t-33.5 -75.5q0 -57 63 -96.5t151 -39.5q141 0 229.5 73t88.5 194q0 74 -68.5 150.5t-136.5 76.5q-34 0 -59 -25t-25 -45q-1 -27 6.5 -45t18.5 -28.5t22 -20.5t19 -27.5t8 -43.5q0 -62 -84 -62q-23 0 -62 19t-61 19z" />
    <glyph glyph-name="uni00B9" unicode="&#xb9;" horiz-adv-x="1021" 
d="M564 706q64 0 88 34t24 106q0 93 -2 273q-1 86 -1 249q0 199 4 304q-4 88 -108 88q-51 0 -116 -40q-161 -65 -168 -67q-68 -25 -91 -45q-33 -31 -33 -79q0 -44 29 -79.5t81 -35.5q29 0 88 33q55 34 87 49q-1 -89 -4.5 -321.5t-3.5 -356.5q0 -112 126 -112z" />
    <glyph glyph-name="ordmasculine" unicode="&#xba;" horiz-adv-x="1231" 
d="M618 675q101 0 181.5 36.5t128.5 97.5t73 135.5t25 155.5q0 151 -91.5 269.5t-250.5 141.5q-28 5 -50 -6q-23 14 -59 14q-116 0 -213 -62.5t-149.5 -160.5t-52.5 -204q0 -194 126.5 -305.5t331.5 -111.5zM605 874q-107 0 -168.5 57.5t-61.5 162.5q0 78 51 143t139 84
q34 2 52 9q89 -12 142 -76.5t53 -153.5q0 -102 -60 -164t-147 -62z" />
    <glyph glyph-name="guillemotright" unicode="&#xbb;" horiz-adv-x="2028" 
d="M937 513q25 11 38 47.5t13 73.5q0 48 -19.5 69t-66.5 35q-175 82 -513 259h2q-14 14 -43.5 28.5t-57.5 14.5q-38 0 -69.5 -31t-31.5 -73q0 -88 87 -126q116 -48 392 -200l-377 -213q-33 -7 -68 -37t-35 -80q0 -44 27 -77.5t76 -33.5q47 0 97 33h-1q101 49 280 157
t270 154zM1765 513q25 11 38 47.5t13 73.5q0 48 -19.5 69t-66.5 35q-175 82 -513 259h2q-14 14 -43.5 28.5t-57.5 14.5q-38 0 -69.5 -31t-31.5 -73q0 -88 87 -126q116 -48 392 -200l-377 -213q-33 -7 -68 -37t-35 -80q0 -44 27 -77.5t76 -33.5q47 0 97 33h-1q101 49 280 157
t270 154z" />
    <glyph glyph-name="onequarter" unicode="&#xbc;" horiz-adv-x="2390" 
d="M1184 93q0 -58 37 -85t86 -27q42 0 81 14h-2l444 3q0 -25 0.5 -71.5t0.5 -67.5v-128q0 -50 35 -77.5t77 -27.5q41 0 76.5 27.5t35.5 77.5v267h103q51 0 78.5 34t27.5 73q0 38 -32.5 72t-81.5 35l-96 -3q-1 47 -1 137v162q0 51 -35 81t-78 30t-77 -30t-34 -81v-309
q-204 -6 -302 -6q89 145 138 269t49 255q0 90 -26 131.5t-88 41.5q-22 0 -42 -4t-42.5 -15t-36 -34.5t-13.5 -57.5q0 -177 -46 -325t-140 -243q-96 -10 -96 -118zM559 706q64 0 88 34t24 106q0 93 -2 273q-1 86 -1 249q0 199 4 304q-4 88 -108 88q-51 0 -116 -40
q-161 -65 -168 -67q-68 -25 -91 -45q-33 -31 -33 -79q0 -44 29 -79.5t81 -35.5q29 0 88 33q55 34 87 49q-1 -89 -4.5 -321.5t-3.5 -356.5q0 -112 126 -112zM635 73q0 -42 34.5 -72t94.5 -30q25 0 42.5 7.5t28 24t15 28.5t11.5 36v-1l553 1312q19 44 19 79q0 47 -36.5 74.5
t-79.5 27.5q-24 0 -41.5 -8t-30 -26.5t-18 -31.5t-15.5 -40q-13 -38 -547 -1289l1 1q-31 -46 -31 -92z" />
    <glyph glyph-name="onehalf" unicode="&#xbd;" horiz-adv-x="2390" 
d="M1480 2l624 -2q42 0 74.5 23t32.5 81q0 49 -28 76.5t-70 27.5l-36 -4h-270q333 259 333 502q0 158 -108 249.5t-271 91.5q-77 0 -167 -34t-140 -93q-90 -110 -90 -200q0 -26 6.5 -55.5t21.5 -62.5t46.5 -55t73.5 -22q39 0 73.5 27t34.5 70q0 19 -14.5 50t-14.5 48
q0 57 50 91t117 34q62 0 108 -37t46 -101q0 -59 -33.5 -117.5t-93.5 -112.5t-120.5 -100t-136 -102.5t-120.5 -98.5q-39 -36 -39 -76q0 -43 30.5 -70.5t80.5 -27.5zM559 706q64 0 88 34t24 106q0 93 -2 273q-1 86 -1 249q0 199 4 304q-4 88 -108 88q-51 0 -116 -40
q-161 -65 -168 -67q-68 -25 -91 -45q-33 -31 -33 -79q0 -44 29 -79.5t81 -35.5q29 0 88 33q55 34 87 49q-1 -89 -4.5 -321.5t-3.5 -356.5q0 -112 126 -112zM635 73q0 -42 34.5 -72t94.5 -30q25 0 42.5 7.5t28 24t15 28.5t11.5 36v-1l553 1312q19 44 19 79q0 47 -36.5 74.5
t-79.5 27.5q-24 0 -41.5 -8t-30 -26.5t-18 -31.5t-15.5 -40q-13 -38 -547 -1289l1 1q-31 -46 -31 -92z" />
    <glyph glyph-name="threequarters" unicode="&#xbe;" horiz-adv-x="2557" 
d="M1362 93q0 -57 37.5 -84.5t85.5 -27.5q42 0 81 14h-2l444 3q0 -25 0.5 -71.5t0.5 -67.5v-128q0 -50 35 -77.5t78 -27.5q40 0 75.5 27.5t35.5 77.5v267h103q52 0 79 34t27 73q0 38 -32.5 72t-81.5 35l-96 -3q-1 47 -1 137v162q0 51 -35 81t-77 30q-44 0 -78 -30t-34 -81
v-309q-204 -6 -302 -6q89 145 138 269t49 255q0 90 -26 131.5t-88 41.5q-22 0 -42 -4t-42.5 -15t-36 -34.5t-13.5 -57.5q0 -177 -46 -325t-140 -243q-96 -10 -96 -118zM562 725q81 0 158.5 22t143.5 64.5t106.5 113.5t40.5 159q0 71 -20.5 125t-60 90.5t-84.5 60t-107 42.5
q98 96 149.5 159t51.5 101q0 46 -28.5 75t-76.5 29h-545q-52 0 -78 -27.5t-26 -66.5q0 -43 29 -70.5t81 -27.5l320 3q-14 -17 -70 -76.5t-85 -100t-29 -69.5q0 -46 26.5 -74t75.5 -28q17 0 46.5 4.5t44.5 4.5q62 0 107.5 -40.5t45.5 -120.5q0 -75 -67 -113t-150 -38
q-80 0 -149 47t-69 122q0 18 11.5 50.5t11.5 49.5q0 40 -21.5 65.5t-45 33t-46.5 7.5q-66 0 -98.5 -63.5t-32.5 -138.5q0 -84 40.5 -156.5t104.5 -119t141.5 -72.5t153.5 -26zM823 73q0 -42 34.5 -72t94.5 -30q25 0 42.5 7.5t28 24t15 28.5t11.5 36v-1l553 1312q19 44 19 79
q0 47 -36.5 74.5t-79.5 27.5q-24 0 -41.5 -8t-30 -26.5t-18 -31.5t-15.5 -40q-13 -38 -547 -1289l1 1q-31 -46 -31 -92z" />
    <glyph glyph-name="questiondown" unicode="&#xbf;" 
d="M709 1121q-45 0 -77 -30t-32 -84q0 -19 1.5 -50t1.5 -45q0 -32 -12 -64t-27 -54.5t-45 -51t-47.5 -42.5t-55.5 -42t-50 -37q-112 -85 -179.5 -189.5t-67.5 -218.5q0 -109 45 -195.5t123.5 -142t182.5 -84.5t225 -29q159 0 281.5 43.5t194 130.5t71.5 207q0 52 -22.5 113
t-65 107t-91.5 46q-46 0 -77 -27.5t-31 -73.5q0 -31 32 -86q30 -47 30 -83q0 -163 -324 -163q-160 0 -254.5 59t-94.5 180q0 39 15 75t47 72t57.5 59.5t73.5 63t68 56.5q220 193 220 373q0 104 -26 155.5t-90 51.5zM853 1456q1 40 -30 78.5t-81 38.5q-58 0 -94.5 -58.5
t-36.5 -160.5q0 -18 3.5 -34.5t13.5 -35.5t32.5 -30.5t54.5 -11.5q80 0 108 44.5t30 169.5z" />
    <glyph glyph-name="Agrave" unicode="&#xc0;" horiz-adv-x="1568" 
d="M35 77q0 -50 35 -78t90 -28q38 0 63.5 9t40 29.5t20.5 35t14 44.5v-1q31 95 157 401q14 0 42 2q85 4 169.5 4t182.5 -1.5t145 -1.5q72 -3 110 -3q145 -326 184 -411q5 -46 40.5 -76.5t88.5 -30.5t85 27t32 84q0 53 -62 138l-19 28q-42 91 -226.5 503.5t-289.5 620.5
q-8 15 -28 75q-9 27 -14 40.5t-16.5 33.5t-24 29t-33.5 16.5t-49 7.5q-52 0 -82.5 -35.5t-38.5 -85.5q-44 -88 -283 -624t-291 -622q-42 -58 -42 -130zM546 707q124 293 221 515q156 -332 241 -518q-443 3 -462 3zM793 1605q51 0 82.5 31.5t31.5 87.5q0 31 -27.5 62
t-49.5 40q-68 58 -135 129q-48 55 -105 55q-41 0 -74 -32.5t-33 -67.5q1 -34 11 -57.5t41 -48.5q16 -13 26.5 -22.5t28 -27t38.5 -37.5q9 -7 35 -36q20 -23 35 -37t41 -26.5t54 -12.5z" />
    <glyph glyph-name="Aacute" unicode="&#xc1;" horiz-adv-x="1568" 
d="M35 77q0 -50 35 -78t90 -28q38 0 63.5 9t40 29.5t20.5 35t14 44.5v-1q31 95 157 401q14 0 42 2q85 4 169.5 4t182.5 -1.5t145 -1.5q72 -3 110 -3q145 -326 184 -411q5 -46 40.5 -76.5t88.5 -30.5t85 27t32 84q0 53 -62 138l-19 28q-42 91 -226.5 503.5t-289.5 620.5
q-8 15 -28 75q-9 27 -14 40.5t-16.5 33.5t-24 29t-33.5 16.5t-49 7.5q-52 0 -82.5 -35.5t-38.5 -85.5q-44 -88 -283 -624t-291 -622q-42 -58 -42 -130zM546 707q124 293 221 515q156 -332 241 -518q-443 3 -462 3zM784 1605q40 0 69 20t60 56q26 29 35 36q21 20 38.5 37.5
t28 27t26.5 22.5q31 25 41 48.5t11 57.5q0 35 -33 67.5t-73 32.5q-58 0 -106 -55q-72 -77 -135 -129q-22 -9 -49.5 -40t-27.5 -62q0 -56 32 -87.5t83 -31.5z" />
    <glyph glyph-name="Acircumflex" unicode="&#xc2;" horiz-adv-x="1568" 
d="M35 77q0 -50 35 -78t90 -28q38 0 63.5 9t40 29.5t20.5 35t14 44.5v-1q31 95 157 401q14 0 42 2q85 4 169.5 4t182.5 -1.5t145 -1.5q72 -3 110 -3q145 -326 184 -411q5 -46 40.5 -76.5t88.5 -30.5t85 27t32 84q0 53 -62 138l-19 28q-42 91 -226.5 503.5t-289.5 620.5
q-8 15 -28 75q-9 27 -14 40.5t-16.5 33.5t-24 29t-33.5 16.5t-49 7.5q-52 0 -82.5 -35.5t-38.5 -85.5q-44 -88 -283 -624t-291 -622q-42 -58 -42 -130zM546 707q124 293 221 515q156 -332 241 -518q-443 3 -462 3zM546 1622q61 0 105 40q86 80 145 115q41 -27 161 -128
q17 -13 45.5 -23.5t48.5 -10.5q48 0 78.5 24t30.5 65q0 42 -21 71.5t-73 58.5q-25 13 -71 49t-75 65q-62 62 -121 62q-71 0 -127 -55q-76 -72 -146 -117q-78 -50 -78 -133q0 -34 27 -58.5t71 -24.5z" />
    <glyph glyph-name="Atilde" unicode="&#xc3;" horiz-adv-x="1568" 
d="M35 77q0 -50 35 -78t90 -28q38 0 63.5 9t40 29.5t20.5 35t14 44.5v-1q31 95 157 401q14 0 42 2q85 4 169.5 4t182.5 -1.5t145 -1.5q72 -3 110 -3q145 -326 184 -411q5 -46 40.5 -76.5t88.5 -30.5t85 27t32 84q0 53 -62 138l-19 28q-42 91 -226.5 503.5t-289.5 620.5
q-8 15 -28 75q-9 27 -14 40.5t-16.5 33.5t-24 29t-33.5 16.5t-49 7.5q-52 0 -82.5 -35.5t-38.5 -85.5q-44 -88 -283 -624t-291 -622q-42 -58 -42 -130zM546 707q124 293 221 515q156 -332 241 -518q-443 3 -462 3zM454 1650q91 0 105 95q4 27 23.5 51t42.5 24q24 0 59 -30
t73.5 -69t59.5 -51q26 -15 69 -26t81 -11q129 0 198 71.5t69 167.5q0 61 -31 91t-78 30q-30 0 -51.5 -9t-33 -26.5t-17 -32.5t-9.5 -36q-5 -23 -24.5 -40t-41.5 -17q-9 0 -17.5 3t-15 6t-16.5 11t-15.5 13t-18 16.5t-18.5 17.5q-28 25 -47 40t-49.5 34t-64 28t-71.5 9
q-111 0 -186.5 -68.5t-75.5 -165.5q0 -59 27 -92.5t74 -33.5z" />
    <glyph glyph-name="Adieresis" unicode="&#xc4;" horiz-adv-x="1568" 
d="M35 77q0 -50 35 -78t90 -28q38 0 63.5 9t40 29.5t20.5 35t14 44.5v-1q31 95 157 401q14 0 42 2q85 4 169.5 4t182.5 -1.5t145 -1.5q72 -3 110 -3q145 -326 184 -411q5 -46 40.5 -76.5t88.5 -30.5t85 27t32 84q0 53 -62 138l-19 28q-42 91 -226.5 503.5t-289.5 620.5
q-8 15 -28 75q-9 27 -14 40.5t-16.5 33.5t-24 29t-33.5 16.5t-49 7.5q-52 0 -82.5 -35.5t-38.5 -85.5q-44 -88 -283 -624t-291 -622q-42 -58 -42 -130zM546 707q124 293 221 515q156 -332 241 -518q-443 3 -462 3zM527 1649q51 0 115 75t64 129q0 43 -36.5 79t-82.5 36
q-52 0 -111 -74.5t-59 -139.5q0 -45 35 -75t75 -30zM964 1642q52 0 119.5 70t67.5 123v1q0 48 -31 84t-77 36q-54 0 -121.5 -73t-67.5 -136q0 -44 35 -74.5t75 -30.5z" />
    <glyph glyph-name="Aring" unicode="&#xc5;" horiz-adv-x="1568" 
d="M35 77q0 -50 35 -78t90 -28q38 0 63.5 9t40 29.5t20.5 35t14 44.5v-1q31 95 157 401q14 0 42 2q85 4 169.5 4t182.5 -1.5t145 -1.5q72 -3 110 -3q145 -326 184 -411q5 -46 40.5 -76.5t88.5 -30.5t85 27t32 84q0 53 -62 138l-19 28q-42 91 -226.5 503.5t-289.5 620.5
q-9 16 -20 50q88 31 140 99.5t52 170.5q0 133 -85 226.5t-223 93.5q-68 0 -126.5 -15t-111 -48.5t-83 -97.5t-30.5 -152q0 -216 185 -279q-44 -91 -275.5 -610t-282.5 -603q-42 -58 -42 -130zM785 1576q-60 0 -103 28t-43 88q0 44 16 74t42 44t48.5 19t46.5 5
q55 0 91.5 -37.5t36.5 -110.5q0 -54 -43 -82t-92 -28zM546 707q124 293 221 515q156 -332 241 -518q-443 3 -462 3z" />
    <glyph glyph-name="AE" unicode="&#xc6;" horiz-adv-x="1995" 
d="M70 -28q34 0 56.5 7.5t39 30.5t24 41.5t23.5 62.5q54 117 224 378q268 9 320 9q59 0 121 -3l7 -308q-22 -20 -22 -79q0 -55 32.5 -83.5t85.5 -27.5h691q46 0 79 4.5t52.5 14t31.5 17.5t16 24t5 24t1 27q0 60 -31 84t-88 24q-33 0 -92.5 -14.5t-90.5 -14.5h-449
q-5 70 -5 618l573 1q58 0 92 26.5t34 77.5q0 38 -31 74t-81 36q-29 0 -78.5 -4.5t-71.5 -4.5q-341 0 -437 1l-6 319l483 1q30 1 45.5 3t37 12t31.5 34t10 64q0 38 -11.5 57t-51 29.5t-120.5 10.5h-467q-43 9 -78 9q-119 0 -170 -102q-140 -236 -434.5 -687t-376.5 -554
q-29 -34 -41 -59.5t-12 -61.5q0 -54 37.5 -86t92.5 -32zM576 709q40 60 139.5 207t150.5 226l9 -429z" />
    <glyph glyph-name="Ccedilla" unicode="&#xc7;" horiz-adv-x="1495" 
d="M109 756q0 -157 52.5 -298t148.5 -250t244 -173t326 -64q99 0 209.5 27.5t159.5 56.5v-1q120 57 120 141q0 105 -112 105q-28 0 -50 -12t-56 -41q-33 -23 -114.5 -41.5t-165.5 -18.5q-67 0 -130.5 14t-124.5 43t-111.5 77.5t-89.5 113t-60.5 154.5t-21.5 198
q0 116 31 212.5t82.5 161.5t119.5 110.5t142 66t151 20.5q52 0 77.5 -1t72.5 -10t91 -27q71 -51 125 -51q48 0 85 29t37 94q0 12 -2.5 23t-5.5 19.5t-9.5 16.5t-11.5 13.5t-15 11.5t-15.5 9.5t-18.5 8.5t-18.5 7t-20 7t-19.5 7q-169 59 -329 59q-115 0 -223.5 -29t-209 -94
t-175.5 -158t-120 -231.5t-45 -305.5zM649 -311q-43 0 -76.5 -23.5t-33.5 -75.5q0 -57 63 -96.5t151 -39.5q141 0 229.5 73t88.5 194q0 74 -68.5 150.5t-136.5 76.5q-34 0 -59 -25t-25 -45q-1 -27 6.5 -45t18.5 -28.5t22 -20.5t19 -27.5t8 -43.5q0 -62 -84 -62q-23 0 -62 19
t-61 19z" />
    <glyph glyph-name="Egrave" unicode="&#xc8;" horiz-adv-x="1321" 
d="M198 113q0 -58 32 -85.5t87 -27.5h673q35 0 55.5 1t47.5 7.5t42 19t25.5 35.5t10.5 57q0 101 -141 101q-34 0 -90 -8q-60 -10 -103 -10q-74 0 -209 3t-199 3v599l628 1q58 0 92.5 26.5t34.5 77.5q0 38 -31.5 74t-81.5 36q-46 0 -94 -6q-36 -4 -53 -4q-469 0 -495 1v317
h93q10 0 42 0.5t107 0.5h189q26 -3 67 -3q58 0 89.5 23.5t31.5 93.5q0 58 -24.5 83t-96.5 25q-6 0 -33 -4t-39 -5h-527q-25 0 -38.5 -1t-34 -8t-31 -20t-18.5 -39.5t-8 -64.5l23 -1196l-9 -32q-14 -49 -14 -71zM712 1605q51 0 82.5 31.5t31.5 87.5q0 31 -27.5 62t-49.5 40
q-68 58 -135 129q-48 55 -105 55q-41 0 -74 -32.5t-33 -67.5q1 -34 11 -57.5t41 -48.5q16 -13 26.5 -22.5t28 -27t38.5 -37.5q9 -7 35 -36q20 -23 35 -37t41 -26.5t54 -12.5z" />
    <glyph glyph-name="Eacute" unicode="&#xc9;" horiz-adv-x="1321" 
d="M198 113q0 -58 32 -85.5t87 -27.5h673q35 0 55.5 1t47.5 7.5t42 19t25.5 35.5t10.5 57q0 101 -141 101q-34 0 -90 -8q-60 -10 -103 -10q-74 0 -209 3t-199 3v599l628 1q58 0 92.5 26.5t34.5 77.5q0 38 -31.5 74t-81.5 36q-46 0 -94 -6q-36 -4 -53 -4q-469 0 -495 1v317
h93q10 0 42 0.5t107 0.5h189q26 -3 67 -3q58 0 89.5 23.5t31.5 93.5q0 58 -24.5 83t-96.5 25q-6 0 -33 -4t-39 -5h-527q-25 0 -38.5 -1t-34 -8t-31 -20t-18.5 -39.5t-8 -64.5l23 -1196l-9 -32q-14 -49 -14 -71zM703 1605q40 0 69 20t60 56q26 29 35 36q21 20 38.5 37.5
t28 27t26.5 22.5q31 25 41 48.5t11 57.5q0 35 -33 67.5t-73 32.5q-58 0 -106 -55q-72 -77 -135 -129q-22 -9 -49.5 -40t-27.5 -62q0 -56 32 -87.5t83 -31.5z" />
    <glyph glyph-name="Ecircumflex" unicode="&#xca;" horiz-adv-x="1321" 
d="M198 113q0 -58 32 -85.5t87 -27.5h673q35 0 55.5 1t47.5 7.5t42 19t25.5 35.5t10.5 57q0 101 -141 101q-34 0 -90 -8q-60 -10 -103 -10q-74 0 -209 3t-199 3v599l628 1q58 0 92.5 26.5t34.5 77.5q0 38 -31.5 74t-81.5 36q-46 0 -94 -6q-36 -4 -53 -4q-469 0 -495 1v317
h93q10 0 42 0.5t107 0.5h189q26 -3 67 -3q58 0 89.5 23.5t31.5 93.5q0 58 -24.5 83t-96.5 25q-6 0 -33 -4t-39 -5h-527q-25 0 -38.5 -1t-34 -8t-31 -20t-18.5 -39.5t-8 -64.5l23 -1196l-9 -32q-14 -49 -14 -71zM465 1622q61 0 105 40q86 80 145 115q41 -27 161 -128
q17 -13 45.5 -23.5t48.5 -10.5q48 0 78.5 24t30.5 65q0 42 -21 71.5t-73 58.5q-25 13 -71 49t-75 65q-62 62 -121 62q-71 0 -127 -55q-76 -72 -146 -117q-78 -50 -78 -133q0 -34 27 -58.5t71 -24.5z" />
    <glyph glyph-name="Edieresis" unicode="&#xcb;" horiz-adv-x="1321" 
d="M198 113q0 -58 32 -85.5t87 -27.5h673q35 0 55.5 1t47.5 7.5t42 19t25.5 35.5t10.5 57q0 101 -141 101q-34 0 -90 -8q-60 -10 -103 -10q-74 0 -209 3t-199 3v599l628 1q58 0 92.5 26.5t34.5 77.5q0 38 -31.5 74t-81.5 36q-46 0 -94 -6q-36 -4 -53 -4q-469 0 -495 1v317
h93q10 0 42 0.5t107 0.5h189q26 -3 67 -3q58 0 89.5 23.5t31.5 93.5q0 58 -24.5 83t-96.5 25q-6 0 -33 -4t-39 -5h-527q-25 0 -38.5 -1t-34 -8t-31 -20t-18.5 -39.5t-8 -64.5l23 -1196l-9 -32q-14 -49 -14 -71zM446 1649q51 0 115 75t64 129q0 43 -36.5 79t-82.5 36
q-52 0 -111 -74.5t-59 -139.5q0 -45 35 -75t75 -30zM883 1642q52 0 119.5 70t67.5 123v1q0 48 -31 84t-77 36q-54 0 -121.5 -73t-67.5 -136q0 -44 35 -74.5t75 -30.5z" />
    <glyph glyph-name="Igrave" unicode="&#xcc;" horiz-adv-x="794" 
d="M273 80q0 -55 30.5 -82t106.5 -27q65 0 91 29t26 82q0 23 -5 56v-1q-18 235 -18 832q0 184 4 412q9 54 9 68q0 57 -26 91t-71 34q-153 0 -153 -127q0 -23 6 -61.5t6 -56.5q0 -184 4.5 -530t4.5 -513q0 -38 -7.5 -105.5t-7.5 -100.5zM419 1605q51 0 82.5 31.5t31.5 87.5
q0 31 -27.5 62t-49.5 40q-68 58 -135 129q-48 55 -105 55q-41 0 -74 -32.5t-33 -67.5q1 -34 11 -57.5t41 -48.5q16 -13 26.5 -22.5t28 -27t38.5 -37.5q9 -7 35 -36q20 -23 35 -37t41 -26.5t54 -12.5z" />
    <glyph glyph-name="Iacute" unicode="&#xcd;" horiz-adv-x="794" 
d="M273 80q0 -55 30.5 -82t106.5 -27q65 0 91 29t26 82q0 23 -5 56v-1q-18 235 -18 832q0 184 4 412q9 54 9 68q0 57 -26 91t-71 34q-153 0 -153 -127q0 -23 6 -61.5t6 -56.5q0 -184 4.5 -530t4.5 -513q0 -38 -7.5 -105.5t-7.5 -100.5zM410 1605q40 0 69 20t60 56
q26 29 35 36q21 20 38.5 37.5t28 27t26.5 22.5q31 25 41 48.5t11 57.5q0 35 -33 67.5t-73 32.5q-58 0 -106 -55q-72 -77 -135 -129q-22 -9 -49.5 -40t-27.5 -62q0 -56 32 -87.5t83 -31.5z" />
    <glyph glyph-name="Icircumflex" unicode="&#xce;" horiz-adv-x="794" 
d="M273 80q0 -55 30.5 -82t106.5 -27q65 0 91 29t26 82q0 23 -5 56v-1q-18 235 -18 832q0 184 4 412q9 54 9 68q0 57 -26 91t-71 34q-153 0 -153 -127q0 -23 6 -61.5t6 -56.5q0 -184 4.5 -530t4.5 -513q0 -38 -7.5 -105.5t-7.5 -100.5zM172 1622q61 0 105 40q86 80 145 115
q41 -27 161 -128q17 -13 45.5 -23.5t48.5 -10.5q48 0 78.5 24t30.5 65q0 42 -21 71.5t-73 58.5q-25 13 -71 49t-75 65q-62 62 -121 62q-71 0 -127 -55q-76 -72 -146 -117q-78 -50 -78 -133q0 -34 27 -58.5t71 -24.5z" />
    <glyph glyph-name="Idieresis" unicode="&#xcf;" horiz-adv-x="794" 
d="M273 80q0 -55 30.5 -82t106.5 -27q65 0 91 29t26 82q0 23 -5 56v-1q-18 235 -18 832q0 184 4 412q9 54 9 68q0 57 -26 91t-71 34q-153 0 -153 -127q0 -23 6 -61.5t6 -56.5q0 -184 4.5 -530t4.5 -513q0 -38 -7.5 -105.5t-7.5 -100.5zM153 1649q51 0 115 75t64 129
q0 43 -36.5 79t-82.5 36q-52 0 -111 -74.5t-59 -139.5q0 -45 35 -75t75 -30zM590 1642q52 0 119.5 70t67.5 123v1q0 48 -31 84t-77 36q-54 0 -121.5 -73t-67.5 -136q0 -44 35 -74.5t75 -30.5z" />
    <glyph glyph-name="Eth" unicode="&#xd0;" horiz-adv-x="1626" 
d="M224 117q0 -58 26.5 -85.5t86.5 -27.5q54 0 155.5 -11.5t150.5 -11.5q135 0 250.5 29.5t200.5 79.5t153 119t112 145t73.5 160.5t42 163t12.5 154.5q0 119 -25.5 224.5t-84.5 201.5t-148.5 165t-226 110t-308.5 41q-48 0 -141 -7.5t-139 -7.5q-22 0 -60.5 7.5t-56.5 7.5
q-54 0 -79 -28t-25 -74q0 -37 28 -89q6 -245 9 -490q-73 -1 -106.5 -18t-33.5 -74q0 -38 8 -62.5t24.5 -34.5t30.5 -12.5t36 -2.5h42q1 -127 1 -379q0 -42 -4 -103.5t-4 -89.5zM447 220l-3 465q218 -4 323 -4q98 0 98 105q0 61 -34 89t-71 28q-13 0 -36.5 -5.5t-34.5 -5.5
q-48 0 -246 1l-2 449q137 9 216 9q151 0 257.5 -27.5t186 -92t118 -177t38.5 -276.5q0 -40 -7 -85.5t-26 -102.5t-47.5 -110t-76.5 -104.5t-108.5 -89t-147.5 -61t-189 -23.5q-141 0 -208 18z" />
    <glyph glyph-name="Ntilde" unicode="&#xd1;" horiz-adv-x="1724" 
d="M203 64q0 -42 34.5 -67.5t86.5 -25.5q70 0 95 35t25 96q0 20 -3 59.5t-3 53.5q0 62 -3.5 343t-5.5 629l60 -94q122 -163 387 -502.5t400 -523.5q14 -43 49 -69.5t88 -26.5q62 0 87 29.5t25 105.5q0 28 -4 77.5t-4 72.5v1147q0 28 -1.5 48t-8 45t-17.5 40.5t-32.5 26.5
t-51.5 11q-65 0 -94.5 -26.5t-29.5 -102.5q0 -24 5 -115.5t10 -328t5 -614.5q-88 130 -405.5 530.5t-399.5 524.5q-12 39 -43.5 79.5t-73.5 40.5q-55 0 -92 -30q-89 -20 -89 -117q0 -31 8 -81q14 -208 14 -714q0 -96 -5 -458l-8 -32q-5 -33 -5 -66zM548 1650q91 0 105 95
q4 27 23.5 51t42.5 24q24 0 59 -30t73.5 -69t59.5 -51q26 -15 69 -26t81 -11q129 0 198 71.5t69 167.5q0 61 -31 91t-78 30q-30 0 -51.5 -9t-33 -26.5t-17 -32.5t-9.5 -36q-5 -23 -24.5 -40t-41.5 -17q-9 0 -17.5 3t-15 6t-16.5 11t-15.5 13t-18 16.5t-18.5 17.5
q-28 25 -47 40t-49.5 34t-64 28t-71.5 9q-111 0 -186.5 -68.5t-75.5 -165.5q0 -59 27 -92.5t74 -33.5z" />
    <glyph glyph-name="Ograve" unicode="&#xd2;" horiz-adv-x="1684" 
d="M144 773q0 -225 85 -407t245 -288.5t368 -106.5t368.5 107t245 288.5t84.5 406.5q0 239 -78.5 418t-235.5 281t-376 102q-210 0 -370.5 -101t-248 -283t-87.5 -417zM372 773q0 272 125 433.5t348 161.5q93 0 170.5 -31.5t131.5 -86t91.5 -130t55 -163t17.5 -184.5
q0 -115 -29 -220.5t-85 -190.5t-147 -136t-205 -51q-109 0 -200 51t-150 135.5t-91 191t-32 220.5zM871 1605q51 0 82.5 31.5t31.5 87.5q0 31 -27.5 62t-49.5 40q-68 58 -135 129q-48 55 -105 55q-41 0 -74 -32.5t-33 -67.5q1 -34 11 -57.5t41 -48.5q16 -13 26.5 -22.5
t28 -27t38.5 -37.5q9 -7 35 -36q20 -23 35 -37t41 -26.5t54 -12.5z" />
    <glyph glyph-name="Oacute" unicode="&#xd3;" horiz-adv-x="1684" 
d="M144 773q0 -225 85 -407t245 -288.5t368 -106.5t368.5 107t245 288.5t84.5 406.5q0 239 -78.5 418t-235.5 281t-376 102q-210 0 -370.5 -101t-248 -283t-87.5 -417zM372 773q0 272 125 433.5t348 161.5q93 0 170.5 -31.5t131.5 -86t91.5 -130t55 -163t17.5 -184.5
q0 -115 -29 -220.5t-85 -190.5t-147 -136t-205 -51q-109 0 -200 51t-150 135.5t-91 191t-32 220.5zM862 1605q40 0 69 20t60 56q26 29 35 36q21 20 38.5 37.5t28 27t26.5 22.5q31 25 41 48.5t11 57.5q0 35 -33 67.5t-73 32.5q-58 0 -106 -55q-72 -77 -135 -129
q-22 -9 -49.5 -40t-27.5 -62q0 -56 32 -87.5t83 -31.5z" />
    <glyph glyph-name="Ocircumflex" unicode="&#xd4;" horiz-adv-x="1684" 
d="M144 773q0 -225 85 -407t245 -288.5t368 -106.5t368.5 107t245 288.5t84.5 406.5q0 239 -78.5 418t-235.5 281t-376 102q-210 0 -370.5 -101t-248 -283t-87.5 -417zM372 773q0 272 125 433.5t348 161.5q93 0 170.5 -31.5t131.5 -86t91.5 -130t55 -163t17.5 -184.5
q0 -115 -29 -220.5t-85 -190.5t-147 -136t-205 -51q-109 0 -200 51t-150 135.5t-91 191t-32 220.5zM623 1622q61 0 105 40q86 80 145 115q41 -27 161 -128q17 -13 45.5 -23.5t48.5 -10.5q48 0 78.5 24t30.5 65q0 42 -21 71.5t-73 58.5q-25 13 -71 49t-75 65q-62 62 -121 62
q-71 0 -127 -55q-76 -72 -146 -117q-78 -50 -78 -133q0 -34 27 -58.5t71 -24.5z" />
    <glyph glyph-name="Otilde" unicode="&#xd5;" horiz-adv-x="1684" 
d="M144 773q0 -225 85 -407t245 -288.5t368 -106.5t368.5 107t245 288.5t84.5 406.5q0 239 -78.5 418t-235.5 281t-376 102q-210 0 -370.5 -101t-248 -283t-87.5 -417zM372 773q0 272 125 433.5t348 161.5q93 0 170.5 -31.5t131.5 -86t91.5 -130t55 -163t17.5 -184.5
q0 -115 -29 -220.5t-85 -190.5t-147 -136t-205 -51q-109 0 -200 51t-150 135.5t-91 191t-32 220.5zM531 1650q91 0 105 95q4 27 23.5 51t42.5 24q24 0 59 -30t73.5 -69t59.5 -51q26 -15 69 -26t81 -11q129 0 198 71.5t69 167.5q0 61 -31 91t-78 30q-30 0 -51.5 -9t-33 -26.5
t-17 -32.5t-9.5 -36q-5 -23 -24.5 -40t-41.5 -17q-9 0 -17.5 3t-15 6t-16.5 11t-15.5 13t-18 16.5t-18.5 17.5q-28 25 -47 40t-49.5 34t-64 28t-71.5 9q-111 0 -186.5 -68.5t-75.5 -165.5q0 -59 27 -92.5t74 -33.5z" />
    <glyph glyph-name="Odieresis" unicode="&#xd6;" horiz-adv-x="1684" 
d="M144 773q0 -225 85 -407t245 -288.5t368 -106.5t368.5 107t245 288.5t84.5 406.5q0 239 -78.5 418t-235.5 281t-376 102q-210 0 -370.5 -101t-248 -283t-87.5 -417zM372 773q0 272 125 433.5t348 161.5q93 0 170.5 -31.5t131.5 -86t91.5 -130t55 -163t17.5 -184.5
q0 -115 -29 -220.5t-85 -190.5t-147 -136t-205 -51q-109 0 -200 51t-150 135.5t-91 191t-32 220.5zM604 1649q51 0 115 75t64 129q0 43 -36.5 79t-82.5 36q-52 0 -111 -74.5t-59 -139.5q0 -45 35 -75t75 -30zM1041 1642q52 0 119.5 70t67.5 123v1q0 48 -31 84t-77 36
q-54 0 -121.5 -73t-67.5 -136q0 -44 35 -74.5t75 -30.5z" />
    <glyph glyph-name="multiply" unicode="&#xd7;" horiz-adv-x="1186" 
d="M298 250q66 0 99 67q6 14 24 29l162 164l167 -170v1q13 -15 22 -28q15 -21 23 -30t26 -18.5t44 -11.5q54 -4 93.5 38t31.5 91q-7 42 -26 61q-21 21 -102 105t-120 122q185 187 215 222q30 32 30 70q0 45 -47 75t-72 30q-40 0 -68 -28l-216 -214l-220 217q-32 28 -66 28
q-27 0 -73 -29t-46 -76q0 -34 50 -92.5t155 -161.5l43 -41q-117 -117 -229 -231q-24 -30 -26 -62q-3 -57 38 -92t88 -35z" />
    <glyph glyph-name="Oslash" unicode="&#xd8;" horiz-adv-x="1684" 
d="M419 -89q0 -47 35.5 -77.5t95.5 -30.5q26 0 46 9.5t31 22t18 30t9 29t3 22.5q2 16 5 27l20 63q83 -18 160 -18q208 0 368.5 107t245 288.5t84.5 406.5q0 241 -81.5 423.5t-237.5 279.5l29 73q8 24 8 47q0 42 -32.5 69.5t-86.5 27.5q-37 0 -60.5 -20.5t-32.5 -47.5
q-19 -59 -23 -70q-86 19 -173 19q-210 0 -370.5 -101t-248 -283t-87.5 -417q0 -230 90.5 -416t251.5 -287l-30 -71q-37 -50 -37 -105zM572 294q-96 83 -148 216t-52 280q0 272 125 433.5t348 161.5q56 0 111 -13q-228 -684 -384 -1078zM748 203q186 562 387 1075
q87 -80 131.5 -208t44.5 -280q0 -115 -29 -220.5t-85 -190.5t-147 -136t-205 -51q-50 0 -97 11z" />
    <glyph glyph-name="Ugrave" unicode="&#xd9;" horiz-adv-x="1527" 
d="M189 735q2 -765 578 -765q286 0 428.5 199.5t142.5 572.5q0 59 -2 158.5t-2 145.5q-4 164 -4 278q0 25 2.5 71.5t2.5 67.5q0 46 -29 78.5t-92 32.5q-56 0 -86 -29t-30 -97q0 -30 1 -50q10 -330 10 -654q0 -280 -77.5 -420t-253.5 -140q-66 0 -119 17t-90 45t-64.5 72
t-43.5 90.5t-26 107t-13 116t-3 123.5q0 211 2.5 356t5.5 213t3 92q0 158 -133 158q-60 0 -83 -46t-23 -137q0 -98 -1.5 -319t-0.5 -337zM783 1605q51 0 82.5 31.5t31.5 87.5q0 31 -27.5 62t-49.5 40q-68 58 -135 129q-48 55 -105 55q-41 0 -74 -32.5t-33 -67.5
q1 -34 11 -57.5t41 -48.5q16 -13 26.5 -22.5t28 -27t38.5 -37.5q9 -7 35 -36q20 -23 35 -37t41 -26.5t54 -12.5z" />
    <glyph glyph-name="Uacute" unicode="&#xda;" horiz-adv-x="1527" 
d="M189 735q2 -765 578 -765q286 0 428.5 199.5t142.5 572.5q0 59 -2 158.5t-2 145.5q-4 164 -4 278q0 25 2.5 71.5t2.5 67.5q0 46 -29 78.5t-92 32.5q-56 0 -86 -29t-30 -97q0 -30 1 -50q10 -330 10 -654q0 -280 -77.5 -420t-253.5 -140q-66 0 -119 17t-90 45t-64.5 72
t-43.5 90.5t-26 107t-13 116t-3 123.5q0 211 2.5 356t5.5 213t3 92q0 158 -133 158q-60 0 -83 -46t-23 -137q0 -98 -1.5 -319t-0.5 -337zM774 1605q40 0 69 20t60 56q26 29 35 36q21 20 38.5 37.5t28 27t26.5 22.5q31 25 41 48.5t11 57.5q0 35 -33 67.5t-73 32.5
q-58 0 -106 -55q-72 -77 -135 -129q-22 -9 -49.5 -40t-27.5 -62q0 -56 32 -87.5t83 -31.5z" />
    <glyph glyph-name="Ucircumflex" unicode="&#xdb;" horiz-adv-x="1527" 
d="M189 735q2 -765 578 -765q286 0 428.5 199.5t142.5 572.5q0 59 -2 158.5t-2 145.5q-4 164 -4 278q0 25 2.5 71.5t2.5 67.5q0 46 -29 78.5t-92 32.5q-56 0 -86 -29t-30 -97q0 -30 1 -50q10 -330 10 -654q0 -280 -77.5 -420t-253.5 -140q-66 0 -119 17t-90 45t-64.5 72
t-43.5 90.5t-26 107t-13 116t-3 123.5q0 211 2.5 356t5.5 213t3 92q0 158 -133 158q-60 0 -83 -46t-23 -137q0 -98 -1.5 -319t-0.5 -337zM535 1622q61 0 105 40q86 80 145 115q41 -27 161 -128q17 -13 45.5 -23.5t48.5 -10.5q48 0 78.5 24t30.5 65q0 42 -21 71.5t-73 58.5
q-25 13 -71 49t-75 65q-62 62 -121 62q-71 0 -127 -55q-76 -72 -146 -117q-78 -50 -78 -133q0 -34 27 -58.5t71 -24.5z" />
    <glyph glyph-name="Udieresis" unicode="&#xdc;" horiz-adv-x="1527" 
d="M189 735q2 -765 578 -765q286 0 428.5 199.5t142.5 572.5q0 59 -2 158.5t-2 145.5q-4 164 -4 278q0 25 2.5 71.5t2.5 67.5q0 46 -29 78.5t-92 32.5q-56 0 -86 -29t-30 -97q0 -30 1 -50q10 -330 10 -654q0 -280 -77.5 -420t-253.5 -140q-66 0 -119 17t-90 45t-64.5 72
t-43.5 90.5t-26 107t-13 116t-3 123.5q0 211 2.5 356t5.5 213t3 92q0 158 -133 158q-60 0 -83 -46t-23 -137q0 -98 -1.5 -319t-0.5 -337zM516 1649q51 0 115 75t64 129q0 43 -36.5 79t-82.5 36q-52 0 -111 -74.5t-59 -139.5q0 -45 35 -75t75 -30zM953 1642q52 0 119.5 70
t67.5 123v1q0 48 -31 84t-77 36q-54 0 -121.5 -73t-67.5 -136q0 -44 35 -74.5t75 -30.5z" />
    <glyph glyph-name="Yacute" unicode="&#xdd;" horiz-adv-x="1226" 
d="M500 69q0 -41 33.5 -70t85.5 -29q117 0 117 103q0 75 -6.5 207.5t-8.5 205.5t5 177q32 59 85 146.5t97 156.5t123 191.5t119 184.5q56 52 56 115q0 116 -123 116q-45 0 -70 -32t-51 -97h1q-65 -126 -315 -512l-31 -53l-32 53q-37 59 -104 157t-119 180.5t-91 160.5
q-59 143 -126 143q-57 0 -91 -30t-34 -85q0 -36 60 -122q186 -268 426 -671q7 -219 0.5 -405.5t-6.5 -190.5zM651 1605q40 0 69 20t60 56q26 29 35 36q21 20 38.5 37.5t28 27t26.5 22.5q31 25 41 48.5t11 57.5q0 35 -33 67.5t-73 32.5q-58 0 -106 -55q-72 -77 -135 -129
q-22 -9 -49.5 -40t-27.5 -62q0 -56 32 -87.5t83 -31.5z" />
    <glyph glyph-name="Thorn" unicode="&#xde;" horiz-adv-x="1488" 
d="M204 89q0 -55 30.5 -80t106.5 -25q66 0 92 27.5t26 77.5q0 49 -4 68q-3 32 -6 78h87q89 0 161.5 4.5t158.5 18.5t151.5 38.5t130 67.5t106.5 101.5t68 144.5t26 193q0 140 -50 243t-143 166t-218.5 93t-284.5 30q-36 0 -96 -1.5t-88 -1.5h-21q0 4 0.5 11t0.5 11
q1 14 3.5 36.5t4 41t1.5 34.5q0 47 -26 76t-71 29q-86 0 -119 -26t-33 -81q0 -20 6 -59.5t6 -58.5q0 -185 4.5 -533.5t4.5 -517.5q0 -36 -7.5 -104.5t-7.5 -101.5zM441 444q-5 193 -5 503v185q12 0 91 1.5t119 1.5q42 0 75 -1.5t83.5 -8.5t88.5 -19.5t80.5 -36.5t70.5 -57
t46 -84.5t18 -115.5q0 -81 -13 -136.5t-46.5 -103t-93.5 -75t-153.5 -42.5t-226.5 -15q-18 0 -134 4z" />
    <glyph glyph-name="germandbls" unicode="&#xdf;" horiz-adv-x="1491" 
d="M237 71q0 -47 39.5 -74.5t79.5 -27.5q41 0 78.5 27.5t37.5 74.5q0 189 -0.5 529.5t-0.5 604.5q0 85 23.5 147.5t64 95t85 47.5t95.5 15q87 0 144 -43.5t57 -109.5q0 -73 -35.5 -129t-96.5 -110q-37 -36 -57 -73t-20 -89q0 -35 16.5 -65t55.5 -59.5t60 -42t71 -39.5
q12 -7 18 -10q139 -78 195.5 -149t56.5 -187q0 -84 -51 -153.5t-134 -69.5q-70 0 -122 25.5t-59 47.5q-7 11 -12 31q-9 30 -19 51t-36.5 40.5t-63.5 19.5q-54 0 -86 -33.5t-32 -87.5q0 -131 117 -218.5t320 -87.5q97 0 178 39t131.5 102.5t78 140.5t27.5 156
q0 161 -95.5 283.5t-300.5 227.5q-6 3 -16.5 8.5t-17 8.5t-15 7.5t-13.5 8t-10 7.5t-7.5 7t-2.5 6q0 23 54 66q63 54 108 140.5t45 185.5q0 166 -120 257.5t-311 91.5q-82 0 -155 -18t-137 -58.5t-110.5 -100t-73 -147t-26.5 -195.5q0 -67 -0.5 -105t-0.5 -43h-49
q-69 0 -100.5 -30.5t-31.5 -78.5q0 -44 32 -78t98 -34h51q0 -90 0.5 -322.5t0.5 -430.5z" />
    <glyph glyph-name="agrave" unicode="&#xe0;" horiz-adv-x="1594" 
d="M114 600q0 -178 74 -321.5t208.5 -225.5t304.5 -82q124 0 234 53.5t176 135.5q9 -175 130 -175q31 0 66.5 7.5t59.5 15.5t65.5 24t59.5 22q61 21 61 94q0 43 -26 78.5t-71 35.5q-24 0 -63 -15q-37 -19 -59 -24q-5 28 -5 237q0 66 4 194q5 157 5 350q1 18 5 65.5t4 72.5
q0 33 -36 67t-87 34q-62 0 -92.5 -33t-30.5 -86q0 -40 1 -58q-64 73 -168 123.5t-224 50.5q-124 0 -234.5 -49.5t-189.5 -134t-125.5 -203.5t-46.5 -253zM344 600q0 119 47 217t132.5 155.5t192.5 57.5q83 0 155 -37t120 -96t78.5 -124t42.5 -130v-88q-13 -68 -46 -132
t-83 -118t-122 -86.5t-153 -32.5q-111 0 -195.5 58.5t-126.5 152t-42 203.5zM774 1404q51 0 84 32t33 87q0 31 -27.5 62t-49.5 40q-34 27 -208 194q-61 56 -109 56q-40 0 -72 -33.5t-32 -69.5q0 -33 10.5 -56t42.5 -49q73 -62 199 -188v1q30 -33 42.5 -44.5t35 -21.5
t51.5 -10z" />
    <glyph glyph-name="aacute" unicode="&#xe1;" horiz-adv-x="1594" 
d="M114 600q0 -178 74 -321.5t208.5 -225.5t304.5 -82q124 0 234 53.5t176 135.5q9 -175 130 -175q31 0 66.5 7.5t59.5 15.5t65.5 24t59.5 22q61 21 61 94q0 43 -26 78.5t-71 35.5q-24 0 -63 -15q-37 -19 -59 -24q-5 28 -5 237q0 66 4 194q5 157 5 350q1 18 5 65.5t4 72.5
q0 33 -36 67t-87 34q-62 0 -92.5 -33t-30.5 -86q0 -40 1 -58q-64 73 -168 123.5t-224 50.5q-124 0 -234.5 -49.5t-189.5 -134t-125.5 -203.5t-46.5 -253zM344 600q0 119 47 217t132.5 155.5t192.5 57.5q83 0 155 -37t120 -96t78.5 -124t42.5 -130v-88q-13 -68 -46 -132
t-83 -118t-122 -86.5t-153 -32.5q-111 0 -195.5 58.5t-126.5 152t-42 203.5zM705 1413q54 0 112 53q112 109 213 196l-1 -1q22 8 49.5 38.5t27.5 62.5q0 55 -35 87t-87 32q-38 0 -64 -17.5t-70 -61.5v1l-108 -106q-39 -33 -62.5 -55t-51 -61t-27.5 -68q0 -36 32 -68t72 -32z
" />
    <glyph glyph-name="acircumflex" unicode="&#xe2;" horiz-adv-x="1594" 
d="M114 600q0 -178 74 -321.5t208.5 -225.5t304.5 -82q124 0 234 53.5t176 135.5q9 -175 130 -175q31 0 66.5 7.5t59.5 15.5t65.5 24t59.5 22q61 21 61 94q0 43 -26 78.5t-71 35.5q-24 0 -63 -15q-37 -19 -59 -24q-5 28 -5 237q0 66 4 194q5 157 5 350q1 18 5 65.5t4 72.5
q0 33 -36 67t-87 34q-62 0 -92.5 -33t-30.5 -86q0 -40 1 -58q-64 73 -168 123.5t-224 50.5q-124 0 -234.5 -49.5t-189.5 -134t-125.5 -203.5t-46.5 -253zM344 600q0 119 47 217t132.5 155.5t192.5 57.5q83 0 155 -37t120 -96t78.5 -124t42.5 -130v-88q-13 -68 -46 -132
t-83 -118t-122 -86.5t-153 -32.5q-111 0 -195.5 58.5t-126.5 152t-42 203.5zM443 1442q62 0 104 42q81 77 198 154q86 -56 200 -162q15 -14 44.5 -25t49.5 -11q47 0 78.5 25t31.5 66q0 74 -94 130q-26 16 -90.5 68t-95.5 82q-64 61 -120 61q-73 0 -129 -53
q-20 -19 -43 -38.5t-41.5 -34t-54 -41.5t-62.5 -48q-44 -35 -59.5 -57.5t-15.5 -63.5q0 -43 26.5 -68.5t72.5 -25.5z" />
    <glyph glyph-name="atilde" unicode="&#xe3;" horiz-adv-x="1594" 
d="M114 600q0 -178 74 -321.5t208.5 -225.5t304.5 -82q124 0 234 53.5t176 135.5q9 -175 130 -175q31 0 66.5 7.5t59.5 15.5t65.5 24t59.5 22q61 21 61 94q0 43 -26 78.5t-71 35.5q-24 0 -63 -15q-37 -19 -59 -24q-5 28 -5 237q0 66 4 194q5 157 5 350q1 18 5 65.5t4 72.5
q0 33 -36 67t-87 34q-62 0 -92.5 -33t-30.5 -86q0 -40 1 -58q-64 73 -168 123.5t-224 50.5q-124 0 -234.5 -49.5t-189.5 -134t-125.5 -203.5t-46.5 -253zM344 600q0 119 47 217t132.5 155.5t192.5 57.5q83 0 155 -37t120 -96t78.5 -124t42.5 -130v-88q-13 -68 -46 -132
t-83 -118t-122 -86.5t-153 -32.5q-111 0 -195.5 58.5t-126.5 152t-42 203.5zM415 1426q24 0 41 7t28 23.5t16 27.5t13 33q8 24 13 34.5t18 22.5t32 12q22 0 58 -27.5t76 -64.5t58 -48q27 -15 70 -26t80 -11q66 0 117.5 22t81 59t44.5 79.5t15 87.5q0 61 -30.5 88.5
t-77.5 27.5q-28 0 -48 -7.5t-31 -23.5t-15.5 -29t-9.5 -34q-4 -18 -8.5 -29.5t-16.5 -21.5t-30 -10q-40 0 -111 66q-28 25 -47 40t-49.5 34t-64 28t-71.5 9q-110 0 -181 -72t-71 -172q0 -59 27 -92t74 -33z" />
    <glyph glyph-name="adieresis" unicode="&#xe4;" horiz-adv-x="1594" 
d="M114 600q0 -178 74 -321.5t208.5 -225.5t304.5 -82q124 0 234 53.5t176 135.5q9 -175 130 -175q31 0 66.5 7.5t59.5 15.5t65.5 24t59.5 22q61 21 61 94q0 43 -26 78.5t-71 35.5q-24 0 -63 -15q-37 -19 -59 -24q-5 28 -5 237q0 66 4 194q5 157 5 350q1 18 5 65.5t4 72.5
q0 33 -36 67t-87 34q-62 0 -92.5 -33t-30.5 -86q0 -40 1 -58q-64 73 -168 123.5t-224 50.5q-124 0 -234.5 -49.5t-189.5 -134t-125.5 -203.5t-46.5 -253zM344 600q0 119 47 217t132.5 155.5t192.5 57.5q83 0 155 -37t120 -96t78.5 -124t42.5 -130v-88q-13 -68 -46 -132
t-83 -118t-122 -86.5t-153 -32.5q-111 0 -195.5 58.5t-126.5 152t-42 203.5zM488 1395q51 0 114.5 75.5t63.5 129.5q0 41 -36.5 78t-81.5 37q-53 0 -112 -75t-59 -139q0 -46 35 -76t76 -30zM911 1388q53 0 120.5 70.5t67.5 122.5v1q0 48 -31.5 84.5t-76.5 36.5
q-54 0 -121.5 -73.5t-67.5 -135.5q0 -45 34.5 -75.5t74.5 -30.5z" />
    <glyph glyph-name="aring" unicode="&#xe5;" horiz-adv-x="1594" 
d="M114 600q0 -178 74 -321.5t208.5 -225.5t304.5 -82q124 0 234 53.5t176 135.5q9 -175 130 -175q31 0 66.5 7.5t59.5 15.5t65.5 24t59.5 22q61 21 61 94q0 43 -26 78.5t-71 35.5q-24 0 -63 -15q-37 -19 -59 -24q-5 28 -5 237q0 66 4 194q5 157 5 350q1 18 5 65.5t4 72.5
q0 33 -36 67t-87 34q-62 0 -92.5 -33t-30.5 -86q0 -40 1 -58q-64 73 -168 123.5t-224 50.5q-124 0 -234.5 -49.5t-189.5 -134t-125.5 -203.5t-46.5 -253zM344 600q0 119 47 217t132.5 155.5t192.5 57.5q83 0 155 -37t120 -96t78.5 -124t42.5 -130v-88q-13 -68 -46 -132
t-83 -118t-122 -86.5t-153 -32.5q-111 0 -195.5 58.5t-126.5 152t-42 203.5zM765 1336q136 0 234 80.5t98 222.5q0 133 -86 230t-222 97q-68 0 -127.5 -16t-111.5 -51t-82.5 -100t-30.5 -153q0 -151 90 -230.5t238 -79.5zM770 1511q-56 0 -100.5 33.5t-44.5 94.5
q0 44 16 75.5t41.5 46.5t49 21.5t46.5 6.5q56 0 93.5 -41t37.5 -115q0 -55 -45.5 -88.5t-93.5 -33.5z" />
    <glyph glyph-name="ae" unicode="&#xe6;" horiz-adv-x="2313" 
d="M139 325q0 -149 125.5 -246.5t299.5 -97.5q191 0 344.5 60.5t244.5 167.5q81 -105 197.5 -166.5t258.5 -61.5q49 0 100.5 6.5t114.5 25.5t117.5 47.5t103.5 78t78 112.5q6 14 6 35q0 38 -27.5 69t-72.5 31q-55 0 -101 -61q-33 -43 -61 -66.5t-89.5 -41.5t-154.5 -18
q-43 0 -98 17t-116 51.5t-109.5 100.5t-63.5 151q587 20 844 46q114 14 114 111q0 58 -38 109q-12 82 -53 160.5t-104 141.5t-152.5 101t-190.5 38q-307 0 -492 -228q-43 110 -169 168.5t-296 58.5q-232 0 -435 -104q-26 -15 -41.5 -47t-15.5 -56q0 -39 31 -77t72 -38
q22 0 38 11q86 48 160.5 70.5t185.5 23.5q152 0 239.5 -68.5t87.5 -178.5v-44q-92 1 -345 1q-271 0 -404 -95t-133 -298zM1247 721q38 129 141.5 209.5t261.5 80.5q117 0 196 -75t95 -178q-52 -5 -132 -10t-140 -8t-204 -9.5t-218 -9.5zM366 330q0 110 90.5 149.5
t306.5 39.5q33 0 80.5 -0.5t57.5 -0.5q45 -1 123 -1q6 -51 21 -100q-30 -19 -49 -55v1q-48 -71 -154 -120t-244 -49q-53 0 -104 13.5t-89.5 45.5t-38.5 77z" />
    <glyph glyph-name="ccedilla" unicode="&#xe7;" horiz-adv-x="1385" 
d="M114 604q0 -128 46 -244t126 -202t196 -136.5t248 -50.5q126 0 245 38t205 124q65 73 70 142q2 25 -6 47.5t-32.5 40.5t-62.5 20q-28 2 -56.5 -14.5t-47.5 -40.5q-51 -66 -137.5 -104t-167.5 -38q-79 0 -145 26t-110 67.5t-74.5 95t-44.5 108t-14 107.5q0 85 24.5 160.5
t70.5 135.5t120 95t166 35q62 0 110 -9t76 -21.5t50.5 -34.5t32 -37t21.5 -40q16 -31 25.5 -45t32.5 -27t56 -13q50 0 76 32t26 83q0 30 -10 89t-10 90q0 18 3 48.5t3 44.5q0 43 -27.5 68.5t-74.5 25.5q-102 0 -119 -97q-92 59 -238 59q-166 0 -294 -52t-204.5 -141
t-115 -199.5t-38.5 -235.5zM519 -311q-43 0 -76.5 -23.5t-33.5 -75.5q0 -57 63 -96.5t151 -39.5q141 0 229.5 73t88.5 194q0 74 -68.5 150.5t-136.5 76.5q-34 0 -59 -25t-25 -45q-1 -27 6.5 -45t18.5 -28.5t22 -20.5t19 -27.5t8 -43.5q0 -62 -84 -62q-23 0 -62 19t-61 19z
" />
    <glyph glyph-name="egrave" unicode="&#xe8;" horiz-adv-x="1402" 
d="M357 451q110 25 389.5 83.5t429.5 96.5q48 12 77.5 41t29.5 72q0 66 -39 99q-36 173 -173.5 281t-328.5 108q-133 0 -248.5 -46.5t-199.5 -130t-132 -205.5t-48 -267q0 -83 22.5 -168t70 -165t115 -142t165.5 -99.5t212 -37.5q290 0 498 193q66 60 66 112q0 50 -28 79.5
t-77 29.5q-25 0 -55.5 -22t-50.5 -53q-30 -43 -121.5 -83.5t-230.5 -40.5q-53 0 -103 14t-98 43.5t-85.5 82.5t-56.5 125zM340 636q15 173 121 276.5t274 103.5q105 0 186 -64.5t117 -162.5q-124 -30 -357.5 -79t-340.5 -74zM730 1404q51 0 84 32t33 87q0 31 -27.5 62
t-49.5 40q-34 27 -208 194q-61 56 -109 56q-40 0 -72 -33.5t-32 -69.5q0 -33 10.5 -56t42.5 -49q73 -62 199 -188v1q30 -33 42.5 -44.5t35 -21.5t51.5 -10z" />
    <glyph glyph-name="eacute" unicode="&#xe9;" horiz-adv-x="1402" 
d="M357 451q110 25 389.5 83.5t429.5 96.5q48 12 77.5 41t29.5 72q0 66 -39 99q-36 173 -173.5 281t-328.5 108q-133 0 -248.5 -46.5t-199.5 -130t-132 -205.5t-48 -267q0 -83 22.5 -168t70 -165t115 -142t165.5 -99.5t212 -37.5q290 0 498 193q66 60 66 112q0 50 -28 79.5
t-77 29.5q-25 0 -55.5 -22t-50.5 -53q-30 -43 -121.5 -83.5t-230.5 -40.5q-53 0 -103 14t-98 43.5t-85.5 82.5t-56.5 125zM340 636q15 173 121 276.5t274 103.5q105 0 186 -64.5t117 -162.5q-124 -30 -357.5 -79t-340.5 -74zM662 1413q54 0 112 53q112 109 213 196l-1 -1
q22 8 49.5 38.5t27.5 62.5q0 55 -35 87t-87 32q-38 0 -64 -17.5t-70 -61.5v1l-108 -106q-39 -33 -62.5 -55t-51 -61t-27.5 -68q0 -36 32 -68t72 -32z" />
    <glyph glyph-name="ecircumflex" unicode="&#xea;" horiz-adv-x="1402" 
d="M357 451q110 25 389.5 83.5t429.5 96.5q48 12 77.5 41t29.5 72q0 66 -39 99q-36 173 -173.5 281t-328.5 108q-133 0 -248.5 -46.5t-199.5 -130t-132 -205.5t-48 -267q0 -83 22.5 -168t70 -165t115 -142t165.5 -99.5t212 -37.5q290 0 498 193q66 60 66 112q0 50 -28 79.5
t-77 29.5q-25 0 -55.5 -22t-50.5 -53q-30 -43 -121.5 -83.5t-230.5 -40.5q-53 0 -103 14t-98 43.5t-85.5 82.5t-56.5 125zM340 636q15 173 121 276.5t274 103.5q105 0 186 -64.5t117 -162.5q-124 -30 -357.5 -79t-340.5 -74zM400 1442q62 0 104 42q81 77 198 154
q86 -56 200 -162q15 -14 44.5 -25t49.5 -11q47 0 78.5 25t31.5 66q0 74 -94 130q-26 16 -90.5 68t-95.5 82q-64 61 -120 61q-73 0 -129 -53q-20 -19 -43 -38.5t-41.5 -34t-54 -41.5t-62.5 -48q-44 -35 -59.5 -57.5t-15.5 -63.5q0 -43 26.5 -68.5t72.5 -25.5z" />
    <glyph glyph-name="edieresis" unicode="&#xeb;" horiz-adv-x="1402" 
d="M357 451q110 25 389.5 83.5t429.5 96.5q48 12 77.5 41t29.5 72q0 66 -39 99q-36 173 -173.5 281t-328.5 108q-133 0 -248.5 -46.5t-199.5 -130t-132 -205.5t-48 -267q0 -83 22.5 -168t70 -165t115 -142t165.5 -99.5t212 -37.5q290 0 498 193q66 60 66 112q0 50 -28 79.5
t-77 29.5q-25 0 -55.5 -22t-50.5 -53q-30 -43 -121.5 -83.5t-230.5 -40.5q-53 0 -103 14t-98 43.5t-85.5 82.5t-56.5 125zM340 636q15 173 121 276.5t274 103.5q105 0 186 -64.5t117 -162.5q-124 -30 -357.5 -79t-340.5 -74zM445 1395q51 0 114.5 75.5t63.5 129.5
q0 41 -36.5 78t-81.5 37q-53 0 -112 -75t-59 -139q0 -46 35 -76t76 -30zM868 1388q53 0 120.5 70.5t67.5 122.5v1q0 48 -31.5 84.5t-76.5 36.5q-54 0 -121.5 -73.5t-67.5 -135.5q0 -45 34.5 -75.5t74.5 -30.5z" />
    <glyph glyph-name="igrave" unicode="&#xec;" horiz-adv-x="823" 
d="M311 75q0 -104 115 -104q42 0 208 45q117 36 105 119q-9 42 -27 62t-66 20q-24 0 -57 -12t-53 -13q-3 81 -0.5 394t2.5 366q0 30 7 84.5t7 80.5q0 102 -95 102q-21 0 -70 -3.5t-74 -3.5q-24 0 -73.5 3.5t-75.5 3.5q-41 0 -68.5 -28.5t-27.5 -79.5q0 -55 32 -81.5
t73 -26.5q80 0 147 5q6 -316 6 -729q0 -71 -7.5 -124.5t-7.5 -79.5zM411 1404q51 0 84 32t33 87q0 31 -27.5 62t-49.5 40q-34 27 -208 194q-61 56 -109 56q-40 0 -72 -33.5t-32 -69.5q0 -33 10.5 -56t42.5 -49q73 -62 199 -188v1q30 -33 42.5 -44.5t35 -21.5t51.5 -10z" />
    <glyph glyph-name="iacute" unicode="&#xed;" horiz-adv-x="823" 
d="M311 75q0 -104 115 -104q42 0 208 45q117 36 105 119q-9 42 -27 62t-66 20q-24 0 -57 -12t-53 -13q-3 81 -0.5 394t2.5 366q0 30 7 84.5t7 80.5q0 102 -95 102q-21 0 -70 -3.5t-74 -3.5q-24 0 -73.5 3.5t-75.5 3.5q-41 0 -68.5 -28.5t-27.5 -79.5q0 -55 32 -81.5
t73 -26.5q80 0 147 5q6 -316 6 -729q0 -71 -7.5 -124.5t-7.5 -79.5zM343 1413q54 0 112 53q112 109 213 196l-1 -1q22 8 49.5 38.5t27.5 62.5q0 55 -35 87t-87 32q-38 0 -64 -17.5t-70 -61.5v1l-108 -106q-39 -33 -62.5 -55t-51 -61t-27.5 -68q0 -36 32 -68t72 -32z" />
    <glyph glyph-name="icircumflex" unicode="&#xee;" horiz-adv-x="823" 
d="M311 75q0 -104 115 -104q42 0 208 45q117 36 105 119q-9 42 -27 62t-66 20q-24 0 -57 -12t-53 -13q-3 81 -0.5 394t2.5 366q0 30 7 84.5t7 80.5q0 102 -95 102q-21 0 -70 -3.5t-74 -3.5q-24 0 -73.5 3.5t-75.5 3.5q-41 0 -68.5 -28.5t-27.5 -79.5q0 -55 32 -81.5
t73 -26.5q80 0 147 5q6 -316 6 -729q0 -71 -7.5 -124.5t-7.5 -79.5zM81 1442q62 0 104 42q81 77 198 154q86 -56 200 -162q15 -14 44.5 -25t49.5 -11q47 0 78.5 25t31.5 66q0 74 -94 130q-26 16 -90.5 68t-95.5 82q-64 61 -120 61q-73 0 -129 -53q-20 -19 -43 -38.5
t-41.5 -34t-54 -41.5t-62.5 -48q-44 -35 -59.5 -57.5t-15.5 -63.5q0 -43 26.5 -68.5t72.5 -25.5z" />
    <glyph glyph-name="idieresis" unicode="&#xef;" horiz-adv-x="823" 
d="M311 75q0 -104 115 -104q42 0 208 45q117 36 105 119q-9 42 -27 62t-66 20q-24 0 -57 -12t-53 -13q-3 81 -0.5 394t2.5 366q0 30 7 84.5t7 80.5q0 102 -95 102q-21 0 -70 -3.5t-74 -3.5q-24 0 -73.5 3.5t-75.5 3.5q-41 0 -68.5 -28.5t-27.5 -79.5q0 -55 32 -81.5
t73 -26.5q80 0 147 5q6 -316 6 -729q0 -71 -7.5 -124.5t-7.5 -79.5zM126 1395q51 0 114.5 75.5t63.5 129.5q0 41 -36.5 78t-81.5 37q-53 0 -112 -75t-59 -139q0 -46 35 -76t76 -30zM549 1388q53 0 120.5 70.5t67.5 122.5v1q0 48 -31.5 84.5t-76.5 36.5q-54 0 -121.5 -73.5
t-67.5 -135.5q0 -45 34.5 -75.5t74.5 -30.5z" />
    <glyph glyph-name="eth" unicode="&#xf0;" horiz-adv-x="1355" 
d="M85 598q0 -135 48.5 -253.5t130 -199.5t189.5 -127.5t224 -46.5q274 0 433.5 184.5t159.5 481.5q0 403 -193 747q-86 142 -274 286l68 66q19 19 33.5 49t14.5 52q0 48 -34 74t-83 26q-38 0 -74 -38l-99 -113q-158 91 -275 113q-52 6 -96.5 -23t-44.5 -80q0 -35 23 -64
t69 -44q89 -18 183 -63q-60 -64 -92 -96q-37 -38 -37 -84q0 -51 33.5 -76t70.5 -25q35 0 79 30q65 79 118 140q184 -147 280 -354q-56 27 -134 42.5t-145 15.5q-135 0 -246.5 -51.5t-182 -138t-109 -197.5t-38.5 -233zM314 590q0 190 95.5 305t253.5 115q222 0 331 -111
q42 -43 42 -215q0 -499 -356 -499q-69 0 -134.5 29.5t-117 81t-83 128.5t-31.5 166z" />
    <glyph glyph-name="ntilde" unicode="&#xf1;" horiz-adv-x="1622" 
d="M283 74q0 -52 22.5 -77.5t79.5 -25.5q16 0 95 22q12 4 49 8q27 3 43.5 6t41 11t38 20t24 33.5t10.5 50.5q0 50 -28 77t-82 27q-12 0 -40 -8l-27 -8q-2 23 -2 96q0 174 4 311q0 62 2 182q77 92 183 154.5t216 62.5q65 0 117 -24t85 -63t54.5 -92t30.5 -107t9 -111
q0 -275 -102 -403q-41 -49 -41 -125q0 -45 25.5 -82.5t70.5 -37.5q16 -1 32.5 2t31 7.5t55 18t78.5 25.5l108 25q81 28 81 114q0 113 -112 102q-24 -3 -79 -19q80 192 80 373q0 294 -130.5 453.5t-381.5 159.5q-224 0 -402 -168q3 30 3 59q0 48 -26.5 75.5t-68.5 27.5
q-24 0 -82 -4q-36 -4 -82 -4q-11 0 -32 4t-31 4q-42 0 -68.5 -28.5t-26.5 -80.5q0 -54 31.5 -81t73.5 -27q44 0 72 5q6 -328 9 -433v-11q3 -147 3 -291q0 -50 -9 -131q-5 -40 -5 -74zM611 1426q24 0 41 7t28 23.5t16 27.5t13 33q8 24 13 34.5t18 22.5t32 12q22 0 58 -27.5
t76 -64.5t58 -48q27 -15 70 -26t80 -11q66 0 117.5 22t81 59t44.5 79.5t15 87.5q0 61 -30.5 88.5t-77.5 27.5q-28 0 -48 -7.5t-31 -23.5t-15.5 -29t-9.5 -34q-4 -18 -8.5 -29.5t-16.5 -21.5t-30 -10q-40 0 -111 66q-28 25 -47 40t-49.5 34t-64 28t-71.5 9q-110 0 -181 -72
t-71 -172q0 -59 27 -92t74 -33z" />
    <glyph glyph-name="ograve" unicode="&#xf2;" horiz-adv-x="1460" 
d="M109 603q0 -139 49.5 -258.5t134.5 -200.5t198 -127t239 -46q168 0 309 77.5t226.5 223.5t85.5 331q0 174 -76 316.5t-219 227.5t-326 85q-169 0 -312 -84.5t-226 -229t-83 -315.5zM340 603q0 176 105 294.5t284 118.5q180 0 286 -119t106 -294q0 -196 -112 -306.5
t-280 -110.5q-179 0 -284 113t-105 304zM758 1404q51 0 84 32t33 87q0 31 -27.5 62t-49.5 40q-34 27 -208 194q-61 56 -109 56q-40 0 -72 -33.5t-32 -69.5q0 -33 10.5 -56t42.5 -49q73 -62 199 -188v1q30 -33 42.5 -44.5t35 -21.5t51.5 -10z" />
    <glyph glyph-name="oacute" unicode="&#xf3;" horiz-adv-x="1460" 
d="M109 603q0 -139 49.5 -258.5t134.5 -200.5t198 -127t239 -46q168 0 309 77.5t226.5 223.5t85.5 331q0 174 -76 316.5t-219 227.5t-326 85q-169 0 -312 -84.5t-226 -229t-83 -315.5zM340 603q0 176 105 294.5t284 118.5q180 0 286 -119t106 -294q0 -196 -112 -306.5
t-280 -110.5q-179 0 -284 113t-105 304zM689 1413q54 0 112 53q112 109 213 196l-1 -1q22 8 49.5 38.5t27.5 62.5q0 55 -35 87t-87 32q-38 0 -64 -17.5t-70 -61.5v1l-108 -106q-39 -33 -62.5 -55t-51 -61t-27.5 -68q0 -36 32 -68t72 -32z" />
    <glyph glyph-name="ocircumflex" unicode="&#xf4;" horiz-adv-x="1460" 
d="M109 603q0 -139 49.5 -258.5t134.5 -200.5t198 -127t239 -46q168 0 309 77.5t226.5 223.5t85.5 331q0 174 -76 316.5t-219 227.5t-326 85q-169 0 -312 -84.5t-226 -229t-83 -315.5zM340 603q0 176 105 294.5t284 118.5q180 0 286 -119t106 -294q0 -196 -112 -306.5
t-280 -110.5q-179 0 -284 113t-105 304zM428 1442q62 0 104 42q81 77 198 154q86 -56 200 -162q15 -14 44.5 -25t49.5 -11q47 0 78.5 25t31.5 66q0 74 -94 130q-26 16 -90.5 68t-95.5 82q-64 61 -120 61q-73 0 -129 -53q-20 -19 -43 -38.5t-41.5 -34t-54 -41.5t-62.5 -48
q-44 -35 -59.5 -57.5t-15.5 -63.5q0 -43 26.5 -68.5t72.5 -25.5z" />
    <glyph glyph-name="otilde" unicode="&#xf5;" horiz-adv-x="1460" 
d="M109 603q0 -139 49.5 -258.5t134.5 -200.5t198 -127t239 -46q168 0 309 77.5t226.5 223.5t85.5 331q0 174 -76 316.5t-219 227.5t-326 85q-169 0 -312 -84.5t-226 -229t-83 -315.5zM340 603q0 176 105 294.5t284 118.5q180 0 286 -119t106 -294q0 -196 -112 -306.5
t-280 -110.5q-179 0 -284 113t-105 304zM400 1426q24 0 41 7t28 23.5t16 27.5t13 33q8 24 13 34.5t18 22.5t32 12q22 0 58 -27.5t76 -64.5t58 -48q27 -15 70 -26t80 -11q66 0 117.5 22t81 59t44.5 79.5t15 87.5q0 61 -30.5 88.5t-77.5 27.5q-28 0 -48 -7.5t-31 -23.5
t-15.5 -29t-9.5 -34q-4 -18 -8.5 -29.5t-16.5 -21.5t-30 -10q-40 0 -111 66q-28 25 -47 40t-49.5 34t-64 28t-71.5 9q-110 0 -181 -72t-71 -172q0 -59 27 -92t74 -33z" />
    <glyph glyph-name="odieresis" unicode="&#xf6;" horiz-adv-x="1460" 
d="M109 603q0 -139 49.5 -258.5t134.5 -200.5t198 -127t239 -46q168 0 309 77.5t226.5 223.5t85.5 331q0 174 -76 316.5t-219 227.5t-326 85q-169 0 -312 -84.5t-226 -229t-83 -315.5zM340 603q0 176 105 294.5t284 118.5q180 0 286 -119t106 -294q0 -196 -112 -306.5
t-280 -110.5q-179 0 -284 113t-105 304zM473 1395q51 0 114.5 75.5t63.5 129.5q0 41 -36.5 78t-81.5 37q-53 0 -112 -75t-59 -139q0 -46 35 -76t76 -30zM896 1388q53 0 120.5 70.5t67.5 122.5v1q0 48 -31.5 84.5t-76.5 36.5q-54 0 -121.5 -73.5t-67.5 -135.5
q0 -45 34.5 -75.5t74.5 -30.5z" />
    <glyph glyph-name="divide" unicode="&#xf7;" horiz-adv-x="1186" 
d="M436 259q0 -53 30 -88t94 -35q69 0 97 47t28 142v6q0 156 -117 156q-32 0 -57 -17.5t-39 -42.5t-22.5 -58t-11 -59t-2.5 -51zM436 1104q0 -53 30 -88t94 -35q69 0 97 47t28 142v6q0 156 -117 156q-32 0 -57 -17.5t-39 -42.5t-22.5 -58t-11 -59t-2.5 -51zM204 616
q552 -6 616 -6q29 0 70 -0.5t55 -0.5q45 0 71.5 32t26.5 86q0 62 -30 88t-74 26q-41 0 -71 -11l-621 1q-37 0 -59 -2.5t-43 -11t-30.5 -27t-9.5 -48.5q0 -126 99 -126z" />
    <glyph glyph-name="oslash" unicode="&#xf8;" horiz-adv-x="1460" 
d="M389 -94q-5 -17 -5 -32q0 -39 32.5 -72.5t87.5 -33.5q39 0 64 21.5t36 48.5q5 12 7 37.5t4 34.5l17 68q56 -7 98 -7q168 0 309 77.5t226.5 223.5t85.5 331q0 195 -97.5 350.5t-266.5 227.5l44 137q5 11 5 37q0 45 -29 69.5t-78 24.5q-39 0 -63.5 -19.5t-29.5 -46.5
l-41 -154q-31 3 -65 3q-169 0 -312 -84.5t-226 -229t-83 -315.5q0 -190 88 -336.5t236 -224.5q-37 -115 -44 -136zM501 250q-78 53 -119.5 143.5t-41.5 209.5q0 176 105 294.5t284 118.5h8q-74 -261 -236 -766zM687 187q87 322 233 783q96 -51 148.5 -149t52.5 -218
q0 -196 -112 -306.5t-280 -110.5q-28 0 -42 1z" />
    <glyph glyph-name="ugrave" unicode="&#xf9;" horiz-adv-x="1437" 
d="M157 546q0 -282 131.5 -428.5t389.5 -146.5q84 0 181 36t183 110q-5 -33 -5 -34q0 -40 26.5 -76t80.5 -36q87 3 110.5 28t23.5 86q0 22 -3.5 59.5t-3.5 54.5q0 134 -3 362.5t-3 333.5q-1 76 -1 177q0 35 -0.5 52t-5.5 42t-14.5 36.5t-28 20.5t-46.5 9q-34 0 -89 -20.5
t-76 -23.5q-27 -6 -36 -7.5t-30.5 -7t-29 -9t-22.5 -10t-20 -13.5t-12.5 -17t-10 -22.5t-2.5 -28.5q0 -55 31 -84.5t76 -29.5q36 0 101 19q6 -150 6 -316q0 -150 -4 -299q-78 -82 -176 -132.5t-192 -50.5q-306 0 -306 366q0 130 34.5 259.5t95.5 197.5q50 56 50 116
q0 50 -29.5 81.5t-89.5 31.5q-45 0 -115 -29q-56 -22 -76 -25q-77 -16 -109.5 -37t-32.5 -77q0 -112 102 -112q17 0 37 6q-87 -188 -87 -412zM770 1404q51 0 84 32t33 87q0 31 -27.5 62t-49.5 40q-34 27 -208 194q-61 56 -109 56q-40 0 -72 -33.5t-32 -69.5q0 -33 10.5 -56
t42.5 -49q73 -62 199 -188v1q30 -33 42.5 -44.5t35 -21.5t51.5 -10z" />
    <glyph glyph-name="uacute" unicode="&#xfa;" horiz-adv-x="1437" 
d="M157 546q0 -282 131.5 -428.5t389.5 -146.5q84 0 181 36t183 110q-5 -33 -5 -34q0 -40 26.5 -76t80.5 -36q87 3 110.5 28t23.5 86q0 22 -3.5 59.5t-3.5 54.5q0 134 -3 362.5t-3 333.5q-1 76 -1 177q0 35 -0.5 52t-5.5 42t-14.5 36.5t-28 20.5t-46.5 9q-34 0 -89 -20.5
t-76 -23.5q-27 -6 -36 -7.5t-30.5 -7t-29 -9t-22.5 -10t-20 -13.5t-12.5 -17t-10 -22.5t-2.5 -28.5q0 -55 31 -84.5t76 -29.5q36 0 101 19q6 -150 6 -316q0 -150 -4 -299q-78 -82 -176 -132.5t-192 -50.5q-306 0 -306 366q0 130 34.5 259.5t95.5 197.5q50 56 50 116
q0 50 -29.5 81.5t-89.5 31.5q-45 0 -115 -29q-56 -22 -76 -25q-77 -16 -109.5 -37t-32.5 -77q0 -112 102 -112q17 0 37 6q-87 -188 -87 -412zM701 1413q54 0 112 53q112 109 213 196l-1 -1q22 8 49.5 38.5t27.5 62.5q0 55 -35 87t-87 32q-38 0 -64 -17.5t-70 -61.5v1
l-108 -106q-39 -33 -62.5 -55t-51 -61t-27.5 -68q0 -36 32 -68t72 -32z" />
    <glyph glyph-name="ucircumflex" unicode="&#xfb;" horiz-adv-x="1437" 
d="M157 546q0 -282 131.5 -428.5t389.5 -146.5q84 0 181 36t183 110q-5 -33 -5 -34q0 -40 26.5 -76t80.5 -36q87 3 110.5 28t23.5 86q0 22 -3.5 59.5t-3.5 54.5q0 134 -3 362.5t-3 333.5q-1 76 -1 177q0 35 -0.5 52t-5.5 42t-14.5 36.5t-28 20.5t-46.5 9q-34 0 -89 -20.5
t-76 -23.5q-27 -6 -36 -7.5t-30.5 -7t-29 -9t-22.5 -10t-20 -13.5t-12.5 -17t-10 -22.5t-2.5 -28.5q0 -55 31 -84.5t76 -29.5q36 0 101 19q6 -150 6 -316q0 -150 -4 -299q-78 -82 -176 -132.5t-192 -50.5q-306 0 -306 366q0 130 34.5 259.5t95.5 197.5q50 56 50 116
q0 50 -29.5 81.5t-89.5 31.5q-45 0 -115 -29q-56 -22 -76 -25q-77 -16 -109.5 -37t-32.5 -77q0 -112 102 -112q17 0 37 6q-87 -188 -87 -412zM440 1442q62 0 104 42q81 77 198 154q86 -56 200 -162q15 -14 44.5 -25t49.5 -11q47 0 78.5 25t31.5 66q0 74 -94 130
q-26 16 -90.5 68t-95.5 82q-64 61 -120 61q-73 0 -129 -53q-20 -19 -43 -38.5t-41.5 -34t-54 -41.5t-62.5 -48q-44 -35 -59.5 -57.5t-15.5 -63.5q0 -43 26.5 -68.5t72.5 -25.5z" />
    <glyph glyph-name="udieresis" unicode="&#xfc;" horiz-adv-x="1437" 
d="M157 546q0 -282 131.5 -428.5t389.5 -146.5q84 0 181 36t183 110q-5 -33 -5 -34q0 -40 26.5 -76t80.5 -36q87 3 110.5 28t23.5 86q0 22 -3.5 59.5t-3.5 54.5q0 134 -3 362.5t-3 333.5q-1 76 -1 177q0 35 -0.5 52t-5.5 42t-14.5 36.5t-28 20.5t-46.5 9q-34 0 -89 -20.5
t-76 -23.5q-27 -6 -36 -7.5t-30.5 -7t-29 -9t-22.5 -10t-20 -13.5t-12.5 -17t-10 -22.5t-2.5 -28.5q0 -55 31 -84.5t76 -29.5q36 0 101 19q6 -150 6 -316q0 -150 -4 -299q-78 -82 -176 -132.5t-192 -50.5q-306 0 -306 366q0 130 34.5 259.5t95.5 197.5q50 56 50 116
q0 50 -29.5 81.5t-89.5 31.5q-45 0 -115 -29q-56 -22 -76 -25q-77 -16 -109.5 -37t-32.5 -77q0 -112 102 -112q17 0 37 6q-87 -188 -87 -412zM485 1395q51 0 114.5 75.5t63.5 129.5q0 41 -36.5 78t-81.5 37q-53 0 -112 -75t-59 -139q0 -46 35 -76t76 -30zM908 1388
q53 0 120.5 70.5t67.5 122.5v1q0 48 -31.5 84.5t-76.5 36.5q-54 0 -121.5 -73.5t-67.5 -135.5q0 -45 34.5 -75.5t74.5 -30.5z" />
    <glyph glyph-name="yacute" unicode="&#xfd;" horiz-adv-x="1457" 
d="M208 -222q0 -78 70 -142.5t181.5 -99.5t237.5 -35q109 0 195.5 16.5t162.5 56.5t126.5 104t79 163.5t28.5 230.5q0 38 -3 99.5t-3 88.5q4 778 5 811q4 24 4 45q0 40 -12 66.5t-33 35.5t-33.5 11.5t-30.5 2.5q-45 0 -90 -24l1 1l-155 -44q-106 -17 -106 -116q0 -52 34 -76
t82 -24q35 0 119 28v-608v-23q-49 -84 -133 -124t-213 -40q-77 0 -141.5 22t-117 68t-82.5 128t-30 192q0 127 66.5 269.5t148.5 175.5q45 33 45 94q0 45 -29.5 73t-71.5 28q-32 0 -110 -23q-77 -23 -130 -35q-94 -20 -130.5 -50.5t-36.5 -84.5q0 -34 31.5 -65t75.5 -31
q13 0 19 1q-48 -83 -73.5 -183.5t-25.5 -176.5q0 -132 32 -237t86.5 -174.5t131 -115.5t162.5 -66t184 -20q214 0 344 121q0 -2 0.5 -4.5t0.5 -3.5q-3 -104 -30.5 -178t-78 -115t-112.5 -59t-143 -18q-96 0 -161.5 21.5t-119.5 89.5q-19 22 -28 32t-29.5 23t-39.5 13
q-59 0 -90 -37.5t-31 -77.5zM667 1413q54 0 112 53q112 109 213 196l-1 -1q22 8 49.5 38.5t27.5 62.5q0 55 -35 87t-87 32q-38 0 -64 -17.5t-70 -61.5v1l-108 -106q-39 -33 -62.5 -55t-51 -61t-27.5 -68q0 -36 32 -68t72 -32z" />
    <glyph glyph-name="thorn" unicode="&#xfe;" horiz-adv-x="1504" 
d="M202 -241q0 -51 28.5 -78.5t73.5 -27.5q70 0 91.5 37.5t21.5 129.5q0 97 -0.5 160t-0.5 92v42q59 -62 171 -103.5t218 -41.5q169 0 302 85t205.5 231t72.5 325q0 284 -161 453t-421 169q-124 0 -228 -45.5t-177 -133.5q9 202 9 448q9 36 9 56q0 49 -25.5 77t-69.5 28
q-23 -1 -74 -4.5t-78 -3.5q-12 0 -35.5 4t-35.5 4q-40 0 -64 -28t-24 -80q0 -55 35 -81.5t77 -26.5q14 0 39.5 4t37.5 4q3 -939 3 -1695zM412 600q0 179 111 298.5t264 119.5q110 0 193 -58.5t123 -150t40 -199.5q0 -191 -91.5 -310.5t-253.5 -119.5q-97 0 -183.5 47.5
t-144.5 145.5t-58 227z" />
    <glyph glyph-name="ydieresis" unicode="&#xff;" horiz-adv-x="1457" 
d="M208 -222q0 -78 70 -142.5t181.5 -99.5t237.5 -35q109 0 195.5 16.5t162.5 56.5t126.5 104t79 163.5t28.5 230.5q0 38 -3 99.5t-3 88.5q4 778 5 811q4 24 4 45q0 40 -12 66.5t-33 35.5t-33.5 11.5t-30.5 2.5q-45 0 -90 -24l1 1l-155 -44q-106 -17 -106 -116q0 -52 34 -76
t82 -24q35 0 119 28v-608v-23q-49 -84 -133 -124t-213 -40q-77 0 -141.5 22t-117 68t-82.5 128t-30 192q0 127 66.5 269.5t148.5 175.5q45 33 45 94q0 45 -29.5 73t-71.5 28q-32 0 -110 -23q-77 -23 -130 -35q-94 -20 -130.5 -50.5t-36.5 -84.5q0 -34 31.5 -65t75.5 -31
q13 0 19 1q-48 -83 -73.5 -183.5t-25.5 -176.5q0 -132 32 -237t86.5 -174.5t131 -115.5t162.5 -66t184 -20q214 0 344 121q0 -2 0.5 -4.5t0.5 -3.5q-3 -104 -30.5 -178t-78 -115t-112.5 -59t-143 -18q-96 0 -161.5 21.5t-119.5 89.5q-19 22 -28 32t-29.5 23t-39.5 13
q-59 0 -90 -37.5t-31 -77.5zM451 1395q51 0 114.5 75.5t63.5 129.5q0 41 -36.5 78t-81.5 37q-53 0 -112 -75t-59 -139q0 -46 35 -76t76 -30zM874 1388q53 0 120.5 70.5t67.5 122.5v1q0 48 -31.5 84.5t-76.5 36.5q-54 0 -121.5 -73.5t-67.5 -135.5q0 -45 34.5 -75.5
t74.5 -30.5z" />
    <glyph glyph-name="Amacron" unicode="&#x100;" horiz-adv-x="1568" 
d="M35 77q0 -50 35 -78t90 -28q38 0 63.5 9t40 29.5t20.5 35t14 44.5v-1q31 95 157 401q14 0 42 2q85 4 169.5 4t182.5 -1.5t145 -1.5q72 -3 110 -3q145 -326 184 -411q5 -46 40.5 -76.5t88.5 -30.5t85 27t32 84q0 53 -62 138l-19 28q-42 91 -226.5 503.5t-289.5 620.5
q-8 15 -28 75q-9 27 -14 40.5t-16.5 33.5t-24 29t-33.5 16.5t-49 7.5q-52 0 -82.5 -35.5t-38.5 -85.5q-44 -88 -283 -624t-291 -622q-42 -58 -42 -130zM546 707q124 293 221 515q156 -332 241 -518q-443 3 -462 3zM501 1634q118 3 546 0q54 0 87 21.5t33 81.5q0 67 -32 87
t-91 15q-123 -10 -537 -10q-65 0 -102.5 -23t-37.5 -66q0 -110 134 -106z" />
    <glyph glyph-name="amacron" unicode="&#x101;" horiz-adv-x="1594" 
d="M114 600q0 -178 74 -321.5t208.5 -225.5t304.5 -82q124 0 234 53.5t176 135.5q9 -175 130 -175q31 0 66.5 7.5t59.5 15.5t65.5 24t59.5 22q61 21 61 94q0 43 -26 78.5t-71 35.5q-24 0 -63 -15q-37 -19 -59 -24q-5 28 -5 237q0 66 4 194q5 157 5 350q1 18 5 65.5t4 72.5
q0 33 -36 67t-87 34q-62 0 -92.5 -33t-30.5 -86q0 -40 1 -58q-64 73 -168 123.5t-224 50.5q-124 0 -234.5 -49.5t-189.5 -134t-125.5 -203.5t-46.5 -253zM344 600q0 119 47 217t132.5 155.5t192.5 57.5q83 0 155 -37t120 -96t78.5 -124t42.5 -130v-88q-13 -68 -46 -132
t-83 -118t-122 -86.5t-153 -32.5q-111 0 -195.5 58.5t-126.5 152t-42 203.5zM468 1465q37 0 105 4.5t101 4.5q63 0 175.5 -4.5t164.5 -4.5q16 0 33.5 4t38.5 14.5t34.5 32.5t13.5 53q0 36 -9 57.5t-29 30.5t-37 11.5t-48 2.5q-47 0 -136 -9t-132 -9q-49 0 -138 4t-131 4
q-65 0 -102.5 -23.5t-37.5 -66.5q0 -61 36.5 -83.5t97.5 -22.5z" />
    <glyph glyph-name="Abreve" unicode="&#x102;" horiz-adv-x="1568" 
d="M35 77q0 -50 35 -78t90 -28q38 0 63.5 9t40 29.5t20.5 35t14 44.5v-1q31 95 157 401q14 0 42 2q85 4 169.5 4t182.5 -1.5t145 -1.5q72 -3 110 -3q145 -326 184 -411q5 -46 40.5 -76.5t88.5 -30.5t85 27t32 84q0 53 -62 138l-19 28q-42 91 -226.5 503.5t-289.5 620.5
q-8 15 -28 75q-9 27 -14 40.5t-16.5 33.5t-24 29t-33.5 16.5t-49 7.5q-52 0 -82.5 -35.5t-38.5 -85.5q-44 -88 -283 -624t-291 -622q-42 -58 -42 -130zM546 707q124 293 221 515q156 -332 241 -518q-443 3 -462 3zM809 1622q82 0 159.5 32.5t132 100.5t54.5 157q0 45 -28 68
t-67 23q-34 0 -57 -21.5t-29 -60.5q-10 -60 -53.5 -93t-108.5 -33q-68 0 -113.5 33t-55.5 93q-6 38 -29 60t-58 22q-36 0 -64.5 -22t-28.5 -63q0 -68 31 -125.5t81 -94t111 -56.5t123 -20z" />
    <glyph glyph-name="abreve" unicode="&#x103;" horiz-adv-x="1594" 
d="M114 600q0 -178 74 -321.5t208.5 -225.5t304.5 -82q124 0 234 53.5t176 135.5q9 -175 130 -175q31 0 66.5 7.5t59.5 15.5t65.5 24t59.5 22q61 21 61 94q0 43 -26 78.5t-71 35.5q-24 0 -63 -15q-37 -19 -59 -24q-5 28 -5 237q0 66 4 194q5 157 5 350q1 18 5 65.5t4 72.5
q0 33 -36 67t-87 34q-62 0 -92.5 -33t-30.5 -86q0 -40 1 -58q-64 73 -168 123.5t-224 50.5q-124 0 -234.5 -49.5t-189.5 -134t-125.5 -203.5t-46.5 -253zM344 600q0 119 47 217t132.5 155.5t192.5 57.5q83 0 155 -37t120 -96t78.5 -124t42.5 -130v-88q-13 -68 -46 -132
t-83 -118t-122 -86.5t-153 -32.5q-111 0 -195.5 58.5t-126.5 152t-42 203.5zM768 1409q82 0 160.5 35t133.5 105.5t55 158.5q0 45 -27.5 68t-65.5 23q-31 0 -56.5 -23.5t-34.5 -58.5q-15 -60 -58 -98.5t-103 -38.5q-68 0 -113.5 37.5t-55.5 99.5q-7 39 -30 60.5t-59 21.5
q-37 0 -65 -21.5t-28 -62.5q0 -91 54 -163t132 -107.5t161 -35.5z" />
    <glyph glyph-name="Aogonek" unicode="&#x104;" horiz-adv-x="1584" 
d="M35 77q0 -50 35 -78t90 -28q38 0 63.5 9t40 29.5t20.5 35t14 44.5v-1q31 95 157 401q14 0 42 2q85 4 169.5 4t182.5 -1.5t145 -1.5q72 -3 110 -3q75 -172 156 -351q-143 -53 -240 -160.5t-97 -206.5q0 -65 18.5 -114.5t47.5 -78.5t70.5 -47.5t81.5 -25t87 -6.5
q70 0 138.5 22.5t116.5 66t48 96.5q0 39 -30.5 71t-70.5 32q-46 0 -74 -27q-58 -58 -138 -58q-25 0 -45.5 23.5t-20.5 65.5q0 59 54 112t129 93q35 -25 82 -25q53 0 85 27t32 84q0 53 -62 138l-19 28q-42 91 -226.5 503.5t-289.5 620.5q-8 15 -28 75q-9 27 -14 40.5
t-16.5 33.5t-24 29t-33.5 16.5t-49 7.5q-52 0 -82.5 -35.5t-38.5 -85.5q-44 -88 -283 -624t-291 -622q-42 -58 -42 -130zM546 707q124 293 221 515q156 -332 241 -518q-443 3 -462 3z" />
    <glyph glyph-name="aogonek" unicode="&#x105;" horiz-adv-x="1596" 
d="M117 617q0 -178 74 -321.5t208.5 -225.5t304.5 -82q124 0 234 53.5t176 135.5q2 -44 11 -77q-101 -63 -163 -149t-62 -163q0 -65 18.5 -114.5t47.5 -78.5t70.5 -47.5t81.5 -25t87 -6.5q111 0 211.5 53.5t100.5 131.5q0 38 -30.5 70.5t-70.5 32.5q-47 0 -75 -27
q-58 -58 -146 -58q-25 0 -45 23t-20 66q0 103 171 199q30 5 61.5 15.5t73.5 26.5t59 22q61 21 61 94q0 43 -26 78.5t-71 35.5q-24 0 -63 -15q-37 -18 -59 -24q-5 28 -5 237q0 66 4 194q5 157 5 350q1 18 5 65.5t4 72.5q0 33 -36 67t-87 34q-62 0 -92.5 -33t-30.5 -86
q0 -40 1 -58q-64 73 -168 123.5t-224 50.5q-124 0 -234.5 -49.5t-189.5 -134t-125.5 -203.5t-46.5 -253zM347 617q0 119 47 217t132.5 155.5t192.5 57.5q83 0 155 -37t120 -96t78.5 -124t42.5 -130v-88q-13 -68 -46 -132t-83 -118t-122 -86.5t-153 -32.5q-111 0 -195.5 58.5
t-126.5 152t-42 203.5z" />
    <glyph glyph-name="Cacute" unicode="&#x106;" horiz-adv-x="1495" 
d="M109 756q0 -157 52.5 -298t148.5 -250t244 -173t326 -64q99 0 209.5 27.5t159.5 56.5v-1q120 57 120 141q0 105 -112 105q-28 0 -50 -12t-56 -41q-33 -23 -114.5 -41.5t-165.5 -18.5q-67 0 -130.5 14t-124.5 43t-111.5 77.5t-89.5 113t-60.5 154.5t-21.5 198
q0 116 31 212.5t82.5 161.5t119.5 110.5t142 66t151 20.5q52 0 77.5 -1t72.5 -10t91 -27q71 -51 125 -51q48 0 85 29t37 94q0 12 -2.5 23t-5.5 19.5t-9.5 16.5t-11.5 13.5t-15 11.5t-15.5 9.5t-18.5 8.5t-18.5 7t-20 7t-19.5 7q-169 59 -329 59q-115 0 -223.5 -29t-209 -94
t-175.5 -158t-120 -231.5t-45 -305.5zM932 1605q40 0 69 20t60 56q26 29 35 36q21 20 38.5 37.5t28 27t26.5 22.5q31 25 41 48.5t11 57.5q0 35 -33 67.5t-73 32.5q-58 0 -106 -55q-72 -77 -135 -129q-22 -9 -49.5 -40t-27.5 -62q0 -56 32 -87.5t83 -31.5z" />
    <glyph glyph-name="cacute" unicode="&#x107;" horiz-adv-x="1385" 
d="M114 604q0 -128 46 -244t126 -202t196 -136.5t248 -50.5q126 0 245 38t205 124q65 73 70 142q2 25 -6 47.5t-32.5 40.5t-62.5 20q-28 2 -56.5 -14.5t-47.5 -40.5q-51 -66 -137.5 -104t-167.5 -38q-79 0 -145 26t-110 67.5t-74.5 95t-44.5 108t-14 107.5q0 85 24.5 160.5
t70.5 135.5t120 95t166 35q62 0 110 -9t76 -21.5t50.5 -34.5t32 -37t21.5 -40q16 -31 25.5 -45t32.5 -27t56 -13q50 0 76 32t26 83q0 30 -10 89t-10 90q0 18 3 48.5t3 44.5q0 43 -27.5 68.5t-74.5 25.5q-102 0 -119 -97q-92 59 -238 59q-166 0 -294 -52t-204.5 -141
t-115 -199.5t-38.5 -235.5zM735 1413q54 0 112 53q112 109 213 196l-1 -1q22 8 49.5 38.5t27.5 62.5q0 55 -35 87t-87 32q-38 0 -64 -17.5t-70 -61.5v1l-108 -106q-39 -33 -62.5 -55t-51 -61t-27.5 -68q0 -36 32 -68t72 -32z" />
    <glyph glyph-name="Ccircumflex" unicode="&#x108;" horiz-adv-x="1495" 
d="M109 756q0 -157 52.5 -298t148.5 -250t244 -173t326 -64q99 0 209.5 27.5t159.5 56.5v-1q120 57 120 141q0 105 -112 105q-28 0 -50 -12t-56 -41q-33 -23 -114.5 -41.5t-165.5 -18.5q-67 0 -130.5 14t-124.5 43t-111.5 77.5t-89.5 113t-60.5 154.5t-21.5 198
q0 116 31 212.5t82.5 161.5t119.5 110.5t142 66t151 20.5q52 0 77.5 -1t72.5 -10t91 -27q71 -51 125 -51q48 0 85 29t37 94q0 12 -2.5 23t-5.5 19.5t-9.5 16.5t-11.5 13.5t-15 11.5t-15.5 9.5t-18.5 8.5t-18.5 7t-20 7t-19.5 7q-169 59 -329 59q-115 0 -223.5 -29t-209 -94
t-175.5 -158t-120 -231.5t-45 -305.5zM694 1622q61 0 105 40q86 80 145 115q41 -27 161 -128q17 -13 45.5 -23.5t48.5 -10.5q48 0 78.5 24t30.5 65q0 42 -21 71.5t-73 58.5q-25 13 -71 49t-75 65q-62 62 -121 62q-71 0 -127 -55q-76 -72 -146 -117q-78 -50 -78 -133
q0 -34 27 -58.5t71 -24.5z" />
    <glyph glyph-name="ccircumflex" unicode="&#x109;" horiz-adv-x="1385" 
d="M114 604q0 -128 46 -244t126 -202t196 -136.5t248 -50.5q126 0 245 38t205 124q65 73 70 142q2 25 -6 47.5t-32.5 40.5t-62.5 20q-28 2 -56.5 -14.5t-47.5 -40.5q-51 -66 -137.5 -104t-167.5 -38q-79 0 -145 26t-110 67.5t-74.5 95t-44.5 108t-14 107.5q0 85 24.5 160.5
t70.5 135.5t120 95t166 35q62 0 110 -9t76 -21.5t50.5 -34.5t32 -37t21.5 -40q16 -31 25.5 -45t32.5 -27t56 -13q50 0 76 32t26 83q0 30 -10 89t-10 90q0 18 3 48.5t3 44.5q0 43 -27.5 68.5t-74.5 25.5q-102 0 -119 -97q-92 59 -238 59q-166 0 -294 -52t-204.5 -141
t-115 -199.5t-38.5 -235.5zM473 1442q62 0 104 42q81 77 198 154q86 -56 200 -162q15 -14 44.5 -25t49.5 -11q47 0 78.5 25t31.5 66q0 74 -94 130q-26 16 -90.5 68t-95.5 82q-64 61 -120 61q-73 0 -129 -53q-20 -19 -43 -38.5t-41.5 -34t-54 -41.5t-62.5 -48
q-44 -35 -59.5 -57.5t-15.5 -63.5q0 -43 26.5 -68.5t72.5 -25.5z" />
    <glyph glyph-name="Cdotaccent" unicode="&#x10a;" horiz-adv-x="1495" 
d="M109 756q0 -157 52.5 -298t148.5 -250t244 -173t326 -64q99 0 209.5 27.5t159.5 56.5v-1q120 57 120 141q0 105 -112 105q-28 0 -50 -12t-56 -41q-33 -23 -114.5 -41.5t-165.5 -18.5q-67 0 -130.5 14t-124.5 43t-111.5 77.5t-89.5 113t-60.5 154.5t-21.5 198
q0 116 31 212.5t82.5 161.5t119.5 110.5t142 66t151 20.5q52 0 77.5 -1t72.5 -10t91 -27q71 -51 125 -51q48 0 85 29t37 94q0 12 -2.5 23t-5.5 19.5t-9.5 16.5t-11.5 13.5t-15 11.5t-15.5 9.5t-18.5 8.5t-18.5 7t-20 7t-19.5 7q-169 59 -329 59q-115 0 -223.5 -29t-209 -94
t-175.5 -158t-120 -231.5t-45 -305.5zM928 1668q119 0 119 165q3 19 3 41q0 52 -26.5 83t-82.5 31q-53 0 -82.5 -35t-29.5 -88q0 -12 -1 -44t-0.5 -47t5.5 -36t16 -35q27 -35 79 -35z" />
    <glyph glyph-name="cdotaccent" unicode="&#x10b;" horiz-adv-x="1385" 
d="M114 604q0 -128 46 -244t126 -202t196 -136.5t248 -50.5q126 0 245 38t205 124q65 73 70 142q2 25 -6 47.5t-32.5 40.5t-62.5 20q-28 2 -56.5 -14.5t-47.5 -40.5q-51 -66 -137.5 -104t-167.5 -38q-79 0 -145 26t-110 67.5t-74.5 95t-44.5 108t-14 107.5q0 85 24.5 160.5
t70.5 135.5t120 95t166 35q62 0 110 -9t76 -21.5t50.5 -34.5t32 -37t21.5 -40q16 -31 25.5 -45t32.5 -27t56 -13q50 0 76 32t26 83q0 30 -10 89t-10 90q0 18 3 48.5t3 44.5q0 43 -27.5 68.5t-74.5 25.5q-102 0 -119 -97q-92 59 -238 59q-166 0 -294 -52t-204.5 -141
t-115 -199.5t-38.5 -235.5zM778 1363q53 0 80 24q22 19 29 38t11 67q7 68 7 77q0 53 -29 83.5t-86 30.5q-45 0 -77 -25q-39 -31 -39 -98q0 -32 1 -83q-2 -53 19 -79q27 -35 84 -35z" />
    <glyph glyph-name="Ccaron" unicode="&#x10c;" horiz-adv-x="1495" 
d="M109 756q0 -157 52.5 -298t148.5 -250t244 -173t326 -64q99 0 209.5 27.5t159.5 56.5v-1q120 57 120 141q0 105 -112 105q-28 0 -50 -12t-56 -41q-33 -23 -114.5 -41.5t-165.5 -18.5q-67 0 -130.5 14t-124.5 43t-111.5 77.5t-89.5 113t-60.5 154.5t-21.5 198
q0 116 31 212.5t82.5 161.5t119.5 110.5t142 66t151 20.5q52 0 77.5 -1t72.5 -10t91 -27q71 -51 125 -51q48 0 85 29t37 94q0 12 -2.5 23t-5.5 19.5t-9.5 16.5t-11.5 13.5t-15 11.5t-15.5 9.5t-18.5 8.5t-18.5 7t-20 7t-19.5 7q-169 59 -329 59q-115 0 -223.5 -29t-209 -94
t-175.5 -158t-120 -231.5t-45 -305.5zM934 1595q25 0 58.5 19.5t55 37.5t64.5 57q81 69 113 87q51 30 73 53.5t22 61.5q0 41 -32 70t-78 29q-67 0 -94 -36q-76 -73 -183 -145l-185 137q-44 44 -104 44q-46 0 -72.5 -26.5t-26.5 -69.5q0 -36 12.5 -54.5t50.5 -49.5l196 -161
q55 -54 130 -54z" />
    <glyph glyph-name="ccaron" unicode="&#x10d;" horiz-adv-x="1385" 
d="M114 604q0 -128 46 -244t126 -202t196 -136.5t248 -50.5q126 0 245 38t205 124q65 73 70 142q2 25 -6 47.5t-32.5 40.5t-62.5 20q-28 2 -56.5 -14.5t-47.5 -40.5q-51 -66 -137.5 -104t-167.5 -38q-79 0 -145 26t-110 67.5t-74.5 95t-44.5 108t-14 107.5q0 85 24.5 160.5
t70.5 135.5t120 95t166 35q62 0 110 -9t76 -21.5t50.5 -34.5t32 -37t21.5 -40q16 -31 25.5 -45t32.5 -27t56 -13q50 0 76 32t26 83q0 30 -10 89t-10 90q0 18 3 48.5t3 44.5q0 43 -27.5 68.5t-74.5 25.5q-102 0 -119 -97q-92 59 -238 59q-166 0 -294 -52t-204.5 -141
t-115 -199.5t-38.5 -235.5zM779 1431q24 0 45 7.5t31.5 14.5t31.5 24q163 147 197 164q95 54 95 132q0 41 -32 70t-78 29q-22 0 -51 -10.5t-43 -25.5q-105 -97 -199 -162q-27 23 -96.5 73.5t-102.5 81.5q-47 41 -104 41q-46 0 -72.5 -25.5t-26.5 -67.5q0 -41 16.5 -69
t58.5 -63q21 -17 94.5 -71.5t108.5 -87.5q55 -55 127 -55z" />
    <glyph glyph-name="Dcaron" unicode="&#x10e;" horiz-adv-x="1631" 
d="M229 117q0 -58 26.5 -85.5t86.5 -27.5q54 0 155.5 -11.5t150.5 -11.5q135 0 250.5 29.5t200.5 79.5t153 119t112 145t73.5 160.5t42 163t12.5 154.5q0 119 -25.5 224.5t-84.5 201.5t-148.5 165t-226 110t-308.5 41q-48 0 -141 -7.5t-139 -7.5q-22 0 -60.5 7.5t-56.5 7.5
q-54 0 -79 -28t-25 -74q0 -37 28 -89q11 -398 11 -1073q0 -42 -4 -103.5t-4 -89.5zM452 220l-6 1122q137 9 216 9q151 0 257.5 -27.5t186 -92t118 -177t38.5 -276.5q0 -40 -7 -85.5t-26 -102.5t-47.5 -110t-76.5 -104.5t-108.5 -89t-147.5 -61t-189 -23.5q-141 0 -208 18z
M831 1595q25 0 58.5 19.5t55 37.5t64.5 57q81 69 113 87q51 30 73 53.5t22 61.5q0 41 -32 70t-78 29q-67 0 -94 -36q-76 -73 -183 -145l-185 137q-44 44 -104 44q-46 0 -72.5 -26.5t-26.5 -69.5q0 -36 12.5 -54.5t50.5 -49.5l196 -161q55 -54 130 -54z" />
    <glyph glyph-name="dcaron" unicode="&#x10f;" horiz-adv-x="1732" 
d="M119 617q0 -131 41.5 -246.5t115 -200t181.5 -133.5t235 -49t247.5 49.5t201.5 131.5q33 -167 122 -167q7 0 14 1.5t16.5 4.5t16 5.5t18.5 9t17.5 9t20 10.5t18.5 10q52 28 91 46q28 11 48.5 37.5t20.5 65.5q0 55 -32.5 82.5t-70.5 23.5q-33 -3 -83 -32l-18 -11
q-7 83 -7 300q0 727 8 1075q9 19 9 53q0 48 -24 77t-66 29q-40 0 -134 -3t-143 -2q-24 6 -56 6q-42 0 -68.5 -29t-26.5 -79q0 -54 32 -88t71 -34q17 0 47 5t45 5h85q4 -324 4 -507q-65 85 -171 131t-225 46q-170 0 -307.5 -82t-215.5 -227t-78 -323zM342 617
q0 184 108.5 299.5t276.5 115.5q140 0 247.5 -97.5t139.5 -244.5q0 -20 0.5 -70t0.5 -111q-30 -136 -149 -221t-257 -85q-110 0 -195.5 60t-128.5 153.5t-43 200.5zM1555 1136q43 0 77 38.5t50 80.5q55 156 55 279q0 26 -1.5 44.5t-7.5 42t-16.5 37.5t-31 24.5t-49.5 10.5
q-65 0 -91 -30.5t-26 -85.5q0 -19 1 -43t1 -33q0 -101 -11 -138q-9 -29 -24 -50q-28 -39 -28 -81q0 -46 29.5 -71t72.5 -25z" />
    <glyph glyph-name="Dcroat" unicode="&#x110;" horiz-adv-x="1626" 
d="M224 117q0 -58 26.5 -85.5t86.5 -27.5q54 0 155.5 -11.5t150.5 -11.5q135 0 250.5 29.5t200.5 79.5t153 119t112 145t73.5 160.5t42 163t12.5 154.5q0 119 -25.5 224.5t-84.5 201.5t-148.5 165t-226 110t-308.5 41q-48 0 -141 -7.5t-139 -7.5q-22 0 -60.5 7.5t-56.5 7.5
q-54 0 -79 -28t-25 -74q0 -37 28 -89q6 -245 9 -490q-73 -1 -106.5 -18t-33.5 -74q0 -38 8 -62.5t24.5 -34.5t30.5 -12.5t36 -2.5h42q1 -127 1 -379q0 -42 -4 -103.5t-4 -89.5zM447 220l-3 465q218 -4 323 -4q98 0 98 105q0 61 -34 89t-71 28q-13 0 -36.5 -5.5t-34.5 -5.5
q-48 0 -246 1l-2 449q137 9 216 9q151 0 257.5 -27.5t186 -92t118 -177t38.5 -276.5q0 -40 -7 -85.5t-26 -102.5t-47.5 -110t-76.5 -104.5t-108.5 -89t-147.5 -61t-189 -23.5q-141 0 -208 18z" />
    <glyph glyph-name="dcroat" unicode="&#x111;" horiz-adv-x="1578" 
d="M119 600q0 -131 41.5 -246.5t115 -200t181.5 -133.5t235 -49t247.5 49.5t201.5 131.5q33 -167 122 -167q7 0 14 1.5t16.5 4.5t16 5.5t18.5 9t17.5 9t20 10.5t18.5 10q52 28 91 46q28 11 48.5 37.5t20.5 65.5q0 55 -32.5 82.5t-70.5 23.5q-33 -3 -83 -32l-18 -11
q-7 83 -7 300q0 412 3 697l119 -1q49 0 73.5 21.5t24.5 75.5q0 33 -9 54t-26.5 29t-30 10t-32.5 2q-14 0 -39.5 -5t-37.5 -5h-40l3 197q9 20 9 53q0 48 -24 77t-66 29q-40 0 -134 -3t-143 -2q-24 6 -56 6q-42 0 -68.5 -29t-26.5 -79q0 -54 32 -88t71 -34q17 0 47 5t45 5h85
q0 -25 0.5 -70t0.5 -66l-110 1q-118 0 -118 -81q0 -50 29.5 -73.5t71.5 -23.5l129 -2q1 -89 1 -192q-65 85 -171 131t-225 46q-170 0 -307.5 -82t-215.5 -227t-78 -323zM342 600q0 184 108.5 299.5t276.5 115.5q140 0 247.5 -97.5t139.5 -244.5q0 -19 0.5 -69t0.5 -112
q-30 -136 -149 -221t-257 -85q-110 0 -195.5 60t-128.5 153.5t-43 200.5z" />
    <glyph glyph-name="Emacron" unicode="&#x112;" horiz-adv-x="1321" 
d="M198 113q0 -58 32 -85.5t87 -27.5h673q35 0 55.5 1t47.5 7.5t42 19t25.5 35.5t10.5 57q0 101 -141 101q-34 0 -90 -8q-60 -10 -103 -10q-74 0 -209 3t-199 3v599l628 1q58 0 92.5 26.5t34.5 77.5q0 38 -31.5 74t-81.5 36q-46 0 -94 -6q-36 -4 -53 -4q-469 0 -495 1v317
h93q10 0 42 0.5t107 0.5h189q26 -3 67 -3q58 0 89.5 23.5t31.5 93.5q0 58 -24.5 83t-96.5 25q-6 0 -33 -4t-39 -5h-527q-25 0 -38.5 -1t-34 -8t-31 -20t-18.5 -39.5t-8 -64.5l23 -1196l-9 -32q-14 -49 -14 -71zM420 1634q118 3 546 0q54 0 87 21.5t33 81.5q0 67 -32 87
t-91 15q-123 -10 -537 -10q-65 0 -102.5 -23t-37.5 -66q0 -110 134 -106z" />
    <glyph glyph-name="emacron" unicode="&#x113;" horiz-adv-x="1402" 
d="M357 451q110 25 389.5 83.5t429.5 96.5q48 12 77.5 41t29.5 72q0 66 -39 99q-36 173 -173.5 281t-328.5 108q-133 0 -248.5 -46.5t-199.5 -130t-132 -205.5t-48 -267q0 -83 22.5 -168t70 -165t115 -142t165.5 -99.5t212 -37.5q290 0 498 193q66 60 66 112q0 50 -28 79.5
t-77 29.5q-25 0 -55.5 -22t-50.5 -53q-30 -43 -121.5 -83.5t-230.5 -40.5q-53 0 -103 14t-98 43.5t-85.5 82.5t-56.5 125zM340 636q15 173 121 276.5t274 103.5q105 0 186 -64.5t117 -162.5q-124 -30 -357.5 -79t-340.5 -74zM425 1465q37 0 105 4.5t101 4.5q63 0 175.5 -4.5
t164.5 -4.5q16 0 33.5 4t38.5 14.5t34.5 32.5t13.5 53q0 36 -9 57.5t-29 30.5t-37 11.5t-48 2.5q-47 0 -136 -9t-132 -9q-49 0 -138 4t-131 4q-65 0 -102.5 -23.5t-37.5 -66.5q0 -61 36.5 -83.5t97.5 -22.5z" />
    <glyph glyph-name="Ebreve" unicode="&#x114;" horiz-adv-x="1321" 
d="M198 113q0 -58 32 -85.5t87 -27.5h673q35 0 55.5 1t47.5 7.5t42 19t25.5 35.5t10.5 57q0 101 -141 101q-34 0 -90 -8q-60 -10 -103 -10q-74 0 -209 3t-199 3v599l628 1q58 0 92.5 26.5t34.5 77.5q0 38 -31.5 74t-81.5 36q-46 0 -94 -6q-36 -4 -53 -4q-469 0 -495 1v317
h93q10 0 42 0.5t107 0.5h189q26 -3 67 -3q58 0 89.5 23.5t31.5 93.5q0 58 -24.5 83t-96.5 25q-6 0 -33 -4t-39 -5h-527q-25 0 -38.5 -1t-34 -8t-31 -20t-18.5 -39.5t-8 -64.5l23 -1196l-9 -32q-14 -49 -14 -71zM728 1622q82 0 159.5 32.5t132 100.5t54.5 157q0 45 -28 68
t-67 23q-34 0 -57 -21.5t-29 -60.5q-10 -60 -53.5 -93t-108.5 -33q-68 0 -113.5 33t-55.5 93q-6 38 -29 60t-58 22q-36 0 -64.5 -22t-28.5 -63q0 -68 31 -125.5t81 -94t111 -56.5t123 -20z" />
    <glyph glyph-name="ebreve" unicode="&#x115;" horiz-adv-x="1402" 
d="M357 451q110 25 389.5 83.5t429.5 96.5q48 12 77.5 41t29.5 72q0 66 -39 99q-36 173 -173.5 281t-328.5 108q-133 0 -248.5 -46.5t-199.5 -130t-132 -205.5t-48 -267q0 -83 22.5 -168t70 -165t115 -142t165.5 -99.5t212 -37.5q290 0 498 193q66 60 66 112q0 50 -28 79.5
t-77 29.5q-25 0 -55.5 -22t-50.5 -53q-30 -43 -121.5 -83.5t-230.5 -40.5q-53 0 -103 14t-98 43.5t-85.5 82.5t-56.5 125zM340 636q15 173 121 276.5t274 103.5q105 0 186 -64.5t117 -162.5q-124 -30 -357.5 -79t-340.5 -74zM725 1409q82 0 160.5 35t133.5 105.5t55 158.5
q0 45 -27.5 68t-65.5 23q-31 0 -56.5 -23.5t-34.5 -58.5q-15 -60 -58 -98.5t-103 -38.5q-68 0 -113.5 37.5t-55.5 99.5q-7 39 -30 60.5t-59 21.5q-37 0 -65 -21.5t-28 -62.5q0 -91 54 -163t132 -107.5t161 -35.5z" />
    <glyph glyph-name="Edotaccent" unicode="&#x116;" horiz-adv-x="1321" 
d="M198 113q0 -58 32 -85.5t87 -27.5h673q35 0 55.5 1t47.5 7.5t42 19t25.5 35.5t10.5 57q0 101 -141 101q-34 0 -90 -8q-60 -10 -103 -10q-74 0 -209 3t-199 3v599l628 1q58 0 92.5 26.5t34.5 77.5q0 38 -31.5 74t-81.5 36q-46 0 -94 -6q-36 -4 -53 -4q-469 0 -495 1v317
h93q10 0 42 0.5t107 0.5h189q26 -3 67 -3q58 0 89.5 23.5t31.5 93.5q0 58 -24.5 83t-96.5 25q-6 0 -33 -4t-39 -5h-527q-25 0 -38.5 -1t-34 -8t-31 -20t-18.5 -39.5t-8 -64.5l23 -1196l-9 -32q-14 -49 -14 -71zM700 1668q119 0 119 165q3 19 3 41q0 52 -26.5 83t-82.5 31
q-53 0 -82.5 -35t-29.5 -88q0 -12 -1 -44t-0.5 -47t5.5 -36t16 -35q27 -35 79 -35z" />
    <glyph glyph-name="edotaccent" unicode="&#x117;" horiz-adv-x="1402" 
d="M357 451q110 25 389.5 83.5t429.5 96.5q48 12 77.5 41t29.5 72q0 66 -39 99q-36 173 -173.5 281t-328.5 108q-133 0 -248.5 -46.5t-199.5 -130t-132 -205.5t-48 -267q0 -83 22.5 -168t70 -165t115 -142t165.5 -99.5t212 -37.5q290 0 498 193q66 60 66 112q0 50 -28 79.5
t-77 29.5q-25 0 -55.5 -22t-50.5 -53q-30 -43 -121.5 -83.5t-230.5 -40.5q-53 0 -103 14t-98 43.5t-85.5 82.5t-56.5 125zM340 636q15 173 121 276.5t274 103.5q105 0 186 -64.5t117 -162.5q-124 -30 -357.5 -79t-340.5 -74zM705 1363q53 0 80 24q22 19 29 38t11 67
q7 68 7 77q0 53 -29 83.5t-86 30.5q-45 0 -77 -25q-39 -31 -39 -98q0 -32 1 -83q-2 -53 19 -79q27 -35 84 -35z" />
    <glyph glyph-name="Eogonek" unicode="&#x118;" horiz-adv-x="1321" 
d="M198 113q0 -58 32 -85.5t87 -27.5h379q-95 -85 -95 -212q0 -65 22 -115t55.5 -79t80 -47t89.5 -24.5t90 -6.5q111 0 186 46.5t75 127.5q0 39 -31 71.5t-71 32.5q-28 0 -49 -11.5t-32.5 -25t-34 -25t-52.5 -11.5t-63.5 24t-33.5 64q0 93 55.5 142t132.5 49q35 1 58.5 5.5
t46.5 16t34.5 36.5t11.5 62q0 101 -141 101q-34 0 -90 -8q-60 -10 -103 -10q-74 0 -209 3t-199 3v599l628 1q58 0 92.5 26.5t34.5 77.5q0 38 -31.5 74t-81.5 36q-46 0 -94 -6q-36 -4 -53 -4q-469 0 -495 1v317h93q10 0 42 0.5t107 0.5h189q26 -3 67 -3q58 0 89.5 23.5
t31.5 93.5q0 58 -24.5 83t-96.5 25q-6 0 -33 -4t-39 -5h-527q-25 0 -38.5 -1t-34 -8t-31 -20t-18.5 -39.5t-8 -64.5l23 -1196l-9 -32q-14 -49 -14 -71z" />
    <glyph glyph-name="eogonek" unicode="&#x119;" horiz-adv-x="1402" 
d="M357 451q110 25 389.5 83.5t429.5 96.5q48 12 77.5 41t29.5 72q0 66 -39 99q-36 173 -173.5 281t-328.5 108q-133 0 -248.5 -46.5t-199.5 -130t-132 -205.5t-48 -267q0 -83 22.5 -168t70 -165t115 -142t165.5 -99.5t212 -37.5h11q-71 -98 -71 -189q0 -117 83 -191.5
t191 -74.5q112 0 192.5 44t80.5 124q0 39 -31 71t-71 32q-42 0 -73 -27q-27 -25 -43.5 -33t-48.5 -8q-26 0 -49 23t-23 71q0 108 115 204q127 48 235 147q66 60 66 112q0 50 -28 79.5t-77 29.5q-25 0 -55.5 -22t-50.5 -53q-30 -43 -121.5 -83.5t-230.5 -40.5q-53 0 -103 14
t-98 43.5t-85.5 82.5t-56.5 125zM340 636q15 173 121 276.5t274 103.5q105 0 186 -64.5t117 -162.5q-124 -30 -357.5 -79t-340.5 -74z" />
    <glyph glyph-name="Ecaron" unicode="&#x11a;" horiz-adv-x="1321" 
d="M198 113q0 -58 32 -85.5t87 -27.5h673q35 0 55.5 1t47.5 7.5t42 19t25.5 35.5t10.5 57q0 101 -141 101q-34 0 -90 -8q-60 -10 -103 -10q-74 0 -209 3t-199 3v599l628 1q58 0 92.5 26.5t34.5 77.5q0 38 -31.5 74t-81.5 36q-46 0 -94 -6q-36 -4 -53 -4q-469 0 -495 1v317
h93q10 0 42 0.5t107 0.5h189q26 -3 67 -3q58 0 89.5 23.5t31.5 93.5q0 58 -24.5 83t-96.5 25q-6 0 -33 -4t-39 -5h-527q-25 0 -38.5 -1t-34 -8t-31 -20t-18.5 -39.5t-8 -64.5l23 -1196l-9 -32q-14 -49 -14 -71zM705 1595q25 0 58.5 19.5t55 37.5t64.5 57q81 69 113 87
q51 30 73 53.5t22 61.5q0 41 -32 70t-78 29q-67 0 -94 -36q-76 -73 -183 -145l-185 137q-44 44 -104 44q-46 0 -72.5 -26.5t-26.5 -69.5q0 -36 12.5 -54.5t50.5 -49.5l196 -161q55 -54 130 -54z" />
    <glyph glyph-name="ecaron" unicode="&#x11b;" horiz-adv-x="1402" 
d="M357 451q110 25 389.5 83.5t429.5 96.5q48 12 77.5 41t29.5 72q0 66 -39 99q-36 173 -173.5 281t-328.5 108q-133 0 -248.5 -46.5t-199.5 -130t-132 -205.5t-48 -267q0 -83 22.5 -168t70 -165t115 -142t165.5 -99.5t212 -37.5q290 0 498 193q66 60 66 112q0 50 -28 79.5
t-77 29.5q-25 0 -55.5 -22t-50.5 -53q-30 -43 -121.5 -83.5t-230.5 -40.5q-53 0 -103 14t-98 43.5t-85.5 82.5t-56.5 125zM340 636q15 173 121 276.5t274 103.5q105 0 186 -64.5t117 -162.5q-124 -30 -357.5 -79t-340.5 -74zM706 1431q24 0 45 7.5t31.5 14.5t31.5 24
q163 147 197 164q95 54 95 132q0 41 -32 70t-78 29q-22 0 -51 -10.5t-43 -25.5q-105 -97 -199 -162q-27 23 -96.5 73.5t-102.5 81.5q-47 41 -104 41q-46 0 -72.5 -25.5t-26.5 -67.5q0 -41 16.5 -69t58.5 -63q21 -17 94.5 -71.5t108.5 -87.5q55 -55 127 -55z" />
    <glyph glyph-name="Gcircumflex" unicode="&#x11c;" horiz-adv-x="1681" 
d="M148 756q0 -125 36 -240t109.5 -212.5t176.5 -169.5t245.5 -113t308.5 -41q37 0 124 10t126 10q34 0 54 1.5t45.5 10t39.5 24.5t24 47t11 75q0 381 8 605q0 14 1 39.5t1 38.5q0 47 -33 74.5t-91 27.5q-64 0 -95 -32.5t-31 -69.5q0 -29 5 -78.5t5 -72.5q8 -216 8 -485
q-59 -11 -172 -11q-104 0 -197 17t-183 60.5t-154.5 110t-104 172.5t-39.5 241q0 115 31 211t81.5 159.5t116.5 107t134 63t136 19.5q106 0 228 -16t192 -53q18 -9 43 -9q39 0 67 35.5t28 90.5q0 81 -87 115q-139 55 -421 55q-169 0 -309.5 -51.5t-245.5 -151.5t-163.5 -257
t-58.5 -357zM672 1622q61 0 105 40q86 80 145 115q41 -27 161 -128q17 -13 45.5 -23.5t48.5 -10.5q48 0 78.5 24t30.5 65q0 42 -21 71.5t-73 58.5q-25 13 -71 49t-75 65q-62 62 -121 62q-71 0 -127 -55q-76 -72 -146 -117q-78 -50 -78 -133q0 -34 27 -58.5t71 -24.5z" />
    <glyph glyph-name="gcircumflex" unicode="&#x11d;" horiz-adv-x="1507" 
d="M242 -255q0 -61 80.5 -118t192.5 -89t213 -32q52 0 101.5 5.5t110 22t112 43t102.5 72.5t86 107t57 150t22 197q0 173 4 437q3 201 3 419q0 17 4 46.5t4 43.5q0 53 -23.5 82.5t-86.5 29.5q-76 0 -102 -86q-143 157 -407 157q-128 0 -239 -45.5t-191.5 -126.5t-125.5 -200
t-44 -260q2 -178 77 -321.5t209.5 -225.5t303.5 -82q268 0 392 152q0 -11 1 -32.5t1 -30.5q0 -65 -22.5 -121.5t-60 -96.5t-85 -68.5t-98 -42t-99.5 -13.5q-58 0 -105 10t-85.5 32t-60 39t-55.5 47q-33 27 -82 27q-45 0 -74.5 -39.5t-29.5 -88.5zM338 600q0 184 107.5 307
t281.5 123q97 0 172 -34t120 -94t67.5 -136t22.5 -166q0 -184 -104.5 -299t-292.5 -115q-169 0 -271.5 116.5t-102.5 297.5zM433 1442q62 0 104 42q81 77 198 154q86 -56 200 -162q15 -14 44.5 -25t49.5 -11q47 0 78.5 25t31.5 66q0 74 -94 130q-26 16 -90.5 68t-95.5 82
q-64 61 -120 61q-73 0 -129 -53q-20 -19 -43 -38.5t-41.5 -34t-54 -41.5t-62.5 -48q-44 -35 -59.5 -57.5t-15.5 -63.5q0 -43 26.5 -68.5t72.5 -25.5z" />
    <glyph glyph-name="Gbreve" unicode="&#x11e;" horiz-adv-x="1681" 
d="M148 756q0 -125 36 -240t109.5 -212.5t176.5 -169.5t245.5 -113t308.5 -41q37 0 124 10t126 10q34 0 54 1.5t45.5 10t39.5 24.5t24 47t11 75q0 381 8 605q0 14 1 39.5t1 38.5q0 47 -33 74.5t-91 27.5q-64 0 -95 -32.5t-31 -69.5q0 -29 5 -78.5t5 -72.5q8 -216 8 -485
q-59 -11 -172 -11q-104 0 -197 17t-183 60.5t-154.5 110t-104 172.5t-39.5 241q0 115 31 211t81.5 159.5t116.5 107t134 63t136 19.5q106 0 228 -16t192 -53q18 -9 43 -9q39 0 67 35.5t28 90.5q0 81 -87 115q-139 55 -421 55q-169 0 -309.5 -51.5t-245.5 -151.5t-163.5 -257
t-58.5 -357zM935 1622q82 0 159.5 32.5t132 100.5t54.5 157q0 45 -28 68t-67 23q-34 0 -57 -21.5t-29 -60.5q-10 -60 -53.5 -93t-108.5 -33q-68 0 -113.5 33t-55.5 93q-6 38 -29 60t-58 22q-36 0 -64.5 -22t-28.5 -63q0 -68 31 -125.5t81 -94t111 -56.5t123 -20z" />
    <glyph glyph-name="gbreve" unicode="&#x11f;" horiz-adv-x="1507" 
d="M242 -255q0 -61 80.5 -118t192.5 -89t213 -32q52 0 101.5 5.5t110 22t112 43t102.5 72.5t86 107t57 150t22 197q0 173 4 437q3 201 3 419q0 17 4 46.5t4 43.5q0 53 -23.5 82.5t-86.5 29.5q-76 0 -102 -86q-143 157 -407 157q-128 0 -239 -45.5t-191.5 -126.5t-125.5 -200
t-44 -260q2 -178 77 -321.5t209.5 -225.5t303.5 -82q268 0 392 152q0 -11 1 -32.5t1 -30.5q0 -65 -22.5 -121.5t-60 -96.5t-85 -68.5t-98 -42t-99.5 -13.5q-58 0 -105 10t-85.5 32t-60 39t-55.5 47q-33 27 -82 27q-45 0 -74.5 -39.5t-29.5 -88.5zM338 600q0 184 107.5 307
t281.5 123q97 0 172 -34t120 -94t67.5 -136t22.5 -166q0 -184 -104.5 -299t-292.5 -115q-169 0 -271.5 116.5t-102.5 297.5zM758 1409q82 0 160.5 35t133.5 105.5t55 158.5q0 45 -27.5 68t-65.5 23q-31 0 -56.5 -23.5t-34.5 -58.5q-15 -60 -58 -98.5t-103 -38.5
q-68 0 -113.5 37.5t-55.5 99.5q-7 39 -30 60.5t-59 21.5q-37 0 -65 -21.5t-28 -62.5q0 -91 54 -163t132 -107.5t161 -35.5z" />
    <glyph glyph-name="Gdotaccent" unicode="&#x120;" horiz-adv-x="1681" 
d="M148 756q0 -125 36 -240t109.5 -212.5t176.5 -169.5t245.5 -113t308.5 -41q37 0 124 10t126 10q34 0 54 1.5t45.5 10t39.5 24.5t24 47t11 75q0 381 8 605q0 14 1 39.5t1 38.5q0 47 -33 74.5t-91 27.5q-64 0 -95 -32.5t-31 -69.5q0 -29 5 -78.5t5 -72.5q8 -216 8 -485
q-59 -11 -172 -11q-104 0 -197 17t-183 60.5t-154.5 110t-104 172.5t-39.5 241q0 115 31 211t81.5 159.5t116.5 107t134 63t136 19.5q106 0 228 -16t192 -53q18 -9 43 -9q39 0 67 35.5t28 90.5q0 81 -87 115q-139 55 -421 55q-169 0 -309.5 -51.5t-245.5 -151.5t-163.5 -257
t-58.5 -357zM906 1668q119 0 119 165q3 19 3 41q0 52 -26.5 83t-82.5 31q-53 0 -82.5 -35t-29.5 -88q0 -12 -1 -44t-0.5 -47t5.5 -36t16 -35q27 -35 79 -35z" />
    <glyph glyph-name="gdotaccent" unicode="&#x121;" horiz-adv-x="1507" 
d="M242 -255q0 -61 80.5 -118t192.5 -89t213 -32q52 0 101.5 5.5t110 22t112 43t102.5 72.5t86 107t57 150t22 197q0 173 4 437q3 201 3 419q0 17 4 46.5t4 43.5q0 53 -23.5 82.5t-86.5 29.5q-76 0 -102 -86q-143 157 -407 157q-128 0 -239 -45.5t-191.5 -126.5t-125.5 -200
t-44 -260q2 -178 77 -321.5t209.5 -225.5t303.5 -82q268 0 392 152q0 -11 1 -32.5t1 -30.5q0 -65 -22.5 -121.5t-60 -96.5t-85 -68.5t-98 -42t-99.5 -13.5q-58 0 -105 10t-85.5 32t-60 39t-55.5 47q-33 27 -82 27q-45 0 -74.5 -39.5t-29.5 -88.5zM338 600q0 184 107.5 307
t281.5 123q97 0 172 -34t120 -94t67.5 -136t22.5 -166q0 -184 -104.5 -299t-292.5 -115q-169 0 -271.5 116.5t-102.5 297.5zM737 1363q53 0 80 24q22 19 29 38t11 67q7 68 7 77q0 53 -29 83.5t-86 30.5q-45 0 -77 -25q-39 -31 -39 -98q0 -32 1 -83q-2 -53 19 -79
q27 -35 84 -35z" />
    <glyph glyph-name="uni0122" unicode="&#x122;" horiz-adv-x="1681" 
d="M148 756q0 -125 36 -240t109.5 -212.5t176.5 -169.5t245.5 -113t308.5 -41q37 0 124 10t126 10q34 0 54 1.5t45.5 10t39.5 24.5t24 47t11 75q0 381 8 605q0 14 1 39.5t1 38.5q0 47 -33 74.5t-91 27.5q-64 0 -95 -32.5t-31 -69.5q0 -29 5 -78.5t5 -72.5q8 -216 8 -485
q-59 -11 -172 -11q-104 0 -197 17t-183 60.5t-154.5 110t-104 172.5t-39.5 241q0 115 31 211t81.5 159.5t116.5 107t134 63t136 19.5q106 0 228 -16t192 -53q18 -9 43 -9q39 0 67 35.5t28 90.5q0 81 -87 115q-139 55 -421 55q-169 0 -309.5 -51.5t-245.5 -151.5t-163.5 -257
t-58.5 -357zM882 -216q0 -16 2.5 -42.5t2.5 -38.5q0 -32 -18.5 -56.5t-37 -49.5t-18.5 -58q0 -89 89 -89q79 0 146 85t67 177q0 33 -1.5 54t-7.5 48.5t-18 43t-34 26.5t-54 11q-58 0 -88 -30.5t-30 -80.5z" />
    <glyph glyph-name="uni0123" unicode="&#x123;" horiz-adv-x="1507" 
d="M242 -255q0 -61 80.5 -118t192.5 -89t213 -32q52 0 101.5 5.5t110 22t112 43t102.5 72.5t86 107t57 150t22 197q0 173 4 437q3 201 3 419q0 17 4 46.5t4 43.5q0 53 -23.5 82.5t-86.5 29.5q-76 0 -102 -86q-143 157 -407 157q-128 0 -239 -45.5t-191.5 -126.5t-125.5 -200
t-44 -260q2 -178 77 -321.5t209.5 -225.5t303.5 -82q268 0 392 152q0 -11 1 -32.5t1 -30.5q0 -65 -22.5 -121.5t-60 -96.5t-85 -68.5t-98 -42t-99.5 -13.5q-58 0 -105 10t-85.5 32t-60 39t-55.5 47q-33 27 -82 27q-45 0 -74.5 -39.5t-29.5 -88.5zM338 600q0 184 107.5 307
t281.5 123q97 0 172 -34t120 -94t67.5 -136t22.5 -166q0 -184 -104.5 -299t-292.5 -115q-169 0 -271.5 116.5t-102.5 297.5zM787 1484q0 16 -2.5 42.5t-2.5 38.5q0 32 18.5 56.5t37 49.5t18.5 58q0 89 -89 89q-79 0 -146 -85t-67 -177q0 -33 1.5 -54t7.5 -48.5t18 -43
t34 -26.5t54 -11q58 0 88 30.5t30 80.5z" />
    <glyph glyph-name="Hcircumflex" unicode="&#x124;" horiz-adv-x="1576" 
d="M219 74q0 -55 26.5 -79t102.5 -24q67 0 92.5 26.5t25.5 76.5q0 59 -6 113q-19 177 -24 640q521 12 692 9q0 -101 5 -282.5t5 -270.5q0 -36 -7.5 -105t-7.5 -103q0 -54 30 -79t106 -25q66 0 92.5 27t26.5 77q0 29 -7 67q-23 135 -23 413q0 123 -0.5 318t-0.5 280
q1 50 6 155t5 159q0 38 -22 72.5t-66 34.5q-86 0 -119 -27t-33 -82q0 -20 6 -59t6 -58q0 -243 -1 -295q-43 -1 -142.5 -7t-152.5 -6q-89 0 -400 9v221q0 41 3 105.5t3 91.5q0 42 -24 74.5t-67 32.5q-86 0 -118.5 -27t-32.5 -82q0 -22 7.5 -60.5t7.5 -56.5q13 -1015 13 -1066
q0 -39 -3.5 -107.5t-3.5 -100.5zM568 1622q61 0 105 40q86 80 145 115q41 -27 161 -128q17 -13 45.5 -23.5t48.5 -10.5q48 0 78.5 24t30.5 65q0 42 -21 71.5t-73 58.5q-25 13 -71 49t-75 65q-62 62 -121 62q-71 0 -127 -55q-76 -72 -146 -117q-78 -50 -78 -133
q0 -34 27 -58.5t71 -24.5z" />
    <glyph glyph-name="hcircumflex" unicode="&#x125;" horiz-adv-x="1555" 
d="M205 72q0 -51 22.5 -76t79.5 -25q20 0 140 27q13 3 39.5 8.5t39.5 8.5q35 7 59 38t24 67q0 51 -29 78.5t-82 25.5q-19 -1 -43 -11q-20 -7 -22 -7q-3 324 1 598q71 89 168 150.5t191 61.5q167 0 242.5 -100.5t75.5 -296.5q0 -111 -34.5 -226.5t-87.5 -190.5
q-51 -66 -51 -118t29 -82.5t91 -30.5q37 0 138 26t166 49q36 12 58 39.5t22 64.5q0 19 -7 40.5t-32.5 43t-66.5 21.5q-31 0 -92 -21q42 86 67 190t25 195q0 308 -136.5 460.5t-393.5 152.5q-99 0 -196 -43.5t-173 -110.5l2 51q7 481 7 550q0 47 -26.5 75t-68.5 28
q-23 0 -81 -4q-36 -4 -82 -4q-12 0 -32.5 4t-30.5 4q-41 0 -68 -28.5t-27 -79.5q0 -55 31.5 -82t73.5 -27q15 0 38.5 3t33.5 2q12 -736 12 -1294q0 -50 -9 -129q-5 -42 -5 -75zM658 1585q61 0 105 40q86 80 145 115q41 -27 161 -128q17 -13 45.5 -23.5t48.5 -10.5
q48 0 78.5 24t30.5 65q0 42 -21 71.5t-73 58.5q-25 13 -71 49t-75 65q-62 62 -121 62q-71 0 -127 -55q-76 -72 -146 -117q-78 -50 -78 -133q0 -34 27 -58.5t71 -24.5z" />
    <glyph glyph-name="Hbar" unicode="&#x126;" horiz-adv-x="1576" 
d="M219 91q0 -55 26.5 -79t102.5 -24q67 0 92.5 26.5t25.5 76.5q0 59 -6 113q-17 159 -24 422q521 12 692 9q0 -61 5 -176t5 -159q0 -36 -7.5 -105t-7.5 -103q0 -54 30 -79t106 -25q66 0 92.5 27t26.5 77q0 29 -7 66q-23 138 -23 414q0 119 -0.5 307.5t-0.5 270.5h40
q70 0 92.5 24t22.5 76q0 32 -13 53t-37.5 29.5t-45.5 11t-52 2.5q4 92 4 138q0 38 -22 72.5t-66 34.5q-86 0 -119 -27t-33 -82q0 -21 6 -59.5t6 -57.5v-27q-583 0 -696 1q1 15 3.5 67t2.5 78q0 42 -24 74.5t-67 32.5q-86 0 -118.5 -27t-32.5 -82q0 -23 7.5 -61t7.5 -56v-23
q-42 0 -69.5 -3.5t-54 -13.5t-39 -30.5t-12.5 -52.5q0 -88 102 -88q44 0 56 1h19q11 -811 11 -856q0 -39 -3.5 -107.5t-3.5 -100.5zM434 848v307q494 1 696 0q0 -81 -0.5 -190t-0.5 -113q-40 -1 -141 -6.5t-154 -5.5q-124 0 -400 8z" />
    <glyph glyph-name="hbar" unicode="&#x127;" horiz-adv-x="1555" 
d="M205 72q0 -51 22.5 -76t79.5 -25q20 0 140 27q13 3 39.5 8.5t39.5 8.5q35 7 59 38t24 67q0 51 -29 78.5t-82 25.5q-19 -1 -43 -11q-20 -7 -22 -7q-3 324 1 598q71 89 168 150.5t191 61.5q167 0 242.5 -100.5t75.5 -296.5q0 -111 -34.5 -226.5t-87.5 -190.5
q-51 -66 -51 -118t29 -82.5t91 -30.5q37 0 138 26t166 49q36 12 58 39.5t22 64.5q0 19 -7 40.5t-32.5 43t-66.5 21.5q-31 0 -92 -21q42 86 67 190t25 195q0 308 -136.5 460.5t-393.5 152.5q-99 0 -196 -43.5t-173 -110.5l2 51q0 50 2 142q118 -2 174 -2q50 0 78 18.5
t28 69.5q0 25 -8 43t-17.5 26t-27 12.5t-27 5t-26.5 0.5h-7q-14 0 -37 -5.5t-33 -5.5h-94q2 168 2 246q0 47 -26.5 75t-68.5 28q-23 0 -81 -4q-36 -4 -82 -4q-12 0 -32.5 4t-30.5 4q-41 0 -68 -28.5t-27 -79.5q0 -55 31.5 -82t73.5 -27q15 0 38.5 3t33.5 2q0 -39 2 -135h-68
q-68 0 -100 -7t-41.5 -20.5t-9.5 -42.5q0 -52 18.5 -72t62.5 -18q11 1 140 -1q8 -732 8 -998q0 -50 -9 -129q-5 -42 -5 -75z" />
    <glyph glyph-name="Itilde" unicode="&#x128;" horiz-adv-x="794" 
d="M273 80q0 -55 30.5 -82t106.5 -27q65 0 91 29t26 82q0 23 -5 56v-1q-18 235 -18 832q0 184 4 412q9 54 9 68q0 57 -26 91t-71 34q-153 0 -153 -127q0 -23 6 -61.5t6 -56.5q0 -184 4.5 -530t4.5 -513q0 -38 -7.5 -105.5t-7.5 -100.5zM80 1650q91 0 105 95q4 27 23.5 51
t42.5 24q24 0 59 -30t73.5 -69t59.5 -51q26 -15 69 -26t81 -11q129 0 198 71.5t69 167.5q0 61 -31 91t-78 30q-30 0 -51.5 -9t-33 -26.5t-17 -32.5t-9.5 -36q-5 -23 -24.5 -40t-41.5 -17q-9 0 -17.5 3t-15 6t-16.5 11t-15.5 13t-18 16.5t-18.5 17.5q-28 25 -47 40t-49.5 34
t-64 28t-71.5 9q-111 0 -186.5 -68.5t-75.5 -165.5q0 -59 27 -92.5t74 -33.5z" />
    <glyph glyph-name="itilde" unicode="&#x129;" horiz-adv-x="823" 
d="M311 75q0 -104 115 -104q42 0 208 45q117 36 105 119q-9 42 -27 62t-66 20q-24 0 -57 -12t-53 -13q-3 81 -0.5 394t2.5 366q0 30 7 84.5t7 80.5q0 102 -95 102q-21 0 -70 -3.5t-74 -3.5q-24 0 -73.5 3.5t-75.5 3.5q-41 0 -68.5 -28.5t-27.5 -79.5q0 -55 32 -81.5
t73 -26.5q80 0 147 5q6 -316 6 -729q0 -71 -7.5 -124.5t-7.5 -79.5zM53 1426q24 0 41 7t28 23.5t16 27.5t13 33q8 24 13 34.5t18 22.5t32 12q22 0 58 -27.5t76 -64.5t58 -48q27 -15 70 -26t80 -11q66 0 117.5 22t81 59t44.5 79.5t15 87.5q0 61 -30.5 88.5t-77.5 27.5
q-28 0 -48 -7.5t-31 -23.5t-15.5 -29t-9.5 -34q-4 -18 -8.5 -29.5t-16.5 -21.5t-30 -10q-40 0 -111 66q-28 25 -47 40t-49.5 34t-64 28t-71.5 9q-110 0 -181 -72t-71 -172q0 -59 27 -92t74 -33z" />
    <glyph glyph-name="Imacron" unicode="&#x12a;" horiz-adv-x="794" 
d="M273 80q0 -55 30.5 -82t106.5 -27q65 0 91 29t26 82q0 23 -5 56v-1q-18 235 -18 832q0 184 4 412q9 54 9 68q0 57 -26 91t-71 34q-153 0 -153 -127q0 -23 6 -61.5t6 -56.5q0 -184 4.5 -530t4.5 -513q0 -38 -7.5 -105.5t-7.5 -100.5zM127 1634q118 3 546 0q54 0 87 21.5
t33 81.5q0 67 -32 87t-91 15q-123 -10 -537 -10q-65 0 -102.5 -23t-37.5 -66q0 -110 134 -106z" />
    <glyph glyph-name="imacron" unicode="&#x12b;" horiz-adv-x="823" 
d="M311 75q0 -104 115 -104q42 0 208 45q117 36 105 119q-9 42 -27 62t-66 20q-24 0 -57 -12t-53 -13q-3 81 -0.5 394t2.5 366q0 30 7 84.5t7 80.5q0 102 -95 102q-21 0 -70 -3.5t-74 -3.5q-24 0 -73.5 3.5t-75.5 3.5q-41 0 -68.5 -28.5t-27.5 -79.5q0 -55 32 -81.5
t73 -26.5q80 0 147 5q6 -316 6 -729q0 -71 -7.5 -124.5t-7.5 -79.5zM106 1465q37 0 105 4.5t101 4.5q63 0 175.5 -4.5t164.5 -4.5q16 0 33.5 4t38.5 14.5t34.5 32.5t13.5 53q0 36 -9 57.5t-29 30.5t-37 11.5t-48 2.5q-47 0 -136 -9t-132 -9q-49 0 -138 4t-131 4
q-65 0 -102.5 -23.5t-37.5 -66.5q0 -61 36.5 -83.5t97.5 -22.5z" />
    <glyph glyph-name="Ibreve" unicode="&#x12c;" horiz-adv-x="794" 
d="M273 80q0 -55 30.5 -82t106.5 -27q65 0 91 29t26 82q0 23 -5 56v-1q-18 235 -18 832q0 184 4 412q9 54 9 68q0 57 -26 91t-71 34q-153 0 -153 -127q0 -23 6 -61.5t6 -56.5q0 -184 4.5 -530t4.5 -513q0 -38 -7.5 -105.5t-7.5 -100.5zM435 1622q82 0 159.5 32.5t132 100.5
t54.5 157q0 45 -28 68t-67 23q-34 0 -57 -21.5t-29 -60.5q-10 -60 -53.5 -93t-108.5 -33q-68 0 -113.5 33t-55.5 93q-6 38 -29 60t-58 22q-36 0 -64.5 -22t-28.5 -63q0 -68 31 -125.5t81 -94t111 -56.5t123 -20z" />
    <glyph glyph-name="ibreve" unicode="&#x12d;" horiz-adv-x="823" 
d="M311 75q0 -104 115 -104q42 0 208 45q117 36 105 119q-9 42 -27 62t-66 20q-24 0 -57 -12t-53 -13q-3 81 -0.5 394t2.5 366q0 30 7 84.5t7 80.5q0 102 -95 102q-21 0 -70 -3.5t-74 -3.5q-24 0 -73.5 3.5t-75.5 3.5q-41 0 -68.5 -28.5t-27.5 -79.5q0 -55 32 -81.5
t73 -26.5q80 0 147 5q6 -316 6 -729q0 -71 -7.5 -124.5t-7.5 -79.5zM406 1409q82 0 160.5 35t133.5 105.5t55 158.5q0 45 -27.5 68t-65.5 23q-31 0 -56.5 -23.5t-34.5 -58.5q-15 -60 -58 -98.5t-103 -38.5q-68 0 -113.5 37.5t-55.5 99.5q-7 39 -30 60.5t-59 21.5
q-37 0 -65 -21.5t-28 -62.5q0 -91 54 -163t132 -107.5t161 -35.5z" />
    <glyph glyph-name="Iogonek" unicode="&#x12e;" horiz-adv-x="795" 
d="M27 -190q0 -136 84 -216.5t201 -80.5q113 0 193 44t80 125q0 43 -28 73.5t-73 30.5q-38 0 -84 -34t-83 -34q-26 0 -48 25.5t-22 71.5q0 41 40.5 87.5t104.5 69.5q6 -1 18 -1q65 0 91 29t26 82q0 23 -5 56v-1q-18 235 -18 832q0 184 4 412q9 54 9 68q0 57 -26 91t-71 34
q-153 0 -153 -127q0 -23 6 -61.5t6 -56.5q0 -184 4.5 -530t4.5 -513q0 -25 -2.5 -52t-6 -57.5t-4.5 -47.5q-120 -63 -184 -147t-64 -172z" />
    <glyph glyph-name="iogonek" unicode="&#x12f;" horiz-adv-x="833" 
d="M474 1372q37 10 51 26t27 53q1 3 6 19.5t10 28t11 21.5q30 47 30 87q0 29 -6 52q-17 66 -103 66q-46 0 -75.5 -26t-39.5 -70q-4 -18 -27.5 -71.5t-23.5 -83.5q0 -55 44 -85.5t96 -16.5zM130 -209q0 -68 26.5 -122t70.5 -86.5t97 -49.5t109 -17q113 0 192 43.5t79 124.5
q0 42 -30.5 72.5t-69.5 30.5q-32 0 -80 -34t-86 -34q-19 0 -37.5 5t-36 23.5t-17.5 48.5q0 55 49 111.5t156 85.5q49 11 91 23q117 36 104 119q-8 42 -26 62t-66 20q-25 0 -62.5 -12t-56.5 -13q-3 81 -0.5 394t2.5 366q0 30 7 84.5t7 80.5q0 102 -95 102q-21 0 -70 -3.5
t-74 -3.5q-24 0 -73.5 3.5t-75.5 3.5q-41 0 -68.5 -28.5t-27.5 -79.5q0 -55 32 -81.5t73 -26.5q80 0 147 5q6 -316 6 -729q0 -71 -7.5 -124.5t-7.5 -79.5v-6q-85 -54 -133 -129t-48 -149z" />
    <glyph glyph-name="Idotaccent" unicode="&#x130;" horiz-adv-x="794" 
d="M273 80q0 -55 30.5 -82t106.5 -27q65 0 91 29t26 82q0 23 -5 56v-1q-18 235 -18 832q0 184 4 412q9 54 9 68q0 57 -26 91t-71 34q-153 0 -153 -127q0 -23 6 -61.5t6 -56.5q0 -184 4.5 -530t4.5 -513q0 -38 -7.5 -105.5t-7.5 -100.5zM407 1668q119 0 119 165q3 19 3 41
q0 52 -26.5 83t-82.5 31q-53 0 -82.5 -35t-29.5 -88q0 -12 -1 -44t-0.5 -47t5.5 -36t16 -35q27 -35 79 -35z" />
    <glyph glyph-name="dotlessi" unicode="&#x131;" horiz-adv-x="823" 
d="M311 75q0 -104 115 -104q42 0 208 45q117 36 105 119q-9 42 -27 62t-66 20q-24 0 -57 -12t-53 -13q-3 81 -0.5 394t2.5 366q0 30 7 84.5t7 80.5q0 102 -95 102q-21 0 -70 -3.5t-74 -3.5q-24 0 -73.5 3.5t-75.5 3.5q-41 0 -68.5 -28.5t-27.5 -79.5q0 -55 32 -81.5
t73 -26.5q80 0 147 5q6 -316 6 -729q0 -71 -7.5 -124.5t-7.5 -79.5z" />
    <glyph glyph-name="IJ" unicode="&#x132;" horiz-adv-x="1509" 
d="M219 346q13 -376 504 -376q117 0 210.5 38t152.5 99.5t97.5 145.5t54.5 170t16 179q0 102 -5.5 358t-2.5 393q1 28 1 66q0 70 -23.5 102.5t-87.5 32.5q-123 0 -123 -102q0 -31 11 -138q0 -11 1.5 -59t3 -199t1.5 -412q0 -232 -81 -346.5t-229 -114.5q-255 0 -270 136
q-3 21 6 56.5t9 50.5q0 56 -35 83.5t-84 27.5q-57 0 -96.5 -23t-39.5 -76q0 -17 4.5 -47t4.5 -45zM346 721q67 0 93 26.5t26 76.5q0 33 -12 103.5t-12 222.5q0 113 7 216q5 50 5 91q0 32 -27.5 62.5t-69.5 30.5q-85 0 -118.5 -29.5t-33.5 -85.5q0 -81 10.5 -208.5
t10.5 -200.5q0 -36 -7.5 -103t-7.5 -99q0 -54 30 -78.5t106 -24.5z" />
    <glyph glyph-name="ij" unicode="&#x133;" horiz-adv-x="1595" 
d="M482 1378q24 11 37.5 25t17.5 26.5t9 38.5q12 63 16 72q32 76 26 118q-4 27 -14 51q-28 62 -112 48q-46 -7 -71 -36.5t-28 -75.5q-1 -20 -21 -89.5t-15 -98.5q9 -54 57 -77.5t98 -1.5zM311 75q0 -104 115 -104q42 0 208 45q117 36 105 119q-9 42 -27 62t-66 20
q-24 0 -57 -12t-53 -13q-3 81 -0.5 394t2.5 366q0 30 7 84.5t7 80.5q0 102 -95 102q-21 0 -70 -3.5t-74 -3.5q-24 0 -73.5 3.5t-75.5 3.5q-41 0 -68.5 -28.5t-27.5 -79.5q0 -55 32 -81.5t73 -26.5q80 0 147 5q6 -316 6 -729q0 -71 -7.5 -124.5t-7.5 -79.5zM1278 1378
q24 11 37 25t17 26t10 39q12 63 16 72q31 74 25 118q-4 31 -13 51q-28 63 -112 48q-92 -13 -99 -112q-2 -20 -21.5 -89.5t-15.5 -98.5q9 -55 57.5 -78t98.5 -1zM880 -304q-84 -28 -84 -101q0 -116 118 -116q45 0 102 40q69 27 311 147v-1q63 28 63 118q-10 155 -10 168
q-8 675 -8 1012q0 28 5 77.5t5 73.5q0 103 -104 103q-38 0 -99 -2t-88 -2q-28 -1 -58.5 2t-46.5 3q-41 0 -69 -29t-28 -78q0 -57 32 -82.5t75 -25.5q56 0 148 7q18 -323 18 -957q0 -19 3 -235q-172 -88 -285 -122z" />
    <glyph glyph-name="Jcircumflex" unicode="&#x134;" horiz-adv-x="1466" 
d="M126 447q0 -91 26 -166t71 -125.5t101 -87.5t121 -57.5t125 -30t119 -9.5q118 0 210 34.5t149.5 91t94.5 136.5t52 163.5t15 178.5l-9 512q0 117 1.5 213t1.5 133q0 72 -24.5 106.5t-87.5 34.5q-56 0 -90 -26t-34 -81q0 -57 8.5 -163t8.5 -222v-463q0 -158 -36 -255
t-100 -137.5t-163 -40.5q-141 0 -237 65.5t-96 186.5q0 33 17 94.5t17 92.5q0 57 -31 85t-81 28q-34 0 -60 -14t-41.5 -40t-26 -53.5t-14.5 -64.5t-5.5 -62t-1.5 -57zM806 1622q61 0 105 40q86 80 145 115q41 -27 161 -128q17 -13 45.5 -23.5t48.5 -10.5q48 0 78.5 24
t30.5 65q0 42 -21 71.5t-73 58.5q-25 13 -71 49t-75 65q-62 62 -121 62q-71 0 -127 -55q-76 -72 -146 -117q-78 -50 -78 -133q0 -34 27 -58.5t71 -24.5z" />
    <glyph glyph-name="jcircumflex" unicode="&#x135;" horiz-adv-x="762" 
d="M47 -304q-84 -28 -84 -101q0 -116 118 -116q45 0 102 40q69 27 311 147v-1q63 28 63 118q-10 155 -10 168q-8 675 -8 1012q0 28 5 77.5t5 73.5q0 103 -104 103q-39 0 -100 -2t-87 -2q-28 -1 -58.5 2t-46.5 3q-41 0 -69 -29t-28 -78q0 -57 32 -82.5t75 -25.5q56 0 148 7
q18 -322 18 -957q0 -19 3 -235q-172 -88 -285 -122zM81 1442q62 0 104 42q81 77 198 154q86 -56 200 -162q15 -14 44.5 -25t49.5 -11q47 0 78.5 25t31.5 66q0 74 -94 130q-26 16 -90.5 68t-95.5 82q-64 61 -120 61q-73 0 -129 -53q-20 -19 -43 -38.5t-41.5 -34t-54 -41.5
t-62.5 -48q-44 -35 -59.5 -57.5t-15.5 -63.5q0 -43 26.5 -68.5t72.5 -25.5z" />
    <glyph glyph-name="uni0136" unicode="&#x136;" horiz-adv-x="1415" 
d="M203 93q0 -47 21.5 -76.5t44.5 -37.5t45 -8q126 0 126 101q-2 54 -6 91q-2 216 -2 399v112q191 -50 395 -362q43 -65 68.5 -102t68.5 -89t77 -80t78.5 -49t88.5 -21q30 0 51.5 1.5t48 8.5t43 19.5t28 35t11.5 54.5q0 28 -11 48t-25 29.5t-38.5 15t-38 6t-37.5 0.5
t-50.5 17.5t-57 54t-53.5 70t-59 88.5q-89 138 -207 252t-239 147q51 43 183.5 154t224.5 189t177 154q35 20 55 35.5t38 46t18 68.5q0 55 -32.5 82t-82.5 27q-38 0 -100.5 -46.5t-88.5 -84.5l-533 -504q2 350 2 532q0 46 -34 74.5t-82 28.5q-62 0 -91.5 -30.5t-29.5 -97.5
q5 -753 5 -1353zM593 -216q0 -16 2.5 -42.5t2.5 -38.5q0 -32 -18.5 -56.5t-37 -49.5t-18.5 -58q0 -89 89 -89q79 0 146 85t67 177q0 33 -1.5 54t-7.5 48.5t-18 43t-34 26.5t-54 11q-58 0 -88 -30.5t-30 -80.5z" />
    <glyph glyph-name="uni0137" unicode="&#x137;" horiz-adv-x="1488" 
d="M208 70q0 -51 22.5 -75t79.5 -24q27 0 75.5 12t67.5 14q28 3 44.5 6t41 11t38.5 20t24.5 33.5t10.5 50.5q0 104 -111 104q-10 0 -21 -2.5t-24.5 -7t-19.5 -5.5q-1 62 -1.5 111.5t-1 74t-1 42.5t-0.5 26.5v14.5l-3 129q49 168 170.5 293t253.5 125q104 0 157 -38.5
t53 -128.5q0 -152 -210 -233q-25 5 -46 5q-57 0 -91.5 -28.5t-34.5 -80.5q0 -58 36.5 -82t114.5 -24q21 0 37.5 -10t27 -22t22 -39t17 -44t15.5 -53q12 -42 20 -65.5t24 -61.5t34 -60t44.5 -45t63 -33.5t81.5 -10.5q234 0 234 133q0 52 -29 82.5t-74 30.5q-19 0 -54.5 -9.5
t-53.5 -9.5q-43 0 -80 137q-33 122 -104 182q102 49 170.5 142t68.5 217q0 167 -99.5 262.5t-288.5 95.5q-149 0 -272.5 -76t-206.5 -191q2 206 6 470q0 58 2.5 101t6.5 81.5t5 61.5q0 47 -26.5 75t-68.5 28q-30 0 -83.5 -4t-79.5 -4q-12 0 -32.5 4t-30.5 4q-41 0 -68 -28.5
t-27 -79.5q0 -55 31.5 -82t73.5 -27q44 0 72 5q12 -736 12 -1296q0 -37 -7 -104t-7 -100zM708 -216q0 -16 2.5 -42.5t2.5 -38.5q0 -32 -18.5 -56.5t-37 -49.5t-18.5 -58q0 -89 89 -89q79 0 146 85t67 177q0 33 -1.5 54t-7.5 48.5t-18 43t-34 26.5t-54 11q-58 0 -88 -30.5
t-30 -80.5z" />
    <glyph glyph-name="kgreenlandic" unicode="&#x138;" horiz-adv-x="1475" 
d="M214 70q0 -51 22.5 -75t79.5 -24q27 0 75.5 12t67.5 14q28 3 44.5 6t41 11t38.5 20t24.5 33.5t10.5 50.5q0 104 -111 104q-10 0 -21 -2.5t-24.5 -7t-19.5 -5.5q-1 62 -1.5 111.5t-1 74t-1 42.5t-0.5 26.5v14.5l-3 131q47 166 162.5 287.5t242.5 121.5q209 0 209 -160
q0 -153 -190 -233q-27 5 -46 5q-57 0 -91.5 -28.5t-34.5 -80.5q0 -58 36.5 -82t114.5 -24q21 0 37.5 -10t27 -22t22 -39t17 -44t15.5 -53q12 -42 20 -65.5t24 -61.5t34 -60t44.5 -45t63 -33.5t81.5 -10.5q234 0 234 133q0 52 -29 82.5t-74 30.5q-19 0 -54.5 -9.5t-53.5 -9.5
q-43 0 -80 137q-33 122 -104 182q93 49 156 142t63 217q0 161 -105.5 259.5t-302.5 98.5q-116 0 -230 -63t-196 -161q1 11 3.5 35.5t3.5 38.5q0 47 -26.5 75t-68.5 28q-30 0 -84 -4t-79 -4q-12 0 -32.5 4t-30.5 4q-41 0 -68 -28.5t-27 -79.5q0 -55 31.5 -82t73.5 -27
q44 0 72 5q2 -141 5.5 -280t5 -227t1.5 -192q0 -37 -7 -104t-7 -100z" />
    <glyph glyph-name="Lacute" unicode="&#x139;" horiz-adv-x="1099" 
d="M198 111q0 -64 29 -87.5t85 -23.5h531q28 0 50 2.5t46 10t39.5 20t25.5 34.5t10 52q0 58 -35 88t-100 30q-25 0 -66.5 -5t-49.5 -6q-69 -3 -330 -3q-3 372 0 1073v150q0 72 -25 99t-94 27q-60 0 -86.5 -36t-27.5 -113l15 -1194q0 -22 -8.5 -60.5t-8.5 -57.5zM351 1605
q40 0 69 20t60 56q26 29 35 36q21 20 38.5 37.5t28 27t26.5 22.5q31 25 41 48.5t11 57.5q0 35 -33 67.5t-73 32.5q-58 0 -106 -55q-72 -77 -135 -129q-22 -9 -49.5 -40t-27.5 -62q0 -56 32 -87.5t83 -31.5z" />
    <glyph glyph-name="lacute" unicode="&#x13a;" horiz-adv-x="790" 
d="M254 103q0 -51 30.5 -91.5t89.5 -40.5q39 0 94 17l100 26q59 14 88.5 39.5t29.5 68.5q0 110 -105 110q-27 0 -108 -24v1050q1 26 12.5 77.5t11.5 78.5q0 53 -25.5 80.5t-69.5 27.5q-42 0 -94.5 -4t-89.5 -4q-26 0 -72.5 4t-68.5 4q-40 0 -67.5 -29t-27.5 -79
q0 -55 32 -82t73 -27q30 0 84 4t77 4q13 -772 13 -907q0 -76 -4 -172q-3 -69 -3 -131zM373 1604q40 0 69 20t60 56q26 29 35 36q21 20 38.5 37.5t28 27t26.5 22.5q31 25 41 48.5t11 57.5q0 35 -33 67.5t-73 32.5q-58 0 -106 -55q-72 -77 -135 -129q-22 -9 -49.5 -40
t-27.5 -62q0 -56 32 -87.5t83 -31.5z" />
    <glyph glyph-name="uni013B" unicode="&#x13b;" horiz-adv-x="1099" 
d="M198 111q0 -64 29 -87.5t85 -23.5h531q28 0 50 2.5t46 10t39.5 20t25.5 34.5t10 52q0 58 -35 88t-100 30q-25 0 -66.5 -5t-49.5 -6q-69 -3 -330 -3q-3 372 0 1073v150q0 72 -25 99t-94 27q-60 0 -86.5 -36t-27.5 -113l15 -1194q0 -22 -8.5 -60.5t-8.5 -57.5zM486 -216
q0 -16 2.5 -42.5t2.5 -38.5q0 -32 -18.5 -56.5t-37 -49.5t-18.5 -58q0 -89 89 -89q79 0 146 85t67 177q0 33 -1.5 54t-7.5 48.5t-18 43t-34 26.5t-54 11q-58 0 -88 -30.5t-30 -80.5z" />
    <glyph glyph-name="uni013C" unicode="&#x13c;" horiz-adv-x="790" 
d="M254 103q0 -51 30.5 -91.5t89.5 -40.5q39 0 94 17l100 26q59 14 88.5 39.5t29.5 68.5q0 110 -105 110q-27 0 -108 -24v1311q1 26 12.5 77t11.5 78q0 53 -25.5 80.5t-69.5 27.5q-42 0 -94.5 -4t-89.5 -4q-26 0 -72.5 4t-68.5 4q-40 0 -67.5 -29t-27.5 -79q0 -55 32 -82
t73 -27q30 0 84 4t77 4q13 -772 13 -1167q0 -76 -4 -172q-3 -69 -3 -131zM250 -216q0 -16 2.5 -42.5t2.5 -38.5q0 -32 -18.5 -56.5t-37 -49.5t-18.5 -58q0 -89 89 -89q79 0 146 85t67 177q0 33 -1.5 54t-7.5 48.5t-18 43t-34 26.5t-54 11q-58 0 -88 -30.5t-30 -80.5z" />
    <glyph glyph-name="Lcaron" unicode="&#x13d;" horiz-adv-x="1098" 
d="M197 128q0 -64 29 -87.5t85 -23.5h531q28 0 50 2.5t46 10t39.5 20t25.5 34.5t10 52q0 58 -35 88t-100 30q-25 0 -66.5 -5t-49.5 -6q-69 -3 -330 -3q-3 372 0 1073v150q0 72 -25 99t-94 27q-60 0 -86.5 -36t-27.5 -113l15 -1194q0 -22 -8.5 -60.5t-8.5 -57.5zM756 1136
q43 0 77 38.5t50 80.5q55 156 55 279q0 26 -1.5 44.5t-7.5 42t-16.5 37.5t-31 24.5t-49.5 10.5q-65 0 -91 -30.5t-26 -85.5q0 -19 1 -43t1 -33q0 -101 -11 -138q-9 -29 -24 -50q-28 -39 -28 -81q0 -46 29.5 -71t72.5 -25z" />
    <glyph glyph-name="lcaron" unicode="&#x13e;" horiz-adv-x="825" 
d="M254 120q0 -51 30.5 -91.5t89.5 -40.5q39 0 94 17l100 26q59 14 88.5 39.5t29.5 68.5q0 110 -105 110q-27 0 -108 -24v1311q1 26 12.5 77t11.5 78q0 53 -25.5 80.5t-69.5 27.5q-42 0 -94.5 -4t-89.5 -4q-26 0 -72.5 4t-68.5 4q-40 0 -67.5 -29t-27.5 -79q0 -55 32 -82
t73 -27q30 0 84 4t77 4q13 -772 13 -1167q0 -76 -4 -172q-3 -69 -3 -131zM668 1136q43 0 77 38.5t50 80.5q55 156 55 279q0 26 -1.5 44.5t-7.5 42t-16.5 37.5t-31 24.5t-49.5 10.5q-65 0 -91 -30.5t-26 -85.5q0 -19 1 -43t1 -33q0 -101 -11 -138q-9 -29 -24 -50
q-28 -39 -28 -81q0 -46 29.5 -71t72.5 -25z" />
    <glyph glyph-name="Ldot" unicode="&#x13f;" horiz-adv-x="1117" 
d="M198 111q0 -64 29 -87.5t85 -23.5h531q28 0 50 2.5t46 10t39.5 20t25.5 34.5t10 52q0 58 -35 88t-100 30q-25 0 -66.5 -5t-49.5 -6q-69 -3 -330 -3q-3 372 0 1073v150q0 72 -25 99t-94 27q-60 0 -86.5 -36t-27.5 -113l15 -1194q0 -22 -8.5 -60.5t-8.5 -57.5zM964 953
q39 0 68.5 19.5t44.5 49.5t21.5 58t6.5 52q0 69 -42.5 110.5t-91.5 41.5q-74 0 -111 -47t-37 -127q0 -51 39.5 -104t101.5 -53z" />
    <glyph glyph-name="ldot" unicode="&#x140;" horiz-adv-x="790" 
d="M254 103q0 -51 30.5 -91.5t89.5 -40.5q39 0 94 17l100 26q59 14 88.5 39.5t29.5 68.5q0 110 -105 110q-27 0 -108 -24v1311q1 26 12.5 77t11.5 78q0 53 -25.5 80.5t-69.5 27.5q-42 0 -94.5 -4t-89.5 -4q-26 0 -72.5 4t-68.5 4q-40 0 -67.5 -29t-27.5 -79q0 -55 32 -82
t73 -27q30 0 84 4t77 4q13 -772 13 -1167q0 -76 -4 -172q-3 -69 -3 -131zM783 729q39 0 68.5 19.5t44.5 49.5t21.5 58t6.5 52q0 69 -42.5 110.5t-91.5 41.5q-74 0 -111 -47t-37 -127q0 -51 39.5 -104t101.5 -53z" />
    <glyph glyph-name="Lslash" unicode="&#x141;" horiz-adv-x="1119" 
d="M218 111q0 -64 29 -87.5t85 -23.5h531q28 0 50 2.5t46 10t39.5 20t25.5 34.5t10 52q0 58 -35 88t-100 30q-25 0 -66.5 -5t-49.5 -6q-69 -3 -330 -3q-1 121 -1 498q244 167 338 238q45 38 45 75q0 110 -101 110q-33 0 -61 -22l-221 -151q0 243 1 325v150q0 72 -25 99
t-94 27q-60 0 -86.5 -36t-27.5 -113l7 -604l-167 -114q-39 -34 -39 -70q0 -50 34.5 -88t77.5 -38q25 0 46.5 10.5t29.5 18.5t21 24h1l4 -333q0 -22 -8.5 -60.5t-8.5 -57.5z" />
    <glyph glyph-name="lslash" unicode="&#x142;" horiz-adv-x="791" 
d="M255 138q0 -51 30.5 -91.5t89.5 -40.5q39 0 94 17l100 26q59 14 88.5 39.5t29.5 68.5q0 110 -105 110q-27 0 -108 -24v598q88 80 141 132q55 53 80.5 79.5t47.5 58t22 51.5q-1 57 -39.5 84.5t-66.5 27.5q-39 0 -66 -29q-78 -74 -119 -111v420q1 26 12.5 77t11.5 78
q0 53 -25.5 80.5t-69.5 27.5q-42 0 -94.5 -4t-89.5 -4q-26 0 -72.5 4t-68.5 4q-40 0 -67.5 -29t-27.5 -79q0 -55 32 -82t73 -27q30 0 84 4t77 4q9 -640 9 -664q-151 -133 -242 -225q-26 -26 -26 -63q0 -49 29.5 -87.5t85.5 -38.5q35 0 53.5 12t34.5 38t26 36l42 36
q1 -100 1 -211q0 -76 -4 -172q-3 -69 -3 -131z" />
    <glyph glyph-name="Nacute" unicode="&#x143;" horiz-adv-x="1724" 
d="M203 64q0 -42 34.5 -67.5t86.5 -25.5q70 0 95 35t25 96q0 20 -3 59.5t-3 53.5q0 62 -3.5 343t-5.5 629l60 -94q122 -163 387 -502.5t400 -523.5q14 -43 49 -69.5t88 -26.5q62 0 87 29.5t25 105.5q0 28 -4 77.5t-4 72.5v1147q0 28 -1.5 48t-8 45t-17.5 40.5t-32.5 26.5
t-51.5 11q-65 0 -94.5 -26.5t-29.5 -102.5q0 -24 5 -115.5t10 -328t5 -614.5q-88 130 -405.5 530.5t-399.5 524.5q-12 39 -43.5 79.5t-73.5 40.5q-55 0 -92 -30q-89 -20 -89 -117q0 -31 8 -81q14 -208 14 -714q0 -96 -5 -458l-8 -32q-5 -33 -5 -66zM879 1605q40 0 69 20
t60 56q26 29 35 36q21 20 38.5 37.5t28 27t26.5 22.5q31 25 41 48.5t11 57.5q0 35 -33 67.5t-73 32.5q-58 0 -106 -55q-72 -77 -135 -129q-22 -9 -49.5 -40t-27.5 -62q0 -56 32 -87.5t83 -31.5z" />
    <glyph glyph-name="nacute" unicode="&#x144;" horiz-adv-x="1622" 
d="M283 74q0 -52 22.5 -77.5t79.5 -25.5q16 0 95 22q12 4 49 8q27 3 43.5 6t41 11t38 20t24 33.5t10.5 50.5q0 50 -28 77t-82 27q-12 0 -40 -8l-27 -8q-2 23 -2 96q0 174 4 311q0 62 2 182q77 92 183 154.5t216 62.5q65 0 117 -24t85 -63t54.5 -92t30.5 -107t9 -111
q0 -275 -102 -403q-41 -49 -41 -125q0 -45 25.5 -82.5t70.5 -37.5q16 -1 32.5 2t31 7.5t55 18t78.5 25.5l108 25q81 28 81 114q0 113 -112 102q-24 -3 -79 -19q80 192 80 373q0 294 -130.5 453.5t-381.5 159.5q-224 0 -402 -168q3 30 3 59q0 48 -26.5 75.5t-68.5 27.5
q-24 0 -82 -4q-36 -4 -82 -4q-11 0 -32 4t-31 4q-42 0 -68.5 -28.5t-26.5 -80.5q0 -54 31.5 -81t73.5 -27q44 0 72 5q6 -328 9 -433v-11q3 -147 3 -291q0 -50 -9 -131q-5 -40 -5 -74zM900 1413q54 0 112 53q112 109 213 196l-1 -1q22 8 49.5 38.5t27.5 62.5q0 55 -35 87
t-87 32q-38 0 -64 -17.5t-70 -61.5v1l-108 -106q-39 -33 -62.5 -55t-51 -61t-27.5 -68q0 -36 32 -68t72 -32z" />
    <glyph glyph-name="uni0145" unicode="&#x145;" horiz-adv-x="1724" 
d="M203 64q0 -42 34.5 -67.5t86.5 -25.5q70 0 95 35t25 96q0 20 -3 59.5t-3 53.5q0 62 -3.5 343t-5.5 629l60 -94q122 -163 387 -502.5t400 -523.5q14 -43 49 -69.5t88 -26.5q62 0 87 29.5t25 105.5q0 28 -4 77.5t-4 72.5v1147q0 28 -1.5 48t-8 45t-17.5 40.5t-32.5 26.5
t-51.5 11q-65 0 -94.5 -26.5t-29.5 -102.5q0 -24 5 -115.5t10 -328t5 -614.5q-88 130 -405.5 530.5t-399.5 524.5q-12 39 -43.5 79.5t-73.5 40.5q-55 0 -92 -30q-89 -20 -89 -117q0 -31 8 -81q14 -208 14 -714q0 -96 -5 -458l-8 -32q-5 -33 -5 -66zM761 -216
q0 -16 2.5 -42.5t2.5 -38.5q0 -32 -18.5 -56.5t-37 -49.5t-18.5 -58q0 -89 89 -89q79 0 146 85t67 177q0 33 -1.5 54t-7.5 48.5t-18 43t-34 26.5t-54 11q-58 0 -88 -30.5t-30 -80.5z" />
    <glyph glyph-name="uni0146" unicode="&#x146;" horiz-adv-x="1622" 
d="M283 74q0 -52 22.5 -77.5t79.5 -25.5q16 0 95 22q12 4 49 8q27 3 43.5 6t41 11t38 20t24 33.5t10.5 50.5q0 50 -28 77t-82 27q-12 0 -40 -8l-27 -8q-2 23 -2 96q0 174 4 311q0 62 2 182q77 92 183 154.5t216 62.5q65 0 117 -24t85 -63t54.5 -92t30.5 -107t9 -111
q0 -275 -102 -403q-41 -49 -41 -125q0 -45 25.5 -82.5t70.5 -37.5q16 -1 32.5 2t31 7.5t55 18t78.5 25.5l108 25q81 28 81 114q0 113 -112 102q-24 -3 -79 -19q80 192 80 373q0 294 -130.5 453.5t-381.5 159.5q-224 0 -402 -168q3 30 3 59q0 48 -26.5 75.5t-68.5 27.5
q-24 0 -82 -4q-36 -4 -82 -4q-11 0 -32 4t-31 4q-42 0 -68.5 -28.5t-26.5 -80.5q0 -54 31.5 -81t73.5 -27q44 0 72 5q6 -328 9 -433v-11q3 -147 3 -291q0 -50 -9 -131q-5 -40 -5 -74zM747 -216q0 -16 2.5 -42.5t2.5 -38.5q0 -32 -18.5 -56.5t-37 -49.5t-18.5 -58
q0 -89 89 -89q79 0 146 85t67 177q0 33 -1.5 54t-7.5 48.5t-18 43t-34 26.5t-54 11q-58 0 -88 -30.5t-30 -80.5z" />
    <glyph glyph-name="Ncaron" unicode="&#x147;" horiz-adv-x="1724" 
d="M203 64q0 -42 34.5 -67.5t86.5 -25.5q70 0 95 35t25 96q0 20 -3 59.5t-3 53.5q0 62 -3.5 343t-5.5 629l60 -94q122 -163 387 -502.5t400 -523.5q14 -43 49 -69.5t88 -26.5q62 0 87 29.5t25 105.5q0 28 -4 77.5t-4 72.5v1147q0 28 -1.5 48t-8 45t-17.5 40.5t-32.5 26.5
t-51.5 11q-65 0 -94.5 -26.5t-29.5 -102.5q0 -24 5 -115.5t10 -328t5 -614.5q-88 130 -405.5 530.5t-399.5 524.5q-12 39 -43.5 79.5t-73.5 40.5q-55 0 -92 -30q-89 -20 -89 -117q0 -31 8 -81q14 -208 14 -714q0 -96 -5 -458l-8 -32q-5 -33 -5 -66zM880 1595q25 0 58.5 19.5
t55 37.5t64.5 57q81 69 113 87q51 30 73 53.5t22 61.5q0 41 -32 70t-78 29q-67 0 -94 -36q-76 -73 -183 -145l-185 137q-44 44 -104 44q-46 0 -72.5 -26.5t-26.5 -69.5q0 -36 12.5 -54.5t50.5 -49.5l196 -161q55 -54 130 -54z" />
    <glyph glyph-name="ncaron" unicode="&#x148;" horiz-adv-x="1622" 
d="M283 74q0 -52 22.5 -77.5t79.5 -25.5q16 0 95 22q12 4 49 8q27 3 43.5 6t41 11t38 20t24 33.5t10.5 50.5q0 50 -28 77t-82 27q-12 0 -40 -8l-27 -8q-2 23 -2 96q0 174 4 311q0 62 2 182q77 92 183 154.5t216 62.5q65 0 117 -24t85 -63t54.5 -92t30.5 -107t9 -111
q0 -275 -102 -403q-41 -49 -41 -125q0 -45 25.5 -82.5t70.5 -37.5q16 -1 32.5 2t31 7.5t55 18t78.5 25.5l108 25q81 28 81 114q0 113 -112 102q-24 -3 -79 -19q80 192 80 373q0 294 -130.5 453.5t-381.5 159.5q-224 0 -402 -168q3 30 3 59q0 48 -26.5 75.5t-68.5 27.5
q-24 0 -82 -4q-36 -4 -82 -4q-11 0 -32 4t-31 4q-42 0 -68.5 -28.5t-26.5 -80.5q0 -54 31.5 -81t73.5 -27q44 0 72 5q6 -328 9 -433v-11q3 -147 3 -291q0 -50 -9 -131q-5 -40 -5 -74zM945 1431q24 0 45 7.5t31.5 14.5t31.5 24q163 147 197 164q95 54 95 132q0 41 -32 70
t-78 29q-22 0 -51 -10.5t-43 -25.5q-105 -97 -199 -162q-27 23 -96.5 73.5t-102.5 81.5q-47 41 -104 41q-46 0 -72.5 -25.5t-26.5 -67.5q0 -41 16.5 -69t58.5 -63q21 -17 94.5 -71.5t108.5 -87.5q55 -55 127 -55z" />
    <glyph glyph-name="Eng" unicode="&#x14a;" horiz-adv-x="1856" 
d="M262 72q0 -42 34.5 -67.5t86.5 -25.5q70 0 95 35t25 96q0 22 -1 31q-12 152 -9 1032q800 -1076 868 -1140v-163q0 -47 -8.5 -79.5t-20 -49t-32 -25t-34.5 -10t-39 -1.5t-68 31t-70 31q-56 0 -85.5 -40t-29.5 -85q0 -50 51.5 -88.5t110 -54.5t101.5 -16q156 0 250 109
t94 265q0 29 -2 63q0 228 -1.5 681t-1.5 679v122q0 28 -1.5 48t-8 45t-17.5 40.5t-32.5 26.5t-51.5 11q-65 0 -94.5 -26.5t-29.5 -102.5l22 -1033q-124 174 -416.5 539t-390.5 498q-12 39 -43.5 79.5t-72.5 40.5q-57 0 -93 -31q-89 -19 -89 -116q0 -31 8 -81
q14 -208 14 -720q0 -305 -11 -451q0 -2 -3.5 -37t-3.5 -60z" />
    <glyph glyph-name="eng" unicode="&#x14b;" horiz-adv-x="1630" 
d="M283 64q0 -51 22.5 -75.5t79.5 -24.5q28 0 83 16q25 7 61 11q27 3 43.5 6t41 11t38.5 20t24.5 33.5t10.5 50.5q0 50 -28 77t-82 27q-15 0 -68 -15q-2 420 4 620q63 81 182 144t245 63q66 0 115 -22.5t78.5 -59.5t47 -92t24 -110.5t6.5 -125.5l5 -811q0 -45 -33 -71.5
t-80 -26.5q-42 0 -90 35q-39 27 -66 27q-55 0 -84 -40t-29 -85q0 -50 41.5 -87t99 -53.5t118.5 -16.5q130 0 230.5 87t107.5 215l-2 828q0 141 -29 253t-87 194.5t-152 127t-218 44.5q-118 0 -227 -44.5t-193 -113.5q3 35 2 43q0 48 -26.5 75.5t-68.5 27.5q-31 0 -84.5 -4
t-78.5 -4q-11 0 -32.5 4t-31.5 4q-41 0 -68 -28.5t-27 -80.5q0 -54 31.5 -81t73.5 -27q50 0 78 5q6 -272 6 -746q0 -52 -9 -129q-5 -42 -5 -75z" />
    <glyph glyph-name="Omacron" unicode="&#x14c;" horiz-adv-x="1684" 
d="M144 773q0 -225 85 -407t245 -288.5t368 -106.5t368.5 107t245 288.5t84.5 406.5q0 239 -78.5 418t-235.5 281t-376 102q-210 0 -370.5 -101t-248 -283t-87.5 -417zM372 773q0 272 125 433.5t348 161.5q93 0 170.5 -31.5t131.5 -86t91.5 -130t55 -163t17.5 -184.5
q0 -115 -29 -220.5t-85 -190.5t-147 -136t-205 -51q-109 0 -200 51t-150 135.5t-91 191t-32 220.5zM578 1634q118 3 546 0q54 0 87 21.5t33 81.5q0 67 -32 87t-91 15q-123 -10 -537 -10q-65 0 -102.5 -23t-37.5 -66q0 -110 134 -106z" />
    <glyph glyph-name="omacron" unicode="&#x14d;" horiz-adv-x="1460" 
d="M109 603q0 -139 49.5 -258.5t134.5 -200.5t198 -127t239 -46q168 0 309 77.5t226.5 223.5t85.5 331q0 174 -76 316.5t-219 227.5t-326 85q-169 0 -312 -84.5t-226 -229t-83 -315.5zM340 603q0 176 105 294.5t284 118.5q180 0 286 -119t106 -294q0 -196 -112 -306.5
t-280 -110.5q-179 0 -284 113t-105 304zM453 1465q37 0 105 4.5t101 4.5q63 0 175.5 -4.5t164.5 -4.5q16 0 33.5 4t38.5 14.5t34.5 32.5t13.5 53q0 36 -9 57.5t-29 30.5t-37 11.5t-48 2.5q-47 0 -136 -9t-132 -9q-49 0 -138 4t-131 4q-65 0 -102.5 -23.5t-37.5 -66.5
q0 -61 36.5 -83.5t97.5 -22.5z" />
    <glyph glyph-name="Obreve" unicode="&#x14e;" horiz-adv-x="1684" 
d="M144 773q0 -225 85 -407t245 -288.5t368 -106.5t368.5 107t245 288.5t84.5 406.5q0 239 -78.5 418t-235.5 281t-376 102q-210 0 -370.5 -101t-248 -283t-87.5 -417zM372 773q0 272 125 433.5t348 161.5q93 0 170.5 -31.5t131.5 -86t91.5 -130t55 -163t17.5 -184.5
q0 -115 -29 -220.5t-85 -190.5t-147 -136t-205 -51q-109 0 -200 51t-150 135.5t-91 191t-32 220.5zM886 1622q82 0 159.5 32.5t132 100.5t54.5 157q0 45 -28 68t-67 23q-34 0 -57 -21.5t-29 -60.5q-10 -60 -53.5 -93t-108.5 -33q-68 0 -113.5 33t-55.5 93q-6 38 -29 60
t-58 22q-36 0 -64.5 -22t-28.5 -63q0 -68 31 -125.5t81 -94t111 -56.5t123 -20z" />
    <glyph glyph-name="obreve" unicode="&#x14f;" horiz-adv-x="1460" 
d="M109 603q0 -139 49.5 -258.5t134.5 -200.5t198 -127t239 -46q168 0 309 77.5t226.5 223.5t85.5 331q0 174 -76 316.5t-219 227.5t-326 85q-169 0 -312 -84.5t-226 -229t-83 -315.5zM340 603q0 176 105 294.5t284 118.5q180 0 286 -119t106 -294q0 -196 -112 -306.5
t-280 -110.5q-179 0 -284 113t-105 304zM753 1409q82 0 160.5 35t133.5 105.5t55 158.5q0 45 -27.5 68t-65.5 23q-31 0 -56.5 -23.5t-34.5 -58.5q-15 -60 -58 -98.5t-103 -38.5q-68 0 -113.5 37.5t-55.5 99.5q-7 39 -30 60.5t-59 21.5q-37 0 -65 -21.5t-28 -62.5
q0 -91 54 -163t132 -107.5t161 -35.5z" />
    <glyph glyph-name="Ohungarumlaut" unicode="&#x150;" horiz-adv-x="1684" 
d="M144 773q0 -225 85 -407t245 -288.5t368 -106.5t368.5 107t245 288.5t84.5 406.5q0 239 -78.5 418t-235.5 281t-376 102q-210 0 -370.5 -101t-248 -283t-87.5 -417zM372 773q0 272 125 433.5t348 161.5q93 0 170.5 -31.5t131.5 -86t91.5 -130t55 -163t17.5 -184.5
q0 -115 -29 -220.5t-85 -190.5t-147 -136t-205 -51q-109 0 -200 51t-150 135.5t-91 191t-32 220.5zM1074 1595q23 0 60 23.5t62 46t68 62.5q66 61 92 81q28 23 39 33.5t22 31t11 44.5q0 93 -100 93q-28 0 -58 -23.5t-75 -73.5l-107 -98q-46 -44 -70 -74t-24 -56
q0 -90 80 -90zM635 1587q53 1 178 126q23 23 61.5 57t53.5 49q17 17 25 26t17 29t8 42q-1 92 -104 90q-27 -1 -56.5 -26.5t-73.5 -77.5l-115 -112q-55 -55 -66 -74q-13 -21 -12 -43q2 -89 84 -86z" />
    <glyph glyph-name="ohungarumlaut" unicode="&#x151;" horiz-adv-x="1460" 
d="M109 603q0 -139 49.5 -258.5t134.5 -200.5t198 -127t239 -46q168 0 309 77.5t226.5 223.5t85.5 331q0 174 -76 316.5t-219 227.5t-326 85q-169 0 -312 -84.5t-226 -229t-83 -315.5zM340 603q0 176 105 294.5t284 118.5q180 0 286 -119t106 -294q0 -196 -112 -306.5
t-280 -110.5q-179 0 -284 113t-105 304zM929 1397q66 0 316 250q66 57 66 110q0 42 -26.5 65.5t-73.5 23.5q-28 0 -59 -23.5t-75 -73.5l-144 -132q-46 -43 -68.5 -72.5t-22.5 -57.5q0 -90 87 -90zM468 1394q40 0 111 60t211 198q56 52 56 105q0 85 -102 85q-28 0 -58.5 -25
t-72.5 -76l-143 -132q-45 -42 -67.5 -71t-22.5 -56q0 -88 88 -88z" />
    <glyph glyph-name="OE" unicode="&#x152;" horiz-adv-x="2438" 
d="M144 773q0 -225 85 -407t245 -288.5t368 -106.5q294 0 486 206q-12 -40 -12 -64q0 -58 32 -85.5t87 -27.5h673q35 0 55.5 1t47.5 7.5t42 19t25.5 35.5t10.5 57q0 101 -141 101q-34 0 -90 -8q-60 -10 -103 -10q-74 0 -209 3t-199 3v599l628 1q58 0 92.5 26.5t34.5 77.5
q0 38 -31.5 74t-81.5 36q-46 0 -94 -6q-36 -4 -53 -4q-469 0 -495 1v317h93q10 0 42 0.5t107 0.5h189q26 -3 67 -3q58 0 89.5 23.5t31.5 93.5q0 58 -24.5 83t-96.5 25q-6 0 -33 -4t-39 -5h-527q-25 0 -38.5 -1t-34 -8t-31 -20t-18.5 -39.5t-8 -64.5v-11q-179 173 -466 173
q-210 0 -370.5 -101t-248 -283t-87.5 -417zM372 773q0 272 125 433.5t348 161.5q93 0 170.5 -31.5t131.5 -86t91.5 -130t55 -163t17.5 -184.5q0 -115 -29 -220.5t-85 -190.5t-147 -136t-205 -51q-109 0 -200 51t-150 135.5t-91 191t-32 220.5z" />
    <glyph glyph-name="oe" unicode="&#x153;" horiz-adv-x="2377" 
d="M119 600q0 -185 82.5 -329.5t220.5 -221t307 -76.5q135 0 269.5 72.5t220.5 180.5q66 -115 179.5 -185.5t265.5 -70.5q51 0 109.5 9t129.5 32t132.5 57.5t114.5 92t78 128.5q3 9 3 22q0 34 -29.5 69.5t-73.5 35.5q-27 0 -55 -16.5t-46 -45.5q-23 -36 -50 -63t-67.5 -51.5
t-99.5 -37.5t-133 -13q-41 0 -79.5 8.5t-77 29.5t-69.5 53t-56.5 82t-38.5 114q133 28 397.5 71.5t396.5 72.5q108 26 108 111q0 39 -35 84q-35 179 -171.5 296t-331.5 117q-160 0 -284 -70.5t-206 -202.5q-77 130 -205 202t-296 72q-169 0 -309.5 -84.5t-220.5 -229
t-80 -315.5zM344 600q0 176 104.5 296t284.5 120q175 0 277.5 -120t102.5 -296q0 -196 -107.5 -302.5t-272.5 -106.5q-180 0 -284.5 109.5t-104.5 299.5zM1348 669q17 169 110.5 257t255.5 88q109 0 182.5 -55.5t109.5 -152.5q-114 -26 -333.5 -69.5t-324.5 -67.5z" />
    <glyph glyph-name="Racute" unicode="&#x154;" horiz-adv-x="1572" 
d="M205 111q0 -61 39 -100.5t98 -39.5q45 0 82.5 28t37.5 80q0 32 -10.5 93t-11.5 90v146q71 0 149 -2q36 -1 148 -1q12 -55 32 -109t56.5 -115t83 -106t116 -74.5t150.5 -29.5q150 0 245.5 63.5t95.5 151.5q0 47 -30.5 76.5t-83.5 29.5q-49 0 -85 -51q-38 -59 -124 -59
q-98 0 -161 74.5t-81 188.5q55 22 107 56t103 87.5t89 118t61.5 152.5t23.5 186q0 262 -175 389t-488 127q-33 0 -94.5 -5t-91.5 -5q-38 0 -97 5t-85 5q-50 0 -78 -35t-28 -81q0 -48 14 -86q-1 -337 -1 -1166q-6 -48 -6 -82zM439 623q-9 211 -9 469q0 156 4 258q34 0 107 2
t110 2q41 0 71.5 -1t80 -7.5t86.5 -18t78.5 -33.5t68.5 -53t45 -79t18 -108q0 -59 -8 -110t-26.5 -102t-52 -90.5t-81 -70.5t-117.5 -47.5t-158 -16.5q-77 0 -217 6zM908 431l-1 -1q0 1 1 1zM907 430h-1h1zM739 1605q40 0 69 20t60 56q26 29 35 36q21 20 38.5 37.5t28 27
t26.5 22.5q31 25 41 48.5t11 57.5q0 35 -33 67.5t-73 32.5q-58 0 -106 -55q-72 -77 -135 -129q-22 -9 -49.5 -40t-27.5 -62q0 -56 32 -87.5t83 -31.5z" />
    <glyph glyph-name="racute" unicode="&#x155;" horiz-adv-x="1252" 
d="M214 89q0 -55 34 -86.5t83 -31.5q41 0 135 18q83 16 94 17q41 3 69 38.5t28 81.5q0 48 -30.5 75.5t-72.5 30.5q-26 -2 -79 -20l-30 -9v653q108 24 178 40q110 23 250 56q0 -24 -1.5 -93.5t-1.5 -104.5q0 -47 26 -81t80 -34q50 0 88 19.5t38 63.5q0 49 -3 88
q-13 182 -6 251q0 12 2 36t2 35q0 43 -33 71.5t-87 28.5q-66 0 -98 -56q-192 -62 -429 -120q8 46 8 69q0 43 -29.5 75t-82.5 32q-65 0 -103 -28.5t-38 -80.5q0 -21 6 -59.5t6 -56.5v-771q0 -17 -1.5 -68.5t-1.5 -78.5zM488 1413q54 0 112 53q112 109 213 196l-1 -1
q22 8 49.5 38.5t27.5 62.5q0 55 -35 87t-87 32q-38 0 -64 -17.5t-70 -61.5v1l-108 -106q-39 -33 -62.5 -55t-51 -61t-27.5 -68q0 -36 32 -68t72 -32z" />
    <glyph glyph-name="uni0156" unicode="&#x156;" horiz-adv-x="1572" 
d="M205 111q0 -61 39 -100.5t98 -39.5q45 0 82.5 28t37.5 80q0 32 -10.5 93t-11.5 90v146q71 0 149 -2q36 -1 148 -1q12 -55 32 -109t56.5 -115t83 -106t116 -74.5t150.5 -29.5q150 0 245.5 63.5t95.5 151.5q0 47 -30.5 76.5t-83.5 29.5q-49 0 -85 -51q-38 -59 -124 -59
q-98 0 -161 74.5t-81 188.5q55 22 107 56t103 87.5t89 118t61.5 152.5t23.5 186q0 262 -175 389t-488 127q-33 0 -94.5 -5t-91.5 -5q-38 0 -97 5t-85 5q-50 0 -78 -35t-28 -81q0 -48 14 -86q-1 -337 -1 -1166q-6 -48 -6 -82zM439 623q-9 211 -9 469q0 156 4 258q34 0 107 2
t110 2q41 0 71.5 -1t80 -7.5t86.5 -18t78.5 -33.5t68.5 -53t45 -79t18 -108q0 -59 -8 -110t-26.5 -102t-52 -90.5t-81 -70.5t-117.5 -47.5t-158 -16.5q-77 0 -217 6zM908 431l-1 -1q0 1 1 1zM907 430h-1h1zM597 -216q0 -16 2.5 -42.5t2.5 -38.5q0 -32 -18.5 -56.5t-37 -49.5
t-18.5 -58q0 -89 89 -89q79 0 146 85t67 177q0 33 -1.5 54t-7.5 48.5t-18 43t-34 26.5t-54 11q-58 0 -88 -30.5t-30 -80.5z" />
    <glyph glyph-name="uni0157" unicode="&#x157;" horiz-adv-x="1252" 
d="M214 89q0 -55 34 -86.5t83 -31.5q41 0 135 18q83 16 94 17q41 3 69 38.5t28 81.5q0 48 -30.5 75.5t-72.5 30.5q-26 -2 -79 -20l-30 -9v653q108 24 178 40q110 23 250 56q0 -24 -1.5 -93.5t-1.5 -104.5q0 -47 26 -81t80 -34q50 0 88 19.5t38 63.5q0 49 -3 88
q-13 182 -6 251q0 12 2 36t2 35q0 43 -33 71.5t-87 28.5q-66 0 -98 -56q-192 -62 -429 -120q8 46 8 69q0 43 -29.5 75t-82.5 32q-65 0 -103 -28.5t-38 -80.5q0 -21 6 -59.5t6 -56.5v-771q0 -17 -1.5 -68.5t-1.5 -78.5zM216 -216q0 -16 2.5 -42.5t2.5 -38.5
q0 -32 -18.5 -56.5t-37 -49.5t-18.5 -58q0 -89 89 -89q79 0 146 85t67 177q0 33 -1.5 54t-7.5 48.5t-18 43t-34 26.5t-54 11q-58 0 -88 -30.5t-30 -80.5z" />
    <glyph glyph-name="Rcaron" unicode="&#x158;" horiz-adv-x="1572" 
d="M205 111q0 -61 39 -100.5t98 -39.5q45 0 82.5 28t37.5 80q0 32 -10.5 93t-11.5 90v146q71 0 149 -2q36 -1 148 -1q12 -55 32 -109t56.5 -115t83 -106t116 -74.5t150.5 -29.5q150 0 245.5 63.5t95.5 151.5q0 47 -30.5 76.5t-83.5 29.5q-49 0 -85 -51q-38 -59 -124 -59
q-98 0 -161 74.5t-81 188.5q55 22 107 56t103 87.5t89 118t61.5 152.5t23.5 186q0 262 -175 389t-488 127q-33 0 -94.5 -5t-91.5 -5q-38 0 -97 5t-85 5q-50 0 -78 -35t-28 -81q0 -48 14 -86q-1 -337 -1 -1166q-6 -48 -6 -82zM439 623q-9 211 -9 469q0 156 4 258q34 0 107 2
t110 2q41 0 71.5 -1t80 -7.5t86.5 -18t78.5 -33.5t68.5 -53t45 -79t18 -108q0 -59 -8 -110t-26.5 -102t-52 -90.5t-81 -70.5t-117.5 -47.5t-158 -16.5q-77 0 -217 6zM908 431l-1 -1q0 1 1 1zM907 430h-1h1zM741 1595q25 0 58.5 19.5t55 37.5t64.5 57q81 69 113 87
q51 30 73 53.5t22 61.5q0 41 -32 70t-78 29q-67 0 -94 -36q-76 -73 -183 -145l-185 137q-44 44 -104 44q-46 0 -72.5 -26.5t-26.5 -69.5q0 -36 12.5 -54.5t50.5 -49.5l196 -161q55 -54 130 -54z" />
    <glyph glyph-name="rcaron" unicode="&#x159;" horiz-adv-x="1252" 
d="M214 89q0 -55 34 -86.5t83 -31.5q41 0 135 18q83 16 94 17q41 3 69 38.5t28 81.5q0 48 -30.5 75.5t-72.5 30.5q-26 -2 -79 -20l-30 -9v653q108 24 178 40q110 23 250 56q0 -24 -1.5 -93.5t-1.5 -104.5q0 -47 26 -81t80 -34q50 0 88 19.5t38 63.5q0 49 -3 88
q-13 182 -6 251q0 12 2 36t2 35q0 43 -33 71.5t-87 28.5q-66 0 -98 -56q-192 -62 -429 -120q8 46 8 69q0 43 -29.5 75t-82.5 32q-65 0 -103 -28.5t-38 -80.5q0 -21 6 -59.5t6 -56.5v-771q0 -17 -1.5 -68.5t-1.5 -78.5zM533 1431q24 0 45 7.5t31.5 14.5t31.5 24
q163 147 197 164q95 54 95 132q0 41 -32 70t-78 29q-22 0 -51 -10.5t-43 -25.5q-105 -97 -199 -162q-27 23 -96.5 73.5t-102.5 81.5q-47 41 -104 41q-46 0 -72.5 -25.5t-26.5 -67.5q0 -41 16.5 -69t58.5 -63q21 -17 94.5 -71.5t108.5 -87.5q55 -55 127 -55z" />
    <glyph glyph-name="Sacute" unicode="&#x15a;" 
d="M154 359q-2 -82 31 -149.5t88 -111t126 -73.5t141 -42.5t138 -12.5q79 0 152 13.5t143 45.5t121 79.5t82.5 121t31.5 164.5q0 60 -16 115t-41.5 98t-65 84.5t-78.5 72t-91 63t-92.5 54t-92.5 48.5q-3 2 -5 2.5t-4.5 2t-4.5 2.5q-33 17 -40.5 21t-38.5 21t-41.5 24.5
t-36 25t-36 29.5t-27.5 31.5t-24 36.5t-13 39t-6 45q0 56 36.5 95t87.5 54.5t111 15.5q167 0 216 -81q4 -43 33 -74.5t87 -31.5q46 0 80 31t30 84q-8 74 -46 128t-99.5 84.5t-133 45t-155.5 14.5q-93 0 -176 -22t-150.5 -65t-107.5 -115t-40 -164q0 -62 13.5 -116t34 -94
t55 -77t67 -61.5t80.5 -52t84.5 -44.5t89.5 -42.5t86 -42.5q245 -128 245 -276q0 -55 -18 -97.5t-46.5 -67.5t-69.5 -41t-81.5 -21.5t-86.5 -5.5q-110 0 -197 44t-94 110q-2 20 3 56t5 50q0 44 -31.5 70t-77.5 26q-69 0 -98.5 -40.5t-35.5 -125.5zM726 1605q40 0 69 20
t60 56q26 29 35 36q21 20 38.5 37.5t28 27t26.5 22.5q31 25 41 48.5t11 57.5q0 35 -33 67.5t-73 32.5q-58 0 -106 -55q-72 -77 -135 -129q-22 -9 -49.5 -40t-27.5 -62q0 -56 32 -87.5t83 -31.5z" />
    <glyph glyph-name="sacute" unicode="&#x15b;" horiz-adv-x="1249" 
d="M122 259q0 -44 42 -95t110.5 -93.5t166 -71t197.5 -28.5q67 0 128.5 8t130.5 31.5t119 61t83 103t33 151.5q0 75 -30 134.5t-68 96t-111 70t-120.5 48t-133.5 38.5q-59 16 -93 26.5t-79 28.5t-68.5 35t-41 43t-17.5 57q0 61 66.5 98.5t170.5 37.5q159 0 270 -93
q13 -34 44.5 -58.5t70.5 -24.5q47 0 75 21.5t28 66.5q0 31 -9 52q0 34 3 89.5t3 79.5q0 46 -26 66t-77 20q-37 0 -62.5 -26t-34.5 -61q-50 20 -82.5 31t-85 20.5t-110.5 9.5q-85 0 -164 -18.5t-148.5 -55.5t-111.5 -102.5t-42 -151.5q0 -56 15 -103.5t38 -82t62 -64.5
t73 -49t87 -38t89.5 -29t92.5 -24q48 -12 77 -20.5t70 -22t65.5 -28t49 -34t35.5 -44t11 -54.5q0 -65 -72.5 -102.5t-179.5 -37.5q-235 0 -318 125q-17 24 -26.5 35t-30.5 21t-50 10q-41 0 -77.5 -30t-36.5 -73zM585 1413q54 0 112 53q112 109 213 196l-1 -1q22 8 49.5 38.5
t27.5 62.5q0 55 -35 87t-87 32q-38 0 -64 -17.5t-70 -61.5v1l-108 -106q-39 -33 -62.5 -55t-51 -61t-27.5 -68q0 -36 32 -68t72 -32z" />
    <glyph glyph-name="Scircumflex" unicode="&#x15c;" 
d="M154 359q-2 -82 31 -149.5t88 -111t126 -73.5t141 -42.5t138 -12.5q79 0 152 13.5t143 45.5t121 79.5t82.5 121t31.5 164.5q0 60 -16 115t-41.5 98t-65 84.5t-78.5 72t-91 63t-92.5 54t-92.5 48.5q-3 2 -5 2.5t-4.5 2t-4.5 2.5q-33 17 -40.5 21t-38.5 21t-41.5 24.5
t-36 25t-36 29.5t-27.5 31.5t-24 36.5t-13 39t-6 45q0 56 36.5 95t87.5 54.5t111 15.5q167 0 216 -81q4 -43 33 -74.5t87 -31.5q46 0 80 31t30 84q-8 74 -46 128t-99.5 84.5t-133 45t-155.5 14.5q-93 0 -176 -22t-150.5 -65t-107.5 -115t-40 -164q0 -62 13.5 -116t34 -94
t55 -77t67 -61.5t80.5 -52t84.5 -44.5t89.5 -42.5t86 -42.5q245 -128 245 -276q0 -55 -18 -97.5t-46.5 -67.5t-69.5 -41t-81.5 -21.5t-86.5 -5.5q-110 0 -197 44t-94 110q-2 20 3 56t5 50q0 44 -31.5 70t-77.5 26q-69 0 -98.5 -40.5t-35.5 -125.5zM488 1622q61 0 105 40
q86 80 145 115q41 -27 161 -128q17 -13 45.5 -23.5t48.5 -10.5q48 0 78.5 24t30.5 65q0 42 -21 71.5t-73 58.5q-25 13 -71 49t-75 65q-62 62 -121 62q-71 0 -127 -55q-76 -72 -146 -117q-78 -50 -78 -133q0 -34 27 -58.5t71 -24.5z" />
    <glyph glyph-name="scircumflex" unicode="&#x15d;" horiz-adv-x="1249" 
d="M122 259q0 -44 42 -95t110.5 -93.5t166 -71t197.5 -28.5q67 0 128.5 8t130.5 31.5t119 61t83 103t33 151.5q0 75 -30 134.5t-68 96t-111 70t-120.5 48t-133.5 38.5q-59 16 -93 26.5t-79 28.5t-68.5 35t-41 43t-17.5 57q0 61 66.5 98.5t170.5 37.5q159 0 270 -93
q13 -34 44.5 -58.5t70.5 -24.5q47 0 75 21.5t28 66.5q0 31 -9 52q0 34 3 89.5t3 79.5q0 46 -26 66t-77 20q-37 0 -62.5 -26t-34.5 -61q-50 20 -82.5 31t-85 20.5t-110.5 9.5q-85 0 -164 -18.5t-148.5 -55.5t-111.5 -102.5t-42 -151.5q0 -56 15 -103.5t38 -82t62 -64.5
t73 -49t87 -38t89.5 -29t92.5 -24q48 -12 77 -20.5t70 -22t65.5 -28t49 -34t35.5 -44t11 -54.5q0 -65 -72.5 -102.5t-179.5 -37.5q-235 0 -318 125q-17 24 -26.5 35t-30.5 21t-50 10q-41 0 -77.5 -30t-36.5 -73zM324 1442q62 0 104 42q81 77 198 154q86 -56 200 -162
q15 -14 44.5 -25t49.5 -11q47 0 78.5 25t31.5 66q0 74 -94 130q-26 16 -90.5 68t-95.5 82q-64 61 -120 61q-73 0 -129 -53q-20 -19 -43 -38.5t-41.5 -34t-54 -41.5t-62.5 -48q-44 -35 -59.5 -57.5t-15.5 -63.5q0 -43 26.5 -68.5t72.5 -25.5z" />
    <glyph glyph-name="Scedilla" unicode="&#x15e;" 
d="M154 359q-2 -82 31 -149.5t88 -111t126 -73.5t141 -42.5t138 -12.5q79 0 152 13.5t143 45.5t121 79.5t82.5 121t31.5 164.5q0 60 -16 115t-41.5 98t-65 84.5t-78.5 72t-91 63t-92.5 54t-92.5 48.5q-3 2 -5 2.5t-4.5 2t-4.5 2.5q-33 17 -40.5 21t-38.5 21t-41.5 24.5
t-36 25t-36 29.5t-27.5 31.5t-24 36.5t-13 39t-6 45q0 56 36.5 95t87.5 54.5t111 15.5q167 0 216 -81q4 -43 33 -74.5t87 -31.5q46 0 80 31t30 84q-8 74 -46 128t-99.5 84.5t-133 45t-155.5 14.5q-93 0 -176 -22t-150.5 -65t-107.5 -115t-40 -164q0 -62 13.5 -116t34 -94
t55 -77t67 -61.5t80.5 -52t84.5 -44.5t89.5 -42.5t86 -42.5q245 -128 245 -276q0 -55 -18 -97.5t-46.5 -67.5t-69.5 -41t-81.5 -21.5t-86.5 -5.5q-110 0 -197 44t-94 110q-2 20 3 56t5 50q0 44 -31.5 70t-77.5 26q-69 0 -98.5 -40.5t-35.5 -125.5zM433 -311
q-43 0 -76.5 -23.5t-33.5 -75.5q0 -57 63 -96.5t151 -39.5q141 0 229.5 73t88.5 194q0 74 -68.5 150.5t-136.5 76.5q-34 0 -59 -25t-25 -45q-1 -27 6.5 -45t18.5 -28.5t22 -20.5t19 -27.5t8 -43.5q0 -62 -84 -62q-23 0 -62 19t-61 19z" />
    <glyph glyph-name="scedilla" unicode="&#x15f;" horiz-adv-x="1249" 
d="M122 259q0 -44 42 -95t110.5 -93.5t166 -71t197.5 -28.5q67 0 128.5 8t130.5 31.5t119 61t83 103t33 151.5q0 75 -30 134.5t-68 96t-111 70t-120.5 48t-133.5 38.5q-59 16 -93 26.5t-79 28.5t-68.5 35t-41 43t-17.5 57q0 61 66.5 98.5t170.5 37.5q159 0 270 -93
q13 -34 44.5 -58.5t70.5 -24.5q47 0 75 21.5t28 66.5q0 31 -9 52q0 34 3 89.5t3 79.5q0 46 -26 66t-77 20q-37 0 -62.5 -26t-34.5 -61q-50 20 -82.5 31t-85 20.5t-110.5 9.5q-85 0 -164 -18.5t-148.5 -55.5t-111.5 -102.5t-42 -151.5q0 -56 15 -103.5t38 -82t62 -64.5
t73 -49t87 -38t89.5 -29t92.5 -24q48 -12 77 -20.5t70 -22t65.5 -28t49 -34t35.5 -44t11 -54.5q0 -65 -72.5 -102.5t-179.5 -37.5q-235 0 -318 125q-17 24 -26.5 35t-30.5 21t-50 10q-41 0 -77.5 -30t-36.5 -73zM386 -311q-43 0 -76.5 -23.5t-33.5 -75.5q0 -57 63 -96.5
t151 -39.5q141 0 229.5 73t88.5 194q0 74 -68.5 150.5t-136.5 76.5q-34 0 -59 -25t-25 -45q-1 -27 6.5 -45t18.5 -28.5t22 -20.5t19 -27.5t8 -43.5q0 -62 -84 -62q-23 0 -62 19t-61 19z" />
    <glyph glyph-name="Scaron" unicode="&#x160;" 
d="M154 359q-2 -82 31 -149.5t88 -111t126 -73.5t141 -42.5t138 -12.5q79 0 152 13.5t143 45.5t121 79.5t82.5 121t31.5 164.5q0 60 -16 115t-41.5 98t-65 84.5t-78.5 72t-91 63t-92.5 54t-92.5 48.5q-3 2 -5 2.5t-4.5 2t-4.5 2.5q-33 17 -40.5 21t-38.5 21t-41.5 24.5
t-36 25t-36 29.5t-27.5 31.5t-24 36.5t-13 39t-6 45q0 56 36.5 95t87.5 54.5t111 15.5q167 0 216 -81q4 -43 33 -74.5t87 -31.5q46 0 80 31t30 84q-8 74 -46 128t-99.5 84.5t-133 45t-155.5 14.5q-93 0 -176 -22t-150.5 -65t-107.5 -115t-40 -164q0 -62 13.5 -116t34 -94
t55 -77t67 -61.5t80.5 -52t84.5 -44.5t89.5 -42.5t86 -42.5q245 -128 245 -276q0 -55 -18 -97.5t-46.5 -67.5t-69.5 -41t-81.5 -21.5t-86.5 -5.5q-110 0 -197 44t-94 110q-2 20 3 56t5 50q0 44 -31.5 70t-77.5 26q-69 0 -98.5 -40.5t-35.5 -125.5zM728 1595q25 0 58.5 19.5
t55 37.5t64.5 57q81 69 113 87q51 30 73 53.5t22 61.5q0 41 -32 70t-78 29q-67 0 -94 -36q-76 -73 -183 -145l-185 137q-44 44 -104 44q-46 0 -72.5 -26.5t-26.5 -69.5q0 -36 12.5 -54.5t50.5 -49.5l196 -161q55 -54 130 -54z" />
    <glyph glyph-name="scaron" unicode="&#x161;" horiz-adv-x="1249" 
d="M122 259q0 -44 42 -95t110.5 -93.5t166 -71t197.5 -28.5q67 0 128.5 8t130.5 31.5t119 61t83 103t33 151.5q0 75 -30 134.5t-68 96t-111 70t-120.5 48t-133.5 38.5q-59 16 -93 26.5t-79 28.5t-68.5 35t-41 43t-17.5 57q0 61 66.5 98.5t170.5 37.5q159 0 270 -93
q13 -34 44.5 -58.5t70.5 -24.5q47 0 75 21.5t28 66.5q0 31 -9 52q0 34 3 89.5t3 79.5q0 46 -26 66t-77 20q-37 0 -62.5 -26t-34.5 -61q-50 20 -82.5 31t-85 20.5t-110.5 9.5q-85 0 -164 -18.5t-148.5 -55.5t-111.5 -102.5t-42 -151.5q0 -56 15 -103.5t38 -82t62 -64.5
t73 -49t87 -38t89.5 -29t92.5 -24q48 -12 77 -20.5t70 -22t65.5 -28t49 -34t35.5 -44t11 -54.5q0 -65 -72.5 -102.5t-179.5 -37.5q-235 0 -318 125q-17 24 -26.5 35t-30.5 21t-50 10q-41 0 -77.5 -30t-36.5 -73zM630 1431q24 0 45 7.5t31.5 14.5t31.5 24q163 147 197 164
q95 54 95 132q0 41 -32 70t-78 29q-22 0 -51 -10.5t-43 -25.5q-105 -97 -199 -162q-27 23 -96.5 73.5t-102.5 81.5q-47 41 -104 41q-46 0 -72.5 -25.5t-26.5 -67.5q0 -41 16.5 -69t58.5 -63q21 -17 94.5 -71.5t108.5 -87.5q55 -55 127 -55z" />
    <glyph glyph-name="uni0162" unicode="&#x162;" horiz-adv-x="1138" 
d="M443 134v-8q0 -29 0.5 -44.5t6.5 -40t17.5 -37.5t35 -23.5t57.5 -10.5q121 0 121 125q0 19 -3.5 50t-3.5 47l3 1128h258q11 0 32 -3t31 -3q42 1 71.5 36t29.5 84q0 59 -36 85t-85 26h-798q-76 0 -108 -23t-32 -81q0 -48 25 -85.5t71 -37.5q62 0 164 1t145 1zM443 -216
q0 -16 2.5 -42.5t2.5 -38.5q0 -32 -18.5 -56.5t-37 -49.5t-18.5 -58q0 -89 89 -89q79 0 146 85t67 177q0 33 -1.5 54t-7.5 48.5t-18 43t-34 26.5t-54 11q-58 0 -88 -30.5t-30 -80.5z" />
    <glyph glyph-name="uni0163" unicode="&#x163;" horiz-adv-x="1000" 
d="M281 76q-1 -57 36 -81t84 -24q26 -1 104 15t180.5 40.5t144.5 32.5q51 11 79.5 46.5t28.5 67.5q0 55 -28.5 88t-76.5 33q-34 0 -88 -28q-17 -7 -32 -12.5t-33 -10.5t-28.5 -8t-32.5 -7t-31.5 -6t-39.5 -7.5t-43 -7.5l-7 789l121 1q21 0 63 -4t64 -4q61 0 83 31t22 86
q0 59 -27.5 87t-70.5 28q-35 0 -51 -1q-2 0 -6.5 -0.5t-7.5 -0.5q-153 -4 -192 -5v73q-1 31 6.5 88t7.5 84q0 59 -32 81t-88 22q-68 0 -96 -26t-28 -78q0 -20 5.5 -59t5.5 -58l1 -31v-60v-37h-71h-37t-30 -2t-27 -5.5t-19.5 -11t-16 -18.5t-8 -27t-3.5 -38q0 -49 24.5 -83
t67.5 -34l121 1l6 -705zM409 -216q0 -16 2.5 -42.5t2.5 -38.5q0 -32 -18.5 -56.5t-37 -49.5t-18.5 -58q0 -89 89 -89q79 0 146 85t67 177q0 33 -1.5 54t-7.5 48.5t-18 43t-34 26.5t-54 11q-58 0 -88 -30.5t-30 -80.5z" />
    <glyph glyph-name="Tcaron" unicode="&#x164;" horiz-adv-x="1138" 
d="M443 134v-8q0 -29 0.5 -44.5t6.5 -40t17.5 -37.5t35 -23.5t57.5 -10.5q121 0 121 125q0 19 -3.5 50t-3.5 47l3 1128h258q11 0 32 -3t31 -3q42 1 71.5 36t29.5 84q0 59 -36 85t-85 26h-798q-76 0 -108 -23t-32 -81q0 -48 25 -85.5t71 -37.5q62 0 164 1t145 1zM586 1595
q25 0 58.5 19.5t55 37.5t64.5 57q81 69 113 87q51 30 73 53.5t22 61.5q0 41 -32 70t-78 29q-67 0 -94 -36q-76 -73 -183 -145l-185 137q-44 44 -104 44q-46 0 -72.5 -26.5t-26.5 -69.5q0 -36 12.5 -54.5t50.5 -49.5l196 -161q55 -54 130 -54z" />
    <glyph glyph-name="tcaron" unicode="&#x165;" horiz-adv-x="1011" 
d="M281 76q-1 -57 36 -81t84 -24q26 -1 108 16t188 42.5t147 33.5q52 11 80 46.5t28 67.5q0 54 -28 87.5t-77 33.5q-33 0 -87 -28q-87 -35 -257 -66l-5 792l55 1q21 0 64 -4t64 -4q61 0 83 31t22 86q0 59 -27.5 87t-70.5 28q-36 0 -51 -1q-2 0 -6.5 -0.5t-7.5 -0.5
q-10 0 -30 -1t-43.5 -2t-53.5 -1v72q-1 31 6.5 88t7.5 84q0 59 -32 81t-88 22q-68 0 -96 -26t-28 -78q0 -20 5.5 -59t5.5 -58l1 -31v-60v-37h-71h-37t-30 -2t-27 -5.5t-19.5 -11t-16 -18.5t-8 -27t-3.5 -38q0 -49 24.5 -83t67.5 -34l121 1l6 -705zM917 1136q43 0 77 38.5
t50 80.5q55 156 55 279q0 26 -1.5 44.5t-7.5 42t-16.5 37.5t-31 24.5t-49.5 10.5q-65 0 -91 -30.5t-26 -85.5q0 -19 1 -43t1 -33q0 -101 -11 -138q-9 -29 -24 -50q-28 -39 -28 -81q0 -46 29.5 -71t72.5 -25z" />
    <glyph glyph-name="Tbar" unicode="&#x166;" horiz-adv-x="1138" 
d="M443 134v-8q0 -29 0.5 -44.5t6.5 -40t17.5 -37.5t35 -23.5t57.5 -10.5q121 0 121 125q0 19 -3.5 50t-3.5 47l1 588q98 -5 172 -5q37 0 78.5 28t41.5 86q0 67 -32 89.5t-91 22.5q-49 0 -168 -13l1 332h258q11 0 32 -3t31 -3q42 1 71.5 36t29.5 84q0 59 -36 85t-85 26h-798
q-76 0 -108 -23t-32 -81q0 -48 25 -85.5t71 -37.5q62 0 164 1t145 1l-1 -334q-118 5 -137 5q-63 0 -101.5 -27.5t-38.5 -72.5q0 -62 37.5 -89t96.5 -27q36 0 143 7z" />
    <glyph glyph-name="tbar" unicode="&#x167;" horiz-adv-x="1000" 
d="M281 76q-1 -57 36 -81t84 -24q26 -1 104 15t180.5 40.5t144.5 32.5q51 11 79.5 46.5t28.5 67.5q0 55 -28.5 88t-76.5 33q-34 0 -88 -28q-17 -7 -32 -12.5t-33 -10.5t-28.5 -8t-32.5 -7t-31.5 -6t-39.5 -7.5t-43 -7.5l-4 414q240 -8 256 -8q37 0 78.5 28t41.5 86
q0 67 -32 89.5t-91 22.5q-46 0 -130.5 -9t-124.5 -9l-1 175l121 1q21 0 63 -4t64 -4q61 0 83 31t22 86q0 59 -27.5 87t-70.5 28q-35 0 -51 -1q-2 0 -6.5 -0.5t-7.5 -0.5q-153 -4 -192 -5v73q-1 31 6.5 88t7.5 84q0 59 -32 81t-88 22q-68 0 -96 -26t-28 -78q0 -20 5.5 -59
t5.5 -58l1 -31v-60v-37h-71h-37t-30 -2t-27 -5.5t-19.5 -11t-16 -18.5t-8 -27t-3.5 -38q0 -49 24.5 -83t67.5 -34l121 1l1 -167q-10 0 -31 0.5t-32 0.5q-63 0 -101.5 -27.5t-38.5 -72.5q0 -62 37.5 -89t96.5 -27q48 0 71 2l3 -325z" />
    <glyph glyph-name="Utilde" unicode="&#x168;" horiz-adv-x="1527" 
d="M189 735q2 -765 578 -765q286 0 428.5 199.5t142.5 572.5q0 59 -2 158.5t-2 145.5q-4 164 -4 278q0 25 2.5 71.5t2.5 67.5q0 46 -29 78.5t-92 32.5q-56 0 -86 -29t-30 -97q0 -30 1 -50q10 -330 10 -654q0 -280 -77.5 -420t-253.5 -140q-66 0 -119 17t-90 45t-64.5 72
t-43.5 90.5t-26 107t-13 116t-3 123.5q0 211 2.5 356t5.5 213t3 92q0 158 -133 158q-60 0 -83 -46t-23 -137q0 -98 -1.5 -319t-0.5 -337zM443 1650q91 0 105 95q4 27 23.5 51t42.5 24q24 0 59 -30t73.5 -69t59.5 -51q26 -15 69 -26t81 -11q129 0 198 71.5t69 167.5
q0 61 -31 91t-78 30q-30 0 -51.5 -9t-33 -26.5t-17 -32.5t-9.5 -36q-5 -23 -24.5 -40t-41.5 -17q-9 0 -17.5 3t-15 6t-16.5 11t-15.5 13t-18 16.5t-18.5 17.5q-28 25 -47 40t-49.5 34t-64 28t-71.5 9q-111 0 -186.5 -68.5t-75.5 -165.5q0 -59 27 -92.5t74 -33.5z" />
    <glyph glyph-name="utilde" unicode="&#x169;" horiz-adv-x="1437" 
d="M157 546q0 -282 131.5 -428.5t389.5 -146.5q84 0 181 36t183 110q-5 -33 -5 -34q0 -40 26.5 -76t80.5 -36q87 3 110.5 28t23.5 86q0 22 -3.5 59.5t-3.5 54.5q0 134 -3 362.5t-3 333.5q-1 76 -1 177q0 35 -0.5 52t-5.5 42t-14.5 36.5t-28 20.5t-46.5 9q-34 0 -89 -20.5
t-76 -23.5q-27 -6 -36 -7.5t-30.5 -7t-29 -9t-22.5 -10t-20 -13.5t-12.5 -17t-10 -22.5t-2.5 -28.5q0 -55 31 -84.5t76 -29.5q36 0 101 19q6 -150 6 -316q0 -150 -4 -299q-78 -82 -176 -132.5t-192 -50.5q-306 0 -306 366q0 130 34.5 259.5t95.5 197.5q50 56 50 116
q0 50 -29.5 81.5t-89.5 31.5q-45 0 -115 -29q-56 -22 -76 -25q-77 -16 -109.5 -37t-32.5 -77q0 -112 102 -112q17 0 37 6q-87 -188 -87 -412zM412 1426q24 0 41 7t28 23.5t16 27.5t13 33q8 24 13 34.5t18 22.5t32 12q22 0 58 -27.5t76 -64.5t58 -48q27 -15 70 -26t80 -11
q66 0 117.5 22t81 59t44.5 79.5t15 87.5q0 61 -30.5 88.5t-77.5 27.5q-28 0 -48 -7.5t-31 -23.5t-15.5 -29t-9.5 -34q-4 -18 -8.5 -29.5t-16.5 -21.5t-30 -10q-40 0 -111 66q-28 25 -47 40t-49.5 34t-64 28t-71.5 9q-110 0 -181 -72t-71 -172q0 -59 27 -92t74 -33z" />
    <glyph glyph-name="Umacron" unicode="&#x16a;" horiz-adv-x="1527" 
d="M189 735q2 -765 578 -765q286 0 428.5 199.5t142.5 572.5q0 59 -2 158.5t-2 145.5q-4 164 -4 278q0 25 2.5 71.5t2.5 67.5q0 46 -29 78.5t-92 32.5q-56 0 -86 -29t-30 -97q0 -30 1 -50q10 -330 10 -654q0 -280 -77.5 -420t-253.5 -140q-66 0 -119 17t-90 45t-64.5 72
t-43.5 90.5t-26 107t-13 116t-3 123.5q0 211 2.5 356t5.5 213t3 92q0 158 -133 158q-60 0 -83 -46t-23 -137q0 -98 -1.5 -319t-0.5 -337zM490 1634q118 3 546 0q54 0 87 21.5t33 81.5q0 67 -32 87t-91 15q-123 -10 -537 -10q-65 0 -102.5 -23t-37.5 -66q0 -110 134 -106z
" />
    <glyph glyph-name="umacron" unicode="&#x16b;" horiz-adv-x="1437" 
d="M157 546q0 -282 131.5 -428.5t389.5 -146.5q84 0 181 36t183 110q-5 -33 -5 -34q0 -40 26.5 -76t80.5 -36q87 3 110.5 28t23.5 86q0 22 -3.5 59.5t-3.5 54.5q0 134 -3 362.5t-3 333.5q-1 76 -1 177q0 35 -0.5 52t-5.5 42t-14.5 36.5t-28 20.5t-46.5 9q-34 0 -89 -20.5
t-76 -23.5q-27 -6 -36 -7.5t-30.5 -7t-29 -9t-22.5 -10t-20 -13.5t-12.5 -17t-10 -22.5t-2.5 -28.5q0 -55 31 -84.5t76 -29.5q36 0 101 19q6 -150 6 -316q0 -150 -4 -299q-78 -82 -176 -132.5t-192 -50.5q-306 0 -306 366q0 130 34.5 259.5t95.5 197.5q50 56 50 116
q0 50 -29.5 81.5t-89.5 31.5q-45 0 -115 -29q-56 -22 -76 -25q-77 -16 -109.5 -37t-32.5 -77q0 -112 102 -112q17 0 37 6q-87 -188 -87 -412zM465 1465q37 0 105 4.5t101 4.5q63 0 175.5 -4.5t164.5 -4.5q16 0 33.5 4t38.5 14.5t34.5 32.5t13.5 53q0 36 -9 57.5t-29 30.5
t-37 11.5t-48 2.5q-47 0 -136 -9t-132 -9q-49 0 -138 4t-131 4q-65 0 -102.5 -23.5t-37.5 -66.5q0 -61 36.5 -83.5t97.5 -22.5z" />
    <glyph glyph-name="Ubreve" unicode="&#x16c;" horiz-adv-x="1527" 
d="M189 735q2 -765 578 -765q286 0 428.5 199.5t142.5 572.5q0 59 -2 158.5t-2 145.5q-4 164 -4 278q0 25 2.5 71.5t2.5 67.5q0 46 -29 78.5t-92 32.5q-56 0 -86 -29t-30 -97q0 -30 1 -50q10 -330 10 -654q0 -280 -77.5 -420t-253.5 -140q-66 0 -119 17t-90 45t-64.5 72
t-43.5 90.5t-26 107t-13 116t-3 123.5q0 211 2.5 356t5.5 213t3 92q0 158 -133 158q-60 0 -83 -46t-23 -137q0 -98 -1.5 -319t-0.5 -337zM798 1622q82 0 159.5 32.5t132 100.5t54.5 157q0 45 -28 68t-67 23q-34 0 -57 -21.5t-29 -60.5q-10 -60 -53.5 -93t-108.5 -33
q-68 0 -113.5 33t-55.5 93q-6 38 -29 60t-58 22q-36 0 -64.5 -22t-28.5 -63q0 -68 31 -125.5t81 -94t111 -56.5t123 -20z" />
    </font>
</defs>
</svg>
