<?xml version="1.0" standalone="no"?>
<!DOCTYPE svg PUBLIC "-//W3C//DTD SVG 1.1//EN" "http://www.w3.org/Graphics/SVG/1.1/DTD/svg11.dtd" >
<svg xmlns="http://www.w3.org/2000/svg" xmlns:xlink="http://www.w3.org/1999/xlink" version="1.1">
<metadata>
Created by FontForge 20170731 at Wed Feb  3 20:07:51 2021
 By Aleksey,,,
</metadata>
<defs>
<font id="Grobold" horiz-adv-x="20" >
  <font-face 
    font-family="Grobold"
    font-weight="500"
    font-stretch="normal"
    units-per-em="1000"
    panose-1="0 0 0 0 0 0 0 0 0 0"
    ascent="800"
    descent="-200"
    x-height="580"
    cap-height="822"
    bbox="-60 -202 1047 1071"
    underline-thickness="0"
    underline-position="0"
    unicode-range="U+0020-2248"
  />
<missing-glyph horiz-adv-x="457" 
d="M20 675h417v-675h-417v675zM68 48h320v579h-320v-579z" />
    <glyph glyph-name=".notdef" horiz-adv-x="457" 
d="M20 675h417v-675h-417v675zM68 48h320v579h-320v-579z" />
    <glyph glyph-name=".notdef" horiz-adv-x="457" 
d="M20 675h417v-675h-417v675zM68 48h320v579h-320v-579z" />
    <glyph glyph-name=".null" horiz-adv-x="0" 
 />
    <glyph glyph-name="nonmarkingreturn" horiz-adv-x="333" 
 />
    <glyph glyph-name="space" unicode=" " horiz-adv-x="300" 
 />
    <glyph glyph-name="exclam" unicode="!" horiz-adv-x="774" 
d="M420 -31q-29 10 -55 29q-24 15 -40 38q-16 21 -21 44q-6 22 2 44t25 36t44 22q25 7 55 6q29 -1 61 -12q26 -9 56 -28q23 -17 40 -39q16 -22 20 -44q5 -25 -2 -44q-8 -22 -25 -35q-17 -14 -43 -22q-28 -8 -56 -7q-29 1 -61 12zM698 930l-86 -727q-25 18 -59 30
q-37 11 -72 14t-70 -2q-35 -6 -62 -19l53 692z" />
    <glyph glyph-name="quotedbl" unicode="&#x22;" horiz-adv-x="262" 
d="M145 883l98 17l-26 -217l-44 8zM20 883l98 17l-26 -217l-43 8z" />
    <glyph glyph-name="numbersign" unicode="#" horiz-adv-x="981" 
d="M599 643l-28 -6v20q-32 -2 -32 12v58h28v-53q0 -8 18 -5q17 2 17 8v50h29v-46q0 -13 -32 -19v-19zM421 616v111h27v-104q0 -12 17 -6q17 3 17 14v96h28v-87q0 -11 -12 -20q-11 -8 -33 -16q-44 -14 -44 12zM356 601v51l28 4v-76h-5q-5 -2 -13 0q-5 0 -19 2q-9 1 -20 6
q-41 17 -41 60q0 36 39 63q10 7 20 11q7 3 19 7q9 1 15 3l5 1v-15q-1 -1 -4.5 -2t-7.5 -2q-15 -5 -26 -12q-32 -20 -32 -52q0 -31 34 -46zM898 228l-14 -26l-42 25l14 26l5 -4l-11 -18l12 -7l11 18l4 -2l-10 -19l16 -9l11 20zM817 183l-8 -10l33 -28l-5 -5l-32 28l-9 -9
l-3 2l21 25zM761 124l-2 -6q-3 1 -10 -1q-6 -6 -3 -11q4 -4 11 -1l3 1q8 2 11 2q4 0 9 -5t3 -11q-1 -5 -7 -11q-12 -7 -22 0l5 5q4 -6 14 -1q7 7 2 14q-1 3 -6 3t-7 -1l-4 -2q-3 -1 -10 -1q-4 0 -7 4q-4 4 -2 10q1 4 7 10q8 5 15 2zM683 79l6 4l22 -43l-6 -4zM602 48l6 -19
l25 8l-5 19l5 1l15 -46l-6 -2l-7 22l-25 -7l7 -23l-7 -1l-14 45zM530 7h-3l1 -20l-6 -1l-5 48l8 1q13 1 18 -2q3 -2 5 -10q1 -7 -3.5 -11t-14.5 -5zM527 30h-2l1 -17h2q4 0 10 2t4 7q-1 6 -5 7q-3 1 -10 1zM457 -13l-5 14l-25 2l-8 -10h-7l32 47l20 -54zM431 9l19 -2l-8 20z
M350 33l9 -26l-8 2l-8 26l-2 1l-7 -20l-6 3l16 45l8 -2q1 0 2 -1t2.5 -2t2.5 -1q2 -1 5 -4q6 -6 3 -13q-5 -11 -17 -8zM350 56h-1l-6 -16l1 -2q6 -2 11 -1q5 0 7 6q2 5 -2 8q-5 3 -10 5zM264 72l3 5l18 -12l-1 -1q-5 -9 -15 -10t-20 4q-11 8 -12 18q-3 10 3 19q7 9 17 10
q11 2 21 -4q11 -8 13 -22h-6q-1 10 -10 17q-9 5 -16 4q-7 -2 -12 -9t-3 -15q2 -9 9 -13q5 -5 12 -3q6 0 11 5zM376 287l62 24v243l44 19v-244l54 22v245l43 17v-358l-43 -15v74l-54 -21v-74l-44 -18v73l-37 -15q-1 2 -4 5q-10 10 -21 23zM934 457v222h43v-222q0 -55 -48 -68
v-80h-43v79q-48 12 -48 64v222l42 3v-150q10 -37 10 -85v-9q8 -6 18 -6q26 2 26 30zM797 361v-57q13 30 19 50q8 28 11 53q1 -3 3 -7l3 -6q-9 -59 -39 -112q-30 -52 -75 -90q-47 -40 -104 -60q-57 -22 -124 -22q-44 0 -88 11q-41 10 -79 30l3 3q0 1 2 3q32 -17 77 -29
q42 -11 85 -11q49 0 97 14t86 38q39 24 70 58q30 33 52 75l-42 -5v58q0 11 -4 14t-15 1l-36 -7v-75l-43 -11v75l-37 -9l-25 29q1 0 4 1q1 0 3 1t6 2l8 2q11 4 41 12v264h14q9 0 34 -5q19 -5 40 -20q53 -39 53 -109q0 -58 -45 -109q28 0 39 -15q3 -3 5 -11q1 -5 1 -24z
M715 416q39 42 39 95q0 31 -12 51q-13 19 -25 28q-4 4 -13 10l-5 2v-201q0 -1 6 4q7 7 10 11zM281 178l12 1q27 7 27 38v292l43 16v-293q0 -32 -18 -57q-19 -24 -52 -35q-31 -9 -50 5q-18 13 -18 46v293l42 9v-294q2 -15 8 -18zM211 197v-23v-5q-20 18 -42 47
q-6 -14 -20 -31q40 -10 40 -49v-18q0 -26 -16 -39q-17 -15 -44 -15h-67v81h-34l-21 40h55v286q3 -1 9 -2q8 -3 22 -11q3 76 36 144q31 67 86 117q54 51 124 79q69 28 152 28q105 0 191 -46t141 -125v-38q-24 42 -59 77q-34 34 -78 60t-92 39t-103 13q-80 0 -146 -28
q-68 -28 -120 -77q-51 -49 -81 -114q-29 -65 -31 -141q1 -1 14 -11l15 -15q1 -1 2 -3l2 -2v14q-1 4 -1 13q0 68 27 130q26 58 74 106q47 46 110 71q64 26 135 26q59 0 112 -18t97 -50q44 -31 75 -75t48 -96v-33q-10 54 -41 105q-29 47 -74 84q-46 36 -99 55q-57 20 -118 20
q-71 0 -131 -25t-108 -70q-46 -45 -72 -104q-27 -58 -27 -126q0 -20 3 -39q15 -22 24 -50q9 -27 9 -56q3 -7 11 -19q3 -6 11 -18v-13q-5 6 -23 35q-2 -24 -9 -45q10 -14 15 -20q1 -1 17 -20zM150 123v6q0 16 -17 16h-32v-39h32q17 0 17 17zM101 185l13 13q18 16 27 42t9 52
q0 37 -12 61q-12 22 -24 37l-9 9l-4 4v-36q12 -15 22 -37q9 -20 11 -57v-1q-22 42 -33 90v-177zM491 78q68 0 131 23q66 24 112 62q47 37 83 93q32 53 46 117q1 -1 8 -3v-19v-20v-7q-19 -56 -56 -106q-39 -51 -86 -84q-50 -37 -110 -56q-63 -20 -128 -20q-59 0 -116 17
q-51 15 -103 46q1 1 3 1q3 0 4 1t4 2t5 2l4 2t4 1q41 -24 92 -38t103 -14z" />
    <glyph glyph-name="dollar" unicode="$" horiz-adv-x="641" 
d="M636 286q2 -57 -15 -104q-16 -46 -49 -82t-79 -60q-43 -24 -102 -38v-100l-191 -7l26 94q-55 4 -116 23q-56 17 -105 41l76 213q15 -6 36 -15q21 -11 45 -18q29 -9 50 -14q27 -6 50 -5q35 1 63 13q26 11 24 37q-2 18 -17 26q-18 10 -40 18q-3 1 -16.5 4.5t-22.5 6.5
q-27 8 -52 19t-57 29q-30 17 -52 41q-24 24 -39 56q-14 30 -16 72q-2 58 16 105q17 47 48 83q31 35 75 61q41 24 94 38v98l191 7l-25 -93q44 -3 88 -12q46 -9 81 -25l-59 -231q-56 23 -73 29q-35 11 -77 17q-18 2 -34 2q-23 0 -42 -4q-23 -5 -36 -14q-15 -10 -16 -28
q0 -7 8 -12q9 -5 18 -8q8 -2 22 -4q12 -2 17 -3q41 -9 46 -10l16 -4q26 -5 54 -17q33 -14 64 -31q31 -18 59 -44q27 -28 44 -63q19 -39 20 -87z" />
    <glyph glyph-name="percent" unicode="%" horiz-adv-x="748" 
d="M455 549q21 29 32 64q9 28 11 64q1 29 -5 59q-8 30 -19 51q-6 12 -18 24q-13 11 -28 18q-14 6 -36 8q-17 1 -42 -7q-34 -14 -61 -40q-27 -27 -42 -63t-15 -78q-2 -42 18 -84q16 -37 46 -53q29 -15 58 -14t58 15q26 13 43 36zM399 712q5 -12 7 -35q1 -19 -11 -52
q-5 -13 -17 -25q-11 -10 -24 -10q-11 0 -20 12q-9 11 -11 39q-2 31 7 52q10 22 22 32q11 10 26 8q14 -3 21 -21zM693 46q21 28 32 63q9 28 11 64q0 31 -6 59q-8 30 -19 51q-6 12 -18 24q-15 13 -28 19q-14 6 -35 8q-17 1 -42 -7q-34 -13 -61 -40q-28 -26 -43 -63
q-15 -36 -15 -78q-1 -40 19 -84q16 -37 46 -53q29 -15 58 -14t58 15q26 13 43 36zM637 209q6 -17 7 -35q1 -20 -11 -53q-5 -13 -17 -25q-11 -10 -24 -10q-11 0 -20 12q-9 11 -11 40q-2 31 7 51q10 22 22 32q11 10 26 8q13 -1 21 -20zM256 28l385 811l92 -24l-401 -820z" />
    <glyph glyph-name="ampersand" unicode="&#x26;" horiz-adv-x="845" 
d="M632 -5l-67 89q-57 -45 -115 -66q-58 -22 -131 -27q-59 -5 -116 3q-59 8 -103 32q-45 23 -76 68q-30 44 -35 112q-3 44 9 81t36 66t57 48q36 21 72 31q-34 26 -59 64q-22 34 -27 83q-5 59 18 103t63 74q41 30 90 46q45 15 101 20q48 5 101 -3q50 -7 97 -29q43 -22 75 -60
q30 -38 35 -94q3 -34 -6 -69t-27 -65q-20 -31 -45 -53q-27 -24 -59 -36l78 -68q36 28 61 62q9 11 26 34t26 35l165 -159l-117 -105l86 -67zM335 594q2 -18 15 -34q13 -17 29 -25q6 4 18 14t17 17q5 6 11 20q5 10 3 21q-2 18 -15 31q-14 14 -32 12q-21 -1 -35 -18
q-13 -15 -11 -38zM401 219l-109 92q-16 -12 -30 -27t-12 -38q1 -30 25 -44q22 -13 51 -10q21 1 40 10q22 10 35 17z" />
    <glyph glyph-name="quotesingle" unicode="'" horiz-adv-x="255" 
d="M138 985l77 -63l-119 -153l-42 14z" />
    <glyph glyph-name="parenleft" unicode="(" horiz-adv-x="404" 
d="M306 911l50 -42q-72 -109 -108 -204q-36 -92 -52 -162q-14 -65 -16 -106l-1 -39q2 -12 5 -36q4 -36 24 -95q18 -58 55 -128q40 -75 101 -139l-49 -35q-63 54 -108 118q-46 65 -68 116q-23 48 -38 101q-13 44 -16 71q-3 25 -3 27q1 14 2 43q1 43 21 118q20 76 66 176
q47 101 135 216z" />
    <glyph glyph-name="parenright" unicode=")" horiz-adv-x="386" 
d="M97 -75l-50 42q71 110 109 205q36 92 51 161q14 65 16 107l1 38q-2 12 -5 37q-4 32 -23 94q-21 64 -56 129q-39 73 -101 138l49 35q67 -58 109 -117q40 -56 68 -116q23 -54 37 -101q13 -44 16 -72q3 -25 3 -27q0 -14 -1 -43q-2 -43 -21 -117q-20 -76 -66 -176t-136 -217z
" />
    <glyph glyph-name="asterisk" unicode="*" 
 />
    <glyph glyph-name="plus" unicode="+" horiz-adv-x="772" 
d="M474 468l239 9l-19 -208l-232 -2l-11 -190l-189 -19l2 208l-213 -1l19 189l195 7l2 240l222 32z" />
    <glyph glyph-name="comma" unicode="," horiz-adv-x="237" 
d="M113 116l77 -63l-119 -154l-42 14z" />
    <glyph glyph-name="hyphen" unicode="-" horiz-adv-x="456" 
d="M66 288l9 115l317 14l-10 -134z" />
    <glyph glyph-name="period" unicode="." horiz-adv-x="219" 
d="M132 5l-92 26l7 85l105 -6z" />
    <glyph glyph-name="slash" unicode="/" horiz-adv-x="516" 
d="M23 28l385 811l91 -24l-401 -820z" />
    <glyph glyph-name="zero" unicode="0" horiz-adv-x="676" 
d="M567 102q-28 -38 -67 -65q-40 -29 -87 -45q-51 -18 -99 -19q-51 -1 -99 15q-49 16 -90 54q-43 39 -71 100q-32 70 -42 141q-10 68 -1 137q9 63 35 127q27 62 64 110q38 50 88 88q51 39 106 59q54 21 104 18q50 -5 89 -22q41 -18 70 -46q30 -28 45 -59q29 -56 47 -127
q17 -72 15 -150t-27 -159q-26 -83 -80 -157zM426 509q-20 44 -52 50q-36 5 -66 -20q-31 -25 -54 -79t-18 -128q5 -70 27 -98q23 -30 52 -30q31 0 59 24q27 23 43 62q15 39 21 72q6 32 6 59q-1 26 -6 49q-4 22 -12 39z" />
    <glyph glyph-name="one" unicode="1" horiz-adv-x="518" 
d="M184 563l-89 -75l-98 126l197 187l276 28l-38 -842l-245 32z" />
    <glyph glyph-name="two" unicode="2" horiz-adv-x="674" 
d="M639 694q41 -74 29 -136q-12 -63 -57 -119q-45 -55 -111 -102q-69 -50 -133 -90l271 31l-6 -253l-593 -30l-1 153q-7 24 7 55q13 29 41 63q27 32 63 66q24 22 74 66q13 12 38 33t36 31q38 33 61 56q26 26 39 45q12 20 4 31q-12 16 -46 7q-36 -9 -75 -31q-39 -21 -84 -53
q-41 -28 -72 -56l-134 193q92 87 174 133q82 44 147 56q63 12 119 1q52 -10 92 -35q37 -24 65 -50q27 -27 39 -45q11 -18 13 -20z" />
    <glyph glyph-name="three" unicode="3" horiz-adv-x="638" 
d="M502 456q66 -39 96 -87q30 -50 36 -95t-2 -88q-8 -40 -18 -63q-3 -6 -5.5 -12.5t-4.5 -9.5l-1 -3q-4 -6 -13 -19q-14 -20 -43 -43q-30 -24 -77 -42q-47 -19 -115 -16q-66 1 -157 34q-94 33 -203 107l147 210q69 -50 117 -68q45 -16 70 -15q26 2 34 11l9 9q0 3 4 12
q4 8 2 26q-1 15 -16 30q-16 15 -51 22q-34 7 -100 1l11 171q69 -6 97 4q27 9 35 24q6 14 0 27l-6 12l-10 10q-10 10 -36 13q-27 2 -69 -10q-47 -14 -109 -58l-98 182q97 69 182 93q87 23 147 19q62 -4 109 -24q40 -18 67 -37q21 -18 23 -20q2 -1 15 -18q14 -19 29 -50
q15 -34 16 -71q1 -39 -23 -83q-27 -46 -89 -85z" />
    <glyph glyph-name="four" unicode="4" horiz-adv-x="603" 
d="M-5 503l335 334l245 -76l-374 -352h102l3 58h230l-10 -59l89 16l-14 -232l-89 -1l-11 -183l-255 -11l18 192l-248 -19z" />
    <glyph glyph-name="five" unicode="5" horiz-adv-x="571" 
d="M219 539q53 15 114 10q59 -4 111 -29q52 -24 86 -66t39 -102v-22q0 -23 -7 -55t-26 -75q-17 -38 -53 -79q-35 -39 -92 -70q-57 -30 -142 -45t-201 -6l-45 234q78 -16 132 -12q54 5 85 21t49 37q18 23 22 36q1 3 2.5 7t2.5 6v2q4 18 -7 31q-13 11 -33 17q-23 5 -50 6
q-29 0 -59 -3q-30 -4 -60 -12q-31 -8 -53 -18l34 431l475 23l5 -199l-304 3z" />
    <glyph glyph-name="six" unicode="6" horiz-adv-x="561" 
d="M509 477q61 -66 69 -135q8 -71 -20 -131q-30 -65 -83 -113q-57 -52 -120 -80q-66 -29 -133 -30t-118 33l-2 2q-3 2 -7.5 6t-9.5 9q-20 17 -43 50q-26 34 -42 84q-18 48 -16 119q2 69 34 153q34 87 109 188q77 105 208 222l153 -148q-39 -32 -72 -63q-31 -30 -58 -60
q-22 -24 -39 -44l-14 -17q31 16 63 18q28 0 55 -8q27 -10 45 -22q23 -16 30 -22zM313 212q33 19 48 53q14 34 2 62q-12 29 -44 35q-34 6 -66 -13q-33 -20 -47 -53q-15 -33 -3 -62t44 -35t66 13z" />
    <glyph glyph-name="seven" unicode="7" horiz-adv-x="539" 
d="M-8 794l568 31l-89 -306l65 2l-32 -182l-71 -3l-82 -340l-275 32l94 300l-80 -3l11 178l125 7l39 95l-259 -31z" />
    <glyph glyph-name="eight" unicode="8" horiz-adv-x="604" 
d="M554 421q22 -35 34 -81q11 -46 5 -94t-33 -98q-28 -50 -81 -95q-23 -21 -63 -38q-38 -17 -81 -24q-46 -9 -88 -8q-49 2 -88 14q-44 13 -77 37q-35 26 -57 65q-25 46 -29 89q-5 45 7 85q10 38 37 78q27 38 62 66q-21 20 -34 44q-33 61 -27 120q6 58 41 108q34 49 93 85
t129 51q45 9 84 6q40 -5 71 -15q30 -11 54 -29q22 -16 33 -35q18 -29 29 -64t9 -73q-1 -37 -17 -79q-17 -42 -49 -78q23 -17 36 -37zM356 631q-9 18 -27 21q-19 3 -37 -6q-20 -10 -33 -30q-15 -21 -15 -51q0 -28 12 -40q12 -13 28 -13q16 -1 33 8q15 8 26 24q19 29 19 51
q0 23 -6 36zM341 185q26 41 26 68t-9 47q-12 25 -36 29t-49 -8q-25 -13 -44 -41t-19 -67q0 -37 16 -53q15 -17 37 -18q20 -1 43 11q20 11 35 32z" />
    <glyph glyph-name="nine" unicode="9" horiz-adv-x="568" 
d="M57 343q-46 49 -61 101q-15 51 -7 102q8 50 35 95t67 82q38 37 88 64q49 26 98 38q48 12 98 7q49 -6 86 -33q1 -1 20 -17q19 -17 43 -50q24 -34 42 -84q17 -52 16 -118q-2 -70 -34 -153q-33 -85 -109 -188q-80 -108 -208 -223l-154 149q39 32 73 64q24 22 59 59
q22 23 38 43l14 17q-32 -17 -62 -17q-29 -1 -56 8q-25 7 -45 21q-23 16 -30 23q-7 6 -11 10zM253 608q-33 -19 -48 -53t-2 -62q12 -28 44 -34q31 -7 65 13t48 53q15 33 3 61q-14 29 -45 35q-33 6 -65 -13z" />
    <glyph glyph-name="colon" unicode=":" horiz-adv-x="178" 
d="M98 5l-91 26l6 85l105 -6zM147 346l-101 29l7 94l116 -7z" />
    <glyph glyph-name="semicolon" unicode=";" horiz-adv-x="209" 
d="M72 116l77 -63l-119 -154l-42 14zM177 168l-92 26l6 85l105 -6z" />
    <glyph glyph-name="less" unicode="&#x3c;" horiz-adv-x="792" 
d="M14 323l621 309l137 -144q-285 -103 -464 -165q68 -26 183.5 -64t196.5 -63l82 -25l-107 -162z" />
    <glyph glyph-name="equal" unicode="=" horiz-adv-x="693" 
d="M3 24l19 189l643 23l-19 -208zM27 333l18 189l643 23l-19 -207z" />
    <glyph glyph-name="greater" unicode="&#x3e;" horiz-adv-x="792" 
d="M772 323l-649 -314l-107 162q310 93 462 152l-464 165l137 144z" />
    <glyph glyph-name="question" unicode="?" horiz-adv-x="725" 
d="M358 -26q-32 -11 -61 -12q-30 -1 -55 6q-26 8 -43 22q-18 14 -26 36q-7 20 -1 44q5 23 21 44q16 23 40 38q27 19 55 28q32 11 61 12q30 1 55 -6q26 -8 43 -22q19 -16 26 -36q7 -19 2 -44q-6 -23 -21 -44q-18 -23 -40 -38q-25 -18 -56 -28zM171 576l-170 159
q101 97 188 146q85 49 156 66q69 15 125 6q57 -9 96 -31q37 -20 67 -49q24 -23 40 -44q11 -18 13 -20q35 -63 31 -117q-4 -53 -35 -104q-30 -47 -81 -92q-45 -40 -107 -82q-44 -30 -113 -73q-60 -36 -101 -66q-43 -31 -68 -61q-24 -28 -16 -56l-164 127q-9 26 7 54
q15 29 45 60q29 30 71 63q8 6 85 62q44 32 84 60q49 35 72 52q31 25 45 43q15 19 7 30t-26 10q-20 -2 -42 -10t-53 -24q-29 -15 -57 -33q-28 -20 -54 -39q-13 -10 -45 -37z" />
    <glyph glyph-name="at" unicode="@" horiz-adv-x="782" 
d="M626 596l-53 -259q0 -2 -1.5 -9t-2.5 -12q-3 -14 -3 -24t4 -17t16 -6q16 2 31 17t31 42q14 26 24 57t12 66q3 65 -17 116q-19 49 -58 83q-38 34 -90 50q-54 17 -114 17q-68 0 -121 -22t-94 -64q-39 -40 -60 -98q-21 -57 -21 -126q0 -72 24 -129q22 -57 65 -97
q41 -40 100 -61q57 -21 125 -21q67 0 116 9q51 9 75 25l-16 -100q-42 -22 -44 -23q-19 -9 -32 -11q-11 -3 -40 -5q-16 -1 -67 -1q-87 0 -161 31q-76 32 -131 87q-58 58 -88 131q-32 76 -32 165q0 87 32 165t86 132q57 57 129 88t159 31q71 0 133 -22q65 -23 116 -70
q54 -48 87 -108q32 -62 32 -136q0 -64 -17 -123q-16 -55 -49 -99q-37 -51 -81 -72q-42 -22 -82 -20q-23 2 -41 18q-19 16 -25 42q-22 -24 -54 -41q-34 -19 -82 -19q-36 0 -67 16q-31 14 -58 41q-25 25 -39 62q-15 34 -15 75q0 49 16 94q15 46 43 81q30 36 68 56q40 21 90 21
q40 0 73 -11q33 -12 56 -46l8 34h105zM372 285q23 0 42 11q18 10 30 27q10 14 19 37q7 21 8 40q6 46 -15 74q-22 28 -61 28q-23 0 -42 -10q-18 -10 -33 -28q-14 -18 -21 -39q-8 -24 -8 -43q0 -20 6 -36q4 -17 15 -31q12 -16 25 -22q16 -8 35 -8z" />
    <glyph glyph-name="A" unicode="A" horiz-adv-x="850" 
d="M-50 67l445 806l505 -768l-314 -119l-84 140l-210 -7l-41 -150zM413 435l-69 -157l119 21z" />
    <glyph glyph-name="B" unicode="B" horiz-adv-x="689" 
d="M39 0l-7 781q140 27 233 36q91 9 144 9q58 -2 74 -5l21 -5l21 -9q27 -14 46 -28q29 -22 50 -47q23 -29 29 -66q5 -38 -15 -85q-22 -48 -82 -104q83 -43 120 -94q35 -51 39 -100q3 -49 -15 -94q-20 -46 -43 -79q-26 -34 -45 -54l-21 -21l-1 -1q-1 -1 -2.5 -1.5t-4 -2
t-5.5 -3.5q-14 -8 -49 -18q-38 -11 -98 -18q-61 -7 -158 -6q-98 0 -231 15zM392 557q0 4 1 12q0 12 -7 22q-6 9 -28 14q-20 3 -60 -13l-4 -105q32 -5 51 6q20 11 30 25q9 11 14 27zM445 275q0 4 -1 11q-2 10 -9 24q-7 13 -25 21q-17 8 -47 5t-79 -26l13 -105q57 -5 86 5
q31 11 44 25q13 13 16 27z" />
    <glyph glyph-name="C" unicode="C" horiz-adv-x="748" 
d="M718 674l-175 -215q-54 57 -94 73q-39 16 -70 8q-30 -9 -50 -35q-21 -29 -32 -54q-13 -32 -17 -50l-5 -22l1 -3q0 -3 1.5 -9.5t2.5 -13.5q5 -25 21 -53q17 -31 47 -44q31 -14 83 4t129 89l195 -208q-16 -30 -52 -59q-37 -29 -88 -55q-47 -24 -112 -41q-66 -18 -124 -19
q-65 -3 -125 13q-63 17 -114 56q-76 59 -111 128t-43 144q-8 74 12 148q19 77 52 139q34 66 79 117q42 49 92 83q7 4 20 11q22 12 55 22q34 10 83 15q47 5 103 -9q54 -13 116 -51q61 -38 120 -109z" />
    <glyph glyph-name="D" unicode="D" horiz-adv-x="720" 
d="M58 1l-16 781q197 37 268 46l86 10q84 14 149 -6t110 -63t69 -105q24 -61 27 -133q3 -71 -15 -146q-19 -75 -60 -146q-43 -73 -106 -131q-64 -62 -153 -102q-6 -2 -17 -5q-16 -5 -59 -10q-50 -5 -111 -4q-78 2 -172 14zM310 515l-10 -287q58 14 93 40q34 25 53 55
q19 31 26 56q7 27 7 44v18q0 2 -3 20q-4 19 -13 41q-10 24 -28 40q-18 15 -49 12t-76 -39z" />
    <glyph glyph-name="E" unicode="E" horiz-adv-x="592" 
d="M42 -5l-7 779l552 41l-31 -253l-251 -11l-1 -48l182 13l-21 -175l-167 -13l-2 -55l286 27l-5 -276z" />
    <glyph glyph-name="F" unicode="F" horiz-adv-x="546" 
d="M44 -5l-7 780l553 40l-31 -260l-252 -10l-11 -78l210 13l14 -210l-211 -13l-10 -256z" />
    <glyph glyph-name="G" unicode="G" horiz-adv-x="815" 
d="M774 693l-187 -197q-13 33 -44 50q-31 15 -69 15t-77 -16q-40 -16 -73 -45q-33 -28 -54 -71q-22 -41 -22 -95q-1 -48 16 -78q16 -29 42 -43q24 -13 56 -11q31 1 61 15q29 13 55 36q24 23 36 51l-142 -27l16 161l436 55q9 -61 -5 -124q-16 -64 -40 -113q-25 -49 -54 -91
q-33 -47 -46 -62q-6 -6 -11 -11.5t-8 -8.5l-2 -3q-36 -36 -87 -63q-54 -28 -111 -41q-59 -14 -122 -12q-64 2 -120 22q-56 19 -105 62q-49 42 -79 109q-34 75 -39 150q-5 73 12 144q16 67 55 131t90 112q52 50 117 84q66 35 137 50q2 0 22 3q19 1 56 0q34 -1 83 -14
q45 -13 100 -42q56 -31 107 -82z" />
    <glyph glyph-name="H" unicode="H" horiz-adv-x="721" 
d="M51 -8l-38 795l292 28l-35 -367l148 11l12 349l285 14l-81 -772l-232 -28l13 220l-105 -15l-10 -230z" />
    <glyph glyph-name="I" unicode="I" horiz-adv-x="371" 
d="M48 787l294 35l-41 -809l-263 -30z" />
    <glyph glyph-name="J" unicode="J" horiz-adv-x="581" 
d="M250 776l286 50q6 -160 9 -270q2 -112 3 -176q0 -78 -1 -101q-1 -35 -3 -46l-1 -11q-5 -21 -20 -58q-15 -33 -39 -66q-27 -34 -60 -62q-34 -28 -82 -45q-47 -17 -106 -15q-60 2 -131 28l-21 12q-22 11 -44 42q-23 31 -38 83t-4 136l220 70q-10 -52 -9 -82q0 -31 6 -44
q5 -14 13 -17q7 -3 14 -1l6 2q4 4 10 9q9 7 18 29q9 20 7 54z" />
    <glyph glyph-name="K" unicode="K" horiz-adv-x="636" 
d="M482 864l196 -231l-279 -259l246 -207l-140 -210l-194 183l-2 -127l-262 -30l-16 804l293 35l-3 -181z" />
    <glyph glyph-name="L" unicode="L" horiz-adv-x="560" 
d="M47 -22l-7 804l301 42l-26 -563l245 51l12 -281z" />
    <glyph glyph-name="M" unicode="M" horiz-adv-x="883" 
d="M-43 123l254 742l245 -309l236 244l245 -674l-241 -197l-109 325l-136 -238l-164 252l-97 -296z" />
    <glyph glyph-name="N" unicode="N" horiz-adv-x="762" 
d="M38 -17l13 832l382 -317l9 331l298 -20l-46 -763l-383 191l14 -236z" />
    <glyph glyph-name="O" unicode="O" horiz-adv-x="764" 
d="M639 82q-36 -36 -87 -63q-54 -28 -111 -41q-63 -14 -121 -13q-64 2 -120 22q-57 19 -106 62q-48 42 -78 109q-34 74 -40 149q-8 74 9 143t52 129q36 61 87 111q50 49 115 85q61 35 135 55q69 17 128 11q62 -8 107 -29q49 -23 82 -53q33 -31 50 -64q30 -57 47 -135
q15 -75 7 -157q-9 -82 -46 -163q-39 -85 -110 -158zM506 508q-16 33 -42 46q-28 14 -60 12t-65 -18q-31 -16 -60 -46q-28 -31 -44 -72q-18 -42 -18 -93q-1 -47 14 -78q13 -30 37 -44q22 -14 51 -16q32 -2 58 8q27 10 53 30q26 19 42 45q25 38 37 73q11 36 14 61q1 28 -3 51
q-4 22 -14 41z" />
    <glyph glyph-name="P" unicode="P" horiz-adv-x="640" 
d="M406 821q83 9 143 -11q59 -21 93 -61t46 -95q12 -57 2 -116q-11 -62 -40 -122q-31 -63 -79 -114q-51 -55 -117 -91q-66 -38 -152 -55l-4 -180l-242 25l-16 781q166 20 278 31zM422 510q0 4 1 11q1 11 -3 24q-5 15 -17 24q-13 9 -41 9q-32 -2 -77 -20l-10 -160q35 7 63 23
q25 15 44 32q17 15 28 33q10 15 12 24z" />
    <glyph glyph-name="Q" unicode="Q" horiz-adv-x="774" 
d="M738 695q28 -55 45 -125q15 -71 11 -143q-5 -76 -33 -152q-30 -80 -86 -149l46 -45l-148 -147l-52 71q-61 -28 -137 -37q-75 -9 -144 7q-71 15 -131 60q-61 43 -97 123q-50 114 -40 222q9 106 62 199q51 89 142 157q87 65 195 94q69 17 128 11q62 -8 107 -29
q49 -23 82 -53q33 -31 50 -64zM214 337q0 -47 14 -78q13 -29 37 -45q22 -14 51 -16q28 -2 57 9l-23 31l84 123l52 -51q19 34 26 62q8 28 9 54q0 23 -5 45q-4 17 -13 37q-16 33 -42 46q-29 14 -60 12q-32 -2 -65 -18q-31 -16 -60 -46q-28 -31 -44 -72q-18 -42 -18 -93z" />
    <glyph glyph-name="R" unicode="R" horiz-adv-x="670" 
d="M483 280l209 -137l-155 -175l-243 179l-3 -171l-242 25l-16 781q166 20 278 31l88 8q93 10 157 -14q62 -24 95 -69q33 -48 37 -106q4 -61 -18 -124q-22 -64 -69 -124q-49 -62 -118 -104zM279 558l-10 -160q35 7 63 23q25 15 44 32q17 15 28 33q10 16 11 24q0 4 1 11
q1 9 -2 24q-5 15 -17 24q-13 9 -42 9q-31 -2 -76 -20z" />
    <glyph glyph-name="S" unicode="S" horiz-adv-x="591" 
d="M422 502q25 -11 64 -32q31 -18 59 -44q26 -26 44 -62q18 -40 19 -87q3 -70 -23 -125q-24 -53 -73 -92q-50 -39 -114 -58q-66 -21 -142 -24q-28 -1 -72 4q-40 5 -73 13q-38 10 -70 22q-27 10 -64 26l76 214q15 -6 36 -15q21 -10 45 -18q29 -9 50 -14q27 -6 51 -5
q35 1 63 13q26 11 24 37q-2 18 -17 26q-14 7 -40 18q-3 1 -16.5 4.5t-22.5 6.5q-26 8 -53 19q-22 9 -56 29q-30 17 -52 41q-24 24 -39 56q-15 29 -17 72q-1 70 24 125q25 53 71 93q46 38 105 59q62 20 128 23q63 3 125 -6q66 -11 116 -32l-59 -231q-56 23 -73 29
q-35 11 -77 17q-18 2 -35 2q-24 0 -41 -4q-21 -4 -36 -15q-15 -10 -16 -28q0 -7 8 -12q10 -6 18 -7q7 -2 21 -4q10 -2 18 -3q41 -9 46 -10l16 -4q26 -5 54 -17z" />
    <glyph glyph-name="T" unicode="T" horiz-adv-x="521" 
d="M544 833l-26 -238l-120 -14v-563l-284 -35l15 571l-132 -13l7 246z" />
    <glyph glyph-name="U" unicode="U" horiz-adv-x="644" 
d="M347 740l271 50q6 -153 9 -246q2 -94 3 -143q1 -33 1 -66v-16q1 -61 -9 -117q-11 -56 -36 -101q-27 -47 -72 -78q-46 -32 -114 -46q-106 -20 -179 -4q-75 17 -123 60q-48 42 -71 112q-22 65 -20 148v10q0 21 1 42q1 12 1.5 43.5t0.5 46.5q4 150 4 155q1 21 3 102t4 134
l286 -50l-26 -470q-4 -24 1 -46q5 -20 9 -29q4 -8 6 -10q12 -12 23 -13q13 -1 29 24q2 2 6 13q6 14 10 40q5 29 3 71z" />
    <glyph glyph-name="V" unicode="V" horiz-adv-x="748" 
d="M-48 668l285 168l147 -352l171 344l249 -144l-440 -755z" />
    <glyph glyph-name="W" unicode="W" horiz-adv-x="985" 
d="M264 -75l-306 804l272 118l106 -327l181 278l151 -262l120 358l230 -165l-248 -735l-249 255z" />
    <glyph glyph-name="X" unicode="X" horiz-adv-x="806" 
d="M-10 669l223 168l196 -201l185 201l224 -168l-237 -246l242 -247l-191 -205l-227 285l-182 -294l-228 191l228 256z" />
    <glyph glyph-name="Y" unicode="Y" horiz-adv-x="701" 
d="M-60 664l215 168l177 -278l192 278l245 -168l-305 -394l-3 -288l-269 36v294z" />
    <glyph glyph-name="Z" unicode="Z" horiz-adv-x="817" 
d="M770 17l-737 -48l243 589l-292 -19l56 262l743 24l-339 -563l376 46z" />
    <glyph glyph-name="backslash" unicode="\" horiz-adv-x="539" 
d="M519 28l-75 -33l-401 820l91 24z" />
    <glyph glyph-name="grave" unicode="`" horiz-adv-x="477" 
d="M200 753l145 80l112 -165l-78 -41z" />
    <glyph glyph-name="a" unicode="a" horiz-adv-x="603" 
d="M349 0v68h-2q-27 -38 -68 -53q-42 -15 -90 -15q-40 0 -76 15q-35 13 -63 41q-26 26 -43 65q-16 36 -16 85q0 43 16 76q17 36 44 60q26 24 65 40q39 14 81 14q48 0 78 -13q26 -11 53 -31v30q0 46 -30 61t-78 15q-44 0 -82 -9q-40 -10 -77 -21l39 159q51 14 100 20
q58 5 106 5q47 0 96 -11q46 -12 83 -38q34 -25 56 -67q21 -41 20 -101l-11 -378zM222 253q-33 -4 -56 -23q-22 -19 -19 -42q5 -24 29 -34q24 -12 63 -6t58 25t15 41q-3 20 -25 33q-23 14 -65 6z" />
    <glyph glyph-name="b" unicode="b" horiz-adv-x="640" 
d="M389 607q60 0 110 -26q49 -25 87 -68q37 -43 58 -97q20 -55 20 -110q0 -76 -25 -133t-68 -97q-42 -41 -97 -60q-56 -21 -116 -21q-47 0 -86 16q-49 20 -76 34v-43h-158l-6 806l231 18l-9 -260q36 19 60 29q28 12 75 12zM371 204q27 8 41 20q19 14 28 28q10 16 13 34
q3 17 -2 36q-4 18 -17 32q-11 12 -29 22q-21 9 -39 10q-22 1 -46 -6q-27 -8 -41 -20q-18 -14 -28 -29q-11 -18 -14 -34q-3 -17 2 -36q4 -17 17 -31q13 -15 30 -22q16 -8 39 -9q25 -2 46 5z" />
    <glyph glyph-name="c" unicode="c" horiz-adv-x="528" 
d="M542 71q-27 -24 -53 -36q-28 -15 -59 -24q-30 -9 -61 -12q-28 -4 -60 -4q-67 0 -125 23q-56 22 -100 64q-43 40 -67 95q-24 54 -24 117q0 75 25 132q26 59 70 99q42 39 105 62q61 21 132 21q70 0 124 -23q49 -21 88 -47l-132 -173q-13 10 -32 18q-18 7 -38 10
q-22 3 -36 2q-20 -2 -29 -7q-20 -10 -32 -23q-14 -13 -21 -30q-8 -18 -7 -34q0 -19 10 -38q19 -40 57 -49q37 -9 78 11l51 26z" />
    <glyph glyph-name="d" unicode="d" horiz-adv-x="664" 
d="M606 821l-4 -814l-196 -13v57h-2q-25 -33 -65 -46q-42 -15 -84 -15q-51 0 -98 21q-46 19 -85 59q-35 35 -59 94q-22 54 -22 127q0 65 19 121q18 54 53 99q34 41 87 67q51 24 117 24q30 0 64 -8q31 -9 54 -29l-9 238zM325 205q20 7 37 22q15 13 24 30q8 17 9 34t-5 35
q-5 15 -18 29q-14 13 -30 21q-14 6 -37 8q-18 1 -43 -7q-22 -7 -38 -22q-16 -14 -23 -30q-8 -15 -10 -35q-1 -18 5 -35q7 -18 19 -29q10 -11 29 -20q18 -8 38 -8q18 -1 43 7z" />
    <glyph glyph-name="e" unicode="e" horiz-adv-x="572" 
d="M471 237l99 -163q-62 -44 -125 -63q-66 -20 -147 -20q-68 0 -124 24q-58 23 -98 63q-43 43 -64 94q-23 54 -23 113q0 75 24 134t65 100q40 41 96 63q54 21 116 21q100 0 174 -51q73 -51 109 -136l-299 -225q11 -7 29 -8q24 -2 33 -2q46 0 78 17q32 16 57 39zM207 289
l149 113q-14 17 -30 23t-38 6q-18 0 -36 -8q-17 -9 -29 -23q-12 -15 -18 -33q-7 -17 -7 -37q0 -18 3 -25q2 -9 6 -16z" />
    <glyph glyph-name="f" unicode="f" horiz-adv-x="416" 
d="M80 -10l1 414h-69l32 172h37q0 53 14 98q13 42 43 75q29 31 72 47q45 17 105 17q13 0 31 -2q18 -4 28 -5l26 -166h-34q-33 0 -50 -17q-18 -17 -18 -47h86v-172h-86l6 -396z" />
    <glyph glyph-name="g" unicode="g" horiz-adv-x="592" 
d="M-1 -160l97 176q37 -13 71 -20q37 -8 73 -8q10 0 32 2q15 1 29 9q13 6 21 18q8 11 8 30t-9 32q-12 14 -26 20q-15 7 -38 10q-28 2 -43 2q-28 0 -53 -7q-26 -7 -50 -20l19 60q-65 31 -102 88q-37 55 -37 134q0 43 16 85q15 43 48 79q34 37 84 59q52 23 122 23q33 0 63 -5
q20 -3 51 -13l17 105l160 -69l-52 -102q34 -34 49 -71q16 -39 16 -87q0 -64 -25 -107q-25 -44 -76 -78q98 -56 98 -166q0 -53 -23 -94q-22 -41 -65 -70q-44 -29 -102 -42q-60 -15 -133 -15q-87 0 -146 15q-56 14 -94 27zM289 297q35 8 51 28q17 21 12 47q-6 26 -30 38
q-26 12 -58 5q-34 -7 -51 -29q-16 -21 -12 -46q5 -26 30 -38q23 -13 58 -5z" />
    <glyph glyph-name="h" unicode="h" horiz-adv-x="587" 
d="M255 815l-7 -281h2q26 33 58 48q34 14 74 14q42 0 75 -15q31 -15 54 -42q22 -26 34 -63q11 -41 10 -79l-6 -387l-211 -18v365q0 17 -12 29t-32 12q-18 0 -32 -11q-14 -12 -14 -32v-364l-210 18l-7 788z" />
    <glyph glyph-name="i" unicode="i" horiz-adv-x="305" 
d="M40 -10v577l223 18l-11 -577zM38 638l1 182l229 10l-12 -176z" />
    <glyph glyph-name="j" unicode="j" horiz-adv-x="392" 
d="M335 582v-526q0 -63 -16 -108q-17 -47 -46 -78q-28 -30 -72 -47q-42 -16 -95 -16h-47l-55 183h23q46 0 68 19q23 20 23 65v490zM346 828l-12 -176l-218 -17l1 183z" />
    <glyph glyph-name="k" unicode="k" horiz-adv-x="578" 
d="M34 -10l-5 805l227 18l-20 -422h2l95 203l221 -18l-130 -252l150 -231l-208 -103l-130 251h-2l8 -233z" />
    <glyph glyph-name="l" unicode="l" horiz-adv-x="299" 
d="M42 -10l-7 805l226 18l-9 -805z" />
    <glyph glyph-name="m" unicode="m" horiz-adv-x="891" 
d="M648 -7l6 363q0 19 -14 31t-37 12q-25 0 -38 -15q-14 -16 -14 -31l6 -342l-217 -18l4 361q1 19 -14 33q-15 12 -39 12q-19 0 -35 -12q-17 -13 -16 -34l10 -361l-210 18l-12 569l204 18v-92h2q29 41 73 68q41 24 97 24q46 0 79 -14q32 -15 57 -46q26 27 59 44q32 16 73 16
q46 0 80 -15q35 -17 58 -44q23 -29 36 -65q11 -36 13 -81l6 -381z" />
    <glyph glyph-name="n" unicode="n" horiz-adv-x="591" 
d="M236 591v-77h4q32 44 68 61q33 16 75 16q43 0 74 -15t54 -42q22 -26 34 -63q11 -38 11 -78v-387l-216 -18l3 364q1 17 -13 30q-15 12 -35 12q-18 0 -34 -11q-16 -12 -16 -32l4 -361l-213 15l-8 569z" />
    <glyph glyph-name="o" unicode="o" horiz-adv-x="617" 
d="M623 344q11 -69 -6 -128q-16 -59 -53 -105q-38 -47 -91 -75q-56 -30 -122 -39q-68 -9 -128 4q-63 14 -109 47q-48 33 -80 86q-32 54 -41 121q-10 67 7 129q17 60 53 105q36 46 91 76q55 29 121 38q68 9 128 -4q61 -14 108 -46q49 -35 80 -87t42 -122zM203 259
q17 -39 54 -51t84 8q45 19 64 55q17 35 1 73t-54 51q-36 12 -83 -8t-64 -55q-19 -35 -2 -73z" />
    <glyph glyph-name="p" unicode="p" horiz-adv-x="639" 
d="M32 580l207 18v-68q32 35 67 52q33 16 82 16q60 0 110 -26q50 -27 84 -70q33 -42 53 -97q19 -54 19 -111q0 -58 -20 -115q-19 -54 -56 -99q-38 -44 -88 -69q-52 -26 -112 -26q-32 0 -66 9q-35 9 -64 36l6 -199l-211 -18zM375 211q44 21 61 59q15 38 -1 71q-16 34 -54 46
q-40 11 -84 -10q-46 -22 -62 -59q-16 -36 1 -72q8 -17 22 -28q14 -13 33 -17q18 -4 40 -3q19 1 44 13z" />
    <glyph glyph-name="q" unicode="q" horiz-adv-x="637" 
d="M594 -183l-212 18l6 199q-29 -26 -63 -35q-36 -9 -67 -9q-62 0 -112 26q-51 26 -87 69q-37 42 -57 98q-20 57 -20 115q0 57 19 111q19 53 54 97q34 43 84 70q50 26 109 26q50 0 83 -16t66 -52v68l208 -18zM401 345q-7 16 -22 29q-17 12 -33 16q-19 4 -41 3
q-19 -1 -44 -13q-45 -21 -60 -58q-17 -38 0 -72t55 -44q38 -12 83 9q45 22 62 60q16 37 0 70z" />
    <glyph glyph-name="r" unicode="r" horiz-adv-x="418" 
d="M27 580l203 18v-111h2q26 111 150 111q27 0 51 -3l-52 -213q-5 1 -15 1h-20q-42 0 -72 -27q-31 -28 -31 -87v-257l-210 -18z" />
    <glyph glyph-name="s" unicode="s" horiz-adv-x="446" 
d="M14 198q36 -10 55 -13q30 -5 59 -5q19 0 30 1q14 0 28 3q11 1 21 8q8 6 8 18q0 16 -15 23q-11 5 -38 14q-44 15 -50 17q-27 9 -49 28q-24 19 -38 49q-16 31 -16 81q0 35 13 65q14 33 42 58t75 42q45 16 111 16q16 0 50 -2q19 -1 48 -5q15 -3 41 -7q8 -2 19 -4.5t13 -2.5
v-176q-17 4 -49 10q-21 4 -52 4h-19q-5 0 -13 -1t-13 -2q-12 -3 -23 -9q-10 -6 -10 -16q0 -17 16 -24q18 -8 40 -15l51 -17q29 -11 52 -28q23 -20 39 -50q16 -31 16 -81q0 -53 -23 -90q-24 -36 -62 -57q-38 -22 -89 -31q-50 -9 -104 -9q-37 0 -82 5q-35 4 -82 16v187z" />
    <glyph glyph-name="t" unicode="t" horiz-adv-x="371" 
d="M329 -7q-22 -2 -30 -2q-10 -1 -32 -1q-96 0 -149 44q-54 44 -54 141v237l-55 -1l6 173h47v66l217 98v-164l81 12l-11 -184h-68v-175q0 -29 9 -40q7 -10 38 -10q16 0 21 1l15 3z" />
    <glyph glyph-name="u" unicode="u" horiz-adv-x="591" 
d="M362 -4v92h-2q-19 -55 -62 -78q-44 -23 -100 -23q-74 0 -121 45q-47 44 -47 129v420l223 18l-6 -370q-1 -23 11 -34q11 -11 35 -11q20 0 33 10q12 11 11 34l-6 353l230 18l-15 -595z" />
    <glyph glyph-name="v" unicode="v" horiz-adv-x="513" 
d="M-22 586l215 17l57 -395h2l66 395l217 -17l-138 -577l-288 -17z" />
    <glyph glyph-name="w" unicode="w" horiz-adv-x="788" 
d="M257 327h2l57 259l157 12l59 -274h2l59 283l218 -18l-154 -577l-207 -16l-56 279h-2l-57 -263l-205 -17l-156 594l224 18z" />
    <glyph glyph-name="x" unicode="x" horiz-adv-x="557" 
d="M222 598l53 -168h2l46 168l231 -18l-119 -275l139 -293l-240 -17l-57 181h-2l-58 -181l-236 17l133 293l-124 275z" />
    <glyph glyph-name="y" unicode="y" horiz-adv-x="502" 
d="M270 368h2l49 220l206 -18l-214 -754l-226 18l86 235l-188 492l218 27z" />
    <glyph glyph-name="z" unicode="z" horiz-adv-x="486" 
d="M12 372l42 208h417l-168 -369h178l-43 -208h-453l170 369h-143z" />
    <glyph glyph-name="bar" unicode="|" horiz-adv-x="117" 
d="M8 759l89 43l-10 -801h-85z" />
    <glyph glyph-name="nbsp" unicode="&#xa0;" horiz-adv-x="501" 
 />
    <glyph glyph-name="exclamdown" unicode="&#xa1;" horiz-adv-x="738" 
d="M440 918q32 11 61 12q28 1 56 -7q26 -8 43 -22q17 -13 25 -35q7 -19 2 -44q-4 -22 -20 -44q-17 -22 -40 -39q-30 -19 -56 -28q-32 -11 -61 -12q-30 -1 -55 6q-27 8 -44 22t-25 36t-2 44q5 23 21 44q16 23 40 38q26 19 55 29zM718 -43l-296 12l-53 692q27 -13 62 -19
q35 -5 70 -2t72 14q34 12 59 30z" />
    <glyph glyph-name="dieresis" unicode="&#xa8;" horiz-adv-x="522" 
d="M491 796l11 -107l-133 1l-12 96zM280 796l11 -107l-133 1l-12 96z" />
    <glyph glyph-name="degree" unicode="&#xb0;" horiz-adv-x="264" 
d="M211 530q-17 -23 -43 -36q-29 -14 -58 -15t-58 14q-30 16 -46 53q-20 44 -19 84q0 42 15 78t42 63q26 26 62 40q23 8 41 7q22 -2 36 -8q13 -6 28 -19q12 -12 18 -24q11 -21 19 -51q6 -28 6 -59q-2 -36 -11 -64q-11 -35 -32 -63zM154 693q-8 19 -21 20q-14 2 -26 -8
t-22 -32q-9 -20 -7 -51q2 -28 12 -39q9 -12 20 -12q13 0 24 10q12 12 17 25q12 33 11 52q-1 20 -8 35z" />
    <glyph glyph-name="plusminus" unicode="&#xb1;" horiz-adv-x="580" 
d="M365 514l195 7l-15 -179l-189 -2l-9 -164l-154 -17l1 180l-173 -1l15 164l159 6l2 207l181 28zM111 6l9 115l317 14l-10 -134z" />
    <glyph glyph-name="acute" unicode="&#xb4;" horiz-adv-x="479" 
d="M314 832l145 -80l-179 -126l-78 41z" />
    <glyph glyph-name="questiondown" unicode="&#xbf;" horiz-adv-x="757" 
d="M308 944q32 12 61 12q30 1 55 -6q22 -5 44 -22q17 -14 25 -36q7 -19 2 -44q-6 -23 -21 -44q-15 -19 -40 -38q-25 -16 -56 -28q-32 -11 -61 -12q-29 0 -55 6q-26 8 -43 22q-19 16 -26 36t-1 44q4 23 21 44q16 22 40 39q28 19 55 27zM567 342l170 -159q-96 -92 -187 -146
q-88 -50 -156 -65q-69 -16 -126 -7q-54 9 -96 32q-39 22 -67 48q-29 29 -39 45q-4 5 -7.5 10t-4.5 7l-2 2q-34 63 -30 117q5 58 35 104q30 50 80 92q45 40 107 82q63 43 114 74q63 39 100 66q45 32 68 60q23 29 16 56l164 -127q9 -24 -6 -54q-17 -30 -46 -60
q-30 -31 -71 -62t-84 -63q-58 -40 -85 -59q-39 -28 -71 -53q-31 -24 -46 -43q-15 -18 -7 -30q7 -10 26 -10q19 2 43 10q26 10 53 24t56 34q25 16 54 38q6 5 15.5 12.5t16.5 13.5t13 11z" />
    <glyph glyph-name="Agrave" unicode="&#xc0;" horiz-adv-x="850" 
d="M-50 67l445 806l505 -768l-314 -119l-84 140l-210 -7l-41 -150zM392 428l-69 -157l119 21zM80 912l119 63l131 -202l-66 -14z" />
    <glyph glyph-name="Aacute" unicode="&#xc1;" horiz-adv-x="850" 
d="M-50 67l445 806l505 -768l-314 -119l-84 140l-210 -7l-41 -150zM413 435l-69 -157l119 21zM620 981l120 -63l-185 -153l-65 14z" />
    <glyph glyph-name="Acircumflex" unicode="&#xc2;" horiz-adv-x="850" 
d="M-50 66l445 806l505 -768l-315 -119l-84 140l-209 -7l-42 -150zM390 427l-68 -157l119 21zM211 860l163 132l205 -95l-32 -86l-154 99l-131 -118z" />
    <glyph glyph-name="Adieresis" unicode="&#xc4;" horiz-adv-x="850" 
d="M-50 67l445 806l505 -768l-314 -119l-84 140l-210 -7l-41 -150zM413 435l-69 -157l119 21zM189 948l165 12l17 -80q-3 0 -11 -1l-16 -2t-16 -1q-18 -1 -52 -3q-17 -1 -44 -1q-19 -1 -19 1q0 3 -1 6t-6 23q-4 16 -17 46zM574 1007l9 -90q-88 -10 -123 -16l-45 -7l3 79z
" />
    <glyph glyph-name="Aring" unicode="&#xc5;" horiz-adv-x="850" 
d="M-50 67l445 806l505 -768l-314 -119l-84 140l-210 -7l-41 -150zM413 435l-69 -157l119 21zM450 942q14 12 20 26q7 16 7 27q0 13 -3 25q-4 12 -12 21q-4 6 -11 10q-9 5 -18 8q-11 3 -23 3t-26 -3q-24 -7 -38 -17q-17 -11 -26 -26q-10 -14 -10 -33q0 -17 12 -35
q12 -17 28 -22q18 -6 37 -6q20 2 36 7q17 5 27 15zM423 1015q6 -7 6 -17q1 -10 -9 -25q-6 -7 -15 -12q-12 -5 -20 -5q-9 0 -18 6q-7 6 -9 18q-1 15 6 25t19 16q9 4 22 4q11 -1 18 -10z" />
    <glyph glyph-name="Ccedilla" unicode="&#xc7;" horiz-adv-x="748" 
d="M556 351l194 -208q-13 -24 -46 -54q-31 -27 -78 -52q-46 -24 -100 -42q-56 -18 -113 -24l-54 -132l-151 63l59 76q-33 7 -68 23q-30 12 -63 37q-76 59 -111 128q-37 69 -43 144q-7 73 11 148q19 77 52 139q36 67 80 117q42 49 92 83q7 4 20 11q22 12 55 22q34 10 83 15
q47 5 102 -9q54 -13 116 -51q61 -38 120 -109l-174 -215q-54 57 -94 73q-39 16 -71 8q-30 -9 -50 -35q-21 -29 -32 -54q-13 -32 -17 -50l-5 -22v-3q1 -3 2.5 -9.5t2.5 -13.5q4 -22 22 -53q17 -31 47 -44q31 -14 83 4t129 89z" />
    <glyph glyph-name="Egrave" unicode="&#xc8;" horiz-adv-x="592" 
d="M39 -12l-7 780l552 40l-31 -253l-251 -10l-1 -49l182 14l-21 -175l-168 -14l-1 -55l286 27l-5 -276zM97 947l120 63l130 -202l-65 -14z" />
    <glyph glyph-name="Eacute" unicode="&#xc9;" horiz-adv-x="592" 
d="M39 -12l-7 780l552 40l-31 -253l-252 -10v-49l181 14l-20 -175l-168 -14l-1 -55l286 27l-6 -276zM337 1010l120 -63l-185 -153l-65 14z" />
    <glyph glyph-name="Ecircumflex" unicode="&#xca;" horiz-adv-x="592" 
d="M39 -12l-7 780l552 40l-31 -253l-251 -10l-1 -49l182 14l-21 -175l-168 -14l-1 -55l286 27l-5 -276zM117 862l163 132l205 -94l-32 -87l-154 99l-131 -118z" />
    <glyph glyph-name="Edieresis" unicode="&#xcb;" horiz-adv-x="592" 
d="M79 905l165 12l17 -80q-3 0 -11 -1l-16 -2t-16 -1q-18 -1 -52 -3q-17 -1 -44 -1q-19 -1 -19 1q0 3 -1 6t-6 23q-4 16 -17 46zM464 964l9 -90q-88 -10 -123 -16l-45 -7l3 79zM39 -12l-7 780l552 40l-31 -253l-252 -10v-49l181 14l-20 -175l-168 -14l-1 -55l286 27l-6 -276
z" />
    <glyph glyph-name="Igrave" unicode="&#xcc;" horiz-adv-x="371" 
d="M-22 967l119 63l131 -202l-65 -14zM48 787l294 35l-41 -809l-263 -30z" />
    <glyph glyph-name="Iacute" unicode="&#xcd;" horiz-adv-x="371" 
d="M48 787l294 35l-41 -809l-263 -30zM278 1030l120 -63l-185 -153l-65 14z" />
    <glyph glyph-name="Icircumflex" unicode="&#xce;" horiz-adv-x="371" 
d="M11 879l163 132l205 -94l-32 -87l-154 99l-131 -118zM48 785l294 37l-41 -808l-263 -31z" />
    <glyph glyph-name="Idieresis" unicode="&#xcf;" horiz-adv-x="371" 
d="M359 771l-293 -35l-10 -753l262 29zM5 855l165 12l17 -80q-3 0 -11 -1l-16 -2t-16 -1q-18 -1 -52 -3q-17 -1 -44 -1q-19 -1 -19 1q0 3 -1 6t-6 23q-4 16 -17 46zM390 914l9 -90q-88 -10 -123 -16l-45 -7l3 79z" />
    <glyph glyph-name="Ograve" unicode="&#xd2;" horiz-adv-x="764" 
d="M639 82q-36 -36 -87 -63q-54 -28 -111 -41q-63 -14 -121 -13q-64 2 -120 22q-57 19 -106 62q-48 42 -78 109q-34 74 -40 149q-8 74 9 143t52 129q36 61 87 111q50 49 115 85q61 35 135 55q69 17 128 11q62 -8 107 -29q49 -23 82 -53q33 -31 50 -64q30 -57 47 -135
q15 -75 7 -157q-9 -82 -46 -163q-39 -85 -110 -158zM506 508q-16 33 -42 46q-28 14 -60 12t-65 -18q-31 -16 -60 -46q-28 -31 -44 -72q-18 -42 -18 -93q-1 -47 14 -78q13 -30 37 -44q22 -14 51 -16q32 -2 58 8q27 10 53 30q26 19 42 45q25 38 37 73q11 36 14 61q1 28 -3 51
q-4 22 -14 41zM45 999l120 63l130 -202l-65 -14z" />
    <glyph glyph-name="Oacute" unicode="&#xd3;" horiz-adv-x="764" 
d="M639 82q-36 -36 -87 -63q-54 -28 -111 -41q-63 -14 -121 -13q-64 2 -120 22q-57 19 -106 62q-48 42 -78 109q-34 74 -40 149q-8 74 9 143t52 129q36 61 87 111q50 49 115 85q61 35 135 55q69 17 128 11q62 -8 107 -29q49 -23 82 -53q33 -31 50 -64q30 -57 47 -135
q15 -75 7 -157q-9 -82 -46 -163q-39 -85 -110 -158zM506 508q-16 33 -42 46q-28 14 -60 12t-65 -18q-31 -16 -60 -46q-28 -31 -44 -72q-18 -42 -18 -93q-1 -47 14 -78q13 -30 37 -44q22 -14 51 -16q32 -2 58 8q27 10 53 30q26 19 42 45q25 38 37 73q11 36 14 61q1 28 -3 51
q-4 22 -14 41zM686 1062l120 -63l-185 -153l-65 14z" />
    <glyph glyph-name="Ocircumflex" unicode="&#xd4;" horiz-adv-x="764" 
d="M242 930l163 132l205 -95l-33 -86l-153 99l-130 -118zM639 82q-36 -36 -87 -63q-54 -28 -111 -41q-63 -14 -121 -13q-64 2 -120 22q-57 19 -106 62q-48 42 -78 109q-34 74 -40 149q-8 74 9 143t52 129q36 61 87 111q50 49 115 85q61 35 135 55q69 17 128 11
q62 -8 107 -29q49 -23 82 -53q33 -31 50 -64q30 -57 47 -135q15 -75 7 -157q-9 -82 -46 -163q-39 -85 -110 -158zM506 508q-16 33 -42 46q-28 14 -60 12t-65 -18q-31 -16 -60 -46q-28 -31 -44 -72q-18 -42 -18 -93q-1 -47 14 -78q13 -30 37 -44q22 -14 51 -16q32 -2 58 8
q27 10 53 30q26 19 42 45q25 38 37 73q11 36 14 61q1 28 -3 51q-4 22 -14 41z" />
    <glyph glyph-name="Odieresis" unicode="&#xd6;" horiz-adv-x="764" 
d="M639 82q-36 -36 -87 -63q-54 -28 -111 -41q-63 -14 -121 -13q-64 2 -120 22q-57 19 -106 62q-48 42 -78 109q-34 74 -40 149q-8 74 9 143t52 129q36 61 87 111q50 49 115 85q61 35 135 55q69 17 128 11q62 -8 107 -29q49 -23 82 -53q33 -31 50 -64q30 -57 47 -135
q15 -75 7 -157q-9 -82 -46 -163q-39 -85 -110 -158zM506 508q-16 33 -42 46q-28 14 -60 12t-65 -18q-31 -16 -60 -46q-28 -31 -44 -72q-18 -42 -18 -93q-1 -47 14 -78q13 -30 37 -44q22 -14 51 -16q32 -2 58 8q27 10 53 30q26 19 42 45q25 38 37 73q11 36 14 61q1 28 -3 51
q-4 22 -14 41zM210 935l165 12l17 -80q-3 0 -11 -1l-16 -2t-16 -1q-18 -1 -52 -3q-17 -1 -44 -1q-19 -1 -19 1q0 3 -1 6t-6 23q-4 16 -17 46zM595 994l9 -90q-88 -10 -123 -16l-45 -7l3 79z" />
    <glyph glyph-name="multiply" unicode="&#xd7;" horiz-adv-x="646" 
d="M497 609l129 -145l-153 -152l126 -133l-111 -138l-145 139l-154 -154l-117 133l138 147l-154 149l122 169l167 -176z" />
    <glyph glyph-name="Ugrave" unicode="&#xd9;" horiz-adv-x="644" 
d="M347 741l271 50q2 -47 4 -118t3 -88q0 -13 4 -137q1 -34 1 -81q1 -19 1 -38v-10q2 -60 -9 -116q-10 -56 -37 -102q-25 -45 -72 -78q-45 -33 -113 -45q-104 -21 -178 -5q-75 17 -124 61t-71 111q-22 65 -20 149v17q0 1 2 72q4 133 4 161q1 23 2.5 74t3 103.5t2.5 104.5
l286 -49l-26 -470q-4 -27 0 -46q3 -16 10 -29q5 -10 6 -10q10 -12 23 -13q13 -3 29 24q1 0 6 12q6 17 10 41q5 29 3 71zM100 999l120 63l130 -202l-65 -14z" />
    <glyph glyph-name="Uacute" unicode="&#xda;" horiz-adv-x="644" 
d="M347 740l271 50q6 -153 9 -246q2 -94 3 -143q1 -33 1 -66v-16q1 -61 -9 -117q-11 -56 -36 -101q-27 -47 -72 -78q-46 -32 -114 -46q-106 -20 -179 -4q-75 17 -123 60q-48 42 -71 112q-22 65 -20 148v10q0 21 1 42q1 12 1.5 43.5t0.5 46.5q4 150 4 155q1 21 3 102t4 134
l286 -50l-26 -470q-4 -24 1 -46q5 -20 9 -29q4 -8 6 -10q12 -12 23 -13q13 -1 29 24q2 2 6 13q6 14 10 40q5 29 3 71zM450 1062l120 -63l-185 -153l-65 14z" />
    <glyph glyph-name="Ucircumflex" unicode="&#xdb;" horiz-adv-x="644" 
d="M135 930l163 132l205 -95l-33 -86l-154 99l-130 -118zM347 740l271 50q6 -153 9 -246q2 -94 3 -143q1 -33 1 -66v-16q1 -61 -9 -117q-11 -56 -36 -101q-27 -47 -72 -78q-46 -32 -114 -46q-106 -20 -179 -4q-75 17 -123 60q-48 42 -71 112q-22 65 -20 148v10q0 21 1 42
q1 12 1.5 43.5t0.5 46.5q4 150 4 155q1 21 3 102t4 134l286 -50l-26 -470q-4 -24 1 -46q5 -20 9 -29q4 -8 6 -10q12 -12 23 -13q13 -1 29 24q2 2 6 13q6 14 10 40q5 29 3 71z" />
    <glyph glyph-name="Udieresis" unicode="&#xdc;" horiz-adv-x="644" 
d="M366 759l271 50q1 -39 4 -108t4 -98q0 -25 1 -50.5t2 -50.5t1 -35q1 -35 1 -82v-38v-10q2 -60 -9 -116t-36 -101q-27 -46 -72 -78q-44 -32 -113 -46q-103 -21 -179 -4q-75 16 -123 60q-48 42 -71 112q-22 67 -21 148q0 6 1 17q0 5 0.5 14.5t1 27t0.5 31.5q0 11 1.5 65.5
t2.5 95.5q0 18 7 281l287 -49l-27 -470q-4 -24 1 -46q5 -20 9 -29q4 -8 6 -10q12 -12 24 -13q13 -1 29 24q2 2 6 13q6 14 10 40q4 23 2 71zM162 953l165 12l17 -80q-3 0 -11 -1l-16 -2t-16 -1q-18 -1 -52 -3t-45 -2q-18 0 -18 2q0 3 -1 6t-6 23q-4 16 -17 46zM547 1012
l9 -90q-88 -10 -123 -16l-45 -7l3 79z" />
    <glyph glyph-name="Yacute" unicode="&#xdd;" horiz-adv-x="701" 
d="M-60 664l215 168l177 -278l192 278l245 -168l-305 -394l-3 -288l-269 36v294zM400 1000l120 -63l-185 -153l-65 14z" />
    <glyph glyph-name="agrave" unicode="&#xe0;" horiz-adv-x="603" 
d="M143 752l145 80l112 -165l-79 -41zM349 0v68h-2q-27 -38 -68 -53q-42 -15 -90 -15q-40 0 -76 15q-35 13 -63 41q-26 26 -43 65q-16 36 -16 85q0 43 16 76q17 36 44 60q26 24 65 40q39 14 81 14q48 0 78 -13q26 -11 53 -31v30q0 46 -30 61t-78 15q-44 0 -82 -9
q-40 -10 -77 -21l39 159q51 14 100 20q58 5 106 5q47 0 96 -11q46 -12 83 -38q34 -25 56 -67q21 -41 20 -101l-11 -378zM222 253q-33 -4 -56 -23q-22 -19 -19 -42q5 -24 29 -34q24 -12 63 -6t58 25t15 41q-3 20 -25 33q-23 14 -65 6z" />
    <glyph glyph-name="aacute" unicode="&#xe1;" horiz-adv-x="603" 
d="M361 832l145 -80l-179 -126l-78 41zM349 0v68h-2q-27 -38 -68 -53q-42 -15 -90 -15q-40 0 -76 15q-35 13 -63 41q-26 26 -43 65q-16 36 -16 85q0 43 16 76q17 36 44 60q26 24 65 40q39 14 81 14q48 0 78 -13q26 -11 53 -31v30q0 46 -30 61t-78 15q-44 0 -82 -9
q-40 -10 -77 -21l39 159q51 14 100 20q58 5 106 5q47 0 96 -11q46 -12 83 -38q34 -25 56 -67q21 -41 20 -101l-11 -378zM222 253q-33 -4 -56 -23q-22 -19 -19 -42q5 -24 29 -34q24 -12 63 -6t58 25t15 41q-3 20 -25 33q-23 14 -65 6z" />
    <glyph glyph-name="acircumflex" unicode="&#xe2;" horiz-adv-x="603" 
d="M362 634l-61 84l-63 -84l-126 57l112 109h153l106 -116zM349 0v68h-2q-27 -38 -68 -53q-42 -15 -90 -15q-40 0 -76 15q-35 13 -63 41q-26 26 -43 65q-16 36 -16 85q0 43 16 76q17 36 44 60q26 24 65 40q39 14 81 14q48 0 78 -13q26 -11 53 -31v30q0 46 -30 61t-78 15
q-44 0 -82 -9q-40 -10 -77 -21l39 159q51 14 100 20q58 5 106 5q47 0 96 -11q46 -12 83 -38q34 -25 56 -67q21 -41 20 -101l-11 -378zM222 253q-33 -4 -56 -23q-22 -19 -19 -42q5 -24 29 -34q24 -12 63 -6t58 25t15 41q-3 20 -25 33q-23 14 -65 6z" />
    <glyph glyph-name="adieresis" unicode="&#xe4;" horiz-adv-x="603" 
d="M471 796l11 -107l-133 1l-12 96zM260 796l11 -107l-133 1l-12 96zM349 0v68h-2q-27 -38 -68 -53q-42 -15 -90 -15q-40 0 -76 15q-35 13 -63 41q-26 26 -43 65q-16 36 -16 85q0 43 16 76q17 36 44 60q26 24 65 40q39 14 81 14q48 0 78 -13q26 -11 53 -31v30q0 46 -30 61
t-78 15q-44 0 -82 -9q-40 -10 -77 -21l39 159q51 14 100 20q58 5 106 5q47 0 96 -11q46 -12 83 -38q34 -25 56 -67q21 -41 20 -101l-11 -378zM222 253q-33 -4 -56 -23q-22 -19 -19 -42q5 -24 29 -34q24 -12 63 -6t58 25t15 41q-3 20 -25 33q-23 14 -65 6z" />
    <glyph glyph-name="aring" unicode="&#xe5;" horiz-adv-x="603" 
d="M349 0v68h-2q-27 -38 -68 -53q-42 -15 -90 -15q-40 0 -76 15q-35 13 -63 41q-26 26 -43 65q-16 36 -16 85q0 43 16 76q17 36 44 60q26 24 65 40q39 14 81 14q48 0 78 -13q26 -11 53 -31v30q0 46 -30 61t-78 15q-44 0 -82 -9q-40 -10 -77 -21l39 159q51 14 100 20
q58 5 106 5q47 0 96 -11q46 -12 83 -38q34 -25 56 -67q21 -41 20 -101l-11 -378zM222 253q-33 -4 -56 -23q-22 -19 -19 -42q5 -24 29 -34q24 -12 63 -6t58 25t15 41q-3 20 -25 33q-23 14 -65 6zM375 654q17 17 24 34q6 14 8 34q0 18 -4 31q-4 14 -14 27q-5 7 -14 13
q-7 5 -21 10q-9 2 -27 4q-16 0 -31 -4q-25 -7 -46 -21q-22 -17 -31 -34q-12 -18 -12 -41q0 -24 14 -45q11 -18 34 -28q23 -8 44 -7q21 0 43 8t33 19zM335 737q4 -4 6 -15q1 -9 -9 -22q-5 -7 -14 -10q-10 -5 -19 -5q-8 0 -16 5q-8 6 -8 17q-2 14 5 22q6 8 17 13q12 5 21 4
q11 -2 17 -9z" />
    <glyph glyph-name="ccedilla" unicode="&#xe7;" horiz-adv-x="528" 
d="M400 239l135 -180q-43 -39 -99 -56q-58 -17 -109 -20l-29 -65l-91 24l31 47q-55 10 -101 37q-47 26 -80 65q-34 37 -52 87q-19 47 -19 103q0 75 25 132q26 59 70 99q42 39 105 62q62 21 132 21t124 -23q52 -22 89 -47l-132 -172q-13 10 -32 18q-18 7 -38 10q-25 2 -36 1
q-20 -2 -29 -7q-20 -11 -32 -23q-14 -14 -21 -30q-8 -18 -7 -34q0 -18 10 -37q19 -40 57 -49q36 -10 78 10z" />
    <glyph glyph-name="egrave" unicode="&#xe8;" horiz-adv-x="572" 
d="M92 752l145 80l112 -165l-78 -41zM471 237l99 -163q-62 -44 -125 -63q-66 -20 -147 -20q-68 0 -124 24q-58 23 -98 63q-43 43 -64 94q-23 54 -23 113q0 75 24 134t65 100q40 41 96 63q54 21 116 21q100 0 174 -51q73 -51 109 -136l-299 -225q11 -7 29 -8q24 -2 33 -2
q46 0 78 17q32 16 57 39zM207 289l149 113q-14 17 -30 23t-38 6q-18 0 -36 -8q-17 -9 -29 -23q-12 -15 -18 -33q-7 -17 -7 -37q0 -18 3 -25q2 -9 6 -16z" />
    <glyph glyph-name="eacute" unicode="&#xe9;" horiz-adv-x="572" 
d="M352 832l145 -80l-179 -126l-78 41zM471 237l99 -163q-62 -44 -125 -63q-66 -20 -147 -20q-68 0 -124 24q-58 23 -98 63q-43 43 -64 94q-23 54 -23 113q0 75 24 134t65 100q40 41 96 63q54 21 116 21q100 0 174 -51q73 -51 109 -136l-299 -225q11 -7 29 -8q24 -2 33 -2
q46 0 78 17q32 16 57 39zM207 289l149 113q-14 17 -30 23t-38 6q-18 0 -36 -8q-17 -9 -29 -23q-12 -15 -18 -33q-7 -17 -7 -37q0 -18 3 -25q2 -9 6 -16z" />
    <glyph glyph-name="ecircumflex" unicode="&#xea;" horiz-adv-x="572" 
d="M359 634l-62 84l-62 -84l-126 57l111 109h154l105 -116zM471 237l99 -163q-62 -44 -125 -63q-66 -20 -147 -20q-68 0 -124 24q-58 23 -98 63q-43 43 -64 94q-23 54 -23 113q0 75 24 134t65 100q40 41 96 63q54 21 116 21q100 0 174 -51q73 -51 109 -136l-299 -225
q11 -7 29 -8q24 -2 33 -2q46 0 78 17q32 16 57 39zM207 289l149 113q-14 17 -30 23t-38 6q-18 0 -36 -8q-17 -9 -29 -23q-12 -15 -18 -33q-7 -17 -7 -37q0 -18 3 -25q2 -9 6 -16z" />
    <glyph glyph-name="edieresis" unicode="&#xeb;" horiz-adv-x="572" 
d="M458 796l11 -107l-133 1l-11 96zM247 796l11 -107l-133 1l-11 96zM471 237l99 -163q-62 -44 -125 -63q-66 -20 -147 -20q-68 0 -124 24q-58 23 -98 63q-43 43 -64 94q-23 54 -23 113q0 75 24 134t65 100q40 41 96 63q54 21 116 21q100 0 174 -51q73 -51 109 -136
l-299 -225q11 -7 29 -8q24 -2 33 -2q46 0 78 17q32 16 57 39zM207 289l149 113q-14 17 -30 23t-38 6q-18 0 -36 -8q-17 -9 -29 -23q-12 -15 -18 -33q-7 -17 -7 -37q0 -18 3 -25q2 -9 6 -16z" />
    <glyph glyph-name="igrave" unicode="&#xec;" horiz-adv-x="335" 
d="M125 832l112 -165l-78 -41l-179 126zM70 -10v577l223 18l-11 -577z" />
    <glyph glyph-name="iacute" unicode="&#xed;" horiz-adv-x="340" 
d="M40 -10v577l223 18l-11 -577zM202 830l145 -80l-179 -126l-78 41z" />
    <glyph glyph-name="icircumflex" unicode="&#xee;" horiz-adv-x="335" 
d="M83 800h154l105 -116l-120 -50l-62 84l-62 -84l-126 57zM40 -10v577l223 18l-11 -577z" />
    <glyph glyph-name="idieresis" unicode="&#xef;" horiz-adv-x="335" 
d="M322 796l11 -107l-132 1l-12 96zM111 796l11 -107l-132 1l-12 96zM40 -10v577l223 18l-11 -577z" />
    <glyph glyph-name="ograve" unicode="&#xf2;" horiz-adv-x="617" 
d="M623 344q11 -69 -6 -128q-16 -59 -53 -105q-38 -47 -91 -75q-56 -30 -122 -39q-68 -9 -128 4q-63 14 -109 47q-48 33 -80 86q-32 54 -41 121q-10 67 7 129q17 60 53 105q36 46 91 76q55 29 121 38q68 9 128 -4q61 -14 108 -46q49 -35 80 -87t42 -122zM203 259
q17 -39 54 -51t84 8q45 19 64 55q17 35 1 73t-54 51q-36 12 -83 -8t-64 -55q-19 -35 -2 -73zM118 752l145 80l112 -165l-78 -41z" />
    <glyph glyph-name="oacute" unicode="&#xf3;" horiz-adv-x="617" 
d="M382 832l145 -80l-179 -126l-78 41zM623 344q11 -69 -6 -128q-16 -59 -53 -105q-38 -47 -91 -75q-56 -30 -122 -39q-68 -9 -128 4q-63 14 -109 47q-48 33 -80 86q-32 54 -41 121q-10 67 7 129q17 60 53 105q36 46 91 76q55 29 121 38q68 9 128 -4q61 -14 108 -46
q49 -35 80 -87t42 -122zM203 259q17 -39 54 -51t84 8q45 19 64 55q17 35 1 73t-54 51q-36 12 -83 -8t-64 -55q-19 -35 -2 -73z" />
    <glyph glyph-name="ocircumflex" unicode="&#xf4;" horiz-adv-x="617" 
d="M231 800h153l106 -116l-121 -50l-61 84l-63 -84l-126 57zM623 344q11 -69 -6 -128q-16 -59 -53 -105q-38 -47 -91 -75q-56 -30 -122 -39q-68 -9 -128 4q-63 14 -109 47q-48 33 -80 86q-32 54 -41 121q-10 67 7 129q17 60 53 105q36 46 91 76q55 29 121 38q68 9 128 -4
q61 -14 108 -46q49 -35 80 -87t42 -122zM203 259q17 -39 54 -51t84 8q45 19 64 55q17 35 1 73t-54 51q-36 12 -83 -8t-64 -55q-19 -35 -2 -73z" />
    <glyph glyph-name="odieresis" unicode="&#xf6;" horiz-adv-x="617" 
d="M623 344q11 -69 -6 -128q-16 -59 -53 -105q-38 -47 -91 -75q-56 -30 -122 -39q-68 -9 -128 4q-63 14 -109 47q-48 33 -80 86q-32 54 -41 121q-10 67 7 129q17 60 53 105q36 46 91 76q55 29 121 38q68 9 128 -4q61 -14 108 -46q49 -35 80 -87t42 -122zM203 259
q17 -39 54 -51t84 8q45 19 64 55q17 35 1 73t-54 51q-36 12 -83 -8t-64 -55q-19 -35 -2 -73zM471 796l11 -107l-133 1l-12 96zM260 796l11 -107l-133 1l-12 96z" />
    <glyph glyph-name="divide" unicode="&#xf7;" horiz-adv-x="799" 
d="M420 0q-25 -9 -55 -11q-28 -1 -50 6q-23 6 -39 19q-17 14 -23 33q-7 18 -2 40q4 17 19 39q12 17 36 35q22 16 50 25q26 9 56 11q26 1 50 -5q25 -8 39 -20q16 -13 22 -33q7 -18 2 -39q-4 -18 -19 -40q-12 -17 -36 -35q-22 -16 -50 -25zM462 480q-25 -9 -55 -11
q-28 -1 -50 6q-23 6 -39 19q-16 14 -24 33q-6 18 -1 40q5 20 19 39q12 17 36 35q22 16 50 25q26 9 56 11q26 1 50 -5q25 -8 39 -20q16 -13 22 -33q7 -18 2 -39q-4 -18 -19 -40q-12 -17 -36 -35q-22 -16 -50 -25zM23 269l9 105l742 32l-10 -123z" />
    <glyph glyph-name="ugrave" unicode="&#xf9;" horiz-adv-x="591" 
d="M81 752l145 80l112 -165l-79 -41zM362 -4v92h-2q-19 -55 -62 -78q-44 -23 -100 -23q-74 0 -121 45q-47 44 -47 129v420l223 18l-6 -370q-1 -23 11 -34q11 -11 35 -11q20 0 33 10q12 11 11 34l-6 353l230 18l-15 -595z" />
    <glyph glyph-name="uacute" unicode="&#xfa;" horiz-adv-x="591" 
d="M362 -4v92h-2q-19 -55 -62 -78q-44 -23 -100 -23q-74 0 -121 45q-47 44 -47 129v420l223 18l-6 -370q-1 -23 11 -34q11 -11 35 -11q20 0 33 10q12 11 11 34l-6 353l230 18l-15 -595zM338 832l145 -80l-179 -126l-78 41z" />
    <glyph glyph-name="ucircumflex" unicode="&#xfb;" horiz-adv-x="591" 
d="M352 642l-62 84l-62 -84l-126 57l111 109h154l105 -116zM362 -4v92h-2q-19 -55 -62 -78q-44 -23 -100 -23q-74 0 -121 45q-47 44 -47 129v420l223 18l-6 -370q-1 -23 11 -34q11 -11 35 -11q20 0 33 10q12 11 11 34l-6 353l230 18l-15 -595z" />
    <glyph glyph-name="udieresis" unicode="&#xfc;" horiz-adv-x="591" 
d="M362 -4v92h-2q-19 -55 -62 -78q-44 -23 -100 -23q-74 0 -121 45q-47 44 -47 129v420l223 18l-6 -370q-1 -23 11 -34q11 -11 35 -11q20 0 33 10q12 11 11 34l-6 353l230 18l-15 -595zM471 796l11 -107l-133 1l-12 96zM260 796l11 -107l-133 1l-12 96z" />
    <glyph glyph-name="yacute" unicode="&#xfd;" horiz-adv-x="502" 
d="M270 368h2l49 220l206 -18l-214 -754l-226 18l86 235l-188 492l218 27zM294 832l145 -80l-179 -126l-78 41z" />
    <glyph glyph-name="ydieresis" unicode="&#xff;" horiz-adv-x="502" 
d="M410 796l11 -107l-133 1l-12 96zM199 796l11 -107l-133 1l-12 96zM270 368h2l49 220l206 -18l-214 -754l-226 18l86 235l-188 492l218 27z" />
    <glyph glyph-name="Amacron" unicode="&#x100;" 
 />
    <glyph glyph-name="Abreve" unicode="&#x102;" 
 />
    <glyph glyph-name="Cacute" unicode="&#x106;" horiz-adv-x="748" 
d="M718 674l-175 -215q-54 57 -94 73q-39 16 -70 8q-30 -9 -50 -35q-21 -29 -32 -54q-13 -32 -17 -50l-5 -22l1 -3q0 -3 1.5 -9.5t2.5 -13.5q5 -25 21 -53q17 -31 47 -44q31 -14 83 4t129 89l195 -208q-16 -30 -52 -59q-37 -29 -88 -55q-47 -24 -112 -41q-66 -18 -124 -19
q-65 -3 -125 13q-63 17 -114 56q-76 59 -111 128t-43 144q-8 74 12 148q19 77 52 139q34 66 79 117q42 49 92 83q7 4 20 11q22 12 55 22q34 10 83 15q47 5 103 -9q54 -13 116 -51q61 -38 120 -109zM375 1071l120 -63l-185 -153l-65 14z" />
    <glyph glyph-name="cacute" unicode="&#x107;" horiz-adv-x="528" 
d="M542 71q-27 -24 -53 -36q-28 -15 -59 -24q-30 -9 -61 -12q-28 -4 -60 -4q-67 0 -125 23q-56 22 -100 64q-43 40 -67 95q-24 54 -24 117q0 75 25 132q26 59 70 99q42 39 105 62q61 21 132 21q70 0 124 -23q49 -21 88 -47l-132 -173q-13 10 -32 18q-18 7 -38 10
q-22 3 -36 2q-20 -2 -29 -7q-20 -10 -32 -23q-14 -13 -21 -30q-8 -18 -7 -34q0 -19 10 -38q19 -40 57 -49q37 -9 78 11l51 26zM294 832l145 -80l-179 -126l-78 41z" />
    <glyph glyph-name="Ccircumflex" unicode="&#x108;" horiz-adv-x="748" 
d="M718 674l-175 -215q-54 57 -94 73q-39 16 -70 8q-30 -9 -50 -35q-21 -29 -32 -54q-13 -32 -17 -50l-5 -22l1 -3q0 -3 1.5 -9.5t2.5 -13.5q5 -25 21 -53q17 -31 47 -44q31 -14 83 4t129 89l195 -208q-16 -30 -52 -59q-37 -29 -88 -55q-47 -24 -112 -41q-66 -18 -124 -19
q-65 -3 -125 13q-63 17 -114 56q-76 59 -111 128t-43 144q-8 74 12 148q19 77 52 139q34 66 79 117q42 49 92 83q7 4 20 11q22 12 55 22q34 10 83 15q47 5 103 -9q54 -13 116 -51q61 -38 120 -109zM186 910l163 133l205 -95l-32 -87l-154 99l-131 -117z" />
    <glyph glyph-name="ccircumflex" unicode="&#x109;" horiz-adv-x="528" 
d="M542 71q-27 -24 -53 -36q-28 -15 -59 -24q-30 -9 -61 -12q-28 -4 -60 -4q-67 0 -125 23q-56 22 -100 64q-43 40 -67 95q-24 54 -24 117q0 75 25 132q26 59 70 99q42 39 105 62q61 21 132 21q70 0 124 -23q49 -21 88 -47l-132 -173q-13 10 -32 18q-18 7 -38 10
q-22 3 -36 2q-20 -2 -29 -7q-20 -10 -32 -23q-14 -13 -21 -30q-8 -18 -7 -34q0 -19 10 -38q19 -40 57 -49q37 -9 78 11l51 26zM332 634l-61 84l-63 -84l-126 57l112 109h153l106 -116z" />
    <glyph glyph-name="Ccaron" unicode="&#x10c;" horiz-adv-x="748" 
d="M718 674l-175 -215q-54 57 -94 73q-39 16 -70 8q-30 -9 -50 -35q-21 -29 -32 -54q-13 -32 -17 -50l-5 -22l1 -3q0 -3 1.5 -9.5t2.5 -13.5q5 -25 21 -53q17 -31 47 -44q31 -14 83 4t129 89l195 -208q-16 -30 -52 -59q-37 -29 -88 -55q-47 -24 -112 -41q-66 -18 -124 -19
q-65 -3 -125 13q-63 17 -114 56q-76 59 -111 128t-43 144q-8 74 12 148q19 77 52 139q34 66 79 117q42 49 92 83q7 4 20 11q22 12 55 22q34 10 83 15q47 5 103 -9q54 -13 116 -51q61 -38 120 -109zM542 1001l-163 -139l-205 104l33 79l157 -82l127 99z" />
    <glyph glyph-name="ccaron" unicode="&#x10d;" horiz-adv-x="528" 
d="M542 71q-27 -24 -53 -36q-28 -15 -59 -24q-30 -9 -61 -12q-28 -4 -60 -4q-67 0 -125 23q-56 22 -100 64q-43 40 -67 95q-24 54 -24 117q0 75 25 132q26 59 70 99q42 39 105 62q61 21 132 21q70 0 124 -23q49 -21 88 -47l-132 -173q-13 10 -32 18q-18 7 -38 10
q-22 3 -36 2q-20 -2 -29 -7q-20 -10 -32 -23q-14 -13 -21 -30q-8 -18 -7 -34q0 -19 10 -38q19 -40 57 -49q37 -9 78 11l51 26zM359 800l120 -50l-105 -116h-154l-111 109l126 57l62 -84z" />
    <glyph glyph-name="Dcaron" unicode="&#x10e;" horiz-adv-x="720" 
d="M58 1l-16 781q197 37 268 46l86 10q84 14 149 -6t110 -63t69 -105q24 -61 27 -133q3 -71 -15 -146q-19 -75 -60 -146q-43 -73 -106 -131q-64 -62 -153 -102q-6 -2 -17 -5q-16 -5 -59 -10q-50 -5 -111 -4q-78 2 -172 14zM310 515l-10 -287q58 14 93 40q34 25 53 55
q19 31 26 56q7 27 7 44v18q0 2 -3 20q-4 19 -13 41q-10 24 -28 40q-18 15 -49 12t-76 -39zM542 1001l-163 -139l-205 104l33 79l157 -82l127 99z" />
    <glyph glyph-name="dcaron" unicode="&#x10f;" horiz-adv-x="725" 
d="M606 821l-4 -814l-196 -13v57h-2q-25 -33 -65 -46q-42 -15 -84 -15q-51 0 -98 21q-46 19 -85 59q-35 35 -59 94q-22 54 -22 127q0 65 19 121q18 54 53 99q34 41 87 67q51 24 117 24q30 0 64 -8q31 -9 54 -29l-9 238zM325 205q20 7 37 22q15 13 24 30q8 17 9 34t-5 35
q-5 15 -18 29q-14 13 -30 21q-14 6 -37 8q-18 1 -43 -7q-22 -7 -38 -22q-16 -14 -23 -30q-8 -15 -10 -35q-1 -18 5 -35q7 -18 19 -29q10 -11 29 -20q18 -8 38 -8q18 -1 43 7zM654 817q-19 14 -22 35t11.5 39t37.5 21q23 4 42 -9t22 -35q3 -25 -15 -43l-47 -138l-53 2z" />
    <glyph glyph-name="Ebreve" unicode="&#x114;" 
 />
    <glyph glyph-name="ebreve" unicode="&#x115;" 
 />
    <glyph glyph-name="Ecaron" unicode="&#x11a;" horiz-adv-x="592" 
d="M42 -5l-7 779l552 41l-31 -253l-251 -11l-1 -48l182 13l-21 -175l-167 -13l-2 -55l286 27l-5 -276zM504 1001l-163 -139l-205 104l33 79l158 -82l126 99z" />
    <glyph glyph-name="ecaron" unicode="&#x11b;" horiz-adv-x="572" 
d="M471 237l99 -163q-62 -44 -125 -63q-66 -20 -147 -20q-68 0 -124 24q-58 23 -98 63q-43 43 -64 94q-23 54 -23 113q0 75 24 134t65 100q40 41 96 63q54 21 116 21q100 0 174 -51q73 -51 109 -136l-299 -225q11 -7 29 -8q24 -2 33 -2q46 0 78 17q32 16 57 39zM207 289
l149 113q-14 17 -30 23t-38 6q-18 0 -36 -8q-17 -9 -29 -23q-12 -15 -18 -33q-7 -17 -7 -37q0 -18 3 -25q2 -9 6 -16zM346 800l120 -50l-105 -116h-154l-111 109l126 57l62 -84z" />
    <glyph glyph-name="Gcircumflex" unicode="&#x11c;" horiz-adv-x="815" 
d="M776 693l-187 -197q-14 33 -45 50q-30 15 -68 15q-39 0 -77 -16q-40 -16 -73 -45q-34 -30 -55 -71q-21 -42 -21 -95q-2 -50 15 -78q16 -29 42 -43q24 -13 57 -11q31 2 61 15t54 36q26 24 37 51l-142 -27l16 161l436 55q9 -63 -6 -124q-16 -64 -40 -113q-23 -46 -53 -91
q-28 -40 -47 -62q-18 -21 -20 -23q-35 -35 -88 -63q-52 -28 -110 -41q-60 -13 -122 -12q-64 2 -120 22q-58 20 -106 62t-78 109q-34 75 -39 150q-6 73 12 144q17 70 54 131q39 64 90 112q53 50 118 84q66 35 137 50q2 0 21 3q19 1 57 0q34 -1 83 -14q47 -14 100 -42
q53 -29 107 -82zM211 878l163 132l205 -95l-32 -86l-154 99l-131 -118z" />
    <glyph glyph-name="gcircumflex" unicode="&#x11d;" horiz-adv-x="592" 
d="M-1 -160l97 176q37 -13 71 -20q37 -8 73 -8q10 0 32 2q15 1 29 9q13 6 21 18q8 11 8 30t-9 32q-12 14 -26 20q-15 7 -38 10q-28 2 -43 2q-28 0 -53 -7q-26 -7 -50 -20l19 60q-65 31 -102 88q-37 55 -37 134q0 43 16 85q15 43 48 79q34 37 84 59q52 23 122 23q33 0 63 -5
q20 -3 51 -13l17 105l160 -69l-52 -102q34 -34 49 -71q16 -39 16 -87q0 -64 -25 -107q-25 -44 -76 -78q98 -56 98 -166q0 -53 -23 -94q-22 -41 -65 -70q-44 -29 -102 -42q-60 -15 -133 -15q-87 0 -146 15q-56 14 -94 27zM289 297q35 8 51 28q17 21 12 47q-6 26 -30 38
q-26 12 -58 5q-34 -7 -51 -29q-16 -21 -12 -46q5 -26 30 -38q23 -13 58 -5zM343 704l-61 84l-63 -84l-126 57l112 109h153l106 -116z" />
    <glyph glyph-name="uni0122" unicode="&#x122;" 
 />
    <glyph glyph-name="Hcircumflex" unicode="&#x124;" horiz-adv-x="721" 
d="M51 -8l-38 795l292 28l-35 -367l148 11l12 349l285 14l-81 -772l-232 -28l13 220l-105 -15l-10 -230zM211 904l163 132l205 -95l-32 -86l-154 99l-131 -118z" />
    <glyph glyph-name="hcircumflex" unicode="&#x125;" horiz-adv-x="587" 
d="M255 815l-7 -281h2q26 33 58 48q34 14 74 14q42 0 75 -15q31 -15 54 -42q22 -26 34 -63q11 -41 10 -79l-6 -387l-211 -18v365q0 17 -12 29t-32 12q-18 0 -32 -11q-14 -12 -14 -32v-364l-210 18l-7 788zM357 841l-61 84l-63 -84l-126 57l112 109h153l106 -116z" />
    <glyph glyph-name="Jcircumflex" unicode="&#x134;" horiz-adv-x="581" 
d="M250 776l286 50q6 -160 9 -270q2 -112 3 -176q0 -78 -1 -101q-1 -35 -3 -46l-1 -11q-5 -21 -20 -58q-15 -33 -39 -66q-27 -34 -60 -62q-34 -28 -82 -45q-47 -17 -106 -15q-60 2 -131 28l-21 12q-22 11 -44 42q-23 31 -38 83t-4 136l220 70q-10 -52 -9 -82q0 -31 6 -44
q5 -14 13 -17q7 -3 14 -1l6 2q4 4 10 9q9 7 18 29q9 20 7 54zM211 897l163 133l205 -95l-32 -87l-154 99l-131 -117z" />
    <glyph glyph-name="jcircumflex" unicode="&#x135;" horiz-adv-x="389" 
d="M335 582v-526q0 -63 -16 -108q-17 -47 -46 -78q-28 -30 -72 -47q-42 -16 -95 -16h-47l-55 183h23q46 0 68 19q23 20 23 65v490zM268 602l121 50l-106 116h-153l-112 -109l126 -57l63 84z" />
    <glyph glyph-name="Lacute" unicode="&#x139;" horiz-adv-x="560" 
d="M47 -22l-7 804l301 42l-26 -563l245 51l12 -281zM311 1053l120 -63l-185 -153l-65 14z" />
    <glyph glyph-name="lacute" unicode="&#x13a;" horiz-adv-x="319" 
d="M42 -10l-7 805l226 18l-9 -805zM232 1062l145 -80l-179 -126l-78 41z" />
    <glyph glyph-name="Lcaron" unicode="&#x13d;" horiz-adv-x="560" 
d="M47 -22l-7 804l301 42l-26 -563l245 51l12 -281zM421 821q-16 16 -16 38t17 37.5t40 15.5t40 -15.5t17 -37.5q0 -23 -21 -41l-68 -129l-51 9z" />
    <glyph glyph-name="lcaron" unicode="&#x13e;" horiz-adv-x="385" 
d="M42 -10l-7 805l226 18l-9 -805zM-555 359zM314 775q-19 14 -22 34q-3 22 11.5 40t37.5 21q23 4 42 -9t22 -35q3 -24 -15 -44l-47 -137l-53 1z" />
    <glyph glyph-name="Nacute" unicode="&#x143;" 
 />
    <glyph glyph-name="Ncaron" unicode="&#x147;" horiz-adv-x="762" 
d="M38 -17l13 832l382 -317l9 331l298 -20l-46 -763l-383 191l14 -236zM542 1001l-163 -139l-205 104l33 79l157 -82l127 99z" />
    <glyph glyph-name="ncaron" unicode="&#x148;" horiz-adv-x="591" 
d="M236 591v-77h4q32 44 68 61q33 16 75 16q43 0 74 -15t54 -42q22 -26 34 -63q11 -38 11 -78v-387l-216 -18l3 364q1 17 -13 30q-15 12 -35 12q-18 0 -34 -11q-16 -12 -16 -32l4 -361l-213 15l-8 569zM359 800l120 -50l-105 -116h-154l-111 109l126 57l62 -84z" />
    <glyph glyph-name="OE" unicode="&#x152;" horiz-adv-x="1046" 
d="M925 341l-182 -14l-1 -55l300 27l-6 -275l-503 -29v12q-65 -29 -138 -38q-75 -11 -146 6q-69 15 -132 59q-60 43 -97 124q-34 74 -40 149t10 143q17 69 52 129q36 61 87 111q50 49 115 85q64 36 135 54q43 11 84 12q38 1 76 -5q40 -8 67 -20q30 -13 57 -32l384 31
l-31 -254l-266 -10l5 -48l190 13zM477 282q24 37 37 72q11 36 14 61q1 28 -3 52q-4 22 -14 41q-16 33 -42 46q-29 14 -60 12q-30 -1 -65 -19q-31 -16 -60 -46q-28 -31 -44 -71q-18 -42 -18 -93q-1 -47 14 -78q13 -30 37 -44q22 -14 51 -16q32 -2 58 8q27 10 53 30
q25 19 42 45z" />
    <glyph glyph-name="oe" unicode="&#x153;" horiz-adv-x="973" 
d="M1004 411l-313 -225q18 -6 28 -8q15 -3 38 -3q44 0 81 14q39 15 64 31l90 -157q-58 -39 -117 -58q-63 -20 -143 -20q-61 0 -115 16q-58 17 -100 52q-42 -32 -96 -50q-55 -18 -119 -18q-69 0 -126 22q-59 21 -100 61q-43 40 -67 97q-25 54 -25 126q0 71 25 127
q24 57 67 97q41 39 100 62q58 21 126 21q73 0 124 -17q44 -15 92 -46q33 21 84 43q48 20 110 20q53 0 95 -13q45 -14 78 -37q36 -25 64 -59q32 -39 55 -78zM216 291q0 -43 24 -68q22 -25 62 -25q41 0 63 25q23 26 23 68q0 41 -23 67q-22 25 -63 25q-40 0 -62 -25
q-24 -26 -24 -67zM621 291l152 107q-10 10 -25 20q-16 8 -39 8q-46 0 -71 -28q-27 -28 -27 -66q0 -25 10 -41z" />
    <glyph glyph-name="Rcaron" unicode="&#x158;" horiz-adv-x="670" 
d="M483 280l209 -137l-155 -175l-243 179l-3 -171l-242 25l-16 781q166 20 278 31l88 8q93 10 157 -14q62 -24 95 -69q33 -48 37 -106q4 -61 -18 -124q-22 -64 -69 -124q-49 -62 -118 -104zM279 558l-10 -160q35 7 63 23q25 15 44 32q17 15 28 33q10 16 11 24q0 4 1 11
q1 9 -2 24q-5 15 -17 24q-13 9 -42 9q-31 -2 -76 -20zM542 1001l-163 -139l-205 104l33 79l157 -82l127 99z" />
    <glyph glyph-name="rcaron" unicode="&#x159;" horiz-adv-x="418" 
d="M27 580l203 18v-111h2q26 111 150 111q27 0 51 -3l-52 -213q-5 1 -15 1h-20q-42 0 -72 -27q-31 -28 -31 -87v-257l-210 -18zM290 800l120 -50l-105 -116h-154l-111 109l126 57l62 -84z" />
    <glyph glyph-name="Scaron" unicode="&#x160;" horiz-adv-x="591" 
d="M422 502q25 -11 64 -32q31 -18 59 -44q26 -26 44 -62q18 -40 19 -87q3 -70 -23 -125q-24 -53 -73 -92q-50 -39 -114 -58q-66 -21 -142 -24q-28 -1 -72 4q-40 5 -73 13q-38 10 -70 22q-27 10 -64 26l76 214q15 -6 36 -15q21 -10 45 -18q29 -9 50 -14q27 -6 51 -5
q35 1 63 13q26 11 24 37q-2 18 -17 26q-14 7 -40 18q-3 1 -16.5 4.5t-22.5 6.5q-26 8 -53 19q-22 9 -56 29q-30 17 -52 41q-24 24 -39 56q-15 29 -17 72q-1 70 24 125q25 53 71 93q46 38 105 59q62 20 128 23q63 3 125 -6q66 -11 116 -32l-59 -231q-56 23 -73 29
q-35 11 -77 17q-18 2 -35 2q-24 0 -41 -4q-21 -4 -36 -15q-15 -10 -16 -28q0 -7 8 -12q10 -6 18 -7q7 -2 21 -4q10 -2 18 -3q41 -9 46 -10l16 -4q26 -5 54 -17zM542 1001l-163 -139l-205 104l33 79l157 -82l127 99z" />
    <glyph glyph-name="scaron" unicode="&#x161;" horiz-adv-x="446" 
d="M14 198q36 -10 55 -13q30 -5 59 -5q19 0 30 1q14 0 28 3q11 1 21 8q8 6 8 18q0 16 -15 23q-11 5 -38 14q-44 15 -50 17q-27 9 -49 28q-24 19 -38 49q-16 31 -16 81q0 35 13 65q14 33 42 58t75 42q45 16 111 16q16 0 50 -2q19 -1 48 -5q15 -3 41 -7q8 -2 19 -4.5t13 -2.5
v-176q-17 4 -49 10q-21 4 -52 4h-19q-5 0 -13 -1t-13 -2q-12 -3 -23 -9q-10 -6 -10 -16q0 -17 16 -24q18 -8 40 -15l51 -17q29 -11 52 -28q23 -20 39 -50q16 -31 16 -81q0 -53 -23 -90q-24 -36 -62 -57q-38 -22 -89 -31q-50 -9 -104 -9q-37 0 -82 5q-35 4 -82 16v187z
M298 800l120 -50l-105 -116h-154l-111 109l126 57l62 -84z" />
    <glyph glyph-name="Tcaron" unicode="&#x164;" horiz-adv-x="544" 
d="M544 833l-26 -238l-120 -14v-563l-284 -35l15 571l-132 -13l7 246zM455 1001l-163 -139l-205 104l33 79l157 -82l127 99z" />
    <glyph glyph-name="tcaron" unicode="&#x165;" horiz-adv-x="440" 
d="M329 -7q-22 -2 -30 -2q-10 -1 -32 -1q-96 0 -149 44q-54 44 -54 141v237l-55 -1l6 173h47v66l217 98v-164l81 12l-11 -184h-68v-175q0 -29 9 -40q7 -10 38 -10q16 0 21 1l15 3zM343 761q-17 17 -17 38q0 22 17 37.5t40 15.5t40 -15.5t17 -37.5q0 -26 -21 -41l-67 -129
l-52 9z" />
    <glyph glyph-name="Uring" unicode="&#x16e;" horiz-adv-x="644" 
d="M347 740l271 50q6 -153 9 -246q2 -94 3 -143q1 -33 1 -66v-16q1 -61 -9 -117q-11 -56 -36 -101q-27 -47 -72 -78q-46 -32 -114 -46q-106 -20 -179 -4q-75 17 -123 60q-48 42 -71 112q-22 65 -20 148v10q0 21 1 42q1 12 1.5 43.5t0.5 46.5q4 150 4 155q1 21 3 102t4 134
l286 -50l-26 -470q-4 -24 1 -46q5 -20 9 -29q4 -8 6 -10q12 -12 23 -13q13 -1 29 24q2 2 6 13q6 14 10 40q5 29 3 71zM403 871q21 21 30 42q9 18 11 42q0 25 -5 40q-7 20 -18 34q-4 7 -17 15q-13 9 -26 13q-11 3 -34 5q-22 0 -39 -5q-30 -7 -57 -26q-25 -17 -40 -42
q-14 -25 -14 -52q0 -29 17 -56q17 -25 43 -35q27 -9 55 -9q26 0 54 10q25 9 40 24zM360 987q7 -10 9 -26q1 -13 -13 -39q-8 -10 -21 -18q-16 -8 -28 -8q-13 0 -25 9q-11 9 -13 29q-1 22 9 39q11 15 26 23q14 9 31 6q16 -2 25 -15z" />
    <glyph glyph-name="uring" unicode="&#x16f;" horiz-adv-x="591" 
d="M362 -4v92h-2q-19 -55 -62 -78q-44 -23 -100 -23q-74 0 -121 45q-47 44 -47 129v420l223 18l-6 -370q-1 -23 11 -34q11 -11 35 -11q20 0 33 10q12 11 11 34l-6 353l230 18l-15 -595zM375 654q17 17 24 34q6 14 8 34q0 18 -4 31q-4 14 -14 27q-5 7 -14 13q-7 5 -21 10
q-9 2 -27 4q-16 0 -31 -4q-25 -7 -46 -21q-22 -17 -31 -34q-12 -18 -12 -41q0 -24 14 -45q11 -18 34 -28q23 -8 44 -7q21 0 43 8t33 19zM335 737q4 -4 6 -15q1 -9 -9 -22q-5 -7 -14 -10q-10 -5 -19 -5q-8 0 -16 5q-8 6 -8 17q-2 14 5 22q6 8 17 13q12 5 21 4q11 -2 17 -9z
" />
    <glyph glyph-name="Uhungarumlaut" unicode="&#x170;" horiz-adv-x="644" 
d="M347 740l271 50q6 -153 9 -246q2 -94 3 -143q1 -33 1 -66v-16q1 -61 -9 -117q-11 -56 -36 -101q-27 -47 -72 -78q-46 -32 -114 -46q-106 -20 -179 -4q-75 17 -123 60q-48 42 -71 112q-22 65 -20 148v10q0 21 1 42q1 12 1.5 43.5t0.5 46.5q4 150 4 155q1 21 3 102t4 134
l286 -50l-26 -470q-4 -24 1 -46q5 -20 9 -29q4 -8 6 -10q12 -12 23 -13q13 -1 29 24q2 2 6 13q6 14 10 40q5 29 3 71zM499 1062l120 -63l-185 -153l-65 14zM290 1060l120 -63l-185 -153l-65 14z" />
    <glyph glyph-name="uhungarumlaut" unicode="&#x171;" horiz-adv-x="591" 
d="M362 -4v92h-2q-19 -55 -62 -78q-44 -23 -100 -23q-74 0 -121 45q-47 44 -47 129v420l223 18l-6 -370q-1 -23 11 -34q11 -11 35 -11q20 0 33 10q12 11 11 34l-6 353l230 18l-15 -595zM222 832l145 -80l-179 -126l-78 41zM444 832l145 -80l-179 -126l-78 41z" />
    <glyph glyph-name="Wcircumflex" unicode="&#x174;" horiz-adv-x="985" 
d="M264 -75l-306 804l272 118l106 -327l181 278l151 -262l120 358l230 -165l-248 -735l-249 255zM304 930l163 132l205 -95l-32 -86l-154 99l-131 -118z" />
    <glyph glyph-name="wcircumflex" unicode="&#x175;" horiz-adv-x="788" 
d="M257 327h2l57 259l157 12l59 -274h2l59 283l218 -18l-154 -577l-207 -16l-56 279h-2l-57 -263l-205 -17l-156 594l224 18zM457 634l-61 84l-63 -84l-126 57l112 109h153l106 -116z" />
    <glyph glyph-name="Ydieresis" unicode="&#x178;" horiz-adv-x="701" 
d="M150 953l165 12l17 -80q-4 0 -12 -1t-15.5 -2t-15.5 -1q-36 -2 -53 -3q-34 -2 -45 -2q-18 0 -18 2l-3 15q-2 10 -20 60zM534 1012l10 -90q-88 -10 -123 -16l-45 -7l2 79zM-60 664l215 168l177 -278l192 278l245 -168l-305 -394l-3 -288l-269 36v294z" />
    <glyph glyph-name="Zacute" unicode="&#x179;" horiz-adv-x="817" 
d="M770 17l-737 -48l243 589l-292 -19l56 262l743 24l-339 -563l376 46zM407 1062l120 -63l-185 -153l-65 14z" />
    <glyph glyph-name="zacute" unicode="&#x17a;" horiz-adv-x="486" 
d="M12 372l42 208h417l-168 -369h178l-43 -208h-453l170 369h-143zM294 832l145 -80l-179 -126l-78 41z" />
    <glyph glyph-name="zdotaccent" unicode="&#x17c;" 
 />
    <glyph glyph-name="Zcaron" unicode="&#x17d;" horiz-adv-x="817" 
d="M770 17l-737 -48l243 589l-292 -19l56 262l743 24l-339 -563l376 46zM586 1001l-163 -139l-205 104l33 79l157 -82l127 99z" />
    <glyph glyph-name="zcaron" unicode="&#x17e;" horiz-adv-x="486" 
d="M12 372l42 208h417l-168 -369h178l-43 -208h-453l170 369h-143zM340 800l120 -50l-105 -116h-154l-111 109l126 57l62 -84z" />
    <glyph glyph-name="uni02B0" unicode="&#x2b0;" 
 />
    <glyph glyph-name="circumflex" unicode="&#x2c6;" horiz-adv-x="523" 
d="M382 634l-61 84l-63 -84l-126 57l112 109h153l106 -116z" />
    <glyph glyph-name="caron" unicode="&#x2c7;" horiz-adv-x="519" 
d="M379 800l120 -50l-105 -116h-154l-111 109l126 57l62 -84z" />
    <glyph glyph-name="ring" unicode="&#x2da;" horiz-adv-x="447" 
d="M395 654q17 17 24 34q6 14 8 34q0 18 -4 31q-4 14 -14 27q-5 7 -14 13q-7 5 -21 10q-9 2 -27 4q-16 0 -31 -4q-25 -7 -46 -21q-22 -17 -31 -34q-12 -18 -12 -41q0 -24 14 -45q11 -18 34 -28q23 -8 44 -7q21 0 43 8t33 19zM355 737q4 -4 6 -15q1 -9 -9 -22q-5 -7 -14 -10
q-10 -5 -19 -5q-8 0 -16 5q-8 6 -8 17q-2 14 5 22q6 8 17 13q12 5 21 4q11 -2 17 -9z" />
    <glyph glyph-name="uni2000" unicode="&#x2000;" 
 />
    <glyph glyph-name="uni200E" unicode="&#x200e;" 
 />
    <glyph glyph-name="uni200F" unicode="&#x200f;" 
 />
    <glyph glyph-name="emdash" unicode="&#x2014;" horiz-adv-x="943" 
d="M7 269l19 189l643 23l-19 -207z" />
    <glyph glyph-name="quotedblleft" unicode="&#x201c;" horiz-adv-x="429" 
d="M177 912l77 63l84 -202l-42 -14zM34 912l77 63l84 -202l-42 -14z" />
    <glyph glyph-name="quotedblright" unicode="&#x201d;" horiz-adv-x="417" 
d="M164 975l77 -63l-119 -153l-42 14zM306 975l77 -63l-118 -153l-42 14z" />
    <glyph glyph-name="quotedblbase" unicode="&#x201e;" horiz-adv-x="377" 
d="M138 175l77 -63l-119 -153l-42 14zM280 175l77 -63l-118 -153l-42 14z" />
    <glyph glyph-name="universal" unicode="&#x2200;" 
 />
    <glyph glyph-name="approxequal" unicode="&#x2248;" horiz-adv-x="600" 
d="M469 657l137 -157l-163 -165l134 -144l-118 -149l-155 151l-164 -167l-124 144l147 159l-165 161l131 183l177 -191z" />
  </font>
</defs>
</svg>
